<?xml version="1.0" encoding="UTF-8"?>
<svg id="Layer_1" data-name="Layer 1" xmlns="http://www.w3.org/2000/svg" viewBox="0 0 1024 1024">
  <defs>
    <style>
      .cls-1 {
        fill: #fff;
      }

      .cls-2 {
        fill: none;
      }

      .cls-3 {
        fill: #934e1f;
      }

      .cls-4 {
        fill: #1271a1;
      }

      .cls-5 {
        fill: #083045;
      }

      .cls-6 {
        fill: #d92626;
      }

      .cls-7 {
        fill: #f0b375;
      }
    </style>
  </defs>
  <path class="cls-1" d="M237.28,972.22c-15.714-11.423-31.354-24.572-25.765-46.206.748-2.897,3.223-4.87,3.538-8.525,1.552-18.016-3.118-27.39,3.242-47.695,1-3.192,7.844-17.233,7.617-18.193-.155-.654-7.417-6.016-9.346-9.669-1.742-3.299-2.212-8.858-2.766-9.734-1.006-1.59-32.225-14.513-34.525-14.968-5.539-1.095-9.765,1.081-14.781.839-13.694-.66-32.922-5.05-45.473-10.593-3.726-1.645-11.819-7.73-13.739-8.261-11.399-3.156-27.53-2.794-41.279-6.721-28.962-8.272-50.487-24.683-11.01-41.99-14.792-10.408-24.22-26.715-25.031-44.968-.258-5.81,1.646-13.241.981-17.959-.498-3.535-4.421-9.009-5.488-13.535-4.522-19.179,3.457-28.245,8.045-45.043,6.941-25.41,6.64-34.479,22.687-57.313,12.197-17.356,40.387-51.034,64.086-43.462,5.568,1.779,10.54,7.979,13.746,9.254,3.039,1.209,8.504.782,12.773,2.227,8.941,3.026,18.935,13.307,19.25,23.247l42.249,4.254c6.481,4.494,12.421,14.154,19.376,17.624,7.17,3.578,17.062,3.002,25.33,6.67,3.956,1.755,13.607,10.48,14.502,10.48,2.229,0,19.284-21.81,21.72-25.263,20.78-29.452,33.32-65.772,60.254-90.746,6.746-6.255,14.433-10.048,20.354-17.646,7.112-9.127,6.468-11.693,8.589-21.327,1.571-7.137,13.059-27.787,16.6-37.483,10.638-29.125,15.834-62.329,32.162-88.838,2.319-3.765,12.97-15.871,12.662-18.917-.488-4.819-11.395-19.239-14.36-24.741-7.258-13.468-20.848-38.004-22.353-52.647-.547-5.327.928-14.336-.34-18.66-1.815-6.187-19.868-15.817-15.792-26.715-19.199,4.619-73.881,8.734-67.757-24.267,3.639-19.612,56.51-32.79,72.733-40.259,6.911-16.398,9.345-34.908,21.063-48.937,29.838-35.722,115.776-43.284,154-20.069,25.587,15.54,44.267,62.07,43.145,90.778,4.321,6.252,5.503,34.767,8.817,38.26,1.345,1.417,12.016,4.202,15.207,5.793,3.119,1.556,12.463,8.487,14.334,8.675,5.099.514,16.155-1.901,21.924-2.01,47.702-.898,111.202,5.102,151.267,32.809,42.834,29.623,76.268,98.628,97.444,145.556,3.102,6.875,20.282,44.847,19.653,48.916s-6.463,9.288-5.673,14.011c.432,2.581,12.909,20.048,15.367,24.726,6.142,11.688,10.626,20.592,9.353,34.392-.645,6.991-6.258,19.321-5.686,24.864.835,8.082,13.289,30.635,16.307,41.77,10.12,37.336,10.704,73.576.51,110.986,37.043-2.827,51.272,43.911,50.942,73.447-.019,1.73-1.797,3.098-1.715,4.886.188,4.086,6.961,16.499,7.769,21.674h0v.002s0-765,0-765H0v1024h324.999c-27.883-18.668-60.624-32.082-87.719-51.779h0Z"/>
  <path class="cls-1" d="M389.274,681.817c1.781-.519,11.422-9.568,14.414-11.629,8.887-6.121,19.036-12.938,29.051-16.949,30.596-12.254,64.696-8.366,96.564-4.17,3.69-5.015,6.611-10.822,10.731-15.535,4.285-4.901,38.306-29.775,43.921-32.079,5.481-2.249,9.274-.505,13.786-2.214,6.764-2.562,17.427-14.728,26.256-16.255h.002c.515-.865-13.76-10.268-14.781-13.695-1.815-6.094,3.145-17.054,2.318-19.259-.615-1.639-12.621-12.272-15.046-15.021-5.664-6.422-12.301-16.637-17.954-22.046-7.145-6.837-21.695-14.977-30.426-21.574-3.874-2.928-25.149-21.797-27.398-21.28-4.578,1.053-21.067,32.112-26.736,34.364-5.963,2.368-22.157-2.155-24.52-.586-13.224,24.595-27.165,49.271-45.944,70.122-28.194,31.304-67.116,53.712-100.504,79.009,5.514,7.867,8.662,14.392,7.859,24.354-.233,2.889-3.69,12.057-3.428,12.658.353.81,13.049,11.041,13.919,10.889,3.781-.66,18.084-20.832,33.144-20.99,4.222-.044,10.976,2.992,14.772,1.886h0Z"/>
  <path class="cls-1" d="M449.007,270.607l20.984-6.593c-4.704-.992-9.298-2.316-14.217-1.765-5.938.666-19.279,7.841-6.767,8.358Z"/>
  <path class="cls-1" d="M468,302.989c3.33,2.146,19.47-6.151,16.989-8.988-.64-.732-16.365,6.239-16.989,8.988Z"/>
  <path class="cls-1" d="M690.254,446.756c44.079-6.909,22.777-78.707-18.429-76.49-49.8,2.679-33.673,84.657,18.429,76.49ZM649.005,403.007c.576-.564,15.416-1.45,16-2.005,1.455-1.383-4.345-17.982-5.001-20.994,4.704,1.905,18.455-4.785,20.803-.312,1.214,2.313,2.616,15.706,3.243,16.247,1.431,1.236,15.04-2.592,17.805-.8.832.54,6.7,18.017,6.15,18.843-.544.817-16.449,3.378-16.929,4.105-1.137,1.725,4.399,17.686,4.923,20.909-5.805-.195-11.69.268-17.499,0-.19-.009-.778.953-1.521.567-2.35-1.222-5.233-17.949-5.988-18.574-.686-.566-13.921,4.319-17.518,1.034-1.789-1.634-5.585-17.926-4.468-19.02h0Z"/>
  <path class="cls-3" d="M153.994,561.995c2.605-2.703-7.457-11.747-10.334-13.154-9.389-4.593-4.18.955-3.641,7.699.095,1.194-1.164,3.34-1.018,3.45.603.457,14.468,2.55,14.993,2.005h0Z"/>
  <path class="cls-3" d="M79.485,740.009c1.791.733,11.167,17.847,21.284,22.722,15.468,7.454,6.391-.212,7.296-9.112.862-8.477,8.245-13,15.414-15.641,4.481-1.65,24.195-3.843,23.494-8.485-.14-.926-14.762-4.844-17.643-6.323-19.545-10.031-11.05-24.932-21.906-37.094-2.215-2.481-17.417-13.049-19.424-11.076-.708.726.534,17.204.002,19.997-2.631.543-2.112-1.013-2.66-2.792-3.794-12.327-3.169-27.167-7.853-40.195-.393-1.093-3.125-7.789-3.501-8.011-1.437-.849-3.773,4.997-5.976,3.509l22.957-51.048c7.549-4.857.78,17.661.296,19.301-1.572,5.332-9.336,21.83.146,8.146,6.268-9.046,14.227-27.455,14.656-38.41.137-3.502-2.201-10.018-.593-12.53,3.823-5.973,6.421,12.755,6.536,14.587.222,3.514-2.168,8.11-.023,10.437,1.089-4.419,4.217-7.987,4.921-12.584.524-3.424-.234-25.323,2.593-25.385.921-.02,3.5,6.592,3.5,7.478v15.5c13.845-16.524,12.792-46.152-14.362-44.934-19.962.895-51.536,44.858-58.817,62.255-4.307,10.291-4.646,19.557-7.526,29.474-3.967,13.656-11.357,20.117-9.056,36.385.923,6.529,4.863,12.358,5.644,18.436.658,5.119-.406,10.768.14,15.86,1.482,13.822,7.259,30.355,17.965,39.523.422-3.585-.546-8.094.009-11.518.855-5.279,2.529,1.706,3.12,2.883,5.305,10.561,9.64,20.36,20.841,26.177.587.304,6.806,3.803,6.033.973-3.286-3.516-8.759-11.369-9.01-16.009-.055-1.01-.499-3.314,1.503-2.496h0ZM98.997,704.482c.277-1.749-.428-1.646,1.998-1.486-.583,5.056,8.357,31.56,5.999,34-1.058,1.096-2.928-.544-3.86-1.63-3.056-3.561-4.926-25.906-4.137-30.884ZM71.012,695.995c-2.481-1.633.418-30.581.984-35.515.105-.919-.473-3.489,1.488-2.469,6.472,3.365,4.737,42.729-2.472,37.984Z"/>
  <path class="cls-4" d="M470.999,938.988c-5.538-3.914-26.6-14.648-32.313-14.702-5.784-.054-25.936,8.101-31.702,11.198-30.339,16.297-48.597,55.07-50.984,88.516h41v-.002c8.686-37.223,37.282-72.806,73.999-85.01h0Z"/>
  <path class="cls-4" d="M795.997,769.985c-14.359-12.139-34.349-14.342-52.546-14.035-19.73.333-41.299,2.566-59.898,5.135-3.846.532-7.613-1.454-11.052-1.181-20.055,1.595-39.129,3.976-57.979,6.117-9.519,1.082-18.92,3.501-28.521,3.968.664-2.142,2.503-2.536,4.322-3.166,14.118-4.891,39.931-8.489,55.307-10.693,30.921-4.431,62.289-5.85,93.366-8.624-22.607-12.045-45.756-23.588-69.325-33.675-9.15-3.916-30.592-14.377-39.32-14.768-10.368-.465-27.503,21.673-42.294,22.471-7.8.42-11.973-5.217-15.622-5.542-2.963-.264-8.828,3.521-14.918,3.02-6.452-.531-10.785-6.228-12.973-6.58-1.803-.289-5.001,1.161-7.83.537-6.831-1.507-10.968-10.805-13.988-13.692-1.147-1.096-3.979-1.51-5.66-2.846-10.928-8.688-1.096-18.528-2.121-20.34-2.297-4.06-33.051-9.73-38.942-10.103.414-1.991,2.048-1.7,3.5-1.986,7.95-1.564,18.671-.863,26.742.255,11.338,1.57,13.273,8.851,18.755-6.245-42.644-7.314-88.111-5.208-120.998,25.977,4.631.88,28.942-3.677,23.894,6.344-4.774,9.477-26.067,22.621-36.892,23.68l13.986,21.986c-13.233-6.181-24.406-20.685-29.174-34.316-6.944-19.851,5.385-5.646,11.502-2.504,7.159,3.677,10.303,2.489,17.361-1.001,1.322-.654,9.491-5.675,8.317-7.167-1.96-2.491-3.345,1.081-4.455,1.108-11.537.284-22.026-3.643-32.009-4.171-11.093-.587-23.009,11.582-28.525,20.031,8.506,5.48,15.411,12.99,23.678,18.835,17.164,12.136,21.012,9.386,40.131,13.869,19.196,4.501,38.174,9.826,56.86,16.075,1.825.029,17.968-14.758,17.322-15.745-2.131-3.259-67.893-11.365-75.992-17.002,8.978-4.507,81.674,10.871,81.973,16.486.082,1.535-18.255,20.574-22.57,20.488-21.553-3.099-42.567-10.75-64.062-13.918-42.016-6.191-83.145,7.543-120.016,27.763-11.097,6.086-47.57,30.141-49.889,42.147-.784,4.059,8.377,15.396,10.92,14.948,1.064-.188,13.758-10.229,17.765-12.299,9.676-4.997,21.103-8.787,31.689-11.311,4.185-.998,25.899-3.665,26.977-4.507,3.541-2.766,8.789-45.1,13.198-47.345,4.85-2.47,6.802,4.686,9.468,5.125,6.134,1.011,23.726-8.052,31.536-5.094-6.917,6.781-29.463,11.204-34.965,17.035-5.654,5.992-5.289,29.416-14.117,34.883-5.712,3.537-21.763,4.667-29.341,6.659-64.243,16.884-98.708,79.623-50.211,134.568,27.877,31.584,69.275,44.943,102.639,69.361v-14.502c0-16.572,24.254-53.199,36.992-64.008,15.36-13.033,23.64-12.833,41.203-18.593.258-.084,4.736-2.927,3.801-3.882-34.51-21.369-72.831-30.163-110.972-42.543-1.168-.692-1.249-1.347-.042-1.991,2.363-1.259,16.635.225,20.386.65,16.508,1.871,32.573,7.002,48.632,10.857-39.732-38.847-110.137-50.789-154.989-13.989,2.225-7.657,13.906-14.982,20.945-18.544,52.586-26.612,110.018-.588,151.033,34.543-10.055-14.797-24.867-27.51-39.08-38.409-3.244-2.488-14.104-8.557-15.899-10.612-.8-.917-.581-2.007,1.311-1.82,3.94.39,15.365,6.442,19.347,8.673,15.905,8.909,29.005,21.559,42.884,33.116l19.437,24.052c-2.417-9.154-4.764-18.43-8.226-27.263-2.859-7.296-16.063-28.887-16.747-33.258-.197-1.263.104-2.055,1.469-1.469,7.187,3.086,22.538,31.133,25.979,39.027,2.321,5.327,10.369,32.964,14.249,33.844,2.045.464,2.628-.621,3.747-1.928,5.186-6.058,10.919-21.847,16.127-29.865,2.371-3.649,4.564-7.699,8.402-10.087-.206,8.118-3.314,15.822-6.225,23.263-1.609,4.112-11.992,21.874-11.695,23.136.292,1.24,20.998,12.45,22.268,12.361,3.224-.227,36.352-22.315,41.969-25.955,43.724-28.332,85.449-61.168,129.78-88.22,21.165-12.915,43.874-26.107,67.908-32.58.607,2.711-.839,1.72-1.972,2.482-11.619,7.81-26.907,14.18-39.328,21.707-65.095,39.445-121.423,92.08-189.689,126.311,10.063,5.079,19.839,10.779,29.663,16.327,11.451,6.467,13.489,11.084,27.849,12.151,17.219,1.279,41.475-1.135,58.514-4.453,14.008-2.728,27.732-9.432,41.969-9.519-13.063,12.211-33.2,15.387-49.994,20.483,22.62,8.757,45.584,18.339,69.989,20.5-4.801-29.292,2.642-60.684,11.971-88.529,18.635-55.623,56.589-107.583,112.032-130.479h0ZM653.012,890.511c-27.904,24.022-65.144,41.538-101.77,47.23-2.351.365-18.264,3.032-12.643-1.832,40.982-13.587,81.369-32.274,116.714-57.097,2.815-1.977,22.118-18.302,23.683-16.806h0c2.517,2.406-23.27,26.169-25.983,28.505h0Z"/>
  <path class="cls-5" d="M1023.997,911.999c-30.017-7.544-60.134-16.683-91.536-15.038-24.164,1.266-47.883,8.348-71.453,13.035-.344-2.193,3.81-4.316,5.315-5.178,10.16-5.823,31.785-12.202,43.456-14.539,3.597-.72,20.289-1.754,21.215-2.285,2.812-1.612-8.313-5.023-9.217-5.271-22.956-6.295-47.789-1.463-69.459,7.095-13.962,5.515-26.521,14.352-40.313,20.176-.24-1.916.413-3.444,1.56-4.929,6.574-8.51,32.268-22.986,42.64-27.36,30.68-12.938,53.866-12.786,84.471.118,2.227.938,8.378,6.018,8.317,2.7-.037-1.982-4.205-11.363-5.459-13.558-18.278-32.008-78.578-47.249-112.504-54.496-4.112-.879-23.861-4.932-26.299-4.321-1.166.292-12.424,11.872-14.243,13.84-37.978,41.084-77.922,118.141-71.357,175.38,1.755,15.304,11.768,18.649,22.865,26.63,0,0,.002,0,.003.002h54,0c-5.381-6.177-8.468-26.246-12.537-30.963-3.279-3.802-30.433-17.56-37.793-23.207-1.161-.891-16.486-12.926-8.286-11.744l45.61,25.908c-2.74-5.706-2.315-47.401.506-48.005s4.02,37.623,4.605,41.407c.553,3.579,1.809,7.656,2.837,11.163,16.992,11.967,36.915,20.42,54.083,31.917,1.463.98,3.103,1.086,2.975,3.524h176.001v-112h-.004.002Z"/>
  <path class="cls-5" d="M634.325,592.144c-2.28,1.967-20.056,9.781-13.605,12.636,3.308,1.464,32.093,5.982,36.806,6.196,1.237.056,9.665.348,7.471-2.961h0c-.965-1.454-27.551-11.565-30.672-15.871Z"/>
  <path class="cls-5" d="M742.196,868.697c6.027-10.364,16.753-21.693,21.655-31.344.501-.986,1.817-3.671,1.154-4.346h0c-.362-.369-7.582-1.384-10.018-2.494-2.883-1.313-10.14-7.12-13.273-6.374-5.215,1.241-25.79,34.602-29.087,40.988-4.696,9.095-26.772,66.833-22.457,72.722.716.978,21.96,9.012,22.817,8.155.997-.996,6.071-23.431,7.298-27.219,5.406-16.688,13.1-34.933,21.912-50.088h0Z"/>
  <path class="cls-5" d="M773.978,791.436c-3.877,1.036-28.248,22.446-27.943,25.075.163,1.407,23.944,10.853,26.266,10.318l29.693-29.822c-7.863.6-21.055-7.433-28.016-5.571Z"/>
  <path class="cls-5" d="M801,1023.999h0s36,0,36,0c-5.968-1.593-40.118-24.583-42.49-24.01-2.804.677,6.458,21.295,6.49,24.009h0Z"/>
  <path class="cls-5" d="M806.509,777.941c-3.035.157-13.221,4.699-15.508,7.046,5.713-.195,15.659,5.227,20.532,5.071.76-.024,13.072-6.42,13.464-7.072,1.104-1.835-16.654-5.14-18.488-5.045Z"/>
  <path class="cls-5" d="M846.528,783.952c-10.75-.014-23.958,11.717-32.529,18.036,35.108,6.5,74.144,14.574,105.668,31.843,4.654,2.55,16.439,9.415,20.112,12.452.496.409.23,1.964.226,2.712,1.287.202,2.585.294,1.948-1.438-1.295-3.521-5.953-11.464-8.148-14.863-2.316-3.586-12.361-14.676-12.79-16.215-.599-2.148,1.414-1.568,2.492-1.502,8.976.552,22.438,19.546,26.662,27.354,5.483,10.136,8.292,20.772,11.845,31.661,1.552.011,1.828-3.153,2.123-4.354,2.878-11.713,4.039-24.349,4.169-36.398.015-1.333-1.31-2.619,1.178-2.23,9.181,17.346,4.07,37.448,3.951,56.058l50.565,12.932h0v-88.001h0l-155.638-25.861c-6.932.158-15.121-2.177-21.833-2.186h0Z"/>
  <path class="cls-5" d="M900.355,640.146c-48.336-6.836-78.793,6.213-109.863,42.846-3.444,4.061-27.692,39.006-27.512,41.489.148,2.048,7.846.324,9.529.442,49.535,3.467,94.901,21.575,138.016,44.935,2.592-.325,20.641-41.233,22.936-46.896,21.251-52.422,45.481-131.872,11.787-183.674-2.746-4.221-3.476,4.947-4.86,7.6-6.145,11.775-26.217,23.86-34.388,35.101,15.784-.551,31.645,3.921,44.992,11.997-21.558,3.96-49.089-19.559-61.985,7.01,1.155.416,2.161-.978,2.493-.996h0c6.558-.356,13.406,0,20,0,5.411,0,32.867,10.096,36.172,14.324.543.695,1.614,4.376,1.322,4.67-17.816-6.478-36.127-12.404-55.474-10.973-16.981,1.256-29.589,11.873-42.52,21.968,21.933-2.377,47.243-1.128,67.678,7.833,1.783.782,14.343,6.196,11.316,9.173-1.085,1.066-25.152-6.214-29.64-6.849h0Z"/>
  <path class="cls-5" d="M948.983,730.006l-24.011,47.423c3.081,1.618,16.476,8.172,18.889,6.412.89-.65,7.443-18.413,7.899-20.581,2.348-11.165,1.498-22.725-2.777-33.255h0Z"/>
  <path class="cls-5" d="M960.523,695.993c-.954.221-6.695,17.01-6.529,18.481.137,1.209,6.039,7.829,7.477,11.554,5.898,15.274,2.274,29.732-1.46,44.971,7.385-5.096,10.242-14.778,14.561-21.97.718-1.195-.356-2.612,2.422-2.024.339,6.71-.782,13.532-2.472,20.016-.868,3.332-9.362,21.153-8.516,21.973h0c2.279,2.208,11.933-8.092,13.405-10.083,13.795-18.664,9.277-44.559-1.243-63.579-2.015-3.644-13.471-20.305-17.644-19.339h0Z"/>
  <path class="cls-6" d="M409.692,465.807c13.912,8.545,33.412,16.928,49.296,20.704,4.892,1.163,24.337,5.049,27.791,3.26,1.61-.834,20.618-29.608,19.218-30.76-11.873,4.906-25.613,8.191-38.464,9.024-.844.055-9.709.879-8.528-1.521,1.229-2.498,23.699-11.479,28.313-14.693,1.48-1.032,8.521-5.995,6.675-7.815-.833-.821-19.184-.611-23.357-1.144-21.096-2.696-40.009-10.079-56.631-23.375-.44-2.462,1.835-1.494,3.249-1.248,6.991,1.214,16.299,6.143,23.751,8.254,17.219,4.878,35.006,8.101,52.988,7.495-5.37-3.491-11.864-5.792-17.298-9.185-18.415-11.499-38.5-33.423-40.202-55.798,12.006,18.87,27.451,33.068,45.495,45.994-5.929-13.936-13.313-27.494-17.249-42.239-.479-1.797-4.889-16.857-1.239-16.738,1.914.062,13.902,30.131,16.33,34.647,36.337,67.597,107.6,123.111,183.158,138.842,4.556,2.777,39.595,5.017,40.005,7.006.406,1.974-2.052,2.269-3.325,2.672-4.8,1.518-28.411-.62-34.89-1.468-22.229-2.91-45.06-11.515-65.779-19.71,12.243,14.763,26.015,28.014,42.703,37.786,17.527,10.264,36.783,16.409,56.291,21.72.367,1.576-1.229,2.196-2.505,2.472-7.66,1.659-33.9-4.91-42.497-7.481-10.794-3.227-21.588-7.469-30.498-14.502-.908,2.473-1.074,6.325.517,8.483,1.323,1.793,18.133,10.36,21.309,11.691,13.841,5.798,46.84,13.57,61.126,10.766,3.37-.662,19.708-12.655,23.445-15.555,3.082-2.392,20.245-16.862,21.099-18.907s-1.387-1.406-2.476-1.483c-2.419-.17-40.54-3.869-37.512-8.988,1.294-2.187,44.76-.975,50.742-2.769,4.961-4.56,37.202-41.831,37.206-44.744.002-.954-10.614-10.858-12.768-14.183-2.784-4.297-11.144-25.318-12.198-26.314-1.452-1.373-5.23,5.663-6.477,7.005-3.051,3.283-27.203,26.161-30.502,22.987-1.171-1.126,14.869-24.887,16.514-27.974,2.213-4.154,10.641-20.882,10.465-24.439-.094-1.884-13.791-30.797-15.819-34.248-12.563-21.375-34.167-45.355-34.167-72.833v-18.5l13.83,41.67c3.929,7.774,7.685,16.246,14.159,22.33-11.512-35.523-17.529-73.215-5.003-109.514,8.323-24.12,30.641-51.448,59.006-42.472l-16.216,3.261c-21.451,7.097-35.357,34.648-39.474,55.526-11.388,57.749,18.627,111.908,45.712,160.196,33.621-31.669,74.949-55.142,120.988-63.006-5.897-15.309-13.193-30.335-20.477-45.016-15.938-32.125-38.354-77.109-67.195-98.805-45.545-34.262-111.766-33.144-166.324-33.164,2.31,5.64,5.907,10.718,8.015,16.473,1.593,4.349,5.309,24.351,6.217,25.284,2.444,2.511,68.411,6.453,68.74,12.737.016.296-2.196,2.575-3.253,2.249l-64.728-8.752c.836,16.411,7.888,80.859-.546,91.947-3.146,4.137-24.114-1.36-29.971-1.922-2.299-.221-18.788-1.711-19.483-1.027-.683.672.986,10.476-.486,13.014-1.628,2.808-25.37,12.741-26.34,16.584-.316,1.252,5.817,21.689,6.812,24.926,1.729,5.624,13.782,35.66,13.03,37.963-.281.859-1.967.742-2.511.541-3.903-1.442-21.784-51.217-19.505-59.019-1.752-2.155-17.592,16.325-17.011,19.99-3.058.923-2.077-3.518-2.027-5.539.261-10.618,6.965-18.849,14.578-25.422,4.25-3.669,23.58-13.979,24.245-15.247,2.695-5.137-4.092-18.118-.207-20.72,7-4.69,26.974-.126,35.057,1.803,2.711.647,15.035,5.303,15.854,5.148,3.275-.621,1.013-59.968.502-66.503-2.376-30.379-7.1-69.549-41.975-78.514,4.223,7.334,8.22,13.715,9.023,22.466,4.056,44.211-11.702,90.97-35.628,127.439-21.011,32.026-37.105,36.363-18.869,78.058,1.963,4.487,13.016,26.059,15.569,28.431,2.909,2.703,25.529,3.167,20.895,7.605l-.002.002c-.704.674-16.705,0-19.5,0-6.697,0-22.725-29.791-25.673-36.327-5.801-12.859-8.1-23.283-6.881-37.623-9.129.53-23.869-8.792-31.547-9.007-10.645-.298-26.516,26.893-23.4-12.043h-25.5c-12.097,0-22.148-8.983-26.272-19.728-1.707-4.449-2.508-13.501-4.224-16.653-.604-1.109-.9-.704-1.983-.61-28.08,38.675-29.595,89.765-53.627,130.993-.834,4.383,16.299,15.345,20.301,17.803h0ZM775.011,398l25.983-83.994c2.042,29.044-4.588,63.174-25.983,83.994ZM646.365,374.365c40.818-40.855,104.904,37.865,61.108,71.608-40.981,31.575-98.695-33.987-61.108-71.608Z"/>
  <path class="cls-6" d="M454.481,148.983c18.854-.97,47.462-12.92,61.842-25.159.622-.53,2.773-1.858,1.671-2.818h0c-.278-.241-5.681.111-7.359-.142-33.342-5.019-62.809-13.958-96.851-5.579-17.887,4.402-41.52,14.061-59.031,20.969-4.994,1.97-10.114,4.073-14.748,6.735,9.38-.893,18.247-4.976,27.631-5.852,29.657-2.768,56.839,13.389,86.845,11.846h0Z"/>
  <path class="cls-6" d="M510.516,112.983c28.708,3.459,58.379,2.94,85.97,13.031-5.625-29.894-19.354-65.544-50.713-76.287-3.507-1.201-11.99-3.727-15.273-3.727h-18.499c13.189,13.849,18.155,33.764,18.982,52.515.108,2.437.816,12.972-1.5,13.477-4.281.934-4.284-20.077-4.786-23.196-2.087-12.959-10.906-41.066-26.15-42.845-18.896-2.205-62.322,9.282-76.095,23.001-10.179,10.14-13.885,27.815-18.447,41.042,35.276-11.993,71.29-1.254,106.511,2.989h0Z"/>
  <path class="cls-6" d="M525.48,353.924c5.18-.1,32.479,15.727,34.51,14.078.245-.199,2.155-5.697,2.011-5.978h0l-36.69-28.887c-1.124-.126-10.951,9.293-12.809,10.906-1.064.923-3.358.6-3.589,1.542-.558,2.278,2.527,12.696,1.097,16.415.518.703,12.832-8.025,15.469-8.076h0Z"/>
  <path class="cls-6" d="M670.991,420.993c.755.625,3.638,17.352,5.988,18.574.743.386,1.331-.576,1.521-.567,5.809.268,11.694-.195,17.499,0-.524-3.223-6.06-19.184-4.923-20.909.48-.727,16.385-3.288,16.929-4.105.55-.826-5.318-18.303-6.15-18.843-2.765-1.792-16.374,2.036-17.805.8-.627-.541-2.029-13.934-3.243-16.247-2.348-4.473-16.099,2.217-20.803.312.656,3.012,6.456,19.611,5.001,20.994-.584.555-15.424,1.441-16,2.005-1.117,1.094,2.679,17.386,4.468,19.02,3.597,3.285,16.832-1.6,17.518-1.034h0Z"/>
  <path class="cls-6" d="M825.471,415.97c-5.128,3.284-36.521,25.024-36.305,29.342.065,1.302,11.734,22.012,12.854,22.68,1.787,1.066,28.544-22.883,32.668-25.804,26.073-18.467,54.436-30.626,86.31-35.202l-11.058-25.929h0c-29.986,5.238-58.988,18.594-84.469,34.913Z"/>
  <path class="cls-6" d="M938.986,500.992c13.216-21.856-.068-38.798-11.975-56.991l11.975,56.991Z"/>
  <path class="cls-7" d="M184.555,769.059c1.48-7.631-6.546-10.114-4.552-12.051,1.865-1.812,38.177,12.349,50.497,10.996,25.394-2.788,59.366-41.621,73.309-61.69,11.764-16.931,25.847-32.18,7.715-50.338-10.156-10.171-23.625-19.704-34.537-29.463-7.844-7.015-19.196-21.636-27.637-26.363-7.081-3.965-18.018-3.098-26.027-6.973-4.515-2.185-18.545-16.202-19.825-16.203-5.426-.005-13.363,22.02-20.016,20.97-2.803-.443-1.177-8.561-.533-10.492,1.195-3.582,9.197-10.717,9.035-11.427-.037-.164-2.56-1.938-2.724-1.976-8.889-2.053-21.479-1.317-30.343-2.513-3.304-.446-4.025-2.114-4.259-2.163l-.002.002c-3.772-.791-11.307-3.411-14.227-1.442-3.374,2.274-14.717,23.801-19.464,29.537-5.084,6.144-10.472,8.465-14.426,12.574-2.932,3.048-7.332,14.184-11.576,19.424-2.014,2.487-14.914,13.926-14.971,14.983-.165,3.065,10.709,22.875,13.466,25.591,7.303,7.195,14.6,5.574,21.766,16.234,7.434,11.057,6.309,24.302,18.397,30.603,2.884,1.503,18.974,6.254,19.424,7.813.82,2.843-1.921,11.591-4.506,13.352-8.528,5.812-33.974.939-33.626,19.455.618,32.85,64.421,38.467,69.642,11.56h0ZM212.014,645.009c3.745,5.699,7.62,13.982,15.986,13.002-7.656,8.579-21.075-3.409-15.986-13.002ZM230.669,651.194c-.339.993-.368,3.678-2.152,2.795-4.719-2.333,1.352-22.827,6.478-17.983h0c.574.542-3.772,13.568-4.325,15.188h-.001ZM285.43,660.933c-.814,1.353-14.487,18.752-15.418,19.58-.964.857-3.007,2.413-4.008,1.481h0c-1.083-1.009,11.217-20.481,13.149-22.339,4.053-3.897,10.365-5.522,6.276,1.278h.001ZM254.582,663.083c3.174-5.804,13.784-23.253,21.397-19.558,5.086,2.469-3.837,7.445-6.491,10.464-6.819,7.758-11.662,14.58-15.968,24.032-.902,1.98-3.957,16.312-7.515,12.973-1.913-1.795,6.611-24.315,8.577-27.911ZM188.006,603.007c.823-.967,10.875,11.146,22.498,2.998,2.188-1.534,9.871-14.559,12.378-9.881h0c2.922,5.449-4.912,12.639-4.86,13.378.186,2.66,18.541-.368,24.507,6.47,5.243,6.009,8.996,30.315.561,24.932-3.857-2.462,1.435-21.22-14.591-22.898-4.786-.501-11.705.362-16.872-.337-2.028-.274-18.119-3.535-19.001-3.939-2.92-1.336-6.768-8.198-4.62-10.723h0ZM142,660.499c0,2.191.476,13.953,0,14.5h0c-1.465,1.683-3.861-3.614-4.181-4.318-6.25-13.739.65-31.74,9.353-43.01,8.7-11.264,24.739-19.235,12.249,2.249-4.905,8.436-17.421,19.99-17.421,30.579h0ZM160.502,766.002c-9.671,6.387-28.382.859-21.503-12.992-10.591,3.73-17.468,7.632-6.47,16.96,7.977,6.765,14.237,7.876,24.151,5.211,3.17-.852,7.183-4.379,2.325,1.324-14.632,17.177-59.504-17.634-23.211-27.212,19.329-5.101,12.811,5.691,15.383,7.516,4.462,3.165,17.218-4.823,17.796-.316.124.963-7.128,8.623-8.471,9.509ZM172.027,671.528c-1.779,1.31-8.166,5.483-7.904,1.129.067-1.106,11.569-14.619,13.507-17.526,1.523-2.284,4.904-10.758,5.428-11.084h.001c1.551-.966,3.747.397,3.964,2.44.762,7.156-9.338,20.876-14.996,25.041h0Z"/>
  <path class="cls-7" d="M285.51,597.012c-2.229,2.601-12.127,10.468-11.072,12.975l40.061,36.966c21.128-21.386,48.019-35.847,70.968-54.985,31.145-25.972,52.851-59.241,71.529-94.959-15.438-3.156-30.864-11.098-44.302-19.202-3.559-2.146-25.284-18.6-26.672-17.797-1.058.612-9.114,17.398-12.517,20.997-4.43,4.684-11.9,8.455-17.031,12.969-29.698,26.123-44.101,71.699-70.964,103.036h0ZM418.995,516.994c-1.965,1.735-10.153-6.96-8.989-7.988,1.965-1.735,10.153,6.96,8.989,7.988ZM406.994,528.994l-19.988-42.989c13.787,8.305,20.677,27.486,19.988,42.989Z"/>
  <path class="cls-7" d="M322.501,700.021c-11.987,26.165-33.843,46.347-58.495,60.484,6.352-1.095,12.918-2.259,19.255-3.567.824-.17.387-1.699,2.177-2.016,1.344-.237,7.718-.571,8.557,1.066l-64.627,17.87c-9.06.48-18.526-1.437-26.151-3.764-8.851-2.701-5.085-.32-6.673,4.95-.538,1.783-3.798,8.532-3.541,8.938,1.235,1.952,41.032,16.447,43.267,15.864,1.031-.269,12.956-12.087,15.821-14.256,24.821-18.792,57.506-33.138,87.491-41.509,5.032-1.404,22.798-3.995,25.19-5.29,2.91-1.575-.091-2.872-.323-3.193h0l-41.949-35.577h0Z"/>
  <path class="cls-7" d="M399,192.011c4.112,4.515,9.07,10.147,10,16.489h0c.685,4.671-.498,10.653,0,15.5,1.883-1.705,4.224-13.512,3.994-15.493-.232-2.001-3.262-3.898-3.81-7.278-.782-4.823,3.391-6.349-3.176-4.233-1.509-1.59,8.573-6.461-7.007-4.985h-.001Z"/>
  <path class="cls-7" d="M426.813,253.898c-.31-.112-5.222-5.054-5.792-1.423,9.573,22.35,23.186,42.48,33.472,64.534,6.041,12.952,4.075,24.158,22.96,25.032,29.22,1.352,47.774-22.358,63.939-43.148,19.753-25.406,35.625-49.204,18.613-81.885,23.211,12.551,36.378-26.054,36.06-43.539-.36-19.826-17.659-36.672-34.062-18.966-6.031,6.51-7.307,10.986-9.215,18.785-1.357,5.545-11.54,9.911-16.481,6.402h-.002c-3.647-2.591-3.524-9.697-4.837-12.661-1.038-2.343-6.171-5.23-7.862-9.138-1.185-2.739-1.097-7.204-2.13-8.87-.962-1.551-11.521-6.366-13.123-9.912-11.967,6.972-24.139,14.379-38.348,15.901,3.809,2.604,10.695,4.003,13.917,7.566,8.784,9.713-12.257,3.669-17.36,4.493-4.537.732-6.127,6.013-9.556,8.435,4.781.512,8.939.568,13.513,2.476,2.275.949,11.742,7.722,5.375,6.635-1.791-.305-11.211-3.265-11.888-2.61-.374.362,2.581,6.658,1.8,10.255-.312,1.433-4.814,6.529-5.496,6.725-4.295,1.231-13.227-8.553-13.476-12.815-4.382-.689-21.109,1.49-22.761-3.756-1.078-3.423,7.082-5.027,9.859-6.983,5.728-4.034,12.863-11.443,18.067-16.42-4.541-2.109-6.49.828-10.46,1.096-4.018.271-14.385-.762-19.021-1.125-4.115-.321-26.553-4.984-27.511-3.977-.327.344,1.127,7.341,1.003,9.44-.287,4.842-1.819,11.148-4.009,15.543,2.533.203,4.621-1.082,7.21-.784,3.606.415,15.133,6.31,15.789,5.785.575-.46-5.609-6.014-5.076-13.508.85-11.948,6.099,5.626,7.537,8.559.963,1.964,6.166,8.657,6.177,9.441.008.597-1.763,2.915-2.026,4.641-1.523,9.999-9.379,37.437-5.033,44.799,1.168,1.977,10.111,7.261,11.881,7.11.734-.063,2.757-7.483,10.722-9.344,9.468-2.211,13.099,4.89,7.821,7.885-1.964,1.115-7.644-4.131-11.102.883-3.069,4.451,6.552,14.129-9.088,8.443h0ZM564.823,164.323c9.307-18.356,28.744-7.598,25.169,10.669l.002.002-.002-.002h0l-10.658-12.88c-3.898-3.706-10.056,5.098-8.85,7.937,1.156,2.721,9.654,4.207,11.267,13.689,3.017,17.732-18.285,26.405-17.771,14.851.212-4.759,5.989-5.028,4.563-13.641-1.072-6.475-3.953-5.546-9.539-6.444,3.493-3.9,3.552-9.708,5.819-14.181h0ZM514.989,293l-15.978-33.999c7.958,9.563,15.043,21.267,15.978,33.999ZM495.205,312.705c-6.745,12.216-36.526,17.075-37.199-.699,3.395.243,3.037,4.365,6.945,5.544,6.462,1.95,15.014-.294,20.913-3.186,4.974-2.439,16.602-14.81,9.341-1.659ZM470,204c4.426,2.557-14.353,4.947-15,0,2.773.627,13.528-.85,15,0ZM440.606,224.003c-3.026-1.612,5.271-7.531,12.437-1.545,3.317,2.771,8.674,13.788,3.938,16.534h0c-3.116,1.807-4.682-9.653-7.448-12.024-2.929-2.51-6.651-1.753-8.926-2.965h-.001ZM455.826,255.264c17.617-1.014,36.917,8.84,39.74,27.688,2.323,15.505-19.675,32.159-33.514,23.496-8.378-5.245-10.52-22.279-16.589-29.411-2.435-2.862-6.397-3.026-8.235-6.795-4.064-8.334,11.983-14.598,18.598-14.978h0Z"/>
  <path class="cls-7" d="M515.004,982.987c-.558-.865.474-3.987,1.496-3.987h26.5s-.003-.002-.004-.003h0c-10.406-7.166-21.323-13.952-32.328-20.165-6.009-3.392-20.355-12.664-25.989-14.094-5.209-1.323-25.681,9.455-30.589,12.852-21.328,14.762-38.606,41.446-45.089,66.406,0,0,0,.003-.001.004h257s-.004-.002-.005-.003c-37.382-21.621-78.71-38.998-122.446-41.046-4.29-.201-27.769,1.24-28.545.036Z"/>
  <path class="cls-7" d="M532.917,680.114c-.254-.446-8.076-5.661-8.903-5.113-.582.386-3.442,11.18-2.556,12.986.558,1.138,6.196,4.214,6.523,4.014.549-.336,5.255-11.328,4.937-11.887h0Z"/>
  <path class="cls-7" d="M598.011,200.998c-.314.261-1.585,5.525-2.847,7.666-5.586,9.474-11.528,18.118-23.162,20.35,9.549,18.654.481,39.934-6.81,57.677-2.107,5.127-17.314,33.856-17.083,35.827.22,1.872,16.764,5.803,19.361,11.511,4.028,8.852-15.46.189-17.468,1.98-1.1.982,13.234,17.833,15.499,18.971,26.031-33.134,44.347-70.359,49.22-112.759.6-5.225,2.686-28.917,1.058-32.009h0c-.467-.885-16.998-9.853-17.768-9.214h0ZM582.996,308.993h0c-2.708.669-2.608-2.474-3.254-4.217-3.211-8.662-5.928-19.783-7.731-28.775,6.396,9.215,9.171,21.852,10.985,32.991h0Z"/>
  <path class="cls-7" d="M652.049,681.952c.726.816,19.127,3.851,21.473,4.025,16.572,1.231,36.273-3.803,42.491-20.975l2.478,4.989c27.006-14.975,55.106-28.018,82.206-42.794,41.452-22.602,65.936-39.331,101.837-70.163,6.001-5.153,16.057-10.543,21.116-15.387v-.002c7.285-6.976,5.781-16.508,5.332-26.13-1.44-30.872-11.902-64.179-20.997-93.526-20.698,4.44-39.677,12.74-57.507,23.989-4.096,2.585-29.984,21.075-30.367,23.668-.084.567,4.45,10.001,4.901,10.354.887.695,16.493-7.769,20.79-8.697,5.716-1.234,10.832-1.653,16.692-1.309,1.185.074.007,1.149-.497,1.504-4.944,3.481-18.775,6.874-26.017,10.984-24.475,13.891-44.617,44.668-63.471,65.529-26.26,29.055-54.437,51.034-88.506,70.494,7.714,2.882,16.025,5.929,21.519,12.471,10.903,12.983-5.764-.428-9.489-2.511-16.419-9.18-19.465-4.51-35.412-5.562-15.612-1.03-34.524-11.561-50.022-10.831-3.5.164-11.209,5.145-4.601-3.061l-17.251-.765c-11.401,10.752-31.134,17.651-41.284,28.716-4.073,4.44-20.807,29.789-21.056,34.56-.063,1.211,6.569,7.481,7.093,7.455,2.195-.107,18.5-30.868,24.464-36.514,8.897-8.423,25.641-12.191,34.967-21.05,6.33.027.373,5.938-2.606,8.41-16.309,13.534-23.201,9.594-37.346,30.655-1.986,2.958-12.953,20.796-11.907,22.436.566.887,9.618,2.706,6.921,9.078-3.336.631-1.202-2.448-2.977-4.503-6.361-7.364-13.576,7.575-12.597,11.546,1.006,4.083,7.244,6.633,10.546,3.421l35.982-47.01,34.55-19.481c7.702,3.67-6.079,11.076-9.832,13.199-7.104,4.017-15.541,5.742-21.661,11.633-2.402,2.312-22.024,28.643-21.001,30.186.474.715,10.007,2.575,6.514,10.033-1.586,3.385-3.621-8.497-8.035-7.946-.813.102-8.936,11.728-8.032,13.899,2.743,6.584,15.135,2.357,19.082-.938,2.903-2.422,2.715-5.675,4.643-8.357,6.17-8.584,25.226-30.099,34.226-34.262,3.535-1.635,7.839-1.769,10.62-2.893,2.932-1.184,18.994-10.47,19.973-6.004.624,2.844-14.018,7.894-16.744,9.199-10.406,4.982-15.259,7.153-24.276,16.758-1.575,1.676-10.653,11.289-10.965,12.041-1.137,2.741,4.884.166,6.494,3.48.994,2.047.389,4.784.49,6.999l-5.01-7.984c-2.171,3.804-3.733.778-6.046,1.537-4.207,1.38-10.339,16.717,3.423,16.083,11.048-.509,27.992-21.363,38.96-26.809,4.264-2.117,19.491-6.783,24.3-7.716,2.81-.545.594,2.909,1.429,3.849h0ZM831.272,568.773c5.184-4.307,17.015-9.147,23.64-13.36,17.611-11.199,35.551-24.443,46.257-42.743,1.587-2.713,5.219-13.265,5.844-13.667,3.285-2.114,1.554,11.822.721,14.231-6.538,18.905-33.821,38.982-51.067,47.933-3.069,1.593-26.58,11.845-27.661,10.827h0c-1.241-1.167,1.619-2.684,2.266-3.221h0ZM771.512,630.026h0-.002c-7.229,7.409-18.529,15.156-27.843,20.144-1.378.738-15.543,8.999-15.646,4.331-.055-2.495,38.329-21.985,43.489-24.475h.001ZM630.449,623.986c-2.176-.185-9.248,2.172-8.443-1.469,1.396-6.314,36.345,5.526,40.985,7.498h0c.007,1.959-4.093.904-5.228.722-9.151-1.468-17.064-5.878-27.314-6.751h0ZM640.022,639.5c-.36-5.885,25.256-.138,26.977,5.489-4.303-.65-8.491-3.021-12.744-3.745-2.598-.442-14.088.62-14.233-1.744Z"/>
  <path class="cls-7" d="M757.573,733.926c-23.522-6.126-46.77-20.48-71.567-23.916l75.31,35.173c18.822,2.847,35.31,9.723,52.407,17.541,27.942,12.777,43.942,11.91,73.632,16.421,7.904,1.201,15.823,3.234,23.644,4.844-32.844-18.685-70.616-35.043-107.8-42.689-14.965-3.077-31.102-3.592-45.626-7.374h0Z"/>
  <path d="M106.994,736.996c2.358-2.44-6.582-28.944-5.999-34-2.426-.16-1.721-.263-1.998,1.486-.789,4.978,1.081,27.323,4.137,30.884.932,1.086,2.802,2.726,3.86,1.63Z"/>
  <path d="M147.172,627.671c-8.703,11.27-15.603,29.271-9.353,43.01.32.704,2.716,6.001,4.181,4.319h0c.476-.548,0-12.31,0-14.501,0-10.589,12.516-22.143,17.421-30.579,12.49-21.484-3.549-13.513-12.249-2.249h0Z"/>
  <path d="M151.177,756.809c-2.572-1.825,3.946-12.617-15.383-7.516-36.293,9.578,8.579,44.389,23.211,27.212,4.858-5.703.845-2.176-2.325-1.324-9.914,2.665-16.174,1.554-24.151-5.211-10.998-9.328-4.121-13.23,6.47-16.96-6.879,13.851,11.832,19.379,21.503,12.992,1.343-.886,8.595-8.546,8.471-9.509-.578-4.507-13.334,3.481-17.796.316Z"/>
  <path d="M187.023,646.487c-.217-2.043-2.413-3.406-3.964-2.44h-.001c-.524.326-3.905,8.8-5.428,11.084-1.938,2.907-13.44,16.42-13.507,17.526-.262,4.354,6.125.181,7.904-1.129,5.658-4.165,15.758-17.885,14.996-25.041h0Z"/>
  <path d="M192.626,613.73c.882.404,16.973,3.665,19.001,3.939,5.167.699,12.086-.164,16.872.337,16.026,1.678,10.734,20.436,14.591,22.898,8.435,5.383,4.682-18.923-.561-24.932-5.966-6.838-24.321-3.81-24.507-6.47-.052-.739,7.782-7.929,4.86-13.379h0c-2.507-4.677-10.19,8.348-12.378,9.882-11.623,8.148-21.675-3.965-22.498-2.998-2.148,2.525,1.7,9.387,4.62,10.723h0Z"/>
  <path d="M212.014,645.009c-5.089,9.593,8.33,21.581,15.986,13.002-8.366.98-12.241-7.303-15.986-13.002Z"/>
  <path d="M234.995,636.006c-5.126-4.844-11.197,15.65-6.478,17.983,1.784.883,1.813-1.802,2.152-2.795.553-1.62,4.899-14.646,4.325-15.188h.001Z"/>
  <path d="M246.005,690.994c3.558,3.339,6.613-10.993,7.515-12.973,4.306-9.452,9.149-16.274,15.968-24.032,2.654-3.019,11.577-7.995,6.491-10.464-7.613-3.695-18.223,13.754-21.397,19.558-1.966,3.596-10.49,26.116-8.577,27.911Z"/>
  <path d="M266.005,681.994h0c1.001.932,3.044-.624,4.008-1.481.931-.828,14.604-18.227,15.418-19.58,4.089-6.8-2.223-5.175-6.276-1.278-1.932,1.858-14.232,21.33-13.149,22.339h-.001Z"/>
  <path d="M387.006,486.005l19.988,42.989c.689-15.503-6.201-34.684-19.988-42.989Z"/>
  <path d="M418.995,516.994c1.164-1.028-7.024-9.723-8.989-7.988-1.164,1.028,7.024,9.723,8.989,7.988Z"/>
  <path d="M445.463,277.037c6.069,7.132,8.211,24.166,16.589,29.411,13.839,8.663,35.837-7.991,33.514-23.496-2.823-18.848-22.123-28.702-39.74-27.688-6.615.38-22.662,6.644-18.598,14.978,1.838,3.769,5.8,3.933,8.235,6.795h0ZM484.989,294.001c2.481,2.837-13.659,11.134-16.989,8.988.624-2.749,16.349-9.72,16.989-8.988ZM455.774,262.249c4.919-.551,9.513.773,14.217,1.765l-20.984,6.593c-12.512-.517.829-7.692,6.767-8.358Z"/>
  <path d="M456.98,238.992h0c4.736-2.746-.621-13.763-3.938-16.534-7.166-5.986-15.463-.067-12.437,1.545,2.275,1.212,5.997.455,8.926,2.965,2.766,2.371,4.332,13.831,7.448,12.024h.001Z"/>
  <path d="M464.951,317.55c-3.908-1.179-3.55-5.301-6.945-5.544.673,17.774,30.454,12.915,37.199.699,7.261-13.151-4.367-.78-9.341,1.659-5.899,2.892-14.451,5.136-20.913,3.186Z"/>
  <path d="M470,204c-1.472-.85-12.227.627-15,0,.647,4.947,19.426,2.557,15,0Z"/>
  <path d="M499.011,259.001l15.978,33.999c-.935-12.732-8.02-24.436-15.978-33.999h0Z"/>
  <path d="M568.543,184.948c1.426,8.613-4.351,8.882-4.563,13.641-.514,11.554,20.788,2.881,17.771-14.851-1.613-9.482-10.111-10.968-11.267-13.689-1.206-2.839,4.952-11.643,8.85-7.937l10.658,12.88c3.575-18.267-15.862-29.025-25.169-10.669-2.267,4.473-2.326,10.281-5.819,14.181,5.586.898,8.467-.031,9.539,6.444h0Z"/>
  <path d="M579.742,304.776c.646,1.743.546,4.886,3.254,4.216-1.814-11.139-4.589-23.776-10.985-32.991,1.803,8.992,4.52,20.113,7.731,28.775h0Z"/>
  <path d="M662.991,630.015h0c-4.64-1.972-39.589-13.812-40.985-7.498-.805,3.641,6.267,1.284,8.443,1.469,10.25.873,18.163,5.283,27.314,6.751,1.135.182,5.235,1.237,5.228-.722h0Z"/>
  <path d="M666.999,644.989c-1.721-5.627-27.337-11.374-26.977-5.489.145,2.364,11.635,1.302,14.233,1.744,4.253.724,8.441,3.095,12.744,3.745Z"/>
  <path d="M678.996,862.006c-1.565-1.496-20.868,14.829-23.683,16.806-35.345,24.823-75.732,43.51-116.714,57.097-5.621,4.864,10.292,2.197,12.643,1.832,36.626-5.692,73.866-23.208,101.77-47.23,2.713-2.336,28.5-26.099,25.983-28.505h0Z"/>
  <path d="M707.473,445.973c43.796-33.743-20.29-112.463-61.108-71.608-37.587,37.621,20.127,103.183,61.108,71.608ZM671.825,370.266c41.206-2.217,62.508,69.581,18.429,76.49-52.102,8.167-68.229-73.811-18.429-76.49Z"/>
  <path d="M719.132,997.368c-6.565-57.239,33.379-134.296,71.357-175.38,1.819-1.968,13.077-13.548,14.243-13.84,2.438-.611,22.187,3.442,26.299,4.321,33.926,7.247,94.226,22.488,112.504,54.496,1.254,2.195,5.422,11.576,5.459,13.558.061,3.318-6.09-1.762-8.317-2.7-30.605-12.904-53.791-13.056-84.471-.118-10.372,4.374-36.066,18.85-42.64,27.36-1.147,1.485-1.8,3.013-1.56,4.929,13.792-5.824,26.351-14.661,40.313-20.176,21.67-8.558,46.503-13.39,69.459-7.095.904.248,12.029,3.659,9.217,5.271-.926.531-17.618,1.565-21.215,2.285-11.671,2.337-33.296,8.716-43.456,14.539-1.505.862-5.659,2.985-5.315,5.178,23.57-4.687,47.289-11.769,71.453-13.035,31.402-1.645,61.519,7.494,91.536,15.038h.002v-11.998l-50.565-12.932c.119-18.61,5.23-38.712-3.951-56.058-2.488-.389-1.163.897-1.178,2.23-.13,12.049-1.291,24.685-4.169,36.398-.295,1.201-.571,4.365-2.123,4.354-3.553-10.889-6.362-21.525-11.845-31.661-4.224-7.808-17.686-26.802-26.662-27.354-1.078-.066-3.091-.646-2.492,1.502.429,1.539,10.474,12.629,12.79,16.215,2.195,3.399,6.853,11.342,8.148,14.863.637,1.732-.661,1.64-1.948,1.438.004-.748.27-2.303-.226-2.712-3.673-3.037-15.458-9.902-20.112-12.452-31.524-17.269-70.56-25.343-105.668-31.843,8.571-6.319,21.779-18.05,32.529-18.036,6.712.009,14.901,2.344,21.833,2.186l155.638,25.861h0v-47.001c-.808-5.175-7.581-17.588-7.769-21.674-.082-1.788,1.696-3.156,1.715-4.886.33-29.536-13.899-76.274-50.942-73.447,10.194-37.41,9.61-73.65-.51-110.986-3.018-11.135-15.472-33.688-16.307-41.77-.572-5.543,5.041-17.873,5.686-24.864,1.273-13.8-3.211-22.704-9.353-34.392-2.458-4.678-14.935-22.145-15.367-24.726-.79-4.723,5.044-9.942,5.673-14.011s-16.551-42.041-19.653-48.916c-21.176-46.928-54.61-115.933-97.444-145.556-40.065-27.707-103.565-33.707-151.267-32.809-5.769.109-16.825,2.524-21.924,2.01-1.871-.188-11.215-7.119-14.334-8.675-3.191-1.591-13.862-4.376-15.207-5.793-3.314-3.493-4.496-32.008-8.817-38.26,1.122-28.708-17.558-75.238-43.145-90.778-38.224-23.215-124.162-15.653-154,20.069-11.718,14.029-14.152,32.539-21.063,48.937-16.223,7.469-69.094,20.647-72.733,40.259-6.124,33.001,48.558,28.886,67.757,24.267-4.076,10.898,13.977,20.528,15.792,26.715,1.268,4.324-.207,13.333.34,18.66,1.505,14.643,15.095,39.179,22.353,52.647,2.965,5.502,13.872,19.922,14.36,24.741.308,3.046-10.343,15.152-12.662,18.917-16.328,26.509-21.524,59.713-32.162,88.838-3.541,9.696-15.029,30.346-16.6,37.483-2.121,9.634-1.477,12.2-8.589,21.327-5.921,7.598-13.608,11.391-20.354,17.646-26.934,24.974-39.474,61.294-60.254,90.746-2.436,3.453-19.491,25.263-21.72,25.263-.895,0-10.546-8.725-14.502-10.48-8.268-3.668-18.16-3.092-25.33-6.67-6.955-3.47-12.895-13.13-19.376-17.624l-42.249-4.254c-.315-9.94-10.309-20.221-19.25-23.247-4.269-1.445-9.734-1.018-12.773-2.227-3.206-1.275-8.178-7.475-13.746-9.254-23.699-7.572-51.889,26.106-64.086,43.462-16.047,22.834-15.746,31.903-22.687,57.313-4.588,16.798-12.567,25.864-8.045,45.043,1.067,4.526,4.99,10,5.488,13.535.665,4.718-1.239,12.149-.981,17.959.811,18.253,10.239,34.56,25.031,44.968-39.477,17.307-17.952,33.718,11.01,41.99,13.749,3.927,29.88,3.565,41.279,6.721,1.92.531,10.013,6.616,13.739,8.261,12.551,5.543,31.779,9.933,45.473,10.593,5.016.242,9.242-1.934,14.781-.839,2.3.455,33.519,13.378,34.525,14.968.554.876,1.024,6.435,2.766,9.734,1.929,3.653,9.191,9.015,9.346,9.669.227.96-6.617,15.001-7.617,18.193-6.36,20.305-1.69,29.679-3.242,47.695-.315,3.655-2.79,5.628-3.538,8.525-5.589,21.634,10.051,34.783,25.765,46.206,27.094,19.697,59.836,33.112,87.719,51.779h31.001c2.387-33.446,20.645-72.219,50.984-88.516,5.766-3.097,25.918-11.252,31.702-11.198,5.713.054,26.775,10.788,32.313,14.702-36.716,12.204-65.313,47.787-73.999,85.01h11.998l.002-.002c6.483-24.96,23.761-51.644,45.089-66.406,4.908-3.397,25.38-14.175,30.589-12.852,5.634,1.43,19.98,10.702,25.989,14.094,11.004,6.213,21.922,12.999,32.328,20.165h.003-.003s.003.002.004.003h-26.5c-1.022,0-2.054,3.122-1.496,3.987.776,1.204,24.255-.237,28.545-.036,43.736,2.048,85.064,19.425,122.446,41.046h76.002c-11.097-7.98-21.11-11.325-22.865-26.629h.001ZM772.301,826.829c-2.322.535-26.103-8.911-26.266-10.318-.305-2.629,24.066-24.039,27.943-25.075,6.961-1.862,20.153,6.172,28.016,5.571h.002-.002l-29.693,29.822h0ZM824.997,782.986c-.392.652-12.704,7.048-13.464,7.072-4.873.156-14.819-5.266-20.532-5.071,2.287-2.347,12.473-6.889,15.508-7.046,1.834-.095,19.592,3.21,18.488,5.045ZM910.999,783.989h0c-7.821-1.61-15.74-3.643-23.644-4.844-29.69-4.511-45.69-3.644-73.632-16.421-17.097-7.818-33.585-14.694-52.407-17.541l-75.31-35.173c24.797,3.436,48.045,17.79,71.567,23.916,14.524,3.782,30.661,4.297,45.626,7.374,37.184,7.646,74.956,24.004,107.8,42.689h0ZM650.62,678.103c-4.809.933-20.036,5.599-24.3,7.716-10.968,5.446-27.912,26.3-38.96,26.809-13.762.634-7.63-14.703-3.423-16.083,2.313-.759,3.875,2.267,6.046-1.537l5.01,7.984c-.101-2.215.504-4.952-.49-6.999-1.61-3.314-7.631-.739-6.494-3.48.312-.752,9.39-10.365,10.965-12.041,9.017-9.605,13.87-11.776,24.276-16.758,2.726-1.305,17.368-6.355,16.744-9.199-.979-4.466-17.041,4.82-19.973,6.004-2.781,1.124-7.085,1.258-10.62,2.893-9,4.163-28.056,25.678-34.226,34.262-1.928,2.682-1.74,5.935-4.643,8.357-3.947,3.295-16.339,7.522-19.082.938-.904-2.171,7.219-13.797,8.032-13.899,4.414-.551,6.449,11.331,8.035,7.946,3.493-7.458-6.04-9.318-6.514-10.033-1.023-1.543,18.599-27.874,21.001-30.186,6.12-5.891,14.557-7.616,21.661-11.633,3.753-2.123,17.534-9.529,9.832-13.199l-34.55,19.481-35.982,47.01c-3.302,3.212-9.54.662-10.546-3.421-.979-3.971,6.236-18.91,12.597-11.546,1.775,2.055-.359,5.134,2.977,4.503,2.697-6.372-6.355-8.191-6.921-9.078-1.046-1.64,9.921-19.478,11.907-22.436,14.145-21.061,21.037-17.121,37.346-30.655,2.979-2.472,8.936-8.383,2.606-8.41-9.326,8.859-26.07,12.627-34.967,21.05-5.964,5.646-22.269,36.407-24.464,36.514-.524.026-7.156-6.244-7.093-7.455.249-4.771,16.983-30.12,21.056-34.56,10.15-11.065,29.883-17.964,41.284-28.716l17.251.765c-6.608,8.206,1.101,3.225,4.601,3.061,15.498-.73,34.41,9.801,50.022,10.831,15.947,1.052,18.993-3.618,35.412,5.562,3.725,2.083,20.392,15.494,9.489,2.511-5.494-6.542-13.805-9.589-21.519-12.471,34.069-19.46,62.246-41.439,88.506-70.494,18.854-20.861,38.996-51.638,63.471-65.529,7.242-4.11,21.073-7.503,26.017-10.984.504-.355,1.682-1.43.497-1.504-5.86-.344-10.976.075-16.692,1.309-4.297.928-19.903,9.392-20.79,8.697-.451-.353-4.985-9.787-4.901-10.354.383-2.593,26.271-21.083,30.367-23.668,17.83-11.249,36.809-19.549,57.507-23.989,9.095,29.347,19.557,62.654,20.997,93.526.449,9.622,1.953,19.154-5.333,26.13v.002c-5.058,4.844-15.114,10.234-21.115,15.387-35.901,30.832-60.385,47.561-101.837,70.163-27.1,14.776-55.2,27.819-82.206,42.794l-2.478-4.989c-6.218,17.172-25.919,22.206-42.491,20.975-2.346-.174-20.747-3.209-21.473-4.025-.835-.94,1.381-4.394-1.429-3.849ZM527.981,692.001c-.327.2-5.965-2.876-6.523-4.014-.886-1.806,1.974-12.6,2.556-12.986.827-.548,8.649,4.667,8.903,5.113h0c.318.559-4.388,11.551-4.937,11.887h0ZM364.772,738.791c-2.392,1.295-20.158,3.886-25.19,5.29-29.985,8.371-62.67,22.717-87.491,41.509-2.865,2.169-14.79,13.987-15.821,14.256-2.235.583-42.032-13.912-43.267-15.864-.257-.406,3.003-7.155,3.541-8.938,1.588-5.27-2.178-7.651,6.673-4.95,7.625,2.327,17.091,4.244,26.151,3.764l64.627-17.87c-.839-1.637-7.213-1.303-8.557-1.066-1.79.317-1.353,1.846-2.177,2.016-6.337,1.308-12.903,2.472-19.255,3.567,24.652-14.137,46.508-34.319,58.495-60.484l41.949,35.577h0c.232.321,3.233,1.618.323,3.193h0ZM77.982,742.505c.251,4.64,5.724,12.493,9.01,16.009.773,2.83-5.446-.669-6.033-.973-11.201-5.817-15.536-15.616-20.841-26.177-.591-1.177-2.265-8.162-3.12-2.883-.555,3.424.413,7.933-.009,11.518-10.706-9.168-16.483-25.701-17.965-39.523-.546-5.092.518-10.741-.14-15.86-.781-6.078-4.721-11.907-5.644-18.436-2.301-16.268,5.089-22.729,9.056-36.385,2.88-9.917,3.219-19.183,7.526-29.474,7.281-17.397,38.855-61.36,58.817-62.255,27.154-1.218,28.207,28.41,14.362,44.934v-15.5c0-.886-2.579-7.498-3.5-7.478-2.827.062-2.069,21.961-2.593,25.385-.704,4.597-3.832,8.165-4.921,12.584-2.145-2.327.245-6.923.023-10.437-.115-1.832-2.713-20.56-6.536-14.587-1.608,2.512.73,9.028.593,12.53-.429,10.955-8.388,29.364-14.656,38.41-9.482,13.684-1.718-2.814-.146-8.146.484-1.64,7.253-24.158-.296-19.301l-22.957,51.048c2.203,1.488,4.539-4.358,5.976-3.509.376.222,3.108,6.918,3.501,8.011,4.684,13.028,4.059,27.868,7.853,40.195.548,1.779.029,3.335,2.66,2.792.533-2.793-.71-19.271-.002-19.997h0l.002-.003s0,.002-.002.003c2.007-1.972,17.209,8.595,19.424,11.076,10.856,12.162,2.361,27.063,21.906,37.094,2.881,1.479,17.503,5.397,17.643,6.323.701,4.642-19.013,6.835-23.494,8.485-7.169,2.641-14.552,7.164-15.414,15.641-.905,8.9,8.172,16.566-7.296,9.112-10.117-4.875-19.493-21.989-21.284-22.722-2.002-.818-1.558,1.486-1.503,2.496h0ZM143.66,548.841c2.877,1.407,12.939,10.451,10.334,13.154-.525.545-14.39-1.548-14.993-2.005-.146-.11,1.113-2.256,1.018-3.45-.539-6.744-5.748-12.292,3.641-7.699h0ZM114.913,757.499c-.348-18.516,25.098-13.643,33.626-19.455,2.585-1.761,5.326-10.509,4.506-13.352-.45-1.559-16.54-6.31-19.424-7.813-12.088-6.301-10.963-19.546-18.397-30.603-7.166-10.66-14.463-9.039-21.766-16.234-2.757-2.716-13.631-22.526-13.466-25.591.057-1.057,12.957-12.496,14.971-14.983,4.244-5.24,8.644-16.376,11.576-19.424,3.954-4.109,9.342-6.43,14.426-12.574,4.747-5.736,16.09-27.263,19.464-29.537,2.92-1.969,10.455.651,14.227,1.442l.002-.002c.234.049.955,1.717,4.259,2.163,8.864,1.196,21.454.46,30.343,2.513.164.038,2.687,1.812,2.724,1.976.162.71-7.84,7.845-9.035,11.427-.644,1.931-2.27,10.049.533,10.492,6.653,1.05,14.59-20.975,20.016-20.97,1.28,0,15.31,14.018,19.825,16.203,8.009,3.875,18.946,3.008,26.027,6.973,8.441,4.727,19.793,19.348,27.637,26.363,10.912,9.759,24.381,19.292,34.537,29.463,18.132,18.158,4.049,33.407-7.715,50.338-13.943,20.069-47.915,58.902-73.309,61.69-12.32,1.353-48.632-12.808-50.497-10.996-1.994,1.937,6.032,4.42,4.552,12.051-5.221,26.907-69.024,21.29-69.642-11.56h0ZM373.505,481.007c3.403-3.599,11.459-20.385,12.517-20.997,1.388-.803,23.113,15.651,26.672,17.797,13.438,8.104,28.864,16.046,44.302,19.202h0c-18.678,35.719-40.384,68.987-71.529,94.959-22.949,19.138-49.84,33.599-70.968,54.985l-40.061-36.966c-1.055-2.507,8.843-10.374,11.072-12.975,26.863-31.337,41.266-76.913,70.964-103.036,5.131-4.514,12.601-8.285,17.031-12.969h0ZM406.007,196.996c6.567-2.116,2.394-.59,3.176,4.233.548,3.38,3.578,5.277,3.81,7.278.23,1.981-2.111,13.788-3.994,15.493-.498-4.847.685-10.829,0-15.5h0c-.93-6.342-5.888-11.974-10-16.489,15.58-1.476,5.498,3.395,7.007,4.985h.001ZM435.901,245.455c3.458-5.014,9.138.232,11.102-.883,5.278-2.995,1.647-10.096-7.821-7.885-7.965,1.861-9.988,9.281-10.722,9.344-1.77.151-10.713-5.133-11.881-7.11-4.346-7.362,3.51-34.8,5.033-44.799.263-1.726,2.034-4.044,2.026-4.641-.011-.784-5.214-7.477-6.177-9.441-1.438-2.933-6.687-20.507-7.537-8.559-.533,7.494,5.651,13.048,5.076,13.508-.656.525-12.183-5.37-15.789-5.785-2.589-.298-4.677.987-7.21.784,2.19-4.395,3.722-10.701,4.009-15.543.124-2.099-1.33-9.096-1.003-9.44.958-1.007,23.396,3.656,27.511,3.977,4.636.363,15.003,1.396,19.021,1.125,3.97-.268,5.919-3.205,10.46-1.096-5.204,4.977-12.339,12.386-18.067,16.42-2.777,1.956-10.937,3.56-9.859,6.983,1.652,5.246,18.379,3.067,22.761,3.756.249,4.262,9.181,14.046,13.476,12.815.682-.196,5.184-5.292,5.496-6.725.781-3.597-2.174-9.893-1.8-10.255.677-.655,10.097,2.305,11.888,2.61,6.367,1.087-3.1-5.686-5.375-6.635-4.574-1.908-8.732-1.964-13.513-2.476,3.429-2.422,5.019-7.703,9.556-8.435,5.103-.824,26.144,5.22,17.36-4.493-3.222-3.563-10.108-4.962-13.917-7.566,14.209-1.522,26.381-8.929,38.348-15.901,1.602,3.546,12.161,8.361,13.123,9.912,1.033,1.666.945,6.131,2.13,8.87,1.691,3.908,6.824,6.795,7.862,9.138,1.313,2.964,1.19,10.07,4.837,12.66h.002c4.941,3.51,15.124-.856,16.481-6.401,1.908-7.799,3.184-12.275,9.215-18.785,16.403-17.706,33.702-.86,34.062,18.966.318,17.485-12.849,56.09-36.06,43.539,17.012,32.681,1.14,56.479-18.613,81.885-16.165,20.79-34.719,44.5-63.939,43.148-18.885-.874-16.919-12.08-22.96-25.032-10.286-22.054-23.899-42.184-33.472-64.534.57-3.631,5.482,1.311,5.792,1.423,15.64,5.686,6.019-3.992,9.088-8.443h0ZM354.753,136.254c17.511-6.908,41.144-16.567,59.031-20.969,34.042-8.379,63.509.56,96.851,5.579,1.678.253,7.081-.099,7.359.143h0c1.102.959-1.049,2.287-1.671,2.817-14.38,12.239-42.988,24.189-61.842,25.159-30.006,1.543-57.188-14.614-86.845-11.846-9.384.876-18.251,4.959-27.631,5.852,4.634-2.662,9.754-4.765,14.748-6.735h0ZM498.547,45.951c15.244,1.779,24.063,29.886,26.15,42.845.502,3.119.505,24.13,4.786,23.196,2.316-.505,1.608-11.04,1.5-13.477-.827-18.751-5.794-38.666-18.982-52.515h0v-.002.002h18.499c3.283,0,11.766,2.526,15.273,3.727,31.359,10.743,45.088,46.393,50.713,76.287-27.591-10.091-57.262-9.572-85.97-13.031-35.221-4.243-71.235-14.982-106.511-2.989,4.562-13.227,8.268-30.902,18.447-41.042,13.773-13.719,57.199-25.206,76.095-23.001h0ZM615.779,210.212h0c1.628,3.092-.458,26.784-1.058,32.009-4.873,42.4-23.189,79.625-49.22,112.759-2.265-1.138-16.599-17.989-15.499-18.971,2.008-1.791,21.496,6.872,17.468-1.98-2.597-5.708-19.141-9.639-19.361-11.511-.231-1.971,14.976-30.7,17.083-35.827,7.291-17.743,16.359-39.023,6.81-57.677,11.634-2.232,17.576-10.876,23.162-20.35,1.262-2.141,2.533-7.405,2.847-7.666.77-.639,17.301,8.329,17.768,9.214h0ZM508.914,345.585c.231-.942,2.525-.619,3.589-1.542,1.858-1.613,11.685-11.032,12.809-10.906l36.69,28.887h0c.144.281-1.766,5.779-2.011,5.978-2.031,1.649-29.33-14.178-34.51-14.078-2.637.051-14.951,8.779-15.469,8.076,1.43-3.719-1.655-14.137-1.097-16.415h0ZM443.018,317.011c1.083-.094,1.379-.499,1.983.61,1.716,3.152,2.517,12.204,4.224,16.653,4.124,10.745,14.175,19.728,26.272,19.728h25.5c-3.116,38.936,12.755,11.745,23.4,12.043,7.678.215,22.418,9.537,31.547,9.007-1.219,14.34,1.08,24.764,6.881,37.623,2.948,6.536,18.976,36.327,25.673,36.327,2.795,0,18.796.674,19.5,0l.002-.002c4.634-4.438-17.986-4.902-20.895-7.605-2.553-2.372-13.606-23.944-15.569-28.431-18.236-41.695-2.142-46.032,18.869-78.058,23.926-36.469,39.684-83.228,35.628-127.439-.803-8.751-4.8-15.132-9.023-22.466,34.875,8.965,39.599,48.135,41.975,78.514.511,6.535,2.773,65.882-.502,66.503-.819.155-13.143-4.501-15.854-5.148-8.083-1.929-28.057-6.493-35.057-1.803-3.885,2.602,2.902,15.583.207,20.72-.665,1.268-19.995,11.578-24.245,15.247-7.613,6.573-14.317,14.804-14.578,25.422-.05,2.021-1.031,6.462,2.027,5.539-.581-3.665,15.259-22.145,17.011-19.99-2.279,7.802,15.602,57.577,19.505,59.019.544.201,2.23.318,2.511-.541.752-2.303-11.301-32.339-13.03-37.963-.995-3.237-7.128-23.674-6.812-24.926.97-3.843,24.712-13.776,26.34-16.584,1.472-2.538-.197-12.342.486-13.014.695-.684,17.184.806,19.483,1.027,5.857.562,26.825,6.059,29.971,1.922,8.434-11.088,1.382-75.536.546-91.947l64.728,8.752c1.057.326,3.269-1.953,3.253-2.249-.329-6.284-66.296-10.226-68.74-12.737-.908-.933-4.624-20.935-6.217-25.284-2.108-5.755-5.705-10.833-8.015-16.473,54.558.02,120.779-1.098,166.324,33.164,28.841,21.696,51.257,66.68,67.195,98.805,7.284,14.681,14.58,29.707,20.477,45.016-46.039,7.864-87.367,31.337-120.988,63.006-27.085-48.288-57.1-102.447-45.712-160.196,4.117-20.878,18.023-48.429,39.474-55.526l16.216-3.261c-28.365-8.976-50.683,18.352-59.006,42.472-12.526,36.299-6.509,73.991,5.003,109.514-6.474-6.084-10.23-14.556-14.159-22.33l-13.83-41.67v18.5c0,27.478,21.604,51.458,34.167,72.833,2.028,3.451,15.725,32.364,15.819,34.248.176,3.557-8.252,20.285-10.465,24.439-1.645,3.087-17.685,26.848-16.514,27.974,3.299,3.174,27.451-19.704,30.502-22.987,1.247-1.342,5.025-8.378,6.477-7.005,1.054.996,9.414,22.017,12.198,26.314,2.154,3.325,12.77,13.229,12.768,14.183-.004,2.913-32.245,40.184-37.206,44.744-5.982,1.794-49.448.582-50.742,2.769-3.028,5.119,35.093,8.818,37.512,8.988,1.089.077,3.33-.562,2.476,1.483s-18.017,16.515-21.099,18.907c-3.737,2.9-20.075,14.893-23.445,15.555-14.286,2.804-47.285-4.968-61.126-10.766-3.176-1.331-19.986-9.898-21.309-11.691-1.591-2.158-1.425-6.01-.517-8.483,8.91,7.033,19.704,11.275,30.498,14.502,8.597,2.571,34.837,9.14,42.497,7.481,1.276-.276,2.872-.896,2.505-2.472-19.508-5.311-38.764-11.456-56.291-21.72-16.688-9.772-30.46-23.023-42.703-37.786,20.719,8.195,43.55,16.8,65.779,19.71,6.479.848,30.09,2.986,34.89,1.468,1.273-.403,3.731-.698,3.325-2.672-.41-1.989-35.449-4.229-40.005-7.006-75.558-15.731-146.821-71.245-183.158-138.842-2.428-4.516-14.416-34.585-16.33-34.647-3.65-.119.76,14.941,1.239,16.738,3.936,14.745,11.32,28.303,17.249,42.239-18.044-12.926-33.489-27.124-45.495-45.994,1.702,22.375,21.787,44.299,40.202,55.798,5.434,3.393,11.928,5.694,17.298,9.185-17.982.606-35.769-2.617-52.988-7.495-7.452-2.111-16.76-7.04-23.751-8.254-1.414-.246-3.689-1.214-3.249,1.248,16.622,13.296,35.535,20.679,56.631,23.375,4.173.533,22.524.323,23.357,1.144,1.846,1.82-5.195,6.783-6.675,7.815-4.614,3.214-27.084,12.195-28.313,14.693-1.181,2.4,7.684,1.576,8.528,1.521,12.851-.833,26.591-4.118,38.464-9.024,1.4,1.152-17.608,29.926-19.218,30.76-3.454,1.789-22.899-2.097-27.791-3.26-15.884-3.776-35.384-12.159-49.296-20.704-4.002-2.458-21.135-13.42-20.301-17.803,24.032-41.228,25.547-92.318,53.627-130.993h0ZM918.679,637.822c-20.435-8.961-45.745-10.21-67.678-7.833,12.931-10.095,25.539-20.712,42.52-21.968,19.347-1.431,37.658,4.495,55.474,10.973.292-.294-.779-3.975-1.322-4.67-3.305-4.228-30.761-14.324-36.172-14.324-6.594,0-13.442-.356-20,0h0c-.332.018-1.338,1.412-2.493.996,12.896-26.569,40.427-3.05,61.985-7.01-13.347-8.076-29.208-12.548-44.992-11.997,8.171-11.241,28.243-23.326,34.388-35.101,1.384-2.653,2.114-11.821,4.86-7.6,33.694,51.802,9.464,131.252-11.787,183.674-2.295,5.663-20.344,46.571-22.936,46.896-43.115-23.36-88.481-41.468-138.016-44.935-1.683-.118-9.381,1.606-9.529-.442-.18-2.483,24.068-37.428,27.512-41.489,31.07-36.633,61.527-49.682,109.863-42.846,4.488.635,28.555,7.915,29.64,6.849,3.027-2.977-9.533-8.391-11.316-9.173h0ZM938.986,500.992l-11.975-56.991c11.907,18.193,25.191,35.135,11.975,56.991ZM920.998,406.986c-31.874,4.576-60.237,16.735-86.31,35.202-4.124,2.921-30.881,26.87-32.668,25.804-1.12-.668-12.789-21.378-12.854-22.68-.216-4.318,31.177-26.058,36.305-29.342,25.481-16.319,54.483-29.675,84.469-34.914h0l11.058,25.93ZM657.526,610.976c-4.713-.214-33.498-4.732-36.806-6.196-6.451-2.855,11.325-10.669,13.605-12.636,3.121,4.306,29.707,14.417,30.672,15.872h0c2.194,3.308-6.234,3.016-7.471,2.96h0ZM327.439,690.032c-.262-.601,3.195-9.769,3.428-12.658.803-9.962-2.345-16.487-7.859-24.354,33.388-25.297,72.31-47.705,100.504-79.009,18.779-20.851,32.72-45.527,45.944-70.122,2.363-1.569,18.557,2.954,24.52.586,5.669-2.252,22.158-33.311,26.736-34.364,2.249-.517,23.524,18.352,27.398,21.28,8.731,6.597,23.281,14.737,30.426,21.574,5.653,5.409,12.29,15.624,17.954,22.046,2.425,2.749,14.431,13.382,15.046,15.021.827,2.205-4.133,13.165-2.318,19.259,1.021,3.427,15.296,12.83,14.781,13.696h-.002c-8.829,1.526-19.492,13.692-26.256,16.254-4.512,1.709-8.305-.035-13.786,2.214-5.615,2.304-39.636,27.178-43.921,32.079-4.12,4.713-7.041,10.52-10.731,15.535-31.868-4.196-65.968-8.084-96.564,4.17-10.015,4.011-20.164,10.828-29.051,16.949-2.992,2.061-12.633,11.11-14.414,11.629-3.796,1.106-10.55-1.93-14.772-1.886-15.06.158-29.363,20.33-33.144,20.99-.87.152-13.566-10.079-13.919-10.889h0ZM951.76,763.26c-.456,2.168-7.009,19.931-7.899,20.581-2.413,1.76-15.808-4.794-18.889-6.412l24.011-47.423h0c4.275,10.529,5.125,22.089,2.777,33.254h0ZM979.41,778.911c-1.472,1.991-11.126,12.291-13.405,10.083h0c-.846-.82,7.648-18.641,8.516-21.973,1.69-6.484,2.811-13.306,2.472-20.016-2.778-.588-1.704.829-2.422,2.024-4.319,7.192-7.176,16.874-14.561,21.97,3.734-15.239,7.358-29.697,1.46-44.971-1.438-3.725-7.34-10.345-7.477-11.554-.166-1.471,5.575-18.26,6.529-18.481,4.173-.966,15.629,15.695,17.644,19.339,10.52,19.02,15.038,44.915,1.243,63.579h0ZM671.994,988.993c-24.405-2.161-47.369-11.743-69.989-20.5,16.794-5.096,36.931-8.272,49.994-20.483-14.237.087-27.961,6.791-41.969,9.519-17.039,3.318-41.295,5.732-58.514,4.453-14.36-1.067-16.398-5.684-27.849-12.151-9.824-5.548-19.6-11.248-29.663-16.327,68.266-34.231,124.594-86.866,189.689-126.311,12.421-7.527,27.709-13.897,39.328-21.707,1.133-.762,2.579.229,1.972-2.482-24.034,6.473-46.743,19.665-67.908,32.58-44.331,27.052-86.056,59.888-129.78,88.22-5.617,3.64-38.745,25.728-41.969,25.955-1.27.089-21.976-11.121-22.268-12.361-.297-1.262,10.086-19.024,11.695-23.136,2.911-7.441,6.019-15.145,6.225-23.263-3.838,2.388-6.031,6.438-8.402,10.087-5.208,8.018-10.941,23.807-16.127,29.865-1.119,1.307-1.702,2.392-3.747,1.928-3.88-.88-11.928-28.517-14.249-33.844-3.441-7.894-18.792-35.941-25.979-39.027-1.365-.586-1.666.206-1.469,1.469.684,4.371,13.888,25.962,16.747,33.258,3.462,8.833,5.809,18.109,8.226,27.263l-19.437-24.052c-13.879-11.557-26.979-24.207-42.884-33.116-3.982-2.231-15.407-8.283-19.347-8.673-1.892-.187-2.111.903-1.311,1.82,1.795,2.055,12.655,8.124,15.899,10.612,14.213,10.899,29.025,23.612,39.08,38.409-41.015-35.131-98.447-61.155-151.033-34.543-7.039,3.562-18.72,10.887-20.945,18.544,44.852-36.8,115.257-24.858,154.989,13.989-16.059-3.855-32.124-8.986-48.632-10.857-3.751-.425-18.023-1.909-20.386-.65-1.207.644-1.126,1.299.042,1.991,38.141,12.38,76.462,21.174,110.972,42.543.935.955-3.543,3.798-3.801,3.882-17.563,5.76-25.843,5.56-41.203,18.593-12.738,10.809-36.992,47.436-36.992,64.008v14.502c-33.363-24.418-74.761-37.777-102.638-69.361-48.497-54.945-14.032-117.684,50.211-134.568,7.578-1.992,23.629-3.122,29.341-6.659,8.828-5.467,8.463-28.891,14.117-34.883,5.502-5.831,28.048-10.254,34.965-17.035-7.81-2.958-25.402,6.105-31.536,5.094-2.666-.439-4.618-7.595-9.468-5.125-4.409,2.245-9.657,44.579-13.198,47.345-1.078.842-22.792,3.509-26.977,4.507-10.586,2.524-22.013,6.314-31.689,11.311-4.007,2.07-16.701,12.111-17.765,12.299-2.543.448-11.704-10.889-10.92-14.948,2.319-12.006,38.792-36.061,49.889-42.147,36.871-20.22,78-33.954,120.016-27.763,21.495,3.168,42.509,10.819,64.062,13.918,4.315.086,22.652-18.953,22.57-20.488-.299-5.615-72.995-20.993-81.973-16.486,8.099,5.637,73.861,13.743,75.992,17.002.646.987-15.497,15.774-17.322,15.745-18.686-6.249-37.664-11.574-56.86-16.075-19.119-4.483-22.967-1.733-40.131-13.869-8.267-5.845-15.172-13.355-23.678-18.835,5.516-8.449,17.432-20.618,28.525-20.031,9.983.528,20.472,4.455,32.009,4.171,1.11-.027,2.495-3.599,4.455-1.108,1.174,1.492-6.995,6.513-8.317,7.167-7.058,3.49-10.202,4.678-17.361,1.001-6.117-3.142-18.446-17.347-11.502,2.504,4.768,13.631,15.941,28.135,29.174,34.316l-13.986-21.986c10.825-1.059,32.118-14.203,36.892-23.68,5.048-10.021-19.263-5.464-23.894-6.344,32.887-31.185,78.354-33.291,120.998-25.977-5.482,15.096-7.417,7.815-18.755,6.245-8.071-1.118-18.792-1.819-26.742-.255-1.452.286-3.086-.005-3.5,1.986,5.891.373,36.645,6.043,38.942,10.103,1.025,1.812-8.807,11.652,2.121,20.34,1.681,1.336,4.513,1.75,5.66,2.846,3.02,2.887,7.157,12.185,13.988,13.692,2.829.624,6.027-.826,7.83-.537,2.188.352,6.521,6.049,12.973,6.58,6.09.501,11.955-3.284,14.918-3.02,3.649.325,7.822,5.962,15.622,5.542,14.791-.798,31.926-22.936,42.294-22.471,8.728.391,30.17,10.852,39.32,14.768,23.569,10.087,46.718,21.63,69.325,33.675-31.077,2.774-62.445,4.193-93.366,8.624-15.376,2.204-41.189,5.802-55.307,10.693-1.819.63-3.658,1.024-4.322,3.166,9.601-.467,19.002-2.886,28.521-3.968,18.85-2.141,37.924-4.522,57.979-6.117,3.439-.273,7.206,1.713,11.052,1.181,18.599-2.569,40.168-4.802,59.898-5.135,18.197-.307,38.187,1.896,52.546,14.035-55.443,22.896-93.397,74.856-112.032,130.479-9.329,27.845-16.772,59.237-11.971,88.529h0ZM690.169,937.849c-4.315-5.889,17.761-63.627,22.457-72.722,3.297-6.386,23.872-39.747,29.087-40.988,3.133-.746,10.39,5.061,13.273,6.374,2.436,1.11,9.656,2.125,10.018,2.494h0c.663.675-.653,3.36-1.154,4.346-4.902,9.651-15.628,20.98-21.655,31.344-8.812,15.155-16.506,33.4-21.912,50.088-1.227,3.788-6.301,26.223-7.298,27.219-.857.857-22.101-7.177-22.817-8.155h0Z"/>
  <path d="M73.484,658.011c-1.961-1.02-1.383,1.55-1.488,2.469-.566,4.934-3.465,33.882-.984,35.515,7.209,4.745,8.944-34.619,2.472-37.984Z"/>
  <path d="M743.669,650.17c9.314-4.988,20.614-12.735,27.843-20.144-5.16,2.49-43.544,21.98-43.489,24.475.103,4.668,14.268-3.593,15.646-4.331Z"/>
  <path d="M800.994,314.006l-25.983,83.994c21.395-20.82,28.025-54.95,25.983-83.994h0Z"/>
  <path d="M829.006,571.994c1.081,1.018,24.592-9.234,27.661-10.827,17.246-8.951,44.529-29.028,51.067-47.933.833-2.409,2.564-16.345-.721-14.231-.625.402-4.257,10.954-5.844,13.667-10.706,18.3-28.646,31.544-46.257,42.743-6.625,4.213-18.456,9.053-23.64,13.36-.647.537-3.507,2.054-2.266,3.222h0Z"/>
  <path d="M845.025,1020.475c-17.168-11.497-37.091-19.95-54.083-31.917-1.028-3.507-2.284-7.584-2.837-11.163-.585-3.784-1.784-42.011-4.605-41.407s-3.246,42.299-.506,48.005l-45.61-25.908c-8.2-1.182,7.125,10.853,8.286,11.744,7.36,5.647,34.514,19.405,37.793,23.207,4.069,4.717,7.156,24.786,12.537,30.963h5c-.032-2.714-9.294-23.332-6.49-24.009,2.372-.573,36.522,22.417,42.49,24.01h11c.128-2.439-1.512-2.545-2.975-3.525h0Z"/>
  <polygon class="cls-2" points="324.999 1024 325 1024 324.999 1023.999 324.999 1024"/>
  <polygon class="cls-2" points="542.999 978.998 542.996 978.997 542.996 978.997 542.999 978.998"/>
  <polygon class="cls-3" points="88 675 88 675 88.002 674.997 88 675"/>
  <polygon class="cls-5" points="801.995 797.006 801.994 797.007 801.996 797.007 801.995 797.006"/>
  <polygon class="cls-6" points="512 46 512.001 46 511.999 45.998 512 46"/>
  <polygon points="589.994 174.994 589.992 174.992 589.992 174.992 589.994 174.994"/>
  <polygon points="771.513 630.025 771.512 630.026 771.514 630.025 771.513 630.025"/>
</svg>