<?xml version="1.0" encoding="UTF-8"?>
<svg id="Layer_1" data-name="Layer 1" xmlns="http://www.w3.org/2000/svg" viewBox="0 0 1024 1024">
  <defs>
    <style>
      .cls-1 {
        fill: #0e1213;
      }

      .cls-2 {
        fill: #f1b67b;
      }

      .cls-3 {
        fill: #cd3627;
      }

      .cls-4 {
        fill: #06263f;
      }

      .cls-5 {
        fill: #fdfcfa;
      }

      .cls-6 {
        fill: #126fa2;
      }
    </style>
  </defs>
  <path class="cls-5" d="M325,1024H0V0h1024v765l-2.337-1.227-7.136-18.535c3.858-20.702-3.217-50.47-18.016-66.386-9.09-9.775-18.146-11.402-30.776-13.242,11.553-48.829,8.404-99.53-14.702-143.684-1.948-4.818-3.784-9.84-2.315-15.028,12.915-28.09-.886-50.475-16.889-73.072-3.53-5.809-2.519-12.424,3.033-19.845-22.539-57.093-49.83-124.224-91.771-170.536-48.297-53.329-129.983-57.885-196.839-52.51-9.363-6.008-19.315-10.811-29.858-14.407l-1.615-1.752c-2.421-12.852-5.256-25.551-8.506-38.097-1.004-36.613-19.057-83.375-56.416-95.981-40.808-13.77-118.366-6.673-142.464,33.578-5.961,13.527-11.292,27.343-15.993,41.446-18.362,6.769-36.512,14.175-54.45,22.218-44.479,26.478.056,48.353,31.825,41.582,5.962-1.201,11.699-1.673,17.211-1.416.277,5.66,1.328,10.046,5.741,14.197,10.748,8.623,13.198,16.045,11.276,29.647,3.969,18.938,11.379,36.973,22.228,54.104,6.474,8.435,11.302,17.347,14.482,26.737-12.771,18.329-21.726,34.521-29.26,56.864-7.59,30.532-18.617,59.262-31.879,86.969-1.522,17.962-13.109,28.977-27.452,38.807-20.423,21.26-37.123,45.67-50.099,73.231-2.215,5.28-29.258,44.996-35.506,45.146-11.253-8.366-20.579-14.113-35.43-15.236-9.215-4.272-17.44-10.754-24.673-19.444-14.337-1.078-28.533-2.747-42.589-5.006-3.214-16.289-15.827-23.966-31.55-24.797-33.222-32.727-72.956,26.981-87.242,53.674-5.676,19.211-11.614,38.347-17.815,57.41-4.846,13.234-.727,24.896,4.693,36.828-3.255,23.992,1.89,46.048,22.451,61.463,1.912,2.04.454,3.306-1.886,4.686-51.658,24.793,24.263,42.493,45.74,42.163l8.706,1.778c19.514,13.095,45.662,20.865,69.164,17.617,6.206.189,37.856,12.445,40.614,16.706.946,8.449,4.759,13.063,11.302,18.184l.756,2.176c-11.344,21.376-11.614,41.924-10.72,65.704-13.975,25.174,5.934,43.055,25.941,56.085,24.154,14.777,48.689,28.928,73.605,42.451,3.516,1.907,6.748,3.992,8.415,7.75Z"/>
  <path class="cls-1" d="M325,1024c-27.883-18.668-60.625-32.083-87.72-51.78-15.714-11.423-31.354-24.572-25.765-46.206.748-2.897,3.223-4.87,3.538-8.525,1.552-18.016-3.118-27.39,3.242-47.695,1-3.192,7.844-17.233,7.617-18.193-.155-.654-7.417-6.016-9.346-9.669-1.742-3.299-2.212-8.858-2.766-9.734-1.006-1.59-32.225-14.513-34.525-14.968-5.539-1.095-9.765,1.081-14.781.839-13.694-.66-32.922-5.05-45.473-10.593-3.726-1.645-11.819-7.73-13.739-8.261-11.399-3.156-27.53-2.794-41.279-6.721-28.962-8.272-50.487-24.683-11.01-41.99-14.792-10.408-24.22-26.715-25.031-44.968-.258-5.81,1.646-13.241.981-17.959-.498-3.535-4.421-9.009-5.488-13.535-4.522-19.179,3.457-28.245,8.045-45.043,6.941-25.41,6.64-34.479,22.687-57.313,12.197-17.356,40.387-51.034,64.086-43.462,5.568,1.779,10.54,7.979,13.746,9.254,3.039,1.209,8.504.782,12.773,2.227,8.941,3.026,18.935,13.307,19.25,23.247l42.249,4.254c6.481,4.494,12.421,14.154,19.376,17.624,7.17,3.578,17.062,3.002,25.33,6.67,3.956,1.755,13.607,10.48,14.502,10.48,2.229,0,19.284-21.81,21.72-25.263,20.78-29.452,33.32-65.772,60.254-90.746,6.746-6.255,14.433-10.048,20.354-17.646,7.112-9.127,6.468-11.693,8.589-21.327,1.571-7.137,13.059-27.787,16.6-37.483,10.638-29.125,15.834-62.329,32.162-88.838,2.319-3.765,12.97-15.871,12.662-18.917-.488-4.819-11.395-19.239-14.36-24.741-7.258-13.468-20.848-38.004-22.353-52.647-.547-5.327.928-14.336-.34-18.66-1.815-6.187-19.868-15.817-15.792-26.715-19.199,4.619-73.881,8.734-67.757-24.267,3.639-19.612,56.51-32.79,72.733-40.259,6.911-16.398,9.345-34.908,21.063-48.937,29.838-35.722,115.776-43.284,154-20.069,25.587,15.54,44.267,62.07,43.145,90.778,4.321,6.252,5.503,34.767,8.817,38.26,1.345,1.417,12.016,4.202,15.207,5.793,3.119,1.556,12.463,8.487,14.334,8.675,5.099.514,16.155-1.901,21.924-2.01,47.702-.898,111.202,5.102,151.267,32.809,42.834,29.623,76.268,98.628,97.444,145.556,3.102,6.875,20.282,44.847,19.653,48.916s-6.463,9.288-5.673,14.011c.432,2.581,12.909,20.048,15.367,24.726,6.142,11.688,10.626,20.592,9.353,34.392-.645,6.991-6.258,19.321-5.686,24.864.835,8.082,13.289,30.635,16.307,41.77,10.12,37.336,10.704,73.576.51,110.986,37.043-2.827,51.272,43.911,50.942,73.447-.019,1.73-1.797,3.098-1.715,4.886.188,4.086,6.961,16.499,7.769,21.674v47l-1.018,1.858c-53.291-9.191-106.607-17.85-159.95-25.976-18.264-5.449-30.455,1.147-44.065,12.848,40.961,7.686,83.165,17.859,117.821,40.891-4.489-7.802-9.786-15.048-15.89-21.737-6.25-10.481,6.058-7.001,11.772-2.626,14.799,11.33,24.229,32.391,29.279,49.939,3.799-10.252,4.304-23.744,4.156-35.472,4.548-9.963,11.138,12.39,10.539,17.611-.042,12.261-.238,24.374-.587,36.339l47.287,12.093.657,2.232v12c-1.568.666-3.196.948-4.888.824-40.146-11.392-80.87-19.773-122.187-8.671l-33.223,7.336c-10.1-2.131.022-7.774,4.862-10.104,18.048-8.69,38.476-13.522,57.963-14.894-39.239-13.956-77.993,5.829-112.139,24.632-9.399-1.156-1.173-8.961,2.942-12.541,33.55-29.186,88.919-44.404,129.206-19.687-11.437-34.137-52.961-47.47-84.784-56.889-4.814-1.425-52.343-13.34-56.443-11.997-2.757.903-22.491,23.741-24.179,25.969-32.397,42.772-60.103,95.414-60.701,150.174-.216,19.773,5.098,25.794,21.3,35.21l.27,2.638h-76l-7.882-2.173c-43.057-25.398-93.51-39.998-142.262-36.547-4.43-.632-3.697-8.362.644-6.28.207-.779.534-1.941,1.139-2,7.607-.747,18.239-.469,25.361,2l-6.831-2.204c-17.066-11.482-34.497-21.541-52.292-30.176-35.6,8.086-61.52,40.414-72.128,74.939l-2.749,2.441h-12c-.365-.638-.693-1.287-.895-1.973-1.012-3.44,4.309-15.703,6.149-19.854,12.616-28.469,35.067-51.686,63.824-63.897.467-1.429-24.134-11.881-27.455-11.995-7.107-.245-31.2,10.419-37.29,14.999-25.718,19.34-39.5,48.19-43.077,79.818l-2.255,2.904h-31Z"/>
  <path class="cls-4" d="M742,1024c-11.098-7.983-21.113-11.327-22.868-26.632-6.565-57.239,33.379-134.296,71.357-175.38,1.819-1.968,13.077-13.548,14.243-13.84,2.438-.611,22.187,3.442,26.299,4.321,33.926,7.247,94.226,22.488,112.504,54.496,1.254,2.195,5.422,11.576,5.459,13.558.061,3.318-6.09-1.762-8.317-2.7-30.605-12.904-53.791-13.056-84.471-.118-10.372,4.374-36.066,18.85-42.64,27.36-1.147,1.485-1.8,3.013-1.56,4.929,13.792-5.824,26.351-14.661,40.313-20.176,21.67-8.558,46.503-13.39,69.459-7.095.904.248,12.029,3.659,9.217,5.271-.926.531-17.618,1.565-21.215,2.285-11.671,2.337-33.296,8.716-43.456,14.539-1.505.862-5.659,2.985-5.315,5.178,23.57-4.687,47.289-11.769,71.453-13.035,31.403-1.645,61.521,7.495,91.539,15.039v112h-176c-19.581-10.557-39.098-21.968-58.549-34.236-3.592-14.573-5.504-29.578-5.737-45.013-.693,12.761-1.26,25.877,1.008,38.477-.576,1.565-1.876,2.129-3.517,2.049l-41.767-23.504,9.932,8.202c12.208,6.775,24.078,14.032,35.61,21.771,4.066,10.059,8.065,20.146,11.995,30.263l-.975,1.991h-54Z"/>
  <path class="cls-2" d="M409,1024c6.482-24.961,23.761-51.647,45.09-66.41,4.908-3.397,25.38-14.175,30.589-12.852,5.634,1.43,19.98,10.702,25.989,14.094,11.006,6.214,21.925,13.001,32.332,20.168h-26.5c-1.022,0-2.054,3.122-1.496,3.987.776,1.204,24.255-.237,28.545-.036,43.738,2.048,85.068,19.427,122.451,41.049h-257Z"/>
  <path class="cls-4" d="M1024,812v88l-50.565-12.932c.119-18.61,5.23-38.712-3.951-56.058-2.488-.389-1.163.897-1.178,2.23-.13,12.049-1.291,24.685-4.169,36.398-.295,1.201-.571,4.365-2.123,4.354-3.553-10.889-6.362-21.525-11.845-31.661-4.224-7.808-17.686-26.802-26.662-27.354-1.078-.066-3.091-.646-2.492,1.502.429,1.539,10.474,12.629,12.79,16.215,2.195,3.399,6.853,11.342,8.148,14.863.637,1.732-.661,1.64-1.948,1.438.004-.748.27-2.303-.226-2.712-3.673-3.037-15.458-9.902-20.112-12.452-31.524-17.269-70.56-25.343-105.668-31.843,8.571-6.319,21.779-18.05,32.529-18.036,6.712.009,14.901,2.344,21.833,2.186l155.639,25.861Z"/>
  <path class="cls-6" d="M356,1024c2.387-33.446,20.645-72.219,50.984-88.516,5.766-3.097,25.918-11.252,31.702-11.198,5.713.054,26.775,10.788,32.313,14.702-36.717,12.204-65.314,47.788-73.999,85.012h-41Z"/>
  <path class="cls-1" d="M848,1024h-11l-8.288-1.888-31.99-19.103c1.357,6.296,3.367,12.791,6.031,19.484l-1.753,1.506h-5c-5.381-6.177-8.468-26.246-12.537-30.963-3.279-3.802-30.433-17.56-37.793-23.207-1.161-.891-16.486-12.926-8.286-11.744l45.61,25.908c-2.74-5.706-2.315-47.401.506-48.005s4.02,37.623,4.605,41.407c.553,3.579,1.809,7.656,2.837,11.163,16.992,11.967,36.915,20.42,54.083,31.917,1.463.98,3.103,1.086,2.975,3.524Z"/>
  <path class="cls-4" d="M837,1024h-36c-.03-2.71-9.294-23.333-6.49-24.01,2.372-.573,36.522,22.417,42.49,24.01Z"/>
  <path class="cls-6" d="M351,1019c-33.364-24.418-74.762-37.777-102.639-69.361-48.497-54.945-14.032-117.684,50.211-134.568,7.578-1.992,23.629-3.122,29.341-6.659,8.828-5.467,8.463-28.891,14.117-34.883,5.502-5.831,28.048-10.254,34.965-17.035-7.81-2.958-25.402,6.105-31.536,5.094-2.666-.439-4.618-7.595-9.468-5.125-4.409,2.245-9.657,44.579-13.198,47.345-1.078.842-22.792,3.509-26.977,4.507-10.586,2.524-22.013,6.314-31.689,11.311-4.007,2.07-16.701,12.111-17.765,12.299-2.543.448-11.704-10.889-10.92-14.948,2.319-12.006,38.792-36.061,49.889-42.147,36.871-20.22,78-33.954,120.016-27.763,21.495,3.168,42.509,10.819,64.062,13.918,4.315.086,22.652-18.953,22.57-20.488-.299-5.615-72.995-20.993-81.973-16.486,8.099,5.637,73.861,13.743,75.992,17.002.646.987-15.497,15.774-17.322,15.745-18.686-6.249-37.664-11.574-56.86-16.075-19.119-4.483-22.967-1.733-40.131-13.869-8.267-5.845-15.172-13.355-23.678-18.835,5.516-8.449,17.432-20.618,28.525-20.031,9.983.528,20.472,4.455,32.009,4.171,1.11-.027,2.495-3.599,4.455-1.108,1.174,1.492-6.995,6.513-8.317,7.167-7.058,3.49-10.202,4.678-17.361,1.001-6.117-3.142-18.446-17.347-11.502,2.504,4.768,13.631,15.941,28.135,29.174,34.316l-13.986-21.986c10.825-1.059,32.118-14.203,36.892-23.68,5.048-10.021-19.263-5.464-23.894-6.344,32.887-31.185,78.354-33.291,120.998-25.977-5.482,15.096-7.417,7.815-18.755,6.245-8.071-1.118-18.792-1.819-26.742-.255-1.452.286-3.086-.005-3.5,1.986,5.891.373,36.645,6.043,38.942,10.103,1.025,1.812-8.807,11.652,2.121,20.34,1.681,1.336,4.513,1.75,5.66,2.846,3.02,2.887,7.157,12.185,13.988,13.692,2.829.624,6.027-.826,7.83-.537,2.188.352,6.521,6.049,12.973,6.58,6.09.501,11.955-3.284,14.918-3.02,3.649.325,7.822,5.962,15.622,5.542,14.791-.798,31.926-22.936,42.294-22.471,8.728.391,30.17,10.852,39.32,14.768,23.569,10.087,46.718,21.63,69.325,33.675-31.077,2.774-62.445,4.193-93.366,8.624-15.376,2.204-41.189,5.802-55.307,10.693-1.819.63-3.658,1.024-4.322,3.166,9.601-.467,19.002-2.886,28.521-3.968,18.85-2.141,37.924-4.522,57.979-6.117,3.439-.273,7.206,1.713,11.052,1.181,18.599-2.569,40.168-4.802,59.898-5.135,18.197-.307,38.187,1.896,52.546,14.035-55.443,22.896-93.397,74.856-112.032,130.479-9.329,27.845-16.772,59.237-11.971,88.529-24.405-2.161-47.369-11.743-69.989-20.5,16.794-5.096,36.931-8.272,49.994-20.483-14.237.087-27.961,6.791-41.969,9.519-17.039,3.318-41.295,5.732-58.514,4.453-14.36-1.067-16.398-5.684-27.849-12.151-9.824-5.548-19.6-11.248-29.663-16.327,68.266-34.231,124.594-86.866,189.689-126.311,12.421-7.527,27.709-13.897,39.328-21.707,1.133-.762,2.579.229,1.972-2.482-24.034,6.473-46.743,19.665-67.908,32.58-44.331,27.052-86.056,59.888-129.78,88.22-5.617,3.64-38.745,25.728-41.969,25.955-1.27.089-21.976-11.121-22.268-12.361-.297-1.262,10.086-19.024,11.695-23.136,2.911-7.441,6.019-15.145,6.225-23.263-3.838,2.388-6.031,6.438-8.402,10.087-5.208,8.018-10.941,23.807-16.127,29.865-1.119,1.307-1.702,2.392-3.747,1.928-3.88-.88-11.928-28.517-14.249-33.844-3.441-7.894-18.792-35.941-25.979-39.027-1.365-.586-1.666.206-1.469,1.469.684,4.371,13.888,25.962,16.747,33.258,3.462,8.833,5.809,18.109,8.226,27.263l-19.437-24.052c-13.879-11.557-26.979-24.207-42.884-33.116-3.982-2.231-15.407-8.283-19.347-8.673-1.892-.187-2.111.903-1.311,1.82,1.795,2.055,12.655,8.124,15.899,10.612,14.213,10.899,29.025,23.612,39.08,38.409-41.015-35.131-98.447-61.155-151.033-34.543-7.039,3.562-18.72,10.887-20.945,18.544,44.852-36.8,115.257-24.858,154.989,13.989-16.059-3.855-32.124-8.986-48.632-10.857-3.751-.425-18.023-1.909-20.386-.65-1.207.644-1.126,1.299.042,1.991,38.141,12.38,76.462,21.174,110.972,42.543.935.955-3.543,3.798-3.801,3.882-17.563,5.76-25.843,5.56-41.203,18.593-12.738,10.809-36.992,47.436-36.992,64.008v14.5Z"/>
  <path class="cls-3" d="M608,449c4.634-4.438-17.986-4.902-20.895-7.605-2.553-2.372-13.606-23.944-15.569-28.431-18.236-41.695-2.142-46.032,18.869-78.058,23.926-36.469,39.684-83.228,35.628-127.439-.803-8.751-4.8-15.132-9.023-22.466,34.875,8.965,39.599,48.135,41.975,78.514.511,6.535,2.773,65.882-.502,66.503-.819.155-13.143-4.501-15.854-5.148-8.083-1.929-28.057-6.493-35.057-1.803-3.885,2.602,2.902,15.583.207,20.72-.665,1.268-19.995,11.578-24.245,15.247-7.613,6.573-14.317,14.804-14.578,25.422-.05,2.021-1.031,6.462,2.027,5.539-.581-3.665,15.259-22.145,17.011-19.99-2.279,7.802,15.602,57.577,19.505,59.019.544.201,2.23.318,2.511-.541.752-2.303-11.301-32.339-13.03-37.963-.995-3.237-7.128-23.674-6.812-24.926.97-3.843,24.712-13.776,26.34-16.584,1.472-2.538-.197-12.342.486-13.014.695-.684,17.184.806,19.483,1.027,5.857.562,26.825,6.059,29.971,1.922,8.434-11.088,1.382-75.536.546-91.947l64.728,8.752c1.057.326,3.269-1.953,3.253-2.249-.329-6.284-66.296-10.226-68.74-12.737-.908-.933-4.624-20.935-6.217-25.284-2.108-5.755-5.705-10.833-8.015-16.473,54.558.02,120.779-1.098,166.324,33.164,28.841,21.696,51.257,66.68,67.195,98.805,7.284,14.681,14.58,29.707,20.477,45.016-46.039,7.864-87.367,31.337-120.988,63.006-27.085-48.288-57.1-102.447-45.712-160.196,4.117-20.878,18.023-48.429,39.474-55.526l16.216-3.261c-28.365-8.976-50.683,18.352-59.006,42.472-12.526,36.299-6.509,73.991,5.003,109.514-6.474-6.084-10.23-14.556-14.159-22.33l-13.83-41.67v18.5c0,27.478,21.604,51.458,34.167,72.833,2.028,3.451,15.725,32.364,15.819,34.248.176,3.557-8.252,20.285-10.465,24.439-1.645,3.087-17.685,26.848-16.514,27.974,3.299,3.174,27.451-19.704,30.502-22.987,1.247-1.342,5.025-8.378,6.477-7.005,1.054.996,9.414,22.017,12.198,26.314,2.154,3.325,12.77,13.229,12.768,14.183-.004,2.913-32.245,40.184-37.206,44.744-5.982,1.794-49.448.582-50.742,2.769-3.028,5.119,35.093,8.818,37.512,8.988,1.089.077,3.33-.562,2.476,1.483s-18.017,16.515-21.099,18.907c-3.737,2.9-20.075,14.893-23.445,15.555-14.286,2.804-47.285-4.968-61.126-10.766-3.176-1.331-19.986-9.898-21.309-11.691-1.591-2.158-1.425-6.01-.517-8.483,8.91,7.033,19.704,11.275,30.498,14.502,8.597,2.571,34.837,9.14,42.497,7.481,1.276-.276,2.872-.896,2.505-2.472-19.508-5.311-38.764-11.456-56.291-21.72-16.688-9.772-30.46-23.023-42.703-37.786,20.719,8.195,43.55,16.8,65.779,19.71,6.479.848,30.09,2.986,34.89,1.468,1.273-.403,3.731-.698,3.325-2.672-.41-1.989-35.449-4.229-40.005-7.006-75.558-15.731-146.821-71.245-183.158-138.842-2.428-4.516-14.416-34.585-16.33-34.647-3.65-.119.76,14.941,1.239,16.738,3.936,14.745,11.32,28.303,17.249,42.239-18.044-12.926-33.489-27.124-45.495-45.994,1.702,22.375,21.787,44.299,40.202,55.798,5.434,3.393,11.928,5.694,17.298,9.185-17.982.606-35.769-2.617-52.988-7.495-7.452-2.111-16.76-7.04-23.751-8.254-1.414-.246-3.689-1.214-3.249,1.248,16.622,13.296,35.535,20.679,56.631,23.375,4.173.533,22.524.323,23.357,1.144,1.846,1.82-5.195,6.783-6.675,7.815-4.614,3.214-27.084,12.195-28.313,14.693-1.181,2.4,7.684,1.576,8.528,1.521,12.851-.833,26.591-4.118,38.464-9.024,1.4,1.152-17.608,29.926-19.218,30.76-3.454,1.789-22.899-2.097-27.791-3.26-15.884-3.776-35.384-12.159-49.296-20.704-4.002-2.458-21.135-13.42-20.301-17.803,24.032-41.228,25.547-92.318,53.627-130.993,1.083-.094,1.379-.499,1.983.61,1.716,3.152,2.517,12.204,4.224,16.653,4.124,10.745,14.175,19.728,26.272,19.728h25.5c-3.116,38.936,12.755,11.745,23.4,12.043,7.678.215,22.418,9.537,31.547,9.007-1.219,14.34,1.08,24.764,6.881,37.623,2.948,6.536,18.976,36.327,25.673,36.327,2.795,0,18.796.674,19.5,0Z"/>
  <path class="cls-2" d="M923.65,541.647c-5.059,4.844-15.115,10.234-21.116,15.387-35.901,30.832-60.385,47.561-101.837,70.163-27.1,14.776-55.2,27.819-82.206,42.794l-2.478-4.989c-6.218,17.172-25.919,22.206-42.491,20.975-2.346-.174-20.747-3.209-21.473-4.025-.835-.94,1.381-4.394-1.429-3.849-4.809.933-20.036,5.599-24.3,7.716-10.968,5.446-27.912,26.3-38.96,26.809-13.762.634-7.63-14.703-3.423-16.083,2.313-.759,3.875,2.267,6.046-1.537l5.01,7.984c-.101-2.215.504-4.952-.49-6.999-1.61-3.314-7.631-.739-6.494-3.48.312-.752,9.39-10.365,10.965-12.041,9.017-9.605,13.87-11.776,24.276-16.758,2.726-1.305,17.368-6.355,16.744-9.199-.979-4.466-17.041,4.82-19.973,6.004-2.781,1.124-7.085,1.258-10.62,2.893-9,4.163-28.056,25.678-34.226,34.262-1.928,2.682-1.74,5.935-4.643,8.357-3.947,3.295-16.339,7.522-19.082.938-.904-2.171,7.219-13.797,8.032-13.899,4.414-.551,6.449,11.331,8.035,7.946,3.493-7.458-6.04-9.318-6.514-10.033-1.023-1.543,18.599-27.874,21.001-30.186,6.12-5.891,14.557-7.616,21.661-11.633,3.753-2.123,17.534-9.529,9.832-13.199l-34.55,19.481-35.982,47.01c-3.302,3.212-9.54.662-10.546-3.421-.979-3.971,6.236-18.91,12.597-11.546,1.775,2.055-.359,5.134,2.977,4.503,2.697-6.372-6.355-8.191-6.921-9.078-1.046-1.64,9.921-19.478,11.907-22.436,14.145-21.061,21.037-17.121,37.346-30.655,2.979-2.472,8.936-8.383,2.606-8.41-9.326,8.859-26.07,12.627-34.967,21.05-5.964,5.646-22.269,36.407-24.464,36.514-.524.026-7.156-6.244-7.093-7.455.249-4.771,16.983-30.12,21.056-34.56,10.15-11.065,29.883-17.964,41.284-28.716l17.251.765c-6.608,8.206,1.101,3.225,4.601,3.061,15.498-.73,34.41,9.801,50.022,10.831,15.947,1.052,18.993-3.618,35.412,5.562,3.725,2.083,20.392,15.494,9.489,2.511-5.494-6.542-13.805-9.589-21.519-12.471,34.069-19.46,62.246-41.439,88.506-70.494,18.854-20.861,38.996-51.638,63.471-65.529,7.242-4.11,21.073-7.503,26.017-10.984.504-.355,1.682-1.43.497-1.504-5.86-.344-10.976.075-16.692,1.309-4.297.928-19.903,9.392-20.79,8.697-.451-.353-4.985-9.787-4.901-10.354.383-2.593,26.271-21.083,30.367-23.668,17.83-11.249,36.809-19.549,57.507-23.989,9.095,29.347,19.557,62.654,20.997,93.526.449,9.622,1.953,19.154-5.333,26.13Z"/>
  <path class="cls-2" d="M154.658,569.373c.234.049.955,1.717,4.259,2.163,8.864,1.196,21.454.46,30.343,2.513.164.038,2.687,1.812,2.724,1.976.162.71-7.84,7.845-9.035,11.427-.644,1.931-2.27,10.049.533,10.492,6.653,1.05,14.59-20.975,20.016-20.97,1.28.001,15.31,14.018,19.825,16.203,8.009,3.875,18.946,3.008,26.027,6.973,8.441,4.727,19.793,19.348,27.637,26.363,10.912,9.759,24.381,19.292,34.537,29.463,18.132,18.158,4.049,33.407-7.715,50.338-13.943,20.069-47.915,58.902-73.309,61.69-12.32,1.353-48.632-12.808-50.497-10.996-1.994,1.937,6.032,4.42,4.552,12.051-5.221,26.907-69.024,21.29-69.642-11.56-.348-18.516,25.098-13.643,33.626-19.455,2.585-1.761,5.326-10.509,4.506-13.352-.45-1.559-16.54-6.31-19.424-7.813-12.088-6.301-10.963-19.546-18.397-30.603-7.166-10.66-14.463-9.039-21.766-16.234-2.757-2.716-13.631-22.526-13.466-25.591.057-1.057,12.957-12.496,14.971-14.983,4.244-5.24,8.644-16.376,11.576-19.424,3.954-4.109,9.342-6.43,14.426-12.574,4.747-5.736,16.09-27.263,19.464-29.537,2.92-1.969,10.455.651,14.227,1.442Z"/>
  <path class="cls-5" d="M623.997,582.986c-8.829,1.527-19.492,13.693-26.256,16.255-4.512,1.709-8.305-.035-13.786,2.214-5.615,2.304-39.636,27.178-43.921,32.079-4.12,4.713-7.041,10.52-10.731,15.535-31.868-4.196-65.968-8.084-96.564,4.17-10.015,4.011-20.164,10.828-29.051,16.949-2.992,2.061-12.633,11.11-14.414,11.629-3.796,1.106-10.55-1.93-14.772-1.886-15.06.158-29.363,20.33-33.144,20.99-.87.152-13.566-10.079-13.919-10.889-.262-.601,3.195-9.769,3.428-12.658.803-9.962-2.345-16.487-7.859-24.354,33.388-25.297,72.31-47.705,100.504-79.009,18.779-20.851,32.72-45.527,45.944-70.122,2.363-1.569,18.557,2.954,24.52.586,5.669-2.252,22.158-33.311,26.736-34.364,2.249-.517,23.524,18.352,27.398,21.28,8.731,6.597,23.281,14.737,30.426,21.574,5.653,5.409,12.29,15.624,17.954,22.046,2.425,2.749,14.431,13.382,15.046,15.021.827,2.205-4.133,13.165-2.318,19.259,1.021,3.427,15.296,12.83,14.781,13.696Z"/>
  <path class="cls-4" d="M891.5,600c-.332.018-1.338,1.412-2.493.996,12.896-26.569,40.427-3.05,61.985-7.01-13.347-8.076-29.208-12.548-44.992-11.997,8.171-11.241,28.243-23.326,34.388-35.101,1.384-2.653,2.114-11.821,4.86-7.6,33.694,51.802,9.464,131.252-11.787,183.674-2.295,5.663-20.344,46.571-22.936,46.896-43.115-23.36-88.481-41.468-138.016-44.935-1.683-.118-9.381,1.606-9.529-.442-.18-2.483,24.068-37.428,27.512-41.489,31.07-36.633,61.527-49.682,109.863-42.846,4.488.635,28.555,7.915,29.64,6.849,3.027-2.977-9.533-8.391-11.316-9.173-20.435-8.961-45.745-10.21-67.678-7.833,12.931-10.095,25.539-20.712,42.52-21.968,19.347-1.431,37.658,4.495,55.474,10.973.292-.294-.779-3.975-1.322-4.67-3.305-4.228-30.761-14.324-36.172-14.324-6.594,0-13.442-.356-20,0Z"/>
  <path class="cls-2" d="M536.307,179.69c4.941,3.509,15.124-.857,16.481-6.402,1.908-7.799,3.184-12.275,9.215-18.785,16.403-17.706,33.702-.86,34.062,18.966.318,17.485-12.849,56.09-36.06,43.539,17.012,32.681,1.14,56.479-18.613,81.885-16.165,20.79-34.719,44.5-63.939,43.148-18.885-.874-16.919-12.08-22.96-25.032-10.286-22.054-23.899-42.184-33.472-64.534.57-3.631,5.482,1.311,5.792,1.423,15.64,5.686,6.019-3.992,9.088-8.443,3.458-5.014,9.138.232,11.102-.883,5.278-2.995,1.647-10.096-7.821-7.885-7.965,1.861-9.988,9.281-10.722,9.344-1.77.151-10.713-5.133-11.881-7.11-4.346-7.362,3.51-34.8,5.033-44.799.263-1.726,2.034-4.044,2.026-4.641-.011-.784-5.214-7.477-6.177-9.441-1.438-2.933-6.687-20.507-7.537-8.559-.533,7.494,5.651,13.048,5.076,13.508-.656.525-12.183-5.37-15.789-5.785-2.589-.298-4.677.987-7.21.784,2.19-4.395,3.722-10.701,4.009-15.543.124-2.099-1.33-9.096-1.003-9.44.958-1.007,23.396,3.656,27.511,3.977,4.636.363,15.003,1.396,19.021,1.125,3.97-.268,5.919-3.205,10.46-1.096-5.204,4.977-12.339,12.386-18.067,16.42-2.777,1.956-10.937,3.56-9.859,6.983,1.652,5.246,18.379,3.067,22.761,3.756.249,4.262,9.181,14.046,13.476,12.815.682-.196,5.184-5.292,5.496-6.725.781-3.597-2.174-9.893-1.8-10.255.677-.655,10.097,2.305,11.888,2.61,6.367,1.087-3.1-5.686-5.375-6.635-4.574-1.908-8.732-1.964-13.513-2.476,3.429-2.422,5.019-7.703,9.556-8.435,5.103-.824,26.144,5.22,17.36-4.493-3.222-3.563-10.108-4.962-13.917-7.566,14.209-1.522,26.381-8.929,38.348-15.901,1.602,3.546,12.161,8.361,13.123,9.912,1.033,1.666.945,6.131,2.13,8.87,1.691,3.908,6.824,6.795,7.862,9.138,1.313,2.964,1.19,10.07,4.837,12.66Z"/>
  <path class="cls-2" d="M456.996,497.008c-18.678,35.719-40.384,68.988-71.529,94.96-22.949,19.138-49.84,33.599-70.968,54.985l-40.061-36.966c-1.055-2.507,8.843-10.374,11.072-12.975,26.863-31.337,41.266-76.913,70.964-103.036,5.131-4.514,12.601-8.285,17.031-12.969,3.403-3.599,11.459-20.385,12.517-20.997,1.388-.803,23.113,15.651,26.672,17.797,13.438,8.104,28.864,16.046,44.302,19.202Z"/>
  <path class="cls-3" d="M88,675c2.005-1.974,17.209,8.595,19.424,11.076,10.856,12.162,2.361,27.063,21.906,37.094,2.881,1.479,17.503,5.397,17.643,6.323.701,4.642-19.013,6.835-23.494,8.485-7.169,2.641-14.552,7.164-15.414,15.641-.905,8.9,8.172,16.566-7.296,9.112-10.117-4.875-19.493-21.989-21.284-22.722-2.002-.818-1.558,1.486-1.503,2.496.251,4.64,5.724,12.493,9.01,16.009.773,2.83-5.446-.669-6.033-.973-11.201-5.817-15.536-15.616-20.841-26.177-.591-1.177-2.265-8.162-3.12-2.883-.555,3.424.413,7.933-.009,11.518-10.706-9.168-16.483-25.701-17.965-39.523-.546-5.092.518-10.741-.14-15.86-.781-6.078-4.721-11.907-5.644-18.436-2.301-16.268,5.089-22.729,9.056-36.385,2.88-9.917,3.219-19.183,7.526-29.474,7.281-17.397,38.855-61.36,58.817-62.255,27.154-1.218,28.207,28.41,14.362,44.934v-15.5c0-.886-2.579-7.498-3.5-7.478-2.827.062-2.069,21.961-2.593,25.385-.704,4.597-3.832,8.165-4.921,12.584-2.145-2.327.245-6.923.023-10.437-.115-1.832-2.713-20.56-6.536-14.587-1.608,2.512.73,9.028.593,12.53-.429,10.955-8.388,29.364-14.656,38.41-9.482,13.684-1.718-2.814-.146-8.146.484-1.64,7.253-24.158-.296-19.301l-22.957,51.048c2.203,1.488,4.539-4.358,5.976-3.509.376.222,3.108,6.918,3.501,8.011,4.684,13.028,4.059,27.868,7.853,40.195.548,1.779.029,3.335,2.66,2.792.533-2.795-.712-19.298,0-20Z"/>
  <path class="cls-3" d="M512,46h18.5c3.283,0,11.766,2.526,15.273,3.727,31.359,10.743,45.088,46.393,50.713,76.287-27.591-10.091-57.262-9.572-85.97-13.031-35.221-4.243-71.235-14.982-106.511-2.989,4.562-13.227,8.268-30.902,18.447-41.042,13.773-13.719,57.199-25.206,76.095-23.001,15.244,1.779,24.063,29.886,26.15,42.845.502,3.119.505,24.13,4.786,23.196,2.316-.505,1.608-11.04,1.5-13.477-.827-18.752-5.794-38.668-18.984-52.517Z"/>
  <path class="cls-2" d="M615.779,210.212c1.628,3.092-.458,26.784-1.058,32.009-4.873,42.4-23.189,79.625-49.22,112.759-2.265-1.138-16.599-17.989-15.499-18.971,2.008-1.791,21.496,6.872,17.468-1.98-2.597-5.708-19.141-9.639-19.361-11.511-.231-1.971,14.976-30.7,17.083-35.827,7.291-17.743,16.359-39.023,6.81-57.677,11.634-2.232,17.576-10.876,23.162-20.35,1.262-2.141,2.533-7.405,2.847-7.666.77-.639,17.301,8.329,17.768,9.214Z"/>
  <path class="cls-2" d="M364.449,735.598c.232.321,3.233,1.618.323,3.193-2.392,1.295-20.158,3.886-25.19,5.29-29.985,8.371-62.67,22.717-87.491,41.509-2.865,2.169-14.79,13.987-15.821,14.256-2.235.583-42.032-13.912-43.267-15.864-.257-.406,3.003-7.155,3.541-8.938,1.588-5.27-2.178-7.651,6.673-4.95,7.625,2.327,17.091,4.244,26.151,3.764l64.627-17.87c-.839-1.637-7.213-1.303-8.557-1.066-1.79.317-1.353,1.846-2.177,2.016-6.337,1.308-12.903,2.472-19.255,3.567,24.652-14.137,46.508-34.319,58.495-60.484l41.949,35.577Z"/>
  <path class="cls-3" d="M909.94,381.057l11.058,25.929c-31.874,4.576-60.237,16.735-86.31,35.202-4.124,2.921-30.881,26.87-32.668,25.804-1.12-.668-12.789-21.378-12.854-22.68-.216-4.318,31.177-26.058,36.305-29.342,25.481-16.319,54.483-29.675,84.469-34.914Z"/>
  <path class="cls-3" d="M517.994,121.006c1.102.96-1.049,2.288-1.671,2.818-14.38,12.239-42.988,24.189-61.842,25.159-30.006,1.543-57.188-14.614-86.845-11.846-9.384.876-18.251,4.959-27.631,5.852,4.634-2.662,9.754-4.765,14.748-6.735,17.511-6.908,41.144-16.567,59.031-20.969,34.042-8.379,63.509.56,96.851,5.579,1.678.253,7.081-.099,7.359.143Z"/>
  <path class="cls-4" d="M765.005,833.007c.663.675-.653,3.36-1.154,4.346-4.902,9.651-15.628,20.98-21.655,31.344-8.812,15.155-16.506,33.4-21.912,50.088-1.227,3.788-6.301,26.223-7.298,27.219-.857.857-22.101-7.177-22.817-8.155-4.315-5.889,17.761-63.627,22.457-72.722,3.297-6.386,23.872-39.747,29.087-40.988,3.133-.746,10.39,5.061,13.273,6.374,2.436,1.11,9.656,2.125,10.018,2.494Z"/>
  <path class="cls-2" d="M910.999,783.989c-7.821-1.61-15.74-3.643-23.644-4.844-29.69-4.511-45.69-3.644-73.632-16.421-17.097-7.818-33.585-14.694-52.407-17.541l-75.31-35.173c24.797,3.436,48.045,17.79,71.567,23.916,14.524,3.782,30.661,4.297,45.626,7.374,37.184,7.646,74.956,24.004,107.8,42.689Z"/>
  <path class="cls-4" d="M966.006,788.994c-.846-.82,7.648-18.641,8.516-21.973,1.69-6.484,2.811-13.306,2.472-20.016-2.778-.588-1.704.829-2.422,2.024-4.319,7.192-7.176,16.874-14.561,21.97,3.734-15.239,7.358-29.697,1.46-44.971-1.438-3.725-7.34-10.345-7.477-11.554-.166-1.471,5.575-18.26,6.529-18.481,4.173-.966,15.629,15.695,17.644,19.339,10.52,19.02,15.038,44.915,1.243,63.579-1.472,1.991-11.126,12.291-13.405,10.083Z"/>
  <path class="cls-4" d="M801.995,797.006l-29.694,29.823c-2.322.535-26.103-8.911-26.266-10.318-.305-2.629,24.066-24.039,27.943-25.075,6.962-1.862,20.155,6.173,28.018,5.571Z"/>
  <path class="cls-4" d="M948.983,730.005c4.275,10.53,5.125,22.09,2.777,33.255-.456,2.168-7.009,19.931-7.899,20.581-2.413,1.76-15.808-4.794-18.889-6.412l24.011-47.423Z"/>
  <path class="cls-3" d="M562.001,362.024c.144.281-1.766,5.779-2.011,5.978-2.031,1.649-29.33-14.178-34.51-14.078-2.637.051-14.951,8.779-15.469,8.076,1.43-3.719-1.655-14.137-1.097-16.415.231-.942,2.525-.619,3.589-1.542,1.858-1.613,11.685-11.032,12.809-10.906l36.69,28.887Z"/>
  <path class="cls-4" d="M664.997,608.015c2.194,3.309-6.234,3.017-7.471,2.961-4.713-.214-33.498-4.732-36.806-6.196-6.451-2.855,11.325-10.669,13.605-12.636,3.121,4.306,29.707,14.417,30.672,15.872Z"/>
  <path class="cls-3" d="M938.986,500.992l-11.975-56.991c11.907,18.193,25.191,35.135,11.975,56.991Z"/>
  <path class="cls-4" d="M824.997,782.986c-.392.652-12.704,7.048-13.464,7.072-4.873.156-14.819-5.266-20.532-5.071,2.287-2.347,12.473-6.889,15.508-7.046,1.834-.095,19.592,3.21,18.488,5.045Z"/>
  <path class="cls-3" d="M153.994,561.995c-.525.545-14.39-1.548-14.993-2.005-.146-.11,1.113-2.256,1.018-3.45-.539-6.744-5.748-12.292,3.641-7.699,2.877,1.407,12.939,10.451,10.334,13.154Z"/>
  <path class="cls-2" d="M532.918,680.114c.318.559-4.388,11.551-4.937,11.887-.327.2-5.965-2.876-6.523-4.014-.886-1.806,1.974-12.6,2.556-12.986.827-.548,8.649,4.667,8.903,5.113Z"/>
  <path class="cls-2" d="M409,208.5c-.93-6.342-5.888-11.974-10-16.489,15.58-1.476,5.498,3.395,7.007,4.985,6.567-2.116,2.394-.59,3.176,4.233.548,3.38,3.578,5.277,3.81,7.278.23,1.981-2.111,13.788-3.994,15.493-.498-4.847.685-10.829,0-15.5Z"/>
  <path class="cls-3" d="M549,170.011c.844.625-4.158,6.74-8.365,3.901-8.283-5.591,7.749-4.356,8.365-3.901Z"/>
  <path class="cls-1" d="M678.995,862.006c2.517,2.406-23.27,26.169-25.983,28.505-27.904,24.022-65.144,41.538-101.77,47.23-2.351.365-18.264,3.032-12.643-1.832,40.982-13.587,81.369-32.274,116.714-57.097,2.815-1.977,22.118-18.302,23.683-16.806Z"/>
  <path class="cls-1" d="M646.365,374.365c40.818-40.855,104.904,37.865,61.108,71.608-40.981,31.575-98.695-33.987-61.108-71.608Z"/>
  <path class="cls-1" d="M800.994,314.006c2.042,29.044-4.588,63.174-25.983,83.994l25.983-83.994Z"/>
  <path class="cls-1" d="M829.006,571.995c-1.241-1.168,1.619-2.685,2.266-3.222,5.184-4.307,17.015-9.147,23.64-13.36,17.611-11.199,35.551-24.443,46.257-42.743,1.587-2.713,5.219-13.265,5.844-13.667,3.285-2.114,1.554,11.822.721,14.231-6.538,18.905-33.821,38.982-51.067,47.933-3.069,1.593-26.58,11.845-27.661,10.827Z"/>
  <path class="cls-1" d="M771.513,630.025c-7.229,7.409-18.53,15.157-27.844,20.145-1.378.738-15.543,8.999-15.646,4.331-.055-2.495,38.338-21.99,43.491-24.476Z"/>
  <path class="cls-1" d="M662.991,630.015c.007,1.959-4.093.904-5.228.722-9.151-1.468-17.064-5.878-27.314-6.751-2.176-.185-9.248,2.172-8.443-1.469,1.396-6.314,36.345,5.526,40.985,7.498Z"/>
  <path class="cls-1" d="M666.999,644.989c-4.303-.65-8.491-3.021-12.744-3.745-2.598-.442-14.088.62-14.233-1.744-.36-5.885,25.256-.138,26.977,5.489Z"/>
  <path class="cls-1" d="M151.177,756.809c4.462,3.165,17.218-4.823,17.796-.316.124.963-7.128,8.623-8.471,9.509-9.671,6.387-28.382.859-21.503-12.992-10.591,3.73-17.468,7.632-6.47,16.96,7.977,6.765,14.237,7.876,24.151,5.211,3.17-.852,7.183-4.379,2.325,1.324-14.632,17.177-59.504-17.634-23.211-27.212,19.329-5.101,12.811,5.691,15.383,7.516Z"/>
  <path class="cls-1" d="M222.882,596.123c2.922,5.45-4.912,12.64-4.86,13.379.186,2.66,18.541-.368,24.507,6.47,5.243,6.009,8.996,30.315.561,24.932-3.857-2.462,1.435-21.22-14.591-22.898-4.786-.501-11.705.362-16.872-.337-2.028-.274-18.119-3.535-19.001-3.939-2.92-1.336-6.768-8.198-4.62-10.723.823-.967,10.875,11.146,22.498,2.998,2.188-1.534,9.871-14.559,12.378-9.881Z"/>
  <path class="cls-1" d="M142,675c-1.465,1.682-3.861-3.615-4.181-4.319-6.25-13.739.65-31.74,9.353-43.01,8.7-11.264,24.739-19.235,12.249,2.249-4.905,8.436-17.421,19.99-17.421,30.579,0,2.191.476,13.953,0,14.5Z"/>
  <path class="cls-1" d="M246.005,690.994c-1.913-1.795,6.611-24.315,8.577-27.911,3.174-5.804,13.784-23.253,21.397-19.558,5.086,2.469-3.837,7.445-6.491,10.464-6.819,7.758-11.662,14.58-15.968,24.032-.902,1.98-3.957,16.312-7.515,12.973Z"/>
  <path class="cls-1" d="M183.059,644.047c1.551-.966,3.747.397,3.964,2.44.762,7.156-9.338,20.876-14.996,25.041-1.779,1.31-8.166,5.483-7.904,1.129.067-1.106,11.569-14.619,13.507-17.526,1.523-2.284,4.904-10.758,5.428-11.084Z"/>
  <path class="cls-1" d="M266.005,681.994c-1.083-1.009,11.217-20.481,13.149-22.339,4.053-3.897,10.365-5.522,6.276,1.278-.814,1.353-14.487,18.752-15.418,19.58-.964.857-3.007,2.413-4.008,1.481Z"/>
  <path class="cls-1" d="M228,658.011c-7.656,8.579-21.075-3.409-15.986-13.002,3.745,5.699,7.62,13.982,15.986,13.002Z"/>
  <path class="cls-1" d="M234.994,636.006c.574.542-3.772,13.568-4.325,15.188-.339.993-.368,3.678-2.152,2.795-4.719-2.333,1.352-22.827,6.478-17.983Z"/>
  <path class="cls-1" d="M455.826,255.264c17.617-1.014,36.917,8.84,39.74,27.688,2.323,15.505-19.675,32.159-33.514,23.496-8.378-5.245-10.52-22.279-16.589-29.411-2.435-2.862-6.397-3.026-8.235-6.795-4.064-8.334,11.983-14.598,18.598-14.978Z"/>
  <path class="cls-1" d="M589.994,174.994l-10.66-12.882c-3.898-3.706-10.056,5.098-8.85,7.937,1.156,2.721,9.654,4.207,11.267,13.689,3.017,17.732-18.285,26.405-17.771,14.851.212-4.759,5.989-5.028,4.563-13.641-1.072-6.475-3.953-5.546-9.539-6.444,3.493-3.9,3.552-9.708,5.819-14.181,9.307-18.356,28.744-7.598,25.169,10.669Z"/>
  <path class="cls-1" d="M458.006,312.006c3.395.243,3.037,4.365,6.945,5.544,6.462,1.95,15.014-.294,20.913-3.186,4.974-2.439,16.602-14.81,9.341-1.659-6.745,12.216-36.526,17.075-37.199-.699Z"/>
  <path class="cls-1" d="M456.98,238.992c-3.116,1.807-4.682-9.653-7.448-12.024-2.929-2.51-6.651-1.753-8.926-2.965-3.026-1.612,5.271-7.531,12.437-1.545,3.317,2.771,8.674,13.788,3.938,16.534Z"/>
  <path class="cls-1" d="M514.989,293l-15.978-33.999c7.958,9.563,15.043,21.267,15.978,33.999Z"/>
  <path class="cls-1" d="M470,204c4.426,2.557-14.353,4.947-15,0,2.773.627,13.528-.85,15,0Z"/>
  <path class="cls-1" d="M406.994,528.994l-19.988-42.989c13.787,8.305,20.677,27.486,19.988,42.989Z"/>
  <path class="cls-1" d="M418.995,516.994c-1.965,1.735-10.153-6.96-8.989-7.988,1.965-1.735,10.153,6.96,8.989,7.988Z"/>
  <path class="cls-1" d="M385.994,484.006c.076.069.381,2.11-.489,1.989-2.662-1.509-.783-3.134.489-1.989Z"/>
  <path class="cls-1" d="M410,507.989c-2.087.29-2.278.099-1.988-1.988l1.988,1.988Z"/>
  <path class="cls-1" d="M71.012,695.995c-2.481-1.633.418-30.581.984-35.515.105-.919-.473-3.489,1.488-2.469,6.472,3.365,4.737,42.729-2.472,37.984Z"/>
  <path class="cls-1" d="M100.995,702.996c-.583,5.056,8.357,31.56,5.999,34-1.058,1.096-2.928-.544-3.86-1.63-3.056-3.561-4.926-25.906-4.137-30.884.277-1.749-.428-1.646,1.998-1.486Z"/>
  <path class="cls-1" d="M582.996,308.992c-2.708.67-2.608-2.473-3.254-4.216-3.211-8.662-5.928-19.783-7.731-28.775,6.396,9.215,9.171,21.853,10.985,32.992Z"/>
  <path class="cls-5" d="M671.825,370.266c41.206-2.217,62.508,69.581,18.429,76.49-52.102,8.167-68.229-73.811-18.429-76.49Z"/>
  <path class="cls-5" d="M469.991,264.014l-20.984,6.593c-12.512-.517.829-7.692,6.767-8.358,4.919-.551,9.513.773,14.217,1.765Z"/>
  <path class="cls-5" d="M468,302.989c.624-2.749,16.349-9.72,16.989-8.988,2.481,2.837-13.659,11.134-16.989,8.988Z"/>
  <path class="cls-3" d="M678.5,439c-.19-.009-.778.953-1.521.567-2.35-1.222-5.233-17.949-5.988-18.574-.686-.566-13.921,4.319-17.518,1.034-1.789-1.634-5.585-17.926-4.468-19.02.576-.564,15.416-1.45,16-2.005,1.455-1.383-4.345-17.982-5.001-20.994,4.704,1.905,18.455-4.785,20.803-.312,1.214,2.313,2.616,15.706,3.243,16.247,1.431,1.236,15.04-2.592,17.805-.8.832.54,6.7,18.017,6.15,18.843-.544.817-16.449,3.378-16.929,4.105-1.137,1.725,4.399,17.686,4.923,20.909-5.805-.195-11.691.268-17.5,0Z"/>
</svg>