<?xml version="1.0" encoding="UTF-8"?>
<svg id="Layer_1" data-name="Layer 1" xmlns="http://www.w3.org/2000/svg" viewBox="0 0 1024.003 1024.004">
  <defs>
    <style>
      .cls-1 {
        fill: #fff;
      }

      .cls-2 {
        fill: none;
      }

      .cls-3 {
        fill: #934e1f;
      }

      .cls-4 {
        fill: #1271a1;
      }

      .cls-5 {
        fill: #083045;
      }

      .cls-6 {
        fill: #d92626;
      }

      .cls-7 {
        fill: #f0b375;
      }
    </style>
  </defs>
  <path class="cls-1" d="M358.017,1011.456c-4.093,2.331-2.05,7.802-12.745,4.764-36.049-20.537-74.784-36.117-111.294-55.698-13.408-7.191-41.527-20.927-45.297-36.704-1.258-5.265.306-9.106-.25-12.978-3.05-21.255-6.927-31.119,2.397-52.507,1.031-2.364,5.88-8.344,5.995-9.991.106-1.522-4.879-8.064-6.47-9.196-1.618-1.151-29.352-11.782-31.123-11.963-7.486-.766-19.119,1.592-27.765.851-9.331-.799-14.089-5.022-21.259-6.741-15.692-3.763-52.086-7.596-63.738-18.262-14.401-13.181,7.741-18.185,7.523-19.523-.123-.757-6.444-9.981-7.755-13.245-5.357-13.335-12.527-38.677-11.111-52.634.526-5.185,3.188-10.57,3.783-15.217,1.222-9.535.315-18.046,2.939-28.061,6.421-24.508,42.006-80.637,72.854-64.554,6.076,3.168,12.066,13.971,13.01,14.22,1.971.52,5.165-.355,7.665.11,9.734,1.808,30.408,4.533,38.427,7.569,6.144,2.326,10.627,10.065,14.446,11.554,6.92,2.697,15.011,1.832,23.632,6.368,10.445,5.496,46.233,32.068,55.583,40.417,8.792,7.85,10.86,14.197,9.273,26.205-.604,4.568-6.95,15.221-2.717,17.295,3.902,1.912,17.734-7.044,23.926-8.084,3.749-.63,14.809.243,16.641-2.419,1.345-1.953-10.699-40.328-12.323-45.796-18.391-61.937-79.277-187.488,37.216-184.216,30.532.858,60.536,9.268,90.517,13.971-5.063-8.181-3.831-20.993-6.543-28.946-1.384-4.059-22.914-31.406-27.477-38.523-6.173-9.63-11.653-19.663-17.477-29.5l-50.78,31.199c-4.528,2.384-9.417-.718-13.716.206-6.451,1.387-29.766,15.364-39.042,19.039-18.156,7.193-36.731,14.317-55.631,4.704-6.313-3.211-17.291-13.055-18.903-20.098-2.36-10.315,5.768-44.546,10.089-55.05,12.716-30.908,43.586-51.126,64.507-75.493,6.691-7.793,8.207-9.152,9.012-19.988,1.397-18.798.216-35.687,4.279-54.721,2.115-9.91,15.021-52.347,19.477-59.523,4.043-6.51,6.6-3.605,10.193-5.807,2.135-1.309,2.574-7.854,8.603-8.473,4.823-.495,7.517,3.456,9.892,3.605,2.14.135,3.084-2.115,7.047-.718,5.253,1.851,6.237,10.139,8.533,4.661,4.311-10.289,1.849-11.958.03-21.15-.478-2.416.537-8.018-.239-9.261-.518-.83-16.036-2.297-19.297-3.206-28.451-7.934-39.377-40.795-2.088-43.976,8.208-.7,30.134,1.836,35.859-.141,1.246-.43,12.156-17.102,16.206-20.794,35.118-32.008,113.592-13.209,130.947,30.988,6.454,16.437,7.443,44,3.055,61.013-1.982,7.683-6.037,7.932-6.903,10.246-.879,2.349-.373,13.033-2.128,18.722-1.029,3.336-7.957,14.279-7.5,14.981.367.564,8.935,4.734,11.461,7.053,2.448,2.247,7.258,9.663,9.069,10.009,3.33.635,14.491-1.94,18.93-2.084,31.937-1.035,67.186.049,95.527,16.038l.011-242h.003H0s0,1024.001,0,1024.001h389.999v-.003h-.002c-4.348-2.65-29.071-14.203-31.981-12.545h.001Z"/>
  <path class="cls-1" d="M386.99,214.023h0c-3.98-5.085-22.443-.06-18.984,2.973.697.61,17.109-.606,18.492-.988.87-.24.682-1.744.493-1.985h-.001Z"/>
  <path class="cls-1" d="M419.515,704.986c1.563,2.087,41.839,13.146,49.448,16.552,8.064,3.61,9.484,6.113,15.305,9.695,1.223.753,16.112,6.408,16.726,5.766l20.011-79.992h0c-40.632-4.226-79.872-15.286-117.005-31.995,4.987,15.695,4.362,33.347,7.254,49.235.637,3.499,7.307,29.465,8.261,30.739h0Z"/>
  <path class="cls-1" d="M594,829.002c-1.604-1.016-6.721-3.709-7-4,2.113,2.477,2.305,3.485,7,4Z"/>
  <path class="cls-1" d="M644.013,325c18.164-14.533,39.925-23.641,61.473-32.015,8.63-3.353,33.16-9.405,38.758-12.985.464-.297,6.092-8.534,6.295-9.046,1-2.525-1.699-11.471-1.478-15.302.34-5.911,6.163-15.067,5.902-19.088-.514-7.927-16.489-25.598-15.924-34.995.404-6.703,11.381-13.473,11.98-17.132.451-2.754-1.262-5.386-1.089-7.93.201-2.965,2.333-8.861,1.892-10.804-1.404-6.178-5.162-10.512-5.858-20.165-4.951-68.623,36.105-105.333,103.52-101.52,29.079,1.645,45.528,10.216,59.061,35.939,1.971,3.748,6.69,17.999,8.701,19.792,1.454,1.297,31.132,6.967,37.735,9.772,32.314,13.73,7.037,30.996-18.467,28.467-2.41-.239-11.09-3.402-11.509-2.98-.521.524,2.936,11.26,3.031,14.462.244,8.205-3.75,14.657-3.836,21.019-.083,6.118,4.237,16.075,4.777,23.036,2.036,26.236-11.057,60.84-13.481,87.474-.847,2.017-2.747,4.263-4.547,5.453-1.711,1.132-10.833,3.166-9.942,5.038,1.209,2.541,44.594,18.419,51.66,22.345,29.868,16.595,38.738,47.928,48.352,78.648,5.796,18.518,17.062,54.082,18.745,72.299.819,8.874-5.933,13.127-10.764,19.209l14.999.011h0V.002h-379.998l.011,324.998h0ZM942.142,241.86c-3.632-6.462,2.417-8.701,5.052-13.164,4.135-7.005,5.06-14.311,2.859-22.245-1.583-5.706-11.902-13.951-7.792-18.196,6.188-6.392,16.129,15.743,16.723,21.266,1.188,11.057-3.809,31.531-16.842,32.34h0ZM972.629,248.131c-2.297,3.512-17.07,21.747-21.196,15.934-3.394-4.78,9.982-14.164,12.977-18.153,15.705-20.913,13.43-49.394-4.923-67.899-3.65-3.68-14.336-9.106-15.937-11.084-1.578-1.95-1.516-5.981,1.134-6.824h0c5.605-1.782,21.143,12.515,24.728,16.983,16.918,21.081,17.966,48.497,3.216,71.043h0Z"/>
  <path class="cls-1" d="M675.464,512.039c7.39,18.5,15.245,40.404,16.575,60.425,2.013,30.285-6.561,59.816-20.038,86.527l12.991-12.497c34.035-33.236,69.419,4.667,68.069,42.035-.162,4.463-3.055,9.084-2.995,10.975.045,1.403,5.678,13.045,6.64,16.293,5.127,17.309,8.008,36.756,3.007,54.417-.587,2.073-5.177,10.417-4.712,10.777,1.131.877,15.981,2.773,6.358,10.87-6.699,5.636-29.905,12.518-38.824,13.176-11.63.857-40.851-2.223-45.086-15.981-1.317-4.278.977-11.625.547-12.047-.998-.979-21.944,11.746-25.007,12.493,10.304,4.02,20.121,9.083,30.031,13.98,3.264,1.613,9.172,6.369,11.736,7.264,11.596,4.05,38.472,5.114,52.447,7.553,34.166,5.964,67.533,12.998,101.01,21.99,28.734,7.717,50.314,16.323,80.274,19.726,13.803,1.568,23.121,9.399,34.985,14.015,19.858,7.727,40.657,13.263,60.527,20.972h.001v-402h-.002s-356.002.003-356.002.003c-1.494,1.551,6.237,15.952,7.468,19.034h0Z"/>
  <path class="cls-1" d="M756.5,199.021c-.667.003-3.304,3.236-3.508,4.519-1.799,11.331,11.192-4.556,3.508-4.519Z"/>
  <path class="cls-3" d="M66.956,765.029c.524.414,3.622,9.633,5.245,12.272,5.597,9.101,13.863,15.359,24.539,17.46,11.876,2.337,5.404-1.48,4.496-6.495-4.231-23.369,10.329-21.208,24.948-26.604,1.121-.414,5.315-2.086,3.816-3.646-6.911-3.505-13.269-6.42-16.884-13.632-2.127-4.243-2.629-9.741-5.275-13.723-2.459-3.699-15.102-13.053-18.834-9.654-2.285,2.082,12.33,21.985,5.495,21.973-2.627-.004-20.582-39.496-17.511-45.978-2.581.798-6.787,13.038-9.984,9.994-1.002-.954,8.311-23.225,9.511-25.977,7.161-16.429,13.434-26.093,26.267-38.743l-.742-1.573-11.787,3.063-3.247-.749h0c4.411-2.246,7.455-5.483,12.432-7.075,5.4-1.727,23.674-2.8,16.082-11.969-20.814-25.137-52.813,24.834-59.694,41.357-7.372,17.703-4.77,23.96-6.898,41.102-.362,2.92-2.477,6.225-2.913,10.087-1.441,12.763,4.591,37.314,9.505,49.459,1.48,3.657,7.072,12.759,9.963,15.041,1.309,1.034,2.377.644,2.514-.537.109-.94-8.021-20.973-1.044-15.453h0Z"/>
  <path class="cls-4" d="M378,917.002c-1.115-.928-1.596-1.37-3-2-6.194-2.779-10.114-2.503-16,1h0c-3.492,1.169-3.025,1.793-5,3h0c-.026.016-.049.033-.075.049-14.32,8.774-25.095,21.71-31.926,36.953h0c-2.298,5.128-3.103,8.127-3.999,12.998h0c-.001.006-.003.013-.004.019-.094.4-.164.793-.248,1.189-1.286,5.67-4.244,12.95.251,17.792h0c2.194,2.363,7.954,4.369,11,6h.002c5.237,2.804,10.732,5.223,15.987,7.999.703-8.391,1.229-15.998,4.01-23.997,0,0,0-.002.001-.003.63-1.812,2.977-5.794,3.999-7.999h.002c2.067-4.457,5.368-10.96,8-15h-.002c3.998-6.138,10.342-14.129,15-20.001h0c1.214-1.53,1.406-1.785,3-3h0c.637-.486,2.688-1.207,5-3h0l8.997-4.986-14.997-7.014h.002ZM336.99,983.999s.006.002.01.003h0s-.007-.002-.011-.003h.001,0ZM317.009,982.999c-.075-.098-.083-.35-.046-.718.023.244.044.489.072.731-.008-.006-.021-.005-.027-.013h.001ZM388.939,925.517c.016-.01.031-.021.047-.031.002.009.006.016.008.024-.02,0-.035.006-.055.007Z"/>
  <path class="cls-4" d="M597.994,805.007s.005-.004.007-.005c10.048-5.456,5.888-3.336-2.637-5.83-1.424-.417-1.084-2.065-2.836-2.262-3.051-.344-5.774,1.058-8.528,1.092-.665.008-1.337-.033-2,0h0c-1.698.085-2.105-.381-4.994,0h-.005c-7.722,1.02-23.038,3.945-30,6.999v.003c-.603.265-.704.726-.999.999h-.002s0,0,.002,0h0c-6.832,1.659-13.496,4.398-20,6.999l.003.002h-.004c-1.737.695-2.939,1.56-4,2h0v-.003c-3.579,1.483-7.399,2.461-11,4,0,0,0,0,.001.002h-.001c-3.029,1.294-8.19,4.315-12,6-.001,0-.003.002-.004.003l.004-.005c-2.553,1.129-5.419,1.835-8,3l.005.002h-.005c-3.123,1.409-6.267,3.748-8.999,5v-.002h0c-5.339,2.446-11.5,6.532-16.998,8h-.002c-.987.263-2.31.894-3,1,0,0-.001.002-.002.003l-.003-.004c-2.12.326-4.781-.223-7-.011,5.001-4.704,13.093-7.494,19.51-10.979,2.577-1.399,4.204-3.786,6.49-5.01.003-.003.006-.005.009-.008-.001.003-.002.005-.003.008h0c.411-.22,1.679-.316,3-1,.001-.002.002-.003.003-.005,4.396-2.272,10.315-3.428,13.989-6.994.002,0,.004-.002.006-.003.315.021.689.039,1,0h.002s-.001.002-.001.003c4.108-.51,14.749-6.842,19.734-8.766,10.633-4.104,21.42-7.741,32.266-11.234l-.008-.002h.007c1.932-.622,6.263-2.883,6.685-2.979,1.91-.437,4.297.203,6.309-.027.303-4.261-4.051-2.92-4.357-3.044-2.201-.891-4.058-1.312-5.637-1.95-.005-.002-.01-.002-.015-.004-1.817-.736-6.136-2.835-8.976-3.99-.003-.002-.006-.004-.009-.006-1.213-.493-2.527-1.413-4-2h-.006c-7.857-3.128-15.773-6.301-23.638-9.454-.277-.231-.72-.407-1.356-.547-1.747-.7-2.719-1.881-3-2h-.003c-5.19-2.2-10.716-3.969-15.986-5.994-.004-.002-.007-.004-.011-.006-1.181-2.142-4.205-2.151-6-3-.004,0-.008,0-.012,0-13.186-6.239-26.615-12.817-40.009-18.565-1.417-.607-2.379-1.491-3.972-.432-.003,0-.005-.002-.008-.003-1.039-1.799-2.463-2.109-4-3-.003,0-.005-.002-.008-.003-4.864-2.816-11.661-4.931-16.987-6.993-.002,0-.003-.002-.005-.003-3.253-1.26-5.314-2.478-9-3h0c-5.626-5.163-23.022-7.795-30.992-9.996h-.006s.003-.003.003-.003c-1.227-.339-3.331-.762-4-1h-.012c-1.1-.388-4.323-1.058-2.983-2.988,1.448-2.087,20.431,1.495,23.991.991h.002c3.347,1.748,6.533,1.95,10,3h.003c4.627,1.403,9.193,3.224,13.994,3.998,0,0,.002,0,.003,0,.696.305,1.654,1.428,3,2h0c4.252,1.805,33.063,13.501,34.936,13.571,1.606.06,7.143-4.71,8.06-6.558-16.089-6.664-34.33-14.681-52.997-17.014-4.07-1.919-5.809-2.934-11-4h.001s0,0,0,0c-7.699-1.581-15.153-2.224-22-3h-.003c-7.07-.801-11.855-.35-18.997,0l.007-.004c-11.539.566-9.57-.918-21,4v.01s-.004-.004-.007-.006h0c-3.059,1.317-3.252,2.049-5,3.001h0c-4.092,2.228-6.148,3.612-10,6h0c-2.561,1.588-5.366,2.599-7.998,3.999h-.002c-.867.461-2.6-1.122-1.997,1.985l16.995,4.014.002.002c10.907,4.228-1.945,15.135-8.629,16.964-2.372.649-4.636-.347-6.369,1.035h-.002c-.926-.165-6.771-1.271-6.993-.996-.378.468-1.029,10.429-1.007,11.996h0s-1.996,2.995-1.996,2.995c-8.235-2.626-6.291-22.682,1.563-24.007,3.973-.671,6.921,2.494,10.447,1.599,2.359-.599,5.061-4.37,7.982-4.606.157-1.882-2.761-.757-3.991-.985l-.041-.003c-1.395-.259-3.748-.692-4.964-.993-4.04-1.002-6.75-2.215-11-3v-.002c-6.295-1.163-7.522-1.238-13.995,0h0c-2.193.419-19.198,5.455-18.995,6.495,13.875,10.247,20.108,13.442,27.219,29.781.705,1.619.567,4.368.786,4.729.05.085,1.531-1.022,1.8-.793.93.791.484,2.312,3.15,3.33,5.603,2.139,14.072,3.034,20.038,4.459l.011.004h-.012c.07.017.152.049.226.072l.461.154c.619.236,1.362.564,2.313.774l.002-.003c3.235.716,14.137,4.329,16.299,3.832,2.442-.561,7.364-6.934,5.572-9.709-.88-1.363-27.753-5.187-31.872-6.123v.006s-.001-.002-.002-.003c-.719-.163-.739-3.278-2.998-1.002h0c.16-1.761.424-2.909,2.492-3.02,5.979,1.83,33.342,3.087,39.126,7.135.322.754.791,1.609,1.399,2.56.183,1.411-.06,2.993-.016,4.32,0,.003-.002.005-.003.007-.406.265-.662.675-1,1h0c-3.121,3.001-5.961,9.273-10.997,10.999-1.65.002-3.359.113-5,0-.001,0-.002.003-.003.004,0,0,0-.002.001-.003-.331-.023-.672.037-1,0h-.001c-5.395-.618-9.688-2.635-15-4h-.001c-2.344-.602-6.887-2.561-7.999-1-.261-1.77-4.108-1.977-6-2h0c-13.808-4.728-27.451-7.907-42-6.001h0c-2.762.362-7.685,1.956-11,3h0c-2.634.83-6.644,1.95-9,3h0c-4.258,1.897-5.251,2.308-9,5h0c-6.297,1.78-10.863,6.385-16,10h0c-.914.643-1.817,1.138-3,2h0c-2.334,1.7-4.712,3.19-7,5h0c-3.436,2.717-20.417,16.636-21.519,19.015-1.86,4.015,3.147,4.637,5.519,5.985.133.12.258.228.383.336.686.757,1.432,2.284,3.351,2.532,2.273.294,2.811-1.179,4.267-1.868h0c.361-.172.656-.829.998-.999h.001c14.659-7.273,21.64-10.448,38.557-11.732,3.724-.283,7.875,2.565,10.443-1.268h-.002.002c1.87-2.791,1.364-5.988,2-9,1.047-4.956,1.293-10.162,3-15,2.499-4.503,4.726-9.865,9-13,.003-.002.005-.004.008-.007,4.493-3.292,4.72-1.475,3.774,4.196-.978,5.862-4.527,10.695-6.067,16.025-1.378,4.771-4.117,23.522-7.413,24.587-1.941.628-5.096.166-7.301.199.508-.02.982.1,1.422.296-.456-.086-.929-.185-1.423-.296v.002c-1.857.027-4.724-.702-5.997.996-9.303-.214-23.32,3.299-31.356,7.94-.975.563-.203,2.428-1.3,3.093-3.29,1.995-8.152,3.582-11.767,7.042-6.955,6.657-12.136,16.648-14.576,25.925.008-.006.026.01.05.037-.017-.014-.038-.013-.053-.035-1.293,1.065-.711.569-.998,1.999h.001-.003c-.063.313.028.673,0,1h.002c-.029.329.011.667,0,.999,0,.008-.002.016-.003.024v-.023c-2.755,4.599-1.931,13.791-1,19h.002c.699,3.913,2.719,6.783,4,9.999.002.003.004.005.006.008,5.788,14.525,13.331,24.688,26.983,32.982l.009.011c1.114.676,2.278.631,3,1h0l-.002.003c-.006,2.129,1.242,2.726,2.654,3.843,14.736,11.655,36.254,21.069,53.346,29.157.012.005.022.007.034.011,3.33,1.577,6.573,3.449,9.966,4.983v.005c1.477.668,12.575,6.583,12.989,6,.71-.999,2.283-21.168,3.23-24.307.005-1.429,1.201-1.934,1.778-2.69.002-.002.005-.003.007-.004,1.081-1.424.359.061,2-3v-.003c8.261-15.403,22.612-35.25,38.736-43.036,2.007-.969,7.476,1.133,2.599-2.797-4.675-3.768-13.869-7.529-19.336-10.165l-.002-.003h-.001c-7.616-3.671-15.945-7.295-23.997-9.997h0c-3.556-1.193-7.261-2.454-11-3h0c-.28-.147-.557-.794-1-1h0c-2.582-1.201-16.892-4.671-20-5h0v-.003h-.003c-.44-.665-2.096-.843-2.01-1.496.115-.876,1.692-.545,2.013-1.501l33.994,4.989c-7.187-5.903-16.195-9.294-24.994-11.989h0c-.737-1.578-.921-.661-2-1h0c-10.667-3.346-21.828-5.337-32.996-5.999h-.004.001c-.332-.021-.667.015-1,0h-.001c-8.546-.405-14.616.469-21.671,2.006-2.244.489-9.355-2.032-12.328-1.017.019-.76.445-1.163.972-1.403.406-.093.848-.214,1.321-.36.324-.062.588-.12.705-.225h.001v-.002c.371-.335.656-.641.997-.998.002,0,.003,0,.005-.002,0,0-.001.002-.002.003,14.152-4.14,29.224-5.099,43.982-4.001.006,0,.01.002.016.003,4.605.343,9.899,1.969,14,3h.009c4.205,1.057,10.014,2.529,13.98,3.994.003.002.007.004.01.006,6.787,2.509,12.535,7.704,20,8,0,0,.001,0,.002,0,1.784,2.702,8.569,8.101,11.496,10.002.895.581,2.203,2.391,2.493.01-5.17-4.859-9.722-10.204-14.99-15.013h-.002c-6.725-6.136-14.137-9.853-19.999-14.998h0s.001,0,.002-.002h0c-5.645-4.954,2.651-2.177,5.998-1.001,0,0,.001,0,.002.002,1.664.585,5.348,2.195,7,3h.004c1.424.694,3.556,2.085,4.994,2.997,0,0,.001.002.002.003,1.325.84,3.275,1.487,4,2,.002,0,.004.002.005.003-.001,0-.003.002-.004.003,2.073,1.466,5.963,5.597,9,8,.001,0,.003,0,.004-.002.546.435.992,1.269,1.996,1.996,0,0,.001,0,.002,0,0,.002-.001.003-.002.005,3.832,4.307,6.759,9.271,10,14,.001,0,.002-.003.004-.004,1.427,2.085,2.403,5.852,4.036,7.461,1.962,1.933,14.314,6.817,17.961,8.535.002,0,.004,0,.007.002h-.008c6.854,3.228,14.174,5.756,21,8.999-.001-.002-.002-.004-.004-.006l.005.005c.769.365,1.923.482,3,1h0c1.922.925,4.086,2.022,6,3.001v-.002h0c.345.177.632.803.998.998-.001,0-.003.002-.004.003,4.35,2.302,12.043,4.617,14.24,9.26.925,1.955.303,4.735,1.729,6.271.41.443,9.832,4.786,10.973,5.027,8.583,1.815,26.806-.34,36.058-1.558.002,0,.003,0,.005-.002v.002h0c5.311-.698,12.424-2.867,18-3.999,0,0-.001,0-.002-.002,4.026-.819,23.224-6.139,24.477-6,.284.032.509.082.707.141.159.092.335.171.523.242.064.05.12.103.158.161-.172.435-.278.836-.339,1.213-1.845,2.249-9.082,5.835-10.35,6.208l-.161.033s-.015.003-.019.002h.011-.007c-.33.028-.675-.045-.999,0h0c-1.817.264-2.312-.815-2,1.999h-.001c-.331.026-.671-.036-.999,0h0c-5.551.623-17.24,4.463-22.292,7.001-.868.436-.649,1.939-.749,1.973-.565.195-2.636-1.891-4.497-1.931-6.319-.135-14.492,3.449-21.46,1.968,5.901,4.914,13.822,7.93,20.947,10.966.018.008.032.015.051.023h.003c4.276,1.823,7.791,4.192,12.825,5.674,8.801,2.592,19.046,4.083,28.17,5.325h.003c2.351.786,22.024,6.031,22.994,4.997.31-.33.526-8.025-.994-8.996.069-2.64-.215-5.38,0-8h0c.572-6.982,1.805-14.091,3-21h0c2.467-14.264,6.697-26.357,11-39.999h0v-.002c.096-.303-.096-.697,0-1,2.394-2.865,4.113-7.421,5-11,.077-.311-.06-.678,0-1,4.286-3.933,5.439-10.346,8-15,1.147-2.084,3.617-5.927,5-8l2.98-2.506-.98-.494c3.314-4.572,11.143-14.062,15-18,9.22-9.413,21.137-17.23,30.994-25.995h-.006ZM302,836.002h0ZM348.001,813.002h.001-.002.001ZM359.003,811.006s.003.003.004.005c-.001,0-.002,0-.004,0v-.004ZM359.01,816.004s-.006,0-.01-.002h-.002.003s.007,0,.01.002h0ZM374.001,784.996l.002.005v.006s-.002-.003-.003-.004v-.007h0s0,0,0,0ZM465.999,851.003v.003s-.001,0-.002,0h.001s.001-.002.001-.002ZM361,810.002s0-.002.001-.004c0,0,.001,0,.002.002h-.003v.002ZM348,813.002h0ZM323.006,850.014c-.033.042-.052.08-.083.122-.004-.002-.006-.004-.01-.006l.093-.115h0ZM424.962,901.126c-.074.793-.601,1.277-1.912.91.635-.316,1.273-.615,1.912-.91ZM555.001,812.002s0,.004,0,.006c0-.002-.002-.004-.002-.006v-.004h0s0,.003,0,.004h0ZM555.001,817.001h0,0ZM519.999,804.002h0v-.002h.005s-.002.002-.003.002v.002-.002h-.002ZM520.998,804h0v.002h0l-.002-.002h.001ZM415,911.002h0v-.002c-.282.102-.679-.09-1,0-.002,0-.005.002-.007.002h0v-.003c-.679-.286-1.308-.737-1.994-.997-2.366-2.042,1.333-2.788,4-4h0s.002,0,.004-.002l-.003.002c3.622-1.647,7.382-3.401,10.998-4.999h0c2.62-1.158,6-2.077,8-3h0c13.828-6.379,26.065-12.991,38.997-20.998h.003c2.201-1.363,5.057-4.115,8-6h0s.002,0,.003-.002h0c10.253-6.567,20.618-12.861,30.528-19.972,4.505.677-2.333,6.355-3.521,7.486-14.306,13.622-42.247,32.881-60.011,41.489h0c-1.262.611-1.856,1.935-2,2h-.003c-8.483,3.811-22.501,5.555-31.998,8.999l.004-.003ZM585.993,814.004c-.301.522-.577.608-.846.467.299-.218.598-.436.898-.655-.016.064-.026.142-.052.187h0ZM510.562,811.974c.316-.197.62-.404.932-.604-.199.405-.495.649-.932.604ZM524.011,777.914c-.804-.237-1.59-.457-2.351-.657.23-.046.459-.072.685-.05.615.06,1.158.344,1.666.706h0ZM486.855,762.343c-.022-.007-.042-.014-.064-.021.066-.103.128-.196.198-.314l-.133.335h-.001ZM435.987,739.02c.002.005.002.01.004.015-.008.021-.019.039-.028.06-.025-.009-.049-.018-.074-.026.034-.017.063-.032.097-.049h.001ZM426.183,724.607c.247.12.495.233.742.359-.24-.107-.487-.227-.742-.359ZM338.555,719.657c-.718.449-1.508.901-2.372,1.356.44-.913,1.361-1.235,2.372-1.356ZM256.003,828.001h-.001s-.002,0-.002,0h.003ZM197.838,871.284c.042-.112.103-.215.166-.318-.057.115-.111.218-.166.318ZM307,906.002h0ZM294.001,956.004h-.004s.002,0,.003-.002h.002v.003h-.001ZM323,908.002h0ZM314.793,949.567c.113-.042.219-.077.347-.134l-.343.173c-.001-.013-.002-.026-.003-.039h-.001ZM302,884.002s.004.002.005.003c-.002,0-.004-.002-.005-.003h0ZM289.998,874.876c.025.008.048.017.073.025-.019.034-.038.057-.057.092-.005-.042-.011-.077-.016-.118h0ZM290.001,868.003h-.001s0-.001,0-.001h.001ZM245.458,862.06c-.141.05-.283.096-.421.154-.013-.068-.034-.132-.036-.203.15.014.303.032.456.05h.001Z"/>
  <path class="cls-5" d="M1023.997,994c-37.55-14.439-78.7-24.784-114.514-43.09-8.039-4.109-16.802-10.926-25.797-15.092-16.022-7.42-36.522-7.884-54.669-12.447-42.323-10.641-87.934-28.236-131.79-38.095-4.65-1.045-15.315-2.916-19.792-2.377-1.524.183-1.592.7-1.45,2.091-2.076-3.014-5.743-2.215-9.537-2.034-9.741.464-23.616,4.282-32.355,8.638-4.881,2.433-24.823,19.273-28.086,16.403-2.667-2.347,8.967-13.387,10.802-14.935,13.468-11.361,34.023-19.385,51.707-20.04,3.163-.117,17.816,1.618,18.481.975.681-.658-.453-2.654-.96-3.53-6.133-10.602-29.043-24.354-40.364-29.635-3.671-1.712-26.779-10.223-28.966-9.678-2.031.506-21.639,21.031-24.006,24.121-14.677,19.156-25.771,41.518-32.065,64.039-1.23,4.399-5.941,12.392-4.129,16.657,2.375,5.589,24.436,14.774,30.487,18.027-1.467-10.89-5.111-25.694,1.5-34.991,3.48,1.792,2.925,37.945,11.373,42.847l46.678,18.13,1.438-1.975c.038,1.754.926,2.424,2.409,3.1,23.941,10.907,73.641,19.679,100.589,24.379,29.705,5.181,63.524,6.587,92.067,16.018,1.606.531,3.525-.138,2.953,2.493v.003h30.002-.002c-5.214-13.272-4.786-26.237-1.989-40,2.015.407,1.659,2.086,1.978,3.51,2.742,12.229,3.128,25.286,10.01,36.489h138.003s0-29.999,0-29.999l-.005-.002h-.001ZM649.834,898.337c8.372-5.187,19.482-7.894,29.159-9.33h0c.31,1.6-3.324,4.736-4.229,5.24-6.105,3.398-16.719,6.903-23.515,9.469-1.469.555-1.409,3.002-6.24,2.879-7.152-.183,2.272-6.676,4.824-8.258h0Z"/>
  <path class="cls-5" d="M406.996,700.998c-6.116-16.039-6.221-32.827-9.293-49.198-2.009-10.708-4.649-27.996-8.295-37.752-2.195-5.874-5.436-2.615-8.42-3.523-15.3-4.654-37.249-14.611-48.815-25.693-.229-.219.886-1.684.804-1.774-.27-.299-2.699-.299-3.725-1.315-1.492-1.479-1.756-5.876-2.47-6.56-.737-.705-3.123.712-2.777-1.168,3.306-1.77,3.987,2.554,5.491,2.006.918-.335.018-2.718,1.988-2.01.667.239,8.221,7.762,10.614,9.394,11.433,7.798,26.152,14.314,39.914,16.098-12.031-11.019-51.147-37.892-52.614-54.469-.715-8.087,7.227,2.862,8.647,3.507,2.192.995,3.118-3.034,3.176,3.242,10.125,8.676,19.524,18.19,29.278,27.27,1.127,1.049,5.125,7.89,5.488,3.469-4.189-6.842-20.507-29.889-20.039-36.987.098-1.489.788-2.799,2.052-1.522.088.089-.936,1.671-.108,2.509,3.672,3.717,6.986,5.756,10.54,10.548,1.685,2.27,9.358,16.469,10.195,17,4.469,2.836,24.863,8.145,31.561,10.349,2.125.7,3.332.75,5.579,1.492,30.998,10.237,62.258,19.765,93.222,30.091.619-.828-2.154-8.073-2.694-9.756-3.043-9.487-5.983-20.639-11.645-30.393-7.873-13.564-29.809-36.702-42.086-46.423v.003c-3.66-2.897-7.428-5.949-11.898-7.595-19.536-7.196-73.562-18.186-94.129-18.871-76.273-2.541-72.69,38.629-56.253,97.253,6.533,23.303,16.818,54.4,26.58,76.383,1.784,4.018,11.002,17.214,11.128,19.938.05,1.067-4.407-.544,0,2.454-4.589.156-5.157-5.377-8.982-6.99.829,8.217,5.808,15.562,5,23.999,23.001-22.41,53.821-17.333,82.986-15.006h0ZM326.5,572.002l.5.5-.5.5v-1ZM335.403,648.651h0c8.444,6.52,16.463,18.059,23.957,25.98l17.634,18.363c-1.633.456-1.89.668-3.51.102-9.523-3.328-35.17-29.536-40.673-38.403-5.156-8.309-8.619-14.7,2.593-6.042h0Z"/>
  <path class="cls-5" d="M486.76,638.94c3.974,1.885,34.851,7.4,36.234,6.056.371-.361-.254-2.941-.684-3.766-5.178-3.68-8.372-18.147-13.358-20.681-5.386-2.738-17.716-4.113-23.951-6.049-20.418-6.34-40.579-13.691-60.989-20.108-2.25-.707-4.514.601-4.88.439h0c-.222-.099-.407-2.184-1.812-2.619-11.391-3.523-22.97-6.544-34.315-10.204,4.422,6.552,8.634,17.233,13.455,23.034,10.075,12.122,51.656,25.581,67.538,29.462,4.72,1.153,15.57,4.396,19.621,4.517,2.145.064,1.113-2.944,2.362-2.006.083.063-.285,1.42.779,1.925h0Z"/>
  <path class="cls-5" d="M511.545,555.034c-3.022-7.053-27.954-10.641-35.059-15.007l27.5,32.972c-1.436-5.004,8.668-15.377,7.559-17.965h0Z"/>
  <path class="cls-5" d="M572.899,872.916h0c7.091-4.578-17.816-13.98-18.894-12.915-.404.399-.264,5.345.978,6.518.934.882,16.729,7.163,17.916,6.397h0Z"/>
  <path class="cls-5" d="M659.565,523.575c-1.548,1.074-3.396,3.341-5.594,1.999-2.892-1.765-6.379-22.256-14.552-11.62-3.284,4.274,6.774,12.467,5.652,17.367-.516,2.256-34.691,17.136-36.064,15.688-.432-.456-3.096-11.178-4.15-11.858-1.508-.973-9.193.041-9.603,2.317-.618,3.434,7.989,11.515,2.49,13.782l-54.781,10.16c-.146,3.179-8.374,18.217-6.965,19.588.768.748,19.262-1.479,21.342-1.984.829-.202.76-1.327.676-1.999l1.587,2.071,47.89-4.068c9.844.202,11.089,5.055.919,6.903-16.499,2.997-44.78,4.089-61.918,4.154-2.375.009-10.006-2.218-11.434-1.003-1.914,1.628.232,27.629-4.575,29.917-.515.245-1.71-.088-2.485.003.18-11.727-.384-23.487,2.469-35.02,1.102-4.457,3.72-7.623,4.692-10.346.369-1.034,2.161-8.311,1.842-8.615-.667-.637-17.379-2.347-18.337-2.062-1.573.468-7.809,13.745-8.227,15.993-1.277,6.864,6.023,33.09,9.772,39.349,1.611,2.69,4.484,3.348,6.358,5.666,1.831,2.265,4.274,9.319,7.957,8.885,1.823-.214,2.359-8.338,9.49-2.325-11.058,36.844-25.367,72.974-31.893,111.135l.849,5.884,37.758,17.265c23.079-.519,46.446,7.934,68.258,15.201l4.986-25.513c-4.621,2.166-7.337,8.029-12.5,9.494-4.721,1.339,1.258-5.478,1.405-5.82,32.169-75.032,85.684-130.225,61.616-216.157-1.996-7.128-5.917-13.881-6.501-21.002-3.119.801-5.958,4.855-8.429,6.57h0ZM646.005,603.994c-9.23,2.133-19.227-.853-28.466-1.031-15.679-.301-33.936.018-48.816,5.26-4.48,1.578-18.169,10.721-21.717,7.772-3.629-3.016,16.702-14.899,18.739-15.75,6.578-2.749,15.789-4.273,22.893-5.107,4.708-.553,10.483.612,14.71-.121,1.081-.188.247-2.055,1.152-2.03.92.025.217,1.623.693,1.747h0c5.978,1.569,16.92,1.059,24.045,2.53,4.908,1.014,10.537,3.342,15.263,5.141.707.269,2.302-1.289,1.504,1.589h0ZM656.495,594.998c-1.307-8.01-.438-16.73-2.332-24.66-1.637-6.856-10.13-19.699-10.844-24.973-1.56-11.527,6.773,2.055,8.106,4.226h0c5.01,8.159,8.894,17.189,9.548,26.931.433,6.449.597,14.075-4.479,18.476h0Z"/>
  <path class="cls-5" d="M664.679,679.122c-3.359,1.15-27.094,50.817-32.158,56.937.631,8.151.785,17.266-.611,25.353-.587,3.401-5.419,15.345-4.994,16.955.213.805,14.345,5.36,15.775,5.346,4.21-.042,12.373-13.742,13.269-17.271.617-2.429-2.282-.57-1.955-2.43,1.433-.095,2.896.6,4.111-.63,1.184-1.198,11.46-24.046,13.062-27.703,1.925-4.394,2.987-9.24,4.836-13.67.569.751,3.057,5.629,2.944,5.941-.036.097-1.718-.209-1.935.741-2.981,13.073-3.375,24.441-9.291,37.542-.701,1.553-4.742,4.627-3.721,5.767.644.719,18.101-6.177,13.99-9.989,2.653-1.229,1.709,2.279,2.493,1.986.465-.174,6.619-6.463,7.018-7.026.223-.315-.077-1.4,1.006-3.372h0c11.664-21.25,11.17-53.306-9.509-69.107-3.263-2.494-10.099-6.818-14.33-5.37h0Z"/>
  <path class="cls-5" d="M756.09,1012.438c-15.083-4.357-35.917-5.925-52.291-9.736-34.523-8.034-68.086-19.469-100.55-33.541-8.639.162,3.464,13.921-4.345,11.42-.573-.183-5.419-5.512-5.596-5.877-1.615-3.327-1.501-10.558-4.331-13.178-6.376-5.903-28.962-9.868-35.965-18.523.436,9.248-3.298,19.336-2.054,28.541.221,1.634,4.107,12.412,5.036,12.956,2.217,1.299,6.512.325,8.998,1.022,7.821,2.193,15.569,5.739,23.579,7.409,21.487,4.48,43.919-.073,65.978,1.022,29.564,1.467,46.683,16.125,72.969,27.028,1.627.676,3.648-.216,3.482,3.017v.004h92l-.019-.003-62.614-11.001c-3.901,3.939-.849.43-4.276-.56h0Z"/>
  <path class="cls-5" d="M761,189.013c-2.087-.29-2.278-.099-1.988,1.988l1.988-1.988Z"/>
  <path class="cls-5" d="M927.249,871.255c-5.643-.941-11.786.364-17.506-.494-13.09-1.964-32.916-10.513-46.74-14.26-23.758-6.441-47.671-12.145-71.447-18.556l-1.538,2.046c.152-1.174-.212-1.809-1.368-2.176-10.199-3.242-25.511-5.565-36.41-7.552-30.652-5.589-75.97-15.855-105.758-17.235-3.03-.14-6.525-.5-9.439.518-.734.256-12.539,7.88-13.035,8.478-1.619,1.953,5.689,3.035-1.008,2.991l47.356,21.132c6.695,6.162,15.166,11.882,19.658,19.848,1.71-1.188-1.381-7.597-2.133-9.152-1.773-3.665-18.595-23.089-16.876-24.833,1.088-1.104,11.629,5.834,13.207,7.061,6.652,5.173,16.845,21.207,17.472,29.573.232,3.095-4.281,9.334,2.314,5.859,3.516-1.852,7.121-20.845,9.257-25.743,7.028-16.114,8.233-6.841,5.901,4.901-.833,4.194-9.884,23.251-9.161,24.331.393.587,12.842,3.936,13.546,3.994.973.08-.289-2.441,1.44-1.977.015,1.185.563,2.333,1.698,2.805,2.239.931,28.196,7.555,29.697,7.256,1.114-.222-.025-2.506,1.613-2.061l.658,3.059,80.102,22.682c3.575.602,4.093.976,6.24-1.741.109.982-.593,2.461.656,3.047,1.341.63,16.801,3.19,17.75,3.03.805-.136.673-1.445.619-2.073,1.856-.391.031,2.819,2.474,1.998,1.175-.395-.334-2.353,1.492-2.004,2.067,4.197,10.553,4.288,15.992,6.523,8.156,3.351,54.545,31.763,59.022,27.467,2.812-2.698-10.789-34.581-10.015-40.495.139-1.058-.269-2.138,1.501-1.485,7.691,2.835,19.176,38.734,20.723,47.782l68.796,25.203h0v-72.997s-.009-.003-.014-.005c-16.964-5.849-36.43-9.995-52.959-16.522-12.694-5.012-31.211-18.128-43.777-20.223h0Z"/>
  <path class="cls-6" d="M378.254,382.248c17.778,46.971,50.519,87.517,89.269,118.731,1.101.888,11.296,6.546,7.959,7.041-4.642.689-34.946-18.043-40.471-22.018,2.431,30.474,41.842,45.267,67.77,49.719,51.404,8.827,114.026-4.113,151.214-42.225-12.932-1.342-22.964,1.69-36-.989-62.416-12.827-104.689-80.415-150.987-116.013-.629-.484-2.145-2.396-3.002-1.486h0c-2.189,2.322,10.158,22.528-7.621,24.878-17.587,2.326-18.608-.311-23.322-15.447-3.513-11.281-6.456-25.754-4.614-37.489.668-4.257,6.539-14.483,6.393-15.299-.364-2.038-18.521-17.465-20.606-25.385-1.133-4.304-.166-17.326-7.495-18.004-1.225-.113-15.836,1.996-16.308,2.674-.976,1.401-3.423,32.683-2.422,34.066.844,1.166,19.2-10.447,27.314-8.033,2.153.64,1.083,6.561,2.124,8.085.523.766,17.857,4.764,14.548,9.938-1.127,1.761-15.704-2.405-17.731-3.674-2.527-1.582-1.625-4.971-4.773-5.349-4.251-.511-23.485,8.562-27.562,5.601-5.477-3.978.831-29.878,1.049-36.1.039-1.103.434-3.394-1.467-2.46-1.441.707-15.608,21.771-19.49,25.516-2.396,2.311-7.598,6.234-10.753,7.247-4.225,1.357-10.376.554-12.75,2.25-1.911,1.366-12.694,20.394-14.247,23.753-1.755,3.797-11.112,28.529-11.074,30.924.015.952,9.577,12.632,11.22,15.383,5.366,8.983,9.049,17.083,7.592,27.919,4.685-3.773,41.222-25.114,41.984-27.505.507-1.591-25.918-13.356-28.003-18.199-3.651-8.481,11.54,2.633,12.273,2.981,1.52.722,12.247,5.196,12.728,4.717.429-.426-4.612-10.55-5.039-10.978-.12-.121-1.785,1.087-1.908.967-3.22-7.437-21.431-34.065-17.562-41.001.977-1.752,1.636-.3,2.537.496,5.431,4.798,8.971,15.959,13.969,21.515-1.594-10.44-3.776-21.704-.495-31.988,5.722,18.351,8.924,37.184,15.759,55.241ZM446,446.014c1.758-1.466,14.365,11.239,16.532,12.957,25.685,20.362,56.328,35.721,87.703,45.297,4.438,1.355,26.997,5.543,27.762,6.749h0c3.451,5.444-24.033,1.811-26.02,1.508-33.628-5.125-74.268-27.83-96.489-53.511-1.016-1.174-10.106-12.485-9.488-13h0Z"/>
  <path class="cls-6" d="M378.493,96.993c38.54,5.065,67.491,23.46,100.175,42.842,10.471,6.21,20.898,12.432,30.32,20.167,6.231-34.8-7.336-71.465-41.495-84.992,4.075,15.888,4.14,34.92-5.481,48.99-.475-8.382,3.401-16.028,3.968-24.519.441-6.596.176-24.398-6.415-27.543-11.134-5.312-41.868-5.188-53.572-1.444-8.85,2.831-26.38,15.965-28.963,25.046-.543,1.91.297,1.3,1.463,1.453h0Z"/>
  <path class="cls-6" d="M382.525,245.026c-6.145,6.556,13.687,1.834,15.469-3.013-5.53.225-11.267-1.469-15.469,3.013Z"/>
  <path class="cls-6" d="M442.882,393.405c1.099,1.237,16.497.185,17.122-.4.81-.758-.62-12.894-1.093-15.226-.27-1.327-3.552-8.469-3.85-11.338-.499-4.808,1.199-14.465.505-17.481-.088-.382-3.291-6.728-3.621-6.938-1.245-.792-7.69,3.655-9.945,2.969h-.002c5.373-6.581,11.328-6.447,4.5-15.967-11.445,10.446-12.2,24.791-10.22,39.198.512,3.72,4.899,23.264,6.604,25.183ZM442.723,352.175h0c6.269-1.942,9.989,6.972,5.278,9.337-6.574,3.301-11.116-7.529-5.278-9.337h0Z"/>
  <path class="cls-6" d="M448.545,132.037c1.31-.465,1.801.622,1.45-2.018-23.552-13.11-50.028-25.167-77.458-27.054-16.751-1.153-38.545-1.056-54.529,3.051-.007,2.422,2.857.01,3.492-.014,4.973-.187,10.018,0,15,0,17.599,0,57.157,25.475,84.136,27.864,6.267.555,22.227.189,27.909-1.829h0Z"/>
  <path class="cls-6" d="M500,218.002h0v19.5c0,8.493-10.419,32.07-14.833,40.167-1.257,2.306-6.024,7.437-6.115,8.785-.071,1.052,4.203,19.803,4.995,20.499.488.428,6.465-.198,8.366.14,3.584.637,17.839,5.154,20.128,4.718,2.606-.496,6.188-29.03,6.443-33.326,1.245-20.997,2.09-49.182-18.983-60.483h-.001Z"/>
  <path class="cls-6" d="M514.552,320.044l-26.552-2.032c3.371,13.829,19.66,20.719,31.33,27.158,15.27,8.426,31.601,16.007,47.669,22.82-10.787-15.323-18.443-28.568-20.845-47.643-.776-6.162-3.236-15.806,1.834-20.345,1.707,17.385,7.197,34.551,17,48.994-6.186-37.724-.071-90.712,40.011-106.983-4.499,7.205-11.273,12.197-16.409,19.08-11.052,14.81-16.417,30.86-17.64,49.36-.543,8.215,1.218,58.951,5.706,62.635.991.814,22.79,8.43,24.239,8.43,1.48,0,12.713-6.103,16.891-7.23,5.797-1.563,11.1-2.928,17.219-2.281l-.503-118.007c-18.196-14.695-43.226-17.995-65.964-19.036-7.65-.351-22.001-.975-29.117-.054-2.091.271-1.322,2.038-1.441,2.08h0c-.874.306-1.795-1.77-2.485-1.987-.853-.268-.157,1.883-1.124,2.062-2.207.409-8.9-1.712-12.369-.058,6.156,20.83,5.132,44.944.531,66.026-.982,4.498-2.249,16.768-7.98,17.011h0ZM581.011,348.002c-.122-6.325,2.191-13.123,4.506-18.982.435-1.101,6.419-15.306,8.477-13.012,1.167,1.301-9.448,29.211-12.983,31.994Z"/>
  <path class="cls-6" d="M690.742,434.242c5.093-2,15.915-20.57,21.794-24.278,1.091-2.6-7.849-11.181-10.059-12.939-5.725-4.554-22.918-11.599-25.441-14.559-4.822-5.659,4.804-2.778,7.955-1.956,8.611,2.247,17.445,6.092,24.485,11.515,4.101,3.159,10.324,14.243,12.142,4.008,2.647-14.906-19.557-47.865-30.606-57.543-2.851-2.498-15.04-9.677-15.514-10.485-4.707-8.025,9.599-.952,12.421.578,23.892,12.957,30.779,33.268,40.98,56.02.53,1.184-.448,1.805,2.081,1.39,3.193-8.927,28.385-36.589,29.021-43.555.125-1.37-9.092-20.779-10.497-25.44-2.477-8.217-4.741-17.419-4.509-25.997v-.002c-35.733,8.684-75.213,21.028-100.472,49.025l-.512,108.976c10.173-7.748,22.38-11.321,34.768-13.721,3.976-.77,8.069.492,11.963-1.037h0Z"/>
  <path class="cls-6" d="M760.989,323.996h0c-2.922-12.358-4.539-25.047-6.991-37.492-.286-1.453.005-3.087-1.987-3.502-.602,5.024-1.247,9.062.483,14.01l8.495,26.984h0Z"/>
  <path class="cls-6" d="M854.736,111.237c-4.905,1.729-39.597,17.689-39.714,20.263-.111,2.429,13.094,7.6,15.77,8.209,28.994,6.598,50.601-9.217,75.961-18.454,20.745-7.556,35.869-9.013,56.241,1.741h0c3.945-3.791-19.413-10.118-20.97-10.519-30.097-7.744-57.389-11.781-87.288-1.24h0Z"/>
  <path class="cls-6" d="M891.012,350.015c-.34.344.117,6.725-2.051,9.448-2.569,3.227-13.176,5.64-14.799,8.201-3.694,5.827,1.059,49.528-.16,60.837-.224,2.085-1.2,6.929-3.275,7.869-2.628,1.19-27.319,1.01-28.265-.332-2.176-3.088-2.916-43.41-2.326-49.4.432-4.387,1.582-8.722,3.165-12.835,1.71-4.443,11.675-17.041,11.56-18.109-.402-3.738-25.643-26.302-26.85-24.692,1.395,2.33-1.519,11.667-1.011,11.989.658.417,4.075-.6,6.01.501,2.335,1.329,1.403,5.953,2.475,7.524,1.188,1.741,13.876,3.52,12.508,10.98-4.267-3.359-11.64-2.743-15.374-5.114s-2.298-11.097-9.043-4.8c-9.068,8.465-14.095,29.294-17.843,41.153-9.458,29.93-17.288,60.538-25.733,90.767h167.5c12.95-35.889,14.932-74.608,13.539-112.539-.268-7.287-3.213-15.699-2.047-22.992.3-1.88.598-2.352,2.502-1.477,1.687.776,6.104,32.221,6.488,36.525,3.03,33.954-1.698,67.455-8.983,100.483h33.5c2.222,0,18.257-14.334,18.303-17.301-10.889-36.015-16.808-76.937-32.945-111.057-15.64-33.07-39.461-38.954-71.347-51.653l10.834,34.166c10.647,31.631-20.663,6.125-26.332,11.858h0Z"/>
  <path class="cls-6" d="M892.059,293.566c-1.486-.521-5.884.604-7.129,1.869-6.162,6.263-3.025,32.161-5.389,40.609-3.476,12.422-26.81,29.764-31.081,45.919-1.437,5.434-2.358,47.112-.466,49.045.666.681,18.338-.327,19.011-1,2.123-2.121-1.746-53.221.984-60.005-5.621,3.806-11.949,6.85-16.494,11.994,1.295-7.91,10.239-14.422,16.584-18.416,2.646-1.665,15.165-7.115,15.679-7.825,5.523-7.624-6.839-16.186,17.725-13.737,2.92.291,9.216,3.388,9.506,2.983h0c2.248-3.131-12.632-49.228-18.929-51.436h0ZM858.747,381.154c10.357-1.811,3.741,15.895-2.655,11.751-2.072-1.342-3.799-10.622,2.655-11.751Z"/>
  <path class="cls-6" d="M907.994,98.996c-11.854-40.213-39.408-48.679-78.533-46.033-57.904,3.916-81.632,46.433-74.455,101.033,49.927-19.349,95.521-65.786,152.988-55ZM803.014,60.01c1.737-.257,1.016,2.311.88,3.376-.501,3.921-2.39,8.201-2.767,12.243-1.465,15.695,4.407,32.236,7.868,47.366h0c-4.25,4.491-11.452-25.744-11.741-27.748-1.834-12.731-.118-23.784,5.76-35.237h0Z"/>
  <path class="cls-7" d="M201.459,813.03c1.9-.199,22.199-17.125,26.229-19.841,20.437-13.777,45.525-22.532,70.311-23.199-3.449-15.687-21.425-18.459-29.498-30.969-11.232,13.402-22.599,27.917-37.591,37.39-3.704,2.341-24.065,12.566-26.916,9.585-2.907-3.04,7.777-4.804,10.382-6.119,15.872-8.013,43.565-42.492,49.803-59.197,5.166-13.833,3.992-17.211-6.718-26.642-10.319-9.086-46.599-37.498-57.931-41.067-4.751-1.496-11.046-1.479-14.805-3.195-5.265-2.404-9.704-12.292-16.279-9.89-4.655,1.701-9.09,13.66-11.434,12.111-4.698-3.104,2.655-14.573,1.988-14.984-.453-.28-2.321.371-3.242-.059-.823-.384-.845-1.501-1.097-1.581v-.002c-8.222-2.595-23.486-3.484-31.628-.837-13.739,4.467-39.961,43.145-41.619,57.44-.496,4.278,2.868,19.771,5.567,22.629,1.063,1.125,14.597,1.652,21.492,7.424,8.111,6.79,7.077,16.933,12.53,22.47,5.022,5.099,16.334,4.803,14.772,14.749-2.006,12.773-32.639,5.954-28.328,26.812,5.037,24.366,65.687,25.719,55.558-8.052,3.913,1.476,31.069,7.628,31.997,9.012,2.677,3.993-11.817,3.009-13.374,2.855-2.349-.232-11.278-3.365-11.617-2.872-.331.482.305,4.536-.224,6.287-.52,1.722-4.703,6.812-3.786,7.706.51.498,11.099,2.724,13.77,3.735,3.844,1.456,19.195,8.563,21.688,8.301h0ZM133.566,683.563h-.001c-7.035,11.532-10.484,16.672-8.059,31.434-16.212-7.696,4.355-51.38,14.779-48.853,6.88,1.668-4.835,14.33-6.719,17.419ZM118.996,790.511c6.238,7.927,25.988,1.509,26.997,2.496,3.689,3.605-10.738,6.032-12.505,6.073-5.283.12-16.625-3.143-18.283-8.796-1.374-4.686,2.951-14.708,7.507-16.064,9.994-2.973,11.716,6.518,14.814,6.86,3.179.351,5.533-5.068,9.467-4.076h.001c1.325,6.421-1.151,10.336-7.484,12.093-8.322,2.31-10.675-12.01-18.897-6.982-3.484,2.13-4.092,5.251-1.617,8.396h0ZM142.006,711.997c-.714-.657,9.335-14.134,9.804-16.753.714-3.988-2.041-6.52-1.814-7.718.495-2.604,4.639-.609,5.687.773,5.66,7.463-9.066,27.939-13.677,23.698ZM237.994,697.007c2.746,3.09-8.86,19.344-10.988,16.989-.808-.894,9.344-18.839,10.988-16.989ZM213.448,715.951c-.889,1.607-1.293,4.848-1.459,5.052h0c-1.627,1.984-2.846-2.696-2.889-3.56-.637-12.718,11.35-25.302,18.89-34.441,1.204,12.061-8.788,22.556-14.541,32.949h-.001ZM188.006,696.996c-.645-.557,5.206-14.628,8.988-13.989.938,3.538-4.928,17.493-8.988,13.989ZM200.212,669.029c-2.797-1.559-11.471-2.413-14.788-2.097-2.927.279-4.394,1.84-5.984,2.01-5.214.559-12.495-.832-17.193-2.69-2.088-.826-5.852-4.516-.868-4.141,8.407.632,10.253,2.371,17.627-3.603,1.977-1.602,6.291-8.96,8.988-6.5h0c1.717,1.569-4.395,8.699-3.994,8.983,2.526,1.787,18.929-3.457,24.771,7.74,6.014,11.527-3.639,24.91-6.371,14.286-.88-3.42,2.966-11.115-2.188-13.988Z"/>
  <path class="cls-7" d="M318.995,237.007c.317.321,8.699.328,9.008,0h0c.629-.669,1.718-15.158,2.296-18.207,1.398-7.368,11.951-43.708-.853-44.85-8.771-.782-2.854,7.691-2.497,9.605,1.815,9.743-10.107,51.269-7.953,53.452h0Z"/>
  <path class="cls-7" d="M321.958,425.209c4.55-10.415-5.036-25.538-10.453-34.203-8.366,23.075-21.451,49.443-48.505,52.983,15.593-11.126,25.933-22.18,33.48-40.008,10.566-24.958,14.477-47.21,29.494-71.502,1.38-2.232,7.904-9.355,8.02-9.985.147-.796-3.08-.843-2.994-2.482,8.234.758,16.651-1.081,23.325-6.186,2.374-1.815,20.341-22.768,20.67-24.33.128-.611-8.637-4.16-10.907-6.082-9.411-7.968-7.278-20.545-8.093-21.408-2.562-2.712-21.709,15.356-22.989,13.99-4.464-4.766,21.61-17.257,22.027-18.676,1.901-6.475-4.262-27.431-4.044-35.313-3.518,3.256-3.77,17.907-6.975,19.509l-40.133,1.917c-7.21-2.686,9.128-4.539,9.971-5.581h-.001c.737-.912,1.907-15.347,2.428-18.071,1.304-6.821,12.871-39.812.258-37.833-4.577.719-8.158,22.324-9.824,27.267-3.943,11.698-9.072,21.22-11.392,33.608-3.961,21.149-1.243,40.617-3.284,60.716-1.601,15.764-41.138,46.417-53.007,60.993-16.327,20.051-27.612,45.332-30.764,71.227-.887,7.291.043,9.371,4.848,14.628,14.918,16.322,35.357,9.917,53.401,3.629,8.115-2.828,52.948-23.096,55.443-28.807h0ZM315.011,260.002c4.541,3.402,8.575,10.745,10.476,16.013,1.302,3.61,5.165,19.458,5.137,22.491-.015,1.664-4.59,11.173-6.076,13.073h-.001c-1.577,2.015-8.783,6.943-9.545,2.903-.135-.715,5.558-7.859,6.471-10.507,5.62-16.297-3.844-28.939-6.462-43.973h0Z"/>
  <path class="cls-7" d="M331.998,237.997c.471.466,8.916.333,9.99-1.755,1.38-2.683,4.641-26.28,4.993-30.759.399-5.08,1.508-25.737-3.198-28.252h-.001c-6.669-3.562-1.832,8.547-1.799,12.275.077,8.686-11.75,46.746-9.985,48.491h0Z"/>
  <path class="cls-7" d="M361.006,158.997h0c1.241,1.312,6.05-4.66,5.951-5.508-.148-1.272-9.466-5.04-9.95-4.483-.924,1.064,1.221,8.015,1.005,9.99l1.943-6.539c8.987-1.099-1.659,3.675,1.051,6.54h0Z"/>
  <path class="cls-7" d="M433.515,310.992c-1.577-.689-11.266-11.167-12.514-9.98-1.441,5.193,16.434,22.924,18.499,22.898.264-.003,4.149-2.892,4.271-3.127,1.015-1.949-.039-13.627.25-17.26.848-10.652,4.366-18.145-2.514-28.515-1.84,3.787-21.424,14.17-21.486,15.493-.057,1.216,13.968,12.647,14.963,19.022.197,1.259-.113,2.062-1.469,1.469Z"/>
  <path class="cls-7" d="M464.061,246.589c-.256,7.709,10.125,24.179,11.953,32.41h0c8.264-11.068,20.932-41.648,11.968-53.473-4.419-5.829-3.883-1.421-8.714-.76-2.398.328-10.431-.476-10.8.177-1.036,1.833-.231,5.73-.746,8.281-.736,3.65-3.578,10.841-3.662,13.365h0Z"/>
  <path class="cls-7" d="M475.011,372.491c49.393,41.923,91.725,99.338,159.989,111.511h0v-75.501c0-6.116-75.068-31.97-85.358-36.642-12.861-5.839-60.796-30.892-66.851-41.149-5.315-9.005-5.622-23.387-8.284-33.716-3.346-12.984-9.728-21.581-13.779-33.221-2.497-7.176-3.305-21.831-5.864-26.133-5.855-9.842-10.952,14.035-10.926,18.858.028,5.105,2.251,12.316,3.802,17.263,1.134,3.616,6.194,12.94,6.3,14.822.119,2.123-2.369,1.458-2.89,3.036-6.463,19.571,6.332,46.722,16.834,62.904l-6.979-.518c-2.705,11.015,7.145,12.663,14.005,18.486h.001Z"/>
  <path class="cls-7" d="M497.337,169.166c-17.195-11.791-19.463,7.385-27.054,9.63-2.968.878-10.169-.698-11.988-3.077-3.317-4.338-2.527-34.859-4.293-36.719-1.16-1.221-14.573,1.88-17.467,2.037-27.404,1.485-43.245-6.104-67.811-14.082-.99-.322-.464-2.855-2.208-1.945-1.603.836-8.251,15.298-7.52,15.985.435.409,9.398,1.127,10.509,5.002.84-4.798,1.144-10.72,5.495-13.995v14.5c0,8.092-10.499,19.861-14.192,26.809-7.102,13.36-1.806,11.525,7.192,18.691-.176-.105-1.12-3.808-1.004-3.989,1.179-1.842,15.459-1.22,16.088,1.619.177.799-.723,4.073-1.766,4.4-4.622,1.448-4.925-1.641-6.758-2.107-1.538-.391-5.711.583-6.56.077,9.886,7.873-6.519,2.94-7.409,3.165-4.133,1.046-3.796,15.833-3.568,19.32.855,13.102,3.522,27.92,4.914,40.054.831,7.249.242,15.528,4.632,21.392,12.077,16.135,45.236,3.875,59.448-4.413,17.393-10.143,7.895-11.397,12.668-27.332,1.116-3.724,6.475-12.5,9.759-14.235,7.887-4.167,13.32,5.465,14.55,4.044.356-.412-.227-7.587.031-9.47,2.062-15.064,4.165-5.531,12.497-5.696,15.175-.3,38.92-37.937,21.815-49.665h0ZM378,179.012c3.746-.361,10.111,1.581,12.647,4.343h0c3.23,3.519,4.091,8.967-1.378,10.415-8.45,2.238-1.839-2.909-1.47-4.422.865-3.549-8.803-6.253-9.799-10.336ZM392,261.013c-3.828,4.607-16.564,7.12-20.592,2.082-6.504-8.133,5.673-2.793,10.231-2.231,3.434.423,6.927-.004,10.362.149h0ZM399.673,249.672h0c-4.64,3.424-23.992,7.019-27.193,1.349-1.046-1.853-1.693-15.027-2.737-19.189-1.008-4.018-6.712-15.731-6.757-17.429-.138-5.261,13.174-7.813,17.503-7.455,15.431,1.275,33.049,32.49,19.183,42.724h0ZM402.012,194.002c6.233,6.199,9.157,15.446,9.977,23.994l-9.977-23.994ZM417.994,164.996c-8.889-3.33-5.051-1.469-8.899,1.575-7.99,6.321-7.813-2.304-9.657-6.561-.304-.703-2.183-.817-2.475-1.555-1.996-5.05,11.609-3.508,14.693-2.1,1.049.479,7.63,7.36,6.338,8.641ZM433.996,155.996h0c-1.136.967-11.559-3.653-14.492-3.996-9.758-1.141-35.821,6.354-40.554-2.445-5.076-9.437,1.685-2.664,4.536-2.465,4.01.28,14.65-2.492,19.807-3.138.786-.098.684-1.774,1.151-1.815,1.312-.115,13.167.772,14.826,1.097,3.04.596,16.892,10.917,14.727,12.762h-.001ZM496.012,190.002h-.001c1.213-3.815-5.474-13.662-9.026-11.577-.691.406-3.979,7.019-3.817,7.932.395,2.231,6.51,4.128,5.081,9.357-1.264,4.622-10.08,9.101-14.235,11.285-4.37-7.323,6.544-11.124,6.986-12.017.385-.777-7.684-6.654-3.411-15.891,6.32-13.664,28.13-2.566,18.423,10.911Z"/>
  <path class="cls-7" d="M544.52,547.02c-1.202,1.032-1.968,4.617-3.239,4.994-3.015.894-19.727-.517-22.595-2.193-2.418-1.413-2.272-4.296-2.848-4.649h0c-5.375-3.291-4.714,4.571.799,7.694,4.491,2.544,27.796,4.968,30.884,2.164,2.683-2.436,1.861-12.184-3.001-8.01Z"/>
  <path class="cls-7" d="M610.605,783.412h0c-23.53-7.926-42.409-9.727-64.81-15.706-14.747-3.936-53.411-27.257-65.217-25.64-1.974.271-7.78,2.248-4.301,4.169,30.627,16.912,71.056,26.112,102.696,42.122,10.219-1.245,18.088-.497,27.401,3.771,8.769,4.018,5.122,3.877,15.996,6.004,13.537,2.647,27.157,4.952,40.63,7.859,3.693-2.99-21.792-10.503-23.213-11.062-9.6-3.78-19.843-8.372-29.181-11.517h0Z"/>
  <path class="cls-7" d="M635,379.002h0c-3.665-1.173-6.325,1.952-6.707,2.01-5.398.825-11.538-.586-17.3,3.501l24.007,12.489v-18h0Z"/>
  <path class="cls-7" d="M637.462,1002.966c-14.774.328-30.993,3.42-44.2,1.099-48.795-8.576-93.596-32.675-141.919-41.677-2.346-.437-5.545-1.072-7.081-1.323-3.524-.577-23.27-2.359-24.266-3.069-3.002-2.139,7.203-3.731,8.285-3.036l4.723-3.95c-5.09.453-7.954-4.067-12.056-6.466-2.93-1.714-7.329-2.85-9.649-4.19-2.863-1.654-9.997-9.289-13.799-9.286-2.797.002-13.64,8.527-16.048,10.886-10.049,9.843-27.579,39.333-22.314,53.41,1.226,3.277,56.662,25.367,63.86,28.637h.002v.002h251.001v-.002h0l-11.991-8.015c-.271-1.659,2.423-1.069,3.523-1.028,7.618.285,17.083,5.023,23.468,9.043h-.005s.004,0,.006.002h24s-.006-.003-.008-.005c-5.947-3.799-12.884-7.254-19.319-10.168-22.977-10.403-30.602-11.435-56.212-10.865h0Z"/>
  <path class="cls-7" d="M644,484.001c2.956-.523,9.816.967,12.036-.464.83-.534,5.776-14.553,7.935-18.065,4.891-7.955,12.085-14.376,18.029-21.459-8.042-2.259-36.046,10.68-38,17.489h0c-1.451,5.054,1.073,16.629,0,22.499Z"/>
  <path class="cls-7" d="M756.001,177.991l19.977-14.489c-10.461-7.907-19.372,4.512-19.977,14.489Z"/>
  <path class="cls-7" d="M785.999,172.012c-2.268-.372-2.429.197-1.804,2.288.474,1.587,13.698,24.768,14.972,25.521.602.356,3.578.349,3.832.17,1.097-.776-12.169-22.228-13.153-23.431-1.552-1.898-5.52-.627-3.846-4.548h0Z"/>
  <path class="cls-7" d="M819.989,321.514c-.704-7.713-7.545-28.342-5.565-34.546,1.435-4.495,9.404-4.051,12.009-.9,4.895,5.921-4.967,4.191-5.445,8.425-.152,1.343,2.804,13.64,3.508,13.503,6.754-1.312,12.149-25.388,7.948-30.936-.941-1.244-9.429-6.227-11.205-6.796-11.314-3.626-17.032.634-27.132,2.352-.911.155-3.129.943-2.096-1.1,1.327-2.625,11.937-5.309,15.029-6.977,4.518-2.437,10.234-9.148,14.57-9.526,1.898-.165,18.771,6.591,19.915,7.965,3.283,3.942-6.49.114-7.519,1.03-1.474,1.313,6.077,14.12,10.868,6.359,2.348-3.803,2.782-10.536.898-14.638-2.682-5.839-25.63-18.49-31.723-16.187-5.817,2.199-19.903,13.817-27.382,17.625-3.585,1.825-13.146,5.548-7.178-1.178,4.271-4.814,30.836-21.679,37.059-22.001,8.868-.459,21.696,8.957,22.442,8.013.639-.81-1.634-8.237-3.009-9.48-1.392-1.259-3.967-1.198-5.506-2.494-2-1.685-3.386-5.045-6.564-6.436-4.33-1.896-18.614-2.303-23.429-1.61-8.939,1.286-19.448,19.396-25.94,26.059-3.011,3.09-12.726,12.35-8.988,2.011.688-1.902,23.972-29.459,26.111-30.887,10.057-6.713,17.755-1.111,26.85-2.063,2.123-.222,2.722-.376,3.75-2.332,3.667-6.979-9.523-8.25-14.766-8.861-1.837-.213-3.761,1.171-4.922,1.106-.641-.036-.19-2.027-2.037-2.13-5.963-.332-5.622,1.027-12.825-.542h.003c-7.407-1.615-10.165,4.92-13.519,10.355-7.978,12.93-17.356,33.435-16.07,48.676,1.702,20.178,15.385,59.443,12.633,76.892-1.491,9.455-18.764,33.234-24.948,42.047-14.985,21.355-31.631,42.095-49.172,61.328-11.648,12.771-27.803,22.978-33.634,40.354l104.996-1.748,37.521-120.223c9.452-15.454,16.252-20.92,14.464-40.509h0Z"/>
  <path class="cls-7" d="M856.98,298.522c-2.744-1.349-16.307-12.294-16.974-11.515-.837.979.496,16.933-7.497,24.001-3.768,3.332-10.374,2.368-4.548,10.533,1.81,2.537,15.687,11.083,19.679,14.821,1.925,1.802,10.981,13.452,11.866,13.634,2.522-7.068,11.247-11.996,12.494-19.494.85-5.111-.621-12.137,0-17.5-3.443,3.822-5.456,8.796-8.585,12.91-1.181,1.553-3.297,5.249-5.411,5.082-1.688-6.097,14.054-24.986,13.975-26.492-.042-.806-12.55-4.776-14.999-5.98Z"/>
  <path class="cls-7" d="M918.112,166.612c.131-1.525,2.233-7.317,1.884-7.605-2.847-2.353-20.973,1.664-21.727,5.463-1.18,5.951,8.829-3.437,13.73-.99,8.812,4.399-7.695,20.936-6.002,4.528-1.009-.132-4.963.582-5.033,1.549-.758,10.54,36.692,45.323.528,50.534l-16.481-6.573c2.292-5.876,24.352,3.785,26.852-5.237,1.18-4.257-17.714-31.694-15.878-46.803,1.747-14.374,21.303-11.208,23.57-14.421,1.459-2.068-2.203-18.057-3.698-18.92h0c-3.2-1.849-33.105,13.111-39.087,15.134-18.91,6.394-32.874,8.846-49.54,2.805-2.123-.769-13.585-5.487-14.217-5.074-1.12.732-3.895,21.96-5.298,26.215-1.72,5.213-6.168,8.621-5.072,12.582.521,1.881,10.068,18.618,11.335,19.722,2.734,2.382,6.693,2.392,9.726,4.274,9.798,6.079,3.563,13.943,4.317,15.142.488.777,11.289,5.644,14.176,11.365,3.411,6.758-.051,13.082.229,13.734.224.521,6.763,5.873,8.007,8.032,6.194,10.749-1.21,21.844.01,23.932.747,1.277,14.357,6.62,16.78,7.276,12.705,3.442,31.795,4.975,41.322-5.232,1.631-24.676,12.639-53.452,13.436-77.568.391-11.848-4.977-21.015-3.869-33.864h0ZM831.005,167.998h0c-3.315-3.418,13.686-13.01,16.424-14.066,11.038-4.258,23.116,1.795,33.003.025,2.893-.518,8.23-6.361,8.555-5.954.507.633-1.771,6.75-2.527,7.962-6.597,10.569-20.62,6.199-30.938,7.062-4.076.341-23.647,5.869-24.518,4.971h0ZM879.527,211.98c.88,2.128,7.364,4.698,3.952,7.024-15.534-1.116-4.047-20.002-1.49-17.002h0c1.026,1.204-4.809,4.302-2.462,9.978h0ZM863.35,180.834c-4.239.739-5.623-5.584-6.616-6.557h0c-2.329-2.28-13.248,3.264-13.723,2.724-4.033-4.586,26.547-14.915,27.993-8.474.161.717-5.536,11.938-7.654,12.307h0ZM884.667,259.019c-.64-.091-.622-1.646-1.464-1.917-3.109-.998-11.466-2.197-4.036-4.435,7.561-2.278,15.109-.231,22.833-.654-2.714,5.08-12.092,7.747-17.333,7.006ZM892.502,242.991c-1.983.122-4.285-1.163-6.942-1.023-2.869.151-18.552,2.912-19.554,2.028-3.961-3.497,15.008-7.699,16.622-7.867,3.38-.352,23.087-.698,24.221,1.018,3.449,5.217-10.608,5.614-14.347,5.844Z"/>
  <path d="M120.613,782.115c8.222-5.028,10.575,9.292,18.897,6.982,6.333-1.757,8.809-5.672,7.484-12.092h-.001c-3.934-.993-6.288,4.426-9.467,4.075-3.098-.342-4.82-9.833-14.814-6.86-4.556,1.356-8.881,11.378-7.507,16.064,1.658,5.653,13,8.916,18.283,8.796,1.767-.041,16.194-2.468,12.505-6.073-1.009-.987-20.759,5.431-26.997-2.496-2.475-3.145-1.867-6.266,1.617-8.396h0Z"/>
  <path d="M140.285,666.144c-10.424-2.527-30.991,41.157-14.779,48.853-2.425-14.762,1.024-19.902,8.059-31.434h.001c1.884-3.089,13.599-15.751,6.719-17.419Z"/>
  <path d="M149.996,687.526c-.227,1.198,2.528,3.73,1.814,7.718-.469,2.619-10.518,16.096-9.804,16.753,4.611,4.241,19.337-16.235,13.677-23.698-1.048-1.382-5.192-3.377-5.687-.773Z"/>
  <path d="M188.006,696.996c4.06,3.504,9.926-10.451,8.988-13.989-3.782-.639-9.633,13.432-8.988,13.989Z"/>
  <path d="M197.838,871.284c.055-.1.109-.204.166-.318-.062.103-.124.206-.166.318Z"/>
  <path d="M202.4,683.017c2.732,10.624,12.385-2.759,6.371-14.286-5.842-11.197-22.245-5.953-24.771-7.74-.401-.284,5.711-7.414,3.994-8.983-2.697-2.46-7.011,4.898-8.988,6.5-7.374,5.974-9.22,4.235-17.627,3.603-4.984-.375-1.22,3.315.868,4.141,4.698,1.858,11.979,3.249,17.193,2.69,1.59-.17,3.057-1.731,5.984-2.01,3.317-.316,11.991.538,14.788,2.097,5.154,2.873,1.308,10.568,2.188,13.988Z"/>
  <path d="M209.099,717.443c.043.864,1.262,5.544,2.889,3.56h0c.166-.204.57-3.445,1.459-5.052,5.753-10.393,15.745-20.888,14.541-32.949-7.54,9.139-19.527,21.723-18.89,34.441h0Z"/>
  <path d="M227.006,713.996c2.128,2.355,13.734-13.899,10.988-16.989-1.644-1.85-11.796,16.095-10.988,16.989Z"/>
  <path d="M245.458,862.06c-.154-.018-.307-.036-.456-.05.002.071.023.136.036.203.138-.057.28-.104.421-.154h-.001Z"/>
  <path d="M289.998,874.876c.005.041.011.076.016.118.019-.036.038-.058.057-.092-.025-.008-.048-.017-.073-.025h0Z"/>
  <path d="M314.793,949.567c.001.013.002.026.003.039l.343-.173c-.127.057-.234.092-.347.134h.001Z"/>
  <path d="M315.002,314.482c.762,4.04,7.968-.888,9.545-2.903h.001c1.486-1.9,6.061-11.409,6.076-13.073.028-3.033-3.835-18.881-5.137-22.491-1.901-5.268-5.935-12.611-10.476-16.013,2.618,15.034,12.082,27.676,6.462,43.973-.913,2.648-6.606,9.792-6.471,10.507h0Z"/>
  <path d="M317.009,982.999c.006.008.019.007.027.013-.028-.242-.049-.487-.072-.731-.038.367-.029.62.046.718h-.001Z"/>
  <path d="M323.006,850.014l-.093.115s.006.004.01.006c.031-.042.05-.079.083-.122h0Z"/>
  <path d="M336.183,721.013c.863-.455,1.654-.907,2.372-1.356-1.011.121-1.931.444-2.372,1.356Z"/>
  <path d="M373.483,693.096c1.62.566,1.877.354,3.51-.102l-17.634-18.363c-7.494-7.921-15.513-19.46-23.957-25.98h0c-11.212-8.658-7.749-2.267-2.593,6.042,5.503,8.867,31.15,35.075,40.673,38.403h0Z"/>
  <path d="M380.49,206.948c-4.329-.358-17.641,2.194-17.503,7.455.045,1.698,5.749,13.411,6.757,17.429,1.044,4.162,1.691,17.336,2.737,19.189,3.201,5.67,22.553,2.075,27.193-1.349h0c13.866-10.234-3.752-41.449-19.183-42.724h0ZM368.005,216.996c-3.459-3.033,15.004-8.058,18.984-2.973h0c.189.241.377,1.745-.493,1.985-1.383.382-17.795,1.598-18.492.988h.001ZM397.994,242.013c-1.782,4.847-21.614,9.569-15.469,3.013,4.202-4.482,9.939-2.788,15.469-3.013Z"/>
  <path d="M381.639,260.864c-4.558-.562-16.735-5.902-10.231,2.231,4.028,5.038,16.764,2.525,20.592-2.082h0c-3.435-.153-6.928.274-10.362-.149h0Z"/>
  <path d="M387.799,189.348c-.369,1.513-6.98,6.66,1.47,4.422,5.469-1.448,4.608-6.896,1.378-10.414h0c-2.536-2.763-8.901-4.705-12.647-4.344.996,4.083,10.664,6.787,9.799,10.336Z"/>
  <path d="M388.939,925.517c.02,0,.035-.006.055-.007-.002-.009-.006-.016-.008-.024-.016.01-.031.021-.047.031Z"/>
  <path d="M411.656,156.355c-3.084-1.408-16.689-2.95-14.693,2.1.292.738,2.171.852,2.475,1.555,1.844,4.257,1.667,12.882,9.657,6.561,3.848-3.044.01-4.905,8.899-1.575,1.292-1.281-5.289-8.162-6.338-8.641Z"/>
  <path d="M411.989,217.996c-.82-8.548-3.744-17.795-9.977-23.994l9.977,23.994Z"/>
  <path d="M419.269,143.234c-1.659-.325-13.514-1.212-14.826-1.097-.467.041-.365,1.717-1.151,1.815-5.157.646-15.797,3.418-19.807,3.138-2.851-.199-9.612-6.972-4.536,2.465,4.733,8.799,30.796,1.304,40.554,2.445,2.933.343,13.356,4.963,14.492,3.996h0c2.165-1.845-11.687-12.166-14.727-12.762h.001Z"/>
  <path d="M424.962,901.126c-.639.295-1.277.594-1.912.91,1.312.367,1.838-.117,1.912-.91Z"/>
  <path d="M426.925,724.966c-.247-.126-.495-.239-.742-.359.255.132.502.252.742.359Z"/>
  <path d="M435.991,739.036c-.002-.006-.002-.01-.004-.015-.034.017-.064.032-.097.049.025.009.049.018.074.026.009-.02.019-.039.028-.06h-.001Z"/>
  <path d="M447,902.003h0c.144-.065.738-1.389,2-2h0c17.764-8.608,45.705-27.867,60.011-41.489,1.188-1.131,8.026-6.809,3.521-7.486-9.91,7.111-20.275,13.405-30.528,19.972h0s-.002,0-.003.002h0c-2.943,1.885-5.799,4.637-8,6h-.003c-12.932,8.007-25.169,14.62-38.997,20.998h0c-2,.923-5.38,1.842-8,3h0c-3.616,1.598-7.375,3.352-10.998,4.999l.003-.002s-.002,0-.004.002h0c-2.667,1.212-6.366,1.958-4,4,.686.26,1.316.711,1.994.997v.003h0s.005-.002.007-.002c.321-.09.718.102,1,0v.002h0c9.497-3.444,23.514-5.188,31.998-8.999h.003l-.004.003Z"/>
  <path d="M448.001,361.512c4.711-2.365.991-11.279-5.278-9.337h0c-5.838,1.808-1.296,12.638,5.278,9.337h0Z"/>
  <path d="M477.589,179.091c-4.273,9.237,3.796,15.114,3.411,15.891-.442.893-11.356,4.694-6.986,12.017,4.155-2.184,12.971-6.663,14.235-11.285,1.429-5.229-4.686-7.126-5.081-9.357-.162-.913,3.126-7.526,3.817-7.932,3.552-2.085,10.239,7.762,9.026,11.577h.001c9.707-13.477-12.103-24.575-18.423-10.911Z"/>
  <path d="M486.855,762.343l.133-.335c-.069.118-.132.21-.198.314.022.007.042.014.064.021h.001Z"/>
  <path d="M510.562,811.974c.437.044.733-.2.932-.604-.312.2-.616.408-.932.604Z"/>
  <path d="M524.011,777.914c-.507-.363-1.05-.647-1.666-.706-.226-.022-.455.004-.685.05.76.199,1.547.419,2.351.657h0Z"/>
  <path d="M551.977,512.525c1.987.303,29.471,3.936,26.02-1.509h0c-.765-1.205-23.324-5.393-27.762-6.748-31.375-9.576-62.018-24.935-87.703-45.297-2.167-1.718-14.774-14.423-16.532-12.957-.618.515,8.472,11.826,9.488,13,22.221,25.681,62.861,48.386,96.489,53.511Z"/>
  <path d="M585.517,329.02c-2.315,5.859-4.628,12.657-4.506,18.982,3.535-2.783,14.15-30.693,12.983-31.994-2.058-2.294-8.042,11.911-8.477,13.012Z"/>
  <path d="M585.993,814.004c.026-.045.036-.123.052-.187-.3.219-.599.436-.898.655.269.14.545.054.846-.467h0Z"/>
  <path d="M644.501,602.405c-4.726-1.799-10.355-4.127-15.263-5.141-7.125-1.471-18.067-.961-24.045-2.529h0c-.476-.125.227-1.723-.693-1.748-.905-.025-.071,1.842-1.152,2.03-4.227.733-10.002-.432-14.71.121-7.104.834-16.315,2.358-22.893,5.107-2.037.851-22.368,12.734-18.739,15.75,3.548,2.949,17.237-6.194,21.717-7.772,14.88-5.242,33.137-5.561,48.816-5.26,9.239.178,19.236,3.164,28.466,1.031.798-2.878-.797-1.32-1.504-1.589h0Z"/>
  <path d="M651.25,903.716c6.796-2.566,17.41-6.071,23.515-9.469.905-.504,4.539-3.64,4.229-5.24h0c-9.677,1.436-20.787,4.143-29.159,9.33-2.552,1.582-11.976,8.075-4.824,8.258,4.831.123,4.771-2.324,6.24-2.879h0Z"/>
  <path d="M651.425,549.591c-1.333-2.171-9.666-15.753-8.106-4.226.714,5.274,9.207,18.117,10.844,24.973,1.894,7.93,1.025,16.65,2.332,24.66,5.076-4.401,4.912-12.027,4.479-18.476-.654-9.742-4.538-18.772-9.548-26.931h0Z"/>
  <path d="M665.532,1014.959c-1.1-.041-3.794-.631-3.523,1.028l11.991,8.015h15c-6.385-4.02-15.85-8.758-23.468-9.043h0Z"/>
  <path d="M808.995,122.996h0c-3.461-15.131-9.333-31.672-7.868-47.367.377-4.042,2.266-8.322,2.767-12.243.136-1.065.857-3.633-.88-3.376-5.878,11.453-7.594,22.506-5.76,35.237.289,2.004,7.491,32.239,11.741,27.749h0Z"/>
  <path d="M843.011,177.001c.475.54,11.394-5.004,13.723-2.723h0c.993.972,2.377,7.295,6.616,6.556,2.118-.369,7.815-11.59,7.654-12.307-1.446-6.441-32.026,3.888-27.993,8.474h0Z"/>
  <path d="M843.048,1021.506c-28.543-9.431-62.362-10.837-92.067-16.018-26.948-4.7-76.648-13.472-100.589-24.379-1.483-.676-2.371-1.346-2.409-3.1l-1.438,1.975-46.678-18.13c-8.448-4.902-7.893-41.055-11.373-42.847-6.611,9.297-2.967,24.101-1.5,34.991-6.051-3.253-28.112-12.438-30.487-18.027-1.812-4.265,2.899-12.258,4.129-16.657,6.294-22.521,17.388-44.883,32.065-64.039,2.367-3.09,21.975-23.615,24.006-24.121,2.187-.545,25.295,7.966,28.966,9.678,11.321,5.281,34.231,19.033,40.364,29.635.507.876,1.641,2.872.96,3.53-.665.643-15.318-1.092-18.481-.975-17.684.655-38.239,8.679-51.707,20.04-1.835,1.548-13.469,12.588-10.802,14.935,3.263,2.87,23.205-13.97,28.086-16.403,8.739-4.356,22.614-8.174,32.355-8.638,3.794-.181,7.461-.98,9.537,2.034-.142-1.391-.074-1.908,1.45-2.091,4.477-.539,15.142,1.332,19.792,2.377,43.856,9.859,89.467,27.454,131.79,38.095,18.147,4.563,38.647,5.027,54.669,12.447,8.995,4.166,17.758,10.983,25.797,15.092,35.813,18.306,76.964,28.651,114.514,43.09h.002v-12.999l-68.796-25.203c-1.547-9.048-13.032-44.947-20.723-47.782-1.77-.653-1.362.427-1.501,1.485-.774,5.914,12.827,37.797,10.015,40.495-4.477,4.296-50.866-24.116-59.022-27.467-5.439-2.235-13.925-2.326-15.992-6.523-1.826-.349-.317,1.609-1.492,2.004-2.443.821-.618-2.389-2.474-1.998.054.628.186,1.937-.619,2.073-.949.16-16.409-2.4-17.75-3.03-1.249-.586-.547-2.065-.656-3.047-2.147,2.717-2.665,2.343-6.24,1.741l-80.102-22.682-.658-3.059c-1.638-.445-.499,1.839-1.613,2.061-1.501.299-27.458-6.325-29.697-7.256-1.135-.472-1.683-1.62-1.698-2.805-1.729-.464-.467,2.057-1.44,1.977-.704-.058-13.153-3.407-13.546-3.994-.723-1.08,8.328-20.137,9.161-24.331,2.332-11.742,1.127-21.015-5.901-4.901-2.136,4.898-5.741,23.891-9.257,25.743-6.595,3.475-2.082-2.764-2.314-5.859-.627-8.366-10.82-24.4-17.472-29.573-1.578-1.227-12.119-8.165-13.207-7.061-1.719,1.744,15.103,21.168,16.876,24.833.752,1.555,3.843,7.964,2.133,9.152-4.492-7.966-12.963-13.686-19.658-19.848l-47.356-21.132c6.697.044-.611-1.038,1.008-2.991.496-.598,12.301-8.222,13.035-8.478,2.914-1.018,6.409-.658,9.439-.518,29.788,1.38,75.106,11.646,105.758,17.235,10.899,1.987,26.211,4.31,36.41,7.552,1.156.367,1.52,1.002,1.368,2.176l1.538-2.046c23.776,6.411,47.689,12.115,71.447,18.556,13.824,3.747,33.65,12.296,46.74,14.26,5.72.858,11.863-.447,17.506.494,12.566,2.095,31.083,15.211,43.777,20.223,16.53,6.527,35.996,10.674,52.959,16.522h.013v-12.999c-19.87-7.709-40.669-13.245-60.527-20.972-11.864-4.616-21.182-12.447-34.985-14.015-29.96-3.403-51.54-12.009-80.274-19.726-33.477-8.992-66.844-16.026-101.01-21.99-13.975-2.439-40.851-3.503-52.447-7.553-2.564-.895-8.472-5.651-11.736-7.264-9.91-4.897-19.727-9.96-30.031-13.98,3.063-.747,24.009-13.472,25.007-12.493.43.422-1.864,7.769-.547,12.047,4.235,13.758,33.456,16.838,45.086,15.981,8.919-.658,32.125-7.54,38.824-13.176,9.623-8.097-5.227-9.993-6.358-10.87-.465-.36,4.125-8.704,4.712-10.777,5.001-17.661,2.12-37.108-3.007-54.417-.962-3.248-6.595-14.89-6.64-16.293-.06-1.891,2.833-6.512,2.995-10.975,1.35-37.368-34.034-75.271-68.069-42.035l-12.991,12.497c13.477-26.711,22.051-56.242,20.038-86.527-1.33-20.021-9.185-41.925-16.575-60.425-1.231-3.082-8.962-17.483-7.468-19.034l356.002-.002.002-.003v-8.998l-14.999-.011c4.831-6.082,11.583-10.335,10.764-19.209-1.683-18.217-12.949-53.781-18.745-72.299-9.614-30.72-18.484-62.053-48.352-78.648-7.066-3.926-50.451-19.804-51.66-22.345-.891-1.872,8.231-3.906,9.942-5.038,1.8-1.19,3.7-3.436,4.547-5.453,2.424-26.634,15.517-61.238,13.481-87.474-.54-6.961-4.86-16.918-4.777-23.036.086-6.362,4.08-12.814,3.836-21.019-.095-3.202-3.552-13.938-3.031-14.462.419-.422,9.099,2.741,11.509,2.98,25.504,2.529,50.781-14.737,18.467-28.467-6.603-2.805-36.281-8.475-37.735-9.772-2.011-1.793-6.73-16.044-8.701-19.792-13.533-25.723-29.982-34.294-59.061-35.939-67.415-3.813-108.471,32.897-103.52,101.52.696,9.653,4.454,13.987,5.858,20.165.441,1.943-1.691,7.839-1.892,10.804-.173,2.544,1.54,5.176,1.089,7.93-.599,3.659-11.576,10.429-11.98,17.132-.565,9.397,15.41,27.068,15.924,34.995.261,4.021-5.562,13.177-5.902,19.088-.221,3.831,2.478,12.777,1.478,15.302-.203.512-5.831,8.749-6.295,9.046-5.598,3.58-30.128,9.632-38.758,12.985-21.548,8.374-43.309,17.482-61.473,32.015L644.002.003h-9.002l-.011,242c-28.341-15.989-63.59-17.073-95.527-16.038-4.439.144-15.6,2.719-18.93,2.084-1.811-.346-6.621-7.762-9.069-10.009-2.526-2.319-11.094-6.489-11.461-7.053-.457-.702,6.471-11.645,7.5-14.981,1.755-5.689,1.249-16.373,2.128-18.722.866-2.314,4.921-2.563,6.903-10.246,4.388-17.013,3.399-44.576-3.055-61.013-17.355-44.197-95.829-62.996-130.947-30.988-4.05,3.692-14.96,20.364-16.206,20.794-5.725,1.977-27.651-.559-35.859.141-37.289,3.181-26.363,36.042,2.088,43.976,3.261.909,18.779,2.376,19.297,3.206.776,1.243-.239,6.845.239,9.261,1.819,9.192,4.281,10.861-.03,21.15-2.296,5.478-3.28-2.81-8.533-4.661-3.963-1.397-4.907.853-7.047.718-2.375-.149-5.069-4.1-9.892-3.605-6.029.619-6.468,7.164-8.603,8.473-3.593,2.202-6.15-.703-10.193,5.807-4.456,7.176-17.362,49.613-19.477,59.523-4.063,19.034-2.882,35.923-4.279,54.721-.805,10.836-2.321,12.195-9.012,19.988-20.921,24.367-51.791,44.585-64.507,75.493-4.321,10.504-12.449,44.735-10.089,55.05,1.612,7.043,12.59,16.887,18.903,20.098,18.9,9.613,37.475,2.489,55.631-4.704,9.276-3.675,32.591-17.652,39.042-19.039,4.299-.924,9.188,2.178,13.716-.206l50.78-31.199c5.824,9.837,11.304,19.87,17.477,29.5,4.563,7.117,26.093,34.464,27.477,38.523,2.712,7.953,1.48,20.765,6.543,28.946-29.981-4.703-59.985-13.113-90.517-13.971-116.493-3.272-55.607,122.279-37.216,184.216,1.624,5.468,13.668,43.843,12.323,45.796-1.832,2.662-12.892,1.789-16.641,2.419-6.192,1.04-20.024,9.996-23.926,8.084-4.233-2.074,2.113-12.727,2.717-17.295,1.587-12.008-.481-18.355-9.273-26.205-9.35-8.349-45.138-34.921-55.583-40.417-8.621-4.536-16.712-3.671-23.632-6.368-3.819-1.489-8.302-9.228-14.446-11.554-8.019-3.036-28.693-5.761-38.427-7.569-2.5-.465-5.694.41-7.665-.11-.944-.249-6.934-11.052-13.01-14.22-30.848-16.083-66.433,40.046-72.854,64.554-2.624,10.015-1.717,18.526-2.939,28.061-.595,4.647-3.257,10.032-3.783,15.217-1.416,13.957,5.754,39.299,11.111,52.634,1.311,3.264,7.632,12.488,7.755,13.245.218,1.338-21.924,6.342-7.523,19.523,11.652,10.666,48.046,14.499,63.738,18.262,7.17,1.719,11.928,5.942,21.259,6.741,8.646.741,20.279-1.617,27.765-.851,1.771.181,29.505,10.812,31.123,11.963,1.591,1.132,6.576,7.674,6.47,9.196-.115,1.647-4.964,7.627-5.995,9.991-9.324,21.388-5.447,31.252-2.397,52.507.556,3.872-1.008,7.713.25,12.978,3.77,15.777,31.889,29.513,45.297,36.704,36.51,19.581,75.245,35.161,111.294,55.698,10.695,3.038,8.652-2.433,12.745-4.764,2.91-1.658,27.633,9.895,31.981,12.545h33c-7.198-3.27-62.634-25.36-63.86-28.637-5.265-14.077,12.265-43.567,22.314-53.41,2.408-2.359,13.251-10.884,16.048-10.886,3.802-.003,10.936,7.632,13.799,9.286,2.32,1.34,6.719,2.476,9.649,4.19,4.102,2.399,6.966,6.919,12.056,6.466l-4.723,3.95c-1.082-.695-11.287.897-8.285,3.036.996.71,20.742,2.492,24.266,3.069,1.536.251,4.735.886,7.081,1.323,48.323,9.002,93.124,33.101,141.919,41.677,13.207,2.321,29.426-.771,44.2-1.099,25.61-.57,33.235.462,56.212,10.865,6.435,2.914,13.372,6.369,19.319,10.168h18.004s.002,0,.003-.001c.166-3.233-1.855-2.341-3.482-3.017-26.286-10.903-43.405-25.561-72.969-27.028-22.059-1.095-44.491,3.458-65.978-1.022-8.01-1.67-15.758-5.216-23.579-7.409-2.486-.697-6.781.277-8.998-1.022-.929-.544-4.815-11.322-5.036-12.956-1.244-9.205,2.49-19.293,2.054-28.541,7.003,8.655,29.589,12.62,35.965,18.523,2.83,2.62,2.716,9.851,4.331,13.178.177.365,5.023,5.694,5.596,5.877,7.809,2.501-4.294-11.258,4.345-11.42,32.464,14.072,66.027,25.507,100.55,33.541,16.374,3.811,37.208,5.379,52.291,9.736,3.427.99.375,4.499,4.276.56l62.614,11.001c.005,0,.011,0,.017,0h23s.002,0,.004,0c.573-2.631-1.346-1.962-2.953-2.493h0ZM662.999,805.991c-13.473-2.907-27.093-5.212-40.63-7.859-10.874-2.127-7.227-1.986-15.996-6.004-9.313-4.268-17.182-5.016-27.401-3.771-31.64-16.01-72.069-25.21-102.696-42.122-3.479-1.921,2.327-3.898,4.301-4.169,11.806-1.617,50.47,21.704,65.217,25.64,22.401,5.979,41.28,7.78,64.81,15.706h0c9.338,3.145,19.581,7.737,29.181,11.517,1.421.559,26.906,8.072,23.213,11.062h0ZM404,625.012c37.133,16.709,76.373,27.769,117.005,31.994h0l-20.011,79.993c-.614.642-15.503-5.013-16.726-5.766-5.821-3.582-7.241-6.085-15.305-9.695-7.609-3.406-47.885-14.465-49.448-16.552-.954-1.274-7.624-27.24-8.261-30.739-2.892-15.888-2.267-33.54-7.254-49.235h0ZM409,701.502l-.5.5v-1l.5.5ZM319.01,692.005c3.825,1.613,4.393,7.146,8.982,6.99-4.407-2.998.05-1.387,0-2.454-.126-2.724-9.344-15.92-11.128-19.938-9.762-21.983-20.047-53.08-26.58-76.383-16.437-58.624-20.02-99.794,56.253-97.253,20.567.685,74.593,11.675,94.129,18.871,4.47,1.646,8.238,4.698,11.897,7.595v-.003c12.278,9.721,34.214,32.859,42.087,46.423,5.662,9.754,8.602,20.906,11.645,30.393.54,1.683,3.313,8.928,2.694,9.756-30.964-10.326-62.224-19.854-93.222-30.091-2.247-.742-3.454-.792-5.579-1.492-6.698-2.204-27.092-7.513-31.561-10.349-.837-.531-8.51-14.73-10.195-17-3.554-4.792-6.868-6.831-10.54-10.548-.828-.838.196-2.42.108-2.509-1.264-1.277-1.954.033-2.052,1.522-.468,7.098,15.85,30.145,20.039,36.987-.363,4.421-4.361-2.42-5.488-3.469-9.754-9.08-19.153-18.594-29.278-27.27-.058-6.276-.984-2.247-3.176-3.242-1.42-.645-9.362-11.594-8.647-3.507,1.467,16.577,40.583,43.45,52.614,54.469-13.762-1.784-28.481-8.3-39.914-16.098-2.393-1.632-9.947-9.155-10.614-9.394-1.97-.708-1.07,1.675-1.988,2.01-1.504.548-2.185-3.776-5.491-2.006-.346,1.88,2.04.463,2.777,1.168.714.684.978,5.081,2.47,6.56,1.026,1.016,3.455,1.016,3.725,1.315.082.09-1.033,1.555-.804,1.774,11.566,11.082,33.515,21.039,48.815,25.693,2.984.908,6.225-2.351,8.42,3.523,3.646,9.756,6.286,27.044,8.295,37.752,3.072,16.371,3.177,33.159,9.293,49.198-29.165-2.327-59.985-7.404-82.986,15.006.808-8.437-4.171-15.782-5-23.999h0ZM362.99,358.995c-4.998-5.556-8.538-16.717-13.969-21.515-.901-.796-1.56-2.248-2.537-.496-3.869,6.936,14.342,33.564,17.562,41.001.123.12,1.788-1.088,1.908-.967.427.428,5.468,10.552,5.039,10.978-.481.479-11.208-3.995-12.728-4.717-.733-.348-15.924-11.462-12.273-2.981,2.085,4.843,28.51,16.608,28.003,18.199-.762,2.391-37.299,23.732-41.984,27.505,1.457-10.836-2.226-18.936-7.592-27.919-1.643-2.751-11.205-14.431-11.22-15.383-.038-2.395,9.319-27.127,11.074-30.924,1.553-3.359,12.336-22.387,14.247-23.753,2.374-1.696,8.525-.893,12.75-2.25,3.155-1.013,8.357-4.936,10.753-7.247,3.882-3.745,18.049-24.809,19.49-25.516,1.901-.934,1.506,1.357,1.467,2.46-.218,6.222-6.526,32.122-1.049,36.1,4.077,2.961,23.311-6.112,27.562-5.601,3.148.378,2.246,3.767,4.773,5.349,2.027,1.269,16.604,5.435,17.731,3.674,3.309-5.174-14.025-9.172-14.548-9.938-1.041-1.524.029-7.445-2.124-8.085-8.114-2.414-26.47,9.199-27.314,8.033-1.001-1.383,1.446-32.665,2.422-34.066.472-.678,15.083-2.787,16.308-2.674,7.329.678,6.362,13.7,7.495,18.004,2.085,7.92,20.242,23.347,20.606,25.385.146.816-5.725,11.042-6.393,15.299-1.842,11.735,1.101,26.208,4.614,37.489,4.714,15.136,5.735,17.773,23.322,15.447,17.779-2.35,5.432-22.556,7.621-24.879h0c.857-.909,2.373,1.003,3.002,1.487,46.298,35.598,88.571,103.186,150.987,116.013,13.036,2.679,23.068-.353,36,.989-37.188,38.112-99.81,51.052-151.214,42.225-25.928-4.452-65.339-19.245-67.77-49.719,5.525,3.975,35.829,22.707,40.471,22.018,3.337-.495-6.858-6.153-7.959-7.041-38.75-31.214-71.491-71.76-89.269-118.731-6.835-18.057-10.037-36.89-15.759-55.241-3.281,10.284-1.099,21.548.495,31.988h0ZM213.114,450.387c-4.805-5.257-5.735-7.337-4.848-14.628,3.152-25.895,14.437-51.176,30.764-71.227,11.869-14.576,51.406-45.229,53.007-60.993,2.041-20.099-.677-39.567,3.284-60.716,2.32-12.388,7.449-21.91,11.392-33.608,1.666-4.943,5.247-26.548,9.824-27.267,12.613-1.979,1.046,31.012-.258,37.833-.521,2.724-1.691,17.159-2.428,18.07h.001c-.843,1.043-17.181,2.896-9.971,5.582l40.133-1.917c3.205-1.602,3.457-16.253,6.975-19.509-.218,7.882,5.945,28.838,4.044,35.313-.417,1.419-26.491,13.91-22.027,18.676,1.28,1.366,20.427-16.702,22.989-13.99.815.863-1.318,13.44,8.093,21.408,2.27,1.922,11.035,5.471,10.907,6.082-.329,1.562-18.296,22.515-20.67,24.33-6.674,5.105-15.091,6.944-23.325,6.186-.086,1.639,3.141,1.686,2.994,2.482-.116.63-6.64,7.753-8.02,9.985-15.017,24.292-18.928,46.544-29.494,71.502-7.547,17.828-17.887,28.882-33.48,40.008,27.054-3.54,40.139-29.908,48.505-52.983,5.417,8.665,15.003,23.788,10.453,34.203-2.495,5.711-47.328,25.979-55.443,28.807-18.044,6.288-38.483,12.693-53.401-3.629h0ZM326.948,183.555c-.357-1.914-6.274-10.387,2.497-9.605,12.804,1.142,2.251,37.482.853,44.85-.578,3.049-1.667,17.538-2.296,18.206h0c-.309.329-8.691.322-9.008.001-2.154-2.183,9.768-43.709,7.953-53.452h0ZM343.782,177.232h.001c4.706,2.514,3.597,23.171,3.198,28.251-.352,4.479-3.613,28.076-4.993,30.759-1.074,2.088-9.519,2.221-9.99,1.755-1.765-1.745,10.062-39.805,9.985-48.491-.033-3.728-4.87-15.837,1.799-12.274h0ZM321.5,106.002c-.635.024-3.499,2.436-3.492.014,15.984-4.107,37.778-4.204,54.529-3.051,27.43,1.887,53.906,13.944,77.458,27.054.351,2.64-.14,1.553-1.45,2.018-5.682,2.018-21.642,2.384-27.909,1.829-26.979-2.389-66.537-27.864-84.136-27.864-4.982,0-10.027-.187-15,0ZM405.993,70.494c11.704-3.744,42.438-3.868,53.572,1.444,6.591,3.145,6.856,20.947,6.415,27.543-.567,8.491-4.443,16.137-3.968,24.519,9.621-14.071,9.556-33.102,5.481-48.99,34.159,13.527,47.726,50.192,41.495,84.992-9.422-7.735-19.849-13.957-30.32-20.167-32.684-19.382-61.635-37.777-100.175-42.842-1.166-.153-2.006.457-1.463-1.453,2.583-9.081,20.113-22.215,28.963-25.046h0ZM522.001,237.007c3.469-1.654,10.162.467,12.369.058.967-.179.271-2.33,1.124-2.062.69.217,1.611,2.293,2.485,1.986h0c.119-.041-.65-1.808,1.441-2.079,7.116-.921,21.467-.297,29.117.054,22.738,1.041,47.768,4.341,65.964,19.036l.503,118.007c-6.119-.647-11.422.718-17.219,2.281-4.178,1.127-15.411,7.229-16.891,7.23-1.449,0-23.248-7.616-24.239-8.43-4.488-3.684-6.249-54.42-5.706-62.635,1.223-18.5,6.588-34.55,17.64-49.36,5.136-6.883,11.91-11.875,16.409-19.08-40.082,16.271-46.197,69.259-40.011,106.983-9.803-14.443-15.293-31.609-17-48.994-5.07,4.539-2.61,14.183-1.834,20.345,2.402,19.075,10.058,32.32,20.845,47.643-16.068-6.813-32.399-14.394-47.669-22.82-11.67-6.439-27.959-13.329-31.33-27.158l26.552,2.032c5.731-.243,6.998-12.513,7.98-17.011,4.601-21.082,5.625-45.196-.531-66.026h0ZM451.151,291.619c.521-1.578,3.009-.913,2.89-3.036-.106-1.882-5.166-11.206-6.3-14.822-1.551-4.947-3.774-12.158-3.802-17.263-.026-4.823,5.071-28.7,10.926-18.858,2.559,4.302,3.367,18.957,5.864,26.133,4.051,11.64,10.433,20.237,13.779,33.221,2.662,10.329,2.969,24.711,8.284,33.716,6.055,10.257,53.99,35.31,66.851,41.149,10.29,4.672,85.358,30.526,85.358,36.642v75.5h0c-68.264-12.172-110.596-69.587-159.989-111.51-6.86-5.823-16.71-7.471-14.005-18.486l6.979.518c-10.502-16.182-23.297-43.333-16.834-62.904h0ZM434.984,309.523c-.995-6.375-15.02-17.806-14.963-19.022.062-1.323,19.646-11.706,21.486-15.493,6.88,10.37,3.362,17.863,2.514,28.515-.289,3.633.765,15.311-.25,17.26-.122.235-4.007,3.124-4.271,3.127-2.065.026-19.94-17.705-18.499-22.898,1.248-1.187,10.937,9.291,12.514,9.98,1.356.593,1.666-.21,1.469-1.469h0ZM446.498,329.024c6.828,9.52.873,9.386-4.5,15.967h.002c2.255.686,8.7-3.761,9.945-2.969.33.21,3.533,6.556,3.621,6.938.694,3.016-1.004,12.673-.505,17.481.298,2.869,3.58,10.011,3.85,11.338.473,2.332,1.903,14.468,1.093,15.226-.625.585-16.023,1.637-17.122.4-1.705-1.919-6.092-21.463-6.604-25.183-1.98-14.407-1.225-28.752,10.22-39.198ZM468.469,224.943c.369-.653,8.402.151,10.8-.177,4.831-.661,4.295-5.069,8.714.76,8.964,11.825-3.704,42.405-11.968,53.473h0c-1.828-8.231-12.209-24.701-11.953-32.41.084-2.524,2.926-9.715,3.662-13.365.515-2.551-.29-6.448.746-8.281h0ZM610.993,384.513c5.762-4.087,11.902-2.676,17.3-3.501.382-.058,3.042-3.183,6.707-2.01h0v18l-24.007-12.489h0ZM518.983,278.485c-.255,4.296-3.837,32.83-6.443,33.326-2.289.436-16.544-4.081-20.128-4.718-1.901-.338-7.878.288-8.366-.14-.792-.696-5.066-19.447-4.995-20.499.091-1.348,4.858-6.479,6.115-8.785,4.414-8.097,14.833-31.674,14.833-40.167v-19.5h0c21.073,11.301,20.228,39.486,18.983,60.483h0ZM475.522,218.831c-8.332.165-10.435-9.368-12.497,5.696-.258,1.883.325,9.058-.031,9.47-1.23,1.421-6.663-8.211-14.55-4.044-3.284,1.735-8.643,10.511-9.759,14.235-4.773,15.935,4.725,17.189-12.668,27.332-14.212,8.288-47.371,20.548-59.448,4.413-4.39-5.864-3.801-14.143-4.632-21.392-1.392-12.134-4.059-26.952-4.914-40.054-.228-3.487-.565-18.274,3.568-19.32.89-.225,17.295,4.708,7.409-3.165.849.506,5.022-.468,6.56-.077,1.833.466,2.136,3.555,6.758,2.107,1.043-.327,1.943-3.601,1.766-4.4-.629-2.839-14.909-3.461-16.088-1.619-.116.181.828,3.884,1.004,3.989-8.998-7.166-14.294-5.331-7.192-18.691,3.693-6.948,14.192-18.717,14.192-26.809v-14.5c-4.351,3.275-4.655,9.197-5.495,13.995-1.111-3.875-10.074-4.593-10.509-5.002-.731-.687,5.917-15.149,7.52-15.985,1.744-.91,1.218,1.623,2.208,1.945,24.566,7.978,40.407,15.567,67.811,14.082,2.894-.157,16.307-3.258,17.467-2.037,1.766,1.86.976,32.381,4.293,36.719,1.819,2.379,9.02,3.955,11.988,3.077,7.591-2.245,9.859-21.421,27.054-9.63,17.105,11.728-6.64,49.365-21.815,49.665h0ZM359.955,152.457l-1.943,6.539c.216-1.975-1.929-8.926-1.005-9.99.484-.557,9.802,3.211,9.95,4.483.099.848-4.71,6.82-5.951,5.507h0c-2.71-2.864,7.936-7.638-1.051-6.539h0ZM547.521,555.03c-3.088,2.804-26.393.38-30.884-2.164-5.513-3.123-6.174-10.985-.799-7.693h0c.576.352.43,3.235,2.848,4.648,2.868,1.676,19.58,3.087,22.595,2.193,1.271-.377,2.037-3.962,3.239-4.994,4.862-4.174,5.684,5.574,3.001,8.01ZM503.986,572.999h0l-27.5-32.972c7.105,4.366,32.037,7.954,35.059,15.007,1.109,2.588-8.995,12.961-7.559,17.965h0ZM485.981,637.015c-1.249-.938-.217,2.07-2.362,2.006-4.051-.121-14.901-3.364-19.621-4.517-15.882-3.881-57.463-17.34-67.538-29.462-4.821-5.801-9.033-16.482-13.455-23.034,11.345,3.66,22.924,6.681,34.315,10.204,1.405.435,1.59,2.52,1.812,2.619h0c.366.162,2.63-1.146,4.88-.439,20.41,6.417,40.571,13.768,60.989,20.108,6.235,1.936,18.565,3.311,23.951,6.049,4.986,2.534,8.18,17.001,13.358,20.681.43.825,1.055,3.405.684,3.766-1.383,1.344-32.26-4.171-36.234-6.056-1.064-.505-.696-1.862-.779-1.925h0ZM679.009,684.492c20.679,15.801,21.173,47.857,9.509,69.107h0c-1.083,1.972-.783,3.057-1.006,3.372-.399.563-6.553,6.852-7.018,7.026-.784.293.16-3.215-2.493-1.986,4.111,3.812-13.346,10.708-13.99,9.989-1.021-1.14,3.02-4.214,3.721-5.767,5.916-13.101,6.31-24.469,9.291-37.542.217-.95,1.899-.644,1.935-.741.113-.312-2.375-5.19-2.944-5.941-1.849,4.43-2.911,9.276-4.836,13.67-1.602,3.657-11.878,26.505-13.062,27.703-1.215,1.23-2.678.535-4.111.63-.327,1.86,2.572,0,1.955,2.43-.896,3.529-9.059,17.229-13.269,17.271-1.43.014-15.562-4.541-15.775-5.346-.425-1.61,4.407-13.554,4.994-16.955,1.396-8.087,1.242-17.202.611-25.353,5.064-6.12,28.799-55.787,32.158-56.937,4.231-1.448,11.067,2.876,14.33,5.37h0ZM667.994,517.004c.584,7.121,4.505,13.874,6.501,21.002,24.068,85.932-29.447,141.125-61.616,216.157-.147.342-6.126,7.159-1.405,5.82,5.163-1.465,7.879-7.328,12.5-9.494l-4.986,25.513c-21.812-7.267-45.179-15.72-68.258-15.201l-37.758-17.265-.849-5.884c6.526-38.161,20.835-74.291,31.893-111.135-7.131-6.013-7.667,2.111-9.49,2.325-3.683.434-6.126-6.62-7.957-8.885-1.874-2.318-4.747-2.976-6.358-5.666-3.749-6.259-11.049-32.485-9.772-39.349.418-2.248,6.654-15.525,8.227-15.993.958-.285,17.67,1.425,18.337,2.062.319.304-1.473,7.581-1.842,8.615-.972,2.723-3.59,5.889-4.692,10.346-2.853,11.533-2.289,23.293-2.469,35.02.775-.091,1.97.242,2.485-.003,4.807-2.288,2.661-28.289,4.575-29.917,1.428-1.215,9.059,1.012,11.434,1.003,17.138-.065,45.419-1.157,61.918-4.154,10.17-1.848,8.925-6.701-.919-6.903l-47.89,4.068-1.587-2.071c.084.672.153,1.797-.676,1.999-2.08.505-20.574,2.732-21.342,1.984-1.409-1.371,6.819-16.409,6.965-19.588l54.781-10.16c5.499-2.267-3.108-10.348-2.49-13.782.41-2.276,8.095-3.29,9.603-2.317,1.054.68,3.718,11.402,4.15,11.858,1.373,1.448,35.548-13.432,36.064-15.688,1.122-4.9-8.936-13.093-5.652-17.367,8.173-10.636,11.66,9.855,14.552,11.62,2.198,1.342,4.046-.925,5.594-1.999h0c2.471-1.716,5.31-5.77,8.429-6.571h0ZM663.008,483.994c5.831-17.376,21.986-27.583,33.634-40.354,17.541-19.233,34.187-39.973,49.172-61.328,6.184-8.813,23.457-32.592,24.948-42.047,2.752-17.449-10.931-56.714-12.633-76.892-1.286-15.241,8.092-35.746,16.07-48.676,3.354-5.435,6.112-11.97,13.519-10.356h-.003c7.203,1.57,6.862.211,12.825.543,1.847.103,1.396,2.094,2.037,2.13,1.161.065,3.085-1.319,4.922-1.106,5.243.611,18.433,1.882,14.766,8.861-1.028,1.956-1.627,2.11-3.75,2.332-9.095.952-16.793-4.65-26.85,2.063-2.139,1.428-25.423,28.985-26.111,30.887-3.738,10.339,5.977,1.079,8.988-2.011,6.492-6.663,17.001-24.773,25.94-26.059,4.815-.693,19.099-.286,23.429,1.61,3.178,1.391,4.564,4.751,6.564,6.436,1.539,1.296,4.114,1.235,5.506,2.494,1.375,1.243,3.648,8.67,3.009,9.48-.746.944-13.574-8.472-22.442-8.013-6.223.322-32.788,17.187-37.059,22.001-5.968,6.726,3.593,3.003,7.178,1.178,7.479-3.808,21.565-15.426,27.382-17.625,6.093-2.303,29.041,10.348,31.723,16.187,1.884,4.102,1.45,10.835-.898,14.638-4.791,7.761-12.342-5.046-10.868-6.359,1.029-.916,10.802,2.912,7.519-1.03-1.144-1.374-18.017-8.13-19.915-7.965-4.336.378-10.052,7.089-14.57,9.526-3.092,1.668-13.702,4.352-15.029,6.977-1.033,2.043,1.185,1.255,2.096,1.1,10.1-1.718,15.818-5.978,27.132-2.352,1.776.569,10.264,5.552,11.205,6.796,4.201,5.548-1.194,29.624-7.948,30.936-.704.137-3.66-12.16-3.508-13.503.478-4.234,10.34-2.504,5.445-8.425-2.605-3.151-10.574-3.595-12.009.9-1.98,6.204,4.861,26.833,5.565,34.546,1.788,19.589-5.012,25.055-14.464,40.509l-37.521,120.223-104.996,1.748h0ZM756.001,177.991c.605-9.977,9.516-22.396,19.977-14.489l-19.977,14.489ZM758,191.502l-.5.5v-1l.5.5ZM761,189.013l-1.988,1.988c-.29-2.087-.099-2.278,1.988-1.988ZM789.846,176.56c.984,1.203,14.25,22.655,13.153,23.431-.254.179-3.23.186-3.832-.17-1.274-.753-14.498-23.934-14.972-25.521-.625-2.091-.464-2.66,1.804-2.288h0c-1.674,3.921,2.294,2.65,3.846,4.548h0ZM858.004,330.994c2.114.167,4.23-3.529,5.411-5.082,3.129-4.114,5.142-9.088,8.585-12.91-.621,5.363.85,12.389,0,17.5-1.247,7.498-9.972,12.426-12.494,19.494-.885-.182-9.941-11.832-11.866-13.634-3.992-3.738-17.869-12.284-19.679-14.821-5.826-8.165.78-7.201,4.548-10.533,7.993-7.068,6.66-23.022,7.497-24.001.667-.779,14.23,10.166,16.974,11.515,2.449,1.204,14.957,5.174,14.999,5.98.079,1.506-15.663,20.395-13.975,26.492ZM977.857,355.644c16.137,34.12,22.056,75.042,32.945,111.057-.046,2.967-16.081,17.301-18.303,17.301h-33.5c7.285-33.028,12.013-66.529,8.983-100.483-.384-4.304-4.801-35.749-6.488-36.525-1.904-.875-2.202-.403-2.502,1.477-1.166,7.293,1.779,15.705,2.047,22.992,1.393,37.931-.589,76.65-13.539,112.539h-167.5c8.445-30.229,16.275-60.837,25.733-90.767,3.748-11.859,8.775-32.688,17.843-41.153,6.745-6.297,5.309,2.429,9.043,4.8s11.107,1.755,15.374,5.114c1.368-7.46-11.32-9.239-12.508-10.98-1.072-1.571-.14-6.195-2.475-7.524-1.935-1.101-5.352-.084-6.01-.501-.508-.322,2.406-9.659,1.011-11.989,1.207-1.61,26.448,20.954,26.85,24.692.115,1.068-9.85,13.666-11.56,18.109-1.583,4.113-2.733,8.448-3.165,12.835-.59,5.99.15,46.312,2.326,49.4.946,1.342,25.637,1.522,28.265.332,2.075-.94,3.051-5.784,3.275-7.869,1.219-11.309-3.534-55.01.16-60.837,1.623-2.561,12.23-4.974,14.799-8.201,2.168-2.723,1.711-9.104,2.051-9.448,5.669-5.733,36.979,19.773,26.332-11.858l-10.834-34.166c31.886,12.699,55.707,18.583,71.347,51.653h0ZM910.988,345.002h0c-.29.405-6.586-2.692-9.506-2.983-24.564-2.449-12.202,6.113-17.725,13.737-.514.71-13.033,6.16-15.679,7.825-6.345,3.994-15.289,10.506-16.584,18.416,4.545-5.144,10.873-8.188,16.494-11.994-2.73,6.784,1.139,57.884-.984,60.005-.673.673-18.345,1.681-19.011,1-1.892-1.933-.971-43.611.466-49.045,4.271-16.155,27.605-33.497,31.081-45.919,2.364-8.448-.773-34.346,5.389-40.609,1.245-1.265,5.643-2.39,7.129-1.869,6.297,2.208,21.177,48.305,18.929,51.436h0ZM921.981,200.476c-.797,24.116-11.805,52.892-13.436,77.568-9.527,10.207-28.617,8.674-41.322,5.232-2.423-.656-16.033-5.999-16.78-7.276-1.22-2.088,6.184-13.183-.01-23.932-1.244-2.159-7.783-7.511-8.007-8.032-.28-.652,3.182-6.976-.229-13.734-2.887-5.721-13.688-10.588-14.176-11.365-.754-1.199,5.481-9.063-4.317-15.142-3.033-1.882-6.992-1.892-9.726-4.274-1.267-1.104-10.814-17.841-11.335-19.722-1.096-3.961,3.352-7.369,5.072-12.582,1.403-4.255,4.178-25.483,5.298-26.215.632-.413,12.094,4.305,14.217,5.074,16.666,6.041,30.63,3.589,49.54-2.805,5.982-2.023,35.887-16.983,39.087-15.135h0c1.495.864,5.157,16.853,3.698,18.921-2.267,3.213-21.823.047-23.57,14.421-1.836,15.109,17.058,42.546,15.878,46.803-2.5,9.022-24.56-.639-26.852,5.237l16.481,6.573c36.164-5.211-1.286-39.994-.528-50.534.07-.967,4.024-1.681,5.033-1.549-1.693,16.408,14.814-.129,6.002-4.528-4.901-2.447-14.91,6.941-13.73.99.754-3.799,18.88-7.816,21.727-5.463.349.288-1.753,6.08-1.884,7.605-1.108,12.849,4.26,22.016,3.869,33.864h0ZM942.024,112.477c1.557.401,24.915,6.728,20.97,10.518h0c-20.372-10.753-35.496-9.296-56.241-1.74-25.36,9.237-46.967,25.052-75.961,18.454-2.676-.609-15.881-5.78-15.77-8.209.117-2.574,34.809-18.534,39.714-20.263,29.899-10.541,57.191-6.504,87.288,1.24h0ZM829.461,52.963c39.125-2.646,66.679,5.82,78.533,46.033-57.467-10.786-103.061,35.651-152.988,55-7.177-54.6,16.551-97.117,74.455-101.033ZM749.752,198.706l5.035-4.514.914,1.02-5.035,4.514-.914-1.02h0ZM752.992,203.54c.204-1.283,2.841-4.516,3.508-4.519,7.684-.037-5.307,15.85-3.508,4.519ZM752.011,283.002c1.992.415,1.701,2.049,1.987,3.502,2.452,12.445,4.069,25.134,6.991,37.492h0l-8.495-26.984c-1.73-4.948-1.085-8.986-.483-14.01h0ZM644.523,340.024c25.259-27.997,64.739-40.341,100.471-49.025v.002c-.231,8.578,2.033,17.78,4.51,25.997,1.405,4.661,10.622,24.07,10.497,25.44-.636,6.966-25.828,34.628-29.021,43.555-2.529.415-1.551-.206-2.081-1.39-10.201-22.752-17.088-43.063-40.98-56.02-2.822-1.53-17.128-8.603-12.421-.578.474.808,12.663,7.987,15.514,10.485,11.049,9.678,33.253,42.637,30.606,57.543-1.818,10.235-8.041-.849-12.142-4.008-7.04-5.423-15.874-9.268-24.485-11.515-3.151-.822-12.777-3.703-7.955,1.956,2.523,2.96,19.716,10.005,25.441,14.559,2.21,1.758,11.15,10.339,10.059,12.939-5.879,3.708-16.701,22.278-21.794,24.278-3.894,1.529-7.987.267-11.963,1.037-12.388,2.4-24.595,5.973-34.768,13.721l.512-108.976h0ZM644,461.501h0c1.954-6.808,29.958-19.747,38-17.488-5.944,7.083-13.138,13.504-18.029,21.459-2.159,3.512-7.105,17.531-7.935,18.065-2.22,1.431-9.08-.059-12.036.464,1.073-5.87-1.451-17.445,0-22.5h0ZM166.001,800.994c-.917-.894,3.266-5.984,3.786-7.706.529-1.751-.107-5.805.224-6.287.339-.493,9.268,2.64,11.617,2.872,1.557.154,16.051,1.138,13.374-2.855-.928-1.384-28.084-7.536-31.997-9.012,10.129,33.771-50.521,32.418-55.558,8.052-4.311-20.858,26.322-14.039,28.328-26.812,1.562-9.946-9.75-9.65-14.772-14.749-5.453-5.537-4.419-15.68-12.53-22.47-6.895-5.772-20.429-6.299-21.492-7.424-2.699-2.858-6.063-18.351-5.567-22.629,1.658-14.295,27.88-52.973,41.619-57.44,8.142-2.647,23.406-1.758,31.627.837v.002c.253.08.275,1.197,1.098,1.581.921.43,2.789-.221,3.242.059.667.411-6.686,11.88-1.988,14.984,2.344,1.549,6.779-10.41,11.434-12.111,6.575-2.402,11.014,7.486,16.279,9.89,3.759,1.716,10.054,1.699,14.805,3.195,11.332,3.569,47.612,31.981,57.931,41.067,10.71,9.431,11.884,12.809,6.718,26.642-6.238,16.705-33.931,51.184-49.803,59.197-2.605,1.315-13.289,3.079-10.382,6.119,2.851,2.981,23.212-7.244,26.916-9.585,14.992-9.473,26.359-23.988,37.591-37.39,8.073,12.51,26.049,15.282,29.498,30.969-24.786.667-49.874,9.422-70.311,23.199-4.03,2.716-24.329,19.642-26.229,19.841-2.493.262-17.844-6.845-21.688-8.301-2.671-1.011-13.26-3.237-13.77-3.735h0ZM68,780.482c-.137,1.181-1.205,1.571-2.514.537-2.891-2.282-8.483-11.384-9.963-15.041-4.914-12.145-10.946-36.696-9.505-49.459.436-3.862,2.551-7.167,2.913-10.087,2.128-17.142-.474-23.399,6.898-41.102,6.881-16.523,38.88-66.494,59.694-41.357,7.592,9.169-10.682,10.242-16.082,11.969-4.977,1.592-8.021,4.829-12.432,7.074h0l3.247.75,11.787-3.063.742,1.573c-12.833,12.65-19.106,22.314-26.267,38.743-1.2,2.752-10.513,25.023-9.511,25.977,3.197,3.044,7.403-9.196,9.984-9.994-3.071,6.482,14.884,45.974,17.511,45.978,6.835.012-7.78-19.891-5.495-21.973,3.732-3.399,16.375,5.955,18.834,9.654,2.646,3.982,3.148,9.48,5.275,13.723,3.615,7.212,9.973,10.127,16.884,13.632,1.499,1.56-2.695,3.232-3.816,3.646-14.619,5.396-29.179,3.235-24.948,26.604.908,5.015,7.38,8.832-4.496,6.495-10.676-2.101-18.942-8.359-24.539-17.46-1.623-2.639-4.721-11.858-5.245-12.272-6.977-5.52,1.153,14.513,1.044,15.453ZM384,929.002c-2.312,1.793-4.363,2.514-5,3h0c-1.594,1.215-1.786,1.47-3,3h0c-4.658,5.872-11.002,13.863-15,20h.002c-2.632,4.04-5.933,10.543-8,15h-.002c-1.022,2.204-3.37,6.187-3.999,7.999,0,0,0,.002-.001.003-2.781,7.999-3.307,15.606-4.01,23.997-5.254-2.776-10.749-5.194-15.987-7.999h-.002c-3.046-1.631-8.806-3.637-11-6h0c-4.495-4.842-1.538-12.122-.251-17.792.083-.397.153-.789.248-1.189.001-.006.003-.013.004-.019h0c.896-4.871,1.701-7.87,3.999-12.998h0c6.831-15.242,17.605-28.178,31.926-36.953.026-.016.049-.033.075-.049h0c1.975-1.207,1.508-1.831,5-3h0c5.886-3.503,9.806-3.779,16-1,1.404.63,1.885,1.072,3,2l14.997,7.014-8.997,4.986h-.002ZM552,849.002l.98.494-2.98,2.506c-1.383,2.073-3.853,5.916-5,8-2.561,4.654-3.714,11.067-8,15-.06.322.077.689,0,1-.887,3.579-2.606,8.135-5,11-.096.303.096.697,0,1v.002h0c-4.303,13.642-8.533,25.735-11,40h0c-1.195,6.908-2.428,14.017-3,20.999h0c-.215,2.62.069,5.36,0,8,1.52.971,1.304,8.666.994,8.996-.97,1.034-20.643-4.211-22.994-4.996h-.003c-9.124-1.242-19.369-2.734-28.17-5.326-5.034-1.482-8.549-3.851-12.825-5.674h-.003c-.019-.008-.033-.015-.051-.023-7.124-3.036-15.045-6.053-20.947-10.966,6.968,1.481,15.141-2.103,21.46-1.968,1.861.04,3.932,2.126,4.497,1.931.1-.034-.119-1.537.749-1.973,5.052-2.538,16.741-6.378,22.292-7.001h.003-.003c.328-.037.668.025.999,0h.001c-.312-2.815.183-1.736,2-2.001h0c.324-.046.669.028.999,0h.007s-.007,0-.011,0c.004,0,.014-.002.019-.002l.161-.033c1.268-.373,8.505-3.959,10.35-6.208.06-.377.167-.779.339-1.213-.039-.058-.095-.11-.158-.161-.188-.071-.364-.151-.523-.242-.198-.059-.423-.109-.707-.141-1.253-.139-20.451,5.181-24.477,6,0,0,.001,0,.002.002-5.576,1.132-12.689,3.301-18,4h0v-.003s-.003,0-.005.002c-9.252,1.218-27.475,3.373-36.058,1.558-1.141-.241-10.563-4.584-10.973-5.027-1.426-1.536-.804-4.316-1.729-6.271-2.197-4.643-9.89-6.958-14.24-9.26.001,0,.003-.002.004-.003-.366-.195-.653-.822-.998-.998h0v.002c-1.914-.979-4.078-2.076-6-3h0c-1.077-.519-2.231-.636-3-1.001l-.005-.005s.002.004.004.006c-6.826-3.243-14.146-5.771-21-9h.008s-.004,0-.007,0c-3.647-1.718-15.999-6.602-17.961-8.535-1.633-1.609-2.61-5.376-4.036-7.461-.001,0-.002.003-.004.004-3.241-4.729-6.168-9.693-10-14,0-.002.001-.003.002-.005,0,0-.001,0-.002,0-1.004-.727-1.45-1.561-1.996-1.996-.001,0-.003,0-.004.002-3.037-2.403-6.927-6.534-9-8,.001,0,.003-.002.004-.003-.002,0-.004-.002-.005-.003-.725-.513-2.675-1.16-4-2,0,0-.001-.002-.002-.003-1.438-.911-3.57-2.303-4.994-2.997h-.004c-1.652-.805-5.336-2.415-7-3,0,0-.001,0-.002-.002-3.346-1.177-11.642-3.953-5.998,1.001h0s-.001,0-.002.002h0c5.862,5.145,13.274,8.862,19.999,14.999h.002c5.268,4.808,9.82,10.153,14.99,15.012-.29,2.381-1.598.571-2.493-.01-2.928-1.901-9.712-7.3-11.496-10.002,0,0-.001,0-.002,0-7.465-.296-13.213-5.491-20-8-.003-.002-.007-.004-.01-.006-3.966-1.465-9.776-2.937-13.98-3.994h-.009c-4.101-1.031-9.395-2.657-14-3-.006,0-.01-.002-.016-.003-14.758-1.098-29.83-.139-43.982,4.001,0,0,.001-.002.002-.003-.002,0-.003,0-.005.002-.341.357-.627.663-.997.998v.002h-.001c-.117.105-.381.162-.705.225-.473.146-.915.267-1.321.36-.527.24-.954.642-.972,1.403,2.973-1.015,10.084,1.506,12.328,1.017,7.055-1.537,13.125-2.411,21.671-2.006h.001c.333.016.668-.02,1,0h-.001s.003.002.004.002c11.168.662,22.329,2.653,32.996,5.999h0c1.079.339,1.263-.578,2,1h0c8.799,2.695,17.807,6.086,24.994,11.989l-33.994-4.989c-.321.956-1.898.625-2.013,1.501-.086.653,1.57.831,2.01,1.496h.003v.003h0c3.108.329,17.418,3.799,20,5h0c.443.206.72.853,1,1h0c3.739.546,7.444,1.807,11,3h0c8.052,2.702,16.38,6.326,23.997,9.998h.001l.002.002c5.467,2.636,14.661,6.397,19.336,10.165,4.877,3.93-.592,1.828-2.599,2.797-16.124,7.787-30.475,27.634-38.736,43.036v.003c-1.641,3.061-.919,1.576-2,3-.002.002-.005.003-.007.004-.577.756-1.773,1.261-1.778,2.69-.947,3.139-2.52,23.308-3.23,24.307-.414.583-11.512-5.332-12.989-6v-.005c-3.392-1.534-6.636-3.406-9.966-4.983-.012-.005-.022-.007-.034-.011-17.092-8.088-38.61-17.502-53.346-29.157-1.412-1.117-2.66-1.714-2.654-3.843l.002-.003h0c-.722-.369-1.886-.324-3-1l-.009-.011c-13.652-8.294-21.195-18.457-26.983-32.982-.002-.003-.004-.005-.006-.008-1.281-3.216-3.3-6.085-4-9.999h-.002c-.931-5.209-1.755-14.401,1-19v.023c0-.008.002-.016.003-.024.011-.332-.029-.67,0-.999h-.002c.028-.327-.063-.687,0-1h.003-.001c.288-1.429-.294-.934.998-1.999h.002-.002c.016.022.036.021.053.035-.024-.027-.042-.044-.05-.037,2.44-9.277,7.621-19.268,14.576-25.925,3.615-3.46,8.477-5.047,11.767-7.042,1.097-.665.325-2.53,1.3-3.093,8.036-4.641,22.053-8.154,31.356-7.94,1.273-1.699,4.14-.969,5.997-.996v-.002c.494.112.967.21,1.423.296-.44-.196-.914-.316-1.422-.296,2.205-.033,5.36.429,7.301-.199,3.296-1.065,6.035-19.816,7.413-24.587,1.54-5.33,5.089-10.163,6.067-16.025.946-5.67.719-7.488-3.774-4.196-.003.002-.005.004-.008.007-4.274,3.135-6.501,8.497-9,13-1.707,4.838-1.953,10.044-3,15-.636,3.012-.13,6.209-2,9h-.002.002c-2.568,3.833-6.719.985-10.443,1.268-16.917,1.284-23.898,4.459-38.557,11.732h-.001c-.342.171-.637.827-.998.998h0c-1.456.69-1.994,2.163-4.267,1.869-1.919-.248-2.665-1.776-3.351-2.532-.125-.107-.25-.215-.383-.336-2.372-1.348-7.379-1.97-5.519-5.985,1.102-2.379,18.083-16.298,21.519-19.015h0c2.288-1.81,4.666-3.3,7-5h0c1.183-.862,2.086-1.357,3-2h0c5.137-3.615,9.703-8.22,16-10h0c3.749-2.692,4.742-3.103,9-5h0c2.356-1.05,6.366-2.17,9-3h0c3.315-1.044,8.238-2.638,11-3h0c14.549-1.907,28.192,1.272,42,5.999h0c1.892.024,5.739.231,6,2.001,1.112-1.562,5.655.398,7.999,1h.001c5.312,1.366,9.605,3.383,15,4.001h.001c.328.037.669-.023,1,0,0,0,0,.002-.001.003.001,0,.002-.003.003-.004,1.641.113,3.35.002,5,0,5.036-1.726,7.876-7.997,10.997-10.999h0c.338-.325.594-.735,1-1,0-.003.002-.005.003-.007-.044-1.327.199-2.909.016-4.32-.608-.951-1.077-1.806-1.399-2.56-5.783-4.048-33.147-5.305-39.126-7.135-2.068.111-2.332,1.259-2.492,3.02h0c2.258-2.276,2.279.839,2.998,1.002,0,0,.001.002.002.003v-.006c4.119.936,30.992,4.76,31.872,6.123,1.792,2.775-3.13,9.148-5.572,9.709-2.162.497-13.065-3.116-16.299-3.832l-.002.003c-.951-.21-1.694-.538-2.313-.774l-.461-.154c-.074-.023-.156-.055-.226-.072h-.001.013l-.011-.004c-5.966-1.425-14.435-2.32-20.038-4.459-2.666-1.018-2.22-2.539-3.15-3.33-.269-.229-1.75.878-1.8.793-.219-.361-.081-3.11-.786-4.729-7.111-16.339-13.344-19.534-27.219-29.781-.203-1.04,16.802-6.076,18.995-6.495h0c6.473-1.237,7.7-1.162,13.994,0v.002c4.251.785,6.961,1.998,11.001,3,1.216.302,3.568.735,4.964.993l.041.003c1.23.228,4.148-.897,3.991.985-2.921.236-5.623,4.007-7.982,4.606-3.526.895-6.474-2.27-10.447-1.599-7.855,1.326-9.799,21.382-1.563,24.007l1.996-2.994h0c-.022-1.568.629-11.529,1.007-11.997.222-.275,6.067.831,6.993.996h.002c1.733-1.382,3.997-.386,6.369-1.035,6.684-1.829,19.536-12.736,8.629-16.964l-.002-.002-16.995-4.014c-.603-3.107,1.13-1.524,1.997-1.985h.002c2.631-1.4,5.437-2.411,7.998-3.999h0c3.852-2.388,5.908-3.772,10-6h0c1.747-.952,1.941-1.684,5-3h0s.004.002.007.004v-.01c11.43-4.918,9.461-3.434,21-4l-.007.004c7.142-.35,11.927-.801,18.997,0h.003c6.847.776,14.301,1.419,22,3,5.191,1.066,6.93,2.081,11,4,18.667,2.333,36.908,10.35,52.997,17.014-.917,1.848-6.454,6.618-8.06,6.558-1.873-.07-30.684-11.766-34.936-13.571h0c-1.346-.572-2.304-1.695-3-2,0,0-.002,0-.003,0-4.802-.775-9.367-2.596-13.994-3.998h-.003c-3.467-1.05-6.653-1.252-10-3h-.002c-3.56.504-22.543-3.078-23.991-.991-1.34,1.93,1.883,2.6,2.983,2.988h.012c.669.238,2.773.661,4,1l-.003.002h.006c7.97,2.202,25.366,4.834,30.992,9.997h0c3.686.522,5.747,1.74,9,3,.002,0,.003.002.005.003,5.326,2.062,12.123,4.177,16.987,6.993.003,0,.005.002.008.003,1.537.891,2.961,1.201,4,3,.003,0,.005.002.008.003,1.593-1.058,2.555-.175,3.972.432,13.395,5.748,26.823,12.326,40.009,18.565.004,0,.008,0,.012,0,1.795.849,4.819.858,6,3,.004.002.007.004.011.006,5.27,2.025,10.796,3.795,15.986,5.995h.003c.281.119,1.253,1.3,3,2,.635.14,1.078.316,1.356.547,7.865,3.153,15.781,6.326,23.638,9.454h.006c1.473.587,2.787,1.507,4,2,.003.002.006.004.009.006,2.841,1.156,7.159,3.254,8.976,3.99.005.002.01.002.015.004,1.579.638,3.436,1.059,5.637,1.95.306.124,4.66-1.217,4.357,3.044-2.012.23-4.399-.41-6.309.027-.422.096-4.753,2.357-6.685,2.979h-.007l.008.002c-10.846,3.493-21.633,7.13-32.266,11.234-4.985,1.924-15.626,8.256-19.734,8.766,0,0,.001-.002.001-.003h-.002c-.311.039-.685.021-1,0-.002,0-.004.002-.006.003-3.674,3.566-9.593,4.722-13.989,6.994-.001.002-.002.003-.003.005-1.321.684-2.589.78-3,1h0s.002-.005.003-.008c-.003.003-.006.005-.009.008-2.286,1.224-3.913,3.611-6.49,5.01-6.417,3.485-14.509,6.275-19.51,10.979,2.219-.212,4.88.337,7,.011l.003.004s.001-.002.002-.003c.69-.106,2.013-.737,3-1h.002c5.497-1.469,11.659-5.555,16.998-7.999h0c2.732-1.251,5.876-3.591,8.999-5h.005l-.005-.002c2.581-1.165,5.447-1.871,8-3l-.004.005s.003-.002.004-.003c3.81-1.685,8.971-4.706,12-6h.001s0,0-.001-.002c3.601-1.539,7.421-2.517,11-4v.003h0c1.061-.44,2.263-1.305,4-2h.004l-.003-.002c6.504-2.601,13.168-5.34,20-7h0s0,.003-.002.003h.002c.295-.274.396-.735.999-1.001v-.003c6.962-3.054,22.278-5.979,30-7h0s.004.002.005.002c2.889-.382,3.295.085,4.994,0h0c.663-.034,1.335.007,2,0,2.754-.034,5.477-1.436,8.528-1.092,1.752.197,1.412,1.845,2.836,2.262,8.525,2.494,12.685.374,2.637,5.83-.002.002-.005.004-.007.005-9.857,8.765-21.774,16.582-30.994,25.995-3.857,3.938-11.686,13.428-15,18l.005-.002ZM554.005,860.001c1.078-1.065,25.985,8.337,18.894,12.916h0c-1.187.765-16.982-5.516-17.916-6.398-1.242-1.173-1.382-6.119-.978-6.518h0Z"/>
  <path d="M856.092,392.905c6.396,4.144,13.012-13.562,2.655-11.751-6.454,1.129-4.727,10.409-2.655,11.751Z"/>
  <path d="M874.011,984.002c-2.797,13.763-3.225,26.728,1.989,40h10c-6.882-11.204-7.268-24.261-10.01-36.49-.319-1.424.037-3.103-1.978-3.51h0Z"/>
  <path d="M879.167,252.667c-7.43,2.238.927,3.437,4.036,4.435.842.271.824,1.826,1.464,1.917,5.241.741,14.619-1.926,17.333-7.006-7.724.423-15.272-1.624-22.833.654h0Z"/>
  <path d="M882.628,236.129c-1.614.168-20.583,4.37-16.622,7.867,1.002.884,16.685-1.877,19.554-2.028,2.657-.14,4.959,1.145,6.942,1.023,3.739-.23,17.796-.627,14.347-5.844-1.134-1.716-20.841-1.37-24.221-1.018Z"/>
  <path d="M883.479,219.004c3.412-2.326-3.072-4.896-3.952-7.024-2.347-5.676,3.488-8.774,2.462-9.978h0c-2.557-3-14.044,15.886,1.49,17.002h0Z"/>
  <path d="M886.461,155.965c.756-1.212,3.034-7.329,2.527-7.962-.325-.407-5.662,5.436-8.555,5.954-9.887,1.77-21.965-4.283-33.003-.025-2.738,1.056-19.739,10.648-16.424,14.065h0c.871.899,20.442-4.629,24.518-4.97,10.318-.863,24.341,3.507,30.938-7.062h0Z"/>
  <path d="M944.685,160.106h0c-2.65.842-2.712,4.873-1.134,6.823,1.601,1.978,12.287,7.404,15.937,11.084,18.353,18.505,20.628,46.986,4.923,67.899-2.995,3.989-16.371,13.373-12.977,18.153,4.126,5.813,18.899-12.422,21.196-15.934,14.75-22.546,13.702-49.962-3.216-71.043-3.585-4.468-19.123-18.765-24.728-16.982h0Z"/>
  <path d="M958.984,209.521c-.594-5.523-10.535-27.658-16.723-21.266-4.11,4.245,6.209,12.49,7.792,18.196,2.201,7.934,1.276,15.24-2.859,22.245-2.635,4.463-8.684,6.702-5.052,13.164h0c13.033-.808,18.03-21.282,16.842-32.339h0Z"/>
  <polygon class="cls-1" points="644.002 0 644 .002 644.002 .002 644.002 0"/>
  <polygon class="cls-2" points="644.002 .002 644 .002 644.002 .003 644.002 .002"/>
  <polygon class="cls-4" points="197 872.002 197 872.002 197.002 872.001 197 872.002"/>
  <polygon class="cls-4" points="386.006 721.003 386 721.002 386.005 721.003 386.006 721.003"/>
  <polygon class="cls-5" points="1024 981.002 1023.999 981.002 1023.999 981.005 1024 981.002"/>
  <polygon class="cls-5" points="409 701.502 408.5 701.002 408.5 702.002 409 701.502"/>
  <polygon class="cls-5" points="758 191.502 757.5 191.002 757.5 192.002 758 191.502"/>
  <polygon points="187.994 652.008 187.994 652.008 187.995 652.009 187.994 652.008"/>
  <polygon points="256.003 828.001 256 828.002 256.002 828.002 256.003 828.001"/>
  <polygon points="290.001 868.003 290 868.002 290 868.004 290.001 868.003"/>
  <polygon points="294 956.002 294 956.002 293.997 956.004 294.001 956.004 294.002 956.001 294 956.002 294 956.002"/>
  <polygon points="302 884.002 302 884.002 302.005 884.005 302 884.002"/>
  <polygon points="326.5 572.002 326.5 573.002 327 572.502 326.5 572.002"/>
  <polygon points="337 984.002 336.99 983.999 336.989 983.999 337 984.002 337 984.002"/>
  <polygon points="348.001 813.002 348 813.003 348.002 813.003 348.001 813.002"/>
  <polygon points="358.999 816.003 359 816.002 358.997 816.002 358.999 816.003"/>
  <polygon points="359.003 811.006 359.003 811.01 359.007 811.011 359.003 811.006"/>
  <polygon points="359.01 816.004 359.01 816.004 359 816.002 359.01 816.004"/>
  <polygon points="361.001 809.998 361 810.002 361.003 810.002 361.003 810.001 361.001 809.998"/>
  <polygon points="374.003 785.006 374.003 785.001 374.001 784.996 374 784.995 374 785.002 374.003 785.006"/>
  <polygon points="386.005 721.003 386 721.002 386.002 721.005 386.005 721.003"/>
  <polygon points="409.001 713.003 409 713.002 409.001 713.003 409.001 713.003"/>
  <polygon points="466 851.006 465.999 851.003 465.998 851.004 466 851.006"/>
  <polygon points="520.003 804 519.999 804 519.999 804.002 519.999 804.002 520 804.004 520 804.002 520.003 804"/>
  <polygon points="520.999 804 520.998 804 521 804.002 521 804.002 520.999 804"/>
  <polygon points="555 812.002 555.002 812.008 555.001 812.002 555 811.998 554.999 811.998 555 812.002"/>
  <polygon points="555.001 817.002 555.001 817.001 555 817.002 555 817.003 555.001 817.002"/>
  <rect class="cls-5" x="749.346" y="196.274" width="6.762" height="1.37" transform="translate(60.766 552.742) rotate(-41.874)"/>
</svg>