<?xml version="1.0" encoding="UTF-8"?>
<svg id="Layer_1" data-name="Layer 1" xmlns="http://www.w3.org/2000/svg" viewBox="0 0 1024 1024">
  <defs>
    <style>
      .cls-1 {
        fill: #fff;
      }

      .cls-2 {
        fill: none;
      }

      .cls-3 {
        fill: #934e1f;
      }

      .cls-4 {
        fill: #1271a1;
      }

      .cls-5 {
        fill: #083045;
      }

      .cls-6 {
        fill: #d92626;
      }

      .cls-7 {
        fill: #f0b375;
      }
    </style>
  </defs>
  <path class="cls-1" d="M.001,0v436.999H.001c4.187-7.055,11.567-16.77,14.221-24.277,2.056-5.816,1.84-11.752,4.954-18.046,3.031-6.126,9.448-11.907,13.226-17.774,30.669-47.618,50.797-97.818,86.186-143.814,84.332-109.607,166.011-114.381,294.832-82.01,9.118,2.291,28.822,10.294,36.204,10.874,6.442.506,16.359-3.584,25.909-2.988,5.406.338,21.686,6.084,22.844,5.844,1.3-.27,7.845-9.497,9.596-11.335,21.109-22.16,40.382-40.049,72.549-43.451,55.683-5.889,110.928,22.259,142.864,67.09,33.828,47.488,20.674,82.808-5.581,129.193-1.613,2.85-9.247,12.612-9.521,14.344-.585,3.69,10.429,31.859,12.212,38.354,2.687,9.793,9.389,31.884,3.355,40.347-7.986,11.201-26.565-5.25-32.877-11.825-2.805-2.922-11.116-15.998-11.993-16.519-1.275-.758-7.669,6.107-10.696,6.778-5.147,1.14-13.585-1.172-16.678-.55-1.847.371-3.825,5.429-5.577,7.295-2.41,2.568-15.51,13.137-15.859,14.141-.514,1.479-1.295,30.239-.163,31.322.562.538,9.742,1.537,14.489,5.011,9.025,6.605,8.047,15.726,11.764,19.741,3.031,3.274,12.829,5.065,17.2,12.293,4.64,7.673-.544,11.856.676,16.252.64,2.305,11.215,7.823,13.564,17.513s-3.845,14.457-3.65,15.579c.28,1.615,13.111,8.34,14.451,11.6,7.651-8.288,20.132-17.965,32.051-14.03,6.66,2.199,13.114,14.447,17.937,20.059,3.172,3.692,20.047,23.477,22.536,24.464,3.245,1.287,13.208.987,18.025,1.975,4.166.855,8.736,2.657,12.635,4.365,15.227,6.666,31.514,17.923,46.824,25.176,6.047-18.63,5.78-39.442,32.164-30.165,30.386,10.684,44.547,60.814,42.303,89.649-.541,6.946-4.203,15.371-4.641,21.152-.544,7.176,2.5,19.84,2.702,27.834.841,33.203-7.575,73.935-29.072,100.004-4.989,6.05-12.045,10.487-15.966,17.523,14.05,1.834,30.421,2.977,43.781,7.73,31.078,11.057-10.96,18.121-21.578,19.984-55.95,9.816-123.643,10.043-180.741,9.335-40.882-.507-134.054-12.375-167.161,4.762-8.822,4.567-20.668,17.179-29.409,23.591-46.88,34.39-103.662,38.217-158.902,50.098-17.641,3.794-47.956,14.965-64.477,13.496-20.626-1.833-34.827-2.287-55.996.03-22.869,2.504-41.032,11.906-62.139,14.861-19.097,2.673-46.973,3.32-66.839,4.161-37.587,1.591-75.129.979-112.527-3.037l-.012.002v63h1024V0H.001ZM823.501,198c-1.707,0-16.385-28.49-18.012-29.007-1.639-.521-16.808,25.916-18.488,29.007h-25l30.912-45.653-27.912-41.347c4.215.944,22.752-1.258,25,0,1.283.718,13.693,24.981,15.5,24.978,2.136-.004,14.03-24.978,15.5-24.978h24c-2.49,7.161-27.532,36.218-27.824,40.661-.224,3.402,28.395,39.437,30.824,46.339h-24.5ZM946.001,199h-86v-18.5c0-4.297,53.279-45.922,58.48-62.516,9.226-29.431-38.292-34.032-36.486-1.98-3.493-1.451-25.962-3.119-26.995-4.011-.628-.542,3.666-13.962,4.522-15.971,16.276-38.219,85.557-32.294,86.078,11.646.327,27.526-31.469,51.22-48.6,69.333h49.001v22h0Z"/>
  <path class="cls-1" d="M469.259,586.241c10.184,1.753,25.346,18.666,28.069,18.561,4.351-.168,18.021-12.779,23.35-15.625,6.442-3.441,21.293-6.448,25.176-11.824,1.718-2.379,10.245-26.642,10.095-28.902-.074-1.121-6.035-8.243-7.328-10.572-1.232-2.22-2.462-8.195-2.823-8.665h0c-.97-1.263-27.157-8.481-30.576-8.935-2.266-.301-19.496-1.388-20.485-1.115-1.473.407-15.309,14.414-18.271,16.802-10.812,8.72-23.004,16.894-37.095,18.905-30.397,4.339-56.774,11.139-86.136,20.865-1.226.406-4.218.734-4.229,2.253,19.491,1.267,37.183,10.594,55.988,14.518,5.452,1.137,15.579,2.923,20.869,2.917,13.436-.016,26.252-12.134,43.397-9.183h0Z"/>
  <path class="cls-1" d="M636.002,812.989c-6.322-5.036-21.458-22.212-29.521-22.089-1.654.026-5.035,6.352-6.99,8.089-6.508,5.782-15.013,8.279-21.489,14h58Z"/>
  <path class="cls-2" d="M169,847h.004v-.002c-.059-.007-.12-.013-.177-.02.056.006.119.017.174.022h-.001,0Z"/>
  <path class="cls-2" d="M250.001,813c.007.003.014.007.021.011-.007-.004-.013-.009-.02-.014h-.005s.002.002.003.003h.001Z"/>
  <path class="cls-2" d="M268.002,830.001v-.004c-.007-.008-.013-.016-.02-.024.006.009.013.018.019.028h0Z"/>
  <path class="cls-2" d="M277.01,842.013s-.005-.009-.008-.014c.01.013.02.028.03.041-.01-.014-.019-.029-.029-.043h-.003s.001.002.002.004c.003.004.006.009.008.013h0Z"/>
  <path class="cls-3" d="M485.001,200.989c.894.77,14.429-8.547,21.57-9.027,1.561-.104,5.145,1.321,5.423,1.034h-.001c.725-.746-7.464-19.18-8.487-18.99-1.608.298-19.745,25.916-18.505,26.983Z"/>
  <path class="cls-3" d="M530.006,220.007c-.307.324,1.158,3.968,1.09,5.479-.129,2.891-.857,7.794-1.355,10.753-1.15,6.839-13.975,30.66-2.262,30.843,5.545.087,18.611-8.257,26.517-5.088.604-4.113-18.88-47.375-23.99-41.987h0Z"/>
  <path class="cls-3" d="M719.006,838.988c1.072.717,2.737-.477,1.989-.977-1.072-.717-2.737.477-1.989.977Z"/>
  <path class="cls-3" d="M815.995,837.011c-1.072-.717-2.737.477-1.989.977,1.072.717,2.737-.477,1.989-.977Z"/>
  <path class="cls-3" d="M865.947,568.448c-2.42,2.216-9.374,24.584-8.937,27.971l13.978,24.572c4.437-14.228.406-28.628.025-42.991,28.903,36.167-6.409,74.559-18.026,109.484-3.835,11.528-6.546,23.435-7.992,35.519-2.654.338-1.557-.151-2.027-1.463-2.686-7.498.956-29.998-.475-32.529-2.521-4.459-29.153-16.249-35.102-16.902-25.239-2.772-39.277,16.028-72.228,8.229-8.456-2.002-13.939-9.408-11.719,2.72,4.243,23.185,32.939,32.099,20.052,61.935-14.424,33.394-58.788,22.521-80.517,2.529-3.054-2.81-15.209-19.473-16.481-19.634-13.706-1.739-44.176,21.423-43.465,34.485.078,1.421,4.234,18.464,4.958,19.137.845.786,5.954,1.806,8.038,2.962,15.657,8.684,26.498,22.489,41.669,32.331,17.601,11.419,39.177,20.569,60.315,20.696-7.815-3.901-15.888-7.808-22.899-13.113-1.694-1.281-12.375-8.939-10.107-11.382,36.995,24.057,90.416,33.117,131.664,15.165,2.531-1.101,18.535-10.918,19.324-10.164,2.561,2.449-16.959,17.316-18.989,18.5,16.219-1.536,32.227-11.983,44.886-22.114,26.414-21.139,41.852-48.749,47.809-82.191,3.03-17.014,2.187-33.057,2.296-50.192l-21.985,36.986h0c-.219-26.528,23.141-50.605,24.025-76.462.602-17.595-8.602-46.607-19.622-60.446-4.612-5.792-21.329-20.172-28.468-13.638h0ZM852.222,775.72c-1.358,1.958-15.013,18.714-17.214,16.274h0c-1.609-1.782,8.782-14.38,10.407-17.081,10.869-18.07,15.628-35.378,17.571-56.429,1.236-13.395-.172-27.572,2.511-40.478,1.752,3.022,2.264,8.997,2.489,12.511,1.862,29.103,1.442,60.394-15.763,85.203h0Z"/>
  <path class="cls-4" d="M14.259,846.933c23.058-4.164,48.894-8.684,73.256-10.923,32.822-3.016,55.589-.34,87.471-12.529,17.302-6.615,40.187-17.449,55.667-26.333,23.964-13.752,51.084-20.655,75.737-33.263,12.504-29.589,38.167-58.12,70.607-64.881.609,2.574-.78,1.756-1.872,2.592-11.706,8.948-22.9,12.991-34.147,24.877-2.487,2.628-21.566,28.019-19.974,29.514.818.768,15.789-12.441,17.688-13.801,40.938-29.322,97.789-38.918,144.658-18.034,39.477,17.589,65.044,51.459,60.516,96.209-.332,3.285-.741,9.04-3.851,10.638-1.424-26.573.895-52.061-18.473-73.037-39.031-42.272-112.237-45.855-160.558-18.483-1.081.612-13.897,8.046-11.98,9.509,16.669-2.946,36.403-8.065,53.376-5.862,2.264.294,7.272,1.228,3.618,3.367-2.788,1.632-33.467,5.342-40.177,6.823-27.041,5.968-44.058,15.08-68.459,26.541-2.377,1.116-14.796,5.548-15.352,6.159-.368.405-.232,1.384.621,2.055,3.229,2.546,8.089,4.696,11.842,7.959,36.034,31.332,53.854,80.614,49.537,127.969,48.04-13.972,107.063-15.51,151.666-38.829,29.452-15.398,44.746-46.847,66.189-70.812,5.41-50.493-32.05-86.275-72.193-109.528-4.721-2.735-30.241-14.738-31.163-16.856-3.281-7.533,15.648-20.672,15.455-28.371-.069-2.733-7.721-15.456-9.725-18.34-1.941-2.793-12.055-13.4-12.109-14.923-.035-.994.554-2.104,1.432-2.327,3.17-.805,32.975,19.277,34.227,24.699,2.818,12.198-14.113,25.794-18.781,36.271,43.455,20.799,88.623,51.356,100.698,100.814.844,3.458,1.875,14.523,2.77,16.231s1.448.348,2.17.134c5.659-1.669,20.103-10.264,21.679-16.345,4.299-16.588-11.115-49.263-19.907-63.732-24.002-39.496-89.175-102.458-136.875-106.125-4.244-.326-57.462-1.344-57.549,1.538-.06,1.985,33.543,12.634,37.248,13.763,6.777,2.064,29.297,5.861,33.102,8.898,3.902,3.114-.389,3.627-3.943,3.719-11.247.293-63.446-16.572-71.889-23.886-1.604-1.39-3.587-2.507-1.5-4.488,4.21-3.996,27.946-4.507,34.44-5.564,1.022-.166,6.046-2.286,4.549-3.926-1.352-1.48-26.05-9.339-30.006-10.5-7.593-2.228-17.078-4.746-24.791-6.216-118.329-22.555-241.959,3.082-359.193,20.697l-.009.005v238.997h.002c4.646-1.134,9.58-1.221,14.256-2.065h0ZM444.995,631.995c-.727.725-17.325-6.664-15.993-11.474,1.706-6.163,18.819,8.656,15.993,11.474ZM272.796,770.182h0c1.895,3.643-.828,5.206-4.502,4.042-14.024-4.441-43.042-38.841-52.683-51.333-5.511-7.141-12.966-15.478-15.597-23.891l72.783,71.182h0ZM36.007,678.006c1.252-1.313,2.681,1.759,3.195,2.293,25.362,26.345,40.51,48.305,70.907,72.092,11.723,9.174,29.977,18.615,39.824,27.175.71.617,3.101,2.51,2.062,3.427h0c-3.191,2.816-24.677-8.58-28.661-10.826-30.341-17.103-57.017-43.86-76.146-72.854-1.546-2.343-12.237-20.201-11.182-21.307h.001Z"/>
  <path class="cls-4" d="M310.007,932.994c.899.973,24.77-5.34,25.753-6.228h0c2.921-2.642,2.601-25.36,2.29-30.317-1.991-31.763-21.814-71.282-45.038-92.962-2.921-2.727-15.887-13.442-18.902-13.999-4.802-.888-20.083,8.514-26.108,8.523,36.221,24.777,61.425,68.129,63.037,112.45.14,3.855-1.798,21.705-1.032,22.533h0Z"/>
  <path class="cls-4" d="M484.996,612.484c.613-2.541-14.089-16.698-18.562-17.409-4.009-.637-32.427,6.524-33.429,7.937h0c-3.589,5.061,22.239,1.34,24.356,2.127,2.004.745,1.743,4.421,3.683,6.317,3.888,3.801,22.963,5.121,23.951,1.028h.001Z"/>
  <path class="cls-5" d="M115.722,567.286c-1.578-1.464-20.569-8.536-23.957-9.549-22.008-6.577-37.185-5.491-59.252-5.65-13.118-.094-5.211-5.126,3.288-6.787,27.213-5.319,53.19,1.666,78.195,11.695-2.079-5.643-1.166-26.314-3.162-29.832-.702-1.238-21.376-11.015-25.138-13.357-7.855-4.891-14.831-10.947-22.679-15.803-5.855,11.566-15.405,23.843-25.004,32.508-6.601,5.958-17.276,14.668-26.006,15.483l32.005-36.483c-5.173-1.862-32.155-1.008-33.007-6.026-.168-.991,1.104-2.485,1.496-2.485h34.5c-2.236-5.261-9.28-8.973-13.526-12.974-11.27-10.62-22.945-23.399-28.488-38.018L.007,454.994l-.006.006v145h.005l121.002-19.003c1.005-.994-4.264-12.764-5.286-13.711Z"/>
  <path class="cls-5" d="M40.591,463.912c-8.92-12.197-16.326-24.865-22.089-38.889-1.621,4.355-9.222,13.384-10.095,16.954-1.153,4.716,18.356,29.056,22.638,33.525,1.781,1.859,19.602,17.978,20.95,16.493h0c.411-.452,2.939-10.957,2.538-11.95-.696-1.722-11.603-12.933-13.943-16.133h.001Z"/>
  <path class="cls-6" d="M122.731,421.291c-.129-2.263-3.808-5.372-4.495-9.024-4.097-21.765,13.331-56.366,14.431-76.894.35-6.542-5.09-21.177-5.702-29.834-.805-11.385,0-25.288,2.713-36.362.302-1.233,5.519-19.287,8.319-16.169.66.734-2.789,16.266-2.977,19.511-.25,4.318.353,29.143,1.994,31.483,1.786,2.547,8.855-29.92,9.482-32.007,1.926-6.407,4.412-13.99,6.763-20.237.625-1.66,11.371-29.565,14.738-25.75l-36.824,161.805c32.455,21.33,71.889,35.669,110.508,41.011,5.489.759,27.902,3.942,31.358,1.714,1.525-.983,9.871-31.759,9.853-34.927-.038-6.832-5.98-28.222-8.175-35.823-2.441-8.453-6.412-16.295-8.705-24.778,7.629,7.035,12.328,16.822,16.006,26.477,2.065,5.421,2.881,12.388,4.878,17.125.53,1.257-.406,1.759,2.092,1.389,30.582-55.659,40.315-149.85-28.307-181.177-3.604-1.645-24.505-7.69-7.145-6.854,18.452.889,36.838,15.366,47.278,29.72,24.616,33.847,23.373,81.164,14.198,120.306,23.28-35.152,27.189-88.999,12.751-128.255-1.949-5.299-6.061-10-6.75-15.738,29.179,31.464,27.364,89.317,12.735,127.246-11.524,29.877-32.043,41.033-41.248,72.752-2.822,9.726-13.514,62-17.54,65.46-2.203,1.893-7.167,1.845-8.442,3.558-.59.793-3,9.038-2.434,9.897,1.465,2.22,46.624,8.929,52.369,9.135,11.524.412,23.542-1.069,35.029-2.069,10.584-.921,39.26-3.013,47.713-6.287,14.515-5.622,29.264-36.901,37.003-49.997,1.93-3.266,12.542-17.731,12.822-19.184.403-2.091-.355-1.298-1.523-1.488-2.357-.384-8.556-1.334-10.461-.522l-51.794,41.254c-4.173,1.021-32.827-5.734-34.164-9.398-2.091-5.728,19.621-20.33,23.959-24.822,5.219-5.405,26.743-41.836,23.877-46.425-.376-.602-11.475-4.873-13.13-5.395-5.135-1.621-29.678-4.723-30.639-7.358-2.712-7.433,10.463-55.727,13.591-66.123,9.975-33.154,26.673-75.354,49.296-101.704,5.143-5.99,12.391-11.039,17.33-16.438.703-.769,1.004-.599.635-2.079-76.981-22.975-160.752-42.791-234.302,1.179-73.941,44.203-109.488,126.371-150.527,197.473-16.462,28.52-33.413,33.329-14.336,68,15.477,28.127,45.683,53.218,74.157,67.332-2.566-7.042,4.342-30.83,2.91-35.32-.354-1.11-16.839-10.066-19.808-12.27-14.665-10.885-30.684-31.336-33.09-49.91v.002c-.617-4.774.45-10.588,0-15.5,5.527,9.019,7.894,19.564,13.145,29.355,9.33,17.394,23.248,31.457,40.844,40.644-.606-10.155,8.233-29.024,7.74-37.71h.001Z"/>
  <path class="cls-6" d="M271.005,438.001c-39.213-1.144-83.544-10.6-118.359-29.146-8.288-4.415-15.6-10.098-23.639-14.849-1.003,12.965-3.619,14.467,6.529,22.964,23.555,19.723,77.656,34.639,108.097,37.898,17.109,1.832,26.797,4.832,27.372-16.867Z"/>
  <path class="cls-6" d="M408.521,404.02c8.238-8.649,35.277-4.324,46.473-3.026-2.918-10.718,1.817-18.993-13.254-16.745-14.416,2.15-29.776,10.219-41.627,18.364-15.107,10.383-28.875,22.915-43.107,34.376,8.603-1.21,20.653,5.991,28.34,2.852l43.645-31.861c-.029-.739.475-1.703-.494-1.985-3.847-1.118-19.757,2.541-21.491.999-.909-.808.928-2.358,1.515-2.974h0ZM384.499,431.089c-11.154-.751,10.521-13.364,11.491-12.089,2.555,3.36-6.286,12.439-11.491,12.089Z"/>
  <path class="cls-6" d="M410.616,366.114c-1.857,1.354-13.596,27.653-12.603,28.885,1.128,1.401,27.264-17.975,30.806-18.586-11.784-46.538-10.62-99.39,6.701-144.394,4.799-12.467,22.471-47.996,35.662-51.337,10.215-2.587,15.095,6.899,21.818-8.67h0c-54.452-19.349-84.232,35.459-101.463,77.023-12.902,31.122-22.784,64.782-26.615,98.358.87,3.338,47.252-.732,52.574,11.632,2.56,5.947-4.093,5.058-6.88,7.089Z"/>
  <path class="cls-6" d="M542.975,221.527c1.139,1.242,7.684,8.368,9.011,7.471.749-.507,6.914-13.311,8.603-15.91,27.979-43.048,66.393-74.945,121.412-63.099-1.74-2.862-5.019-4.845-7.688-6.801-35.54-26.056-93.828-34.522-131.032-9.408-6.05,4.084-34.093,28.785-34.022,34.546.086,6.937,27.628,46.567,33.716,53.201Z"/>
  <path class="cls-6" d="M558.989,537.999c-.071-1.748,1.815-6.915,1.001-7.999-.789-1.05-9.363,3.903-1.001,7.999Z"/>
  <path class="cls-6" d="M601.484,445.942c2.489-2.124,20.113-14.223,20.517-15.442h0c1.543-4.65-1.145-17.801,0-23.5-7.699,6.039-15.499,12.499-20.477,21.023-1.352,2.461-10.937,3.137-10.53,5.466.14.802,9.981,9.495,10.49,12.453h0Z"/>
  <path class="cls-6" d="M669.021,298.479c-32.738-18.27-69.117-28.856-100.333-50.667-1.696-1.185-15.968-13.579-16.682-12.807,13.131,25.187,19.878,58.351,38.029,80.46,27.734,33.781,81.551,26.104,113.486,55.514,6.579,6.059,8.024,14.169,15.469,19.02h0c-6.36-20.617-10.181-42.532-17.727-62.762-5.606-15.029-18.692-21.196-32.242-28.758Z"/>
  <path class="cls-6" d="M698.012,162l3.983,9.994c-4.874-2.213-5.464-8.116-10.274-11.212-4.67-3.004-14.77-4.855-20.373-5.627-56.047-7.724-88.88,33.585-116.292,75.345,42.689,36.613,104.022,44.032,145.445,82.481,17.879-27.177,39.863-62.198,32.046-96.027-4.667-20.198-19.252-41.355-34.535-54.954h0Z"/>
  <path class="cls-7" d="M122.002,533h0c1.261,13.747,2.859,28.7,11,40h0c2.176,3.021,2.906,5.939,7.52,6.041,14.191.312,35.743-4.802,50.992-6.029,43.878-3.532,79.638-.487,122.476-.012.004,0,.008,0,.012,0h0c2.834.031,6.289.293,9,0,.003,0,.005,0,.008-.002,19.417-2.102,56.237-15.751,76.755-21.735,14.169-4.132,14.917-4.838,30.236-6.264.985-.092,2.014.088,3,0,6.745-.599,15.797-1.273,20.997-5.997.001,0,.003,0,.004-.002,10.928-4.37,19.864-13.452,27-22l.069-.092c.11-.137.212-.272.302-.403l2.629-3.505c.314-.317.663-.765,1-1,.419-.175.858-.325,1.293-.478,2.842-.88,5.302-.523,8.206-.523h18c2.413,0,5.218.555,8.26,1.399,3.796,1.461,7.61,2.716,11.442,3.756,9.86,3.414,20.306,6.771,27.795,3.846h.004c10.429-4.075-6.872-8.57-10.693-10.807-7.188-4.209-11.927-8.262-20.307-12.193-.004-.002-.009-.004-.013-.007.004.002.008.004.013.006-11.621-12.606-31.123-7.051-44.999-15-1.756-5.868,3.007-2.579,8-1.999h.009c10.006,1.161,20.02,2.533,29.983,3.998.003,0,.005.001.008.002.982,1.279,24.313,13.973,28,16,.002,0,.003.001.005.002,7.248,3.986,19.445,14.637,26.412,6.914,10.844-12.022-11.037-19.115-6.724-4.876v.018c-1.517.97-1.428,1.289.306.941.781,1.895,3.182,2.141,4,4,.494-.223.929-.464,1.336-.713-.423.359-.873.614-1.335.713-2.895.62-5.344-1.552-8-2,0,0,0,.001,0,.002h0c-4.885-8.616,2.845-10.497-.091-15.354-1.091-1.804-29.947-23.225-33.599-25.457-10.972-6.707-17.593-5.041-29.31-6.19h-.001c-5.846-2.425-12.175-2.05-17.61-5.13-.466-.284-.936-.563-1.388-.87-.091-.308-.092-1.799,0-2,15.276,1.996,31.25-.092,45.999,5,0,0,0,0-.002-.001,0,0,.002,0,.003.001,13.29,7.041,25.312,19.309,39,26h.002-.003c5.043,7.768,21.516,11.722,23.616.034.884-4.92-1.001-5.187-2.74-6.333-.265-.255-.553-.492-.875-.701-16.597-16.773-38.582-27.734-56.694-42.882-4.617-.82-6.554-1.819-11.306-2.118h-.003,0c-12.599-.794-26.162.573-37.982-4.992-.006-.003-.012-.005-.017-.008.834-3.566.897-1.445,4-2l47.999,1h0c10.624,5.553,22.129,19.174,34,26l.003.002s-.003-.002-.004-.002h0c7.805,7.292,11.575,14.653,21.026,5.934.281-.197.602-.498.975-.934h0c.761-.759,2.85-2.254,2.859-2.442.459-9.969-7.666-11.309-12.859-15.558h0c-9.098-7.446-17.362-16.229-27-23h0c-18.025-19.441-36.529-13.21-59.189-8.689-6.36,1.269-36.167,7.488-39.509,10-1.524,1.145-2.469,4.548-3.302,5.689h.001c-14.795,20.259-24.93,40.921-41,62l-.008.008s.004-.006.007-.009c-7.924,2.992-8.692,13.234-8.314,21.426.023,1.467.12,2.972.31,4.526.001.016.003.033.004.048v-.004.005c.22,2.569,3.863,13.668,2.001,14,0,0,0,0-.001-.002-4.689-7.994-7.55-16.137-8.083-25.486-.24-4.207,2.721-7.617-.917-7.513h0c-10.969.314-23.078,3.543-33.999,5.001-2.589.396-5.175.743-7.762,1.066,2.584-.36,5.17-.721,7.761-1.067-13.993-.007-27.604,2.742-41.508,3.179-3.488.002-6.974-.045-10.457-.177-.012,0-.024-.001-.035-.002h0c-2.938-.216-7.8-1.558-10.999-1.999h-.002c-32.011-4.409-63.152-16.166-96-7,.007-.001.014-.002.021-.003-.007.001-.013.003-.02.004-.326.05-.676-.054-1,0h0c-10.057,1.668-21.108,7.195-31,9.999h.007s-.004.001-.006.002c-1.29.058-6.57,2.85-3.02-1.52,6.411-7.892,33.004-16.774,43.02-18.48.008-.002.017-.003.025-.005,14.257-2.426,28.425-2.889,42.88-1.078.038-1.862,4.051-9.018,3.089-9.912-.918-.854-21.556-1.631-24.995-2.006h0c-.329-.035-.67.04-.999.001-.007-.001-.013-.002-.02-.003.006,0,.013.002.019.002h0c-34.468-8.283-70.069-16.243-99.489-37.012-3.066,12.125-5.802,24.601-7.511,37.011,0,0,0,0,.002.001h0c-.798,5.792-1.525,12.185-2,18h0s0-.001,0-.002c-1.356,16.609-1.526,33.359,0,50h0ZM570.137,497.98c-.303,1.035-.473,2.35-.441,4.02-.306-1.368-.172-2.856.441-4.02ZM502.994,457.999c-.471-.024-.927-.073-1.39-.111.523.036.992.072,1.39.111ZM579.995,468.005c-2.507,9.001-3.272,12.369,6.006,16.995h0c-3.656.616-8.723.979-11-3-2.484-4.341-.306-12.466,4.994-13.995h0ZM579.147,444.723c-1.245,4.675,1.806,4.385,2.854,5.277,1.91,1.626,5.071,2.784,4.994,4.994-15.954,2.206-18.724-19.72-.994-14.982.426,4.078-5.64.151-6.854,4.711ZM452.013,539.739c.523-.188,1.045-.383,1.566-.581-.518.202-1.04.397-1.566.581ZM452.006,467.994c3.474-7.092,10.92-17.451,19.986-12.98l-19.986,12.98ZM493.501,450s-.011-.001-.015-.001c.005,0,.011,0,.016.001h0ZM514.502,450h0ZM448.592,437.092c4.372-7.038,11.545-13.622,20.402-13.085h.001-.001l-20.757,20.924c-6.124,3.159-.87-5.868.355-7.839h0ZM133.124,430.298c1.394.646,3.903,2.156,6.586,3.836-2.222-1.244-4.419-2.52-6.586-3.836ZM122.001,516.5v-.005.071-.067h0ZM122.043,498.57c-.016.31-.023.621-.041.931v.007-.008c0-.293.017-.606.042-.93h0Z"/>
  <path class="cls-7" d="M187.31,946.007l-3.309.993c1.104-.318,2.207-.651,3.309-.993Z"/>
  <path class="cls-7" d="M5.363,950.01c16.571.26,35.367,3.551,52.1,4.028,19.114.545,38.655.534,57.538-2.038h0c8.716-.207,17.31-.618,26-1h0c9.869-.433,20.236-.247,30-1h0c5.165-.398,8.278-1.64,12.999-3,4.563-1.536,9.141-3.019,13.728-4.469-3.473,1.215-6.943,2.399-10.418,3.477l46.691-14.007h-.003.002c5.585-.827,12.831.02,19-1h0c15.192-2.513,30.179-6.326,45.31-9.191,2.667-1.234,1.93-15.719,1.669-19.289-1.499-20.465-10.527-44.258-22.949-60.48-.01-.013-.02-.028-.03-.041.003.005.005.009.008.014-.003-.004-.006-.009-.008-.013,0,0-.001-.002-.002-.004-3.434-5.646-4.601-7.187-8.997-11.996h0c-.006-.009-.013-.018-.019-.028-4.474-6.621-10.675-13.492-17.96-16.962-.007-.003-.014-.007-.021-.011h0s-.002-.002-.003-.003c-1.965-1.64-3.347-4.364-6.719-4.786-4.037-.504-21.371,6.412-26.242,8.325-11.541,4.532-22.666,10.518-34.03,15.462-.002,0-.004.002-.006.002l-.006.003-.034.012-18.954,6.973,29.991,7.011h.002c.299.425,1.175,1.877,1,1.989-3.064,1.963-21.376-.578-25.996-.989h-.004.001c-.056-.005-.118-.017-.174-.022-3.004-.306-7.109-1.722-10.346-1.957-53.504-3.877-106.011,4.375-158.344,13.954-.045.008-.091.016-.136.025v1H0v90h.002c.666-.005,1.332.007,1.998,0l3.363.01h0ZM171.001,914l18-6c2.143-.345,9.666-2.075,10.996-.992.454.37-.801,2.364-.996,2.992-7.26,4.56-15.498,8.378-24,10-11.211,2.138-16.151,1.313-4-6Z"/>
  <path class="cls-7" d="M596.001,420h-.002s0-.001.002-.002c.344-.278.721-.656,1-1,.613-1.83,1.22-3.665,1.832-5.496-.533,1.812-1.125,3.641-1.832,5.497,4.76-5.874,5.837-15.1,7.836-23.507,1.053-3.165,2.113-6.323,3.164-9.491v-.002h0v-.002c4.207-7.147,10.127-13.355,16.999-17.999h0c11.835-4.538,24.737-.449,36.483-1.014,2.038-.098,7.321-1.009,8.509-2.972-24.334-11.361-53.163-12.395-74.497-30.008.469,3.764,5.646,8.415,8.506,10.994h0c2.019,4.219,3.98,5.789,7,8.999h0c4.133,7.456.414,7.431-6.736,5.235-.141-.043-.286-.098-.429-.148-.583-.229-1.162-.48-1.739-.736-7.722-3.81-18.06-15.262-24.096-20.352,0,0,0,.002.002.003,0-.001-.002-.002-.003-.003-3.514-5.85-3.987-11.074-10.309-15.192-3.525-2.296-12.096-2.992-8.691-6.808,0,0,.002,0,.003-.001,0,0-.002.001-.002.002,5.261-1.055,7.853-1.12,13,0h0c3.462.754,5.848,2.431,8.992,2.507-5.941-8.135-10.522-17.071-14.848-26.151-1.631-3.424-7.224-19.941-8.391-21.107-1.552-1.55-11.614-1.488-14.163-1.157-11.507,1.493-15.243,12.422-24.825-.356-9.958-13.278-1.233-16.941,2.235-29.735,2.598-9.585,4.448-27.458-3-35h0c-11.37-11.513-25.224-3.897-32,8-.001.002-.003.004-.004.006l.003-.006c-7.031,7.009-11.616,19.428-14,29l.005-.01s-.003.007-.004.01c-.658,2.642-.611,4.613-1,7,0,.003,0,.005-.001.008v-.008c-1.48,9.086-3.203,12.583,0,22v-.008s0,.005.001.008c.828,2.434,2.951,7.062,4.915,8.585,1.528,1.184,6.067,1.87,6.063,2.915-.018,4.177-9.109,3.445-11.978,2.5l-.002-.002c-.35-1.297-1.501-1.91-2.533-2.529-1.405-1.571-2.605-3.247-3.586-5.027-8.74-19.738,3.367-56.19,17.114-70.431-6.706,1.493-21.144-2.139-24.396,4.867-.524.624-.757,1.327-.597,2.118v.004h0c-6.935,8.361-13.862,28.275-17,39h0c-6.718,22.961-11.894,60.492-8,84v-.005.005c1.637,9.886,3.062,10.367,12.999,12.989-4.103-17.407,1.081-38.126,10.148-53.342,12.741-21.382,5.473,1.363,4.174,9.174-.942,5.668-1.997,11.437-2.322,17.178v.004-.003c-.94,16.6,1.528,33.633,4,50v-.007.006c.693,4.591,1.166,9.465,2,14h0c.434,2.356,2.404,15.461,3.047,15.958.827.64,9.059-1.533,10.953-1.958h0c4.316-.97,8.669-2.009,13-3h0c5.943-1.36,12.577-2.141,18-5-.007,0-.013.002-.02.003.007-.001.013-.003.02-.004.327-.043.671.038,1,0,.002,0,.004,0,.006-.001-.002,0-.004.002-.006.002,11.221-1.31,23.104-2.667,34,1-.002-.001-.004-.002-.006-.004.002,0,.004.002.006.003,1.713,1.132,3.063,3.13,4.991,3.998-2.559-10.924,9.686-21.661,20.009-21.987-2.617,3.308-6.741,4.75-9.421,8.068-10.822,13.398,1.122,14.436,8.968,21.874,4.977,4.718,7.797,12.054,14.453,15.047h.003-.003c6.505,2.925,9.59,3.369,15-1v.004ZM457.952,210.776c.276-.445.524-.766.725-.822.521-.147,1.144-.251,1.837-.328-.98.333-1.847.717-2.561,1.15h-.001ZM494.016,245c-.242.205-.614,4.673-1.326,6.193-1.556,3.321-3.582,5.654-4.448,9.547-.833,3.743,1.588,11.316-3.798,7.315-1.208-.897-4.195-6.604-4.443-8.056h0c-.599-3.506.423-8.291,0-11.999h0c2.932-6.739,5.712-12.732,12-17.001h.001s.007-.004.011-.007c.279-.207.58-.382.887-.548,4.092-1.784,13.607,2.065,14.097,1.552.62-.65-1.342-16.455-2.005-16.996-2.414-1.97-15.076,11.07-15.984,9.995-2.896-3.43,5.117-13.862,8.597-16.689.113-.087.231-.181.342-.264.017-.012.036-.028.053-.04-.001,0-.003.002-.004.002.002-.002.005-.004.007-.005,1.944-.939,5.872-2.301,8-2h0c10.23,11.936,5.364,30.983,2,45.001-9.271,7.824-9.708-9.62-13.985-6h-.002ZM584.501,381.022c1.397.014,6.751,8.531,5.494,9.972-1.883,2.159-9.862-10.015-5.494-9.972h0ZM600.944,357.823c-2.003-.957-3.971-2.069-5.9-3.351.207.058.418.13.638.24,2.385,1.2,3.983,2.231,5.263,3.11h0ZM559,345.997s0,.001,0,.002h0v-.002h0ZM559.001,346c-1.819-4.971-2.613-8.781-1-14,0,.001-.002.002-.004.003,0-.001.002-.003.003-.004h0c3.912-3.119,4.189,4.844,7.004,8.498,2.267,2.941,4.753,4.056,7.994,5.502h0c2.86,4.978,9.684,2.643,12.699,3.712,1.971.699,5.027,4.648,6.301,5.288v1c-8.526.12-15.929,2.561-23.781-.887-.729-.334-1.453-.69-2.168-1.086-.017-.009-.035-.017-.052-.027-1.605-1.398-5.787-6.186-7-8h.003Z"/>
  <path class="cls-7" d="M600.5,746.978c5.255-8.341,12.47-14.484,20.5-19.978h0c3.178-3.509,24.282-6.911,25-8.014.185-.284-2.26-4.652-2.08-6.601.023-.111.04-.222.068-.332.005-.016.006-.037.012-.052h0c.225-3.617-.032-7.366,0-11v-.006s.002.005.002.006c.451-12.773,7.71-17.736,19-21h-.003.002c1.001-.03,12.564-.027,8.995,2.994-.491.416-7.528,1.186-11.995,4.006-.003.002-.006.004-.009.007-13.435,8.49-10.211,25.693-1.996,36.985.002.003.003.006.005.008,6.316,13.5,19.838,25.096,34,30h.003c12.55,4.345,23.827,5.036,34.998-3.001h-.003.002c4.781-3.44,5.611-4.985,8-10,0-.003.003-.006.004-.009,0,.003-.002.006-.003.009,4.899-10.287,4.305-14.578-.747-22.967-.378-.663-.777-1.322-1.218-1.976-.012-.02-.023-.037-.035-.057.002.004.004.007.006.01-.002-.003-.004-.007-.007-.011-4.321-6.841-10.127-12.895-14-20-.002-.005-.004-.009-.006-.014.002.004.005.011.008.015-1.811-4.416-4.811-19.801-1.259-25.616.357-.477.756-.935,1.195-1.374.486-.381,1.038-.658,1.677-.789,1.82-.373,16.249,4.793,20.188,5.476,14.734,2.554,22.714.078,31.409-3.197,3.072-.913,6.175-2.052,9.321-3.419,2.84-.945,5.933-1.841,9.461-2.59,21.591-4.583,38.702,3.06,54.994,16.504,7.866-24.233,27.375-41.818,11.811-68.295-9.438-16.054-59.342-42.95-77.798-44.702h-.002c-6.06-.575-7.188.956-14-3,0,0-.002-.002-.003-.002,0,0,.003.002.004.002l-25-26s.004.006.006.009c-.002-.003-.005-.006-.007-.009-7.14-9.847-6.911-20.223-23.007-15.295-7.365,2.255-15.571,14.077-19.462,14.355-5.429.388-12.446-15.486-19.88-14.839-3.376.294-20.667,20.325-28.626,22.33-7.02,1.768-4.123-3.563-5.062-4.511-.45-.454-4.664.303-6.251-.069-.468-.11-7.151-5.191-7.712-5.763-6.886-7.02-3.399-11.952-5.326-18.931-.419-1.517-5.803-3.068-7.191-4.262-3.217-2.768-4.297-4.569-6.482-8.015h0s0-.001,0,0h-.002c-.003-.005-.005-.011-.008-.016l.009.015c-1.641-4.919-3.922-10.207-4.065-15.5-.241-8.937,6.071-16.475-3.429-22.497-3.118-1.976-10.321-1.418-11.503,1.015-.442.909,3.561,2.784,4.703,4.79.125.401.228.8.293,1.193,3.351,12.663-.179,11.931-7,21l-.002.002c-5.468,1.901-4.003,10.067-7.027,15.646-.856,1.221-1.841,2.342-2.971,3.352-1.802,1.285-9.542,4.693-9.824,5.171-.254.431-.758,5.98-1.176,7.829v.009c-.884,3.907-1.976,7.93-1.998,11.984,0,.002,0,.005-.002.007-.101.301-.885.649-1,1,0,.007-.003.014-.004.02-5.51,16.826-8.623,35.252-18.99,49.975l-.005.005c-23.451,6.093-41.073,22.76-61.997,33.986,49.552,27.99,90.929,71.911,114.498,123.992v.002ZM709.001,549c-.556.504-9.407,5.134-7.988,1.518.447-1.138,8.836-15.824,9.521-16.485,2.023-1.952,2.548-.863,3.467.967h0c-.168,4.418-1.597,10.911-5,14ZM699.526,556.074c-.025-.07-.06-.134-.078-.207.023.074.053.136.078.207ZM770.275,621.221c6.575-6.966,12.111-14.505,10.727-25.221h0c1.062-3.476,3.919-18.009,6.614-18.828.65-.198,2.524.54,3.386.828h0c8.144,7.32,7.47,15.159,5,25h0c-2.418,9.632-6.141,14.897-14,21-7.144,3.055-13.888,7.626-22,7.989,1.894-2.208,3.985-4.341,6.093-6.476,1.506-1.385,2.9-2.816,4.18-4.292ZM845.861,678.051c.279-.586.559-1.178.838-1.767-.332.954-.591,1.622-.708,1.717-.034.028-.089.03-.13.049h0ZM776.338,612.371c-.161.328-.305.666-.483.983-.123.219-.279.457-.45.703.321-.558.639-1.117.934-1.686h-.001ZM776.869,611.271c-.142.333-.312.648-.468.972.165-.321.312-.648.468-.972ZM755.016,582.221c.184.26.372.546.562.848-.19-.052-.362-.117-.493-.212-.116-.084-.093-.318-.069-.636h0ZM742.072,592.571c1.326-4.759,4.334-8.428,7.93-11.57h0c4.043-1.448,4.032,2.189,5.656,2.807,3.251,1.238,9.609.763,13.341,3.191,0,0,.002,0,.003.002,1.217,1.45,2.164,2.991,2,5-6.386-4.897-14.645-5.578-20,1-3.705,4.551-6.143,19.379-7.012,19.996-4.936,3.503-2.559-18.123-1.917-20.425h0ZM699.001,553c-.155,13.26,14.436,4.906,22,7h0c-.699.608-1.875,1.933-2,2-6.663,1.334-13.197,3.422-20,1-1.328-1.199-3.127-4.665-3.087-6.53.087-4.047,2.848-3.108,3.087-3.47ZM681.704,693.207c9.428-2.915,6.521,2.679,9.417,8.174,4.24,8.047,16.824,7.875,24.572,11.428,23.062,10.576,14.099,41-10.193,39.197-1.014-.075-8.177-1.752-8.491-2.056-.177-.172-.2-4.79-.005-4.942.635-.498,11.194,1.383,15.998-.007,0,0,.002-.002.003-.002,9.123-2.643,13.092-12.918,7.36-20.757-3.509-4.798-2.958-.683-3.364-.242h.003-.002c-3.593,3.908-7.116,8.554-12,11-.002,0-.004,0-.006.002.002,0,.003-.002.005-.003l-13,1c-.391-1.378-10.303-1.506-10.999-6.999,0,0,0-.002-.002-.003-2.799-5.982-1.906-12.595-1.999-18.99v-.007h0c.084-.234,1.856-.731,1.879-1.473.06-1.951-5.571-13.344.824-15.321h0ZM673.506,725.995c-.243-2.198-4.32-3.726-4.505-3.995-.474-1.014-.888-1.935-1.273-2.81-1.463-3.541-3.445-9.153-1.984-9.373.608.382,1.459,1.315,2.414,2.647,1.558,3.692,2.86,10.161,5.842,11.535.083.662.355,2.041-.495,1.995h.001ZM605.001,637c5.31,13.689,12.47,23.669,25.336,31.164,4.802,2.797,12.163,4.533,16.376,7.588,3.48,2.522-1.758,3.276-4.211,3.236-12.106-.197-32.351-18.002-38.501-27.987-.004-.007-.007-.014-.011-.02.002.003.003.005.005.008-.019-.035-.037-.071-.056-.106-.567-1.037-1.109-2.085-1.648-3.134-.314-.612-.627-1.226-.937-1.848-.541-1.091-1.077-2.184-1.591-3.286-.066-.14-.13-.282-.196-.422-.604-1.305-1.19-2.619-1.758-3.94-9.421-23.475-16.418-59.997-17.792-79.771-.253-3.643-.706-9.197.983-12.48h.002c.065.649-.095,1.365,0,1.998h0c4.436,29.21,13.047,61.723,24,89-3.189-8.22-5.802-16.626-8.087-25.133,2.536,8.42,5.219,16.801,8.087,25.133h0ZM589.185,495.601l-1.129.997c.158-.283.598-.611,1.129-.997ZM587.922,496.993c-.087,1.723-.298,3.35-.634,4.882.04-1.368.156-2.942.634-4.882Z"/>
  <path class="cls-7" d="M616.001,388c-2.052,4.151-5.666,10.982-6.028,15.486-.306,3.813,4.429-2.028,5.028-2.486,5.189-3.969,10.414-7.803,14.995-12.505-8.826-5.361-7.885-15.151-13.995-.495Z"/>
  <path class="cls-7" d="M626.962,376.518c.011,1.552,1.005,1.841,2.039,2.482,3.757,2.329,8.964,1.519,12-1,.685-.568,2.015-.845,1.999-1.988-3.366-.18-16.066-3.462-16.038.506Z"/>
  <path class="cls-7" d="M640.001,441c-7.555-5.112-12.926-4.016-20,1-2.058,1.459-3.698,2.764-5,5h0c-2.982,5.122-1.976,8.167-1.994,13.993l4.996-8.543,2.998-2.451c1.33,1.428.95,1.416.79,3.171-.782,8.562-3.802,18.409-4.79,27.829h0c-.633,6.028-2.65,10.433-.525,17.028,1.841,5.713,8.694,11.49,13.519,5.466-8.973-.246-13.898-8.142-10.994-16.494,2.001-5.757,5.909-6.591,11-4,.967,2.141,5.079,5.893,3.631,6.819-.417-.09-.956-.036-1.631.18-.222-.387.472-2.099-.159-2.803-1.431-1.595-9.657-2.243-9.802,2.275-.058,1.817,6.907,11.852,7.982,12.506,2.595,1.578,2.654-3.517,2.979-4.977h0v-.002.002l.01-.024c.314-.715.581-1.377.805-1.986l14.185-34.99c.662-7.669-1.563-14.645-8-19h0ZM635.988,488.997c-.195-.155-.372-.305-.538-.452.988-2.17,1.973-4.345,2.952-6.531-.862,2.301-1.683,4.62-2.414,6.983Z"/>
  <path class="cls-7" d="M654.016,461.996c-1.265.836-8.293,24.734-9.842,28.677-3.91,9.955-12.528,22.045-11.173,32.327h0c1.498,11.369,13.635,13.324,17,0,.44-.916.779-1.773,1.032-2.58l6.968-17.42c.153-.329.835-.631,1-1h0c2.678-5.979,9.53-23.601,8.942-29.421-.444-4.391-11.552-12.15-13.927-10.582h0ZM648.001,515c-8.027-9.131-11.744,3.676-6,10-.095.34.134.904,0,1h0c-16.291-5.067-2.052-30.255,8.002-10.999h0c-1.084.114-.477.226-2,0h-.001Z"/>
  <path class="cls-7" d="M662.346,513.523c.142,1.101,3.848,4.044,4.655,5.477-.278.405-.377,2.959-1.5,2.978-.553.01-3.717-4.438-4.486-3.975-.701.422-5.508,13.008-6.503,15.008,6.496-2.888,10.676-9.119,15.489-14.011,2.078-2.113,10.347-7.935,11-11,.758-3.562-2.617-8.477-5-11h0c-3.309-5.548-3.563-7.466-7.175-.675-1.007,1.893-6.61,16.194-6.48,17.198h0Z"/>
  <path class="cls-7" d="M689.001,728c6.912,4.445,12.218,1.889,18-2,1.551-1.043,4.23-1.146,5-3.999h0,0c.976-3.623-8.407-1.624-11.477-2.023-7.425-.966-12.302-2.977-18.518-6.97.574,4.227,1.844,7.338,3.995,10.993,1.164,1.979.207,2.204,3,4h0Z"/>
  <path d="M112.54,964.035c19.866-.841,47.742-1.488,66.839-4.161,21.107-2.955,39.27-12.357,62.139-14.861,21.169-2.317,35.37-1.863,55.996-.03,16.521,1.469,46.836-9.702,64.477-13.496,55.24-11.881,112.022-15.708,158.902-50.098,8.741-6.412,20.587-19.024,29.409-23.591,33.107-17.137,126.279-5.269,167.161-4.762,57.098.708,124.791.481,180.741-9.335,10.618-1.863,52.656-8.927,21.578-19.984-13.36-4.753-29.731-5.896-43.781-7.73,3.921-7.036,10.977-11.473,15.966-17.523,21.497-26.069,29.913-66.801,29.072-100.004-.202-7.994-3.246-20.658-2.702-27.834.438-5.781,4.1-14.206,4.641-21.152,2.244-28.835-11.917-78.965-42.303-89.649-26.384-9.277-26.117,11.535-32.164,30.165-15.31-7.253-31.597-18.51-46.824-25.176-3.899-1.708-8.469-3.51-12.635-4.365-4.817-.988-14.78-.688-18.025-1.975-2.489-.987-19.364-20.772-22.536-24.464-4.823-5.612-11.277-17.86-17.937-20.059-11.919-3.935-24.4,5.742-32.051,14.03-1.34-3.26-14.171-9.985-14.451-11.6-.195-1.122,5.999-5.889,3.65-15.579s-12.924-15.208-13.564-17.513c-1.22-4.396,3.964-8.579-.676-16.252-4.371-7.228-14.169-9.019-17.2-12.293-3.717-4.015-2.739-13.136-11.764-19.741-4.747-3.474-13.927-4.473-14.489-5.011-1.132-1.083-.351-29.843.163-31.322.349-1.004,13.449-11.573,15.859-14.141,1.752-1.866,3.73-6.924,5.577-7.295,3.093-.622,11.531,1.69,16.678.55,3.027-.671,9.421-7.536,10.696-6.778.877.521,9.188,13.597,11.993,16.519,6.312,6.575,24.891,23.026,32.877,11.825,6.034-8.463-.668-30.554-3.355-40.347-1.783-6.495-12.797-34.664-12.212-38.354.274-1.732,7.908-11.494,9.521-14.344,26.255-46.385,39.409-81.705,5.581-129.193-31.936-44.831-87.181-72.979-142.864-67.09-32.167,3.402-51.44,21.291-72.549,43.451-1.751,1.838-8.296,11.065-9.596,11.335-1.158.24-17.438-5.506-22.844-5.844-9.55-.596-19.467,3.494-25.909,2.988-7.382-.58-27.086-8.583-36.204-10.874-128.821-32.371-210.5-27.597-294.832,82.01-35.389,45.996-55.517,96.196-86.186,143.814-3.778,5.867-10.195,11.648-13.226,17.774-3.114,6.294-2.898,12.23-4.954,18.046-2.654,7.506-10.034,17.222-14.221,24.276v.002l.004-.002h.002v17.996s4.979-4.986,4.979-4.986c5.543,14.619,17.218,27.398,28.488,38.018,4.246,4.001,11.29,7.713,13.526,12.974H12.501c-.392,0-1.664,1.494-1.496,2.485.852,5.018,27.834,4.164,33.007,6.026l-32.005,36.483c8.73-.815,19.405-9.525,26.006-15.483,9.599-8.665,19.149-20.942,25.004-32.508,7.848,4.856,14.824,10.912,22.679,15.803,3.762,2.342,24.436,12.119,25.138,13.357,1.996,3.518,1.083,24.189,3.162,29.832-25.005-10.029-50.982-17.014-78.195-11.695-8.499,1.661-16.406,6.693-3.288,6.787,22.067.159,37.244-.927,59.252,5.65,3.388,1.013,22.379,8.085,23.957,9.549,1.022.947,6.291,12.717,5.286,13.711L.006,599.999v9.997h.005c117.235-17.615,240.864-43.252,359.193-20.697,7.713,1.47,17.198,3.988,24.791,6.216,3.956,1.161,28.654,9.02,30.006,10.5,1.497,1.64-3.527,3.76-4.549,3.926-6.494,1.057-30.23,1.568-34.44,5.564-2.087,1.981-.104,3.098,1.5,4.488,8.443,7.314,60.642,24.179,71.889,23.886,3.554-.092,7.845-.605,3.943-3.719-3.805-3.037-26.325-6.834-33.102-8.898-3.705-1.129-37.308-11.778-37.248-13.763.087-2.882,53.305-1.864,57.549-1.538,47.7,3.667,112.873,66.629,136.875,106.125,8.792,14.469,24.206,47.144,19.907,63.732-1.576,6.081-16.02,14.676-21.679,16.345-.722.214-1.275,1.574-2.17-.134s-1.926-12.773-2.77-16.231c-12.075-49.458-57.243-80.015-100.698-100.814,4.668-10.477,21.599-24.073,18.781-36.271-1.252-5.422-31.057-25.504-34.227-24.699-.878.223-1.467,1.333-1.432,2.327.054,1.523,10.168,12.13,12.109,14.923,2.004,2.884,9.656,15.607,9.725,18.34.193,7.699-18.736,20.838-15.455,28.371.922,2.118,26.442,14.121,31.163,16.856,40.143,23.253,77.603,59.035,72.193,109.528-21.443,23.965-36.737,55.414-66.189,70.812-44.603,23.319-103.626,24.857-151.666,38.829,4.317-47.355-13.503-96.637-49.537-127.969-3.753-3.263-8.613-5.413-11.842-7.959-.853-.671-.989-1.65-.621-2.055.556-.611,12.975-5.043,15.352-6.159,24.401-11.461,41.418-20.573,68.459-26.541,6.71-1.481,37.389-5.191,40.177-6.823,3.654-2.139-1.354-3.073-3.618-3.367-16.973-2.203-36.707,2.916-53.376,5.862-1.917-1.463,10.899-8.897,11.98-9.509,48.321-27.372,121.527-23.789,160.558,18.483,19.368,20.976,17.049,46.464,18.473,73.037,3.11-1.598,3.519-7.353,3.851-10.638,4.528-44.75-21.039-78.62-60.516-96.209-46.869-20.884-103.72-11.288-144.658,18.034-1.899,1.36-16.87,14.569-17.688,13.801-1.592-1.495,17.487-26.886,19.974-29.514,11.247-11.886,22.441-15.929,34.147-24.877,1.092-.836,2.481-.018,1.872-2.592-32.44,6.761-58.103,35.292-70.607,64.881-24.653,12.608-51.773,19.511-75.737,33.263-15.48,8.884-38.365,19.718-55.667,26.333-31.882,12.189-54.649,9.513-87.471,12.529-24.362,2.239-50.198,6.759-73.256,10.923-4.676.844-9.61.931-14.256,2.065v10c.045-.008.089-.015.134-.023,52.333-9.579,104.84-17.831,158.344-13.954,3.237.235,7.342,1.651,10.346,1.957.058.007.118.013.176.02v.002c4.621.411,22.933,2.952,25.997.989.175-.112-.701-1.564-1-1.989h-.002l-29.991-7.011,18.954-6.973.042-.018h.004c11.364-4.944,22.489-10.929,34.03-15.462,4.871-1.913,22.205-8.829,26.242-8.325,3.372.422,4.754,3.146,6.719,4.786h.005c.007.004.013.009.02.014,7.285,3.469,13.486,10.341,17.96,16.962.007.008.013.016.02.024v.004c4.397,4.808,5.563,6.35,8.997,11.996h.003c.01.014.019.029.029.043,12.422,16.221,21.45,40.015,22.949,60.48.261,3.57.998,18.055-1.669,19.289-15.131,2.865-30.118,6.678-45.31,9.19h0c-6.169,1.021-13.415.174-19,1.001h-.002.003l-46.691,14.007c-1.102.342-2.205.675-3.309.993l3.309-.993c3.475-1.078,6.945-2.262,10.418-3.477-4.587,1.451-9.165,2.934-13.728,4.469-4.722,1.36-7.835,2.602-12.999,3h0c-9.764.753-20.131.567-30,1h0c-8.69.382-17.284.793-26,1h0c-18.883,2.572-38.424,2.583-57.538,2.038-16.733-.477-35.529-3.769-52.1-4.028l-3.363-.01c-.666.007-1.332-.005-1.998,0v10.997h.011c37.398,4.017,74.94,4.629,112.527,3.038h-.003ZM404.993,592.507c-18.805-3.924-36.497-13.251-55.988-14.518.011-1.519,3.003-1.847,4.229-2.253,29.362-9.726,55.739-16.526,86.136-20.865,14.091-2.011,26.283-10.185,37.095-18.905,2.962-2.388,16.798-16.395,18.271-16.802.989-.273,18.219.814,20.485,1.115,3.419.454,29.606,7.672,30.576,8.935h0c.361.47,1.591,6.445,2.823,8.665,1.293,2.329,7.254,9.451,7.328,10.572.15,2.26-8.377,26.523-10.095,28.902-3.883,5.376-18.734,8.383-25.176,11.824-5.329,2.846-18.999,15.457-23.35,15.625-2.723.105-17.885-16.808-28.069-18.561-17.145-2.951-29.961,9.167-43.397,9.183-5.29.006-15.417-1.78-20.869-2.917h.001ZM559.99,530c.814,1.084-1.072,6.251-1.001,7.999-8.362-4.096.212-9.049,1.001-7.999ZM461.045,611.456c-1.94-1.896-1.679-5.572-3.683-6.317-2.117-.787-27.945,2.934-24.356-2.127h0c1.002-1.413,29.42-8.574,33.429-7.937,4.473.711,19.175,14.868,18.562,17.409-.988,4.093-20.063,2.773-23.951-1.028h-.001ZM547.999,589l.005-.005c10.367-14.723,13.48-33.149,18.99-49.975,0-.007.003-.014.004-.02.115-.351.899-.699,1-1,0-.002,0-.005.002-.007.022-4.055,1.114-8.077,1.998-11.984v-.009c.418-1.849.922-7.398,1.176-7.829.282-.478,8.022-3.886,9.824-5.171,1.13-1.01,2.115-2.131,2.971-3.352,3.024-5.579,1.559-13.744,7.027-15.646l.002-.002c6.821-9.069,10.351-8.337,7-21-.065-.394-.169-.792-.293-1.193-1.141-2.006-5.145-3.881-4.703-4.79,1.182-2.433,8.385-2.991,11.503-1.015,9.5,6.022,3.188,13.56,3.429,22.497.143,5.293,2.424,10.58,4.065,15.5h0c2.185,3.447,3.265,5.248,6.482,8.016,1.388,1.194,6.772,2.745,7.191,4.262,1.927,6.979-1.56,11.911,5.326,18.931.561.572,7.244,5.653,7.712,5.763,1.587.372,5.801-.385,6.251.069.939.948-1.958,6.279,5.062,4.511,7.959-2.005,25.25-22.036,28.626-22.33,7.434-.647,14.451,15.227,19.88,14.839,3.891-.278,12.097-12.1,19.462-14.355,16.096-4.928,15.867,5.448,23.007,15.295.002.003.005.006.007.009-.002-.003-.004-.006-.006-.009l25,26s-.003-.002-.004-.002c0,0,.002.002.003.002,6.812,3.956,7.94,2.425,14,3h.002c18.456,1.752,68.36,28.648,77.798,44.702,15.564,26.477-3.945,44.062-11.811,68.295-16.292-13.444-33.403-21.087-54.994-16.504-3.528.749-6.621,1.645-9.461,2.59-3.147,1.367-6.249,2.506-9.321,3.419-8.695,3.275-16.675,5.751-31.409,3.197-3.939-.683-18.368-5.849-20.188-5.476-.639.131-1.191.407-1.677.789-.439.439-.838.897-1.195,1.374-3.552,5.815-.553,21.2,1.259,25.616-.002-.004-.005-.011-.008-.015.002.005.004.009.006.014,3.873,7.105,9.679,13.159,14,20,.002.003.004.007.007.011-.002-.004-.004-.007-.006-.01.012.02.023.037.035.057.441.654.84,1.314,1.218,1.976,5.051,8.389,5.646,12.679.747,22.967,0-.003.002-.006.003-.009,0,.003-.003.006-.004.009-2.389,5.015-3.219,6.56-8,10h-.002.003c-11.17,8.036-22.448,7.346-34.998,3.001h-.003c-14.162-4.904-27.684-16.5-34-30-.002-.003-.003-.006-.005-.008-8.215-11.292-11.439-28.495,1.996-36.985.003-.002.006-.004.009-.007,4.467-2.82,11.504-3.59,11.995-4.006,3.569-3.021-7.994-3.024-8.995-2.994h-.002.003c-11.29,3.264-18.549,8.227-19,21,0,0-.002-.005-.002-.006v.006c-.032,3.634.225,7.383,0,11h0c-.006.016-.007.036-.012.052-.028.11-.045.221-.068.332-.18,1.949,2.264,6.318,2.08,6.601-.718,1.103-21.822,4.505-25,8.015h0c-8.03,5.494-15.245,11.637-20.5,19.978-23.569-52.081-64.946-96.002-114.498-123.992,20.924-11.226,38.546-27.893,61.997-33.986v-.003ZM581.001,420.999c-6.656-2.993-9.476-10.329-14.453-15.047-7.846-7.438-19.79-8.476-8.968-21.874,2.68-3.318,6.804-4.76,9.421-8.068-10.323.326-22.568,11.063-20.009,21.987-1.928-.868-3.278-2.866-4.991-3.998-.002,0-.004-.002-.006-.003.002.001.004.002.006.004-10.896-3.667-22.779-2.31-34-1,.002,0,.004-.002.006-.002-.002,0-.004,0-.006.001-.329.038-.673-.043-1,0-.007.001-.013.003-.02.004.007,0,.013-.002.02-.003-5.423,2.859-12.057,3.64-18,5h0c-4.331.991-8.684,2.03-13,3h0c-1.894.425-10.126,2.598-10.953,1.958-.643-.497-2.613-13.602-3.047-15.958h0c-.834-4.535-1.307-9.409-2-14v-.006.007c-2.471-16.367-4.939-33.4-3.999-50v.003-.004c.325-5.741,1.38-11.51,2.322-17.178,1.299-7.811,8.567-30.556-4.174-9.174-9.067,15.216-14.251,35.935-10.148,53.342-9.937-2.622-11.362-3.103-12.999-12.989v-.005.005c-3.894-23.508,1.282-61.039,8-84h0c3.138-10.725,10.065-30.639,17-38.999h0v-.005c-.16-.792.073-1.495.597-2.118,3.252-7.006,17.69-3.373,24.396-4.867-13.747,14.241-25.854,50.693-17.114,70.431.981,1.78,2.181,3.456,3.586,5.027,1.032.62,2.183,1.233,2.533,2.529l.002.002c2.869.945,11.96,1.677,11.978-2.5.004-1.045-4.535-1.731-6.063-2.915-1.964-1.523-4.087-6.151-4.915-8.585,0-.003,0-.005-.001-.008v.008c-3.203-9.417-1.48-12.914,0-22v.008s0-.005.001-.008c.389-2.387.342-4.358,1-7,.001-.003.003-.007.004-.01l-.005.01c2.384-9.572,6.969-21.991,14-29l-.003.006s.003-.004.004-.006c6.776-11.897,20.63-19.513,32-8h0c7.448,7.542,5.598,25.415,3,35-3.468,12.794-12.193,16.457-2.235,29.735,9.582,12.778,13.318,1.849,24.825.356,2.549-.331,12.611-.393,14.163,1.157,1.167,1.166,6.76,17.683,8.391,21.107,4.326,9.08,8.907,18.016,14.848,26.151-3.144-.076-5.53-1.753-8.992-2.507h0c-5.147-1.12-7.739-1.055-13,0,0,0,.002-.001.002-.002,0,0-.002,0-.003.001-3.405,3.816,5.166,4.512,8.691,6.808,6.322,4.118,6.795,9.342,10.309,15.192,0,.001.002.002.003.003,0,0,0-.002-.002-.003,6.036,5.09,16.374,16.542,24.096,20.352.577.256,1.156.507,1.739.736.143.05.288.104.429.148,7.15,2.196,10.87,2.221,6.736-5.235h0c-3.02-3.21-4.981-4.78-7-9h0c-2.86-2.579-8.037-7.23-8.506-10.994,21.334,17.613,50.163,18.647,74.497,30.008-1.188,1.963-6.471,2.874-8.509,2.972-11.746.565-24.648-3.524-36.483,1.014h0c-6.871,4.644-12.792,10.852-16.999,17.999v.002h0v.002c-1.051,3.168-2.111,6.326-3.164,9.491-1.999,8.407-3.076,17.633-7.836,23.507.707-1.855,1.299-3.684,1.832-5.497-.612,1.83-1.219,3.666-1.832,5.496-.279.344-.656.722-1,1,0,0,0,.001-.002.002h.002c-5.41,4.369-8.495,3.925-15,1h.003-.003v-.003ZM407.006,406.994c1.734,1.542,17.644-2.117,21.491-.999.969.282.465,1.246.494,1.985l-43.645,31.861c-7.687,3.139-19.737-4.062-28.34-2.852,14.232-11.461,28-23.993,43.107-34.376,11.851-8.145,27.211-16.214,41.627-18.364,15.071-2.248,10.336,6.027,13.254,16.745h.001-.001c-11.196-1.298-38.235-5.623-46.473,3.026-.587.616-2.424,2.166-1.515,2.974h0ZM417.496,359.025c-5.322-12.364-51.704-8.294-52.574-11.632,3.831-33.576,13.713-67.236,26.615-98.358,17.231-41.564,47.011-96.372,101.463-77.024h0c-6.723,15.57-11.603,6.084-21.818,8.671-13.191,3.341-30.863,38.87-35.662,51.337-17.321,45.004-18.485,97.856-6.701,144.394-3.542.611-29.678,19.987-30.806,18.586-.993-1.232,10.746-27.531,12.603-28.885,2.787-2.031,9.44-1.142,6.88-7.089h0ZM543.281,133.78c37.204-25.114,95.492-16.648,131.032,9.408,2.669,1.956,5.948,3.939,7.688,6.801h0c-55.019-11.846-93.433,20.051-121.412,63.099-1.689,2.599-7.854,15.403-8.603,15.91-1.327.897-7.872-6.229-9.011-7.471-6.088-6.634-33.63-46.264-33.716-53.201-.071-5.761,27.972-30.462,34.022-34.546h0ZM700.501,312.981c-41.423-38.449-102.756-45.868-145.445-82.481,27.412-41.76,60.245-83.069,116.292-75.345,5.603.772,15.703,2.623,20.373,5.627,4.81,3.096,5.4,8.999,10.274,11.212l-3.983-9.994c15.283,13.599,29.868,34.756,34.535,54.954,7.817,33.829-14.167,68.85-32.046,96.027h0ZM718.99,389.999c-7.445-4.851-8.89-12.961-15.469-19.02-31.935-29.41-85.752-21.733-113.486-55.514-18.151-22.109-24.898-55.273-38.029-80.46.714-.772,14.986,11.622,16.682,12.807,31.216,21.811,67.595,32.397,100.333,50.667,13.55,7.562,26.636,13.729,32.242,28.758,7.546,20.23,11.367,42.145,17.727,62.761h0ZM553.996,261.994h0c-7.906-3.169-20.972,5.175-26.517,5.088-11.713-.183,1.112-24.004,2.262-30.843.498-2.959,1.226-7.862,1.355-10.753.068-1.511-1.397-5.155-1.09-5.479,5.11-5.388,24.594,37.874,23.99,41.987h0ZM503.506,174.006c1.023-.19,9.212,18.244,8.487,18.99h.001c-.278.287-3.862-1.138-5.423-1.034-7.141.48-20.676,9.797-21.57,9.027-1.24-1.067,16.897-26.685,18.505-26.983h0ZM641.001,378c-3.036,2.519-8.243,3.329-12,1-1.034-.641-2.028-.93-2.039-2.482-.028-3.968,12.672-.686,16.038-.506.016,1.143-1.314,1.42-1.999,1.988ZM676.001,497h0c2.383,2.523,5.758,7.438,5,11-.653,3.065-8.922,8.887-11,11-4.813,4.892-8.993,11.123-15.489,14.011.995-2,5.802-14.586,6.503-15.008.769-.463,3.933,3.985,4.486,3.975,1.123-.019,1.222-2.573,1.5-2.978-.807-1.433-4.513-4.376-4.655-5.477-.13-1.004,5.473-15.305,6.48-17.198,3.612-6.791,3.866-4.873,7.175.675h0ZM667.943,472.578c.588,5.82-6.263,23.442-8.942,29.421h0c-.165.369-.847.671-1,1l-6.968,17.42c-.253.807-.592,1.664-1.032,2.58-3.365,13.324-15.502,11.369-17,0h0,0c-1.355-10.282,7.263-22.372,11.173-32.327,1.549-3.943,8.577-27.841,9.842-28.677,2.375-1.568,13.483,6.191,13.927,10.582h0ZM648.001,460l-14.185,34.99c-.224.609-.491,1.27-.805,1.986l-.01.024c-.325,1.46-.384,6.555-2.979,4.977-1.075-.654-8.04-10.689-7.982-12.506.145-4.518,8.371-3.87,9.802-2.275.631.704-.063,2.416.159,2.803.676-.216,1.214-.27,1.631-.18,1.448-.926-2.664-4.679-3.631-6.819-5.091-2.591-8.999-1.757-11,4-2.904,8.352,2.021,16.248,10.994,16.494-4.825,6.024-11.678.247-13.519-5.466-2.125-6.595-.108-11,.525-17.028h0c.988-9.42,4.008-19.267,4.79-27.829.16-1.755.54-1.743-.79-3.171l-2.998,2.451-4.996,8.543c.018-5.827-.988-8.872,1.994-13.993h0c1.302-2.236,2.942-3.541,5-5,7.074-5.016,12.445-6.112,20-1,6.437,4.355,8.662,11.331,8,19h0ZM615.001,401c-.599.458-5.334,6.299-5.028,2.486.362-4.504,3.976-11.335,6.028-15.486,6.11-14.656,5.169-4.866,13.995.495-4.581,4.702-9.806,8.536-14.995,12.505ZM601.524,428.023c4.978-8.524,12.778-14.984,20.477-21.023-1.145,5.699,1.543,18.85,0,23.5h0c-.404,1.219-18.028,13.318-20.517,15.442-.509-2.958-10.35-11.651-10.49-12.453-.407-2.329,9.178-3.005,10.53-5.466h0ZM894.415,582.086c11.02,13.839,20.224,42.851,19.622,60.446-.884,25.857-24.244,49.934-24.025,76.462h0l21.985-36.986c-.109,17.135.734,33.178-2.296,50.192-5.957,33.442-21.395,61.052-47.809,82.191-12.659,10.131-28.667,20.578-44.886,22.114,2.03-1.184,21.55-16.051,18.989-18.5-.789-.754-16.793,9.063-19.324,10.164-41.248,17.952-94.669,8.892-131.664-15.165-2.268,2.443,8.413,10.101,10.107,11.382,7.011,5.305,15.084,9.212,22.899,13.113-21.138-.127-42.714-9.277-60.315-20.696-15.171-9.842-26.012-23.647-41.669-32.331-2.084-1.156-7.193-2.176-8.038-2.962-.724-.673-4.88-17.716-4.958-19.137-.711-13.062,29.759-36.224,43.465-34.485,1.272.161,13.427,16.824,16.481,19.634,21.729,19.992,66.093,30.865,80.517-2.529,12.887-29.836-15.809-38.75-20.052-61.935-2.22-12.128,3.263-4.722,11.719-2.72,32.951,7.799,46.989-11.001,72.228-8.229,5.949.653,32.581,12.443,35.102,16.902,1.431,2.531-2.211,25.031.475,32.529.47,1.312-.627,1.801,2.027,1.463,1.446-12.084,4.157-23.991,7.992-35.519,11.617-34.925,46.929-73.317,18.026-109.484.381,14.363,4.412,28.763-.025,42.991l-13.978-24.572c-.437-3.387,6.517-25.755,8.937-27.971,7.139-6.534,23.856,7.846,28.468,13.638h0ZM815.995,837.011c.748.5-.917,1.694-1.989.977-.748-.5.917-1.694,1.989-.977ZM719.006,838.988c-.748-.5.917-1.694,1.989-.977.748.5-.917,1.694-1.989.977ZM599.491,798.989c1.955-1.737,5.336-8.063,6.99-8.089,8.063-.123,23.199,17.053,29.521,22.089h-58c6.476-5.721,14.981-8.218,21.489-14ZM51.996,491.996h0c-1.348,1.484-19.169-14.635-20.95-16.494-4.282-4.469-23.791-28.809-22.638-33.525.873-3.57,8.474-12.599,10.095-16.954,5.763,14.024,13.169,26.692,22.089,38.889,2.34,3.2,13.247,14.411,13.943,16.133.401.993-2.127,11.498-2.538,11.951h-.001ZM114.991,459.001c-17.596-9.187-31.514-23.25-40.844-40.644-5.251-9.791-7.618-20.336-13.145-29.355.449,4.912-.618,10.726,0,15.5v-.002c2.405,18.574,18.424,39.025,33.089,49.91,2.969,2.204,19.454,11.16,19.808,12.27,1.432,4.49-5.476,28.278-2.91,35.32-28.474-14.114-58.68-39.205-74.157-67.332-19.077-34.671-2.126-39.48,14.336-68,41.039-71.102,76.586-153.27,150.527-197.473,73.55-43.97,157.321-24.154,234.302-1.179.369,1.48.068,1.31-.635,2.079-4.939,5.399-12.187,10.448-17.33,16.438-22.623,26.35-39.321,68.55-49.296,101.704-3.128,10.396-16.303,58.69-13.591,66.123.961,2.635,25.504,5.737,30.639,7.358,1.655.522,12.754,4.793,13.13,5.395,2.866,4.589-18.658,41.02-23.877,46.425-4.338,4.492-26.05,19.094-23.959,24.822,1.337,3.664,29.991,10.419,34.164,9.398l51.794-41.254c1.905-.812,8.104.138,10.461.522,1.168.19,1.926-.603,1.523,1.488-.28,1.453-10.892,15.918-12.822,19.184-7.739,13.096-22.488,44.375-37.003,49.997-8.453,3.274-37.129,5.366-47.713,6.287-11.487,1-23.505,2.481-35.029,2.069-5.745-.206-50.904-6.915-52.369-9.135-.566-.859,1.844-9.104,2.434-9.897,1.275-1.713,6.239-1.665,8.442-3.558,4.026-3.46,14.718-55.734,17.54-65.46,9.205-31.719,29.724-42.875,41.248-72.752,14.629-37.929,16.444-95.782-12.735-127.246.689,5.738,4.801,10.439,6.75,15.738,14.438,39.256,10.529,93.103-12.751,128.255,9.175-39.142,10.418-86.459-14.198-120.306-10.44-14.354-28.826-28.831-47.278-29.72-17.36-.836,3.541,5.209,7.145,6.854,68.622,31.327,58.889,125.518,28.307,181.177-2.498.37-1.562-.132-2.092-1.389-1.997-4.737-2.813-11.704-4.878-17.125-3.678-9.655-8.377-19.442-16.006-26.477,2.293,8.483,6.264,16.325,8.705,24.778,2.195,7.601,8.137,28.991,8.175,35.823.018,3.168-8.328,33.944-9.853,34.927-3.456,2.228-25.869-.955-31.358-1.714-38.619-5.342-78.053-19.681-110.508-41.011l36.824-161.805c-3.367-3.815-14.113,24.09-14.738,25.75-2.351,6.247-4.837,13.83-6.763,20.237-.627,2.087-7.696,34.554-9.482,32.007-1.641-2.34-2.244-27.165-1.994-31.483.188-3.245,3.637-18.777,2.977-19.511-2.8-3.118-8.017,14.936-8.319,16.169-2.713,11.074-3.518,24.977-2.713,36.362.612,8.657,6.052,23.292,5.702,29.834-1.1,20.528-18.528,55.129-14.431,76.894.687,3.652,4.366,6.761,4.495,9.024.493,8.686-8.346,27.555-7.74,37.71h0ZM243.633,454.868c-30.441-3.259-84.542-18.175-108.097-37.898-10.148-8.497-7.532-9.999-6.529-22.964,8.039,4.751,15.351,10.434,23.639,14.849,34.815,18.546,79.146,28.002,118.359,29.146-.575,21.699-10.263,18.699-27.372,16.867h0ZM122.001,483s0,.001,0,.002h0c.475-5.815,1.202-12.208,2-18h0s0,0-.002-.001c1.709-12.41,4.445-24.886,7.511-37.011,29.42,20.769,65.021,28.729,99.489,37.011h0c-.006,0-.013,0-.019-.001.007.001.013.002.02.003.329.039.67-.036.999,0h0c3.439.374,24.077,1.151,24.995,2.005.962.894-3.051,8.05-3.089,9.912-14.455-1.811-28.623-1.348-42.88,1.078-.008.002-.017.003-.025.005-10.016,1.706-36.609,10.588-43.02,18.48-3.55,4.37,1.73,1.578,3.02,1.52.002,0,.004-.001.006-.002h-.007c9.892-2.804,20.943-8.331,31-10h0c.324-.053.674.051,1,.001.007-.001.013-.003.02-.004-.007.001-.014.002-.021.003,32.848-9.166,63.989,2.591,96,7h.002c3.199.441,8.06,1.783,10.999,2h0c.012,0,.024,0,.035.001,3.483.133,6.969.18,10.457.177,13.903-.438,27.515-3.187,41.508-3.179-2.591.346-5.177.707-7.761,1.067,2.586-.322,5.173-.67,7.762-1.066,10.921-1.458,23.03-4.687,33.999-5h0c3.638-.105.677,3.305.917,7.512.533,9.35,3.394,17.492,8.083,25.486,0,0,0,0,.001.002,1.862-.332-1.781-11.431-2-14v-.005.004c-.001-.016-.003-.033-.004-.048-.19-1.554-.287-3.059-.31-4.526-.378-8.192.389-18.434,8.314-21.426-.002.003-.004.006-.007.009l.008-.008c16.07-21.079,26.205-41.741,41-62h-.001c.833-1.142,1.778-4.545,3.302-5.69,3.342-2.512,33.149-8.731,39.509-10,22.66-4.521,41.164-10.752,59.189,8.689h0c9.638,6.771,17.902,15.554,27,23h0c5.193,4.249,13.318,5.589,12.859,15.558-.009.188-2.098,1.683-2.859,2.442h0c-.373.436-.694.737-.975.934-9.451,8.718-13.221,1.358-21.026-5.934h0s.003.002.004.002l-.003-.002c-11.871-6.826-23.376-20.447-34-26h0l-47.999-1c-3.103.555-3.166-1.566-4,2,.006.003.012.005.017.008,11.82,5.565,25.382,4.198,37.982,4.992h0,.003c4.752.299,6.689,1.298,11.306,2.118,18.112,15.148,40.097,26.109,56.694,42.882.322.209.61.446.875.701,1.739,1.146,3.624,1.414,2.74,6.333-2.1,11.688-18.573,7.734-23.616-.034,0,0,.002,0,.003.001h-.002c-13.688-6.692-25.71-18.96-39-26.001,0,0-.002,0-.003-.001,0,0,0,0,.002.001-14.749-5.092-30.723-3.004-45.999-5-.092.2-.091,1.692,0,2,.452.307.922.586,1.388.87,5.436,3.08,11.764,2.705,17.61,5.13h.001c11.717,1.149,18.338-.517,29.31,6.19,3.652,2.232,32.508,23.653,33.599,25.457,2.936,4.857-4.794,6.738.091,15.354h0s0-.001,0-.002c2.656.448,5.105,2.62,8,2,.462-.099.912-.354,1.335-.713-.407.248-.842.489-1.336.713-.818-1.859-3.219-2.105-4-4-1.734.348-1.823.029-.306-.941v-.018c-4.314-14.239,17.568-7.146,6.724,4.876-6.966,7.723-19.164-2.928-26.412-6.914-.002,0-.003-.001-.005-.002-3.687-2.027-27.018-14.721-28-16-.003,0-.005-.001-.008-.002-9.963-1.465-19.977-2.836-29.983-3.998h-.009c-4.993-.58-9.757-3.869-8,1.999,13.876,7.948,33.378,2.394,44.999,15-.004-.002-.008-.004-.013-.006.004.002.009.004.013.007,8.38,3.931,13.119,7.984,20.307,12.193,3.821,2.237,21.122,6.732,10.693,10.807h-.004c-7.489,2.924-17.935-.432-27.795-3.846-3.832-1.04-7.646-2.295-11.442-3.756-3.042-.844-5.846-1.399-8.26-1.399h-18c-2.904,0-5.364-.358-8.206.523-.435.154-.874.303-1.293.478-.337.235-.686.683-1,1l-2.629,3.505c-.091.131-.192.266-.302.403l-.069.092c-7.136,8.548-16.072,17.63-27,22-.001,0-.003,0-.004.002-5.199,4.724-14.252,5.399-20.997,5.997-.986.088-2.015-.092-3,0-15.319,1.426-16.067,2.132-30.236,6.264-20.518,5.984-57.338,19.633-76.755,21.735-.003,0-.005,0-.008.002-2.711.293-6.166.031-9,0h0s-.008,0-.012,0c-42.838-.474-78.598-3.52-122.476.012-15.249,1.227-36.801,6.341-50.992,6.029-4.614-.102-5.344-3.02-7.52-6.041h0c-8.14-11.299-9.739-26.253-11-39.999h0c-1.526-16.642-1.356-33.392,0-50.001h0ZM248.002,798.011c6.025-.009,21.306-9.411,26.108-8.523,3.015.557,15.981,11.272,18.902,13.999,23.224,21.68,43.047,61.199,45.038,92.962.311,4.957.631,27.675-2.29,30.316h0c-.983.889-24.854,7.202-25.753,6.229-.766-.828,1.172-18.678,1.032-22.533-1.612-44.321-26.816-87.673-63.037-112.45h0Z"/>
  <path d="M122.002,499.501c.018-.31.025-.621.041-.931-.025.324-.042.637-.042.93v.008-.007h0Z"/>
  <path d="M123.335,772.167c3.984,2.246,25.47,13.642,28.661,10.827h0c1.039-.918-1.352-2.811-2.062-3.428-9.847-8.56-28.101-18.001-39.824-27.175-30.397-23.787-45.545-45.747-70.907-72.092-.514-.534-1.943-3.606-3.195-2.293-1.055,1.106,9.636,18.964,11.182,21.307,19.129,28.994,45.805,55.751,76.146,72.854h-.001Z"/>
  <path d="M139.71,434.134c-2.683-1.679-5.192-3.19-6.586-3.836,2.167,1.315,4.364,2.591,6.586,3.836Z"/>
  <path d="M175.001,920c8.502-1.622,16.74-5.44,24-10,.195-.628,1.45-2.622.996-2.992-1.33-1.083-8.853.647-10.996.992l-18,6c-12.151,7.313-7.211,8.138,4,6Z"/>
  <path d="M268.293,774.224c3.674,1.164,6.397-.399,4.502-4.042h0l-72.783-71.182c2.631,8.413,10.086,16.75,15.597,23.891,9.641,12.492,38.659,46.892,52.683,51.333h0Z"/>
  <path d="M384.499,431.089c5.205.35,14.046-8.729,11.491-12.089-.97-1.275-22.645,11.338-11.491,12.089Z"/>
  <path d="M429.002,620.521c-1.332,4.81,15.266,12.199,15.993,11.474,2.826-2.818-14.287-17.637-15.993-11.474Z"/>
  <path d="M448.237,444.931l20.757-20.924c-8.857-.537-16.03,6.047-20.402,13.085-1.225,1.971-6.479,10.998-.355,7.839h0Z"/>
  <path d="M452.006,467.994l19.986-12.98c-9.066-4.471-16.512,5.888-19.986,12.98Z"/>
  <path d="M453.579,539.158c-.521.198-1.043.393-1.566.581.526-.184,1.047-.379,1.566-.581Z"/>
  <path d="M458.676,209.954c-.201.057-.448.377-.725.822.714-.433,1.582-.817,2.561-1.15-.692.076-1.315.18-1.837.328h.001Z"/>
  <path d="M493.501,450h0c-.005,0-.01,0-.016-.001.004,0,.011.001.015.001h0Z"/>
  <path d="M501.604,457.889c.463.037.919.087,1.39.111-.398-.039-.867-.074-1.39-.111Z"/>
  <path d="M506.001,206h0c-2.128-.302-6.056,1.06-8,1.999-.002.002-.005.004-.007.005.001,0,.003-.002.004-.002,0,0,.002-.001.003-.002h.001l-.004.002c-.017.012-.036.027-.053.04-.11.083-.229.178-.342.264-3.48,2.827-11.493,13.259-8.597,16.689.908,1.075,13.57-11.965,15.984-9.995.663.541,2.625,16.346,2.005,16.996-.49.513-10.005-3.337-14.097-1.552-.306.167-.607.341-.887.548-.003.003-.007.005-.011.008h-.001c-6.288,4.268-9.068,10.261-12,16.999h0c.423,3.708-.599,8.494,0,11.999h0c.248,1.453,3.235,7.16,4.443,8.057,5.386,4.001,2.965-3.572,3.798-7.315.866-3.893,2.892-6.226,4.448-9.547.712-1.52,1.084-5.988,1.326-6.193,4.277-3.62,4.714,13.824,13.985,6,3.364-14.018,8.23-33.065-2-45h.002Z"/>
  <path d="M568.221,355.113c7.852,3.448,15.255,1.007,23.781.887v-1c-1.274-.64-4.33-4.589-6.301-5.288-3.015-1.069-9.839,1.266-12.699-3.712h0c-3.241-1.447-5.728-2.561-7.994-5.502-2.815-3.654-3.092-11.617-7.004-8.497h0l-.003.003s.002-.002.004-.003c-1.613,5.219-.819,9.029,1,14,1.213,1.814,5.395,6.602,7,8,.017.009.035.017.052.027.714.396,1.438.752,2.168,1.086h-.003Z"/>
  <path d="M569.696,502c-.032-1.67.138-2.984.441-4.02-.613,1.164-.747,2.652-.441,4.02Z"/>
  <path d="M581.002,548c-.095-.633.065-1.349,0-1.998h-.002c-1.688,3.283-1.236,8.837-.983,12.48,1.374,19.774,8.371,56.296,17.792,79.771.568,1.321,1.154,2.634,1.758,3.94.066.14.13.282.196.422.514,1.103,1.05,2.196,1.591,3.286.309.622.622,1.236.937,1.848.54,1.049,1.081,2.098,1.648,3.134.019.035.037.071.056.106.002.003.004.007.006.01h0s-.004-.007-.006-.01c-.002-.003-.003-.005-.005-.008.004.007.007.014.011.02,6.15,9.985,26.395,27.79,38.501,27.987,2.453.04,7.691-.714,4.211-3.236-4.213-3.055-11.574-4.791-16.376-7.588-12.866-7.495-20.026-17.475-25.336-31.164-10.953-27.277-19.564-59.79-24-89h0Z"/>
  <path d="M586.001,485h0c-9.278-4.626-8.513-7.994-6.006-16.995-5.3,1.529-7.478,9.654-4.994,13.995,2.277,3.979,7.344,3.616,11,3h0Z"/>
  <path d="M586.995,454.994c.077-2.21-3.084-3.368-4.994-4.994-1.048-.892-4.099-.602-2.854-5.277,1.214-4.56,7.28-.633,6.854-4.711-17.73-4.738-14.96,17.188.994,14.982Z"/>
  <path d="M587.289,501.875c.336-1.531.547-3.159.634-4.882-.478,1.939-.593,3.514-.634,4.882Z"/>
  <path d="M589.185,495.601c-.531.386-.971.714-1.129.997l1.129-.997Z"/>
  <path d="M589.995,390.994c1.257-1.441-4.097-9.958-5.494-9.972-4.368-.043,3.611,12.131,5.494,9.972h0Z"/>
  <path d="M600.944,357.823c-1.279-.88-2.877-1.911-5.263-3.11-.22-.111-.431-.182-.638-.24,1.929,1.282,3.897,2.394,5.9,3.351h0Z"/>
  <path d="M605.001,637c-2.868-8.332-5.551-16.713-8.087-25.133,2.286,8.507,4.899,16.913,8.087,25.133Z"/>
  <path d="M611.999,504h.002c-.003-.006-.006-.011-.009-.016.003.005.005.01.008.016h-.001Z"/>
  <path d="M635.988,488.997c.731-2.363,1.552-4.683,2.414-6.983-.979,2.186-1.964,4.361-2.952,6.531.166.147.344.298.538.452Z"/>
  <path d="M650.001,515c-10.054-19.255-24.293,5.932-8.002,10.999h0c.134-.096-.095-.66,0-1-5.744-6.324-2.027-19.131,6-10,1.523.226.916.114,2,0h.001Z"/>
  <path d="M668.159,712.465c-.955-1.332-1.806-2.265-2.414-2.647-1.461.219.521,5.831,1.984,9.373.385.875.799,1.796,1.273,2.81.185.269,4.262,1.797,4.505,3.995.85.046.578-1.333.495-1.995-2.982-1.375-4.284-7.844-5.842-11.535h-.001Z"/>
  <path d="M679.001,710h0v.008c.093,6.395-.8,13.008,1.999,18.99,0,0,0,.002.002.003.696,5.493,10.609,5.621,10.999,6.999l13-1s-.003.002-.005.003c.002,0,.004,0,.006-.002,4.884-2.446,8.407-7.092,12-11h.002-.003c.406-.441-.145-4.556,3.364.242,5.732,7.839,1.763,18.113-7.36,20.757,0,0-.002.002-.003.002-4.804,1.39-15.363-.491-15.998.007-.195.152-.172,4.77.005,4.942.314.304,7.477,1.981,8.491,2.056,24.292,1.803,33.255-28.621,10.193-39.197-7.748-3.553-20.332-3.381-24.572-11.428-2.896-5.495.011-11.089-9.417-8.174-6.395,1.977-.764,13.37-.824,15.321-.023.742-1.795,1.239-1.879,1.472h0ZM700.524,719.977c3.07.399,12.453-1.6,11.477,2.023h0c-.769,2.853-3.449,2.956-5,3.999-5.782,3.889-11.088,6.445-18,2-2.793-1.796-1.836-2.021-3-4-2.151-3.655-3.421-6.766-3.995-10.993,6.216,3.993,11.093,6.004,18.518,6.97h0Z"/>
  <path d="M699.448,555.867c.018.073.053.138.078.207-.025-.071-.055-.134-.078-.207Z"/>
  <path d="M714.001,535c-.919-1.83-1.444-2.919-3.467-.967-.685.661-9.074,15.347-9.521,16.485-1.419,3.616,7.432-1.014,7.988-1.518,3.403-3.089,4.832-9.582,5-14h0Z"/>
  <path d="M719.001,562c.125-.067,1.301-1.392,2-2h0c-7.564-2.094-22.155,6.26-22-7-.239.362-3-.577-3.087,3.47-.04,1.865,1.759,5.331,3.087,6.53,6.803,2.422,13.337.334,20-1Z"/>
  <path d="M743.989,612.996c.869-.617,3.307-15.445,7.012-19.996,5.355-6.578,13.614-5.897,20-1,.164-2.009-.783-3.55-2-5,0,0-.002,0-.003-.002-3.731-2.428-10.09-1.953-13.341-3.191-1.624-.618-1.613-4.255-5.656-2.807h0c-3.596,3.143-6.604,6.812-7.93,11.571-.642,2.302-3.019,23.928,1.917,20.425h0Z"/>
  <path d="M755.578,583.069c-.19-.301-.378-.588-.562-.848-.024.318-.047.552.069.636.131.094.303.159.493.212h0Z"/>
  <path d="M775.854,613.354c.178-.317.322-.655.483-.983-.295.569-.612,1.128-.934,1.686.171-.246.327-.483.45-.703h.001Z"/>
  <path d="M776.401,612.243c.156-.324.326-.639.468-.972-.156.324-.304.651-.468.972Z"/>
  <path d="M782.001,624c7.859-6.103,11.582-11.368,14-21h0c2.47-9.841,3.144-17.68-5-25h0c-.862-.288-2.736-1.026-3.386-.828-2.695.819-5.552,15.352-6.614,18.828h0c1.384,10.716-4.152,18.255-10.727,25.221-1.28,1.476-2.674,2.907-4.18,4.292-2.108,2.135-4.199,4.268-6.093,6.476,8.112-.363,14.856-4.934,22-7.989Z"/>
  <path d="M845.001,111h-24c-1.47,0-13.364,24.974-15.5,24.978-1.807.003-14.217-24.26-15.5-24.978-2.248-1.258-20.785.944-25,0l27.912,41.347-30.912,45.653h25c1.68-3.091,16.849-29.528,18.488-29.007,1.627.517,16.305,29.007,18.012,29.007h24.5c-2.429-6.902-31.048-42.937-30.824-46.339.292-4.443,25.334-33.5,27.824-40.661Z"/>
  <path d="M845.861,678.051c.041-.019.096-.022.13-.049.117-.095.376-.763.708-1.717-.279.588-.559,1.18-.838,1.767h0Z"/>
  <path d="M865.496,678.006c-2.683,12.906-1.275,27.083-2.511,40.478-1.943,21.051-6.702,38.359-17.571,56.429-1.625,2.701-12.016,15.299-10.407,17.082h0c2.201,2.439,15.856-14.317,17.214-16.275,17.205-24.809,17.625-56.1,15.763-85.203-.225-3.514-.737-9.489-2.489-12.511h0Z"/>
  <path d="M897,177.001c17.131-18.113,48.927-41.807,48.6-69.333-.521-43.94-69.802-49.865-86.078-11.646-.856,2.009-5.15,15.429-4.522,15.971,1.033.892,23.502,2.56,26.995,4.011-1.806-32.052,45.712-27.451,36.486,1.98-5.201,16.594-58.48,58.219-58.48,62.516v18.5h86v-22h-49.001Z"/>
  <polygon class="cls-1" points=".005 436.998 .007 436.998 .007 436.997 .005 436.998"/>
  <polygon class="cls-1" points="0 436.999 .001 437 .001 436.999 0 436.999"/>
  <polygon class="cls-2" points=".001 436.999 .001 437 .002 436.998 .001 436.999"/>
  <polygon class="cls-2" points="183 832 183.006 831.998 183.002 831.997 182.961 832.015 182.995 832.003 183 832"/>
  <polygon class="cls-7" points="498.001 208 497.999 208.002 498.002 208 498.001 208"/>
  <polygon class="cls-7" points="604.001 650.999 603.995 650.989 604.001 651 604.001 650.999"/>
  <polygon points="468.995 424.006 468.994 424.007 468.995 424.007 468.995 424.006"/>
  <polygon points="554.002 413.001 554.001 413 554.001 413 554.002 413.001"/>
  <polygon points="559 345.997 559 345.999 559.001 345.999 559 345.997"/>
  <polygon points="633.001 496.999 633.001 497 633.002 496.998 633.001 496.999"/>
  <polygon points="712.001 722.001 712.001 722 712 721.999 712.001 722.001"/>
</svg>