<?xml version="1.0" encoding="UTF-8"?>
<svg id="Layer_1" data-name="Layer 1" xmlns="http://www.w3.org/2000/svg" viewBox="0 0 1024 1024">
  <defs>
    <style>
      .cls-1 {
        fill: white;
      }

      .cls-2 {
        fill: hsl(24, 65%, 35%);
      }

      .cls-3 {
        fill: hsl(30, 80%, 70%);
      }

      .cls-4 {
        fill: hsl(200, 80%, 15%);
      }

      .cls-5 {
        fill: hsl(200, 80%, 35%);
      }

      .cls-6 {
        fill: hsl(30, 80%, 70%);
      }

      .cls-7 {
        fill: black;
      }

      .cls-8 {
        fill: hsl(0, 70%, 50%);
      }
    </style>
  </defs>
  <path class="cls-1" d="M0,437V0h1024v1024H0v-63l5.006-.823c49.789,3.056,100.293,3.724,149.707-.012,14.683-1.11,26.837-2.366,41.207-5.886,34.284-12.556,69.558-15.073,105.523-11.168,19.975-2.776,39.674-7.226,59.097-13.351l76.628-15.153c38.902-8.164,74.924-24.62,103.117-52.33,14.568-12.416,35.519-14.204,54.121-15.224,17.028-.933,34.124-.41,51.164.276,76.713,5.764,153.602,5.488,230.888-2.362,4.698-.477,53.946-7.38,52.597-13.445-1.637-7.36-42.191-12.731-50.141-13.151-5.56-.498-4.893-4.035-1.787-7.579,38.802-34.023,46.621-90.265,39.147-138.792,5.244-19.647,6.519-35.312,1.538-55.744-4.729-19.402-14.517-42.152-32.648-52.256-25.189-14.037-29.613,4.918-34.291,25.14-1.209,2.032-2.398,3.125-4.7,1.887l-35.14-19.417c-14.979-7.819-25.119-10.161-41.129-11.478-12.913-11.737-23.633-25.595-33.997-39.571-10.598-12.781-26.996-.698-35.869,8.47-.51.234-1.021.419-1.536.43-1.138.024-18.098-11.96-16.026-14.582,8.733-10.996.682-21.574-8.649-28.712-1.457-1.326-2.023-3.034-1.854-4.986,5.179-13.224-4.41-18.431-14.814-23.236-1.914-1.088-3.355-2.73-4.241-4.743-3.199-13.743-10.71-19.295-24.115-21.815-2.83-2.74-.913-28.155-.431-33.456,8.081-7.077,15.611-14.596,22.59-22.556,5.711.307,11.356.458,16.936.452,3.789-3.247,7.664-5.43,11.626-6.548,5.733,8.058,12.045,15.561,18.934,22.511,47.669,40.352,14.012-53.565,8.06-68.729l-.175-2.737c25.683-40.047,50.188-82.382,23.545-129.281-30.132-53.04-93.131-87.504-154.291-78.347-31.576,4.728-55.691,29.064-74.731,52.678l-2.64,1.359c-15.536-4.916-28.434-7.918-44.908-2.878l-5.577-.128c-58.827-18.072-127.037-36.121-189.44-24.697-103.659,18.977-159.651,120.759-204.803,206.469-9.265,17.234-19.702,33.729-31.734,48.597-4.562,16.298-8.764,28.372-19.155,42.46l-2.61.443Z"/>
  <path class="cls-5" d="M0,610l3.892-1.936c39.872-7.144,80.121-13.735,120.366-19.023,84.211-11.066,156.287-15.222,240.448-.636,4.548.788,49.059,13.136,50.668,16.301,2.196,4.317-2.01,5.987-5.487,7.183-11.828.285-23.048,2.036-33.661,5.251,5.437,7.767,72.895,28.391,74.567,24.577.252-.574-6.149-2.454-7.056-2.641-7.849-.83-61.915-15.971-62.938-20.151-.662-2.705.433-3.938,3.066-4.284,36.697-2.454,66.544-4.402,100.476,15.326,45.254,26.311,106.831,88.445,114.227,142.739,1.838,13.497-.686,17.939-11.317,25.193-4.117,2.809-15.512,10.491-17.162,3.127-4.853-55.448-53.293-91.139-100.416-113.539-3.324-1.598-2.151-4.76-.44-7.099l11.048-15.057c2.726-3.913,7.173-11.218,5.594-16.064-1.612-4.947-32.35-25.079-31.576-23.134,9.525,9.849,16.738,20.974,21.639,33.375-2.824,7.734-7.399,14.87-13.726,21.405-3.655,4.36-2.158,7.66,4.491,9.901,48.838,22.586,104.169,62.832,96.94,124.301l-9.978,12.29c-23.845,35.015-49.938,64.772-93.795,73.8-38.745,8.862-77.656,16.839-116.732,23.929-.317-21.575-1.207-41.554-7.835-62.381-9.254-29.08-27.84-57.612-54.033-73.235-1.945-1.912-1.738-4.495.718-5.756l14.545-5.728c33.802-18.7,69.329-28.404,106.395-32.707-17.391-.995-34.8.799-52.226,5.38-8.698-.977.262-7.195,3.575-9.47,40.84-28.043,107.446-28.215,149.005-1.181,31.919,20.763,38.678,45.597,38.439,81.625,7.616-65.349-51.351-106.363-111.845-106.737-40.371-.249-77.027,15.89-106.075,41.89-6.498,2.304-4.492-2.328-2.762-6.174,8.632-19.191,31.015-37.559,47.389-47.212-28.516,10.244-48.585,34.765-60.687,61.795-39.043,16.386-77.395,33.772-114.896,52.997-30.206,15.386-62.749,18.096-95.991,19.034-31.629,3.141-63.188,8.063-94.331,13.234l-2.523-1.511v-239Z"/>
  <path class="cls-7" d="M0,437c4.187-7.055,11.568-16.771,14.222-24.278,2.056-5.816,1.84-11.752,4.954-18.046,3.031-6.126,9.448-11.907,13.226-17.774,30.669-47.618,50.797-97.818,86.186-143.814,84.332-109.607,166.011-114.381,294.832-82.01,9.118,2.291,28.822,10.294,36.204,10.874,6.442.506,16.359-3.584,25.909-2.988,5.406.338,21.686,6.084,22.844,5.844,1.3-.27,7.845-9.497,9.596-11.335,21.109-22.16,40.382-40.049,72.549-43.451,55.683-5.889,110.928,22.259,142.864,67.09,33.828,47.488,20.674,82.808-5.581,129.193-1.613,2.85-9.247,12.612-9.521,14.344-.585,3.69,10.429,31.859,12.212,38.354,2.687,9.793,9.389,31.884,3.355,40.347-7.986,11.201-26.565-5.25-32.877-11.825-2.805-2.922-11.116-15.998-11.993-16.519-1.275-.758-7.669,6.107-10.696,6.778-5.147,1.14-13.585-1.172-16.678-.55-1.847.371-3.825,5.429-5.577,7.295-2.41,2.568-15.51,13.137-15.859,14.141-.514,1.479-1.295,30.239-.163,31.322.562.538,9.742,1.537,14.489,5.011,9.025,6.605,8.047,15.726,11.764,19.741,3.031,3.274,12.829,5.065,17.2,12.293,4.64,7.673-.544,11.856.676,16.252.64,2.305,11.215,7.823,13.564,17.513s-3.845,14.457-3.65,15.579c.28,1.615,13.111,8.34,14.451,11.6,7.651-8.288,20.132-17.965,32.051-14.03,6.66,2.199,13.114,14.447,17.937,20.059,3.172,3.692,20.047,23.477,22.536,24.464,3.245,1.287,13.208.987,18.025,1.975,4.166.855,8.736,2.657,12.635,4.365,15.227,6.666,31.514,17.923,46.824,25.176,6.047-18.63,5.78-39.442,32.164-30.165,30.386,10.684,44.547,60.814,42.303,89.649-.541,6.946-4.203,15.371-4.641,21.152-.544,7.176,2.5,19.84,2.702,27.834.841,33.203-7.575,73.935-29.072,100.004-4.989,6.05-12.045,10.487-15.966,17.523,14.05,1.834,30.421,2.977,43.781,7.73,31.078,11.057-10.96,18.121-21.578,19.984-55.95,9.816-123.643,10.043-180.741,9.335-40.882-.507-134.054-12.375-167.161,4.762-8.822,4.567-20.668,17.179-29.409,23.591-46.88,34.39-103.662,38.217-158.902,50.098-17.641,3.794-47.956,14.965-64.477,13.496-20.626-1.833-34.827-2.287-55.996.03-22.869,2.504-41.032,11.906-62.139,14.861-19.097,2.673-46.973,3.32-66.839,4.161-37.591,1.591-75.136.979-112.538-3.038v-11c.564-1.913,1.436-1.912,2,0l11.966-.041c33.414,3.588,67.251,4.775,101.034,2.041,8.326-3.099,17.47-3.512,26-1,9.768-1.568,19.768-1.901,30-1,1.644-2.807,10.492-5.307,13-3,16.504-5.554,33.171-10.554,50-15,.26-.913.754-1.66,1.54-2.193.749-.507,16.455-1.151,17.46,1.193,14.844-3.577,29.824-6.906,44.94-9.988,4.076-1.055.126-27.961-.488-30.616-4.022-17.401-10.205-33.653-20.452-48.396-3.377-.07-9.881-8.72-9-12-5.155-6.476-11.037-12.461-18-17-2.007.123-4.33-.816-6.97-2.817-18.812,4.876-37.129,12.123-54.949,21.739-1.684.443-3.378.461-5.081.078l-13.634,5.893c-.43.531-.409,1.11-.031,1.727,8.486,1.168,16.707,3.295,24.666,6.381,3.596-.919,3.7,2.543.451,4.314-2.155,1.175-21.02-.381-24.274-1.186l-1.177-2.128c-11.443-1.432-24.182-2.151-36.601-1.98-45.389.628-87.788,6.291-132.399,13.98v-10c4.646-1.134,9.58-1.221,14.256-2.065,23.058-4.164,48.894-8.684,73.256-10.923,32.822-3.016,55.589-.34,87.471-12.529,17.302-6.615,40.187-17.449,55.667-26.333,23.964-13.752,51.084-20.655,75.737-33.263,12.504-29.589,38.167-58.12,70.607-64.881.609,2.574-.78,1.756-1.872,2.592-11.706,8.948-22.9,12.991-34.147,24.877-2.487,2.628-21.566,28.019-19.974,29.514.818.768,15.789-12.441,17.688-13.801,40.938-29.322,97.789-38.918,144.658-18.034,39.477,17.589,65.044,51.459,60.516,96.209-.332,3.285-.741,9.04-3.851,10.638-1.424-26.573.895-52.061-18.473-73.037-39.031-42.272-112.237-45.855-160.558-18.483-1.081.612-13.897,8.046-11.98,9.509,16.669-2.946,36.403-8.065,53.376-5.862,2.264.294,7.272,1.228,3.618,3.367-2.788,1.632-33.467,5.342-40.177,6.823-27.041,5.968-44.058,15.08-68.459,26.541-2.377,1.116-14.796,5.548-15.352,6.159-.368.405-.232,1.384.621,2.055,3.229,2.546,8.089,4.696,11.842,7.959,36.034,31.332,53.854,80.614,49.537,127.969,48.04-13.972,107.063-15.51,151.666-38.829,29.452-15.398,44.746-46.847,66.189-70.812,5.41-50.493-32.05-86.275-72.193-109.528-4.721-2.735-30.241-14.738-31.163-16.856-3.281-7.533,15.648-20.672,15.455-28.371-.069-2.733-7.721-15.456-9.725-18.34-1.941-2.793-12.055-13.4-12.109-14.923-.035-.994.554-2.104,1.432-2.327,3.17-.805,32.975,19.277,34.227,24.699,2.818,12.198-14.113,25.794-18.781,36.271,43.455,20.799,88.623,51.356,100.698,100.814.844,3.458,1.875,14.523,2.77,16.231s1.448.348,2.17.134c5.659-1.669,20.103-10.264,21.679-16.345,4.299-16.588-11.115-49.263-19.907-63.732-24.002-39.496-89.175-102.458-136.875-106.125-4.244-.326-57.462-1.344-57.549,1.538-.06,1.985,33.543,12.634,37.248,13.763,6.777,2.064,29.297,5.861,33.102,8.898,3.902,3.114-.389,3.627-3.943,3.719-11.247.293-63.446-16.572-71.889-23.886-1.604-1.39-3.587-2.507-1.5-4.488,4.21-3.996,27.946-4.507,34.44-5.564,1.022-.166,6.046-2.286,4.549-3.926-1.352-1.48-26.05-9.339-30.006-10.5-7.593-2.228-17.078-4.746-24.791-6.216-118.331-22.555-241.962,3.083-359.198,20.698v-10l.375-2.083,118.454-18.603c.412-.404-3.623-9.689-4.496-10.631-1.246-1.344-21.74-8.82-24.759-9.502-20.417-4.612-38.779-5.982-59.689-5.191-10.615-1.397-5.96-7.747,1.838-9.725,26.691-6.769,54.399-.315,79.521,9.448-.444-8.488-1.126-16.933-2.044-25.337-16.479-7.537-31.772-17.151-45.88-28.84.366.624.372,1.245.14,1.914-4.206,12.133-26.004,34.122-37.709,41.147-2.008,1.205-11.454,6.316-13.005,5.271-1.792-1.206-1.772-1.794-1.642-3.878l28.832-33.199c-9.168-.27-18.219-1.383-27.154-3.338-4.41-1.024-5.392-8.283-.281-6.452.007-.772.172-1.944.679-2,4.055-.451,27.568-.756,30.415,0,1.393.37,2.453.868,3.406,2-17.311-11.581-33.032-28.112-42.979-47.196-1.216,1.444-2.094,2.376-4.021,1.196v-18Z"/>
  <path class="cls-3" d="M250,813c6.961,4.541,12.849,10.522,18,17,4.398,4.81,5.564,6.351,9,12,13.7,20.878,25.976,52.152,22.304,77.429-.181,1.245-1.772,1.832-2.918,1.986l-25.143,5.319-17.449,3.033-.795,1.233c-6.169,1.02-13.415.173-19,1-16.824,4.444-33.49,9.444-50,15-4.722,1.36-7.835,2.602-13,3l-28.641-.097c.651.378.199.744-1.359,1.097-8.69.382-17.284.793-26,1-33.316,2.701-66.985,1.574-99.559-1.961l-13.441-.039c-.667.007-1.333-.005-2,0v-90c55.431-10.913,112.24-19.191,169-13,4.613.41,22.935,2.953,26,.989.175-.112-.701-1.564-1-1.989-8.248-3.161-16.788-5.352-25.621-6.573l.167-1.217,14.454-6.21c11.366-4.944,22.493-10.931,34.036-15.464,4.871-1.913,22.205-8.829,26.242-8.325,3.374.422,4.755,3.149,6.722,4.789Z"/>
  <path class="cls-4" d="M0,455l4.986-4.992c5.543,14.619,17.218,27.398,28.488,38.018,4.246,4.001,11.29,7.713,13.526,12.974H12.5c-.392,0-1.664,1.494-1.496,2.485.852,5.018,27.834,4.164,33.007,6.026l-32.005,36.483c8.73-.815,19.405-9.525,26.006-15.483,9.599-8.665,19.149-20.942,25.004-32.508,7.848,4.856,14.824,10.912,22.679,15.803,3.762,2.342,24.436,12.119,25.138,13.357,1.996,3.518,1.083,24.189,3.162,29.832-25.005-10.029-50.982-17.014-78.195-11.695-8.499,1.661-16.406,6.693-3.288,6.787,22.067.159,37.244-.927,59.252,5.65,3.388,1.013,22.379,8.085,23.957,9.549,1.022.947,6.291,12.717,5.286,13.711L0,600v-145Z"/>
  <path class="cls-6" d="M169,847c-26.746-.82-53.722-1.989-80.485.015-29.778,2.229-58.907,9.512-88.515,12.985v-1c52.378-9.59,104.93-17.859,158.48-13.979,3.298.239,7.503,1.711,10.52,1.979Z"/>
  <path class="cls-7" d="M897,177h49v22h-86v-18.5c0-4.297,53.279-45.922,58.48-62.516,9.226-29.431-38.292-34.032-36.486-1.98-3.493-1.451-25.962-3.119-26.995-4.011-.628-.542,3.666-13.962,4.522-15.971,16.276-38.219,85.557-32.294,86.078,11.646.327,27.526-31.469,51.22-48.6,69.333Z"/>
  <path class="cls-7" d="M790,111c1.283.718,13.693,24.981,15.5,24.978,2.136-.004,14.03-24.978,15.5-24.978h24c-2.49,7.161-27.532,36.218-27.824,40.661-.224,3.402,28.395,39.437,30.824,46.339h-24.5c-1.707,0-16.385-28.49-18.012-29.007-1.639-.521-16.808,25.916-18.488,29.007h-25l30.912-45.653-27.912-41.347c4.215.944,22.752-1.258,25,0Z"/>
  <path class="cls-7" d="M151.995,782.994c-3.191,2.815-24.677-8.581-28.661-10.827-30.341-17.103-57.017-43.86-76.146-72.854-1.546-2.343-12.237-20.201-11.182-21.307,1.252-1.313,2.681,1.759,3.195,2.293,25.362,26.345,40.51,48.305,70.907,72.092,11.723,9.174,29.977,18.615,39.824,27.175.71.617,3.101,2.51,2.062,3.427Z"/>
  <path class="cls-7" d="M272.794,770.182c1.895,3.643-.828,5.206-4.502,4.042-14.024-4.441-43.042-38.841-52.683-51.333-5.511-7.141-12.966-15.478-15.597-23.891l72.783,71.182Z"/>
  <path class="cls-7" d="M444.994,631.995c-.727.725-17.325-6.664-15.993-11.474,1.706-6.163,18.819,8.656,15.993,11.474Z"/>
  <path class="cls-8" d="M61,404.5c2.406,18.574,18.425,39.025,33.09,49.91,2.969,2.204,19.454,11.16,19.808,12.27,1.432,4.49-5.476,28.278-2.91,35.32-28.474-14.114-58.68-39.205-74.157-67.332-19.077-34.671-2.126-39.48,14.336-68,41.039-71.102,76.586-153.27,150.527-197.473,73.55-43.97,157.321-24.154,234.302-1.179.369,1.48.068,1.31-.635,2.079-4.939,5.399-12.187,10.448-17.33,16.438-22.623,26.35-39.321,68.55-49.296,101.704-3.128,10.396-16.303,58.69-13.591,66.123.961,2.635,25.504,5.737,30.639,7.358,1.655.522,12.754,4.793,13.13,5.395,2.866,4.589-18.658,41.02-23.877,46.425-4.338,4.492-26.05,19.094-23.959,24.822,1.337,3.664,29.991,10.419,34.164,9.398l51.794-41.254c1.905-.812,8.104.138,10.461.522,1.168.19,1.926-.603,1.523,1.488-.28,1.453-10.892,15.918-12.822,19.184-7.739,13.096-22.488,44.375-37.003,49.997-8.453,3.274-37.129,5.366-47.713,6.287-11.487,1-23.505,2.481-35.029,2.069-5.745-.206-50.904-6.915-52.369-9.135-.566-.859,1.844-9.104,2.434-9.897,1.275-1.713,6.239-1.665,8.442-3.558,4.026-3.46,14.718-55.734,17.54-65.46,9.205-31.719,29.724-42.875,41.248-72.752,14.629-37.929,16.444-95.782-12.735-127.246.689,5.738,4.801,10.439,6.75,15.738,14.438,39.256,10.529,93.103-12.751,128.255,9.175-39.142,10.418-86.459-14.198-120.306-10.44-14.354-28.826-28.831-47.278-29.72-17.36-.836,3.541,5.209,7.145,6.854,68.622,31.327,58.889,125.518,28.307,181.177-2.498.37-1.562-.132-2.092-1.389-1.997-4.737-2.813-11.704-4.878-17.125-3.678-9.655-8.377-19.442-16.006-26.477,2.293,8.483,6.264,16.325,8.705,24.778,2.195,7.601,8.137,28.991,8.175,35.823.018,3.168-8.328,33.944-9.853,34.927-3.456,2.228-25.869-.955-31.358-1.714-38.619-5.342-78.053-19.681-110.508-41.011l36.824-161.805c-3.367-3.815-14.113,24.09-14.738,25.75-2.351,6.247-4.837,13.83-6.763,20.237-.627,2.087-7.696,34.554-9.482,32.007-1.641-2.34-2.244-27.165-1.994-31.483.188-3.245,3.637-18.777,2.977-19.511-2.8-3.118-8.017,14.936-8.319,16.169-2.713,11.074-3.518,24.977-2.713,36.362.612,8.657,6.052,23.292,5.702,29.834-1.1,20.528-18.528,55.129-14.431,76.894.687,3.652,4.366,6.761,4.495,9.024.493,8.686-8.346,27.555-7.74,37.71-17.596-9.187-31.514-23.25-40.844-40.644-5.251-9.791-7.618-20.336-13.145-29.355.449,4.912-.618,10.726,0,15.5Z"/>
  <path class="cls-3" d="M612,504c2.185,3.446,3.265,5.247,6.482,8.015,1.388,1.194,6.772,2.745,7.191,4.262,1.927,6.979-1.56,11.911,5.326,18.931.561.572,7.244,5.653,7.712,5.763,1.587.372,5.801-.385,6.251.069.939.948-1.958,6.279,5.062,4.511,7.959-2.005,25.25-22.036,28.626-22.33,7.434-.647,14.451,15.227,19.88,14.839,3.891-.278,12.097-12.1,19.462-14.355,16.096-4.928,15.867,5.448,23.007,15.295,7.788,9.121,15.733,18.335,25,26,6.812,3.956,7.94,2.425,14,3,15.691,3.532,29.657,10.271,43.595,18.497,25.729,15.184,48.459,29.198,35.611,62.942-4.662,10.2-9.3,20.138-13.914,29.812-17.725-13.586-38.993-21.737-60.798-13.51-21.987,10.483-41.593,9.548-63.873,1.839-8.986,6.463-5.36,19.222-1.621,28.42,3.873,7.105,9.679,13.159,14,20,5.33,7.871,6.13,16.391,2,25-2.389,5.015-3.219,6.56-8,10-11.376,6.924-22.701,6.119-35,3-14.162-4.904-27.684-16.5-34-30-6.862-11.463-10.463-28.067,2-37,4.467-2.82,11.504-3.59,11.995-4.006,3.569-3.021-7.994-3.024-8.995-2.994-10.497,1.496-20.899,9.452-19,21-.032,3.634.225,7.383,0,11-.53,2.051-.198,4.202.995,6.453l-19.732,5.659c-2.283.407-3.705,1.369-4.263,2.888-8.03,5.494-15.245,11.637-20.5,19.978-23.569-52.081-64.946-96.002-114.498-123.992,20.924-11.226,38.546-27.893,61.997-33.986,1.635-1.416,2.961-2.914,4.106-4.748,7.637-12.23,11.871-31.322,14.894-45.252.115-.351.899-.699,1-1,1.428-4.029,2.095-8.029,2-12,.418-1.849.922-7.398,1.176-7.829.282-.478,8.022-3.886,9.824-5.171,4.34-3.88,6.655-9.315,6.947-16.305l3.053-2.695c6.821-9.069,10.351-8.337,7-21-.328-1.975-1.401-4.046-3.219-6.213,15.472-5.812,15.195,9.38,12.799,19.977-.744,6.284,1.568,11.838,4.42,17.236Z"/>
  <path class="cls-3" d="M554,413c9.638,6.771,17.902,15.554,27,23l1.396,2.57c-7.811-.408-11.926,6.663-7.253,12.967.225,1.442-.255,1.875-1.495,1.22l-4.647-3.757c-11.871-6.826-23.376-20.447-34-26-15.823-1.948-31.823-2.281-48-1-3.103.555-3.166-1.566-4,2,10.419,5.044,23.085,6.71,38,5,4.752.299,6.689,1.298,11.306,2.118,18.112,15.148,40.097,26.109,56.694,42.882,4.876,3.166,3.113,12.118-2.377,12.844-.951.126-1.135-.735-.623-1.844-6.125-.21-10.264-3.721-9.575-10.244-.007,2.784-.482,5.199-1.425,7.244,2.05,3.673-.257,4.056-2.504,1.027l-3.496-2.027c-13.688-6.691-25.71-18.959-39-26-5.32-1.905-10.486-3.572-15.5-5-.148.504-.298.897-.456.9-6.75.14-13.969-.39-20.544-.9-3.111-.377-6.277-.377-9.5,0-.092.2-.091,1.692,0,2,5.344,3.63,11.677,5.63,19,6,11.717,1.149,18.338-.517,29.31,6.19,3.652,2.232,32.508,23.653,33.599,25.457,2.936,4.857-4.794,6.738.091,15.354,9.319,4.764.037,4.674-5.111.855-3.532-2.645-7.162-4.596-10.889-5.855-3.687-2.027-27.018-14.721-28-16-9.533-2.678-19.955-3.964-30-4-4.993-.58-9.757-3.869-8,2,1.653,2.259,4.218,3.052,6.857,3.738,13.856,1.439,26.57,5.193,38.143,11.262,8.38,3.931,13.119,7.984,20.307,12.193,3.821,2.237,21.122,6.732,10.693,10.807-13.566-.112-26.916-2.749-40.05-7.91-10.498-2.343-25.051-4.225-34.95-.09-.337.235-.686.683-1,1l-3,4c-7.136,8.548-16.072,17.63-27,22-12.19,4.706-24.906,6.664-38.15,5.874-30.572,10.385-61.522,19.761-92.85,28.126-2.711.293-6.166.031-9,0-53.101-5.465-108.727-3.454-162.225,4.346-8.461,2.832-14.719,1.384-18.775-4.346-8.141-11.3-9.739-26.254-11-40,.012-5.516.012-11.016,0-16.5-.937-5.141-.861-11.746,0-17,.32-5.461.32-10.961,0-16.5.475-5.815,1.202-12.208,2-18,2.625-11.6,5.177-23.459,7.655-35.579,29.442,18.202,64.346,29.724,99.345,35.579.329.039.671-.036,1,0,7.783,1.327,15.669,2.125,23.656,2.397,1.119,1.091-1.261,7.611-2.667,8.154-14.566-1.335-28.563-.518-41.989,2.449-10.016,1.706-36.609,10.588-43.02,18.48-3.55,4.37,1.73,1.578,3.02,1.52,10.358-2.591,21.711-6.043,31-10,.324-.054.674.05,1,0,17.582-3.859,35.646-2.777,53.239.182,14.376,3.089,28.629,5.361,42.761,6.818,3.199.441,8.062,1.783,11,2,17.278.66,34.611-.34,52-3,10.921-1.458,23.031-4.687,34-5,.41,10.661,1.316,24.14,9,33,1.862-.332-1.781-11.431-2-14-1.325-10.735,1.342-19.401,8-26,16.07-21.079,26.205-41.741,41-62,1.352-1.317,2.558-2.982,3.619-4.993,4.439-3.594,47.607-12.2,55.718-13.362,17.1-2.449,29.452-1.358,42.663,11.355Z"/>
  <path class="cls-2" d="M890.011,718.994l21.985-36.986c-.109,17.135.734,33.178-2.296,50.192-5.957,33.442-21.395,61.052-47.809,82.191-12.659,10.131-28.667,20.578-44.886,22.114,2.03-1.184,21.55-16.051,18.989-18.5-.789-.754-16.793,9.063-19.324,10.164-41.248,17.952-94.669,8.892-131.664-15.165-2.268,2.443,8.413,10.101,10.107,11.382,7.011,5.305,15.084,9.212,22.899,13.113-21.138-.127-42.714-9.277-60.315-20.696-15.171-9.842-26.012-23.647-41.669-32.331-2.084-1.156-7.193-2.176-8.038-2.962-.724-.673-4.88-17.716-4.958-19.137-.711-13.062,29.759-36.224,43.465-34.485,1.272.161,13.427,16.824,16.481,19.634,21.729,19.992,66.093,30.865,80.517-2.529,12.887-29.836-15.809-38.75-20.052-61.935-2.22-12.128,3.263-4.722,11.719-2.72,32.951,7.799,46.989-11.001,72.228-8.229,5.949.653,32.581,12.443,35.102,16.902,1.431,2.531-2.211,25.031.475,32.529.47,1.312-.627,1.801,2.027,1.463,1.446-12.084,4.157-23.991,7.992-35.519,11.617-34.925,46.929-73.317,18.026-109.484.381,14.363,4.412,28.763-.025,42.991l-13.978-24.572c-.437-3.387,6.517-25.755,8.937-27.971,7.139-6.534,23.856,7.846,28.468,13.638,11.02,13.839,20.224,42.851,19.622,60.446-.884,25.857-24.244,49.934-24.025,76.462Z"/>
  <path class="cls-3" d="M518,205c6.329,10.923,4.671,23.146,3,35-3.468,12.794-12.193,16.457-2.235,29.735,9.582,12.778,13.318,1.849,24.825.356,2.549-.331,12.611-.393,14.163,1.157,1.167,1.166,6.76,17.683,8.391,21.107,4.326,9.08,8.907,18.016,14.848,26.151-3.144-.076-5.53-1.753-8.993-2.507-3.325-2.786-9.16-1.426-13,0-3.405,3.816,5.166,4.512,8.691,6.808,6.322,4.118,6.795,9.342,10.309,15.192,3.217,3.187,6.114,6.619,8.691,10.296.141,1.865-12.032.539-13.691-2.296-6.444,3.278-11.652-7.202-13.538-12.713l-1.462-1.287c-2.964,4.375-1.219,9.672,1,14,2.581-1.498,8.436,5.474,7,8,7.775,4.33,16.441,4.996,26,2-.873-.284-.86-.618,0-1-.521-1.403-.496-2.563.841-2.069,5.549,4.107,11.413,6.827,17.59,8.162,2.753-1.354,4.276-1.052,4.569.908,5.408-2.037,10.786-4.591,16.134-7.661l.866.661c.097-.607.25-1.165.595-1.55,1.566-1.748,33.392,8.232,34.819,10.467,1.365,2.139-5.408,2.129-7.566,2.061-12.913-1.644-22.695-.939-35.233,1.489-.114.022,1.499-1.609.386.532-6.872,4.644-12.793,10.853-17,18-3.653,11.014-7.32,22.014-11,33-.279.344-.656.722-1,1-4.964,3.837-9.394,2.591-15,1-6.656-2.993-9.476-10.329-14.453-15.047-7.846-7.438-19.79-8.476-8.968-21.874,2.68-3.318,6.804-4.76,9.421-8.068-10.323.326-22.568,11.063-20.009,21.987-1.928-.868-3.278-2.866-4.991-3.998-10.666-4.876-22.921-3.819-34-1-.329.038-.673-.043-1,0-6.848,1.307-12.848,2.973-18,5-4.331.991-8.684,2.03-13,3-3.452.176-6.928.674-10.428,1.495l-2.337-14.702-1.235-.793c-.834-4.535-1.307-9.409-2-14-1.911-16.538-3.791-33.313-4-50,.325-5.741,1.38-11.51,2.322-17.178,1.299-7.811,8.567-30.556-4.174-9.174-9.067,15.216-14.251,35.935-10.148,53.342-9.937-2.622-11.362-3.103-12.999-12.989-1.573-28.298,1.68-56.578,8-84,3.138-10.725,10.065-30.64,17-39-1.269-6.213,21.479-7.029,22.034-5.932-12.329,20.03-29.196,58.587-8.034,76.932,2.869.945,11.96,1.677,11.978-2.5.004-1.045-4.535-1.731-6.063-2.915-1.964-1.523-4.087-6.151-4.915-8.585-1.134-7.305-1.134-14.639,0-22,.389-2.387.342-4.358,1-7,3.724-10.06,7.862-20.108,14-29,6.776-11.897,20.63-19.513,32-8Z"/>
  <path class="cls-8" d="M701.994,171.994l-3.983-9.994c15.283,13.599,29.868,34.756,34.535,54.954,7.817,33.829-14.167,68.85-32.046,96.027-41.423-38.449-102.756-45.868-145.445-82.481,27.412-41.76,60.245-83.069,116.292-75.345,5.603.772,15.703,2.623,20.373,5.627,4.811,3.096,5.4,9.001,10.276,11.213Z"/>
  <path class="cls-1" d="M545.797,529.214c.361.47,1.591,6.445,2.823,8.665,1.293,2.329,7.254,9.451,7.328,10.572.15,2.26-8.377,26.523-10.095,28.902-3.883,5.376-18.734,8.383-25.176,11.824-5.329,2.846-18.999,15.457-23.35,15.625-2.723.105-17.885-16.808-28.069-18.561-17.145-2.951-29.961,9.167-43.397,9.183-5.29.006-15.417-1.78-20.869-2.917-18.805-3.924-36.497-13.251-55.988-14.518.011-1.519,3.003-1.847,4.229-2.253,29.362-9.726,55.739-16.526,86.136-20.865,14.091-2.011,26.283-10.185,37.095-18.905,2.962-2.388,16.798-16.395,18.271-16.802.989-.273,18.219.814,20.485,1.115,3.419.454,29.606,7.672,30.576,8.935Z"/>
  <path class="cls-8" d="M492.999,172.012c-6.723,15.569-11.603,6.083-21.818,8.67-13.191,3.341-30.863,38.87-35.662,51.337-17.321,45.004-18.485,97.856-6.701,144.394-3.542.611-29.678,19.987-30.806,18.586-.993-1.232,10.746-27.531,12.603-28.885,2.787-2.031,9.44-1.142,6.88-7.089-5.322-12.364-51.704-8.294-52.574-11.632,3.831-33.576,13.713-67.236,26.615-98.358,17.231-41.564,47.011-96.372,101.463-77.024Z"/>
  <path class="cls-8" d="M682,149.989c-55.019-11.846-93.433,20.051-121.412,63.099-1.689,2.599-7.854,15.403-8.603,15.91-1.327.897-7.872-6.229-9.011-7.471-6.088-6.634-33.63-46.264-33.716-53.201-.071-5.761,27.972-30.462,34.022-34.546,37.204-25.114,95.492-16.648,131.032,9.408,2.669,1.956,5.948,3.939,7.688,6.801Z"/>
  <path class="cls-8" d="M718.989,389.999c-7.445-4.851-8.89-12.961-15.469-19.02-31.935-29.41-85.752-21.733-113.486-55.514-18.151-22.109-24.898-55.273-38.029-80.46.714-.772,14.986,11.622,16.682,12.807,31.216,21.811,67.595,32.397,100.333,50.667,13.55,7.562,26.636,13.729,32.242,28.758,7.546,20.23,11.367,42.145,17.727,62.761Z"/>
  <path class="cls-5" d="M335.759,926.766c-.983.888-24.854,7.201-25.753,6.228-.766-.828,1.172-18.678,1.032-22.533-1.612-44.321-26.816-87.673-63.037-112.45,6.025-.009,21.306-9.411,26.108-8.523,3.015.557,15.981,11.272,18.902,13.999,23.224,21.68,43.047,61.199,45.038,92.962.311,4.957.631,27.675-2.29,30.316Z"/>
  <path class="cls-8" d="M271.004,438.001c-.575,21.699-10.263,18.699-27.372,16.867-30.441-3.259-84.542-18.175-108.097-37.898-10.148-8.497-7.532-9.999-6.529-22.964,8.039,4.751,15.351,10.434,23.639,14.849,34.815,18.546,79.146,28.002,118.359,29.146Z"/>
  <path class="cls-8" d="M454.994,400.994c-11.195-1.298-38.236-5.623-46.474,3.026-.587.616-2.424,2.166-1.515,2.974,1.734,1.542,17.644-2.117,21.491-.999.969.282.465,1.246.494,1.985l-43.645,31.861c-7.687,3.139-19.737-4.062-28.34-2.852,14.232-11.461,28-23.993,43.107-34.376,11.851-8.145,27.211-16.214,41.627-18.364,15.071-2.248,10.336,6.027,13.254,16.745Z"/>
  <path class="cls-3" d="M640,441c6.437,4.355,8.662,11.331,8,19-4.293,10.119-8.678,20.079-13.156,29.881-.904-2.78-2.821-4.919-4.844-6.881-5.091-2.591-8.999-1.757-11,4-3.228,5.465-2.604-.707-1.759-4.37l-.241-1.63c.988-9.42,4.008-19.267,4.79-27.829.16-1.755.54-1.743-.79-3.171-2.66.667-4.674,2.751-6.042,6.251-2.73,2.335-.894-7.158.042-9.251,1.302-2.236,2.942-3.541,5-5,6.822-4.096,12.791-4.636,20-1Z"/>
  <path class="cls-4" d="M51.994,491.995c-1.348,1.485-19.169-14.634-20.95-16.493-4.282-4.469-23.791-28.809-22.638-33.525.873-3.57,8.474-12.599,10.095-16.954,5.763,14.024,13.169,26.692,22.089,38.889,2.34,3.2,13.247,14.411,13.943,16.133.401.993-2.127,11.498-2.538,11.951Z"/>
  <path class="cls-2" d="M553.995,261.994c-7.906-3.169-20.972,5.175-26.517,5.088-11.713-.183,1.112-24.004,2.262-30.843.498-2.959,1.226-7.862,1.355-10.753.068-1.511-1.397-5.155-1.09-5.479,5.11-5.388,24.594,37.874,23.99,41.987Z"/>
  <path class="cls-3" d="M648,515c.037-1.42.704-1.42,2,0,.312-.85.645-.844,1,0,.982,1.902.649,4.569-1,8-3.365,13.324-15.502,11.369-17,0,.035-2.656,1.982-1.796,5.843,2.58l3.157.42c-.745-.263-.724-.599,0-1-3.432-6.663-2.95-17.192,6-10Z"/>
  <path class="cls-3" d="M651,515c-2.535-4.683-6.689-9.027-12.33-6.932l-.998-1.126c5.355-11.191,9.704-22.798,13.047-34.822,2.529-13.184,12.139-9.415,16.234.258-1.486,10.159-4.137,20.033-7.953,29.622-.165.369-.847.671-1,1l-5.161,12.226c-.841,1.52-1.566,1.556-1.839-.226Z"/>
  <path class="cls-1" d="M636,812.989h-57.999c6.476-5.721,14.981-8.218,21.489-14,1.955-1.737,5.336-8.063,6.99-8.089,8.063-.123,23.199,17.053,29.521,22.089Z"/>
  <path class="cls-8" d="M622,430.5c-.404,1.219-18.028,13.318-20.517,15.442-.509-2.958-10.35-11.651-10.49-12.453-.407-2.329,9.178-3.005,10.53-5.466,4.978-8.524,12.778-14.984,20.477-21.023-1.145,5.699,1.543,18.85,0,23.5Z"/>
  <path class="cls-5" d="M433.004,603.012c1.002-1.413,29.42-8.574,33.429-7.937,4.473.711,19.175,14.868,18.562,17.409-.988,4.093-20.063,2.773-23.951-1.028-1.94-1.896-1.679-5.572-3.683-6.317-2.117-.787-27.945,2.934-24.356-2.127Z"/>
  <path class="cls-3" d="M676,497c2.348,3.296,4.16,7.021,5,11-.653,3.065-8.922,8.887-11,11-1.306.979-1.922,1.228-3,0-.807-1.433-4.513-4.376-4.655-5.477-.13-1.004,5.473-15.305,6.48-17.198,3.612-6.791,3.866-4.873,7.175.675Z"/>
  <path class="cls-2" d="M511.993,192.996c-.278.287-3.862-1.138-5.423-1.034-7.141.48-20.676,9.797-21.57,9.027-1.24-1.067,16.897-26.685,18.505-26.983,1.023-.19,9.212,18.244,8.487,18.99Z"/>
  <path class="cls-6" d="M314,573c-42.843-.474-78.606-3.52-122.488.012-15.249,1.227-36.801,6.341-50.992,6.029-4.614-.102-5.344-3.02-7.52-6.041l6.609,4.707c56.078-6.936,113.387-12.496,169.933-6.751,1.813.184,3.723-.328,4.458,2.045Z"/>
  <path class="cls-3" d="M604,345c-2.553-2.91-2.951-4.426-1.195-4.55,8.65,4.503,17.611,8.185,26.884,11.046.188.486.303.944.164,1.305-.331.861-15.872,8.18-16.587,7.597.105-2.437-.844-4.477-2.266-6.399-3.02-3.21-4.981-4.78-7-9Z"/>
  <path class="cls-3" d="M616,388c6.11-14.656,5.169-4.866,13.995.495-4.581,4.702-9.806,8.536-14.995,12.505-4.189,3.522-5.061,2.133-2.618-4.166l3.618-8.834Z"/>
  <path class="cls-6" d="M115,952c-18.883,2.572-38.424,2.583-57.538,2.038-17.875-.51-38.106-4.232-55.462-4.038,13.604-1.738,28.575,1.457,42.462,2.038,23.266.974,47.666.506,70.538-.038Z"/>
  <path class="cls-6" d="M454,539c-5.199,4.727-14.254,5.401-21,6-1.013-.673-1.989-.773-3,0-15.319,1.426-16.067,2.132-30.236,6.264-20.521,5.985-57.349,19.637-76.764,21.736,1.013-2.008,3.92-2.777,5.911-3.352,26.45-7.639,54.224-13.979,80.299-22.774,1.075-.363,4.51-3.574,6.338-3.886,3.129-.535,5.693,1.17,8.004,1.04,10.148-.569,20.995-1.248,30.448-5.029Z"/>
  <path class="cls-6" d="M780,568c18.456,1.752,68.36,28.648,77.798,44.702,15.564,26.477-3.945,44.062-11.811,68.295-16.292-13.444-33.403-21.087-54.994-16.504-20.18,4.283-26.32,13.343-50.191,9.206-3.939-.683-18.368-5.849-20.188-5.476-7.643,1.563-3.777,22.503-1.613,27.778-1.504-2.759-6.346-14.909-5.721-17.468.146-.599,1.331-.459,1.628-1.283.939-2.611,1.174-9.518,5.618-10.298,2.386-.419,18.695,5.406,24.112,5.912,37.627,3.515,46.448-25.563,89.667-1.666,2.192,1.212,10.221,7.991,11.685,6.804.441-.357,2.856-8.704,3.821-10.691,9.959-20.494,20.005-35.011,4.853-57.499-6.284-9.326-47.498-32.84-58.972-37.001-5.143-1.865-11.421-1.899-15.69-4.81Z"/>
  <path class="cls-6" d="M431,337c-3.894-23.508,1.282-61.039,8-84,1.83.939.705,3.391.361,4.839-3.236,13.639-6.537,27.599-7.344,41.678-.71,12.39,1.326,25.316-1.017,37.483Z"/>
  <path class="cls-6" d="M299,495c-.991,1.893-3.485.763-5.013.539-32.127-4.715-58.1-12.629-90.987-7.539,32.848-9.166,63.989,2.591,96,7Z"/>
  <path class="cls-6" d="M253,931c-1.905-2.952-.751-1.615,1.448-2.035,5.316-1.013,43.9-7.317,44.596-9.633,1.086-27.629-7.899-54.074-22.044-77.333,12.438,16.222,21.479,40.039,22.979,60.521.261,3.57.998,18.055-1.669,19.289-15.131,2.865-30.118,6.678-45.31,9.19Z"/>
  <path class="cls-3" d="M633,497c-.325,1.46-.384,6.555-2.979,4.977-1.075-.654-8.04-10.689-7.982-12.506.145-4.518,8.371-3.87,9.802-2.275.631.704-.063,2.416.159,2.803,3.159-1.01,3.492,1.323,1,7Z"/>
  <path class="cls-6" d="M560,520c-13.106,5.121-35.275-9-47.5-9h-18c-3.335,0-6.085-.475-9.5,1,2.463-1.717,3.127-2.602,6.482-3.017,17.804-2.2,33.337,5.269,49.543,8.576,6.263,1.278,12.794.932,18.976,2.441Z"/>
  <path class="cls-6" d="M554,413c-11.556-8.118-19.732-13.039-34.475-11.976-7.45.538-59.624,11.761-63.443,14.555-1.461,1.069-2.62,6.071-4.082,4.421.833-1.141,1.778-4.544,3.302-5.689,3.342-2.512,33.149-8.731,39.509-10,22.66-4.521,41.164-10.752,59.189,8.689Z"/>
  <path class="cls-6" d="M604,345c-2.86-2.579-8.037-7.23-8.506-10.994,21.334,17.613,50.163,18.647,74.497,30.008-1.188,1.963-6.471,2.874-8.509,2.972-11.746.565-24.648-3.524-36.483,1.014l-1.014-.976c14.207-5.351,28.314-1.614,43.009-2.035-4.21-3.185-10.514-5.406-15.557-6.926-4.857-1.464-15.116-4.683-19.437-3.063l-1.546-.321c-5.129,2.876-10.28,5.317-15.454,7.321-12.613-.507-10.082-2.641-19.32-7.287-2.012-1.012-3.515.37-3.68.287-2.294.388-4.626-.754-6.996-3.428l-6.782-.347c-3.206-.496-6.856-1.652-5.222-5.226,2.208.986,10.461,4.261,11.994,1.99.526-.78-5.831-8.054-6.994-9.99,6.621,5.584,18.422,18.828,26.264,21.236,7.15,2.196,10.87,2.221,6.736-5.236,1.903,2.023,2.834,4.777,3.077,4.937,1.395.917,13.041-5.169,14.916-6.924-9.523-1.305-18.248-8.991-26.988-10.518,1.48.879,1.444,2.355,1.995,3.506Z"/>
  <path class="cls-6" d="M617,481c2.419,1.873-2.601,9.07,2,6-2.904,8.352,2.021,16.248,10.994,16.494-4.825,6.024-11.678.247-13.519-5.466-2.125-6.595-.108-11,.525-17.028Z"/>
  <path class="cls-6" d="M569,449c.947.545,4.806,3.226,4.989,3,.715-.886-2.283-3.744-1.571-6.992.761-3.473,4.832-5.571,5.596-8.999,1.226.963,2.703,4.588,2.986-.009,5.193,4.249,13.318,5.589,12.859,15.558-.009.188-2.098,1.683-2.859,2.442l-1.453-1.405c.822-6.673-.975-9.1-5.39-7.28-.059,2.245-.778,3.806-2.157,4.685-4.264,3.982-6.802-4.637-3.677-8.114-2.54,1.077-3.154,4.18-1.901,6.513,1.769,3.294,7.554,7.123,5.577,1.601,1.342-4.551,10.547,2.672,7.067,3.201l1.933.799c-10.176,10.151-13.932,2.538-22-5Z"/>
  <path class="cls-6" d="M667,519c1.012-1.472.931-.264,3,0-4.813,4.892-8.993,11.123-15.489,14.011.995-2,5.802-14.586,6.503-15.008.769-.463,3.933,3.985,4.486,3.975,1.123-.019,1.222-2.573,1.5-2.978Z"/>
  <path class="cls-6" d="M232,465c3.439.375,24.077,1.152,24.995,2.006.962.894-3.051,8.05-3.089,9.912-14.464-1.812-28.64-1.348-42.906,1.082-.633-2.729,6.97-2.822,8.515-2.987,5.67-.605,32.25.093,33.814-.93,1.354-.885,2.192-5.553,1.672-6.077-.821-.829-20.26.297-23.001-3.005Z"/>
  <path class="cls-6" d="M569,481c1.154.564,3.004.424,4.252,1.031.869.422,1.598,4.552,1.748-.031,3.613.781,7.28,1.781,11,3,.135-.023.811,1.497,2.5.131,3.477-2.812,2.964-7.733.5-11.131,1.878,1.898,4.653,1.262,3.616,7.034-2.1,11.688-18.573,7.734-23.616-.034Z"/>
  <path class="cls-6" d="M122,483c2.921,4.667,0,12.274,0,16.5v17c0,3.575.911,9.669,1.086,13.924.071,1.729,2.449,2.92-1.086,2.576-1.526-16.641-1.356-33.391,0-50Z"/>
  <path class="cls-3" d="M574,507c-.818-1.859-3.219-2.105-4-4-1.734.348-1.823.029-.306-.941-.355-16.059,17.229-.908,4.306,4.941Z"/>
  <path class="cls-6" d="M460,373c-2.472-16.367-4.94-33.4-4-50l4,50Z"/>
  <path class="cls-6" d="M362,494c-17.469,2.332-34.719,5.357-52.519,4.003l.519-1.003c17.614,1.299,34.509-3.009,52-3Z"/>
  <path class="cls-6" d="M456,214c1.212-9.825,17.692-5.363,24.994-6.989-14.688,15.216-27.507,55.79-15.023,74.239.92,1.359,3.477,1.7,4.029,3.75-7.055-2.322-9.339-11.975-9.977-18.523-2.048-20.993,6.36-40.523,16.953-57.99-4.724,1.632-14.336.346-18.301,1.467-.621.175-1.692,2.863-2.674,4.047Z"/>
  <path class="cls-6" d="M567,539c1.933,1.016.665,3.321.297,4.779-2.462,9.761-9.827,34.971-15.353,42.384-1.075,1.442-2.56,1.845-3.944,2.837,10.374-14.73,13.485-33.167,19-50Z"/>
  <path class="cls-6" d="M231,465c-25.462-2.991-57.224-12.449-81.044-24.456-2.371-1.195-17.205-11.275-17.944-10.543-1.209,1.197-5.244,29.116-6.04,33.488-.389,2.137,1.06,3.473-1.973,1.51,1.709-12.41,4.445-24.886,7.511-37.011,29.42,20.769,65.021,28.729,99.489,37.011Z"/>
  <path class="cls-6" d="M530,455c-14.749-5.092-30.724-3.004-46-5,1.334-2.908,8.051,0,9.5,0h21c5.409,0,11.095,2.666,15.5,5Z"/>
  <path class="cls-6" d="M542,394c-10.896-3.667-22.779-2.31-34-1,9.981-4.342,24.971-4.968,34,1Z"/>
  <path class="cls-6" d="M529,497c-16.598-7.785-24.94-6.327-40.444-11.054-3.049-.93-3.838-1.548-4.556-3.946,13.876,7.949,33.379,2.394,45,15Z"/>
  <path class="cls-6" d="M535,423l-48-1c9.863-1.764,32.273-2.114,42.546-1.049,3.609.374,3.022.778,5.454,2.049Z"/>
  <path class="cls-6" d="M633,523c-1.355-10.282,7.263-22.372,11.173-32.327,1.549-3.943,8.577-27.841,9.842-28.677,2.375-1.568,13.483,6.191,13.927,10.582.588,5.82-6.264,23.444-8.942,29.422-2.05-.948-.36-3.093.115-4.377,2.77-7.484,11.502-24.401,4.131-30.643-1.921-1.627-6.283-3.666-8.263-1.513-6.11,6.646-10.034,32.212-15.967,41.051.094.779,10.874-.066,11.983,8.482-.219.096-.644-.037-1,0-11.274-12.65-18.922,2.066-8,11-4.6,3.296-4.918-4.105-9-3Z"/>
  <path class="cls-6" d="M650,523c.669-2.65,1.362-5.209,1-8,.33-.145,1.294.362,1.802-.169.447-.467,4.257-9.809,5.198-11.831l-8,20Z"/>
  <path class="cls-6" d="M521,240l.977-20.478-3.977-14.522c7.448,7.542,5.598,25.415,3,35Z"/>
  <path class="cls-3" d="M641,378c-3.036,2.519-8.243,3.329-12,1-5.22-5.79,11.428-4.384,12-1Z"/>
  <path class="cls-6" d="M183,832l-14,6.989c5.2.482,22.328,3.211,25,7.011l-29.994-7.012,18.994-6.988Z"/>
  <path class="cls-6" d="M492,480c9.819-1.881,21.116,1.658,31.013,3.023-.149.409-1.056.921-1.013.977-9.969-1.466-19.988-2.838-30-4Z"/>
  <path class="cls-6" d="M612,504c-2.119-3.341-4.284-6.187-4.909-10.591-1.275-8.983,6.509-28.077-7.46-27.36-7.278.374-1.502,3.576-.858,5.601.18.567-.793,1.274-.773,1.351.33-2.425-5.527-4.896-4.998-5.984,1.182-2.433,8.385-2.991,11.503-1.015,9.5,6.022,3.188,13.56,3.429,22.497.143,5.294,2.425,10.582,4.066,15.502Z"/>
  <path class="cls-6" d="M727,751c-11.171,8.037-22.449,7.346-35,3l19.489,2.019,15.511-5.019Z"/>
  <path class="cls-6" d="M660,687c-1.518,1.994-3.207,2.52-4.57,4.93-5.61,9.918-1.908,22.499,2.57,32.07-8.221-11.295-11.45-28.51,2-37Z"/>
  <path class="cls-6" d="M234,932l-50,15c16.521-4.76,32.839-12.458,50-15Z"/>
  <path class="cls-6" d="M471,271c-3.203-9.417-1.48-12.914,0-22v22Z"/>
  <path class="cls-6" d="M396,489c3.638-.104.677,3.306.917,7.513.533,9.35,3.394,17.493,8.083,25.487-5.153.918-11.576-28.306-9-33Z"/>
  <path class="cls-6" d="M171,950c-9.764.753-20.131.567-30,1-.562-3.018,1.529-1.937,3.451-2.001,8.488-.283,18.244-.627,26.549,1.001Z"/>
  <path class="cls-6" d="M550,500c.323-1.692,3.184.2,3.873.626,1.221.754,14.445,9.937,15.139,6.874.106-.467-2.119-.925-3.011-2.5,2.656.448,5.105,2.62,8,2,3.502-.75,6.454-10.096.441-11.012-4.413-.673-5.73,3.885-4.441,7.012-5.619-15.523,17.5-8.37,6.417,3.917-6.968,7.725-19.17-2.933-26.417-6.917Z"/>
  <path class="cls-6" d="M411,482c-7.605,9.976-6.521,13.558-8,26-.716-8.401-1.501-22.413,8-26Z"/>
  <path class="cls-6" d="M615,447l-.988,8.995c1.764-.793,4.035-9.167,6.988-5.995l-2.998,2.451-4.996,8.543c.018-5.827-.988-8.872,1.994-13.994Z"/>
  <path class="cls-6" d="M644,712c-.629,1.679,2.198,6.681,2,6.985-.718,1.103-21.822,4.505-25,8.015l-.955-.89c2.947-3.292,23.308-7.036,23.962-8.122.367-.61-1.075-2.645-.966-3.656.155-1.427.951-2.206.958-2.332Z"/>
  <path class="cls-6" d="M462,387c2.966-1.915,1.602-.731,2.037,1.446.471,2.355,1.493,13.066,1.968,13.559,1.205,1.252,7.942-3.968,9.995-1.005-1.894.425-10.126,2.598-10.953,1.958-.643-.497-2.613-13.602-3.047-15.958Z"/>
  <path class="cls-8" d="M558.988,537.999c-8.362-4.096.212-9.049,1.001-7.999.814,1.084-1.072,6.251-1.001,7.999Z"/>
  <path class="cls-6" d="M202,488c.567,2.642-1.332,1.998-2.977,2.472-8.377,2.409-20.591,7.198-28.023,7.528,9.892-2.804,20.943-8.331,31-10Z"/>
  <path class="cls-6" d="M597,419c4.392-11.519,4.592-22.113,11-33-4.904,9.912-4.322,24.759-11,33Z"/>
  <path class="cls-6" d="M484,452c5.726,4.047,12.649,3.366,19,6-4.401-.432-17.358-.428-19-6Z"/>
  <path class="cls-6" d="M521,429c-8.64,1.638-30.023,1.32-37.301-3.215-2.444-1.523-.904-.91-.699-1.785,11.824,5.575,25.394,4.206,38,5Z"/>
  <path class="cls-6" d="M629,379c-1.034-.641-2.028-.93-2.039-2.482-.028-3.968,12.672-.686,16.038-.506.016,1.143-1.314,1.42-1.999,1.988-1.382-2.054-16.338-4.418-12,1Z"/>
  <path class="cls-6" d="M507,393c-5.423,2.859-12.057,3.64-18,5-.6-3.087,1.53-1.707,3.322-2.125,4.874-1.136,9.714-2.218,14.678-2.875Z"/>
  <path class="cls-6" d="M640,441l-10.459-2.041-9.541,3.041c7.074-5.016,12.445-6.112,20-1Z"/>
  <path class="cls-6" d="M591,494c-.916,1.218-2.85,2.093-3.012,2.717-2.073,7.977,2.044,9.842-6.988,16.283,7.047-4.809,3.259-16.661,10-19Z"/>
  <path class="cls-6" d="M648,460l-15,37c.28-1.259,1.13-4.472,1.006-5.277-.133-.862-1.736-1.251-2.006-1.723,4.882.483-.837-4.426-2-7,3.696,1.881,2.696,3.377,5.987,5.997,2.908-9.401,7.244-18.119,9.877-27.651.575-2.082-.816-3.265,2.136-1.346Z"/>
  <path class="cls-6" d="M735,741c3.218-9.124,2.764-16.673-2-25,6.188,9.798,7.281,13.911,2,25Z"/>
  <path class="cls-6" d="M568,538c.021-4.06,1.115-8.088,2-12,2.737,3.394-.896,8.714-2,12Z"/>
  <path class="cls-6" d="M486,213l-14,29c2.384-9.572,6.969-21.991,14-29Z"/>
  <path class="cls-6" d="M559,316c2.053-2.301,14.07-3.733,13,0-5.147-1.12-7.739-1.055-13,0Z"/>
  <path class="cls-6" d="M663,680c-11.29,3.264-18.549,8.227-19,21,.002-.266-1.315-2.147-.784-5.26,1.544-9.042,11.105-15.485,19.784-15.74Z"/>
  <path class="cls-6" d="M741,539l25,26c-8.386-4.87-19.074-17.828-25-26Z"/>
  <path class="cls-6" d="M616,388c-1.03,2.471-3.786,10.254-3.971,12.545-.234,2.89,1.76.106,2.971.455-.599.458-5.334,6.299-5.028,2.486.362-4.504,3.976-11.335,6.028-15.486Z"/>
  <path class="cls-6" d="M268,830c-5.244-5.735-12.035-12.026-18-17,7.304,3.471,13.52,10.364,18,17Z"/>
  <path class="cls-6" d="M596,420c-5.41,4.369-8.495,3.925-15,1,3.172-.503,5.752,1.384,9.52,1.072,2.139-.177,3.492-1.649,5.48-2.072Z"/>
  <path class="cls-6" d="M681,508c-2.082-3.406-2.956-7.572-5-11,2.383,2.523,5.758,7.438,5,11Z"/>
  <path class="cls-6" d="M481,517c.965-1.156.993-1.975,3-4l-3,4Z"/>
  <path class="cls-3" d="M433,545c-.986.088-2.015-.092-3,0,.145-1.493,2.855-1.493,3,0Z"/>
  <path class="cls-2" d="M815.994,837.011c.748.5-.917,1.694-1.989.977-.748-.5.917-1.694,1.989-.977Z"/>
  <path class="cls-2" d="M720.994,838.011c.748.5-.917,1.694-1.989.977-.748-.5.917-1.694,1.989-.977Z"/>
  <path class="cls-7" d="M189,908c2.143-.345,9.666-2.075,10.996-.992.454.37-.801,2.364-.996,2.992-6.115,5.7-15.546,9.252-24,10-11.211,2.138-16.151,1.313-4-6,5.755-2.691,11.821-4.521,18-6Z"/>
  <path class="cls-6" d="M175,920c8.502-1.622,16.74-5.44,24-10-.021.068,1.113.392.081,1.419-3.114,3.102-19.325,10.521-24.081,8.581Z"/>
  <path class="cls-6" d="M189,908l-18,6c5.896-3.549,11.325-4.926,18-6Z"/>
  <path class="cls-7" d="M679,710c.084-.233,1.856-.73,1.879-1.472.06-1.951-5.571-13.344.824-15.321,9.428-2.915,6.521,2.679,9.417,8.174,4.24,8.047,16.824,7.875,24.572,11.428,23.062,10.576,14.099,41-10.193,39.197-1.014-.075-8.177-1.752-8.491-2.056-.177-.172-.2-4.79-.005-4.942.635-.498,11.194,1.383,15.998-.007,5.37-3.675,9.622-6.839,8.868-13.901-.307-2.874-1.218-8.114-4.868-7.099-3.593,3.908-7.116,8.554-12,11-4.137,1.032-8.991,2.171-13,1-.386-1.379-10.304-1.506-11-7-3.618-5.192-2.773-12.902-2-19Z"/>
  <path class="cls-7" d="M581,548c5.974,30.209,13.974,59.875,24,89,5.31,13.689,12.47,23.669,25.336,31.164,4.802,2.797,12.163,4.533,16.376,7.588,3.48,2.522-1.758,3.276-4.211,3.236-12.106-.197-32.351-18.002-38.501-27.987-12.342-22.522-18.153-48.053-22.625-73.223-.829-4.664-4.106-27.905-1.609-31.718.132-.202.631-.165,1.235-.058.065.65-.096,1.367,0,2Z"/>
  <path class="cls-7" d="M791,578c8.222,4.773,9.12,17.878,5,25-2.418,9.632-6.141,14.897-14,21-2.838,2.336-20.564,10.915-22.324,8.188-.33-.512.842-1.891,1.423-2.537,12.124-9.008,18.757-20.225,19.9-33.651,1.062-3.476,3.919-18.009,6.614-18.828.65-.198,2.524.54,3.386.828Z"/>
  <path class="cls-7" d="M750,581c1.546-2.247,3.49-1.421,5.833,2.478,5.007-.084,9.396,1.09,13.167,3.522,1.217,1.45,2.164,2.991,2,5-6.865-2.815-14.032-4.698-20,1-3.705,4.551-6.143,19.379-7.012,19.996-4.936,3.503-2.559-18.123-1.917-20.425,1.326-4.759,4.334-8.428,7.93-11.57Z"/>
  <path class="cls-6" d="M604,651c-15.058-27.733-25.038-66.76-25.975-98.513-.064-2.174-.153-7.28,1.997-8.462,3.376-1.855.959,1.782.978,1.974-1.69,3.283-1.237,8.839-.984,12.483,1.661,23.906,11.537,72.31,23.984,92.517Z"/>
  <path class="cls-7" d="M714,535c-.168,4.418-1.597,10.911-5,14-1.376,2.134-6.718,4.026-8.986,3.529-1.046-.229,9.268-17.956,10.25-18.744,2.188-1.757,4.017-2.02,3.736,1.215Z"/>
  <path class="cls-7" d="M699,553c.245,5.981,3.365,6.711,8.716,6.819,5.107-.917,9.535-.857,13.284.181-.699.608-1.875,1.933-2,2-6.339,2.167-13.685,4.423-20,1-1.328-1.199-3.127-4.665-3.087-6.53.087-4.047,2.848-3.108,3.087-3.47Z"/>
  <path class="cls-6" d="M581,548c2.82-.593,1.893,1.405,2.3,3.147,6.696,28.64,11.005,58.283,21.7,85.853-10.953-27.277-19.564-59.79-24-89Z"/>
  <path class="cls-7" d="M674,724c.083.662.355,2.041-.495,1.995-.243-2.198-4.32-3.726-4.505-3.995-10.034-21.476.419-11.164,5,2Z"/>
  <path class="cls-6" d="M791,578c8.867,2.962,8.592,16.181,7.151,23.668-.448,2.325.602,3.112-2.151,1.332,2.47-9.841,3.144-17.68-5-25Z"/>
  <path class="cls-6" d="M717,724c.406-.441-.145-4.556,3.364.242,5.733,7.84,1.762,18.117-7.364,20.758l7.997-8.551c-.589-3.273.873-11.83-3.997-12.449Z"/>
  <path class="cls-6" d="M781,596c2.104,16.288-11.779,25.236-21,35.989,8.112-.363,14.856-4.934,22-7.989-4.513,3.505-7.629,5.378-13.215,7.286-3.393,1.159-9.864,4.165-9.563.005.18-2.488,14.036-13.314,16.631-17.937,2.89-5.147,3.441-11.771,5.146-17.354Z"/>
  <path class="cls-6" d="M771,592l-13.48-2.071-6.52,3.071c5.355-6.578,13.614-5.897,20-1Z"/>
  <path class="cls-6" d="M719,562c-5.385,2.876-15.035,5.484-20,1,6.803,2.422,13.337.334,20-1Z"/>
  <path class="cls-6" d="M714,535c-.919-1.83-1.444-2.919-3.467-.967-.685.661-9.074,15.347-9.521,16.485-1.419,3.616,7.432-1.014,7.988-1.518-1.261,4.533-8.75,3.542-8.989,3.998-4.866,9.287,19.251,5.047,22.983,5.008.251,3.607-1.888,1.901-1.994,1.994-7.564-2.094-22.155,6.26-22-7,2.66-4.018,9.406-21.04,13.502-21.029,3.855.01,1.507,2.797,1.498,3.029Z"/>
  <path class="cls-6" d="M681,729l-.928.988c-2.286-6.148-3.297-13.828-1.072-19.988.094,6.398-.801,13.015,2,19Z"/>
  <path class="cls-6" d="M750,581c.206-.18-.686-4.043,3.806-1.34,1.932,1.163.911,2.932,1.278,3.197,1.741,1.254,9.03-1.676,13.916,4.143-3.731-2.43-10.092-1.955-13.344-3.193-1.624-.618-1.613-4.255-5.656-2.807Z"/>
  <path class="cls-6" d="M705,735c-5.31,2.66-8.049,2.225-14.014,1.979.144-.417,1.033-.911,1.014-.979l13-1Z"/>
  <path class="cls-6" d="M669,722c-2.42-1.288-7.183-13.853-3.511-13.987,2.021-.074,8.238,13.808,8.511,15.987-3.955-1.823-4.953-12.612-7.516-13.99-3.747-2.014,2.026,11.276,2.516,11.99Z"/>
  <path class="cls-7" d="M468.994,424.006l-20.758,20.925c-6.124,3.159-.87-5.868.355-7.839,4.372-7.038,11.546-13.622,20.403-13.085Z"/>
  <path class="cls-7" d="M575,482c-2.484-4.341-.306-12.466,4.994-13.995-2.507,9.001-3.272,12.369,6.006,16.995-3.656.616-8.723.979-11-3Z"/>
  <path class="cls-7" d="M471.991,455.014l-19.986,12.98c3.474-7.092,10.92-17.451,19.986-12.98Z"/>
  <path class="cls-7" d="M835.006,791.995c-1.609-1.783,8.782-14.381,10.407-17.082,10.869-18.07,15.628-35.378,17.571-56.429,1.236-13.395-.172-27.572,2.511-40.478,1.752,3.022,2.264,8.997,2.489,12.511,1.862,29.103,1.442,60.394-15.763,85.203-1.358,1.958-15.013,18.714-17.214,16.274Z"/>
  <path class="cls-7" d="M506,206c11.009,10.277,6.68,32.147,2,45-9.271,7.824-9.708-9.62-13.985-6-.242.205-.614,4.673-1.326,6.193-1.556,3.321-3.582,5.654-4.448,9.547-.833,3.743,1.588,11.316-3.798,7.315-1.208-.897-4.195-6.604-4.443-8.056-1.107-3.405-.644-8.428,0-12,2.932-6.738,5.712-12.731,12-17,2.733-2.035,6.786-2.129,12.159-.28,3.346-.783,1.25-14.777-.771-14.72-1.346.038-2.465.833-3.521,1.606-5.825,5.869-16.959,13.919-9.836-1.06,1.499-3.151,5.196-6.476,7.969-8.546,1.944-.939,5.872-2.301,8-2Z"/>
  <path class="cls-7" d="M573,346c2.86,4.978,9.684,2.643,12.699,3.712,1.971.699,5.027,4.648,6.301,5.288v1c-9.383,2.997-18.05,2.33-26-2-1.605-1.398-5.787-6.186-7-8-2.195-4.292-3.997-9.631-1-14,3.912-3.12,4.189,4.843,7.004,8.497,2.267,2.942,4.754,4.056,7.996,5.503Z"/>
  <path class="cls-6" d="M508,251c3.364-14.018,8.23-33.065-2-45,1.701.241,4.559,2.587,5.256,4.246,3.011,7.156,2.829,35.619-3.256,40.754Z"/>
  <path class="cls-7" d="M632,355c-5.306,1.989-9.063,8.293-15.491,7.984-.889-.043-1.402-.979-1.509-.984,1.847-3.983,10.505-6.747,14.547-7.959,1.814-.544,2.75-2.376,2.453.959Z"/>
  <path class="cls-6" d="M498,208c-3.216,2.283-12.006,13.428-8.994,16.995.908,1.075,13.57-11.965,15.984-9.995.663.541,2.625,16.346,2.005,16.996-.53.555-11.639-4.006-14.994-.996l-.994-.94c2.89-2.845,13.536.483,13.986-.064.414-.504-.504-12.577-1.002-12.997-3.635-3.06-14.44,15.256-16.595,7.066-1.45-5.511,5.837-13.762,10.605-16.065Z"/>
  <path class="cls-6" d="M592,356l.514,1.975c-11.022-2.267-16.404,4.827-26.514-3.975,8.695,5.062,16.675,2.131,26,2Z"/>
  <path class="cls-7" d="M589.994,390.994c-1.883,2.159-9.862-10.015-5.494-9.972,1.397.014,6.751,8.531,5.494,9.972Z"/>
  <path class="cls-6" d="M480,248c.423,3.708-.6,8.495,0,12l-1.003.519-.002-13.017,1.004.498Z"/>
  <path class="cls-6" d="M559,346c-2.563-3.834-5.472-10.434-1-14-1.613,5.219-.819,9.029,1,14Z"/>
  <path class="cls-7" d="M395.989,419c2.555,3.36-6.286,12.439-11.491,12.089-11.154-.751,10.521-13.364,11.491-12.089Z"/>
  <path class="cls-7" d="M650,515c-1.084.114-.477.226-2,0-9.007-7.327-9.404,3.454-6,10-.095.34.134.904,0,1-16.294-5.066-2.054-30.256,8-11Z"/>
  <path class="cls-6" d="M648,515c-1.55-.23-4.785-3.717-6.539-1.039-2.21,3.375,1.086,9.082.539,11.039-5.744-6.324-2.027-19.131,6-10Z"/>
  <path class="cls-7" d="M582,450c1.91,1.626,5.071,2.784,4.994,4.994-15.954,2.206-18.724-19.72-.994-14.982.426,4.078-5.64.151-6.854,4.711-1.245,4.675,1.806,4.385,2.854,5.277Z"/>
  <path class="cls-3" d="M591,454c-2.921,3.416-2.75-1.262-3.628-2.08-.815-.759-4.05-1.524-5.372-1.92-.746-.964-.085-5.391.563-5.988,1.796-1.657,2.69.112,3.292-.206.479-.253.854-2.719,1.643-2.786,2.622-.221,5.69,10.422,3.502,12.98Z"/>
  <path class="cls-3" d="M712,722c-.769,2.854-3.449,2.957-5,4-6.089,3.506-11.137,4.866-18,2-2.793-1.796-1.836-2.021-3-4-.648-1.413-3.033-7.225-1.532-8.007,8.901,4.145,16.956,4.573,26.452,4.915l1.08,1.093Z"/>
  <path class="cls-6" d="M686,724c-2.151-3.655-3.421-6.766-3.995-10.993,6.216,3.993,11.093,6.004,18.518,6.97,3.07.399,12.453-1.6,11.477,2.023-4.833-2.002-10.11-.517-15.239-1.261-7.77-1.128-14.379-8.779-10.761,3.261Z"/>
  <path class="cls-6" d="M707,726c-5.782,3.889-11.088,6.445-18,2,2.706-.723,5.066,1.222,8.461,1.039,3.464-.187,6.253-2.358,9.539-3.039Z"/>
</svg>