<?xml version="1.0" encoding="UTF-8"?>
<svg id="Layer_1" data-name="Layer 1" xmlns="http://www.w3.org/2000/svg" viewBox="0 0 1025 1025">
  <defs>
    <style>
      .cls-1 {
        fill: #1271a1;
      }

      .cls-2 {
        fill: #083045;
      }

      .cls-3 {
        fill: #fff;
      }

      .cls-4 {
        fill: #f0b375;
      }

      .cls-5 {
        fill: #d92626;
      }

      .cls-6 {
        fill: #000;
      }

      .cls-7 {
        fill: #934e1f;
      }
    </style>
  </defs>
  <path class="cls-3" d="M766,1025H0V0h1025v1025h-203c-4.088-6.388,5.208-6.042,9.383-4.905,11.666-1.034,23.334-21.095,16.26-31.608-.037-1.608.913-2.655,2.319-3.378l172.085,22.852c.418-6.76.404-13.546-.042-20.358l1.995-1.604c-2.862-36.854-2.996-74.153,0-111-1.969-3.628-1.957-7.368,0-11-.519-1.236-.998-2.482-1.336-3.765-1.731-6.557-1.563-34.7.094-41.455.315-1.284.76-2.536,1.243-3.779l-1.987-1.388-.049-8.513c-82.142-28.953-165.669-54.427-251.993-67.116l.624-5.218c11.611-28.162,7.508-59.739-10.486-83.91-4.75-11.97-7.866-24.586-9.348-37.848-6.616-28.161-18.324-45.488-49.151-34.031-2.88-1.73-3.577-5.09-2.089-10.081,5.996-29.713,9.171-59.312-4.387-88.463-7.378-15.565-14.199-31.283-20.463-47.153-1.101-10.11-1.944-20.317-2.527-30.62-15.261-37.005-22.722-75.478-29.842-115.236-3.519-15.609-7.807-31.163-14.437-45.774-34.263-75.51-108.172-87.064-182.174-97.095-7.452-11.758-15.848-22.798-25.188-33.122l-3.633-7.959c-26.839-112.681-185.642-57.802-178.51,40.228,5.052,14.885,9.274,29.852,12.665,44.899-4.914,15.32-11.159,30.359-18.737,45.116-5.675,15.69-8.817,28.549,12.497,19.119,3.381.341,3.652,3.004,2.642,5.846-7.74,19.327-6.827,38.618-4.644,59.627,2.99,28.774,8.755,61.367,15.656,89.277,1.743,7.05,4.649,10.488,11.405,13.791,5.743,9.107,7.735,21.258,9.311,32.029,1.737,35.817,5.421,70.006,19.463,103.707,9.927,24.231,18.628,48.917,26.104,74.058,2.579,9.078-.731,10.168-8.795,11.465-1.722.61-3.512,1.314-4.847,2.533-6.306,5.762-25.488,43.256-25.118,51.209,4.387,3.794-2.932,26.72-5.432,28.302-4.245,2.688-12.38-4.431-11.304-9.519,4.332-18.553-.989-24.519-17.255-32.49-14.937-7.32-30.3-13.228-46.777-13.68-6.013-1.647-10.256-6.764-12.731-15.353-7.609-9.023-17.779.062-23.737,6.173-5.833-2.832-11.547-3.994-17.142-3.485-16.5,5.721-24.183,3.079-34.225-10.432-22.121-14.026-40.755,7.427-47.212,27.756l-9.452,24.558c-15.517,19.99-14.884,39.44-9.836,62.98l1.33,24.633c1.709,16.496,6.259,26.109,14.533,39.631l-.608,1.868c-17.611,10.979,12.07,22.438,21.985,25.143,32.346,8.825,69.413,7.071,102.362,3.521l47.571,9.415c3.874,5.143,5.604,11.627,5.19,19.45,7.452,42.45,46.673,59.484,84.906,66.267,28.197,4.432,55.487,11.612,82.45,19.205l5.174.259c13.631-5.463,28.041-4.765,43.23,2.093,31.155,11.491,62.09,21.233,95.827,21.402l70.377,1.998c28.296,1.548,48.124,7.743,73.865,16.874l11.179,1.586c19.287-.671,37.409,2.44,54.365,9.334l1.402,3.133Z"/>
  <path class="cls-6" d="M766,1025c-21.523-13.348-47.194-7.059-69.839-12.661-17.648-4.366-26.942-11.562-47.8-14.2-44.473-5.624-89.984-.295-134.538-8.462-26.126-4.789-50.504-17.833-75.792-22.209-14.399-2.492-11.238.902-21.968,3.084-6.856,1.394-31.102-7.681-40.244-9.871-53.09-12.719-120.693-12.055-134.556-77.444-1.092-5.151.084-15.796-3.976-18.024l-46.814-9.25c-29.85,4.536-106.411,6.374-128.361-16.576-9.964-10.418,2.469-13.709,2.756-15.861.122-.914-7.413-11.837-8.571-14.323-7.851-16.848-5.733-31.07-7.318-48.682-1.543-17.137-6.783-28.046-.752-45.795,2.38-7.006,7.808-12.974,10.651-19.349,10.205-22.882,16.73-63.056,51.381-57.137,11.535,1.97,15.387,15.758,22.185,16.807,8.383,1.293,16.335-3.438,24.066-3.119,3.969.164,11.891,4.387,12.466,4.072.492-.27,3.056-5.526,7.798-7.726,20.336-9.434,18.828,11.989,24.898,15.806,2.206,1.387,14.948,1.686,19.133,2.615,10.111,2.246,42.624,14.817,48.024,22.976,8.015,12.11.557,21.492,2.803,27.054.365.903,6.446,5.305,6.875,5.249,1.046-.135,6.904-16.711,7.046-18.92.21-3.251-1.492-5.672-1.583-8.611-.255-8.297,19.451-47.596,26.011-52.963,4.648-3.802,12.505-4.005,13.008-4.492,4.596-4.444-22.787-71.116-26.26-81.219-5.156-14.999-10.811-31.46-14.045-46.955-5.881-28.179-1.253-52.986-10.972-81.028-3.457-9.974-2.342-5.196-8.644-10.356-5.926-4.852-6.115-9.39-7.588-16.412-6.868-32.724-19.957-95.041-15.334-126.375.578-3.918,6.634-20.84,5.848-21.64-2.553-2.601-30.74,18.991-14.758-24.269,4.019-10.879,17.149-32.24,17.793-42.26.609-9.461-11.044-32.015-12.757-45.248-10.156-78.486,117.265-149.726,170.13-70.13,8.652,13.027,9.204,24.691,15.418,36.582,3.446,6.593,11.062,12.477,15.593,18.407,3.566,4.667,5.716,10.112,9.183,14.817,61.971,8.518,129.938,17.526,168.624,72.376,30.829,43.711,31.192,96.067,44.278,145.722,3.603,13.671,13.753,33.032,15.243,44.758,2.054,16.163-2.46,18.361,5.088,35.911,13.99,32.526,27.544,51.28,27.241,89.83-.056,7.12-7.421,43.653-6.059,45.5.59.8,11.691-4.665,19.231-3.734,35.613,4.396,30.941,48.179,39.288,71.704,2.246,6.329,7.733,12.342,10.642,18.358,11.911,24.637,11.782,50.681.823,75.667,86.668,10.784,170.012,37.899,252.005,66.505,1.842,1.778.918,8.643,1,11.5-2.136,2.2-8.04,2.632-10.196.091-2.717,1.995-4.963.974-6.738-3.062-6.833-.187-9.524-1.407-15.327-5.734-6.88,2.476-10.399,1.703-10.559-2.319l-5.292-1.72c-3.903,4.397-8.032,3.672-11.454-.592-7.464,7.035-13.239.87-5.457-5.111-7.487-3.478-15.61-5.935-24.368-7.371l-20.645-8.107c-3.419-1.276-4.995-1.286-8.004.663-13.705-6.35-28.144-10.666-43.319-12.947-3.691,3.667-7.334,2.47-10.93-3.593l-1.756-1.265c-8.134-.303-15.779-1.594-22.933-3.87-.388,2.315-2.053,3.345-4.33,2.621-3.922-3.862-9.196-5.958-14.578-6.67-3.359,3.463-7.785,4.874-9.549-.693-4.665-2.745-6.371-2.783-11.025-.34l-2.226-1.159c-.376-3.03-2.961-4.28-7.753-3.749-5.851,1.469-10.751.751-14.702-2.154-2.889,3.306-8.711,4.643-10.095-.383-4.126-.149-7.552,1.047-10.276,3.589l-7.56,1.002c.006,2.822-.964,5.116-2.908,6.882,3.571.285,7.131,1.284,10.679,2.996,5.518-4.138,8.349-3.57,8.492,1.704,19.424,4.857,36.676,12.958,46.529,31.427l1.314-2.474c-4.379-5.146-4.774-10.029-1.183-14.649-1.466-3.058-4.455-19.417,2.636-15.297,2.657,1.544,14.635,29.271,10.407,35.437,2.687,1.406,2.269,3.846,1.285,6.275,9.771.698,19.426,2.83,28.963,6.395l10.331-.871c2.335.64,2.543,2.458,2.748,4.512,9.367-.093,17.983,1.678,25.848,5.313,1.784-3.776,4.985-2.44,5.444,1.422l13.426,3.647c5.551-4.775,11.175-1.159,14.133,4.524l7.508,1.417c2.418-1.951,4.082-1.826,5.912.933,3.755-1.728,5.891-.585,7.485,3.118,4.704-.232,7.471.594,10.669,4.152,15.225,2.494,29.651,6.554,43.279,12.181,3.852-7.61,7.055-3.745,7.929,2.824,8.907,1.762,17.798,4.395,26.673,7.897l1.475,2.109c.012,3.659-.012,7.341,0,11l-5.306.602c-13.71-2.716-27.626-6.298-40.075-12.212l-7.719-.223c-2.517-2.764-5.894-4.052-10.131-3.865-8.357-4.071-14.082-6.42-23.545-4.386-1.537-1.878-3.247-2.781-5.131-2.71l-2.282-3.137c-4.41,1.236-7.968.63-10.675-1.816-2.812,3.448-5.214,4.183-6.825-.513-1.821-2.532-6.773-6.186-9.216-3.062-1.922.726-3.67-.538-5.245-3.791-8.656.027-17.2-2.19-25.632-6.651l-2.885-.127c-5.784,1.758-9.01.693-9.679-3.195-9.819-1.108-19.644-3.253-29.476-6.435-5.599.391-9.879-.708-12.841-3.296-4.894,1.883-9.823.781-14.787-3.305l-20.646-1.824c-8.004-7.075,5.317-10.367,11.273-11.805-6.921-5.503-36.539-27.378-43.942-26.29-5.028,2.812-8.896,3.522-8.167-3.689l-10.958-.339c-8.122-5.435-11.987-5.055-16.136,4.239l-15.242,17.467c2.996,3.586-.107,5.795-3.94,6.573l-.956,3.259c-7.212,7.611-10.48,15.678-9.806,24.2-5.758.852-8.983,5.541-9.675,14.066-5.317,7.454-5.407,10.862-3.325,19.116l-1.325,1.143c-5.949-2.219-5.913,1.546-4.329,6.372-3.622,5.397-4.418,10.398-2.389,15.003-2.032.732-7.241,14.551-6.707,15.23.205.262,6.236,1.406,6.532,1.254.785-5.234,5.312-5.599,6.826-.731,2.064.127,2.512.716,3.36,2.779,7.724,2.435,15.421,4.729,23.089,6.884,6.562-3.013,9.653-2.28,9.274,2.199,9.262,2.854,18.804,4.522,28.625,5.003l1.287,2.741,15.463,2.197c3.875-1.338,6.801-.854,8.78,1.452,6.555.96,13.065,2.166,19.53,3.619,5.386-3.22,7.851-2.931,10.334,2.986l17.557.375c4.602,2.983,8.94,4.249,13.014,3.801,4.839-3.115,7.405-2.863,7.697.755,8.336,3.639,16.855,5.516,25.557,5.632,2.927-1.808,5.449-2.307,7.566-1.498,4.469-3.223,7.538-.508,7.321,4.529,10.766,1.255,21.335,3.052,31.707,5.389,3.853-2.588,8.842-3.27,9.413,2.507,5.826-2.541,11.721-1.708,17.686,2.5,1.922-4.533,5.348-4.053,8.799-.961,12.967.008,24.217,15.562,4.464,10.031-3.997,5.324-9.449,7.673-9.251-1.291-6.089,2.401-12.838,1.62-20.247-2.342l-9.598-.541c-4.383-4.953-14.986-3.501-20.645-1.045-2.675-2.761-4.417-3.916-8.669-4.349-14.259-1.085-28.11-3.557-41.554-7.418-6.639,2.485-11.949,1.716-15.929-2.306-17.99-3.979-36.873-7.435-54.971-10.484l-4.269,1.707c-1.429-.944-7.996-3.108-7.764-1.607.155,1.002,13.086,4.236,14.799,1.523l1.654,1.395c15.791,2.914,30.676,8.423,44.655,16.528l2.893-.485c2.12,1.984,4.644,2.755,7.573,2.311-.129,4.528,12.706,13.84,15.939,14.182,3.578-2.83,8.026-1.864,7.834,2.705,22.643,2.686,45.344,4.855,68.104,6.507l13.859,2.819c1.901-8.514,9.861-10.508,7.961.038,1.534-2.979,4.087-2.267,7.659,2.138l4.274-.434c7.565-4.264,11.03-3.585,10.395,2.035,2.621-.681,5.497-.755,7.94.5.036-6.809,10.761-4.808,10.169,1.334l3.742.641c.761-6.699,10.244-5.368,7.973,1.546,5.044-.225,10.038.091,14.982.947,4.26,4.141.585-2.526-.612-3.585-1.926-1.703-17.11-7.434-20.956-7.967-6.808-10.068,8.304-11.778,13.16-4.475,3.968-.167,6.66.79,8.077,2.872,7.559,2.78,15.199,5.228,22.921,7.345l1.741,2.214c-.05,6.609.916,16.48.008,22.53-.205,1.365.57,1.703-1.516,1.508l-173.482-23.037c8.828,11.701-4.641,34.161-17.52,35.088-3.933.283-8.426-3.48-9.491,2.911h-56Z"/>
  <path class="cls-2" d="M1024,986c-9.567-.767-18.225-6.444-27.006-8.009,2.678-3.462-2.661-1.302-6.07-2.418-2.385-.781-2.424-3.07-3.686-3.549-.362-.137-7.283-1.153-7.662-1.078-.641.126-1.77,4.864-1.578,5.047.204.195,3.904.284,5.559.954,5.792,2.342,10.892,6.296,17.226,7.257.956,7.552,4.034,2.902,10.212,4.809l-9.545,4.091c-2.885-4.206-16.448-1.129-19.449-3.113-.212-.14,1.905-4.104.993-4.984-.144-.139-3.85-.156-3.99-.014-.352.356.345,3.656,0,4.016-.826.864-8.145-1.205-9.998-1.02,6.386-4.149-3.08-5.759-3.869-4.844-.514.597.058,3.241-1.744,3.801-1.02.317-3.174-.885-4.789-.845-5.463.134-6.094,3.949-5.611-5.095-5.815,2.71-14.935,8.298-17.489-1.001-8.7,13.821-3.944-3.362-4.511-4-2.43-2.73-4.709,6.656-5.088,6.909-.799.535-12.729-2.605-15.425-2.896-22.907-2.471-46.075-2.808-68.822-6.977-2.466-7.486-3.983-2.289-6.982-2.258-2.086.022-13.982-8.311-15.375-10.068-1.238-1.563-1.134-4.554-1.312-4.723-.443-.419-3.061,1.358-4.383.949-1.299-.401-1.413-2.637-1.722-2.807-.216-.119-2.589,1.151-4.904.467-5.203-1.537-15.17-8.63-21.994-11.089-7.08-2.552-15.792-3.127-22.264-5.552-.929-.348-.84-1.161-.741-1.948-4.304,5.445-14.157-1.158-19.533-1.962-5.992-.896-7.392,2.814-8.918,3-5.736.7-35.111-1.993-41.882-3.2-5.72-1.02-9.133-3.839-12.4-4.6-6.294-1.466-18.987-2.172-24.549-4.452-4.522-1.854-2.007-6.674-1.222-9.355.209-.713-.787-2.172-.476-2.435.801-.678,4.415,1.391,4.985,1,.475-.326.442-6.206,3.354-5.909,1.249.127,4.189,2.884,6.583,3.477,3.083.763,10.254.387,12.453,1.381,1.338.604-.008,2.772,1.173,3.117,1.944.569,6.211-.518,8.885-.008,10.33,1.969,25.502,7.726,35.292,9.889,5.148,1.137,9.84-1.308,15.646,2.172,1.135.681,4.267,6.873,5.622,2.368.315-1.047-2.479.294-1.991-1.483,5.931-1.322,3.708,6.025,8.984.983-.587,6.172,2.741,1.355,5.294,1.286,4.027-.109,16.356,2.912,21.133,3.816,10.027,1.897,18.639,3.926,28.027,4.876,8.33.843,9.704,5.279,12.274,5.894,1.692.405,5.422-2.211,9.672-1.798,3.568.346,8.285,2.958,12.391,3.651,9.102,1.536,27.996,2.472,35.577,5.453,1.703.67,1.288,2.835,2.163,2.862,1.28.039,2.506-1.899,4.052-2.047,1.005-.096,14.148-.019,14.878.157,1.154.279,1.132,2.56,2.259,2.879,2.078.589,6.151-.223,9.343.426,5.997,1.219,10.864,5.102,15.881,3.992,3.876-.857,6.323-6.713,6.074,4.552,3.051.294,4.424-4.268,6.726-4.865,2.137-.554,7.296,3.102,9.265.863,2.127-2.419-14.392-9.648-16.99-6.002l1.984-1.976c-6.387-3.954-3.954.984-5.089,1.88-2.059,1.627-11.164-4.542-12.385-4.547-.523-.002-7.856,3.419-9.523,1.659-1.272-1.343,3.474-6.832-7.23-2.156-8.019-4.244-26.188-2.002-33.128-5.793-1.424-.778.99-8.64-5.045-4.148-1.376,1.024.636,3.885-2.587,3.083l-.017-4.994c-3.837,6.829-16.418,2.515-23.4.909-3.92-.902-6.061-4.903-11.581-1.913,4.141-8.474,1.496-3.438-3.449-1.932-7.164,2.182-7.403-1.91-13.084-3.528-5.044-1.436-15.219.54-18.806-.704-2.385-.827-2.057-4.659-3.282-4.913-2.608-.541-4.429,2.219-6.793,2.105-4.223-.204-12.671-3.131-17.348-3.787-1.361-.191-4.015,1.002-4.24.766-.304-.318.294-2.688-.009-3.004-.326-.34-4.641,1.029-6.326.923-2.152-.135-17.966-2.3-18.669-2.93-.443-.398,1.347-2.705.998-2.982-4.806.654-27.408-1.378-29.593-5.01-.621-1.032.793-2.841.6-2.992-1.353-1.054-5.884,1.847-8.226,1.789-7.67-.19-18.811-8.554-27.779-6.807l3.994-2.978c-4.667,1.26-4.329-2.43-5.014-3.002-2.687-2.243-1.792,3.795-1.985,3.999-.384.406-10.644-1.587-11-2.018-1.432-1.729,6.787-14.014,3.004-15.979,8.082.979,1.78-3.567,2.202-6.331.165-1.079,3.834-7.645,4.379-10.199.106-.496-1.589-1.561-1.225-3.499.416-2.218,2.425-4.575,2.659-6.974l3.98,3.986c1.023-2.715-1.438-5.585-1.516-7.464-.243-5.793,3.307-8.242,5.019-12.533,2.486-6.229,2.017-16.252,10.498-14.003-4.848-8.291,4.692-16.996,9.071-24.447.855-1.455.782-4.112,1.08-4.403.581-.567,3.783.373,4.845-1.662,1.03-1.973-2.21-1.197-1.993-1.971.927-3.316,13.385-15.971,16.42-19.595,4.338-5.179,2.525-10.208,13.068-7.892,2.219.487,2.848,2.503,5.033,2.958,2.815.587,9.841-.856,11.899.897,1.464,1.247.113,4.571.589,5.116.892,1.024,4.312-1.829,5.582-1.996,8.115-1.061,42.695,22.692,49.406,29.988-2.678-.269-20.883,3.066-15.997,8.008.786.795,18.02.723,22.23,2.274,3.612,1.331,3.495,3.389,3.935,3.625.9.482,2.456-1.03,3.288-.953.679.063.417,2.172,1.028,2.067.963-.166,1.878-2.077,4.819-1.826,2.586.221,2.716,2.814,3.284,2.826,5.676.129,6.236-.405,12.655,1.073,5.511,1.269,13.569,3.919,20.504,5.68,2.126.54,5.044-.24,6.641.361,2.06.775,1.342,3.58,1.662,3.849.36.302,6.753-1.174,9.355-.891,5.414.588,12.459,5.548,18.349,6.675,6.833,1.308,9.719-2.886,11.756,5.224,2.002-6.145,13.799.189,13.513,6.019,5.134-7.275,4.967-1.853,8.626-1.287,3.053.473,8.235-3.341,9.374,3.281,1.953.315.539-2.371.995-3.005.149-.207,4.783.876,4.99,1.024.505.363-3.032,2.792-1.989,3.988.37.424,9.118-1.182,11.224-.823,4.147.707,9.355,4.214,13.703,5.384,2.703.728,5.832-.096,7.515.367,1.205.331-.107,2.809,1.094,3.146,1.857.52,5.516-.377,8.512.37,3.882.968,7.266,3.672,11.16,4.839,11.096,3.326,22.657,5.472,33.782,8.718.119,36.973.281,74.029,0,111Z"/>
  <path class="cls-2" d="M1024,864c-7.425-.205-14.145-4.83-20.597-6.903-7.038-2.261-10.245,2.042-10.411-8.092-3.158-.811-2.468,3.847-3.579,4.082-4.16.88-10.793-4.288-14.606-5.402-9.731-2.844-20.985-3.36-30.371-6.62-2.422-.841-3.319-3.239-5.144-3.856-1.873-.633-4.286.245-6.326-.688-1.439-.658-1.58-3.377-2.649-3.6-1.511-.315-3.708,1.226-4.77.978-1.374-.321-1.428-2.819-1.572-2.898-.553-.304-1.55,1.762-3.241,1.751-1.045-.007-8.507-1.375-9.078-1.719-1.007-.606-.447-2.367-.918-2.706-.827-.594-5.993-4.199-6.37-4.266-1.707-.305-2.208,2.806-5.579,2.765-.756-.009-13.963-3.581-14.571-4.03-.729-.538-1.01-2.764-1.234-3.786-2.352-.027.67,3.058-2.488,3.009-1.804-.028-5.309-3.103-8.227-3.788-2.887-.678-19.4-1.339-20.216-2.284-.526-.609.293-3.555-.059-3.953-.345-.39-7.563,1.147-10.382.894-5.825-.522-13.335-4.32-19.353-5.647-1.984-.438-11.574-.559-12.265-1.246-.604-.601,1.211-4.087,1.057-5.368-.078-.648-1.987-.618-2.095-1.249-.411-2.413,1.316-9.391-.181-14.651-1.788-6.283-7.691-13.718-9.292-20.714-2.452-.584-1.625,4.359-1.524,5.53.263,3.031,2.129,6.569,1.852,8.731-.252,1.967-2.741,3.982-2.738,6.234.005,2.984,4.332,5.447,3.951,8.953-.139,1.285-2.943,4.531-3.526,4.522-.929-.013-8.395-12.551-10.973-15.008-3.264-3.11-12.705-9.182-16.845-11.155-3.934-1.875-18.965-5.676-20.089-6.691-1.375-1.242-.201-3.65-.598-4.122-.892-1.062-3.666,3.029-6.37,2.981-2.264-.041-5.088-2.038-7.364-2.746-1.652-.514-7.976.535-7.257-2.726,6.781-2.496,3.738-4.778,5.168-7.343,1.186-2.127,8.61-1.546,9.239-2.053,1.142-.922.364-2.861.595-3.125.591-.678,3.886,3.442,2.998-1.995,2.666-.967,1.633,1.84,2.651,2.046,1.837.374,6.109-1.323,6.338-1.047,1.17,1.409-3.088,5.915,5.204,2.893.929-.339.674-2.059,2.274-2.005,3.129.104,3.749,2.593,5.143,2.87,2.37.471,9.025-1.292,13.612-.481,7.691,1.361,4.478,3.402,5.787,4.728.7.709,3.461-2.055,5.459-2.09,2.386-.042,4.347,1.672,6.456,2.48.772.296,2.018-.5,2.065-.407.932,1.835-2.148,5.901,3.796,3.335,1.181-.51,1.124-2.261,1.795-2.318,4.334-.368,14.1,3.056,16.933,6.987,2.492.904,1.075-2.601,1.498-2.98,1.402-1.254,5.013,1.711,6.546,1.93,5.835.832,12.983.863,18.924,2.072,2.762.562,6.375,6.909,7.07,7.031,3.516.618,2.949-3.048,3.972-3.074,1.183-.031,2.443,1.769,4.019,1.988,11.526,1.603,20.521,3.661,31.658,7.341,2.755.91,8.279,4.491,9.319,4.709.689.144-.106-2.07,1.846-2.03,7.127.145,19.572,6.946,26.856,9.3,6.598,2.133,17.888,3.394,23.534,6.489,1.12.614,3.212,3.065,4.236,4.22-9.276.292-4.857,8.48-2.982,4.259.238-.535-.277-1.935-.007-2.259.253-.302,4.24,3.084,4.491-3.981,2.084,1.502,1.607,5.95,4.169,6.849,4.83,1.694,5.125-2.744,5.924-2.874.92-.15,9.051,2.526,9.342,3.108.218.437-1.343,2.519-.926,2.904.876.809,5.957-1.996,8.262-1.789,4.184.375,7.322,5.109,9.476,5.647,1.688.422,3.306-.78,4.585-.506,5.768,1.238,4.276,4.233,4.68,4.651,1.232,1.274,5.158-2.869,5.99-1.998.305.319-.3,2.66.009,3.007.266.298,6.135-1.567,7.994-.005.463,16.272-.055,32.712,0,49Z"/>
  <path class="cls-6" d="M908.762,205.261c80.542-10.814,78.949,165.08-3.958,146.436-52.306-11.763-53.847-138.675,3.958-146.436Z"/>
  <path class="cls-6" d="M852,208v28.5c0,1.909-25.89,23.596-26.988,27.018-.596,1.857.669,1.314,1.25,1.717,7.644,5.301,13.554,3.042,21.761,12.241,38.928,43.636-26.693,106.418-76.547,57.546-2.072-2.031-5.257-3.913-4.01-6.994,1.566-3.869,15.099-11.242,17.032-17.008,10.873,14.025,44.137,21.047,44.576-4.529.357-20.836-26.335-21.243-41.075-17.491v-23.5c0-2.074,26.922-24.556,28-30.5h-42v-27h78Z"/>
  <path class="cls-6" d="M690,343c-2.128-1.558,24.916-41.263,24.917-46.5,0-5.042-23.842-41.073-21.916-42.489,1.003-.737,23.82-.588,24.749.24,1.977,1.761,7.372,22.964,10.751,22.726,1.321-.093,9.87-22.978,13-22.978h21.5c-1.123,11.341-21.851,32.899-21.855,42.5-.004,9.387,22.974,35.031,24.855,46.5h-23.5c-2.983,0-13.362-29.011-15-29.011s-12.017,29.011-15,29.011c-3.143,0-21.592.665-22.5,0Z"/>
  <path class="cls-5" d="M466,371c-1.407,15.227-5.862,28.588-7.845,43.655-1.404,10.673-.634,32.638-4.337,40.663-2.331,5.05-7.869,10.944-10.985,16.015-1.088,1.77-3.449,8.421-3.852,8.671-.569.353-12.086-3.801-12.695-4.3-1.956-1.603-16.203-25.95-16.299-28.204-.057-1.328-.12-1.975,1.492-1.486,3.563,1.083,10.663,7.673,15.296,9.71.924.406,8.56,3.88,7.215.79-22.488-23.758-48.166-44.621-69.502-69.504-22.446-26.178-40.415-58.045-62.981-83.019-3.148-3.484-6.812-6.546-10.013-9.987l2.644,14.356c16.78,22.299,32.966,45.038,49.432,67.568,1.491,2.041,11.944,12.173,10.418,14.07-28.415-8.291-60.653-3.887-86.978,9.003l-17.89-105.616c-.207-8.48,5.098-39.295,11.596-44.44,2.703-2.14,16.828-4.28,19.345-2.51,1.947,1.369.216,5.513,1.156,7.356.183.359,2.731,1.227,3.782,2.7,6.819,9.556,9.968,13.329,19.692,20.316,11.351,8.156,19.412,13.115,29.342,23.658,9.526,10.114,10.479,18.323,25.76,22.241,12.118,3.107,16.173-3.097,22.565-2.457,2.534.254,5.103,4.114,7.273,5.626,1.425.993,4.225.963,4.37,1.137.444.532-1.763,4.98-1.918,6.574-1.022,10.53,2.963,23.984,7.136,33.693.846,1.967,12.45,24.195,15.774,20.715,1.263-1.323-12.125-28.791-13.489-34-1.687-6.444-3.184-12.626-2.387-19.38,1.516-12.846,22.488-40.485,29.416-52.579,15.935-27.816,18.227-63.364,13.533-94.467l7.918-19.559c17.12,37.711,21.35,80.07,16.003,120.986-3.338-4.733-2.579-.275-3.641.021-7.517,2.09-20.786.102-28.834,1.006-13.883,1.56-.433,14.571-2.981,20.935-1.616,4.037-21.324,9.228-22.482,17.605-.744,5.379,4.313-.237,7.943.442-.057,13.528,3.726,31.023,10.81,42.688.938,1.545,2.978,5.615,5.19,5.303.051-11.218-14.447-41.448-13.065-50.377.112-.722,11.304-4.182,13.424-5.764,6.23-4.651,10.698-13.592,5.647-20.853h29.5c4.916,0,6.901-5.406,7.414-9.59,3.205-26.157.968-56.853-4.228-82.595-3.998-19.807-10.421-37.892-21.685-54.803.624-.458,14.35.615,15.456.917,1.211.331.229,2.694.549,3.074.31.367,6.991-1.178,9.542-1.051,29.551,1.468,70.454,16.273,96.054,30.947,66.263,37.983,64.15,128.064,83.472,193.528,6.683,22.643,16.104,26.32,2.729,50.877-8.972,16.473-26.977,34.236-44.453,41.547-.87.364-7.743,3.886-6.341.665.99-2.274,11.818-11.388,14.502-14.504,1.717-1.993,18.126-22.8,16.488-24-.3-.22-2.582-.041-3.283.205-3.427,1.203-21.75,22.029-26.705,26.295-3.686,3.174-8.422,6.857-12.482,9.518-6.072,3.98-45.021,23.812-49.525,19.963-2.733-2.335,14.431-36.011,16.799-40.69,1.236-2.443,3.621-3.983,5.078-6.922,1.939-3.91,3.786-15.13,5.027-16.736,2.181-2.82,16.279-1.203,21.944-10.293,9.241-14.83,23.2-69.579,26.681-88.319.771-4.149,6.649-36.613,1.967-37.01l-36.514,114.975c-31.812-19.559-71.717-30.334-108.982-28.006,14.45-54.027,12.663-116.189,58.531-154.958,7.759-6.558,17.347-10.987,24.465-18.023-34.973,5.684-59.996,40.723-69.012,72.982-1.829-1.132-1.112-6.549-.966-8.473.963-12.696,5.768-28.504,10.809-40.191,1.836-4.256,9.571-15.365,10.154-18.852.323-1.929-.567-1.92-2-.996-13.146,8.475-23.603,39.361-25.729,54.273-1.964,13.777.503,26.941-1.378,40.622-1.525,11.1-5.956,24.528-8.877,35.623-7.546,9.069-14.901-.132-13.039-9.647-.884-.386-10.282,2.327-10.576,2.79,3.822,10.196,5.023,14.053-7.652,13.629-4.876-1.527-2.316,10.969-1.679,11.213,13.571-5.287,16.217.91,15.592,13.383.65.759,6.818-1.186,8.151-1.7l2.204,1.333Z"/>
  <path class="cls-4" d="M543.002,457.014c-.367.544,1.695,1.408,1.581,3.057-.171,2.471-3.62,5.656-4.529,8.483-9.005,27.999-8.962,40.138-25.459,66.541-12.235,19.582-26.682,50.192-42.032,66.971-1.533,1.676-4.138,1.795-4.379,2.111-.455.599-.173,3.966-1.306,6.206-1.251,2.472-5.467,5.089-7.307,7.689-7.561,10.684-16.868,23.357-23.792,34.208-8.052,12.62-11.827,28.64-25.74,36.26-16.392,8.979-23.065,10.751-38.049,23.951-4.382,3.86-7.523,11.692-14.928,5.95-7.048-5.465,4.823-14.697,7.369-18.509,2.241-3.355,5.251-10.46,5.566-14.441.852-10.768-5.932,2.939-6.457,3.555-4.02,4.708-9.471,7.997-13.506,12.489-2.994,3.332-10.163,16.464-11.01,17.021-2.029,1.337-7.815-.893-9.476-2.606-8.664-8.941,10.794-30.92,14.928-39.972,9.896-21.665-10.423,2.23-13.888,7.112-6.808,9.594-13.938,20.652-12.084,32.904-3.779-6.318-12.332-4.514-11.455-14.368,1.23-13.816,21.043-29.514,18.455-44.621-6.825,4.775-9.893,11.59-15.339,17.66l-13.152,30.331c-.484-2.993-3.827-5.53-3.993-8.58-.182-3.349,2.623-4.652,2.815-6.099.161-1.214-1.563-2.013-1.397-3.374.914-7.523,11.059-18.629,14.537-24.732,2.486-4.363,1.067-9.962,7.109-13.628l62.566-15.525c4.395-.26,24.816,4.069,26.348,2.929,4.315-3.211-20.438-7.282-21.429-7.934-2.654-1.748,1.361-2.292,1.858-3.081,1.927-3.061,7.066-8.655,7.345-9.189.722-1.382-.067-4.158.997-6.517,2.41-5.341,6.699-9.803,8.746-14.25,15.404-33.466,25.5-72.799,42.013-106.01.688-1.383,3.03-1.453,3.467-2.746,6.702-19.844,14.052-19.729,25.513-34.251,3.818-4.838,7.247-14.524-.57-6.539-2.208,2.255-1.031,1.385-3.492,3.421-1.474,1.22-.628,3.825-3.442,3.103-1.785-9.443,1.903-18.003,2.884-26.604.691-6.056,1.572-31.489,5.338-35.161,4.969-4.844,42.057.328,49.97,2.073,6.011,1.325,42.368,15.025,44.363,18.686,1.167,2.141-19.977,38.051-21.119,43.952-.539,1.545-4.302,1.87-4.439,2.074Z"/>
  <path class="cls-2" d="M671.148,451.916c.256.319,2.217-.223,2.646.225.468.488.353,3.604,1.297,5.265,9.455,16.642,20.783,44.809,20.997,64.095.061,5.465-2.721,10.92-3.088,16.025-.177,2.466,1.311,9.117.992,9.47-.303.335-3.946-3.335-4.949,4.562-.544,4.284,2.075,1.693,2.962,2.446.247.209-.029,5.626-.059,6.475-.251,7.205-1.957,26.67-4.09,32.905-.547,1.6-2.843,1.255-2.887,2.131-.082,1.655,2.344,3.05,2.609,4.418.229,1.184-1.63,2.498-1.639,4.504-.013,3.001,2.268,5.253.116,8.866-1.216,2.041-5.763,1.587-3.04,6.689,1.761.438.661-1.731.99-1.982.74-.565,2.671-.154,1.987,1.475-.506,1.204-3.62,2.772-3.711,4.003-.058.778,1.751,2.77,1.765,4.991.023,3.807-3.237,7.68-3.874,11.292-.315,1.784,1.063,4.986.837,5.217-.176.18-3.068-.226-4.003,1.517-2.204,4.106,5.007,1.064,4.017,3.996l-8.535,59.514c-1.046.183-18.797-4.59-20.516-5.485-2.829-1.473-3.322-3.901-4.475-4.525-1.072-.579.599,3.893-1.97,2.976-4.863-2.169-12.244-5.277-17.226-6.585-6.55-1.72-16.093-1.982-22.07-4.034-2.679-.92-9.088-5.267-9.749-5.37-.622-.096-.365,1.983-1.037,2.05-2.598.259-17.443-4.191-20.002-6.024-1.134-.812-1.795-5.257-3.44-2.28-.725,1.313,1.683,2.467-2.434,2.21-4.234-.264-5.372-3.663-5.72-3.756-1.6-.427-9.617,1.839-12.88-1.659-1.471-1.577-1.342-14.461-.988-17.054.435-3.179,2.963-6.008,2.948-7.986-.019-2.515-2.925-4.099-2.913-5.995.02-3.118.129-3.134-.072-6.944-.85-16.091.714-32.456-.954-48.553-1.404,1.088-10.044,5.079-10.982,4.007-.355-.405.385-3.608-.008-4.009-.205-.209-3.931.115-5.798-.722-.917-.411-4.715-4.785-5.945-5.221-1.687-.598-4.726.634-6.337-.491-1.129-.789-.757-3.404-.928-3.58-.117-.12-2.048,1.193-3.239.825-1.42-.438-9.361-6.302-9.577-7.014-.084-.277-.404-5.61-.174-5.786,3.505-2.677,4.227,5.534,6.995,4.982-.112-2.675-4.407-8.602.496-7.018,2.173.702,6.114,17.042,11.503,12.02,1.179-1.098-8.083-17.142-7.935-21.412.03-.85,2.078-7.891,2.478-8.543.986-1.605,3.093-1.85,3.903-3.098,1.741-2.683,2.367-10.997,5.845-13.644,2.112-1.606,10.664-1.659,14.704-2.807,6.003-1.707,30.175-11.942,34.002-10.036,1.692.843,1.941,3.983,3.997,4.546-2.182-9.31.022-4.277,1.995-5.412.993-.572,1.37-3.111,3.042-4.061,2.511-1.426,7.644-.791,10.231-1.769,1.913-.723,2.683-2.853,4.474-3.526,11.413-4.286,23.129-2.554,15.684-20.147-.859-2.029-10.414-13.413.088-12.126,1.9.233,7.463,14.913,7.466,16.546.01,4.51-7.298,10.424,6.696,3.661,13.299-6.428,17.777-13.984,27.968-21.039,1.434-.993,4.23-.964,4.379-1.134.216-.247-1.101-2.857-.387-4.711.936-2.432,4.349-.964,4.464-6.759.146-7.346-7.075-16.198-6.049-21.987.648-3.657,4.847-2.511,3.971-6.528l4.776,9.703c.853,1.744-.44,6.211.36,7.207Z"/>
  <path class="cls-4" d="M486.201,889.841c1.182.604,3.199-.894,4.87-.427.866.242,7.628,3.285,7.925,3.603,2.232,2.389-9.843,4.919-9.99,6.972,9.786.458,19.755-.564,29.532-.027,28.997,1.593,57.732,11.919,85.465,19.535,30.606,8.405,67.097,21.746,97.411,25.589,36.86,4.673,61.267-2.449,97.61,15.39,9.592,4.708,39.668,24.13,42.515,33.484.366,1.202.884,5.587.455,6.035-2.242,2.34-16.864-15.153-19.489-16.999-3.104-2.183-13.324-8.313-16.76-10.211-5.052-2.791-27.876-13.619-32.305-13.744-3.775-.107,1.49,4.427,2.689,5.333,2.576,1.946,9.393,3.936,10.629,4.862.988.741.642,3.666,3.475,5.04,1.832.888,3.909.302,5.527.984.486.205.487,1.839,1.823,2.533.513.267,2.223-.903,2.367-.771.196.179-.182,2.347,1.04,3.468.851.781,7.31,3.214,9.921,5.1,3.923,2.835,25.641,19.299,25.947,22.107.271,2.486-5.008,4.844-7.147,4.357l-25.788-20.477c-5.37-1.378-8.952-4.857-13.963-7.037-2.756-1.199-22.178-8.766-23.396-8.513-6.732,1.402,7.95,7.618,9.38,8.526,1.852,1.176,2.934,4.069,3.259,4.231,1.682.838,3.906-.402,5.592.436.505.251,1.218,3.167,2.722,3.773,1.895.763,1.356-2.115,1.962-2.002,1.695.316,27.176,19.02,27.578,20.697,1.041,4.34-4.398,6.633-8.094,5.933-4.334-.821-20.179-13.373-25.66-16.422-12.397-6.896-25.775-11.743-40.303-11.186,4.807,6.551,14.516,7.327,21.964,10.525,4.765,2.046,17.257,6.575,20.396,9.604,1.647,1.589,5.392,9.259,3.125,9.877-4.18,1.139-44.538-14.942-53.394-16.417-8.71-1.451-18.871.221-27.568-.622-14.648-1.421-28.898-11.272-43.284-13.716-36.86-6.262-81.47-3.151-119.584-7.416-43.258-4.84-81.984-20.714-124.238-29.762-4.419-1.536-1.746-9.49-1.24-13.405,1.751-13.548,7.966-32.241,15.022-43.978,4.276-7.112,11.848-18.609,21.204-17.676,4.306.429,23.423,7.636,28.357,9.736,1.788.761,2.053,2.884,2.441,3.082Z"/>
  <path class="cls-5" d="M239.006,240.994c2.877-6.608,18.63-50.935,21.992-52.496,2.753-1.279,25.596-.902,31.486-1.514,16.815-1.748,36.26-4.996,52.032-10.968,9.852-3.73,20.241-7.871,25.462-17.527-14.683,3.91-26.187,11.8-41.639,14.131-1.447.218-3.362-.974-4.629-.68-.695.161-1.295,2.982-5.454,3.82-14.16,2.854-33.131,3.278-47.735,4.261-2.119.143-10.056,2.273-10.508,1.987-1.597-1.011-10.608-32.02-11.517-36.005-14.955-65.548,86.501-131.239,138.527-81.527,6.837,6.533,25.37,34.024,23.82,42.786-.159.9-8.206,13.804-9.436,15.645-8.088,12.103-19.785,22.067-27.211,34.789-12.544,21.489-18.618,53.013-42.261,66.739-3.736,2.169-16.752,7.211-20.691,8.309-23.531,6.56-49.006-.623-72.239,8.249Z"/>
  <path class="cls-4" d="M242.723,685.287c1.507,1.238,2.278,5.964,3.793,6.703,2.335,1.14.859-2.741,1.998-3.042,2.726-.721,9.264,2.408,11.144,4.394,3.821,4.037,3.906,11.684,3.097,16.913-2.631,17.011-33.604,60.966-48.514,69.757-.933.55-26.497,9.413-11.066,8.737,12.088-.529,25.048-8.199,32.057-18.018,6.989-9.791,5.422-10.768,14.808-20.192,7.01-7.038,12.164-15.902,16.974-24.537,1.263,3.723,7.358,5.427,7.992,6.013.452.418-3.436,9.185-3.74,11.742-.415,3.488.05,12.613,2.257,15.219,2.017,2.381,12.115,2.096,1.189,8.23-2.08,1.168-6.339,1.683-6.577,1.93-.392.405.033,2.856-1.055,4.431-2.253,3.261-11.93,9.597-15.068,12.944-4.082,4.354-12.577,15.599-15.195,20.805-1.468,2.918-5.167,16.133-5.916,16.596-1.371.847-25.465-11.29-29.376-12.936-3.578-1.506-11.062-2.372-13.508-4.492-3.207-2.779-1.37-13.137-7.452-17.547-7.834-5.681-2.843,5.52-2.627,7.67,1.872,18.561-34.287,38.315-47.875,23.834-1.8-1.918-1.521-4.176-2.365-5.138-3.836-4.374-7.778-2.47-6.725-12.813,1.545-15.171,30.306-15.203,10.536-39.499-14.476-17.79-29.809-7.034-41.539-19.461-8.742-9.263-.684-18.99,1.538-29.521,2.289-10.848.915-22.534,8.06-31.94,2.253-2.966,5.197-4.058,7.462-6.535,2.868-3.137-.418-5.034,6.699-7.297,8.039-2.555,23.837-4.153,34.095-5.911,28.457-4.879,1.406,4.612,2.127,13.15.233,2.765,9.007-.519,10.599-1.423,5.913-3.359,10.39-11.128,14.973-15.027,15.476-13.166,14.298,7.868,20.741,12.211,5.81,3.917,20.007,3.343,26.972,7.028,4.137,4.204,16.291,4.398,19.487,7.024Z"/>
  <path class="cls-4" d="M361.186,626.145c-.288.133-.531,2.11-1.844,2.663-2.896,1.221-21.377,5.187-22.341,4.199-.401-.411-1.108-8.149-2.24-11.267-16.54-45.567-38.865-89.671-44.821-138.241,5.114-26.831-6.777-52.001-12.94-77.483,18.565-7.189,63.394-17.116,79.881-4.396,5.184,4,6.763,22.934,7.157,29.843.56,9.8-2.188,26.049-.974,33.973,2.16,14.091,11.602,31.982,13.808,49.193.867,6.766,4.577,51.04,3.602,54.353-.251.852-2.283,1.796-2.307,2.508-.011.329,2.393,3.484,2.983,5.862,1.345,5.413,4.018,18.075,3.848,23.165-.122,3.657-8.677,21.002-11.45,23.534-5.669,5.177-10.88,1.409-12.363,2.095Z"/>
  <path class="cls-4" d="M423,238c-.28.272-2.667-.312-3.002.006-.3.284,1.115,5.321.754,8.224-1.423,11.432-14.534,38.95-21.733,48.003-2.503,3.148-12.32,12.632-15.687,14.599-26.669,15.576-32.845-7.955-51.321-21.347l11.927-4.048c2.601-2.204,2.236-7.104,3.304-8.198.856-.878,5.917-1.162,7.804-3.689,5.803-7.772-4.73-19.504-8.04-16.544-.931.833,3.345,3.95,3,7.391-.452,4.505-6.603,8.699-9.549,11.557-1.568,1.521-1.888,4.29-3.205,5.054-2.074,1.202-7.938,1.351-10.319.552-9.275-3.113-6.328-29.21-11.937-36.54,6.68.293,20.912-11.014,24.925-11.543,2.282-.301,5.743,2.86,9.121,2.086,1.573-.361,14.004-7.994,15.492-9.529,1.543-1.592,7.643-11.977,6.463-13.025-2.61-2.319-3.094,2.568-3.664,3.045-4.31,3.611-12.572,9.358-18.326,9.453,6.227-5.833,11.42-12.873,15.8-20.2,2.815-4.708,12.907-28.193,14.65-29.41,3.702-2.583,14.462,9.152,19.612,3.664,3.131-3.337,3.298-14.536,2.878-19.003-.17-1.809-1.954-3.842-1.92-4.064.228-1.497,3.831-1.357,3.98-1.509.376-.383-1.183-3.108-.983-4.433.793-5.256,3.04-15.084,6.939-19.091,10.818-11.12,24.971,11.459,27.543,20.535,2.835,10.005,2.535,25.865-3.103,34.903-2.198,3.524-17.078,10.204-8.892,12.089,7.238,1.666,9.511-5.185,10.478,4.528,2.129,21.393-4.894,57.46-15.817,76.152-.676,1.157-4.539,8.807-6.168,7.32-.764-.697,7.821-16.169,8.761-18.728,4.379-11.928,9.195-29.209,6.128-41.651-.412-1.674-5.889-12.929-5.889-7.111,0,2.912.734,19.785,0,20.5Z"/>
  <path class="cls-7" d="M116.999,657.989c-.454.385-8.385,1.307-11.533,2.977-4.955,2.629-6.44,7.373-8.487,9.024-2.639,2.129-1.793-3.313-1.976-4.511-.822-5.384-5.666,2.821-6.473,3.585-1.03.975-3.385.826-3.504.974-.566.708,1.075,3.967.969,5.458-1.169,16.54-.149,33.718-6.827,49.172-4.971,11.505-15.011,19.121-8.154,33.33,8.446-2.331,2.36-2.997,3.157-8.239.163-1.071,3.836-8.353,4.815-7.757.946.576,8.336,17.419,9.478,20.033,1.088,2.489,3.237,11.39,3.681,11.821.257.25,5.622,1.275,6.849,2.137,1.161-7.28-1.946-4.166-3.001-5.003-.169-.134,1.234-2.281.858-4.227s-5.063-8.222-3.841-9.764c5.718,2.979,14.745,1.895,19.942,3.546,6.111,1.941,10.567,8.53,14.123,12.925.986,1.219,4.428-1.17,2.472,4.577-1.993,5.855-10.081,5.086-12.604,8.395-.817,1.071-4.619,12.372-4.851,14.145-1.55,11.872,5.977,25.253,17.36,29.459,14.144,5.226,23.79,5.739,37.236-1.858,3.821-2.159,14.165-12.944,16.611-12.989,5.475-.101,13.347,7.564,17.793,10.244,1.284.774,3.771.425,3.913.562,2.762,2.684-3.229,3.116-4.571,3.91-5.086,3.008-9.067,7.684-14.91,10.107-18.275,7.578-42.556,1.249-61.523-1.012.073,8.428,9.098,3.922,13.994,8.978-5.944-.782-11.992-2.089-17.755-3.728-13.469-3.831-29.136-11.07-39.706-20.294-4.782-4.173-7.675-9.26-11.024-12.903-6.248-6.797-10.421-25.438-10.467-34.722-.012-2.387,1.973-3.39,1.954-5.722-.017-2.012-2.153-4.615-2.071-6.075.029-.512,2.085-.59,2.07-.998-.059-1.594-3.151-9.969-3.698-13.344-1.854-11.434-4.716-30.144,4.272-40.13,1.527-1.696,4.288-1.898,4.416-2.107.105-.172-1.205-2.073-.792-3.211,2.317-6.382,5.109-12.938,7.503-19.51.434-1.191,2.254-1.149,2.307-1.824.101-1.284-1.28-2.465-.587-5.418,2.211-9.411,12.76-20.895,19.308-27.047,5.021-4.717,14.734-4.593,19.789.032,1.477,1.351,3.922,6.633,3.485,7.003Z"/>
  <path class="cls-2" d="M501.984,577.004c.304.285,1.97,4.647,4.49,7.022,4.222,3.977,12.082,5.905,10.537,11.969,1.784.484.428-2.285,1.483-1.991,1.434.4,3.683,4.477,4.852,5.652.875.879,4.044.722,4.509,2.976.936,4.529-16.503,20.306-17.274,26.462-1.914,2.859-5.873-2.845-6.579.421-.662,3.061,2.425,4.461,1.574,6.457-.533,1.25-23.392,19.846-8.086,19.055,3.317-.171.061-2.141.559-2.953.295-.481,8.841-5.921,9.871-3.983,2.477,4.659-3.445,7.44-4.794,9.532-.964,1.495-1.899,6.141-2.143,6.373-1.913,1.823-3.244-4.855-4.979-2.991-.643.691,2.346,7.393.485,8.004-3.083,1.012-5.965-2.661-6.974-2.662-.72,0-2.42,1.987-4.995,1.776-5.114-.418-11.066-2.045-15.985-2.165-7.019-.171-17.311,3.137-23.446-.547-7.297-4.382,1.045-9.422,4.158-13.665,1.559-2.125,1.921-5.03,3.306-6.694,1.406-1.69,5.063-2.632,5.908-4.092.988-1.707.376-4.261,1.633-6.367.857-1.436,3.217-2.057,4.352-3.648,2.66-3.728,15.231-24.716,16.531-25.502s3.662,2.071,4.011,1.554c.189-.28-.071-4.464.791-6.72,1.312-3.434,5.26-6.045,7.039-8.96,2.199-3.602,5.228-11.27,7.105-13.703.651-.844,1.677-.971,2.059-.613Z"/>
  <path class="cls-3" d="M390.986,533.992c-1.502.179-1.471-2.687-1.678-3.794-3.284-17.535-5.821-31.79-9.813-49.192-5.092-22.197-3.74-45.448-6.483-68.006,19.848,11.201,21.234,29.012,30.468,47.02,1.922,3.748,13.423,20.259,13.55,21.524.093.923-4.343,15.998-5.158,17.827-4.719,10.59-17.539,22.208-20.885,34.62Z"/>
  <path class="cls-2" d="M713.707,643.278c1.862,2.737,10.866,21.253,9.3,22.716-.618.578-4.588-1.158-4.864,2.327-.386,4.872,5.515,1.482,5.846,1.672,1.426.818.704,10.285,1.078,12.44.692,3.993,4.775,9.093,2.026,13.165-.672.996-3.326,1.259-3.089,1.897.505,1.359,3.97.6,2.845,3.812-.13.371-4.509,6-4.859,6.181-7.531,3.89-5.622-3.15-5.986-3.495-.341-.324-2.891.484-3.852-.128-.329-.21-2.732-7.456-5.147-4.86-.727.782,2.031,18.282-2.056,20.958-.761.498-15.717-4.181-17.512-4.901-3.692-1.48-4.725-6.577-7.426-2.068-1.969-4.213,2.942-6.048,3.06-6.649.948-4.833-.163-13.182,1.589-20.19,1.095-4.38,3.405-5.341,3.401-5.694-.015-1.4-1.661-2.595-1.622-3.962.105-3.697,2.88-8.318,3.182-10.176.642-3.953-.344-9.486.354-12.853.565-2.726,2.868-2.294,2.995-2.527.309-.563-2.351-3.634-1.971-3.932,3.655-2.868,5.386,6.185,6.125,7.363,1.822,2.901,7.567,5.87,2.879,8.608,4.534.134,2.28,4.332,3.009,6.021.06.139,2.619-1.391,2.988.518.443,2.293-2.255,4.546-1.952,5.912.237,1.066,3.037,1.246,3.571,3.509.895,3.786-3.495,10.021,2.371,7.062-2.331,5.255,1.777,6.047,2.758,1.24.938-4.593-3.738-12.349,2.249-11.247.648-3.134-2.993-1.847-3.812-4.684-3.386-11.727-4.526-21.631-14.113-30.904-1.298-1.255-3.846-1.334-3.977-1.503-.369-.477,1.415-11.566,1.916-11.901.936-.626,11.362,6.94,12.422,8.061.694.733,5.665,7.32,6.272,8.212Z"/>
  <path class="cls-1" d="M311.99,784.001c2.099,2.288-4.783,3.737-4.987,4.013-.37.499,3.838,2.794-.018,4.472-1.993.867-4.207.059-5.728.798-9.187,4.466-29.287,15.974-36.778,22.698-1.765,1.584-2.003,4.238-3.499,5.498-1.504,1.266-4.318,1.181-4.783,1.722-.332.386-3.642,6.386-5.031,8.463-1.191,1.781-4.692,10.034-5.184,10.337-.303.187-3.563-1.828-4.029-2.449-2.355-3.14-2.727-10.387-2.025-14.116.109-.581,3.64-9.556,4.256-10.754,7.376-14.367,22.71-26.731,33.862-38.137,8.677-4.885,9.332,2.32,10.448,2.416.192.017,1.012-1.775,3.508-1.587,8.562.646,11.902,6.497,15.738,7.487,1.946.502,4.104-1.021,4.251-.861Z"/>
  <path class="cls-3" d="M466,371c-17.988,6.622-10.381-1.172-13.206-10.293-1.939-6.259-13.232.837-14.789-.706-.536-.531-1.445-11.889-.861-13.361,1.125-2.831,11.948-1.766,12.862-2.643,1.462-1.401-3.741-10.422-2.601-12.033.694-.981,12.977-4.335,13.584-3.971,3.412,2.05-4.285,18.273,12.011,12.007-.831,3.157-2.18,12.885-3.14,14.364-1.385,2.134-3.419,1.344-3.821,1.703-.557.497.227,12.05-.039,14.934Z"/>
  <path class="cls-2" d="M430.992,494.014c.327,1.954-2.496.53-3.001.99-.26.237.977,4.681.608,7.005-.465,2.926-9.054,23.017-10.774,25.315-1.542,2.06-4.102,1.641-4.741,3.315-.748,1.96,1.122,5.524.726,8.586-.537,4.152-8.055,15.789-10.296,20.784-1.807,4.028-2.41,9.142-3.629,12.37-.738,1.954-3.363,1.264-3.737,1.753-.396.516-1.337,15.078-5.142,10.862-.894-.99,2.654-9.162,3.971-10.506-5.42,2.333-6.213-9.179-4.526-11.563,1.176-1.661,4.366.61,3.569-3.429-.058-.292-2.659-.665-2.74-3.11-.117-3.522,16.75-33.47,19.727-35.961,1.684-1.409,8.688.154,5.984-5.434-.07-.145-2.558,2.358-1.975-.47.613-4.018,10.371-13.085,10.876-15.228.787-3.341-8.734-7.357,5.099-5.28Z"/>
  <path class="cls-3" d="M539,676c-1.072,1.075-24.769-3.73-28.018-5.517l28.018-51.483c-1.539,6.873,2.013,54.982,0,57Z"/>
  <path class="cls-4" d="M425.984,693.989c.688.587,6.64,15.87,6.806,16.759.891,4.765-8.118,17.874-10.312,18.243-2.378.4-3.768-7.741-9.493-4.505-3.861,2.182,5.731,3.249,5.974,3.558,4.001,5.099-10.145,13.057-13.518,3.025-2.413-7.176,3.262-15.172,8.52-19.606,1.74-1.468,5.738-2.225,6.059-2.963,2.351-5.388-7.464.116-8.012-.502-.33-.372-1.22-9.52-.913-9.911.155-.197,3.041-.367,4.271-1.206,1.411-.963,4.963-4.814,6.148-4.873.893-.044.603,2.049,1.46,2.577,1.143.704,2.895-.695,3.012-.596Z"/>
  <path class="cls-4" d="M370.997,729.986c-.113.18-2.662.5-3.954,1.556-6.959,5.688-14.544,16.194-19.712,22.732-4,5.061-4.903,12.308-13.521,14.044-11.016,2.219-.763-16.893,3.176-14.314.665.435.815,10.346,3.531,7.017,5.353-6.562-5.591-8.883-5.573-11.51.006-.848,7.146-12.351,8.248-14.82,1.037-2.324,1.916-9.157,3.767-10.265,1.045-.626,9.482,3.113,11.609,3.504,1.104.203,14.11-.635,12.429,2.055Z"/>
  <path class="cls-4" d="M336.995,726.006l-16.967,36.53c-2.226,1.41-6.104-5.86-10.028-3.546,2.578-4.525,10.042-36.621,12.013-37.986.661-.458,11.216,7.616,14.982,5.002Z"/>
  <path class="cls-4" d="M317,718.011c-6.115,4.524-11.894,35.812-14.012,37.988-.866.889-2.21-5.353-4.482,1.974-7.798,1.401-.984-23.581-.009-26.976.621-2.166,5.193-14.844,5.996-14.97.65-.102,8.74,5.126,12.507,1.985Z"/>
  <path class="cls-4" d="M405.994,701.005c.876.919-4.763,12.133-5.801,13.687-2.095,3.136-5.101,4.385-6.236,6.028-2.386,3.454-2.315,13.734-9.288,10.171-.535-.273-8.525-7.776-8.608-8.371-.399-2.882,28.227-23.305,29.933-21.514Z"/>
  <path class="cls-4" d="M308.995,243.999c-1.434,3.708,4.809,24.968,3.994,26.001-1.657,2.101-21.846-19.845-22.98-22.514-.906-2.132,1.646-1.343,2.49-1.47,5.383-.808,11.112-.913,16.496-2.016Z"/>
  <path class="cls-2" d="M652.836,838.159c1.247.768-.17,5.254,4.159,3.83l-1.483-3c3.465,3.927,10.36.109,8.059,7.058-2.073,6.259-23.84-.955-24.574-2.062-.366-.553,2.811-8.844,3.631-9.058,2.857-.747,4.144,1.923,6.132,2.855,1.12.525,3.206-.159,4.076.378Z"/>
  <path class="cls-2" d="M544.96,503.034c-.248,2.593,4.598,16.283,4.044,16.956-.446.543-12.788,4.141-13.479,4.011-3.19-.603.245-4.252.42-5.557.835-6.243.113-15.845,9.015-15.409Z"/>
  <path class="cls-2" d="M688.019,770.004c2.259,3.245,6.51,1.211,6.996,5.987,1.748.412.433-1.985,1.508-2.049,1.873-.111,5.19,2.223,4.456,4.519-2.312,7.23-20.57-5.055-24.978-3.472.392-1.385,3.535-5.832,4.505-5.983.558-.087,3.214,9.744,7.513.999Z"/>
  <path class="cls-4" d="M296.972,713.042c1.206,1.782-3.285,7.36-3.924,9.505-1.19,3.991-.71,9.056-3.032,12.445-6.092-6.802-2.956-8.544-.845-15.322.644-2.07.576-8.367,2.319-8.64.289-.045,5.32,1.77,5.483,2.012Z"/>
  <path class="cls-4" d="M315.698,764.368c.768.354.979,2.949,3.312,2.141-2.704,4.386-2.327,11.721-9.02,7.997-2.896-1.612-4.676-14.92,5.708-10.138Z"/>
  <path class="cls-5" d="M404.995,304.006c.848.929-8.601,26.856-11.812,12.219-.973-4.436,11.211-12.877,11.812-12.219Z"/>
  <path class="cls-4" d="M299.012,762.993l1.976-2.988c.74,4.576-2.162,11.45-7.55,8.059-7.53-4.739,3.808-16.262,5.574-5.071Z"/>
  <path class="cls-2" d="M730,743.011c.473.308-1.965,1.871-2.03,3.492-.029.734,3.124-.109,2.022,2.494l-7.266-1.223-7.72-7.768c2.078,1.126,14.354,2.587,14.994,3.005Z"/>
  <path class="cls-2" d="M800.994,803.994c-1.575,2.451-3.458-3.445-.489-4.989.859.508.624,4.778.489,4.989Z"/>
  <polygon class="cls-5" points="604.5 475 605 475.5 604.5 476 604.5 475"/>
  <path class="cls-1" d="M478.215,679.62c4.811,1.619,13.063-.808,20.044.616,7.443,1.519,4.622,3.497,5.746,4.76,1.633,1.834,2.102-1.623,2.267-1.703,1.051-.506,2.296-.071,2.919-.368,1.047-.499.842-2.001,1.287-1.934.843.126,2.999,2.649,5.107,3.01,1.872.32,6.403.75,8.863,1.053,5.644.696,9.881-2.925,8.562,4.94,3.87-5.993,7.597-1.374,12.933-.439,6.978,1.222,11.446,2.533,17.732,4.067,2.436.594,11.428.862,13.178,2.588.568.56-.065,2.547.15,2.791.755.853,2.817-1.688,4.273-1.756,5.237-.245,23.482,5.369,29.959,7.014,1.859.472,2.728,2.862,3.703,3.196,1.299.444,5.393-.752,8.914.204,26.528,7.203,52.654,16.052,79.148,23.353,2.124,1.761-6.509,4.274-7.506,4.985-2.898,2.066-11.149,8.979-13.529,11.47-2.689,2.815-9.678,14.729-12.471,15.53-1.052.302.299-2.479-1.485-1.989,2.022,4.946-1,3.917-2.028,5.746-13.99,24.874-29.918,47.95-39.007,75.721-2.23,6.813-2.692,14.517-4.742,20.258-.794,2.225-4.172,5.419-4.228,5.773-.185,1.177,2.666-.232,3.014,1.01.318,1.137-4.413,19.39-4.886,23.113-.735,5.786-.92,12.578-.136,18.364-14.586-4.595-30.814-7.553-45.217-12.272-2.632-.862-6.842-4.415-7.267-4.441-.932-.057-2.276,1.773-4.757,1.542-4.052-.377-6.973-4.798-7.423-4.884-1.167-.223-7.4,1.334-10.815,1.037-19.588-1.703-51.201-13.223-69.496-21.495-5.892-2.664-11.755-10.193-12.538-10.47-1.905-.675-1.438,1.996-1.934,1.991-3.26-.038-13.382-7.911-17.323-9.725-11.122-5.12-26.714-6.062-35.768-15.245-1.527-1.549-1.338-3.872-1.505-4.006-.59-.473-2.703.893-4.006.434-2.144-.754-6.38-6.677-8.031-7.873-5.03-3.647-18.596-12.344-23.992-15.008-2.247-1.109-18.147-6.718-19.319-6.463-1.109.241-1.898,1.706-1.604,2.881l34.998,22.996c-11.019-1.907-21.981-7.38-32.742-9.746-3.111-.684-6.899.401-9.564-.433-2.572-.805-2.503-3.709-2.714-3.81-.648-.312-1.685,1.751-2.692,1.825-6.305.464-12.989.406-19.525,1.47-1.816.296-4.515.221-3.764,2.701,3.172-1.029,5.287,1.549,7.549,1.968,29.87,5.529,58.191,13.176,86.142,24.848,2.195.917,5.469,4.097,5.816,4.186.954.244.221-1.624.593-1.849,1.871-1.132,3.057,2.296,4.346,2.908,2.011.956,4.142.742,5.508,1.492,1.976,1.085,3.561,4.45,6.027,5.064,2.262.563,4.103-.888,5.412-.524,1.184.33,1.301,2.406,1.817,2.682,2.081,1.117,10.292-.733,11.654,3.929s-6.032,6.171-8.79,8.873c-5.468,5.357-13.908,20.47-17.241,27.759-1.274,2.787-3.363,12.216-3.839,12.675-.238.229-2.542-1.418-2.989-.999-.381.357,2.789,9.972-1.994,6.986.638,4.616,2.352,8.74-.569,12.99-.656.955-2.382.921-2.44,1.04-.282.584,1.88,1.723,1.912,3.401.027,1.389-.661,12.402-.843,13.029-.388,1.338-5.259-.988-2.099,4.065-3.673,1.01-8.746-4.019-10.726-4.384-2.127-.392-2.994,1.7-4.572,1.676-2.654-.039-22.786-6.162-27.664-7.32-23.828-5.655-72.518-14.492-90.017-30.981-.614-.579-2.966-2.767-2.966-3.01,0-.608,2.947-2.236,2.973-3.49-1.211-.383-3.043,1.358-3.846.91-.483-.27-6.236-7.523-6.98-8.592-14.904-21.389-14.715-52.913,2.813-72.842,1.459-1.659,15.818-13.533,17.062-14.045,1.914-.788,3.798.732,3.945.569.172-.19-.479-2.052.66-3.079,6.296-5.678,20.19-7.663,23.88-10.898.387-.339,6.048-7.144,6.497-7.777,3.079-4.337,6.101-12.563,9.468-17.234,6.645,4.545,16.025,2.17,21.538-3.486l26.988-36.534c5.71,3.673,16.124,7.714,21.978,2.477,1.261-1.128.457-4.449,2.482-3.468,1.424.69,2.15,5.79,4.993,8.013,6.268,4.902,18.049,2.591,23.556-2.491,3.073-2.835,2.777-5.485,4.509-7.491,3.25-3.764,12.066-10.796,12.481-15.648.248-2.897-1.56-3.81-1.708-5.062-.733-6.192-1.566-9.136-4.421-15.517-2.135-4.772-11.166-14.629-1.865-18.286,3.847-1.513,25.305-1.802,30.509-1.57,5.662.252,8.125,1.466,11.678,2.661Z"/>
  <path class="cls-6" d="M753.804,799.238c.614.397.84,3.099,2.875,3.613,6.549-2.29,14.467-.889,20.646-1.865.742-.117.652-2.045,1.19-2.03,3.982.113,8.009,3.289,1.522,5.582-16.699,5.903-38.853,7.346-52.571,21.419-5.006,5.136-.254,9.674-8.483,6.488-1.679,2.185-19.676,24.041-21.978,21.549-.663-.717.625-3.352,1.144-4.345,4.325-8.289,20.276-26.695,27.921-32.079,6.062-4.269,16.192-5.891,17.943-13.562,1.955-.316.54,2.391.996,3.004.195.263,5.718-2.182,6.05-2.511,1.666-1.652-1.971-8.315,2.744-5.263Z"/>
  <path class="cls-6" d="M968.994,962.006c-1.516,7.027-3.127,3.488-5.425,4.015-1.465.336-4.96,2.497-5.556,1.98-.196-.17.54-2.94-2.285-4.32-1.976-.965-5.293.758-5.722.313-.208-.216-.206-5.771,0-5.989.672-.713,15.71,6.149,18.989,4Z"/>
  <polygon class="cls-6" points="1001.5 990 1002 990.5 1001.5 991 1001.5 990"/>
  <path class="cls-3" d="M912.731,234.239c26.215-5.414,26.039,43.528,24.135,59.126-1.67,13.688-7.245,36.928-26.272,29.54-17.464-6.781-15.172-57.859-10.534-72.347,1.885-5.89,6.006-14.944,12.671-16.32Z"/>
  <path class="cls-6" d="M592.994,843.006c2.007,2.013-5.499,7.393-6.463,9.053-.73,1.257-.398,3.805-.534,3.95-.432.462-2.939-1.082-4.041-.513-.416.215-5.461,5.673-6.727,6.503-12.253,8.032-24.699,14.391-38.217,20.001.129-1.505-.47-3.392.222-4.778.836-1.676,23.017-14.455,26.691-16.795,3.086-1.965,5.096-3.164,8.023-4.96,2.383-1.462,19.933-13.579,21.047-12.461Z"/>
  <polygon class="cls-6" points="501.5 683 502 683.5 501.5 684 501.5 683"/>
  <path class="cls-6" d="M527.994,471.006c1.974,2.341-2.913,19.334-4.951,22.274-.44.636-11.4,10.412-12.038,9.714,1.259-2.209,13.362-36.289,16.988-31.989Z"/>
  <path class="cls-6" d="M667.997,520.987c-.205.284-6.139,2.635-6.49,2.631-9.053-.104-14.74-.58-24.724,1.664-2.024.455-15.211,4.144-15.794,4.727-.231.231,1.413,2.495,1.003,2.988-.226.272-3.112-2.123-4.549-2.024-2.398.165-2.165,2.699-2.554,2.898-.341.175-6.578-2.25-6.655,1.629-.022,1.113,5.814,4.77-3.744,3.269-.759-.119-.013-2.003-1.797-1.662-6.416,1.226-19.787,9.256-25.256,12.831-2.907,1.901-8.188,4.682-9.97,6.027-2.184,1.648-1.894,3.844-2.832,4.732-.922.873-7.726,5.328-9.686,6.753-13.501,9.814-3.82-3.367-3.937-4.939-.096-1.284-4.014.837-3.007-2.505,2.8.056,4.909.454,7.55-.95,1.48-.787,13.79-14.371,14.458-17.048,2.179,4.42,7.294-2.991,11.074-5.42,17.243-11.077,56.326-24.491,76.468-22.47.709.071.586,2.175,2.113,2.685.813.272,10.553,1.109,8.328,4.184Z"/>
  <path class="cls-6" d="M631.999,546.015c2.58,2.222-10.412,5.158-11.369,5.912-1.389,1.094.82,4.324-4.63,3.084.274,2.522,2.925.848,2.99.991,1.492,3.262-2.319,7.424-4.473,2.978-.792-1.635-.354-4.795-.523-4.985-.356-.402-9.16,1.469-10.551,1.949-6.091,2.101-8.572,6.399-13.166,8.834-3.774,2.001-18.19,5.619-20.656,8.109-1.515,1.53.081,3.855-.742,5-.219.305-5.543,1.392-7.125,2.371-2.531,1.566-15.022,12.01-8.626.374,2.367-4.307,6.478-1.885,3.877-8.625,8.265,2.77,7.677-1.678,12.486-5.015,14.287-9.915,34.585-18.262,52.337-21.746,2.143-.421,8.683-.511,10.17.77Z"/>
  <path class="cls-6" d="M633,547c-.272-.202,1.265-5.71,3.994-4.011.321-1.96-2.463-.535-3.005-.995-.33-.28,1.251-9.51,3.276-4.758.886,2.079.499,6.521.733,6.768.566.598,13.273-.831,15.448-1.078,1.28-.146,2.494-1.594,3.084-1.568,1.599.068,4.067,5.098,3.476-2.363,4.015-.965.324,3.416.998,3.998,1.109.957,5.243-1.08,6.418-1,.651.044.207,2.048,2.045,2.134,1.422.066,5.316-1.399,5.527-1.13.335.425-.539,2.984.15,3.868.405.518,2.98-.187,3.734,1.754,3.746,9.642-9.888,1.657-7.91,9.782.23.946,2.309.236,2.028,1.096-.379,1.161-2.245,1.803-3.49,1.512-1.377-.322.631-2.548.554-3.458-.062-.725-3.743.383-.06-4.537-3.1,1.05-5.389-1.602-7.56-1.951-3.004-.483-7.27.648-9.771-.229-1.564-.548-2.561-3.832-3.168-3.832-2.423,0-15.838.492-16.5,0Z"/>
  <path class="cls-6" d="M534.986,535c.536.426,2.821,7.134.014,7.989,8.563-.663,1.29,3.44.904,7.497-.081.848,1.966,16.075,2.224,16.887.982,3.088,2.559-.065,3.331.031,2.682.331,8.891,5.484,4.097,6.427-.988.194-4.873-.575-5.477.245-1.049,1.426,2.086,8.181-4.02,3.366-7.58-5.977-5.429-30.646-5.941-39.758.428-1.356,4.115-3.283,4.869-2.684Z"/>
  <path class="cls-6" d="M369.984,151.995c-3.071.596-1.496-1.088-2.081-2.354-12.326-26.685-12.805-40.935-34.396-64.649-2.348-2.578-10.942-7.38-8.501-9.987,2.426-2.591,16.305,8.9,18.521,10.968,15.705,14.655,30.347,44.198,26.458,66.022Z"/>
  <path class="cls-6" d="M164,796.011c-3.019,2.688-6.764,10.177-10.525,10.955-2.276.471-10.771-.138-12.454-1.485-2.873-2.299,4.987-8.609-4.07-5.03-8.12,3.209,1.292,13.445,7.62,14.478,2.29.374,11.977-.354,12.425.076,4.955,4.754-14.938,5.017-17.032,4.591-15.377-3.128-20.509-21.859-3.781-25.912,12.36-2.995,10.87,3.853,15.378,4.362,1.866.211,9.333-3.523,12.439-2.034Z"/>
  <path class="cls-6" d="M234.003,686.007c1.768,1.249-3.699,3.228-4.858,4.643-3.038,3.709-12.109,23.509-13.325,24.16-3.83,2.051-8.52-5.097-8.762-8.359-.228-3.069,1.838-8.362,2.029-11.969.097-1.837-1.344-6.261-1.095-6.474.185-.159,2.698.193,3.959-.536,2.555-1.479,3.665-5.08,7.647-5.467.744-.072,13.794,3.571,14.404,4.002Z"/>
  <path class="cls-6" d="M132.68,691.674c-1.088.869-3.341.832-5.196,2.313-8.51,6.796-6.625,22.235-5.732,31.773.701,7.486-6.685-5.8-8.563-5.911-.719-12.133-.564-20.11,5.957-31.202.534-.908,7.411-10.253,8.008-10.539,3.93-1.884,13.78,6.975,5.525,13.566Z"/>
  <path class="cls-6" d="M134.996,722.005c-2.656-8.581,5.017-12.991,7.465-19.043,1.481-3.661-.286-13.805,8.545-9.461,7.084,3.484-2.879,34.362-16.01,28.504Z"/>
  <path class="cls-6" d="M191.993,668.004c.803.873-5.072,22.286-6.056,22.947-5.988,4.023-5.325-17.935-1.283-20.798.447-.317,7.08-2.431,7.339-2.149Z"/>
  <path class="cls-6" d="M185.994,693.006c-1.696,10.513-16.591.962-12.988-3.001.455-.501,10.245,5.022,12.988,3.001Z"/>
  <path class="cls-6" d="M345.012,468.004c.294,2.438-.696,2.825-2.469.954-.645-.681-9.881-14.591-10.374-15.625-5.625-11.798,13.038,5.112,15.282,8.718,3.349,5.381,4.044,14.342-2.439,5.954Z"/>
  <path class="cls-6" d="M428.989,142c-.438.603-2.155-2.29-2.968-1.987-.098.036.373,1.546-.729,1.955-2.668.991-6.664.038-7.326,5.594-.299,2.51,6.168,3.296,8.119,4.852,6.806,5.429,5.109,26.548-1.55,24.576-2.626-.778-.472-11.795-4.079-15.945-4.7-5.408-4.174,3.411-7.063,3.909-5.997,1.034-2.959-20.401-1.305-24.364,5.509-13.202,20.273-3.239,16.899,1.41Z"/>
  <path class="cls-6" d="M368.456,279.486c5.603-.599,13.979,5.558,8.881,7.351-2.161.76-5.835-.203-8.598.402-3.931.86-6.961,3.457-10.52,4.479-1.703.489-11.914,3.138-12.56,3.101-2.091-.118-8.156-5.016-3.965-6.626,3.804-1.462,12.108-2.714,16.847-4.153,3.119-.947,7.326-4.277,9.915-4.554Z"/>
  <path class="cls-6" d="M369.678,297.696c-2.742,3.614-15.236,8.05-17.635,2.762-.314-.693-.492-1.949.596-2.445,2.317-1.055,8.453-1.666,11.915-2.959,1.758-.656,3.657-2.983,3.974-3.041,2.935-.54,2.802,3.506,1.15,5.683Z"/>
  <path class="cls-6" d="M81.012,806.007c.195.126,2.878-1.433,3.983-1.002-2.486,6.137,1.149,4.608,1.858,6.614.437,1.235.398,9.358-.347,9.375-5.361.122-17.887-27.367-12.498-31.99,3.353-2.877,6.201,16.483,7.004,17.003Z"/>
</svg>