<?xml version="1.0" encoding="UTF-8"?>
<svg id="Layer_1" data-name="Layer 1" xmlns="http://www.w3.org/2000/svg" viewBox="0 0 1025 1025">
  <defs>
    <style>
      .cls-1 {
        fill: #1471a1;
      }

      .cls-2 {
        fill: #083045;
      }

      .cls-3 {
        fill: #fff;
      }

      .cls-4 {
        fill: #eeb275;
      }

      .cls-5 {
        fill: #d82827;
      }

      .cls-6 {
        fill: #0b0705;
      }

      .cls-7 {
        fill: #934f22;
      }

      .cls-8 {
        fill: #c2915f;
      }
    </style>
  </defs>
  <path class="cls-3" d="M556,1025H0V0h1025v736c-5.236,4.585-14.867-2.255-15.024-9.227-.166-22.243-10.273-42.315-20.371-61.357l-.395-5.778c8.327-33.43-.804-85.88-34.444-102.487-6.557-.368-8.959-2.823-7.205-7.364,21.576-60.195-5.595-128.845-45.243-176.248-12.265-10.873-21.444-19.85-25.019-36.393-24.008-27.005-53.656-52.71-82.549-75.227-65.621-51.14-123.404-95.921-209.352-104.628-71.377-7.231-147.392,10.166-210.647,41.052-4.623,2.65-7.665,1.735-10.758-2.537-60.35-94.33-192.62-67.385-245.229,21.774-16.793,28.46-16.488,48.901-10.043,80.198,5.779,16.691,9.726,33.51,11.841,50.459-7.656,19.995-17.427,39.378-29.315,58.15-2.373,4.537-4.543,9.109-6.733,13.731-20.599,43.473,26.405,31.556,46.105,14.977,9.837-12.22,21.154-18.019,33.951-17.396,4.545,5.558,9.682,8.846,15.412,9.862,10.703-.629,15.563,1.241,22.262,9.809,3.807.864,7.218,2.203,10.234,4.017l23.643,54.56c2.488,2.683,5.787,3.975,9.393,4.051,5.26-.949,9.534-.191,12.823,2.275l30.179,68.886c-2.331,6.281-10.544-.589-12.524-4.475-10.864-23.308-19.457-27.618-39.948-10.621l-17.71,16.217c-6.444,6.373-11.047,6.539-13.81.496-8.122-4.691-17.531-5.578-28.229-2.66-9.771,2.583-19.46,4.386-29.065,5.409-25.665-46.634-71.283.908-72.553,37.866-2.224,18.055-5.082,35.113-9.888,52.658-9.668,27.59-17.857,51.172-11.046,80.475,6.045,26.005,18.97,55.521,32.392,78.333,5.065,3.73,8.537,8.142,10.416,13.237-5.856,15.838,9.551,20.907,22.141,24.522,49.461,14.2,103.115,13.484,153.879,4.456,18.643,3.711,37.534,6.584,56.673,8.62,7.044.194,11.573,2.475,13.585,6.843-.839,23.274,3.16,39.541,13.882,60.854,13.383,26.602,27.049,32.451,55.201,41.348,38.073,10.304,76.514,19.945,115.32,28.921,10.716,2.066,20.305,5.847,28.765,11.344Z"/>
  <path class="cls-6" d="M556,1025c-39.623-14.713-81.774-20.903-122.421-32.079-20.611-5.667-53.664-13.69-67.554-30.446-8.604-10.379-21.735-38.849-23.916-52.084-.787-4.775-.566-28.556-1.694-29.512-5.569-4.719-57.541-7.408-67.94-11.859-23.264,3.067-46.425,7.175-70.017,7.012-20.309-.14-94.196-6.788-106.309-22.682-6.252-8.203-.277-12.809-1.866-17.05-1.083-2.891-8.334-8.19-10.71-11.373-10.046-13.457-30.797-68.605-33.459-85.541-5.401-34.358,9.242-56.255,16.398-87.377,5.263-22.889,4.392-47.311,15.317-68.683,12.926-25.285,43.143-42.708,64.174-14.835,1.166,1.545,1.812,5.311,2.054,5.475,2.67,1.808,54.98-18.61,60.504,2.098,17.444-6.876,38.552-46.484,58.982-27.109,7.602,7.209,8.809,22.434,19.452,23.037l-30.483-69.005c-3.796-3.372-14.404,2.778-22.044-5.956l-23.548-54.452c-1.87-2.243-5.217-1.396-8.27-2.73-4.789-2.093-6.474-7.208-9.257-8.743-4.611-2.544-13.461-.079-19.956-3.044-3.783-1.727-8.074-8.725-10.855-8.963-15.653-1.341-24.282,13.922-35.665,21.319-22.304,14.496-62.436,22.638-45.091-19.091,8.081-19.443,21.294-37.812,30.031-56.969,1.534-3.363,6.617-14.158,6.81-16.983.703-10.253-9.826-39.007-12.355-51.188-6.013-28.968-6.133-47.804,7.892-74.481,43.913-83.527,167.431-122.376,236.821-46.232,3.467,3.804,15.483,22.239,18.518,22.548,2.14.217,21.289-9.783,25.492-11.485,74.242-30.074,159.846-43.881,238.385-22.457,63.286,17.263,129.284,68.054,179.05,109.95,12.944,10.897,61.239,51.13,67.022,62.978,2.539,5.202,2.915,11.582,6.261,16.739,3.605,5.556,15.071,14.563,20.637,21.363,33.21,40.58,57.318,99.109,49.463,152.246-.632,4.275-7.853,25.688-6.858,26.637.259.247,4.891.499,7.002,1.512,30.761,14.76,39.947,59.084,37.979,89.973-.345,5.414-3.431,12.37-2.788,17.746.676,5.647,7.389,14.054,9.688,19.4,4.202,9.771,7.748,19.717,9.799,30.201,2.443,12.492-2.627,21.932,14.325,23.175v13c-.284.873-.618.86-1,0l-2.462,1.215c-19.095-10.029-33.998.069-48.277,12.299,9.367.134,18.13,1.999,26.29,5.596,3.454-2.816,5.68-3.002,7.008,1.921,5.448,1.086,10.892,2.767,16.333,5.044l1.109,1.925c.871,3.803.827,9.099,0,13-1.304,3.135-4.431,2.819-9.382-.947-3.586,1.181-5.168.048-7.145-2.882-4.576-1.905-9.62-2.702-15.131-2.391l-9.816-3.897c-6.345,2.875-9.145,2.161-8.399-2.142-11.039-7.194-19.548.656-26.119,9.721-17.111,23.604-33.156,48.453-44.198,75.641,2.953,2.067,1.835,4.694-1.549,5.067-5.897,5.425-13.676,40.275-15.172,49.804-.032.205.555,3.917.738,4.014,8.013,4.235,17.71,7.92,26.465,10.964,15.27,5.309,33.813,11.566,49.689,11.49,11.571,4.878,23.454,8.699,35.648,11.464,5.267-3.321,7.855-2.874,7.764,1.341.987.536,2.495.481,4.525-.165,2.309,3.013,6.032,4.544,11.167,4.591l.915,2.325c.434-.639.767-.306,1,1v5c-.284.873-.618.86-1,0l-4.067.331c-27.252-6.959-54.62-13.58-82.106-19.864l-3.175-2.26c-4.935,4.02-10.382,3.699-10.985-3.787l-40.041-12.984c-1.761,12.236-3.291,24.647-4.589,37.234,4.263,1.395,8.666,3.075,13.207,5.042,12.021,1.73,23.328,4.785,33.923,9.165,4.751-1.37,7.397-.466,7.938,2.71,11.198,3.191,22.493,6.011,33.884,8.462,4.463-1.382,7.181-1.447,8.234,4.035,8.179.28,16.217,2.193,24.114,5.741,1.833-1.954,4.248-1.38,4.644,1.501,2.747-.682,5.288.119,7.623,2.401,5.983-.371,9.782,1.053,11.396,4.273.392-.768.725-.435,1,1v12h-4c-21.09-4.456-41.949-10.02-62.575-16.693-55.696-13.378-109.835-31.021-163.863-49.207-40.247-12.638-81.819-23.086-124.229-22.567-11.011.777-17.652-6.442-3.219-8.886.387-1.131-19.058-10.958-20.809-11.787-4.339-2.054-27.71-11.946-30.625-11.784-2.549.141-15.831,12.633-17.755,15.327-8.167,11.433-13.52,20.152-18.453,33.557-2.892,7.861-12.896,39.814-7.902,45.366,21.785,7.18,43.897,13.862,66.336,20.048,5.109,1.061,8.475,3.27,10.096,6.627h-44c-12.862-3.747-22.344-6.286-35,0h-13Z"/>
  <path class="cls-6" d="M249,382c7.446-10.983,12.144-14.61,25.508-15.577,23.9-3.138,8.511,9.445-2.583,15.765-9.387,10.642-19.537,20.399-30.448,29.273-4.722,6.345-36.158,10.601-25.531-2.736,7.843-4.96,15.528-9.868,23.055-14.725,1.005-2.076,2.671-4.076,5-6l1-1,1-2c.921-1.143,1.921-1.81,3-2v-1Z"/>
  <path class="cls-4" d="M648,1025c-6.511-3.536-14.922-6.31-22.026-8.474-8.378-2.552-52.886-13.2-56.007-16.994-1.495-1.818-2.278-5.61-1.948-7.94,3.487-24.572,11.844-53.548,28.015-73.058,2.752-3.321,15.909-16.239,19.416-16.48,2.386-.164,27.94,10.215,31.906,12.09,1.944.919,25.766,13.932,24.643,14.845-.561.456-17.422,1.604-9.297,4.824.363.144,7.376.729,7.766.723,72.313-1.057,144.691,30.802,213.765,51.73,22.445,6.8,45.331,12.002,67.807,18.193,23.073,6.355,46.191,13.201,68.959,20.541h-373Z"/>
  <path class="cls-3" d="M1025,965c-.377-.212-.739-.922-1-1-1.967-44.99-1.967-90.01,0-135-3.156-.681-3.017-10.046,0-11-.78-.094-1.935-.335-2-.904-.485-4.253-.721-21.854,0-25.634l2-1.462v-13c-.78-.094-1.935-.335-2-.904-.485-4.253-.721-21.854,0-25.634l2-1.462h1v216Z"/>
  <path class="cls-3" d="M604,1025h-35c11.795-9.757,22.569-6.616,35,0Z"/>
  <path class="cls-3" d="M1025,1013c-.378-.23-.697-.871-1-1l-2-1.805v-39.019l2-1.176h1v43Z"/>
  <path class="cls-5" d="M698.538,207.472c55.768,33.58,97.568,70.105,145.425,113.065,11.369,10.206,27.309,19.231,29.013,35.987,3.308,32.526-16.391,75.3-33.956,101.996-1.99,3.025-22.005,32.113-25.012,29.477-1.163-1.02-7.74-25.78-9.76-29.362,9.661-13.97,25.231-25.974,27.745-43.63l-31.978,32.991c-.196-2.571-2.672-5.358-2.835-7.754-.174-2.552,1.672-3.882,1.764-5.805.342-7.2-.102-10.007-2.183-16.699-8.644-27.793-31.845-73.456-45.588-100.412-11.592-22.737-24.936-48.414-44.162-65.327l81.79,177.268c-.615,2.216-1.956,3.941-3.278,5.753-17.701,24.277-59.8,53.318-88.25,62.751-10.212,3.386-44.265,11.384-52.285,4.739-6.003-4.974-15.134-29.549-19.818-38.182-30.651-56.502-65.055-89.765-53.691-160.35,3.301-20.502,12.264-36.456,20.509-54.98-4.723,3.735-9.224,9-12.398,14.091-18.531,29.727-22.988,75.793-14.517,109.335,4.138,16.387,11.814,29.543,18.915,44.573-5.185-4.607-13.331-9.601-17.51-14.979-5.2-6.691-6.79-9.617-13.187-16.32-.516-.541-5.916-10.177-5.094-2.408,1.276,12.058,23.198,37.531,32.778,45.231,8.022,6.447,12.184,6.041,19.244,15.756,11.136,15.321,27.022,60.818,38.848,69.152,6.85,4.828,11.852,2.058,16.487,4.513,1.505.797,20.28,23.488,21.879,26.118.74,1.218,2.024,2.306,1.127,3.931-.522.945-9.918,6.991-11.546,7.52-18.008,5.85-44.833,2.649-63.199-.83l-29.81-7.673c11.744-.122,23.58.532,35.217-1.289,7.081-1.108,18.835-3.458,22.777-9.712-15.212-.129-30.305,1.412-45.549,1.038-42.141-1.035-94.039-13.796-134.235-26.765-6.864-2.215-50.676-17.772-52.756-21.282-.94-1.586-.245-2.574-.036-4.03.228-1.585,8.591-24.556,9.348-25.694,1.473-2.216,1.548-2.577,4.471-2.104,8.135,1.315,5.705,6.724,7.432,11.653,5.891,16.822,25.267,38.886,43.056,42.949,4.126.942,4.459-2.558,3.262-3.753-.239-.239-3.069.193-4.246-.239-2.575-.945-17.473-16.496-20.258-19.77-25.115-29.523-9.019-37.168-1.357-67.379,4.071-16.05,3.731-33.005,7.093-47.954.611-2.718,2.695-2.688,2.803-3.366.292-1.834-2.756-14.054-3.011-17.829-3.069-45.527-10.135-100.28-53.11-126.89-4.794-2.968-14.294-5.618-17.846-9.155-6.548-6.519-2.887-11.995,5.514-12.361,10.317-.45,37.129,16.528,45.435,23.412,16.409,13.599,38.721,46.282,45.555,66.459.497,1.468.121,4.441.58,4.967.42.482,2.491-.158,2.854.088,2.382,1.616-2.745,1.703-1.991,3.48.563,1.327,3.65,3.045,4.764,5.244,6.261,12.352,15.309,48.681,19.149,63.851,3.305,13.058,6.209,26.309,7.145,39.805-11.333,8.305-48.128,8.844-56.613,17.573-5.616,5.777,13.756,13.644,3.595,23.591-1.618,1.584-24.022,15.03-15.387,18.335,5.175,1.981,17.111-9.631,18.32-8.885.301.186,1.968,4.568,3.211,6.311,4.495,6.301,31.583,42.296,38.298,40.701,5.095-1.211-9.804-14.648-10.479-15.477-4.51-5.531-21.468-27.974-23.461-33.573-2.372-6.665,3.9-17.61-2.538-24.472,11.47-4.747,42.414-6.548,50.542-15.434,6.847-7.485,1.965-23.986-.03-33.077-4.218-19.221-11.101-43.163-16.824-62.176-16.733-55.591-42.058-109.465-103.197-123.827-1.51-.355-1.765.737-1.502-1.967,10.011-.463,19.695-6.028,29.228-9.276,100.644-34.293,186.573-37.097,279.31,18.743Z"/>
  <path class="cls-1" d="M803.82,688.249c9.166,2.588,20.416,6.133,30.4,9.032,2.08.604,4.041,3.313,5.469,3.535,1.131.176,2.159-1.547,3.395-1.349,5.486.881,11.288,3.831,16.913,5.12,13.191,3.025,27.382,4.662,40.819,8.097,4.77,1.22,38.194,9.743,38.163,12.816-.013,1.324-18.414,13.06-21.447,15.533-41.737,34.042-68.266,95.877-82.041,146.959-4.437,16.453-6.655,38.912-7.683,55.213-.881,13.973-9.725,9.18-19.228,6.714-26.93-6.988-51.093-16.393-79.342-21.658-9.669-1.802-30.654-6.301-38.934-7.079-1.397-.131-1.985,1.84-4.301,1.439-2.42-.419-10.101-7.018-13.334-8.791-8.848-4.852-18.575-10.104-27.719-14.281-3.214-1.468-7.351,1.124-6.963-4.548-2.345-.368-.106,4.248-2.473,2.99-2.535-1.347-3.821-6.6-5.967-9.039-7.464-8.484-42.793-18.73-55.218-24.782-14.604-7.113-28.017-17.731-42.31-25.69-12.828-7.144-26.59-14.015-40.505-18.496-1.513,1.192-.069,3.054.944,4.057,4.9,4.851,16.686,8.113,21.541,13.948-2.767.881-4.922-2.398-6.638-2.701-17.247-3.053-36.687-7.149-54.819-7.321-4.104-.039-14.64,1.998-18.273,3.791-1.279.631-1.625.052-1.265,2.237,2.905,1.521,8.976-.622,10.46-.552,44.857,2.108,95.652,27.067,136.096,45.497,3.45,1.572,26.141,11.152,26.444,12.585.379,1.793-7.053,7.352-8.637,8.344-1.741,1.09-4.886.924-5.23,1.272-.337.341-.049,2.834-1.099,4.381-9.354,13.781-19.087,25.068-25.517,41.5-7.333,18.74-10.547,42.203-7.522,61.968-3.212,2.416-68.485-17.28-77.942-19.547-2.474-.593-8.631-.096-9.86-1.714-.522-.687-.003-2.488-.208-2.733-.172-.205-2.553,1.767-4.301,1.729-5.99-.13-44.829-10.707-50.073-13.869-2.198-1.325-2.369-4.953-3.116-4.833-1.581.254-.275,3.43-5.717,1.758-20.575-6.321-49.467-39.36-53.503-60.559-.738-3.878-3.052-28.23-2.35-30.673.357-1.241,2.686-.2,3.069-.552.296-.273-1.052-5.317-.587-8.032,1.154-6.741,12.413-23.607,17.057-28.996,12.351-14.335,30.271-25.933,47.341-33.869,4.804-2.234,16.041-4.279,19.712-7.076s3.129-7.108,4.132-10.868c.704-2.637,4.56-4.517.341-5.64,3.065-1.639,4.051-16.707,6.506-16.493.816.071,1.21,2.623,1.649,2.875.778.447,3.785-1.506,6.201-.772,1.407.428,1.634,3.689,4.104,3.446,2.852-.28,8.797-3.555,12.101-4.058l7.429-6.508c6.992,15.83,24.214,5.946,34.346-1.175,15.267-10.73,37.615-31.844,53.978-39.022,15.576-6.832,37.25-5.185,52.669-11.331,7.41-2.954,16.082-15.104,23.486-14.479,1.582.134,2.864,1.985,3.046,1.982.405-.006,2.671-3.242,6.224-4.735,11.889-4.995,27.696-7.299,40.248-11.765,11.357-4.041,27.193-14.894,39.279-13.232,7.7,1.059,15.942,6.247,22.723,8.101,15.59,4.262,32.841,7.666,47.838,11.9Z"/>
  <path class="cls-4" d="M114,678c-.387-18.675-4.003-38.674-.737-57.238,1.251-7.111,3.787-5.439,5.432-8.061,6.292-10.03,8.66-15.579,19.956-22.55,12.063-7.446,45.975-17.269,58.781-11.035,5.977,2.909,3.93,11.379,12.859,8.671,5.442-6.057,13.537-8.386,19.624-13.372,5.834-4.779,20.843-25.358,29.657-19.478,3.357,2.24,10.23,17.543,14.017,21.977,12.452,14.582,17.684-.112,30.406,5.593,4.558,2.044,3.499,4.571,5.328,6.18,3.33,2.929,14.406,12.537,17.686,13.807,9.182,3.557,15.734-.79,23.065.937,6.127,1.443,7.12,7.85,11.191,9.808,11.351,5.461,21.092-4.39,29.927,11.073,4.426,7.746,5.177,17.37,4.849,26.229-.298,8.04-6.381,30.826,4.012,35.019,1.931.779,3.803-.742,3.943-.567.211.264-.38,2.128.178,2.771.635.732,14.986,3.44,16.676,8.948,1.548,5.045-11.925,22.023-13.39,30.243-.81,4.548,1.221,14.503.63,15.576-2.202,4.003-22.428,16.312-27.553,20.505-12.088,9.891-22.998,22.084-35.248,31.263l-14.576,21.402c-2.124,1.713-20.171-1.291-22.664-3.245-1.444-1.131-6.692-10.787-10.584-14.416-7.497-6.99-17.443-12.454-27.005-16.002,2.849-8.302,5.432-12.125,3.083-21.074-1.11-4.23-8.071-16.15-13.017-14.964-4.484,1.076,1.255,9.109,1.799,11.182,11.388,43.383-78.787,70.096-82.305,22.303-1.917-26.045,35.131-27.08,25.89-50.888-3.457-8.907-11.733-8.636-17.958-12.043-17.961-9.831-37.135-38.551-56.449-38.551h-17.5Z"/>
  <path class="cls-5" d="M353.32,233.313c-12.783,14.825-34.995,39.803-51.14,50.369-1.717,1.124-4.837,1.254-5.035,1.463-.422.446.151,2.672-1.14,4.349-1.824,2.369-11.733,6.374-13.71,8.791-1.922,2.349-5.149,15.057-7.123,19.386-11.456,25.126-34.729,66.296-60.492,77.508-33.756,14.691-76.674,9.154-107.598,26.402-2.552,1.423-18.294,14.279-19.075,13.413-2.193-2.432,11.614-23.308,13.514-26.974,8.207-15.831,17.46-34.106,24.709-50.291,2.027-4.525-.901-5.282,4.438-9.562,5.896-4.726,36.502-13.129,45.49-15.51,20.52-5.437,42.025-7.865,61.619-13.381,12.396-3.49,25.493-4.254,35.218-13.781l-42.581,8.421-1.399-1.906c.146,2.839-2.953,2.697-5.187,3.312-31.644,8.72-66.392,9.753-95.816,26.679-5.928-37.023-24.285-71.046-7.531-108.02,41.646-91.907,177.334-122.917,237.362-30.322,1,1.542,8.192,13.993,8.191,14.841-.007,3.503-10.522,12.273-12.713,14.814Z"/>
  <path class="cls-4" d="M806.723,603.708c-1.594,1.458-5.452,4.864-7.193,6.325-7.185,6.03-16.201,11.762-24.068,16.973-5.291,3.505-6.249,3.027-10.22,5.241-.588.328-1.344,3.007-3.302,4.196-25.796,15.67-58.562,30.604-87.405,39.592-4.171,1.3-27.266,8.146-29.53,5.959-.348-.336,1.512-11.002-2.99-7.991-.617.413-5.478,9.771-7.991,12.521-16.968,18.561-32.159,15.546-53.848,21.152-16.358,4.228-38.958,19.054-52.913,29.087-3.614,2.599-20.212,17.618-21.908,18.022-5.882,1.401-1.679-4.145-1.571-5.446.317-3.832-5.539-7.215-8.778-7.834,9.35-7.936,17.211-18.7,26.498-26.502,8.391-7.049,20.983-13.925,29.507-21.493,19.315-17.149-5.646-5.985-13.678-1.678-8.655,4.641-21.532,13.625-28.8,20.2-10.469,9.471-35.264,45.875-45.28,47.76-18.899,3.558-1.902-26.784,1.538-11.069.611,2.789-2.016,10.574,1.233,7.801,7.98-6.814-3.8-15.638-3.838-17.012-.048-1.766,19.029-22.772,21.79-26.038,3.791-4.485,6.441-10.153,10.498-14.529,6.162-6.647,40.019-27.726,41.039-30.946,1.101-3.476-7.476-.79-9.218-.206-32.151,10.78-53.661,41.268-73.295,66.694-4.121,5.337-13.059,25.883-22.014,16.032-6.286-6.914,6.474-17.579,8.852-9.788.707,2.314-2.506,10.55,1.153,5.763,2.578-3.373,1.891-9.126-2.006-10.978-2.604-1.238-7.529.775-3.422-3.459,1.357-1.399,3.524-1.551,4.149-2.355,20.247-26.023,22.211-46.297,54.769-65.722,3.469-2.07,10.095-3.601,10.499-4.012.343-.349-.45-2.693.27-3.701,1.336-1.872,11.929-10.123.726-6.79-28.403,8.449-52.455,39.218-68.201,62.798-2.913,4.362-14.344,27.06-17.862,27.265-5,.291-6.278-11.177-1.226-12.389,1.115-.268,6.318,1.91,6.292-.65-.005-.532-3.319-2.561-3.8-4.227-1.442-4.987,2.623-5.391,4.233-8.364,10.043-18.542,16.969-34.17,34.123-47.877,8.895-7.108,35.839-25.691,45.419-27.581,31.872-3.637,64.044-5.049,96.053-7.459.816-3.283-8.965-2.396-10.001-4.006-1.183-1.837,29.594-19.151,32.242-20.966,22.854-15.659,44.101-36.803,65.737-53.539,15.175-11.738,37.144-19.888,55.802-24.29,1.928-.455,3.781.934,5.487.607,1.856-.356,4.228-3.799,6.72-3.814l-17.54-1.034c-10.517.505-27.477,3.532-37.019,7.981-3.977,1.854-7.012,7.047-11.862,7.026-3.914-.017-16.789-18.239-20.568-21.945,5.014-2.11,11.209-1.245,16.05-2.461,39.574-9.937,71.076-34.996,99.508-62.534,1.556-1.507,1.661-5.641,4.223-1.302,1.502,2.543,4.348,11.144,5.501,14.499,9.419,27.424,31.711,92.492,25.243,118.81-2.148,8.739-7.439,13.861-13.804,19.682Z"/>
  <path class="cls-4" d="M249,382c6.489-10.489,13.489-20.975,20.192-31.308,4.559-7.027,7.793-14.836,12.009-20.991,16.96-24.764,48.118,17.862,64.82.82,6.578-6.712.585-19.933-.053-27.99-.671-8.474.016-19.314,1.311-27.753,2.049-13.356,4.655-22.035,20.78-19.331,2.308.387,13.524,4.525,15.306,5.687,3.6,2.348,2.67,5.144,4.163,6.833,1.44,1.628,4.242,1.216,5.253,2.248,2.966,3.027,9.506,17.862,10.749,23.754,2.883,13.665,3.821,34.86-10.182,42.878-2.38,1.362-6.792.315-5.31,3.614,2.174,4.841,15.345,2.361,18.908-1.015,1.487-1.409,5.446-10.127,5.812-12.188,1.787-10.068.448-44.627-5.064-53.051-.554-.847-4.04-1.591-4.475-3.845-.366-1.894,3.143-6.97,2.808-11.839-.257-3.74-2.696-9.925-5.004-13.033,14.845,10.854,24.089,31.725,28.488,49.501,9.891,39.964,12.413,74.602,2.711,114.732-.586,2.422-.133,10.662-1.417,12.079-.476.525-13.323,3.721-13.797,3.195-.759-.842,2.837-19.009,3.031-22.457.847-15.021,1.003-32.867-9.013-45.064-.9-1.097-10.231-7.266-11.02-6.469,3.891,8.609,9.652,16.949,10.878,26.611,4.812,37.921-19.43,138.979-62.66,147.281-13.813,2.653-19.236-2.928-28.203-12.398.046-1.073,17.8-7.601,12.973-12.494-1.458-1.477-33.855,14.01-39.989,4.489l40.008-19.979c3.28-8.591-10.342-4.648-15-3.002-12.048,4.257-24.931,19.206-37.433,17.426-5.329-.759-13.827-8.532-7.974-12.885,3.559-2.647,7.574,2.055,10.659,3.18,8.477,3.093,3.615-3.729-.224-6.77-2.723-2.157-8.108-1.843-5.579-5.502.643-.93,3.802-1.884,5.796-4.204,8.935-10.393,1.906-30.212-13.253-25.263,5.464,4.673,14.389,6.843,10.044,16.061l-26.131,27.861c-8.39,3.907-13.247.411-16.692-7.144-6.858-15.041-10.89-32.04-17.747-47.253-2.86-6.345-5.512-14.286-13.21-15.79-5.035-.984-28.187,1.861-29.263-3.737-.342-1.778,30.812-7.447,34.974-9.015,8.456-3.186,18.906-9.874,26.021-15.479,1.393-1.199,1.934-.676,1,1-6.006,6.083-18.362,12.079-21.535,15.965-4.436,5.432.777,5.797,5.873,5.642,20.811-.635,34.681-24.157,48.635-36.133,1.264-1.085,15.885-8.858,13.02-11.468-1.308-1.192-19.971,1.576-22.817,2.672-3.22,1.239-10.44,8.525-13.178,11.322Z"/>
  <path class="cls-4" d="M249,383c-1.405,1.325-1.92.767-1-1,.163-.167.837.167,1,0-.149.241.147.755,0,1Z"/>
  <path class="cls-2" d="M942.216,491.782c.164.411,2.324.08,2.781,4.704.525,5.312-2.026,8.823-1.95,11.015.19,5.444,4.186,10.673.744,18.825-.678,1.606-2.627,1.575-2.728,1.749-.543.939,1.721,2.847,1.75,5.116.063,4.797-4.975,16.163-6.661,21.42-11.235,35.041-27.168,71.789-46.359,104.701-1.649,2.827.83,4.691-3.785,2.692,1.879,4.481-11.242,29.489-12.999,30.499-2.33,1.34-19.161-1.638-19.901-2.601-.562-.732-.109-3.951.142-5.154l20.654-49.149c5.73-.642.532-3.534,3.321-7.858l25.774-56.729c-2.47-.396-3.542.849-5.007,2.482-8.484,9.454-16.405,29.501-21.705,41.26-6.78,15.042-14.337,32.435-20.803,48.23-.528,1.289-2.992,2.161-3.356,3.725-.289,1.244,1.106,3.102.88,3.285-.317.256-2.549-.364-2.901.064-.443.537.149,4.125-.572,5.98-1.333,3.43-4.524,5.905-4.594,9.908l-99.946-23.952c-.371-2.382.446-3.049,2.048-4.449,4.509-3.941,18.574-10.093,24.868-14.132,21.728-13.94,42.491-30.319,59.944-48.533.522-12.152,2.251-25.142,1.121-37.357-.782-8.452-4.799-16.174-5.974-24.516,7.982,1.818,27.726-7.411,34.021-4.513,3.298,1.518,1.099,8.627,5.996-2.013,6.17-.739,30.576-3.904,32.973-8.992.749-1.591-3.875-3.102-4.73-3.253-1.769-.312-12.402-1.334-13.682-1.242-.501.036-5.416,1.593-8.96,2.131-4.618.701-33.378,8.141-34.617,6.882-.534-.542,1.098-4.23-.993-4.002,4.165,5.99-11.43,7.994-12.904,6.878-.277-.21-1.466-6.341-1.071-6.839.18-.227,3.251-.133,4.717-1.364.994-.835,4.052-7.81,5.233-9.194,5.773-6.767,13.58-12.754,19.525-19.475,10.778-12.183,19.031-19.448,11.475-37.003-1.81-.457-.379,2.115-1.478,1.986-5.009-.587-7.161-13.573.069-10.073,4.262,2.063,6.187,7.67,11.929,7.173,5.707-.494,1.205-5.775,6.485-3.097-1.452-7.691,3.04-4.041,4.018-4.991.23-.223-.307-4.642.201-6.299.582-1.9,3.44-3.161,4.534-5.463,4.053-8.527,7.537-20.3,7.3-29.797-.045-1.796-1.52-12.044-2.087-12.423-.13-.087-1.818,1.204-2.933.537-3.728-2.233-8.745-12.899-7.013-17.561,19.116,15.822,32.596,40.127,42.846,62.642,5.047,11.086,16.435,37.503,16.215,48.865-.058,3.007-2.578,7.465-1.857,9.275Z"/>
  <path class="cls-7" d="M265.5,841c.234-.006,7.344-2.193,3.499.986-.301.249-5.526,2.742-6.96,3.554-24.819,14.057-55.696,14.784-82.303,5.224-2.77-.995-16.434-6.873-17.78-8.282-1.783-1.866.534-4.058.042-4.474-.535-.453-4.255.423-5.451.065-1.119-.335-.148-2.574-.622-2.954-.75-.603-3.008.39-3.816-.27-.365-.298.203-2.14-.309-2.642-.669-.658-2.469.01-2.806-.219-.095-.064,1.089-1.781.953-1.916-.182-.18-2.556-.164-4.008-1.505-1.653-1.526-8.642-12.983-9.933-11.561-1.318,1.451,3.386,8.705,3.003,8.984-.619.45-3.314-.961-3.003.999,6.744-1.122,2.324,2.396,2.99,3.004.177.162,1.957-.46,3.068.665,2.197,2.223,2.838,7.214,4.909,9.87,3.232,4.143,27.398,16.563-.19,10.191-5.644-1.304-6.77-3.77-9.299-4.71-1.529-.569-.962,3.915-7.186.195-2.286-1.367-3.264-3.867-3.501-3.987-2.217-1.115-5.555.902-9.209-2.32-1.551-1.368-1.439-3.442-1.77-3.7-.59-.46-3.965-.196-6.197-1.32-4.98-2.509-4.152-7.343-4.626-7.885-.284-.326-2.253,1.391-4.511.116-3.995-2.253-6.815-11.819-11.808-14.382-4.638-10.138-7.253-21.142-11.515-30.392-8.286-17.979-22.534-54.465-15.933-73.606.5-1.451,2.59-2.644,2.77-3.232.266-.869-1.98-.204-2.069-1.046-.289-2.728,3.713-6.689,4.069-7.956.102-.363-2.845.652-1.286-6.296,1.622-7.223,8.743-17.438,10.308-22.906,6.64-23.207,4.403-47.302,13.498-69.274,9.084-21.946,26.659-46.086,49.515-21.522.016,3.265-21.252,15.471-23.537,20.5,2.485-19.837.22-11.875-5.629-.592-.574,1.107-2.798,1.424-2.887,2.191-.372,3.18-.258,5.657-.917,9.969-.568,3.715-.183,11.818-1.199,14.83-.545,1.615-2.674,1.408-2.852,1.628-1.676,2.065,2.495,2.124,2.921,3.58.257.876-1.13,6.328-.983,8.923.674,11.966,2.357,24.104,4.07,35.963-5.93.419-.902,3.938.465,7.532,1.209,3.178,4.016,10.737,4.424,13.685.288,2.082-2.351.876-1.903,1.793.459.938,2.909,1.647,3.86,3.142,3.735,5.874,4.727,14.487,12.126,18.362.121-4.858-12.645-32.357-10.991-33.995,2.961-2.934,22.191,2.463,26.268,5.939,1.579,1.346,1.577,3.942,1.762,4.064.468.308,2.065-1.357,4.487-.111,4.453,2.291,3.708,6.862,5.431,9.657,1.106,1.796,4.386,3.33,5.3,5.696,1.071,2.772.218,6.064.973,7.543.214.419,2.736,1.016,4.004,3.488.471.918,3.858,12.464,3.822,13.148-.028.531-1.841.539-2.026,1.234-1.443,5.414,3.051,2.554,3.983,3.345.402.342-1.747,4.773-.996,5.987,1.029,1.662,3.753-4.544,5.997-3.006-2.232-2.612-9.295-24.688-7.997-25.982,2.14-2.134,9.392,7.933,10.983,9.395,5.946,1.421,19.848,3.882,19.857,11.099.011,9.034-23.449,17.603-25.73,35.117-.274,2.102-.552,20.318-.027,21.241.147.258,2.403.664,3.381,2.158,2.642,4.036,5.73,12.093,9.18,14.836,6.352,5.048,31.882,9.5,39.633,8.107.69-.124.675-1.675,1.486-1.874,11.508-2.82,23.155-7.641,32.118-15.695,1.97-1.77,6.493-9.207,8.54-9.363,1.996-.153,19.757,9.069,20.374,10.131.215.37-1.162,2.008.052,3.404,1.591,1.832,9.129,4.974,9.901,5.68,2.067,1.889.686,7.871,1.357,8.704.334.414,2.645-.18,2.887.06,2.643,2.615-2.609,2.916-2.806,3.128-.519.559-.008,2.938-1.127,4.417-11.475,15.156-32.285,4.886-47.293,8.722-.942.241-11.007,4.432-8.765,5.724.414.238,8.689,1.006,9.494,1.006,5.325,0,10.679.132,16,0Z"/>
  <path class="cls-2" d="M1024,964c-3.979-1.192-8.064-1.504-10.448-2.138-1.57-.418-1.091-4.222-3.52-2.804-.248.145.403,2.131-.52,1.944-.621-.126-3.105-3.151-5.512-2.014,5.109-8.381-1.166-.642-5.389-.991-5.419-.449-20.797-6.844-27.559-8.556-5.539-1.402-4.724-1.937-7.512-3.078-.913-.374-5.858.943-8.565.221-18.544-4.943-50.378-12.624-65.824-22.498-.602-.385-2.486.232-3.022-.192-.809-.64-.107-3.74-.343-4.433-.23-.677-1.708-.359-1.761-.474-1.129-2.452,1.705-1.958,1.743-2.122,3.183-13.729,5.87-34.198,12.729-46.868,1.4-2.586,2.03-4.106,5.496-4.009.45-1.972-3.495-.335-2.988-1.482,4.531-10.243,8.982-20.76,14.475-30.526,1.624-2.887,4.768-9.597,6.475-11.547,9.974-11.392,15.174-25.627,25.536-37.441,2.739-3.123,11.679-12.514,15.613-12.509.793.001,12.381,3.093,12.784,3.621.611.802-.129,3.603.122,4.896,6.041-7.084,11.286-.215,16.749.827,4.958.946,8.316-.802,14.824,2.083,2.352,1.043,2.791,3.507,3.86,3.746.726.162,2.38-.978,3.78-.479,2.689.958,4.748,4.023,8.775,2.823v28c-3.291,2.111-7.342,3.24-12.152,3.389-18.327,4.345-43.599,18.309-54.018,33.97,18.938-12.416,40.769-23.937,63.409-27.741l2.761,1.383v135Z"/>
  <path class="cls-2" d="M627.005,576.005c-2.816,5.75,5.908,2.85,5.988,7.975-10.499,7.598-20.324,16.227-31.272,23.241-7.378,4.727-15.815,7.63-21.685,11.287-1.703,1.061-1.999,3.74-3.703,4.324-5.683,1.947-57.981,4.368-66.825,4.217-6.556-.112-1.192-2.973-5.486-3.038l-66.011,44.988,13.003-23.991c6.955,7.561,2.429-.9,3.484-3.965,1.093-3.175,15.004-21.639,18.113-25.932,17.355-23.96,37.075-46.287,56.428-68.621l3.187-.32c13.811,4.289,29.153,13.69,42.783,17.321,4.169,1.111,9.83.744,13.246,1.754,12.892,3.811,24.887,10.617,38.75,10.76Z"/>
  <path class="cls-5" d="M418.703,508.286c1.276,1.666,6.298,39.812,5.158,41.573-8.477,3.109-15.382,9.15-23.503,12.998-23.763,11.259-58.476,16.241-84.201,10.486-3.122-.699-20.288-6.264-21.878-7.62-2.759-2.352-8.033-20.831-10.089-25.413-2.138-4.763-20.612-38.599-19.178-40.31.359-.428,7.339,5.396,9.291,6.197,3.55,1.457,9.379,1.46,11.918,2.82,1.251.67,2.371,3.641,4.273,4.994,7.757,5.517,18.87,1.151,22.339,3.161.373.216,2.537,6.193,3.735,7.76,18.637,24.367,50.68,8.625,66.398-10.467,2.185-2.654,10.686-17.294,11.712-17.535,1.293-.305,23.024,10.05,24.025,11.356Z"/>
  <path class="cls-2" d="M1024,1012c-6.074-2.582-7.247-1.441-12.018-2.389-1.279-.254-2.512-2.333-4.524-2.602-3.244-.434-5.109,3.91-4.469-3.003-1.73-.4-.457,1.996-1.542,2.069-1.748.117-14.516-5.092-18.19-5.83-2.054-.413-8.891.038-9.212-.292-.385-.395.555-4.301-1.616-4.843-.902-.225-3.096,1.231-4.83.884-4.267-.853-33.606-7.747-34.994-8.903-1.15-.958-.403-2.863-.612-3.091-.212-.232-3.995,1.196-6.226.825s-4.928-2.908-7.545-3.546c-11.142-2.716-21.397-3.569-32.484-7.516-1.274-.453-2.184-2.167-3.478-2.592-2.993-.984-5.362,2.273-5.296-.687.168-7.461,2.07-17.874,2.979-25.04.693-5.461-.281-11.29,2.584-16.467l42.876,13.903c1.035.933-.035,8.697,4.596,5.11.188-.146-1.974-7.302.998-2.99.315.456-.308,2.543.007,3,1.51,2.194,1.761-2.397,3.501-2.037,2.052.424,2.734,2.401,3.943,2.629,28.647,5.411,56.941,14.11,85.552,21.408v42Z"/>
  <path class="cls-3" d="M517.997,539.013l-79.985,101.986-10.903-77.642c-.661-4.73,4.42-5.019,6.305-8.448,5.514-10.028-3.858-36.635-2.41-37.901,3.378-2.953,76.48,21.168,86.993,22.005Z"/>
  <path class="cls-1" d="M436.973,763.053c.598.899-3.42,18.696-4.258,21.163-3.842,11.318-7.805,9.885-17.394,14.419-13.956,6.6-40.656,19.197-50.877,32.31-2.643,3.39-9.43,18.877-12.462,20.595-4.312,2.444-15.093-15.33-20.971-16.089-.344-1.289,12.633-19.836,14.578-22.357,4.433-5.748,13.886-17.18,18.875-22.13,2.747-2.725,7.231-4.368,9.322-6.255.563-.508.037-2.506.221-2.71.36-.398,4.435,1.61,4.986,1.007.302-.33.339-3.851,4.004-7.509,6.123-6.11,15.808-11.002,21.732-15.736,2.59-2.07,9.833-12.289,13.273-10.296,1.931,1.118,5.131,8.81,7.613,10.419,2.081,1.35,10.931,2.526,11.358,3.168Z"/>
  <path class="cls-4" d="M422.878,680.877c-1.799,1.165-9.905-2.124-11.936-3.321-12.451-7.337-4.603-21.268-4.908-33.1-.386-14.99-4.685-34.376-21.77-38.222-4.515-1.016-13.04-.225-17.039-1.888-2.249-.935-2.057-4.617-3.503-6.074-10.879-10.968-34.515,2.513-42.722-13.262,31.254,5.447,65.225-2.217,93.329-16.208,1.877-.934,3.002-6.729,4.578,2.79,3.6,21.743,11.415,71.767,8.98,91.794-.223,1.836-4.245,16.996-5.009,17.49Z"/>
  <path class="cls-2" d="M1024,749v28c-5.203.677-9.357-3.54-13.727-4.771-1.644-.463-6.062.007-6.28-.219-.363-.376.38-3.371.001-4.011-.788-1.33-2.175,2.211-4.407,2.063-4.428-.295-7.695-3.427-9.122-3.796-2.609-.673-20.211-1.216-20.477-2.777-.505-2.963,22.702-17.372,26.571-18.43,9.971-2.726,18.27.511,27.44,3.941Z"/>
  <path class="cls-2" d="M910.747,701.745c-1.853,2.207-26.652-4.889-26.776-6.28-.355-3.994,21.854-38.758,24.534-45.46,1.964,8.088,6.492,46.677,2.242,51.74Z"/>
  <path class="cls-2" d="M918.174,649.834c.169.231,2.672.295,4.684,2.812,5.818,7.279,12.633,36.281,10.212,44.807-.369,1.301-2.847-.111-3.089,1.062-.433,2.107,4.12,6.459,3.012,9.479-2.688-1.473-17.357-2.35-17.999-2.999-2.124-2.146,3.559-4.467,3.898-5.646.398-1.384-1.099-3.802-.931-5.799,1.095-13.061.545-28.514-1.776-40.296-.23-1.169.83-2.647.615-3.109-.202-.437-6.372-5.206-3.796-8.139,2.976-3.389,4.865,7.415,5.168,7.828Z"/>
  <path class="cls-2" d="M887.834,841.187c1.09,1.751-1.55,5.303,2.894,3.442.161-.067.332-1.671.83-1.686,1.761-.052,7.815,2.765,8.307,4.757.859,3.484-2.667,4.585-4.296,6.416-.736.828-.47,2.789-.582,2.884-1.519,1.285-22.926-14.704-27.532-14.957-4.402-5.395,1.082-3.6,1.545-4.049.923-.896-2.89-5.67.478-4.98,1.14.233,17.825,7.319,18.356,8.171Z"/>
  <path class="cls-2" d="M926.777,767.295c.448.208-.282,2.109.894,2.722,1.586.826,13.511,3.972,14.33,4.997.525.656-2.016,6.001-3.475,6.57-4.108,1.602-30.023-8.781-30.528-11.114-.769-3.553,8.984-4.135,3.008-7.458,4.991.043,11.225,2.179,15.772,4.283Z"/>
  <path class="cls-4" d="M498.994,755.995c.469.436,3.534-.723,4.001.5-2.776,4.358-14.376,5.035-16.547.486-1.477-3.094,5.315-13.738,9.571-12.581,7.15,1.944,2.304,10.971,2.976,11.595Z"/>
  <path class="cls-2" d="M981.989,738.02c.362.55-.062,2.233-.475,2.991-2.396,4.395-10.747-1.876-14.301-2.724-5.204-1.242-11.112-.78-15.748-2.26-3.059-.976-.718-2.569-.41-5,4.054-1.226,29.86,5.363,30.933,6.993Z"/>
  <path class="cls-5" d="M426.995,433.006c.657.59-5.99,14.844-7.505,15.979-1.831,1.372-6.837,1.012-7.491-.016-.379-.595,2.726-13.247,3.226-13.746.676-.675,11.142-2.782,11.771-2.218Z"/>
  <path class="cls-4" d="M207.755,430.243c7.383,6.893-6.922,4.308-8.733-1.754,2.304.486,7.147.274,8.733,1.754Z"/>
  <path class="cls-8" d="M249,383c-1.31,2.179-2.692,1.665-3,2,.702-.979.285-1.252,2-3l1,1Z"/>
  <path class="cls-8" d="M245,387c.198-.222.511-1.318,1-2-.258.28-.332,1.379-1,2Z"/>
  <path class="cls-8" d="M244,388c-1.7,1.951-2.53,3.498-5,6l-1-1c1.13-.89,5.249-4.292,6-5Z"/>
  <path class="cls-8" d="M244,388c.309-.355.688-.651,1-1-.339.315-.655.674-1,1Z"/>
  <polygon class="cls-2" points="437.5 670 438 670.5 437.5 671 437.5 670"/>
  <path class="cls-6" d="M1024,818v11c-4.998,1.347-10.229,1.852-15.214,3.286-12.27,3.53-30.623,13.404-42.455,19.545-2.082,1.081-8.293,6.154-8.831,6.15-3.803-.031-.599-6.293.937-8.046,5.567-6.352,19.956-16.058,27.692-20.306,12.309-6.76,23.541-11.368,37.871-11.629Z"/>
  <path class="cls-3" d="M552.012,479.022c-2.191,3.345,10.121,9.742,8.963,13.402-.222.701-11.992,7.259-12.712,7.406-9.414,1.918-11.848-12.359-16.996-13.675-4.442-1.135-10.924,5.073-15.976,3.118-1.751-.678-11.786-12.334-12.179-13.901-.923-3.681,11.889-1.161,12.405-5.285.592-4.73-11.297-11.718-9.079-16.082.512-1.007,14.19-5.172,15.956-4.996,5.606.557,10.976,14.039,14.302,14.875,5.547,1.394,13.53-10.131,23.152-.231,15.211,15.652-5.89,12.401-7.836,15.371Z"/>
  <path class="cls-6" d="M452.649,478.084c7.891-2.773,14.965,12.426,2.946,10.892-7.202-.919-6.44-9.664-2.946-10.892Z"/>
  <path class="cls-6" d="M809.994,859.006c1.911,1.802-10.743,13.431-12.526,14.962-17.511,15.032-40.748,27.674-62.951,34.049-6.049,1.737-12.217,3.418-18.517,3.972,1.217-1.881,3.236-4.177,5.093-5.396,17.595-11.557,43.676-17.016,60.461-31.546,1.484-1.285,2.9-5.535,4.443-4.037.24.233-.222,1.604.014,1.987.684,1.11,1.557-2.431,2.427-3.052,1.595-1.14,3.667-1.086,4.839-1.91,2.645-1.86,13.21-12.336,16.718-9.028Z"/>
  <path class="cls-6" d="M299.769,589.237c9.69-2.369,17.84,12.574,25.167,16.327,3.101,1.588,13.737,2.575,14.066,3.96.281,1.183-9.845,19.353-11.59,21.389-19.584,22.848-35.055-10.079-34.404-28.374.169-4.738,1.349-11.978,6.761-13.301Z"/>
  <path class="cls-6" d="M388,663v19.5c0,23.709-41.298,63.458-62.082,71.918-7.308,2.975-30.731,5.777-38.459,4.623-2.686-.401-8.892-4.006-10.47-6.53,17.907,1.991,32.161-.724,48.029-8.993,10.282-5.359,29.075-19.398,35.432-28.569,1.422-2.051,1.704-5.522,2.796-6.707,5.822-6.321,9.072-10.861,12.956-19.54,3.103-6.933,5.067-17.453,8.603-23.397.809-1.36,1.192-2.686,3.195-2.305Z"/>
  <path class="cls-6" d="M227.993,787.005c2.666,2.849-9.377,9.323-11.728,9.762-15.724,2.934-29.186-3.833-27.26-21.269,1.428-12.931,18.774-19.991,30.276-17.278,5.209,1.228,5.272,9.851,13.701,4.263,2.271-1.506,8.705-14.128,9.781-2.752,1.148,12.138-21.108,23.309-30.113,17.12-3.013-2.071-1.528-10.16-4.192-10.837-4.804-1.22-16.984,11.666-10.983,19.018,10.298,12.617,29.408.788,30.517,1.973Z"/>
  <path class="cls-6" d="M176.994,658.994c-1.333,1.503-7.716-6.431-8.501-7.987-7.374-14.608-6.61-36.696,2.678-50.336,1.925-2.827,14.758-14.954,15.869-7.142,1.177,8.28-13.495,23.154-13.636,36.135-.049,4.509,4.933,27.815,3.59,29.33Z"/>
  <path class="cls-6" d="M197.006,646.994c-1.235-1.245,11.082-27.873,7.999-30.999-.843-.855-9.91,1.677-8.989-1.474,1.592-5.45,10.916-5.726,15.285-4.323,12.979,4.168-9.075,42.057-14.295,36.796Z"/>
  <path class="cls-6" d="M265.994,569.005c1.218,1.261-1.043,12.829-1.023,15.444.034,4.391,1.41,8.826,1.028,14.069-.096,1.323.705,3.063-1.477,2.466-8.006-2.19-3.572-14.33-8.412-19.336,2.339-.92,6.162-16.495,9.884-12.643Z"/>
  <path class="cls-6" d="M267,606.011c-3.819,11.927-27.467-.846-22.994-5.006,1.303-1.211,18.853,7.973,22.994,5.006Z"/>
  <path class="cls-6" d="M278.994,295.994c-1.567,2.699-3.778-5.784-4.016-6.477-17.512-51.168-20.394-98.58-84.215-111.791-.961-.199-3.006-.345-2.755-1.712,5.623-2.79,18.339-1.523,24.244.233,1.864.554,27.707,15.931,28.78,17.22,4.351,5.222,16.079,23.984,19.483,30.517,10.993,21.098,18.773,48.183,18.478,72.01Z"/>
  <path class="cls-6" d="M388.994,274.994c-3.008,2.892-9.095-4.754-11.971-5.513-8.031-2.118-13.729,1.68-14.07,10.058-.395,9.722,7.595,2.952,15.078,4.937,13.646,3.619,18.106,30.773,7.502,31.579-7.403.563-4.939-13.414-12.562-16.585-5.423-2.256-5.316,5.853-5.984,6.528-.355.359-5.639-3.984-6.431-5.055-5.06-6.835-6.43-25.31-2.753-32.64,9.153-18.246,35.412,2.633,31.191,6.69Z"/>
  <path class="cls-6" d="M271.708,416.695c-4.123,3.034-20.843,1.145-23.184-3.718-3.599-7.476,6.061-1.29,9.983-1.911,2.239-.355,2.197-2.527,2.781-2.761,5.957-2.389,8.877-2.313,13.146-8.37,1.165-1.653,4.119-10.768,6.052-9.926,8.496,3.7-4.067,23.22-8.778,26.687Z"/>
  <path class="cls-6" d="M906.989,555c-8.174-6.278,1.497-18.659,3.326-26.175.524-2.155,2.282-7.238-1.303-6.841,4.362-2.582.322-4.076.242-6.633-.057-1.826,1.457-3.579,1.31-4.849-1.152-10.001-9.304-23.133-19.288-26.275-5.302-1.669-3.838-.688-8.862-3.098-18.943-9.09-1.028-7.476,8.215-5.258,14.046,3.37,22.196,8.155,26.415,22.585,6.463,22.103-4.037,36.624-10.057,56.545Z"/>
  <path class="cls-6" d="M92.989,691.001c-2.313,2.975-2.051-4.81-2.037-5.549.132-6.698,2.761-14.157,3.086-20.915.509-10.591-1.986-21.018-1.527-31.548,9.46,8.399,8.21,26.71,6.188,38.21-.399,2.271-5.072,18.982-5.71,19.802Z"/>
  <path class="cls-6" d="M105.987,799.993c-9.046-13.609-23.002-26.119-21.976-43.988,2.388,2.775,4.957,6.508,6.792,9.691,2.963,5.141,14.169,24.481,15.462,28.628.712,2.285.025,3.486-.278,5.669Z"/>
  <path class="cls-3" d="M305.721,600.271c2.918,3.138-.624,10.642-2.707,13.72-1.185-3.582-3.055-19.918,2.707-13.72Z"/>
</svg>