<?xml version="1.0" encoding="UTF-8"?>
<svg id="Layer_1" data-name="Layer 1" xmlns="http://www.w3.org/2000/svg" viewBox="0 0 1025 1025">
  <defs>
    <style>
      .cls-1 {
        fill: #1471a1;
      }

      .cls-2 {
        fill: #083045;
      }

      .cls-3 {
        fill: #924f22;
      }

      .cls-4 {
        fill: #fff;
      }

      .cls-5 {
        fill: #d72827;
      }

      .cls-6 {
        fill: #0c0807;
      }

      .cls-7 {
        fill: #eeb274;
      }
    </style>
  </defs>
  <path class="cls-4" d="M831,1025H0V0h1025v1025h-118c-3.161-2.901,1.98-6.376,5.164-7.438,8.607-.9,11.742-4.29,13.475-12.442,5.179-2.358,9.108-5.348,11.784-8.972-.568-3.236.297-5.239,2.593-6.01l81.677,13.456c-.212-4.908.557-9.44,2.306-13.595-2.701-7.948-2.757-16.064,0-24-1.957-2.628-1.963-5.375,0-8-2.409-34.653-2.415-69.347,0-104-1.966-3.629-1.958-7.369,0-11-3.134-15.195-2.933-31.769,0-47l-1.975-1.405c.47-3.61.3-7.113-.511-10.51l-91.788-21.867-2.171-1.761c9.837-29.573,6.161-57.804-10.838-83.069-5-8.027-4.963-13.81.11-17.35,3.23-4.743-10.498-40.207-13.404-45.41-8.463-15.151-18.557-20.91-35.715-22.818,3.232-33.94,4.847-68.488-8.024-100.759-9.919-19.42-12.475-38.854-14.069-60.009-10.947-16.268-18.267-31.358-24.613-50.84-9.72-35.067-20.023-70.382-37.078-102.774-31.892-60.573-79.434-82.58-145.144-86.271-15.917-.689-25.513-9.152-36.003-19.693-6.478-6.144-13.36-6.187-21.735-5.349-1.789-15.983-5.49-31.475-11.103-46.476-4.991-5.114-6.977-10.621-5.957-16.522-1.462-8.726-28.099-40.282-36.312-45.465-36.221-22.86-87.988-8.261-118.65,18.263s-27.717,52.821-22.388,89.928c-9.887,11.716-19.826,23.384-29.82,35.004-25.272,39.767,23.219,16.014,38.535,5.117,2.28-1.145,4.085-.468,4.646,2.107-.598,9.571,4.364,11.525,12.845,12.015l1.79,1.299c2,13.385,6.371,25.659,13.113,36.823-3.516,7.345-7.91,14.385-13.181,21.12-11.745,24.111-21.73,48.996-29.954,74.654-6.087,11.464-10.957,23.302-14.611,35.516,3.086,9.704-1.917,18.007-7.418,25.827-15.975,18.426-32.048,36.724-48.22,54.894-13.292,22.974-26.294,46.127-39.006,69.46-5.78,9.141-13.997,21.272-24.999,23.72-26.148,2.9-58.767,8.704-73.433,33.239-7.607,15.202-15.393,28.576-33.041,32.652-24.035,12.699-32.954,43.691-23.862,68.183-5.919,16.442-7.356,28.788-3.479,46.825,3.404,15.837,9.976,30.485,18.077,43.999,1.206,2.049,1.987,4.676-.339,6.174-23.307,11.208-2.396,20.73,10.926,26.127,34.676,14.05,77.911,17.261,115.057,10.541l54.838,7.719,2.298,1.374c-1.197,18.984-.843,37.557,8.806,54.349,1.744,19.912,12.259,26.619,29.613,35.177,38.806,19.136,83.717,31.607,125.258,41.682,4.765,1.065,9.164-.333,13.196-4.194,22.752,5.683,45.184,12.794,67.295,21.333,51.205,14.835,104.967,15.753,157.566,13.32,22.14.411,38.286,4.284,58.228,12.698,14.289,1.199,28.552,2.632,42.787,4.298,5.508.58,9.127,2.616,10.857,6.108Z"/>
  <path class="cls-6" d="M831,1025c-16.173-8.696-36.417-4.868-54.051-8.449-8.914-1.81-16.485-6.801-24.959-9.041-23.559-6.226-49.536-2.534-73.448-2.469-38.642.104-80.388-3.753-117.538-14.545-9.536-2.77-61.861-22.53-66.276-21.345-1.544.414-3.862,3.621-6.695,4.373-7.728,2.052-40.238-8.361-49.799-11.258-24.635-7.466-88.504-27.652-105.131-44.869-8.07-8.356-5.767-12.525-8.803-22.197-1.222-3.894-3.759-7.203-5.074-10.926-4.648-13.157-5.219-29.598-3.221-43.27l-55.612-7.894c-29.498,5.986-60.175,4.029-89.403-2.6-15.313-3.473-75.029-20.076-36.939-38.061.269-1.717-7.491-14.059-8.909-17.091-8.348-17.862-15.835-42.946-11.908-62.624.888-4.448,4.789-11.113,4.791-15.234.001-3.052-2.228-6.248-2.772-9.254-4.038-22.322,6.255-49.753,27.071-60.422,4.346-2.227,9.819-3.213,14.008-5.992,11.317-7.508,15.295-22.718,23.251-32.749,12.317-15.528,36.481-22.268,55.232-25.768,16.422-3.065,18.416,1.373,30.157-12.843,20.425-24.729,31.047-59.065,50.196-84.804,12.415-16.688,51.345-49.35,53.795-68.255.421-3.246-.952-5.326-.96-7.912-.024-7.388,11.44-27.855,14.744-36.254,9.842-25.022,16.674-51.417,30.082-74.918,1.977-3.466,12.767-17.925,13.057-19.043.423-1.627-6.663-11.002-7.938-14.734-1.149-3.365-4.192-21.691-5.078-22.423-.347-.287-6.72-.743-8.867-1.632-5.775-2.388-6.043-7.917-6.008-13.492-11.86,4.637-32.564,22.514-45.735,17.235-10.763-4.314-1.208-18.667,2.924-24.556,8.584-12.233,20.74-22.3,29.619-34.39-1.468-17.916-6.117-33.925-2.151-52.143,11.537-52.996,104.505-89.978,148.264-55.568,7.96,6.259,34.272,36.819,35.15,45.943.185,1.926-.857,4.052-.547,5.601.4,1.999,4.944,6.951,6.216,9.636,6.146,12.971,9.337,31.961,10.27,46.231,18.158-6.565,26.856,12.615,39.066,19.433,10.674,5.96,43.553,6.807,58.117,9.883,77.621,16.394,105.54,68.608,129.83,138.17,8.488,24.309,14.427,57.581,26.812,79.188,8.238,14.372,13.025,12.706,13.215,31.871.246,24.932,9.556,35.255,16.219,57.696,8.734,29.413,8.126,59.668,3.731,89.767,26.257-.619,37.25,20.454,44.271,42.231,1.752,5.435,7.457,23.384,5.246,27.799-.729,1.455-3.245,1.528-3.534,2.669-1.805,7.116,11.705,26.249,14.781,34.039,7.507,19.006,6.637,43.339-.76,62.25l93.31,22.2c2.861,1.473,1.643,10.342,1.69,13.81-4.056.205-8.085-.036-12.086-.729l-132.353-33.208c-14.464-3.521-29.057-6.39-43.793-8.3-13.795-1.788-20.064-1.254-29.659,8.943-1.913,3.276-15.052,11.974-8.61,7.294,1.345-2.674,23.447-2.598,24.56-2,.773.416,1.182,1.195,1.44,2,.145-.459.314-.903.566-1.293,1.076-1.664,20.637,5.177,22.603,6.074,9.799,4.471,19.345,9.325,27.63,16.283-1.875-3.19-10.829-26.688-.687-22.275.39.17,4.678,6.35,4.914,6.796,4.653,8.773,8.092,18.069,11.483,27.344,43.182,10.464,84.233,22.481,126.617,35.873,1.31.414,2.542,1.085,3.776,1.787,1.252.712,2.435,1.544,3.599,2.41.009,3.659-.007,7.341,0,11l-4.604.091c-38.646-11.634-77.27-22.631-115.871-32.992-38.519-9.086-72.039-9.644-99.86,22.4-7.957,8.262-22.108,11.905-11.832-3.329,14.357-21.283,46.708-40.545,72.795-39.863-15.598-14.976-39.673-20.992-61.208-22.592-6.112-3.536-10.979-2.806-14.6,2.189-9.086,8.767-21.105,22.902-24.41,34.857-13.694,14.046-22.626,38.745-28.37,57.829-1.452,4.824-2.777,9.723-3.69,14.653l28.356,11.464c.875-6.988.132-13.692-2.228-20.109,1.581-4.457,2.105-9.331,1.571-14.623.358-6.363,7.828-11.85,9.815-3.75-.053,14.746,1.651,28.836,5.112,42.269,78.259,27.455,161.241,40.76,243.212,53.404l5.814,2.104c-.005,2.663.008,5.337,0,8-2.208.184-4.416.326-6.624.323s-4.383-.026-6.523-.341c-49.02-7.221-97.87-16.125-146.272-26.674,14.865,4.771,30.233,10.087,42.706,19.377,6.873,7.373,14.501,13.323,22.886,17.851,29.257,2.071,58.485,5.854,87.685,11.347,3.057-.412,5.105.294,6.142,2.118-.04,5.322.034,10.68-.005,16.001l-84.986-14.001c3.119,10.38-9.305,11.208-11.757,14.252-.747.927-.911,4.115-1.738,5.765-5.329,10.635-14.476,3.049-18.515,12.982h-36c-.55-1.508-.793-3.266-.728-5.276l-7.856-2.759c-9.997-7.391-20.994-10.32-32.876-13.363-3.718-.116-12.991-6.397-8.509-9.814,8.741-6.663,51.615,14.554,61.862,20.463,3,1.328,6.023,2.62,9.198,3.4,1.502.369,3.706.812,5.048.008,1.072-.643,1.289-4.173,1.116-4.323-14.848-12.78-33.444-20.87-51.602-26.822-13.429-4.111-22.054-17.886-.196-11.514,19.836,5.783,37.99,15.896,54.47,27.914,3.928,2.861,17.161,9.955,14.507-.106-15.787-18.311-37.034-26.714-59.533-34.853-4.398-.085-20.833-13.072-11.406-14.795,2.278-.417,36.037,12.247,41.253,14.451,12.596,8.16,24.842,16.825,36.736,25.994,9.713,3.844-6.014-10.237-8.342-12.094-13.935-11.113-26.201-19.568-42.836-26.565-29.46-12.393-53.573-10.574-84.899-7.863-50.423,1.115-92.612-10.684-139.96-27.715-22.246-7.049-44.864-11.962-67.737-9.967-5.868.759-12.97-3.955-5.529-7.83-8.76-5.65-18.105-10.663-27.565-15.103-3.531-1.657-18.23-8.375-21.079-8.488-10.181-.403-40.245,59.616-34.393,73.525,33.988,12.163,68.546,23.246,103.672,33.249,41.9,5.601,84.213,7.714,126.939,6.338,12.931-.231,25.399,1.032,37.406,3.789,9.697,5.998,20.031,9.873,31.787,10.738,23.202.516,44.311,6.246,65.338,15.585,2.096,1.471,2.17,3.001-.284,3.794h-24Z"/>
  <path class="cls-7" d="M855,1025c.517-2.477-1.159-2.112-2.714-2.736-10.836-4.347-25.691-10.442-36.929-12.122-15.721-2.351-31.449-1.335-46.618-7.382-6.619-2.639-9.843-6.805-17.367-7.633-61.533-6.769-127.803,5.475-188.139-16.861l-74.614-25.163c-1.299-.99-.657-8.341-.362-10.344.826-5.603,3.752-16.97,5.461-22.539,2.643-8.608,21.971-43.317,30.825-44.207,1.492-.15,18.013,6.871,20.812,8.13,4.518,2.032,29.246,14.539,30.637,17.368,1.057,2.148-3.711,2.115-3.991,2.501-.271,1.369.353,2.399,1.669,2.815,4.453,1.408,17.876-.211,23.817.183,38.945,2.584,86.808,25.414,127.499,33.501,38.299,7.612,61.824,4.432,99.521,2.498,30.494-1.565,69.81,17.592,92.017,37.964,1.656,1.52,10.574,10.067,11.012,11.061.92,2.091-1.024,4.791-3.187,4.748-2.891-.057-30.303-22.563-36.673-25.96-12.8-6.827-28.965-9.758-42.292-15.723-2.211-.649-1.567,1.644-.883,2.898,3.796,6.959,30.722,14.837,39.192,18.808,12.779,5.992,16.865,9.223,26.605,18.888,1.203,1.194,3.305,1.115,5.159,3.352,3.909,4.717,3.661,11.585-3.841,10.92-7.437-.659-23.293-13.894-30.934-18.149-10.016-5.578-31.294-14.958-42.277-16.728-1.179-.19-4.285-.759-3.4,1.399,2.722,6.642,26.959,12.982,33.974,16.031,11.393,4.953,20.514,12.951,30.791,19.69.85,3.316.474,7.101-3.32,7.784-8.388,1.508-32.513-13.986-42.188-17.757-9.981-3.891-21.515-7.518-32.261-7.229-.114,1.454.502,3.18,1.772,3.979,5.557,3.496,19.097,5.645,26.181,8.558,5.534,2.276,8.545,5.107,13.361,7.639,5.494,2.888,12.871,1.23,7.682,9.818h-16Z"/>
  <path class="cls-2" d="M1024,958c-83.859-10.839-167.61-26.239-248.016-52.484-3.227-.984-3.971-4.42-4.707-7.293-3.034-11.845-1.748-24.669-3.242-36.758-.488-3.95-2.049-4.745-4.493-1.422-2.671,3.63-1.321,10.009-1.482,14.511-.068,1.914-1.668,3.267-1.675,3.941-.004.425,2.228,5.746,2.485,8.133.379,3.523-.576,8.962.107,11.671.314,1.246,4.263,1.337,3.013,4.7l-36.056-14.577c3.154-14.737,8.118-29.998,14.209-43.78,3.253-7.361,9.552-20.669,14.022-26.973,1.429-2.016,4.456-3.632,4.604-3.895.608-1.079-.003-3.136.78-4.707,3.586-7.201,22.046-30.313,28.394-34.617,4.443-3.013,6.867.494,11.813,1.294,4.884.79,10.28.707,15.294,1.706,18.205,3.626,39.481,11.482,51.949,25.541-20.1-3.528-41.53,6.32-57.331,18.179-6.294,4.724-18.006,16.32-22.115,22.885-3.307,5.284-1.784,6.227,3.37,3.37,8.843-4.901,17.462-16.438,26.753-22.246,34.767-21.736,73.102-8.356,109.538,1.107,31.334,8.138,61.695,19.085,92.785,27.715.063,34.651.071,69.349,0,104Z"/>
  <path class="cls-2" d="M1024,990c-2.121.03-4.234.12-6.356-.129-29.012-3.412-54.395-10.911-84.143-10.789-10.161.041-21.21-14.268-29.022-20.061-12.498-9.269-44.639-20.408-60.255-22.745-19.796-2.962-39.94,2.045-59.735,2.715-15.803.535-36.022-3.62-51.503-7.477-2.008-.5-8.304-1.652-9.402-2.398-1.384-.941,2.179-31.995,3.46-33.071,1.776-1.491,12.221,5.245,14.987,6.423,8.617,3.672,17.696,6.389,26.542,9.458,2.916,4.091,5.189,17.15,9.939,19.066,2.212.892,1.55-2.587,1.518-3.516-.149-4.226-2.092-8.214-2.027-12.47,11.916,2.537,23.686,6.744,35.573,9.916,69.031,18.423,139.825,30.168,210.422,41.078-.024,7.987.06,16.014,0,24Z"/>
  <path class="cls-1" d="M727.816,730.811c.452-.287.544-1.918,1.172-2.344,3.388-2.298,40.529,9.404,47.005,11.025-2.852,5.436-9.058,7.621-13.47,11.534-28.797,25.536-57.661,75.66-67.238,112.758-4.647,18.003-7.913,36.54-7.29,55.212l-48.99-13.007,14.118-10.389,1.872-2.595c-2.153-1.667-24.369,9.034-29.497,9.022-3.087-.007-8.281-2.497-12.121-2.905-7.252-.77-20.938.583-27.302-2.698-7.601-3.918-16.082-11.779-24.033-15.967-5.91-3.113-19.954-6.753-24.042-9.958-1.95-1.529-1.946-3.836-3.433-5.567-9.829-11.432-39.481-13.632-49.92-21.08-3.291-2.348-10.226-13.358-15.12-17.88-2.2-2.032-18.792-15.702-20.048-15.951-1.338-.265-4.348-.4-5.473.472l16.989,17.496c-9.785-2.719-19.294-8.784-28.94-11.545-22.514-6.445-56.587-5.953-76.054,8.544,8.618.698,17.109-3.12,25.516-3.974,11.873-1.205,41.53.881,51.755,6.953.983.584,1.081,2.475,2.373,2.912,2.159.729,6.03-1.23,6.344-.887.2.218-.312,2.549.977,3.521,1.597,1.204,11.92,3.638,15.015,5.004,1.751.773,4.281,1.506,5.019,3.471-12.406-1.616-24.746-5.375-37.421-3.887-1.792.21-4.307.517-3.574,2.892,4.611.24,10.841.264,15.258,1.242,4.107.909,7.747,6.439,9.166,1.811,23.207,6.983,46.881,13.118,69.567,21.967,1.124,1.529-8.956,10.147-10.512,11.972-9.345,10.967-22.107,36.664-25.209,50.791-2.077,9.462-3.309,20.782-1.28,30.216-.871.753-14.997-2.465-17.42-3.07-28.794-7.189-86.682-26.244-109.047-44.953-8.054-6.737-23.34-24.39-25.208-34.604-.342-1.871-1.032-6.046-1.282-7.914-5.069-37.831,20.008-62.832,52.586-77.327,9.49-4.222,31.922-8.664,34.137-20.863,1.045-5.755-1.075-24.218.726-27.274,1.313-2.228,8.26-2.113,11.168-2.849.922-.233,3.255.312,2.334-1.626-1.878-3.951-21.866-3.794-26.475-6.513-3.592,2.868,1.583,4.142,2.546,5.408,1.848,2.433-.063,5.802-.109,9.041-.095,6.609,2.939,20.347-.919,25.082-2.471,3.032-25.679,10.858-31.391,13.609-17.647,8.5-33.155,20.474-44.643,36.423-5.325-2.052-12.857-9.319-10.251-15.298.378-.866,8.92-12.604,9.693-13.325,18.719-17.473,39.481-33.637,60.033-49.967,12.502-9.933,12.965-13.788,30.984-15.016,26.667-1.816,50.411,3.716,76.048,5.027,2.411.123,5.634.325,7.937-.045,6.587-1.06,26.901-22.112,6.051-22.029-8.818.035-18.202-.081-26.942.057-1.555.025-15.41,2.544-16.102,2.982-.976.618-1.965,1.772-.469,2.567,8.511,4.525,35.342-1.837,46.018.492-2.547,3.304-7.091,8.585-11.481,9.059-4.301.465-7.407-1.646-11.116-1.976-8.597-.766-15.894.145-24.772-3.224-1.33-.505-10.276-5.39-10.624-5.888-1.33-1.898,8.512-7.121,10.322-8.153,73.805-42.076,150.53-11.136,224.905,12.437,5.079,1.61,39.755,12.704,41.582,11.545Z"/>
  <path class="cls-5" d="M719.006,504.011c.919,1.693,5.181,3.134,6.933,3.55,12.842,3.048,25.82.77,38.687-.443,1.115-.105,3.596-.915,3.366.869-22.183,7.808-43.208,20.085-67.007,22.499,5.739-18.499,13.742-37.392,22.156-54.845,4.969-10.308,4.884-11.373,13.355-18.645,10.054-8.632,22.515-49.117,26.77-63.23,5.035-16.697,10.605-34.766,11.723-52.276.203-3.187.554-15.418-.473-17.506-.215-.436-1.247-1.25-1.505-.983l-37.511,119.979c-26.094-27.174-65.425-32.587-101.514-32.493,4.67-13.704,7.075-29.676,13.305-42.696,5.738-11.993,18.728-21.54,19.214-34.786l-21.495,22.995c2.408-39.148,15.68-93.418,53.614-112.876.998-.512,15.142-4.694,12.371-7.119-22.653-2.188-39.378,15.472-50.41,33.079-8.689,13.868-15.51,30.595-17.595,46.911l-2.074-12.488c1.915-13.966,5.268-27.624,10.334-40.757,2.196-5.692,7.343-13.595,8.735-18.27.399-1.341-.124-1.861-1.465-1.465-8.921,2.635-18.571,29.357-21.018,37.987-5.646,19.912-5.631,39.524-3.512,59.993l-8.979-14.99c-.401,6.777,2.139,13.684,4.507,19.978,1.91,5.076,6.708,12.151,8.017,16.99,2.192,8.103-11.834,34.383-13.278,45.784-.787,6.214.784,12.37.422,17.612-.447,6.459-4.559,25.52-6.355,32.454-3.212,12.402-6.409,9.577-15.645,15.355-3.99,2.496-9.633,10.372-13.699,6.344l-10.973-15.518c7.033,1.461,13.342,6.134,20.598,6.883,2.908.3,8.546,1.243,8.394-2.873-17.421-7.206-33.161-18.154-48.314-29.197-24.953-18.185-47.131-37.393-66.079-61.921-20.593-26.657-36.052-56.39-50.108-86.892-2.61,22.185,11.529,41.44,19.495,60.995l-39.495-24.995c-.35,2.634,3.86,7.512,5.993,10.007,8.125,9.503,20.453,20.42,31.207,26.793,7.221,4.279,15.648,6.236,21.281,12.719,1.481,1.704,5.896,8.166,6.02,10.044.219,3.323-13.132,23.678-15.975,27.953-1.837,2.762-7.932,13.122-9.527,14.465-1.248,1.051-2.24,1.299-3.842,1.069-19.15-23.369-48.302-37.952-77.65-44.066,19.466-39.073,27.099-83.416,52.165-119.803l3.83.321c9.256,11.295,18.633,22.741,28.489,33.507,5.425,5.926,16.302,19.465,23.297,21.703,2.318.742,8.759,1.095,9.115,1.387.46.378,1.343,8.665,4.702,10.796,7.763,4.924,16.884-3.764,22.9-3.765,1.741,0,10.704,4.045,11.301,5.059,1.302,2.213-1.518,7.403-1.807,10.298-.641,6.425,2.273,13.647,4.258,19.756,2.244,6.907,9.497,27.566,14.71,31.29,3.81,2.723,14.674,3.815,19.527,3.45,3.691-.278,10.7-1.449,9.482-6.368-4.019-16.478-16.718-37.636-17.905-54.257-.684-9.567,7.045-8.029,11.396-13.401,2.038-2.517,5.829-14.253,6.698-14.798,8.556-2.219,26.133,4.888,32.92-.584,6.551-5.282,13.43-41.757,14.755-51.246,3.096-22.173,3.376-42.639-2.83-64.329,39.131,5.877,80.746,12.653,112.468,38.022,29.916,23.925,47.166,68.021,59.546,103.454,8.033,22.992,15.333,61.589,27.159,80.841,4.713,7.672,12.971,12.727,12.848,23.13-.308,26.236-30.731,48.335-52.582,57.491l-67.438,6.067Z"/>
  <path class="cls-7" d="M497.004,633.994c-.589-.569,5.254-13.404-7.516.994-14.512,16.362-27.214,43.334-42.449,57.551-5.407,5.046-44.938,27.409-51.817,29.183-6.422,1.656-21.415,3.811-28.036,4.066-1.612.062-2.72.089-3.186-1.778,21.99-.248,38.032-8.142,55.915-19.594,9.451-6.053,22.467-13.39,26.08-24.41l-17.379,10.154c-19.292,15.902-47.5,29.148-73.278,28.456-6.42-.172-13.051-1.85-6.727-8.508,2.171-2.286,21.375-10.711,24.887-11.11,3.195-.364,6.782.443,9.945-.055,4.974-.783,21.823-19.472,24.434-24.566.979-1.91,3.755-10.915,4.26-11.241,1.156-.748,5.132.217,6.859-.14l-5.993-7.983c3.434-.815,8.517-2.974,8.993-7.002-2.084-2.833-15.903,2.279-18.978,3.507-13.219,5.278-39.629,24.073-52.441,22.428-14.2-1.822-2.085-11.535,3.755-15.114,14.894-9.128,37.921-16.51,49.197-29.804,3.212-3.786,5.022-8.118,8.943-12.057,17.096-17.17,36.975-20.186,60.537-17.396,1.546-2.104,1.87-4.246,4.029-6.038,5.13-4.258,19.819-10.576,26.879-15.121,17.973-11.57,30.938-23.209,45.557-38.448,20.271-21.131,42.044-45.206,66.591-62.403,4.03-2.824,16.135-6.218,9.939-11.07,3.369-.714.77-3.904,1.09-7.848.305-3.764,6.326-35.149,7.848-36.205,22.742-3.911,46.709.31,67.733,9.386,3.58,1.546,18.861,9.11,20.391,11.604,2.501,4.077-3.908,16.555-5.89,21.243-5.23,12.367-12.269,23.765-18.052,35.948-5.951,12.536-10.245,29.132-18.686,40.314-5.326,7.056-36.357,24.683-45.764,30.236-43.487,25.667-89.783,46.66-137.668,62.822Z"/>
  <path class="cls-4" d="M283.01,618c-1.061-1.05,3.107-4.706,3.979-5.511,40.717-37.594,88.118-50.065,122.032-100.968,12.9-19.362,25.615-39.131,38.395-58.605,1.125-1.715,4.223-8.604,4.618-8.914s5.525,1.934,9.92.447c9.562-3.237,25.262-39.281,31.546-48.43,9.21,10.134,18.069,20.553,28.486,29.495,11.76,10.095,29.783,20.115,39.527,31.473,8.364,9.749,12.383,23.55,20.359,33.697-22.267,24.708-43.463,51.458-70.557,71.13-9.759,7.086-39.183,26.717-49.9,28.1-10.309,1.331-20.315-.322-30.689,3.311-15.935,5.58-21.732,16.501-32.211,27.789-10.994,11.843-25.86,18.249-39.504,26.557-1.395.698-2.613.385-4.021,0-4.459-1.218-13.391-7.855-19.002-10.058-5.44-2.136-11.123-2.727-16.662-5.338-11.416-5.38-22.273-18.171-36.316-14.175Z"/>
  <path class="cls-2" d="M834.981,470.008c.265.224,3.243,5.294,3.54,5.975,1.468,3.372,3.306,16.073,7.979,16.055,2.176-.008,3.296-3.501,4.508-2.554,4.747,3.708,8.672,35.959,9.034,42.976,2.912,56.373-16.33,86.293-40.563,133.52-8.404,16.378-16.431,37.436-27.065,51.935-6.488,8.847-8.191,11.936-19.905,9.062-1.168-.287-1.82.761-1.498-1.46,6.094-10.915,14.123-22.351,19.492-33.513,3.007-6.253,5.218-14.092,8.321-20.679,3.353-7.118,26.617-52.409,23.171-56.319-5.445.379-2.728,7.242-8.061,7.629-13.315,27.908-26.368,56.008-40.075,83.725-1.384,2.798-7.961,17.007-9.534,17.523l-66.335-12.372c-4.589-2.087-37.369-12.768-38.555-14.451-2.442-3.462,3.041-4.559,3.488-5.193.17-.242-.959-3.591-.535-5.896,1.245-6.763,7.232-21.971,9.862-29.22,4.465-12.304,22.035-56.023,32.19-61.81,9.971-2.41,19.43-6.471,29.526-8.474,24.316-4.824,48.434-3.166,73.029-2.471,1.652-1.425-4.799-4.435-5.775-4.715-23.291-6.683-73.402-7.084-94.913,4.527-3.403,1.837-5.801,5.985-10.302,5.188-1.628-1.637,8.21-28.591,10.969-31.522,4.098-4.353,25.195-7.033,32.031-8.969,12.759-3.614,25-8.919,37.918-12.082,9.026-5.376-4.233-21.62-2.921-23.415.102-.139,2.87-.765,3.364-.721,2.783.248,2.579,2.482,2.77,2.555,1.331.51,2.187-3.225,4.477,2.885,1.318,3.518,1.235,1.89,2.277,3.852,1.637,3.081,1.152,7.495,5.585,7.504,4.155.009,26.472-13.058,30.855-16.252,1.971-1.437,15.214-12.531,15.544-13.506.925-2.73-2.297-10.314-4.028-12.672-2.184-2.975-6.676-3.58-6.92-6.178-.084-.895,3.92-7.507,4.851-9.194.49-.886.614-2.612,2.203-1.273Z"/>
  <path class="cls-7" d="M267.746,611.267c2.209,2.158,4.662,13.226,6.214,14.273,1.904,1.285,12.129.131,15.528.472,12.192,1.22,18.143,10.479,27.83,15.17,6.458,3.127,14.92,4.465,21.664,7.336,1.504.64,10.844,4.693,9.533,6.49-5.337,3.172-10.181,4.839-11.28,11.737-2.251,14.125,15.628,14.847,15.74,16.75-3.532,6.442-5.472,13.402-9.17,19.812-9.817,17.017-36.793,44.077-57.465,44.618-4.068.106-7.736-3.508-10.378-.461-3.551,4.096,11.831,5.53,14.537,5.532,9.639.009,21.598-5.106,29.411-10.584,8.016-5.62,13.764-13.989,21.629-19.444,8.909,1.349,18.369,8.786,27.071,8.924,5.305.084,11.988-2.469,17.389-2.881-1.041,1.862-2.919,3.565-4.53,4.96-14.144,12.248-31.489,23.084-45.482,35.518-8.587,7.63-15.09,17.611-23.624,25.318-3.468-2.116-20.569-3.432-22.145-5.024-.463-.468-1.388-5.595-2.766-7.734-3.932-6.101-13.139-12.925-20.458-14.066,2.838-7.561.956-21.282-8.549-22.937-5.599-.975,1.379,6.244,2.245,8.756,3.939,11.424-9.953,25.443-19.705,29.685-17.016,7.401-41.774,5.412-37.931-18.93.113-.717,2.509-7.443,2.89-8.111,2.654-4.654,15.358-10.237,16.401-12.693,1.145-2.697-2.066-16.082-3.912-18.685-2.083-2.938-10.882-5.079-14.751-7.249-6.342-3.558-14.233-12.049-20.962-14.038-4.684-1.384-8.499-.269-12.98-1.02-9.623-1.612-19.508-14.636-15.637-24.162.557-1.371,4.525-6.564,5.397-6.562.321,0,2.813,3.199,5.208,3.751,4.884,1.126,11.769-.707,14.836-4.74,3.429-4.508.21-8.06,8.199-7.829,4.288.124,4.156,17.624,11.25,17.778.708-6.914-2.317-14.427-.785-21.284,1.48-6.626,12.875-11.63,11.28-18.721l-5.467,2.522,1.987-11.512c13.201,7.528,29.569.492,40.722-7.769,4.402-3.261,15.682-18.174,21.015-12.965Z"/>
  <path class="cls-7" d="M578.016,185.001c.893-.612,14.789,12.509,15.539,14.945,3.819,12.396-10.007,48.895-15.696,61.413-5.475,12.046-12.142,21.293-18.683,32.317-4.359,7.347-7.325,16.666-13.673,23.307l-11.503-8.973c4.771-1.007,10.432,3.076,13.231-2.284,5.409-18.573,15.553-38.429,20.052-56.944,3.633-14.952,3.006-30.751-8.787-41.778-.881,5.844,3.674,10.997,4.42,16.58,1.55,11.599-3.401,21.589-8.036,31.794-9.741,21.444-22.958,43.495-45.203,53.797-22.274,10.316-21.685.504-33.164-13.189-3.108-3.708-7.9-8.072-11.499-11.501-1.876-1.788-13.812-11.105-14.008-12.006-.5-2.296,10.733-7.442,12.927-9.046,1.28-.935,9.737-8.225,10.119-8.877,4.075-6.954-7.257-14.199-9.048-12.551l3.932,7.903c-5.064,3.147-11.127,5.021-16.194,8.071-2.392,1.44-1.384,4.14-7.253,4.116-7.925-.032-4.788-8.225-5.505-13.58-1.918-14.333-5.644-31.307-17.499-40.506-2.704-1.118-.298,3.906-3.122,4.857-1.165.392-13.717.488-14.261.028-.788-.667-1.004-8.596-2.122-10.347,11.814-2.974,24.257-3.775,36.029-7.035,24.61-6.816,45.36-22.292,59.483-43.403,5.805,2.436,20.752,22.287,25.161,22.684,1.207.109,6.903-2.782,7.888-3.748,4.093-4.015,1.863-13.977,2.541-19.46,1.229-9.949,10.112-22.52,21.662-17.826,1.592.647,8.504,7.619,9.691,9.308,7.111,10.115,8.708,30.788,2.77,41.642-2.078,3.799-13.836,12.599-13.209,15.773.421,2.129,7.737,1.739,9.449,1.461,6.122-.995,10.932-11.747,13.57-16.939Z"/>
  <path class="cls-5" d="M360.005,208.995c-.844-.823,4.679-7.684,5.599-8.891,9.357-12.28,25.123-32.45,38.379-39.621,22.561-12.207,51.488-11.842,76.202-16.798,3.53-.708,7.893-.953,10.811-3.189-.942-1.034-3.126-1.371-4.488-1.503-11.872-1.152-29.758,1.384-41.842,3.174-17.733,2.627-34.201,6.796-50.655,13.835l-3.086-29.514c2.465-50.446,85.687-88.843,126.599-66.51,8.839,4.825,20.044,16.666,26.449,24.551,2.47,3.041,13.839,17.475,12.58,20.446-1.35,3.184-43.978,23.984-51.467,29.613-12.546,9.431-21.21,24.132-33.074,33.926-28.195,23.276-68.268,21.195-100.98,35.02-3.812,1.611-7.171,4.049-11.027,5.462Z"/>
  <path class="cls-2" d="M673.99,612c-13.661-6.63-27.067-14.498-41.983-17.996.046,1.718-.305,3.648.187,5.304.789,2.652,30.718,18.764,35.715,22.284,1.2.845,4.497,2.2,4.088,3.896-.713,2.962-47.977,22.186-54.462,24.547-6.527,2.376-20.098,3.771-24.056,9.946-2.701,4.215,8.613,1.954,10.573,1.569,18.128-3.565,34.818-13.288,52.948-16.539-2.515,4.069-6.26,8.461-9.486,12.004-7.481,8.215-26.581,28.917-37.725,28.732-13.964-.232-34.69-8.194-49.579-10.455-14.791-2.246-28.484-2.611-43.22.199-9.572,1.825-36.703,12.486-44.036,10.066-7.896-2.606,1.252-10.246,3.455-13.647,5.546-8.559,9.868-18.649,17.24-25.76,13.037-4.341,26.784-7.545,38.871-14.156.921,3.92,1.508.56,4.229-.743,29.947-14.339,60.767-26.293,90.272-41.728,3.311-1.732,13.512-8.764,15.724-9.336,4.245-1.098,3.517,2.083,5.324,3.245,3.813,2.45,5.052,2.102,8.955,6.045,2.335,2.36,18.58,20.574,16.966,22.524Z"/>
  <path class="cls-3" d="M163.99,733c-3.49-11.874-12.405-22.079-11.98-34.999,2.133,1.354,2.964,3.742,4.97,5.519,8.482,7.517,16.472,3.827,25.704,7.296,7.027,2.64,11.927,9.851,18.635,13.365,2.879,1.508,12.066,3.511,12.502,4.002,1.067,1.2,1.618,10.895.682,12.826-.559,1.153-8.877,5.687-11.476,8.52-2.632,2.868-8.586,13.549-9.027,17.056-.759,6.031,4.507,18.643,8.964,22.951,13.933,13.47,43.39,7.194,55.692-5.875,3.69-3.921,3.687-10.516,10.287-8.096,9.124,3.345,14.348,11.861,17.598,20.45-40.464,34.816-104.193,36.443-140.053-6.002-16.711-19.779-29.569-55.283-21.789-80.812,1.025-3.364,4.359-7.612,4.359-10.7,0-3.212-2.694-5.685-3.55-8.508-6.068-19.992,4.311-44.889,22.482-54.992-1.252,10.884-7.333,22.034-4.781,33.291.71,3.134,4.44,4.771,4.782,8.294.387,3.979-2.452,9.912-2.886,14.019-1.507,14.274,6.122,34.856,18.885,42.395Z"/>
  <path class="cls-5" d="M560.5,394c-2.837-.499-4.789-2.537-6.007-4.993-3.031-6.116-12.704-34.506-12.412-40.346.908-18.168,31.581-56.814,40.776-75.303,10.314-20.738,25.014-62.481,16.917-84.632-2.876-7.868-7.976-11.821-14.77-16.23,6.858-2.241,12.638,2.537,17.886,6.114,14.98,10.208,18.883,16.659,21.098,34.902,3.007,24.771-1.696,56.922-9.275,80.702-1.406,4.41-1.794,9.135-7.163,9.838-7.588.993-25.12-3.153-30.554-.555-2.791,1.335-5.234,13.484-8.553,17.447-1.822,2.175-25.508,18.091-21.438,22.051,5.026.944,7.581-4.058,11.99-4.99,1.241,19.897,12.257,37.256,17.005,55.995-4.724-.572-11.025.786-15.5,0Z"/>
  <path class="cls-2" d="M845,693.5c-.174-.608-1.591-1.706-2.486-1.496-2.049.48-5.707,21.997-7.033,25.976-1.034,3.102-8.528,19.561-10.497,20.577-4.009.241-29.398-5.456-29.987-8.078,2.923-4.366,6.727-7.862,9.819-12.164,14.869-20.688,22.85-45.43,35.783-67.247,7.114-1.679,18.751,27.438,19.407,33.426.869,7.932-.975,28.034-5.153,34.858-1.518,2.479-3.434,2.726-4.791,4.209-1.028,1.122-1.084,2.817-2.119,3.881-2.497,2.567-7.387,3.718-10.245,5.549-.938.6-.164,2.376-1.689,2.002.248-5.64,8.992-18.084,8.992-22.493,0-4.189.846-16.045,0-19Z"/>
  <path class="cls-2" d="M700.007,556.023c.231.209-.116,5.911-.187,6.214-.388,1.657-3.096,4.07-3.993,6.089-3.118,7.017-5.692,15.115-7.383,22.618-.514,2.279.265,8.446-2.828,7.968-.802-.124-6.516-4.86-7.173-5.855-2.29-3.471-1.747-15.712-1.484-20.598.204-3.786.76-14.166,3.056-15.944,2.662-2.062,18.143-2.165,19.992-.492Z"/>
  <path class="cls-7" d="M190,590.01c-7.34,11.625-11.89,24.356-14.707,37.783-1.581,7.533-5.388,25.468-2.529,31.948.721,1.633,3.34,3.041,3.107,4.572-.444,2.914-4.66,6.554-8.155,5.511-9.204-2.746-2.959-16.934-1.97-22.578,3.112-17.766,7.543-34.25,17.085-49.915.736-1.209,5.398-8.987,7.169-7.321Z"/>
  <path class="cls-2" d="M673.995,561.005c-3.1,9.083-2.27,19.456-4.49,28.99-1.731-2.549-18.131-14.796-16.503-16.981,3.598.093,19.108-13.877,20.993-12.009Z"/>
  <path class="cls-2" d="M751.003,817.016c-1.474,3.288-3.128,9.026-7.466,9.049-2.573.014-21.51-6.974-21.517-8.565,4.13-1.189,3.779-7.43,6.415-7.491,5.067-.117,16.761,6.387,22.568,7.006Z"/>
  <path class="cls-4" d="M403.996,661.006c.535.51-4.494,13.481-5.116,13.88-1.277.818-4.573-.894-6.393-.899-8.475-.022-15.903,11.063-21.389,12.55-2.73.74-3.532-2.579-5.079-4.04,2.286-2.727,6.125-2.452,8.906-4.073,6.364-3.711,12.174-9.772,19.404-13.596,1.445-.764,8.639-4.803,9.667-3.822Z"/>
  <path class="cls-7" d="M150.004,669.003c-1.105-10.768,2.912-19.99,5.548-29.951,1.572-5.94-.519-12.201,7.438-14.052.175,10.486-4.294,20.361-5.869,30.621-.91,5.93,2.275,13.679-7.117,13.382Z"/>
  <path class="cls-5" d="M539.988,329.998c-6.587-4.401-11.791-9.249-20.427-7.934-1.685.257-15.747,7.095-14.557,1.45.483-2.289,19.566-9.566,22.375-9.248,1.166.132,12.743,8.885,13.167,9.734,1.105,2.211-.198,3.837-.558,5.998Z"/>
  <path class="cls-7" d="M429.867,229.13c1.094.71,4.955,22.886,4.127,23.865-2.174.509-2.217-1.219-3.208-2.282-3.37-3.615-10.178-15.492-10.767-20.25-.25-2.023.042-1.276,1.453-1.465,1.305-.174,7.82-.241,8.395.132Z"/>
  <path class="cls-1" d="M435.996,709.992c.351.358-.369,3.663.003,4.012.314.296,2.66-.458,3.779.2.536.315.788,2.137,1.661,2.815,1.995,1.551,5.149,1.289,4.556,3.975-10.672-2.671-21.308.596-31.99.994l10.317-7.168c2.278-1.233,5.164-1.474,7.436-2.532.94-.438,2.507-4.067,4.239-2.298Z"/>
  <path class="cls-1" d="M688,548.99c2.604-5.934,17.397,1.158,18.867-3.631,1.234-4.022-1.87-5.106,4.643-7.317,10.608,16.646-14.045,11.602-23.51,10.948Z"/>
  <path class="cls-2" d="M782.995,773.995c-1.594,1.555-16.568-2.955-19.269-4.221-1.715-.803-4.073-1.201-3.721-3.769,2.425-.083,4.82-.1,7.24.251,1.998.29,19.518,4.062,15.75,7.739Z"/>
  <path class="cls-1" d="M444.994,705.019c.173-.222,3.222-.94,5.03-2.499,4.831-4.167,7.756-10.672,12.966-14.52.785,4.701-12.386,22.216-15.497,21.977-.932-.609-2.669-4.739-2.499-4.958Z"/>
  <path class="cls-2" d="M807,746.99c-7.705.325-14.367-4.459-21.945-5.049-1.868-6.225,4.332-3.439,8.512-2.016,1.676.571,2.94,2.546,3.886,2.672,3.998.532,6.458-1.833,9.547,4.393Z"/>
  <path class="cls-7" d="M355.005,698.995c1.359-3.424,2.583-14.078,7.017-11.52,6.228,3.593-1.935,11.518-7.017,11.52Z"/>
  <path class="cls-7" d="M389.995,683.005c-2.406,6.075-9.329,10.999-15.995,9.985,1.516-1.742,15.108-10.839,15.995-9.985Z"/>
  <path class="cls-2" d="M1024,796c.209,15.644-.04,31.353,0,47-45.024-12.692-88.982-29.233-134.991-38.509-4.737-8.982-6.918-19.089-12.168-27.832-1.362-2.268-4.278-3.35-3.852-6.658-.285-.297-2.27,1.459-2.524,2.035-1.311,2.971,7.385,20.146,7.525,24.964-11.373-10.488-25.366-18.711-40.228-23.262-2.584-.791-12.436-3.738-14.262-3.738h-26c-3.2,3.101-3.424,2.874-.5-.5,5.581-6.44,16.793-18.6,25.505-18.588,25.103.033,66.481,11.546,91.551,17.532,36.742,8.774,73.073,19.308,109.944,27.556Z"/>
  <path class="cls-7" d="M293.005,595.995c-1.091-1.151,8.025-13.573,5.985-16.995-4.705,2.148-5.646,5.866-9.98,1,1.081,6.695-5.62,28.562-12.017,30.523-3.304-.719-4.415-6.352-7.699-7.314-11.58-3.393-16.702,8.569-25.628,13.956-6.736,4.065-21.51,12.361-29.027,11.746-11.411-.934-12.545-12.215-4.129-17.892-.358,10.235,8.169,10.75,16.485,9.969l-11.514-5.968c-.997-1.114-3.13-3.401-2.06-5.042,2.129-3.266,27.478-12.753,33.509-17.549,3.636-2.891,8.084-8.097,7.073-12.928-.06-.943-1.716-.603-2.356-.356-2.545.983-9.623,8.335-13.346,10.655-5.458,3.4-11.869,5.729-17.79,8.21-1.758.016,1.485-13.11-2.501-14.011.509,13.593-15.689,19.779-19.076,30.434-3.644,11.468,1.192,22.097-4.063,33.937-4.974,11.204-18.381,15.987-16.859-1.867,1.181-13.852,15.255-53.176,24.478-63.514,4.71-5.28,10.995-6.609,17.685-8.315,15.758-4.018,29.887-3.625,45.23-5.77,1.363-.191,7.824-1.983,5.054-3.919l-3.458-1c-1.237-1.727,20.182-31.37,22.804-35.681,14.466-23.784,25.482-50.685,44.681-71.319,6.108-6.565,13.61-11.716,19.541-18.459,10.907-12.401,17.292-28.467,26.176-42.311,2.603-.65,5.265-.269,7.851.236,11.346,2.214,49.006,24.229,57.446,32.541.808.795,2.236,2.429,2.17,3.503-.051.83-7.173,12.809-8.23,14.444-8.41,13.011-17.457,25.967-26.024,38.976-21.003,31.891-42.003,57.571-74.502,78.498l-45.908,31.581Z"/>
  <path class="cls-6" d="M818.01,862c-.305-5.092,2.999-10.573,5.471-15.019,6.545-11.771,16.553-22.614,29.031-27.959l-34.502,42.978Z"/>
  <path class="cls-6" d="M602.354,837.397c-.454.337-.272,1.51-.371,1.585-2.86,2.158-2.186-3.509.496-6.002,26.131-15.037,46.175-39.43,70.61-56.39,19.608-13.611,40.364-24.639,62.917-32.082.57-.188,6.257-4.506,5.974-1.006-.128,1.585-24.271,12.553-28.109,14.871-28.642,17.3-53.463,40.026-80.556,59.444-9.839,7.052-21.606,12.637-30.961,19.582Z"/>
  <path class="cls-6" d="M674,835.01c-.852,1.606-1.491,3.444-2.561,4.929-13.128,18.225-53.57,48.951-76.443,49.588-1.536.043-2.509-.016-3.989-.54.56-1.525,3.514-2.698,4.978-3.503,27.313-15.036,44.598-26.505,69.076-45.95,2.763-2.195,2.628-5.901,8.939-4.524Z"/>
  <path class="cls-4" d="M629.974,368.957l-9.973,2.055c3.96,10.529,10.774,16.881-5.653,17.919-7.65.483-4.915-12.809-8.302-15.516-2.374-1.897-10.733,8.506-13.599-7.368-1.461-8.094,3.133-5.791,9.553-7.052.6-.591-6.579-13.375-4.585-16.047,3.02-.972,9.719-2.969,12.178-1.038,2.48,1.947,3.537,12.444,5.348,13.663,1.35.908,8.366-3.293,10.558-.575.921,1.142,5.001,13.204,4.473,13.959Z"/>
  <path class="cls-6" d="M807,445.01c-.282,1.261-1.644,2.142-2.663,2.827-9.871,6.628-39.784,4.583-49.272-2.4-1.136-.836-2.575-2.08-3.064-3.426,2.539.606,5.361-1.135,7.555-1.068,2.141.066,3.233,1.65,5.048,1.959,14.016,2.387,28.212,2.221,42.397,2.109Z"/>
  <path class="cls-6" d="M640,536.99l36.99-38.99c-1.14,19.559-17.779,36.303-36.99,38.99Z"/>
  <path class="cls-6" d="M349.005,669.995l8.015-5.474,7.969-9.516c1.931,12.961-3.905,16.156-15.985,14.99Z"/>
  <path class="cls-6" d="M809.993,563.997c-.18.211-4.029-1.006-5.441-1.05-11.264-.343-23.889-.261-35.036,1.068-18.816,2.243-36.448,10.557-55.51,10.974-.184-1.977,2.402-.397,3.791-1.198.496-.286.824-2.139,1.631-2.822,11.532-9.761,55.656-15.943,71.063-14.959,3.678.235,13.649,1.274,16.799,2.201,2.17.639,3.706,4.611,2.704,5.786Z"/>
  <path class="cls-6" d="M837.01,590.995c-2.151-1.576-1.717-17.791-2.249-21.255-2.307-15.015-15.077-24.21-11.111-42.589.69-3.199,3.862-10.983,6.346-4.646,1.799,4.59,2.054,13.075,3.494,18.506,3.8,14.33,12.114,27.472,8.257,43.236-.308,1.258-2.414,8.45-4.737,6.748Z"/>
  <path class="cls-6" d="M316.937,648.074c-3.693,12.412-15.218,37.566-26.121,14.61-3.754-7.904-3.802-16.443-2.721-25.089,1.269-10.152,11.317-5.309,16.431-.621,4.078,3.738,6.364,9.96,12.412,11.1Z"/>
  <path class="cls-6" d="M228.763,754.24c1.671,1.672.612,4.924,1.73,6.753,4.285-1.52,14.535-15.448,13.555-2.498-.689,9.093-21.941,14.931-22.543,3.509-14.249,10.961-3.832,20.488,10.228,14.229.458-.204,10.414-7.841,8.259-2.747-5.063,11.97-37.449,13.931-30.446-6.445,1.604-4.666,13.561-18.464,19.217-12.802Z"/>
  <path class="cls-6" d="M250,638.01c16.017,5.215,7.972-9.135,14.5-16.99,2.162-.101,2.737,16.256,2.285,18.267-1.88,8.366-15.341,7.148-16.785-1.277Z"/>
  <path class="cls-6" d="M229.995,652.005c2.648,2.71-8.018,24.132-14.99,21.99,2.641-8.141,5.608-19.808,14.99-21.99Z"/>
  <path class="cls-6" d="M312.005,673.995c-1.302-1.238,9.219-18.331,10.754-20.71.721-1.117.472-2.241,2.733-1.276,7.055,3.01-9.103,26.155-13.487,21.986Z"/>
  <path class="cls-6" d="M387.99,468c-7.383-5.592-12.153-15.943-13.501-24.979,7.446,5.481,13.539,15.406,13.501,24.979Z"/>
  <path class="cls-6" d="M489.001,186.01c2.387,2.87-9.038,7.587-11.315,9.176-3.901,2.723-7.475,5.799-10.681,9.319,6.754.474,12.642-4.153,19.99-2.5l-6.523,6.966c-7.454,5.684-14.365,11.438-24.472,10.018l3.512-5.968c-4.383,1.817-19.837,5.411-23.091,3.049-2.153-1.563-5.891-12.382-4.416-14.066,2.806-.849,3.474,3.745,4.696,4.041,6.999,1.69,30.754-20.081,42.803-21.062,1.506-.122,9.046.484,9.497,1.026Z"/>
  <path class="cls-6" d="M566.99,155c-4.556-4.887-9.359-11.07-16.346-5.853-9.963,7.44,3.339,6.725,7.321,9.388,5.459,3.651,5.858,17.135.016,19.946-7.308,3.517-1.198-5.747-4.101-10.869-3.297-5.819-10.291-1.016-11.657-7.336-.994-4.596-.475-12.506,1.928-16.625,6.835-11.719,23.867.91,22.839,11.349Z"/>
  <path class="cls-6" d="M502.001,267.992c-.447.451-10.333,2.492-12.283,3.226-8.541,3.215-16.585,9.431-25.713,9.777-3.666-3.572,12.867-8.213,15.205-9.285,7.17-3.289,10.876-8.454,20.286-6.699,1.556.29,3.534,1.94,2.505,2.98Z"/>
  <path class="cls-6" d="M497,282.01c-3.962,7.146-16.001,10.012-21.995,4.485,6.808-3.227,14.432-4.971,21.995-4.485Z"/>
  <path class="cls-6" d="M495.99,137c-8.344-9.19-10.563-22.127-16.821-32.669-7.133-12.016-20.545-24.541-33.166-30.343.735-2.94,5.633-1.2,8.019-.503,20.865,6.093,42.383,42.039,41.969,63.515Z"/>
  <path class="cls-6" d="M135.995,671.005c-2.118,10.916,7.553,18.329,5.995,28.99l-6.54-9.944c-3.159-1.656-3.389-23.549.545-19.046Z"/>
  <path class="cls-6" d="M551.723,349.204c6.995-1.548,11.699,5.177,6.836,10.862-8.418,9.84-17.695-8.459-6.836-10.862Z"/>
</svg>