<?xml version="1.0" encoding="UTF-8"?>
<svg id="Layer_1" data-name="Layer 1" xmlns="http://www.w3.org/2000/svg" viewBox="0 0 1024 1024">
  <defs>
    <style>
      .cls-1 {
        fill: #1471a1;
      }

      .cls-2 {
        fill: #083045;
      }

      .cls-3 {
        fill: #0f0907;
      }

      .cls-4 {
        fill: #fff;
      }

      .cls-5 {
        fill: #d82827;
      }

      .cls-6 {
        fill: #934f22;
      }

      .cls-7 {
        fill: #eeb274;
      }
    </style>
  </defs>
  <path class="cls-4" d="M0,436V0h1024v1024H0v-63l4.709-1.3c28.404,2.377,57.099,3.557,85.689,3.566,35.665.011,71.982-.417,106.68-8.909,21.965-6.626,42.312-12.368,65.483-12.563,35.387,4.625,66.556-.999,99.98-12.254l61.733-12.129c45.395-7.484,86.213-25.758,119.535-56.766,9.067-6.939,20.886-10.779,32.341-11.854,45.028-4.228,88.645-1.45,133.717,2.064,62.879,2.653,137.455,3.515,198.552-10.299,52.825-11.944-13.327-21.272-30.013-22.397-4.372-1.902-3.873-5.44,1.499-10.614,39.082-32.844,40.442-85.631,37.054-132.932,6.986-28.998,5.602-58.446-8.922-85.698-17.017-31.933-52.87-45.944-56.745-.853l-1.751,2.388c-4.9-.647-9.602-2.373-14.108-5.179-14.729-10.001-30.251-17.684-46.567-23.048-17.66.894-22.779-4.783-33.244-16.814l-18.914-24.195c-10.954-13.442-25.841-3.298-35.514,6.705-3.594,2.762-18.184-8.572-18.837-10.987,8.77-14.858,1.191-22.771-9.821-33.196l-.36-3.058c4.945-12.643-3.856-17.888-14.131-22.138-2.304-1.263-4.092-3.088-5.044-5.596-3.11-13.464-10.323-19.29-23.907-21.581-2.852-2.184-1.37-28.038-.498-32.918,7.577-7.223,14.8-14.688,21.669-22.394,5.91-.429,11.832-.443,17.765-.043,3.539-2.732,7.182-4.88,10.928-6.441,5.277,6.018,10.391,12.213,15.341,18.584,51.908,44.557,22.347-38.284,14.148-58.337-1.767-5.527-2.419-10.459,1.472-15.308,23.15-34.47,43.413-75.471,23.729-117.08-25.823-54.586-94.866-94.224-155.162-85.637-33.185,4.726-57.811,28.252-77.734,53.599-8.346-.442-16.797-1.938-25.35-4.488-9.456,1.445-18.904,2.366-28.346,2.761-74.651-24.722-161.216-45.34-236.271-8.808-51.267,24.954-88.417,70.638-117.01,118.959l-46.255,81.819c-10.068,13.737-19.262,27.822-27.583,42.256-2.752,14.063-7.917,25.966-17.072,37.319l-2.866.798Z"/>
  <path class="cls-1" d="M0,610l4.054-1.927c41.092-7.007,82.482-13.789,123.894-19.187,77.455-10.097,159.195-17.056,236.111-.194,14.451,3.168,34.367,7.871,47.404,14.211,7.122,3.463,3.616,6.71-1.632,8.809l-23.171,2.131c-12.323,1.99-14.901,3.331-2.22,8.96,20.165,8.95,45.517,18.18,67.201,18.918-16.314-4.823-32.987-9.592-50.018-14.306-7.117-2.321-28.073-9.583-14.383-13.053,10.252-2.598,35.179-1.565,46.529-.451,56.148,5.512,113.228,59.174,142.486,105.046,9.732,15.258,30.413,54.199,19.265,71.34-2.791,4.292-15.013,12.632-19.771,13.576-3.704.735-4.551.635-5.245-3.561-5.579-54.724-52.442-89.857-97.927-111.618-4.506-1.852-5.354-4.647-2.621-8.695l10.587-14.355c2.76-4.147,7.497-12.261,5.374-17.272-1.736-4.097-28.538-22.962-31.843-22.177-.311.074,1.564,3.224,2.164,3.714,6.099,6.655,20.937,23.012,19.086,32.375-5.335,7.454-10.412,14.978-15.232,22.574l.19,2.273c40.5,21.577,91.454,48.949,101.869,99.03,1.707,8.207,3.615,23.217-.195,30.298-28.027,38.751-55.678,76.442-106.279,85.829-37.348,8.279-74.857,15.564-112.527,21.854-.042-20.804-.811-39.913-7.051-60.042-9.536-30.759-28.151-58.384-54.577-75.531l-.684-3.274c21.996-10.611,44.427-20.312,67.294-29.102,18.303-4.496,36.772-8.184,55.405-11.065,5.757-4.144-53.267,4.439-52.091,4.673-2.235-1.463-2.935-2.108-1.334-4.444,5.708-8.328,35.432-18.819,45.954-21.284,56.669-13.279,138.598,8.154,144.084,75.723l1.4,24.509c12.847-77.451-70.777-119.811-138.587-107.634-29.181,5.241-55.665,19.435-78.129,38.53-2.199,1.672-3.575.946-4.844-1.237-1.42-2.443,20.612-31.342,26.818-33.908l24.16-17.473c-30.783,8.723-49.452,34.708-62.937,61.073-5.302,4.858-11.674,8.483-19.114,10.875-30.61,10.232-59.647,23.978-88.377,39.747-23.702,12.162-49.035,19.877-75.732,21.305-39.373,1.148-78.419,6.495-117.231,14.236-2.572.159-5.098-.118-7.58-.818v-239Z"/>
  <path class="cls-3" d="M0,436c4.21-6.919,10.184-13.751,13.18-21.32,3.281-8.287,2.988-16.051,7.982-24.018,8.38-13.37,18.535-25.472,27.01-39.99,30.675-52.546,52.526-102.461,95.314-147.686,78.472-82.94,167.359-80.679,271.73-51.702,9.666,2.684,25.301,10.072,34.428,10.658,8.154.524,17.13-3.763,26.892-2.978,7.979.642,15.367,5.483,23.259,4.817,21.592-28.225,48.437-52.184,85.715-54.77,50.593-3.509,102.471,22.392,133.462,61.517,34.094,43.043,30.247,78.805,5.199,125.145-2.485,4.598-14.768,22.349-15.141,24.9-.987,6.748,8.816,28.55,11.236,36.661,4.248,14.237,16.622,58.028-13.951,42.951-12.045-5.94-19.839-18.773-27.799-28.991-3.583,1.31-6.255,6.06-10.065,6.759-4.618.847-15.774-1.712-18.167.345-1.087.934-2.57,4.419-4.262,6.225-2.977,3.176-15.032,12.54-15.817,15.182-.553,1.862-1.09,29.054-.106,30.199,9.179,1.734,16.429,3.759,21.074,12.423,1.713,3.195,3.071,10.056,5.135,12.369,3.512,3.935,12.177,4.789,16.53,10.966,6.156,8.734.046,12.515,1.554,17.368.659,2.122,6.536,5.983,8.583,8.494,4.537,5.566,6.156,10.444,4.792,17.745-.468,2.505-3.754,6.838-3.719,7.244.072.858,13.189,9.751,14.004,10.029,2.624.895,5.226-3.785,7.478-5.513,27.142-20.817,33.232,1.44,48.497,19.444,3.508,4.138,15.073,17.777,19.526,18.474,4.735.742,10.75.362,15.69,1.31,21.151,4.059,39.715,22.206,59.75,28.744,4.329-16.736,5.365-36.225,28.015-30.509,34.042,8.591,48.99,62.215,45.985,92.999-1.043,10.686-4.782,16.399-3.979,28.996,2.516,39.485,2.059,77.244-21.604,111.422-5.073,7.327-12.234,12.073-17.382,18.618-.688.874-3.815,4.797-3.022,5.469,13.199,1.52,27.26,2.535,39.991,6.509,12.441,3.883,22.538,9.578,4.26,16.252-41.041,14.985-131.431,15.484-176.797,15.285-52.503-.23-111.199-9.676-162.835-3.917-32.444,3.618-34.011,10.819-57.152,28.848-47.723,37.18-104.906,39.66-161.483,52.517-16.66,3.786-36.268,11.498-52.765,13.235-17.718,1.865-38.292-1.754-56.772-.772-25.726,1.367-46.088,11.275-70.431,15.569-41.503,7.321-98.21,6.236-140.532,4.488-14.199-.586-28.465-.617-42.49-3.01v-11c2.56-2.125,5.777-2.836,9.651-2.133,39.639,5.087,78.538,5.218,118.525,1.008,31.714,1.726,59.867-1.981,88.988-14.621l12.862-3.622c22.149-1.695,44.744-4.887,66.617-10.73,1.33-.355,1.496-7.845,1.528-9.322.715-33.112-18.736-66.629-41.348-90.008-4.968-5.137-13.345-12.239-20.707-8.521-21.448,7.875-42.747,16.703-63.897,26.484l16.556,3.481c10.27,1.183,12.107,9.947-.132,9.257-59.492-10.929-121.026-2.455-180.621,8.517-2.715.172-5.389-.095-8.022-.79v-10c24.192-3.7,48.292-9.037,72.628-11.872,27.075-3.154,55.808-1.769,82.189-7.811,34.202-7.833,62.336-27.258,93.506-41.494,13.884-6.341,47.025-15.895,57.044-23.956,1.628-1.31,11.625-20.71,14.818-25.182,13.492-18.897,33.425-35.385,56.81-39.68.028,2.53-3.31,4.011-5.105,5.385-21.494,16.458-30.171,17.966-46.117,42.883-.791,1.236-4.566,6.774-3.763,7.727,26.459-22.996,59.771-39.891,95.442-42.048,58.753-3.552,126.285,29.37,127.59,95.506.12,6.107-.23,18.81-5.031,22.542-1.812-21.034.231-42.882-10.591-61.919-13.612-23.944-46.836-40.268-73.211-44.789-35.429-6.073-78.1.552-106.208,23.698l41.458-6.031c3.042-.05,20.65.564,13.934,4.933-17.321,4.057-35.029,4.957-52.156,9.843-24.867,7.095-46.933,20.884-71.233,29.276,3.831,5.091,10.118,7.383,15.01,11.475,4.697,3.93,10.073,10.22,13.96,15.04,24.567,30.461,37.371,71.41,33.031,110.465,46.006-12.293,97.542-13.954,141.354-33.135,36.152-15.828,52.201-46.742,76.097-75.903,6.024-53.962-37.459-89.794-79.783-113.127-4.287-2.363-21.745-9.755-23.169-12.846-3.736-8.115,15.474-20.624,15.244-28.308-.08-2.677-6.251-13.034-8.118-15.803-3.194-4.735-11.37-12.102-13.085-15.914-.426-.947-.963-3.523-.539-3.952,2.943-2.971,34.369,18.91,35.788,23.698,1.966,6.638-1.835,13.082-5.164,18.426-1.962,3.15-13.755,16.49-12.205,18.891.683,1.058,19.07,9.944,22.248,11.808,29.258,17.158,57.67,39.528,71.502,71.498,4.985,11.522,6.654,22.426,8.838,34.671,18.843-9.349,27.356-12.851,22.33-35.839-10.501-48.028-59.281-99.986-99.025-126.975-36.563-24.828-60.874-26.73-104.863-24.23-2.851.162-5.793.514-8.449,1.542,11.434,5.608,24.931,10.27,37.233,13.767,5.307,1.509,32.84,5.95,33.758,10.252.328,1.538-1.173,2.238-2.499,2.477-6.183,1.117-15.52-1.74-21.713-3.275-8.629-2.139-51.67-15.923-55.32-21.703-.542-.858-.624-1.357-.364-2.345,1.615-6.135,29.064-5.495,35.194-6.873,1.318-.296,5.303-2.988,4.703-3.782-24.228-9.429-48.88-16.057-74.664-19.846-113.285-16.647-227.588,7.942-339.334,23.834v-11l.391-2.08,117.972-17.695c-.875-12.258-17.83-17.351-28.158-19.566-19.727-4.23-37.269-4.973-57.378-5.18-22.444-3.548-1.458-11.742,8.839-12.569,24.656-1.981,45.548,2.009,68.872,10.862.15-8.315-.427-16.524-1.733-24.627-16.133-7.149-31.085-16.325-44.856-27.53-7.839,14.809-19.718,30.171-33.829,39.61-3.733,2.497-19.437,12.594-19.047,3.769l27.753-33.065-18.71-1.462c-5.238.074-15.606-3.555-9.115-8.465.21-.784.552-1.946,1.169-2,3.858-.338,30.99-.315,32.366.623.559.381,1.039.853,1.465,1.377-16.715-11.685-32.426-27.582-41.873-46.786-1.624,1.202-3,1.13-4.127-.214v-18Z"/>
  <path class="cls-7" d="M0,950v-91c20.568-3.023,40.992-7.257,61.642-9.858,30.442-3.834,65.386-7.016,95.841-4.125,12.153,1.154,24.869,5.399,37.522,3.979-.149-1.121.587-2.255-.593-3.087-2.683-1.892-20.466-4.555-25.624-6.207-1.047-.335-3.021-.255-2.782-1.69,14.081-2.855,26.327-10.712,39.317-16.188,8.126-3.425,31.643-14.248,39.147-12.808,1.525.293,15.186,11.029,17.042,12.973,17.134,17.949,33.361,47.155,37.196,71.804.804,5.169,3.493,25.848-1.396,28.021-15.089,1.985-29.824,7.393-44.941,9.059-7.191.792-12.941-.147-20.574,1.426-18.597,3.832-42.373,15.691-60.42,17.58-14.102,1.476-30.588.318-44.918,1.082-23.969,1.278-46.644,4.208-71,3.082-18.465-.853-36.872-5.141-55.459-4.041Z"/>
  <path class="cls-2" d="M0,454l5.006-2.516c6.433,13.416,15.709,25.304,26.467,35.543,4.649,4.425,12.198,7.727,14.527,13.973H11c.038,1.33-.323,2.811.465,4.036,2.139,3.327,26.592,3.136,31.545,4.474l-31.01,36.48c9.803-.949,20.898-9.793,28.014-16.476,9.307-8.74,16.394-20.027,23.563-30.492,8.104,4.638,15.076,11.054,23.118,15.783,4.74,2.787,21.201,9.4,23.655,12.099,2.718,2.989,1.241,23.689,2.645,29.091-19.999-7.384-41.859-14.104-63.485-12.986-3.433.177-25.515,2.735-24.505,7.476.921,1.448,1.95,1.392,3.448,1.562,21.985,2.492,39.196-1.073,62.308,5.692,4.807,1.407,20.325,6.733,23.758,9.242,3.389,2.477,5.181,9.99,6.479,14.014L0,599v-145Z"/>
  <path class="cls-3" d="M898,177h48v22h-86v-19.5c13.762-15.253,31.451-27.699,45.026-42.974,4.435-4.991,12.978-14.67,13.884-21.114,4.183-29.775-39.164-27.299-36.915.588-7.813-2.002-16.756-1.462-24.463-3.031-5.149-1.049.59-15.056,2.286-18.65,16.444-34.844,81.493-31.231,85.898,9.457,3.267,30.179-30.383,53.093-47.717,73.224Z"/>
  <path class="cls-3" d="M762,198l29.964-45.494-26.964-41.496c6.125,1.603,20.721-2.796,25.304-.066,3.351,1.996,9.947,19.936,13.616,23.41.942.892,1.206.795,2.53.683l14.049-24.037h24.5c-1.935,9.2-26.97,33.641-27.079,40.483-.123,7.796,27.746,36.333,30.079,46.517h-26l-16.016-29c-1.415-.982-17.774,26.125-17.984,29h-26Z"/>
  <path class="cls-3" d="M151.995,783.995c-2.129,2.129-24.076-8.868-27.666-10.824-27.481-14.969-54.116-40.387-72.143-65.857-6.263-8.849-13.925-19.84-16.175-30.314,26.177,25.732,47.706,55.928,77.675,77.815,10.333,7.546,23.577,13.826,33.231,21.769,2.249,1.85,5.529,4.201,5.079,7.411Z"/>
  <path class="cls-3" d="M200.01,699c22.477,20.669,43.69,42.629,65.464,64.026,2.164,2.126,11.697,7.604,7.103,11.045-3.487,2.612-9.799-2.198-12.891-4.257-14.062-9.361-51.402-51.426-58.379-66.621-.619-1.347-1.511-2.608-1.297-4.193Z"/>
  <path class="cls-3" d="M445.995,631.995c-1.713,1.572-20.295-6.802-16.99-12.989,4.524-3.002,19.179,10.981,16.99,12.989Z"/>
  <path class="cls-5" d="M61,408.5c2.006,14.095,20.365,36.986,31.671,45.329,3.61,2.664,19.79,11.027,20.852,13.17,2.204,4.445-5.308,27.279-3.534,34.001-27.338-14.119-55.581-36.383-71.161-63.328-20.807-35.983-4.894-42.208,12.972-71.371,41.797-68.224,69.408-142.023,138.478-189.522,76.229-52.423,163.149-33.226,245.72-8.768,1.383,1.357-15.033,14.374-16.523,15.965-30.057,32.083-54.293,104.813-62.164,147.836-.996,5.445-3.789,17.743-2.175,22.551,1.04,3.098,24.898,6.06,29.643,7.358,3.314.907,10.15,3.325,12.981,4.98,1.01.591,1.289.041,1.312,1.762.04,3.022-4.633,12.653-6.213,15.896-3.485,7.155-9.754,18.235-14.451,24.549-6.901,9.279-18.236,14.233-24.928,23.072-6.231,8.23.779,9.327,7.523,11.516,5.116,1.66,19.619,5.493,24.254,4.257l51.388-40.635c3.569-1.85,8.405.269,12.364.391.002,2.408-11.581,17.533-13.817,21.183-9.047,14.766-17.113,35.037-31.17,45.83-6.673,5.124-21.936,6.448-30.532,7.468-13.895,1.65-31.142,3.436-45.001,3.999-21.014.855-43.954-4.958-64.496-9.002-.297-.402,2.055-8.508,2.949-9.545,2.604-3.019,6.991-.669,10.105-6.895,7.257-14.505,10.273-43.85,15.235-60.765,8.785-29.945,30.558-46.159,41.482-73.518,15.293-38.301,16.91-96.324-12.756-128.266,1.849,8.553,6.69,15.718,9.255,24.235,9.87,32.782,6.987,74.064-7.407,105.122-1.453,3.135-3.127,7.47-5.847,9.642,5.918-36.448,8.175-76.142-11.588-108.922-10.841-17.982-34.375-38.932-56.94-36.08-1.391.176-2.896.539-1.479,1.987.942.961,10.979,4.022,13.354,5.158,69.398,33.199,58.503,123.196,28.627,180.854-2.444.321-1.581-.015-2.086-1.39-1.613-4.386-2.12-9.796-3.637-14.369-3.552-10.709-8.411-21.917-17.252-29.238,2.981,11.156,7.618,21.624,10.706,32.784,6.389,23.094,7.221,29.175-.218,52.213-.723,2.238-2.456,8.982-3.904,10.095-3.215,2.47-24.553-.495-29.95-1.235-38.809-5.321-77.479-19.54-110.166-40.856l35.518-161.996c-2.576-2.621-8.002,8.928-8.853,10.637-10.391,20.867-14.422,44.215-21.155,66.35-1.457.182-1.794-2.623-1.895-3.582-.71-6.749-1.462-17.29-1.14-23.959.366-7.575,3.35-14.792,3.042-22.447-3.426-3.866-9.243,18.455-9.53,19.96-2.234,11.727-2.984,25.496-1.193,37.263.969,6.369,3.951,13.351,4.623,19.378,2.764,24.775-21.045,62.119-13.391,84.39.749,2.178,2.833,4.144,3.25,5.745,2.807,10.787-8.079,26.814-6.759,38.255-15.392-6.578-30.212-21.499-38.513-35.976-4.882-8.513-7.65-17.58-11.621-26.379-.87-1.928-2.196-5.49-3.86-6.64.613,6.093-.838,13.614,0,19.5Z"/>
  <path class="cls-7" d="M624.77,515.228c2.135,2.08.296,11.847,3.379,17.122,1.018,1.742,7.235,7.449,8.89,8.109,5.196,2.073,9.274-2.696,7.957,5.545,12.364,2.929,25.818-20.78,33.917-22.549,6.182-1.35,12.816,14.698,19.611,14.624,4.908-.053,13.395-13.739,23.061-14.991,13.243-1.715,13.33,8.716,19.903,16.921,3.561,4.445,21.239,23.536,25.161,25.839,5.256,3.086,8.835,1.326,13.749,2.251,22.459,4.23,72.85,29.812,80.79,52.21,7.746,21.849-8.564,40.157-15.205,59.689-11.537-7.956-23.008-15.84-37.499-16.986-24.439-1.932-40.541,13.838-65.876,10.877-5.446-.636-19.81-7.343-23.619-5.419-5.204,2.628-2.663,21.067-.944,25.983,5.499,15.727,25.592,23.404,17.809,43.898-10.422,27.443-44.297,19.947-62.38,4.673-12.35-10.432-32.741-40.103-15.991-54.043,3.636-3.026,8.453-3.805,12.737-5.309,5.614-1.971,2.27-3.294-1.705-3.674-23.194-2.217-29.252,20.898-22.518,38.988-20.05,2.668-33.615,11.397-45.985,27.009-19.706-44.973-53.649-82.873-93.696-110.814-5.248-3.662-11.748-6.695-16.66-10.339-.835-.619-1.987-.949-1.653-2.332,16.368-10.164,31.762-21.562,49.317-29.693,3.141-1.455,9.687-2.479,11.732-4.544,4.521-4.566,10.015-21.86,12.214-28.509,2.537-7.671,5.332-16.912,7.27-24.73.698-2.815,2.18-16.152,2.623-16.882.355-.585,9.245-3.548,11.851-6.644,3.526-4.188,3.388-11.657,5.925-15.824.829-1.362,6.531-5.824,8.076-8.175,3.211-4.886,3.378-8.829,1.311-14.334-1.239-3.299-3.799-4.045-4.317-7.165,21.368-4.494,12.905,13.688,14.007,25.481.549,5.868,4.175,15.424,8.497,19.5,2.493,2.351,7.153,3.155,8.262,4.236Z"/>
  <path class="cls-7" d="M584,438.99c-16.842-1.342-11.211,18.766,2.995,16.005.277-4.208-7.839-5.155-7.975-8.443-.184-4.45,3.576-3.483,6.249-4.599.869-.363.642-2.064,1.211-1.957,2.95.552,7.893,7.435,7.316,10.371-.165.837-4.812,5.417-5.84,6.086-9.215,6.002-12.292-2.532-18.478-7.431-10.968-8.686-22.093-17.292-33.222-25.778-17.731-1.408-35.47-1.393-53.262-1.239.135.819-.215,2.71.006,2.977.355.427,9.372,2.51,10.757,2.76,12.701,2.292,25.813-.456,38.141,3.859,14.411,11.436,30.665,20.485,44.997,32.003,2.925,2.351,13.503,10.703,15.018,13.039,2.494,3.845-1.3,10.167-5.623,11.144-9.778,2.21-11.459-3.364-17.352-7.226-9.435-6.183-30.526-22.725-38.948-26.052-13.352-5.275-31.798-2.574-45.996-4.505-.888,3.408,2.078,3.807,4.784,4.714,17.572,5.89,30.271,1.295,46.942,12.06,4.146,2.677,27.81,20.056,29.327,22.667,2.677,4.608-.992,6.168-1.08,10.017-.145,6.355,4.458,7.727,10.031,7.527-3.324-3.069-6.24-5.593-4.363-10.722,1.535-4.194,10.854-2.383,9.324,6.172-1.491,8.337-10.642,7.266-16.636,4.736-11.841-4.998-29.917-20.335-41.29-23.71-8.316-2.468-24.304-3.459-33.999-5.052-3.479-.571-5.305.801-3.088,3.905,2.613,3.659,24.649,5.579,30.255,6.979,10.901,2.723,24.976,14.649,35.478,20.522,2.544,1.423,11.654,4.349,12.852,6.15.931,1.4.498,1.576-.549,2.513-9.245,8.274-34.584-6.088-45.591-7.375-9.597-1.123-20.919.441-30.705.08-8.32,9.779-16.091,19.025-27.359,25.641-14.096,8.277-19.069,6.202-33.813,8.187-25.882,3.484-52.783,16.051-78.3,22.7-40.498,10.553-87.367,1.714-129.757,3.243-21.186.764-40.468,4.764-61.086,6.914-7.853.819-15.242,3.498-20.791-2.953-17.732-20.614-14.074-84.166-10.439-110.276,1.67-11.99,5.21-23.661,6.863-35.645l6.323,4.167c36.632,19.121,78.077,32.19,119.667,33.841l-3.671,9.031c-23.035-1.038-42.986-.173-64.573,8.216-2,.777-25.784,10.9-21.747,14.742,9.429-1.087,17.805-6.106,26.775-8.715,50.79-14.773,87.66,8.95,136.762,6.762,8.162-.364,19.91-1.177,27.942-2.058,12.363-1.356,24.534-5.103,37-6.045,3.6.359,1.501,3.054,1.471,5.497-.041,3.323-.026,6.314.494,9.615.386,2.455,5.394,16.799,6.567,17.945.996.974,2.078.212,1.987-1.479-.547-10.143-6.522-21.285-1.214-32.229,1.785-3.68,5.421-4.663,7.657-7.343,15.764-18.89,26.558-46.693,42.097-64.903,3.215-3.768,12.498-5.283,17.444-6.556,15.053-3.874,44.663-11.214,59.255-9.228,21.198,5.417,35.622,26.065,52.758,38.732Z"/>
  <path class="cls-6" d="M890.01,718.995l21.995-34.491c.73,24.96-.788,49.124-9.257,72.744-12.935,36.075-45.053,68.341-82.251,78.758-3.085.101-.703-1.069.176-1.834,1.998-1.739,17.95-13.437,15.323-16.167-.939-.975-20.065,10.278-23.012,11.478-32.653,13.295-74.869,8.427-106.657-5.309-7.635-3.299-14.568-8.171-22.321-11.169-1.766,1.735,7.675,9.315,9.081,10.409,6.269,4.875,14.546,9.682,21.906,12.599.267,1.673-2.43,1.088-3.521,1.025-16.422-.953-38.561-10.794-52.388-19.622-15.139-9.665-27.777-25.496-43.388-33.612-2.027-1.054-4.838-.761-6.678-2.322-1.949-1.654-5.692-16.337-5.775-19.254-.192-6.767,8.403-15.977,13.286-20.197,5.134-4.438,24.924-17.602,31.045-13.097,8.623,11.61,16.196,21.73,29.123,28.87,21.753,12.016,54.003,14.992,66.487-11.118,15.344-32.093-18.505-40.916-20.179-69.679,6.091.393,11.49,4.174,17.603,4.887,24.654,2.875,36.2-7.845,57.012-9.769,11.918-1.102,27.523,5.897,37.733,12.024,10.019,6.012,6.755,4.433,6.603,14.313-.096,6.246-.482,13.984.04,20.051.059.683.877,6.473,2.99,4.486.824-.775,3.438-18.771,4.306-22.205,1.294-5.121,2.929-10.329,4.691-15.309,12.035-34.004,45.465-71.828,17.514-107.477-1.55,13.96,4.33,28.164-.508,41.988l-13.79-23.725c-.558-2.613,7.036-26.076,9.052-28.011,5.388-5.172,21.216,6.538,25.292,10.702,11.427,11.678,21.347,41.482,22.326,57.666,1.807,29.866-24.305,52.801-23.857,82.37Z"/>
  <path class="cls-7" d="M479,208c-11.893,17.246-20.617,39.895-17.742,61.242,1.19,8.834,7.497,19.583,17.792,16.301,8.036-2.562-1.297-4.922-2.996-6.097-17.712-12.249,3.969-74.897,24.672-79.218,22.866-4.772,24.305,20.891,20.808,36.807-2.494,11.352-11.192,17.432-5.353,29.283,8.843,17.948,16.928,5.092,28.425,3.797,2.489-.28,11.502-.162,13.182,1.087,1.039.773,7.7,20.582,9.353,24.156,3.581,7.741,8.151,15.054,12.851,22.149-3.729.553-6.898-1.96-10.602-2.391-3.377-.393-14.043-.99-10.935,3.928,1.033,1.635,9.058,3.001,12.049,5.951,3.617,3.568,4.519,10.079,7.481,13.519,4.077,4.735,19.863,18.702,25.326,20.675,22.121,7.99-.691-15.258-4.819-20.181-.664-.792-2.623-2.002-.999-3.001,20.885,16.097,48.808,16.476,71.502,28.498-13.75,6.697-33.67-4.031-46.931,5.06-4.162,2.853-11.723,11.494-13.941,16.059-6.06,12.475-5.338,44.602-26.645,35.398-6.492-2.804-7.163-7.022-11.453-11.548-2.807-2.961-15.327-12.545-15.82-14.183-2.803-9.32,8.195-13.614,12.794-19.281-11.341.57-20.695,9.505-21.01,20.99-2.356-1.817-3.514-3.016-6.541-3.948-23.167-7.133-51.253,7.223-74.445,9.952-2.25-14.492-5.211-29.058-6.862-43.646-2.854-25.209-2.667-46.631,3.853-71.353-3.009-.813-4.238,2.463-5.803,4.69-10.908,15.521-15.892,37.589-13.197,56.301-11.897.13-12.419-12.164-13.036-21.455-2.032-30.595,6.442-76.391,20.161-103.921,1.369-2.747,8.868-15.62,11.38-15.62h17.5Z"/>
  <path class="cls-5" d="M701.005,167.005c1.028-1.139,6.573,4.968,7.509,5.981,10.139,10.967,21.387,31.122,24.189,45.811,6.353,33.309-14.368,66.875-32.237,93.203-41.996-37.488-102.07-44.908-144.314-81.647,18.638-30.721,46.486-66.467,83.838-73.863,14.704-2.911,44.193-3.693,54.984,8.036,2.291,2.49,2.926,5.943,6.537,7.453l-.505-4.975Z"/>
  <path class="cls-4" d="M545.769,529.235c.669.796,1.536,6.512,2.668,8.827,1.441,2.948,7.02,8.116,7.297,10.558.323,2.851-8.297,26.333-10.381,29.129-3.444,4.62-19.72,8.483-26.019,12.085-5.281,3.019-16.513,13.807-21.256,14.698-3.325.625-19.52-17.179-28.668-18.444-18.488-2.556-30.284,10.036-48.898,8.899-24.607-1.503-46.895-15.666-71.508-16.997.009-1.513,3.005-1.853,4.227-2.257,16.829-5.555,34.264-10.6,51.579-14.422,15.766-3.48,36.757-4.66,50.874-11.126,15.655-7.171,26.868-20.777,40.055-31.022,6.094,1.058,12.391.371,18.483,1.114,3.572.436,30.433,7.632,31.546,8.958Z"/>
  <path class="cls-5" d="M681,148.99c-12.328-1.525-22.911-2.718-35.365-.855-43.4,6.493-75.076,43.963-94.124,80.83-4.978.394-30.231-37.868-33.926-44.05-3.242-5.424-9.398-13.371-6.823-19.661,2.951-7.208,28.862-29.219,36.318-33.674,39.747-23.754,100.003-12.203,133.92,17.41Z"/>
  <path class="cls-5" d="M717.99,389c-5.295-3.944-7.686-10.549-11.967-15.523-19.778-22.983-61.765-26.251-88.697-38.303-25.355-11.346-35.261-28.683-45.794-53.206l-17.527-44.963,15.68,11.81c30.08,20.563,65.463,31.402,97.336,48.664,18.084,9.794,28.582,14.621,35.994,35.006,6.631,18.234,9.717,37.877,14.974,56.515Z"/>
  <path class="cls-1" d="M335.761,926.768c-1.03.833-24.848,7.194-25.756,6.228-.854-4.594.889-9.185,1.036-13.455,1.467-42.583-17.597-82.161-48.515-110.568l-13.52-10.962c8.319-.346,18.911-10.253,26.955-7.464,2.996,1.039,14.703,10.728,17.566,13.426,22.367,21.074,42.427,61.736,44.514,92.486.302,4.456.313,28.212-2.28,30.309Z"/>
  <path class="cls-5" d="M271.001,438.005c-1.139,13.475-3.096,18.601-17.495,17.981-30.579-1.318-96.161-19.292-118.974-40.017-7.979-7.249-6.744-10.713-5.527-20.963.966-1.121,15.014,9.191,17.079,10.411,36.739,21.692,82.499,31.385,124.917,32.589Z"/>
  <path class="cls-5" d="M454.005,400.004c-11.965.43-29.576-3.824-40.701.799-2.388.992-9.558,5.929-4.711,7.152,1.526.385,11.926-1.833,14.865-1.997,1.147-.064,6.515-.794,5.533,1.528l-42.648,31.357c-9.391,4.141-18.741-2.948-28.343-1.853,21.153-17.738,44.399-40.429,71.041-49.449,14.608-4.946,26.529-8.194,24.964,12.463Z"/>
  <path class="cls-7" d="M631.993,501.997c-2.113,1.973-10.313-11.589-9.911-13.392.589-2.642,7.187-3.258,9.334-1.696,1.123.817.362,2.8.589,3.089.285.363,2.736.393,1.984-1.481-4.745-11.815-17.315-7.762-15.922,4.87.806,7.311,6.24,7.822,10.931,11.601-11.216,3.439-13.495-7.434-12.982-16.478.308-5.422,7.347-36.948,5.979-38.505l-3.023,1.467-5.976,8.026c-3.245-25.593,34.688-29.308,35.081-2.991.18,12.043-15.76,31.952-16.084,45.491Z"/>
  <path class="cls-7" d="M633.01,518c3.329,2.546,3.638,7.957,8.985,7.995.528-.535-4.363-8.011-1.065-12.574,2.639-3.65,5.563,2.294,9.065,1.574,1.059-.994-4.452-6.424-5.708-6.803-4.143-1.25-5.766,1.657-9.281,1.314,9.572-14.519,12.468-32.206,19.616-47.451,4.93.205,13.328,7.264,13.305,12.312-.018,3.988-3.401,13.011-4.91,17.15-3.458,9.487-9.816,26.121-14.287,34.713-6.565,12.617-17.579,2.615-15.721-8.23Z"/>
  <path class="cls-2" d="M51.988,490.997c-1.655,1.143-10.572-6.401-12.461-8.024-7.136-6.13-28.681-30.292-30.339-38.722-1.255-6.378,7.205-12.205,8.825-18.243l7.816,15.663c7.602,13.749,16.676,26.118,27.658,37.346,1.764,3.801-.957,8.197-1.499,11.98Z"/>
  <path class="cls-6" d="M553.002,260.996c-6.374-2.889-25.879,10.13-29.509,4.015-4.288-7.222,12.932-35.082,6.507-45,3.028-2.286,9.787,9.952,11.171,12.319,2.042,3.492,13.526,26.954,11.83,28.667Z"/>
  <path class="cls-4" d="M635,813h-56c4.954-5.788,13.702-7.914,19.48-13.02,2.423-2.142,6.363-8.903,8.992-8.959,6.043-.129,23.239,16.876,27.528,21.979Z"/>
  <path class="cls-5" d="M621.511,408.021c-.843,5.034,2.274,19.191-.019,22.971-.631,1.041-18.737,14.27-19.922,13.992l-10.551-11.484c2.439-2.891,6.691-2.439,9.513-4.468,2.408-1.732,5.039-7.014,7.442-9.558,4.086-4.324,8.667-8.053,13.537-11.453Z"/>
  <path class="cls-1" d="M433,605c-.319-1.697.404-2.059,1.712-2.788,3.12-1.74,28.399-7.536,31.533-7.041,3.599.568,18.011,13.294,18.73,16.372,1.293,5.535-19.918,2.955-23.286.522-1.433-1.035-2.859-7.065-4.188-7.065h-24.5Z"/>
  <path class="cls-7" d="M655,531.99c1.704-1.626,4.443-12.589,5.015-12.985,2.305-1.597,6.188,5.248,6.984,1.478.711-3.37-4.345-3.823-3.976-8.854.197-2.679,7.559-19.662,9.477-19.609,2.157,4.558,9.865,11.04,8.33,16.26-.787,2.674-10.249,9.651-12.859,12.191-1.639,1.595-10.353,13.681-12.971,11.519Z"/>
  <path class="cls-6" d="M510.996,191.995c-9.523-1.573-16.529,5.429-24.991,8l16.013-24.989c2.064-.437,2.31,1.02,3.178,2.298,1.198,1.765,6.672,13.857,5.8,14.691Z"/>
  <path class="cls-7" d="M622.8,381.223c.443.255,5.311,6.939,6.157,8.17l-18.952,14.602c-.814-.926,8.097-22.174,9.142-22.829.738-.463,2.849-.406,3.652.057Z"/>
  <path class="cls-7" d="M643,376.01c-3.471,4.728-11.828,5.744-15.997,1.477-1.05-4.52,13.484-1.798,15.997-1.477Z"/>
  <path class="cls-5" d="M492.997,172.012c-1.523,2.613-3.396,6.985-6.245,8.234-4.451,1.951-9.974-1.192-15.825.188-8.756,2.065-18.631,18.342-23.1,25.893-29.928,50.577-32.365,113.666-19.757,170.012l-29.582,18.639c1.403-5.897,8.578-26.137,12.963-29.026,3.196-2.106,10.234-1.862,5.02-8.932-6.571-8.91-40.78-7.354-51.472-9.025,4.284-34.733,13.833-68.847,27.532-100.963,17.484-40.992,46.923-93.573,100.466-75.02Z"/>
  <path class="cls-5" d="M700.5,165c.649.333.649.667,0,1v-1Z"/>
  <path class="cls-3" d="M199.995,906.005c3.045,3.156-7.062,8.09-9.309,9.181-8.085,3.927-17.67,6.411-26.682,5.809-.26-1.736-.07-2.206,1.028-3.463,3.489-3.994,32.98-13.582,34.963-11.526Z"/>
  <path class="cls-3" d="M697,745h16.5c.359,0,5.244-3.381,5.905-4.095,5.026-5.43,4.482-12.986-.919-17.896l-7.267,7.997c-6.556,6.769-25.8,7.432-30.414-1.311-2.168-4.108-2.492-14.618-1.893-19.267.248-1.927,2.131-1.404,2.07-1.884-.36-2.81-3.113-6.801-2.749-10.81.369-4.069,3.423-5.821,7.315-5.794,4.724.032,3.96,5.078,5.559,8.454,4.647,9.812,18.148,8.319,26.83,13.17,21.239,11.869,11.2,42.256-15.165,38.165-4.916-.763-6.476-1.165-5.771-6.729Z"/>
  <path class="cls-3" d="M596.416,611.615c5.911,18.234,12.447,41.472,29.254,53.216,5.81,4.06,17.567,7.277,21.3,10.699,5.038,4.618-7.779,3.298-10.521,2.522-41.903-11.854-57.883-91.536-56.449-128.562.047-1.21-.753-3.719.989-3.484,3.344,22.266,8.494,44.223,15.427,65.608Z"/>
  <path class="cls-3" d="M760,631.99c4.143-5.335,10.067-10,14.002-15.488,7.519-10.488,5.085-11.684,7.253-22.747,1.607-8.195,5.826-26.543,14.297-10.807,5.584,10.373-.08,29.058-8.013,37.09-5.581,5.651-19.478,11.592-27.539,11.951Z"/>
  <path class="cls-3" d="M741,594.5c.49-3.449,6.817-14.54,10.475-14.504,2.734.027,4.261,3.56,5.299,3.929,4.995,1.773,15.421-.7,13.733,8.069-7.257-5.144-16.743-4.614-21.015,3.998-2.048,4.129-3.144,14.608-5.014,16.985-1.559,1.982-3.477.165-3.477-.477,0-5.349-.703-13.058,0-18Z"/>
  <path class="cls-3" d="M713.995,533.004c.829,8.785-2.653,19.269-12.99,18.991-1.261-1.218,6.951-15.262,8.561-16.929,1.405-1.455,1.889-2.54,4.429-2.062Z"/>
  <path class="cls-3" d="M699.996,552.995c-1.416,11.581,11.803,5.777,18.477,5.964,1.51.042,2.94-.659,2.517,1.526-1.499,3.816-17.277,4.862-21.242,3.261-4.476-1.807-6.105-11.701.248-10.751Z"/>
  <path class="cls-3" d="M673.99,726c-6.298-3.233-8.587-9.081-8.984-15.995l3.427,2.063,5.558,13.932Z"/>
  <path class="cls-3" d="M469,424.01c-6.257,5.733-13.364,15.709-19.955,20.535-1.37,1.003-2.017,1.886-4.04,1.45,1.389-10.768,12.298-23.368,23.995-21.985Z"/>
  <path class="cls-3" d="M579.995,468.005c-.445,3.789-1.854,7.19-.554,11.063,1.355,4.035,6.333,3.168,6.554,6.927-13.006,2.863-17.076-13.332-6-17.99Z"/>
  <path class="cls-3" d="M471.995,454.005c.599,2.589-.763,1.744-1.887,2.574-5.579,4.122-11.73,8.111-18.086,10.931,3.974-8.407,9.659-15.423,19.974-13.506Z"/>
  <path class="cls-3" d="M842.65,787.65c-4.647,4.315-11.19,7.98-5.469-1.969,14.233-24.753,23.674-36.166,25.809-67.191.922-13.394-.817-27.367,2.505-40.485,1.577,1.557,2.135,4.494,2.393,6.607,4.124,33.717,1.147,78.537-25.238,103.038Z"/>
  <path class="cls-3" d="M507.771,251.768c-1.303,1.333-5.034,1.604-6.775.753-2.564-1.254-2.911-7.841-6.99-7.516-.246,8.669-7.85,14.754-6.01,23.99-4.638.399-7.552-5.615-8.018-9.472-1.993-16.5,8.035-36.285,27.013-27.523l-1.996-17c-3.702-.765-14.912,12.128-16.989,9.995,1.016-14.931,21.271-30.592,23.998-6.498.599,5.291-.934,29.897-4.232,33.271Z"/>
  <path class="cls-3" d="M591.995,355.995c-12.46,2.092-27.995,3.205-33.719-10.771-1.749-4.27-2.19-18.992,3.238-13.237,2.066,2.191,1.816,7.469,5.522,10.478.67.544,9.35,5.922,9.904,6.096,5.328,1.669,12.908-1.148,15.055,7.435Z"/>
  <path class="cls-3" d="M589.99,392c-3.117-.034-8.715-9.209-6.985-10.995,2.568-2.65,8.789,8.391,6.985,10.995Z"/>
  <path class="cls-3" d="M396.995,419.005c2.271,6.294-14.664,16.74-15.991,10.479-.572-2.7,12.539-12.109,15.991-10.479Z"/>
  <path class="cls-7" d="M687.306,726.698c-2.471-2.771-3.509-9.296-5.306-12.689,5.177,1.553,9.384,4.674,14.949,5.541,3.393.528,20.847-.755,12.943,4.842-5.998,4.247-16.656,8.955-22.586,2.306Z"/>
</svg>