<?xml version="1.0" encoding="UTF-8"?>
<svg id="Layer_1" data-name="Layer 1" xmlns="http://www.w3.org/2000/svg" viewBox="0 0 1024 1024">
  <defs>
    <style>
      .cls-1 {
        fill: #1271a1;
      }

      .cls-2 {
        fill: #934e1f;
      }

      .cls-3 {
        fill: #083045;
      }

      .cls-4 {
        fill: #fff;
      }

      .cls-5 {
        fill: #000;
      }

      .cls-6 {
        fill: #d92626;
      }

      .cls-7 {
        fill: #f0b375;
      }
    </style>
  </defs>
  <path class="cls-4" d="M324,1024H0V0h1024v762l-2.216-.08c-3.323-4.722-9.249-17.067-5.858-22.357.731-27.071-9.746-67.689-41.205-72.433-6.848.573-9.554-1.561-8.118-6.402,10.995-45.779,7.852-94.598-14.647-136.347-2.301-5.747-3.996-11.742-2.863-17.828,12.62-27.487-.751-50.549-17.124-72.435-5.16-6.293-2.036-11.264,1.813-17.222,1.134-7.453-.732-15.233-5.598-23.341-22.754-53.843-60.726-138.63-109.011-172.161-42.451-29.48-104.953-33.439-155.18-32.406-13.867,3.927-21.539,1.801-32.476-7.059-6.256-1.46-11.783-3.816-16.582-7.066-4.691-25.927-9.946-51.819-15.765-77.676-16.802-69.873-107.705-76.477-161.663-48.803-28.425,14.579-35.57,33.439-43.63,61.344-1.783,5.437-5.913,8.883-12.388,10.337l-26.727,9.304c-9.974,4.105-33.814,14.032-35.727,25.528-5.144,30.916,44.89,26.107,63.452,23.298,2.493.266,3.763,2.409,3.809,6.429,4.646,6.493,9.76,12.725,15.342,18.697,1.508,7.857,2.08,15.992,1.715,24.404,6.186,24.141,19.639,46.004,33.201,66.346,3.183,4.078,3.794,7.916,1.834,11.516-11.979,15.69-22.4,32.026-27.634,52.049-7.706,30.66-18.241,59.702-31.981,87.806-2.871,16.55-9.963,28.968-25.163,37.445-21.898,22.568-39.93,48.418-54.098,77.55-9.49,15.478-19.449,31.425-33.605,43.016l-2.842-.843c-5.461-5.544-11.633-9.349-18.517-11.415-17.868-.634-27.568-10.056-39.188-22.01-14.346-1.066-28.541-2.747-42.584-5.043-2.852-17.496-16.149-23.836-32.342-25.485l-3.13-1.918c-22.211-23.779-55.588,13.845-69.056,31.86-14.714,19.682-20.509,40.065-25.831,63.952-6.209,12.817-8.851,25.751-7.925,38.802,3.662,7.05,5.842,14.2,6.538,21.449-4.438,21.455,3.687,40.705,20.421,54.649,2.657,2.625,2.421,4.169-.862,5.991-3.726,1.829-7.16,4.047-10.474,6.493-4.516,3.334-8.109,7.572-6.3,13.344,4.817,15.369,56.34,22.556,70.221,23.87,21.398,12.607,45.465,21.766,70.691,17.906,5.656.157,36.472,11.744,39.806,15.254l1.539,2.33c.995,7.128,4.63,13.256,10.906,18.383-2.926,10.042-6.164,20.042-9.714,30.001.332,12.924.054,25.774-.834,38.55-17.276,30.291,22.786,53.475,44.932,66.242,21.257,10.629,41.642,22.472,61.156,35.53l1.481,2.658Z"/>
  <path class="cls-5" d="M324,1024c-24.411-17.281-52.578-28.533-77.521-44.979-18.136-11.959-42.573-28.926-34.971-54.013.78-2.575,2.982-4.71,3.43-7.57,1.704-10.874-1.047-25.1.341-36.659.987-8.22,10.15-24.985,9.834-29.284-.092-1.249-6.677-5.859-8.324-8.785-1.759-3.125-2.232-9.391-3.013-10.483-1.122-1.569-32.119-14.478-35.524-14.995-5.118-.777-12.711,1.134-18.793.809-10.176-.543-26.933-4.69-36.442-8.559-6.756-2.748-13.222-8.475-19.573-10.427-7.594-2.334-16.032-1.9-23.801-3.199-27.085-4.528-76.785-21.546-27.647-45.353-12.108-9.783-22.405-23.96-23.987-40.013-.717-7.275,1.643-15.72.913-21.895-.671-5.675-5.737-11.573-6.663-18.355-2.181-15.959,4.221-24.221,8.237-38.246,5.05-17.633,7.083-33.239,16.333-49.667,11.367-20.186,42.756-58.829,68.584-55.239,7.921,1.101,11.033,8.176,16.851,10.146,3.889,1.317,8.58.943,12.726,2.274,9.245,2.967,19.082,13.521,19.01,23.491l42.238,4.26c8.499,6.555,13.184,15.66,23.961,19.039,6.668,2.091,14.533,1.959,21.03,4.97,5.097,2.362,9.457,7.618,14.28,10.55,36.69-34.699,47.79-85.196,85.478-119.331,3.723-3.372,8.915-5.988,12.54-9.46,11.81-11.314,9.768-19.47,14.99-33.01,3.319-8.607,9.122-17.643,12.663-26.337,12.074-29.644,16.05-64.482,33.016-91.984,2.358-3.822,13.841-17.073,13.587-20.03-.388-4.512-12.059-19.833-14.956-24.996-6.794-12.108-19.78-36.246-21.57-49.43-.91-6.705.876-15.12-.729-21.271-2.132-8.172-18.485-14.754-16.529-25.978-20.241,3.037-72.248,8.3-66.937-25.429,1.969-12.502,26.353-22.659,36.95-27.051,6.538-2.71,32.239-10.259,35.54-13.46,2.562-2.485,9.548-27.654,12.273-33.727,24.917-55.538,142.326-65.684,180.152-19.804,24.726,29.99,25.251,67.597,32.317,103.683.447,2.284,1.614,9.249,2.938,10.561s12.035,3.873,15.143,5.358c4.468,2.134,10.725,8.248,15.212,8.839,4.652.613,11.898-1.801,16.87-2.005,47.097-1.93,108.461,4.009,149.462,28.622,47.982,28.804,85.246,107.474,107.256,157.744,4.102,9.369,13.782,28.628,15.389,37.642,1.416,7.945-6.303,11.688-5.393,17.322.494,3.059,13.396,20.259,15.999,25.041,6.43,11.81,10.355,22.213,8.721,36.064-1.424,12.065-8.109,16.012-3.652,29.868,3.628,11.278,10.645,22.061,14.256,33.744,7.034,22.758,9.77,52.813,7.494,76.486-1.152,11.984-4.424,23.615-5.993,35.51,36.568-2.477,51.309,45.166,49.948,74.451-.075,1.622-1.613,2.843-1.474,4.641.351,4.556,5.639,13.354,7.53,17.909v50l-1.012,1.86c-58.092-10.056-116.072-19.345-173.941-27.867-10.885,0-21.411,7.881-28.41,14.557,39.954,7.59,80.086,17.821,115.024,39.361-4.328-6.347-8.938-12.474-13.83-18.381-7.623-11.935,4.225-9.536,11.207-4.649,14.853,10.396,23.724,33.265,29.533,49.973,1.348,1.151,3.583-32.989,3.67-35.223,4.84-9.264,11.14,11.059,10.489,15.123-.005,13.061-.011,25.969-.016,38.725l46.595,11.295.691,2.225v13l-2.475.84c-21.962-5.153-44.107-9.614-66.435-13.381-29.976-.551-59.799,3.362-89.469,11.737-4.017.994-5.76.953-6.346-3.071-1.246-8.555,60.458-24.235,65.213-21.663-23.729-9.28-51.191-2.991-74.007,7.024-12.736,6.45-25.627,12.475-38.674,18.073-7.03-5.81,8.971-16.593,14.134-19.733,39.577-24.068,75.907-36.923,119.758-14.028-11.546-33.299-52.828-45.997-83.98-55.508-5.698-1.74-51.349-13.364-55.861-12.054-4.285,1.245-18.255,18.376-21.689,22.676-32.62,40.849-62.434,97.207-63.736,150.847-.391,16.098,2.786,26.956,17.516,34.59,2.283,1.625,4.206,3.207,2.052,5.651h-75l-6.927-1.701c-40.543-22.134-87.385-42.108-133.704-36.013-5.491,1.254-16.009-2.137-9.369-7.286.093-.78.339-1.946.898-2,7.83-.755,18.749-.519,26.102,2l-6.172-1.718c-16.282-11.726-33.507-21.812-51.675-30.256-35.803,7.155-61.174,40.226-72.161,74.162l-2.992,2.813h-12c-.362-.685-.687-1.38-.882-2.11-.976-3.658,3.965-15.268,5.807-19.556,12.446-28.972,34.912-50.596,62.751-64.417-19.209-12.837-30.117-13.65-50.334-3.668-34.604,17.086-50.739,49.383-56.001,86.767l-2.34,2.983h-32Z"/>
  <path class="cls-3" d="M740,1024c-1.029-3.978-6.473-5.482-9.478-8.022-6.371-5.384-10.411-10.987-11.414-19.586-5.545-47.509,24.045-110.725,51.078-148.707,4.84-6.8,29.226-38.201,35.545-39.482,3.13-.635,28.09,5.107,33.28,6.286,31.446,7.142,86.185,22.311,103.524,51.476,1.88,3.162,5.3,9.982,5.488,13.529.201,3.779-5.308-1.236-7.04-1.978-40.006-17.138-72.157-10.145-107.898,12.068-3.462,2.151-25.251,15.732-21.079,20.411,24.178-11.188,45.489-25.147,72.629-28.86,14.763-2.02,34.07-2.207,46.365,6.855-16.053.686-31.611,3.527-46.785,8.724-5.165,1.769-15.336,5.483-19.548,8.452-1.575,1.11-3.87,2.574-3.661,4.829,29.053-5.02,57.653-14.573,87.537-13.036,25.511,1.312,50.648,9.892,75.459,15.041v112h-176c-15.004-9.268-30.517-18.101-46.541-26.502-8.456-4.427-14.348-7.633-14.484-17.376l-3.481-37.687c-1.133,12.759-1.016,25.623.351,38.592.013,2.687-1.365,3.009-3.644,3.253-14.167-8.264-28.407-16.331-42.722-24.2-2.526,2.968,36.43,24.524,39.911,26.414,8.915,6.776,14.301,16.582,16.155,29.419,1.883,3.132,2.368,5.828,1.455,8.087h-55Z"/>
  <path class="cls-7" d="M409,1024c8.041-26.386,23.97-52.838,47.695-67.805,5.722-3.61,21.348-11.75,27.684-11.149,5.591.53,31.023,16.514,37.537,20.538l20.083,13.417h-27c-.049,1.867-.454,4.177,1.641,4.859,4.885,1.588,21.005-1.143,27.906-.907,41.634,1.423,85.035,20.537,120.453,41.048h-256Z"/>
  <path class="cls-3" d="M1024,812v87l-49.901-12.096c-.69-15.635,3.331-32.354-.802-47.701-.654-2.43-4.763-13.21-5.297-5.718-.868,12.193-.635,24.883-4.299,36.726-.322,1.042-.265,3.024-1.689,2.781-4.913-17.423-11.151-34.391-23.498-48.007-4.467-4.926-10.256-11.114-17.509-9.98-1.789,1.726,11.917,16.833,13.799,19.69,1.582,2.403,6.475,10.616,7.107,12.908.519,1.884-.495,1.466-1.908,1.403l-.159-3.841c-37.522-25.264-80.953-35.293-124.855-43.666,9.379-6.53,21.291-17.771,33.459-17.53,5.815.115,12.667,3.024,18.926,2.155l156.625,25.875Z"/>
  <path class="cls-1" d="M356,1024c3.287-33.728,20.57-72.453,51.679-88.821,6.363-3.347,23.076-10.109,29.805-10.248,10.32-.213,23.39,8.981,32.511,13.564-36.499,14.285-64.505,47.244-72.995,85.505h-41Z"/>
  <path class="cls-5" d="M795,1024c-6.43-10.471-5.577-26.242-15.678-33.822-7.976-5.986-42.783-21.895-44.339-30.666-.5-2.821,3.296-1.329,4.737-.731l42.269,24.219c-.833-11.493-1.767-24.006-1.032-35.542.207-3.241.709-8.743,2.542-11.438,4.135.114,3.288,47.378,7.79,52.693,16.203,11.281,35.35,18.908,51.621,29.875,2.082,1.403,4.978,2.44,5.089,5.411h-13l-7.313-1.946-30.954-18.035,5.874,17.611-1.608,2.37h-6Z"/>
  <path class="cls-3" d="M835,1024h-34c-1.065-7.572-5.404-14.21-6.849-21.669-.289-1.495-.231-1.602,1.351-1.344l39.498,23.014Z"/>
  <path class="cls-1" d="M351,1018l-69.521-40.979c-49.788-28.848-79.828-90.8-30.494-136.535,22.771-21.11,40.215-21.862,68.236-28.764,18.937-4.664,14.695-18.136,20.241-32.754,5.248-13.834,27.536-12.33,37.532-22.473-8.851-3.705-25.475,7.415-32.98,3.983-3.355-1.534-6.682-10.098-10.754.282-2.496,6.362-8.027,41.231-10.477,43.032-20.358,2.897-41.255,5.842-59.455,16.037-2.999,1.68-15.808,11.779-16.836,11.841-2.79.168-9.598-8.892-10.264-11.424-2.221-8.444,13.687-20.701,19.874-25.642,36.823-29.405,91.796-51.69,139.439-48.645,21.389,1.367,42.519,9.935,63.421,13.579,7.795,1.359,10.421,3.267,17.046-2.028,2.032-1.625,14.726-14.064,15.492-15.511.419-.792.889-2.323.457-2.948-1.264-1.828-23.123-7.635-26.943-8.563-8.921-2.167-47.706-10.117-54.03-7.002-.437.215-1.251,1.248-.983,1.505,24.527,6.993,50.037,9.907,75.003,15.017,1.668,1.755-5.529,8.201-6.99,9.508-2.357,2.108-7.431,6.583-10.42,6.452-10.836-3.051-21.484-6.839-32.379-9.682-22.171-5.785-45.866-7.128-64.531-20.469-7.556-5.401-13.858-12.444-21.758-17.396-.689-4.537,13.826-16.041,18.025-17.967,11.703-5.368,20.936.685,32.564,1.531l13.465-.483c-6.717,6.282-14.759,12.016-24.221,8.241-2.61-1.041-13.22-10.35-14.754-8.736-.317,9.564,4.644,19.681,10.165,27.325,5.091,7.048,12.723,14.352,20.83,17.66l-12.998-21.983c9.555-1.751,19.63-7.279,27.01-13.495,21.283-17.925,3.713-18.088-14.012-16.522,31.105-31.227,78.77-32.544,120-25.98-5.17,13.511-7.187,7.918-16.754,6.244-7.535-1.318-18.068-2.012-25.632-1.139-1.963.226-5.765.712-6.612,2.874,5.282.92,38.133,6.339,38.765,10.472.374,2.448-5.079,7.736-2.012,15.285,2.053,5.052,7.295,5.458,10.199,7.8,3.22,2.596,6.578,11.298,11.991,13.009,3.42,1.081,7.039-.172,10.314.686,2.05.537,4.865,3.688,7.342,4.659,9.755,3.822,15.056-2.774,20.662-1.746,4.407.808,7.343,6.324,15.091,5.779,14.42-1.014,31.806-23.583,42.859-22.731,10.289.793,36.746,13.778,47.462,18.623,19.69,8.902,38.587,19.409,58.321,28.188l-2.539,1.947c-44.05,4.175-93.133,4.449-135.884,16.116-4.057,1.107-10.372,2.283-12.574,5.915l84.537-10.009c22.645,2.457,45.2-3.483,67.915-4.029,19.319-.464,40.954,1.092,56.528,13.547-65.03,29.162-106.426,95.174-120.49,163.491-3.865,18.777-5.462,36.87-3.5,56.009-23.768-2.823-45.713-12.064-67.983-20.012l35.664-11.816c4.817-2.28,9.685-5.225,13.328-9.161-13.485-.38-25.969,5.846-38.796,8.694-17.592,3.906-59.613,9.236-75.241,1.834-4.864-2.304-10.268-6.894-15.29-9.71-9.191-5.153-18.566-9.992-27.653-15.328,68.669-33.954,124.943-89.234,190.679-127.301,11.643-6.742,26.395-12.361,36.975-20.025,8.573-6.21-8.382-.235-11.192.808-65.533,24.324-137.221,86.913-197.567,125.433-4.252,2.714-24.559,16.282-27.505,16.587-3.206.333-9.012-3.197-12.083-4.83-2.646-1.407-10.098-5.041-10.36-7.709-.16-1.63,12.027-24.1,13.777-29.219,1.787-5.228,3.504-10.644,3.245-16.245-10.237,4.219-19.787,38.36-26.001,41.562-3.687,1.899-6.334-6.013-7.475-8.576-8.532-19.166-11.406-34.464-24.286-52.714-2.877-4.077-7.172-10.944-12.223-11.267-2.248,2.267,13.271,27.072,15.181,31.309,4.105,9.107,6.549,18.99,8.804,28.686-6.007-5.824-10.311-13.434-15.963-19.527-10.971-11.826-47.58-41.58-62.75-44.267-1.941-.344-5.41-.03-3.294,2.307,2.841,3.137,12.133,7.589,16.332,10.671,10.682,7.84,20.527,16.769,29.661,26.335l5.014,7.48c-41.133-33.029-96.936-56.793-148.011-30.52-7.471,3.843-17.096,10.405-19.97,18.52,44.721-35.687,113.395-25.365,152.99,12.99-10.744-1.955-21.086-5.591-31.812-7.678-8.193-1.594-27.107-5.12-34.553-3.177-1.09.285-2.243,1.391-.639,2.366,37.565,12.696,77.219,21.353,110.983,42.998.054,2.998-26.985,10.003-31.656,12.325-16.061,7.981-50.324,51.338-50.324,68.676v18.5Z"/>
  <path class="cls-7" d="M532,679c-1.313-4.368-5.576-4.81-4.841-9.246.761-4.589,16.082-27.965,19.866-32.229,7.406-8.346,20.326-14.342,29.891-20.109,2.171-1.309,10.868-8.416,11.584-8.416h16.5l-1.995,4.995c17.989-6.255,36.24,6.965,53.601,8.9,10.29,1.147,19.992-1.335,30.397,1.603,8.512,2.404,14.144,8.886,21.988,12.502,1.555-1.965-7.311-10.196-9.053-11.437-4.408-3.139-10.143-4.672-14.932-7.059,30.764-18.265,60.203-40.154,84.509-66.491,19.745-21.395,42.015-56.921,67.811-70.189,8.206-4.221,18.688-5.244,25.67-11.33-5.932-1.008-12.405-.776-18.215.784-3.691.991-17.655,8.744-19.319,8.488-1.453-.223-6.504-10.287-3.529-12.341,25.238-21.146,53.547-38.171,86.055-45.433,5.004,18.385,11.329,36.516,15.331,55.189,2.912,13.587,9.152,47.552,3.895,59.525-3.028,6.895-16.087,13.109-22.126,17.879-11.882,9.385-23.023,19.735-35.172,28.828-46.221,34.593-98.35,57.829-148.873,85.147-4.228,1.513-2.635-.798-4.537-3.557-7.637,16.256-25.005,21.958-41.994,20.981-2.964-.17-20.105-2.931-21.879-3.923-1.398-.782-.403-2.885-.635-4.071-1.067-1.148-22.971,6.115-25.902,7.603-11.367,5.774-31.116,31.335-44.074,25.88-4.909-2.067-3.028-11.148.397-13.557.836-.588,8.166-2.156,8.515-1.893.408.308,2.003,6.728,4.057,6.971-.095-2.222.512-4.946-.485-7-1.611-3.32-7.636-.739-6.496-3.481,7.309-7.354,12.966-15.407,21.677-21.328,6.682-4.542,25.699-10.873,28.852-14.148,3.64-3.78,1.357-4.555-2.796-3.797-2.251.411-28.822,11.098-30.682,12.319-7.883,5.18-23.854,22.715-29.307,30.693-1.995,2.919-2.473,6.72-4.833,9.167-4.31,4.468-20.225,8.311-18.758-.666.245-1.502,6.593-11.563,7.354-11.753,2.865-.715,6.144,9.888,8.476,7.992,3.485-2.835-3.412-10.082-6.982-10.481,7.604-10.774,16.088-27.604,27.666-34.335,5.493-3.193,27.509-10.107,27.332-17.726-.034-1.476-.984-2.433-2.463-2.463-3.79-.076-28.326,16.877-34.047,19.011l-36.793,47.69c-2.409,2.351-8.609.563-9.515-2.38-2.733-8.874,10.979-22.488,12.818-8.309,9.334-3-5.053-8.784-5.037-9.538.113-5.47,18.478-31.161,23.559-35.433,7.752-6.517,17.964-9.616,25.481-16.519,2.174-1.996,8.173-6.814,4.469-9.513l-34.491,19.491c-10.97,10.577-16.679,25.266-25.539,37.503-.633.875-1.434,1.016-2.449,1.009,1.231,4.095-2.417,8.855-3.976,12.574-10.673-1.939-5.816-9.239-4.01-16.574.56-.435,5.995,3.986,7.986,4Z"/>
  <path class="cls-7" d="M190.997,575.012c1.635,2.344-4.682,6.721-5.992,8.494-3.568,4.831-3.266,8.669-3.001,14.497,8.31,2.792,16.714-21.571,21.309-20.866,2.679.411,14.901,13.765,19.788,16.262,6.701,3.423,14.325,2.837,21.116,4.884,11.877,3.581,26.974,23.418,36.769,32.231,13.156,11.837,41.193,26.706,38.754,46.728-1.288,10.575-19.461,34.36-26.768,43.23-13.105,15.907-43.812,47.82-65.469,47.608-8.073-.079-46.046-12.851-48.502-11.07,6.954,7.504,7.236,15.73-1.091,22.399-18.311,14.665-65.686,3.467-62.848-23.797,1.738-16.693,24.906-10.727,33.459-17.591,3.166-2.541,5.633-9.571,4.321-13.358-.867-2.502-15.485-6.054-19.054-7.95-13.587-7.217-11.548-25.054-21.897-35.103-5.048-4.902-13.163-6.287-17.886-11.114-2.524-2.58-14.322-23.322-13.847-25.851,4.553-5.988,11.794-10.839,16.255-16.731,4.068-5.373,6.023-13.106,10.184-17.816,4.047-4.582,10.869-8.061,15.381-13.619,3.567-4.395,15.671-26.845,18.015-27.984,6.719-3.265,14.127,2.491,19.561,3.452,5.085.899,29.756.647,31.443,3.066Z"/>
  <path class="cls-4" d="M623.992,582.013l-6.908,3.571c-7.68,3.943-13.999,12.848-22.668,14.332-3.055.523-5.795-.234-9.245.755-7.33,2.1-41.833,28.351-47.149,34.851-2.163,2.644-7.291,12.805-9.639,13.238-30.722-4.114-63.161-7.549-92.901,3.222-11.114,4.025-21.212,10.394-30.797,17.203-3.844,2.731-12.35,11.35-15.641,12.394-3.986,1.264-6.923-1.049-10.646-1.469-16.959-1.913-24.952,11.933-36.905,20.563-1.115.066-13.03-9.2-13.362-10.377-.823-2.924,2.372-8.64,2.785-11.877.661-5.18.01-10.231-1.728-15.107-1.043-2.926-6.109-9.175-4.732-11.318,34.812-26.129,75.231-48.896,103.517-82.521,16.381-19.473,29.567-42.74,41.187-65.308,7.203-1.377,19.894,3.376,26.232-.273,1.915-1.103,6.723-8.251,8.423-10.577,5.535-7.575,9.75-16.712,16.67-23.029,3.454-.281,20.109,15.713,24.043,18.686,11.105,8.393,26.617,16.263,35.984,26.016,4.952,5.156,9.154,12.499,13.974,18.026,3.075,3.526,14.737,13.272,15.999,16.005,2.079,4.503-3.176,13.875-1.276,20.278.849,2.86,11.448,11.266,14.784,12.715Z"/>
  <path class="cls-3" d="M890,600c13.272-24.728,40.794-1.105,60.992-6.013l-11.312-6.168c-10.057-3.992-20.776-6.518-31.676-5.825-.288-1.554.152-2.316.948-3.543,6.979-10.762,25.758-18.195,32.234-32.765,1.408-3.167,1.031-9.665,4.647-5.02,10,12.843,15.789,42.719,16.215,58.786,1.193,44.995-24.777,127.007-48.52,165.573-.739,1.201-1.683,3.552-3.162,3.831-2.163.408-34.115-16.63-39.691-19.033-27.674-11.928-61.021-22.43-91.186-24.814-4.462-.353-9.799.591-14.014-.008-1.315-.187-1.785.536-1.493-1.506.567-3.955,17.604-28.032,21.2-32.814,30.887-41.08,67.229-59.97,119.827-49.193,8.609,1.764,17.027,5.916,25.985,5.505,3.599-3.164-16.917-11.473-18.479-12.011-19.265-6.637-38.345-6.393-58.516-5.994,8.09-8.202,20.006-16.342,31.22-19.27,21.555-5.629,43.364,3.159,63.775,9.275.863-4.487-3.348-6.928-6.67-8.819-3.371-1.919-24.021-10.176-26.824-10.176h-25.5Z"/>
  <path class="cls-7" d="M486,168c.572-3.349-1.122-5.06-3.507-6.993l-11.488-5.997c13.418-1.381,25.034-8.624,36.51-15.027,1.943,2.062,12.846,7.507,13.57,8.676,1.277,2.059,1.098,6.898,2.713,10.043,1.65,3.214,5.512,5.103,7.068,7.933,3.692,6.715.672,16.794,13.409,14.131,9.767-2.042,9.298-13.113,13.534-20.456,12.638-21.909,34.88-13.885,37.928,9.447,2.284,17.482-10.508,56.896-34.732,48.249,3.727,10.593,6.993,19.82,5.873,31.373-1.93,19.913-21.173,44.942-33.907,60.094-13.116,15.606-29.554,31.865-51.427,32.574-22.622.734-20.421-11.595-27.687-27.403-7.06-15.359-16.714-29.579-24.379-44.621-1.204-2.362-8.478-16.555-8.454-17.528.075-3.135,6.546,1.868,7.686,2.29,12.498,4.62,4.569-7.807,8.224-10.342,3.137-2.177,13.547,3.926,12.845-3.785-.855-9.385-20.619-3.214-21.32,5.375-1.6-.032-11.217-5.884-11.795-7.267-1.265-3.03-.892-12.517-.543-16.142.69-7.166,7.95-31.159,6.356-35.569-.732-2.024-3.961-5.281-5.216-7.814-.999-2.016-4.025-14.326-7.257-11.244-.662,6.189.427,10.975,3.996,15.995-7.159-1.197-13.428-7.258-20.993-3.994,2.172-8.483,4.523-16.114,1.998-24.991,18.76,2.28,36.913,7.265,55.995,4.004-5.157,5.92-10.663,11.907-17.306,16.184-2.006,1.291-7.627,3.091-8.701,4.293-7.681,8.598,18.097,5.926,20.35,6.671,3.197,1.057,9.769,19.845,18.177,9.86,3.993-4.741,2.484-8.684.481-14.008l13.995,2.985c1.372-1.229-4.304-5.621-5.287-6.203-4.9-2.899-9.16-1.856-13.704-4.307,1.368-3.301,5.937-7.66,9.508-7.557,1.386.04,2.632,1.073,2.987,1.073h14.5Z"/>
  <path class="cls-7" d="M455.999,497.013c-16.746,34.782-39.855,68.913-69.525,93.962-19.847,16.756-42.718,29.66-62.489,46.511-2.108,1.797-7.452,8.545-9.486,8.55l-39.056-35.041c-2.255-4.19,10.144-13.519,13.068-16.982,24.677-29.227,38.148-73.917,66.962-99.038,6.099-5.317,13.822-8.678,19.038-14.962,4.985-6.007,7.103-13.89,11.979-19.984,21.697,15.057,43.095,31.134,69.508,36.985Z"/>
  <path class="cls-2" d="M123,582v-16.5c0-.344-3.043-6.92-4.514-4.515-3.005,4.913-.647,17.925-1.724,24.276-.606,3.575-3.533,8.436-5.266,11.733.253-6.155,1.483-19.046-3.013-23.977-5.54-6.076-2.405,11.426-2.404,12.477.006,11.773-9.961,32.906-18.068,41.505.732-4.948,9.981-27.732,6.026-30.538h-3.073s-22.949,50.058-22.949,50.058c.133,4.569,4.808-2.503,5.485-2.5,5.124.023,9.349,42.926,11.511,48.469.608,1.56.831,2.882,2.989,2.511v-20c5.859,1.141,15.949,7.09,19.848,11.652,7.891,9.233,4.445,23.844,15.127,32.873,6.277,5.306,13.931,5.901,21.028,9.019.838.368,2.713.134,1.988,1.941-2.472,6.163-35.23,3.939-37.921,21.075-.741,4.721.922,8.85.925,13.435-7.476-.316-14.171-6.149-18.965-11.525-1.137-1.275-10.291-15.456-12.024-13.465-.287,2.455.027,4.383.774,6.716,1.39,4.345,6.152,8.249,7.212,10.792,1.066,2.557-2.673,1.173-3.704.698-10.395-4.785-16.106-15.202-21.141-24.854-.586-1.124-3.418-10.626-4.149-4.875-.431,3.391.736,7.204-.493,10.513-10.488-9.419-16.343-25.612-17.489-39.511-.424-5.14.565-10.868-.101-15.899-.79-5.971-5.1-12.779-5.803-19.189-1.484-13.531,5.461-21.708,9.15-33.634,3.319-10.732,4.016-21.978,8.561-32.439,7.6-17.496,39.858-61.022,60.623-60.348,23.55.764,24.791,30.213,11.555,44.026Z"/>
  <path class="cls-6" d="M513,46h19.5c1.669,0,14.331,4.235,16.762,5.238,28.158,11.609,41.539,45.804,46.733,73.757-12.416-3.223-24.854-6.215-37.623-7.867-12.871-1.665-26.023-1.589-38.867-3.133-34.569-4.156-67.767-13.623-102.71-7.7-1.511.256-11.714,3.583-11.808,2.192,3.904-12.091,6.983-26.822,15.187-36.814,12.474-15.193,57.28-27.437,76.367-25.715,17.353,1.566,26.255,30.029,28.338,44.663.463,3.251-.084,20.506,3.636,21.374.969.226,2.486-1.139,2.486-1.496v-21c0-4.734-4.515-19.551-6.517-24.483-2.824-6.956-7.129-12.995-11.483-19.017Z"/>
  <path class="cls-7" d="M615.789,210.203c2.065,48.069-14.761,98.185-43.971,136.114-1.322,1.716-5.259,7.949-7.179,7.606-1.33-.237-15.559-17.208-14.638-17.913,6.08.427,11.805,2.794,18.003,1.985.487-9.605-13.158-11.618-20.008-15.013,8.227-19.786,20.851-38.5,25.931-59.557,2.675-11.09,4.163-24.249-1.925-34.415,13.149-1.934,22.918-15.938,26.012-28.01l17.775,9.202Z"/>
  <path class="cls-7" d="M294,755.01c-7.587-2.076-12.966,2.676-20.777,3.712-1.181.157-5.195,1.291-5.215-.709,22.665-12.988,43.251-32.94,54.006-57.01.839-.632,6.313,4.104,7.462,5.021,10.602,8.459,23.769,19.239,33.537,28.462,1.015.959,3.826,2.769,1.995,4.021-3.016,2.063-19.634,3.88-24.833,5.168-37.358,9.258-76.377,29.152-104.069,55.849-5.419-.765-42.794-13.711-42.972-16.004,2.667-2.268,3.791-14.016,5.442-14.429,10.2,2.748,21.131,6.188,31.84,4.826,12.426-1.58,47.709-12.154,60.2-16.801,1.276-.475,3.069-.22,3.382-2.107Z"/>
  <path class="cls-6" d="M921,406.99c-32.568,4.082-64.57,18.128-90.472,38.038-9.486,7.291-17.776,16.513-28.044,22.917-1.268-.11-12.725-20.343-13.013-21.869-.585-3.1,8.519-9.964,11.057-12.049,30.978-25.444,70.069-44.956,109.43-53.02l11.043,25.983Z"/>
  <path class="cls-6" d="M517.995,121.005c.652,2.34-.611,1.689-1.276,2.281-13.866,12.341-43.697,24.601-62.232,25.701-29.897,1.774-58.337-15.397-89.882-11.881-6.922.772-14.408,4.709-21.601,4.884.038-1.477,2.815-1.893,4.049-2.435,24.967-10.954,62.481-26.171,89.404-27.597,27.602-1.462,54.245,8.032,81.537,9.047Z"/>
  <path class="cls-3" d="M764.999,833.006c2.158,2.096-17.503,26.618-19.631,29.863-16.197,24.695-25.908,54.454-32.38,83.135-2.981-.919-22.134-7.058-22.816-8.167-2.826-4.592,10.422-41.993,13.08-49.083,6.476-17.273,21.356-48.799,34.708-61.292,8.13-7.606,16.918,7.332,27.038,5.545Z"/>
  <path class="cls-7" d="M907.993,782.013c.241,1.919-1.75.455-2.805.31-5.38-.741-10.51-2.31-15.846-3.164-18.41-2.945-37.091-3.745-55.106-8.894-25.068-7.165-48.109-22.936-74.923-26.077l-69.305-33.179c23.06,3.751,43.503,16.802,65.777,22.707,16.775,4.448,34.414,5.027,51.404,8.596,35.619,7.481,68.695,23.243,100.804,39.702Z"/>
  <path class="cls-3" d="M967.01,789c3.208-14.296,12.27-26.323,9.985-41.995-1.787-.394-1.974.526-2.833,1.657-4.395,5.785-5.733,16.207-13.152,20.338,3.093-14.237,6.707-29.182.765-43.275-1.814-4.303-6.672-8.117-6.841-12.241-.097-2.378,4.502-16.368,5.667-16.562,4.948-.825,14.496,13.869,16.915,18.062,13.749,23.823,16.506,58.772-10.507,74.017Z"/>
  <path class="cls-3" d="M799.995,797.005l-27.718,28.829c-3.596.931-24.759-7.536-25.207-9.434-.677-2.873,17.673-18.503,21.019-20.811,1.73-1.193,5.093-3.725,6.91-4.171,6.04-1.48,18.202,6.36,24.996,5.587Z"/>
  <path class="cls-6" d="M559.989,368.004c-2.024,1.452-27.455-13.372-32.583-13.981-6.383-.757-10.654,5.369-16.4,6.972l-2.087-15.396c5.781-.595,12.777-12.729,17.356-11.45l34.233,26.854c1.388,2.23-.111,4.736-.519,7Z"/>
  <path class="cls-3" d="M949.994,731.996c.511.602,2.879,13.78,2.986,15.515.836,13.491-4.749,24.199-9.039,36.454-1.397,1.015-14.451-4.39-16.679-5.7-.877-.516-1.52.163-1.273-1.701l21.77-43.275c-.285-1.539,1.891-1.699,2.236-1.293Z"/>
  <path class="cls-3" d="M664.997,609.993c-5.409,1.727-9.913.492-15.33-.159-6.397-.769-21.79-2.742-27.162-4.838-1.168-.456-2.884-.789-2.499-2.481.435-1.912,12.226-9.516,14.346-9.306.885.087,11.886,6.509,14.291,7.65,3.892,1.845,11.642,4.164,14.72,6.28,1.189.817,1.983,1.175,1.635,2.855Z"/>
  <path class="cls-6" d="M939.987,499.993l-11.977-52.992c12.459,14.834,21.776,34.108,11.977,52.992Z"/>
  <path class="cls-3" d="M823.997,782.014c1.497,1.545-.504,1.722-1.286,2.227-1.557,1.006-10.936,5.633-12.192,5.658-4.698.092-12.935-6.069-18.515-4.909.279-1.339,3.136-2.559,4.334-3.152,2.09-1.034,8.235-3.672,10.232-3.766,1.627-.076,16.805,3.3,17.427,3.942Z"/>
  <path class="cls-2" d="M153.995,561.995c-1.986.01-13.428-1.519-13.894-2.092-.377-.463-.639-10.051-1.096-11.898,4.257-1.725,17.548,11.53,14.99,13.99Z"/>
  <path class="cls-7" d="M409,206.5c-.863-5.176-6.861-9.837-9-14.49l6.995-.005-.989,4.991,2.984-.995c-2.254,5.642,3.064,9.012,3.845,11.73.608,2.116-.745,6.92-1.33,9.273-.363,1.463-1.065,5.502-2.506,5.996-.586-5.062.804-11.677,0-16.5Z"/>
  <path class="cls-6" d="M499.5,354c2.699.811.296,5.998.406,8.498,1.145,26.067,14.164,3.799,24.577,3.659l31.105,9.804c-2.069,26.543,13.071,54.231,31.118,72.834,7.569-.428,14.95,2.228,22.292.198.353-1.8-.855-2.542-2.266-3.224-6.271-3.031-16.045-.608-21.168-6.832-3.343-4.061-10.006-17.311-12.419-22.581-20.972-45.807-2.108-49.868,19.878-84.836,16.665-26.504,29.607-59.721,32.967-91.033,1.999-18.627,2.749-38.326-7.988-54.478,14.29,2.288,25.28,15.009,30.858,27.632,8.972,20.306,10.495,49.729,11.183,71.817.116,3.716.679,44.572-1.556,44.556-13.865-4.632-30.108-10.705-44.985-9.015-15.451,1.755-1.695,15.916-5.712,22.8-.687,1.178-19.711,11.376-23.268,14.222-9.425,7.543-16.512,16.815-15.518,29.497.063.807-.509,3.47,1.483,2.473,2.32-1.162,10.907-19.498,17.504-19.991-.079,11.509,4.168,23.673,7.991,34.519,2.126,6.032,5.452,16.064,8.827,21.173,2.187,3.31,6.167,6.024,4.959.045-2.495-12.355-10.217-27.244-14.034-39.971-1.315-4.383-5.795-17.574-4.57-21.1,1.333-3.839,22.582-11.209,24.904-15.099,2.093-3.507.421-9.49.928-13.572,5.92.19,12.646.327,18.494,1.016,6.929.816,23.742,5.612,29.26,3.23,1.062-.458,2.082-1.306,2.701-2.291,3.959-6.298,3.792-29.408,3.598-37.498l-4.044-52.447c21.824,1.119,43.559,5.89,65.267,7.833l2.719-2.354c.637-1.704-2.884-2.544-4.023-2.942-19.092-6.669-44.853-4.863-64.78-9.725-2.173-7.756-3.002-16.407-5.47-24.034-2.127-6.573-6.403-11.407-7.713-17.778,11.152.264,22.381-.357,33.538-.046,54.476,1.519,114.461,8.105,151.434,52.566,29.539,35.522,48.24,82.588,68.016,123.984-45.586,8.124-86.829,31.313-120.517,62.473-1.991.414-1.209-.433-1.693-1.257-31.051-52.874-70.22-135.629-29.597-193.04,12.249-17.312,18.948-18.188,38.32-22.7,1.544-.359,1.741.672,1.5-1.979-27.828-6.669-49.077,18.271-57.769,41.73-12.9,34.816-7.386,74.284,3.742,108.776-6.257-4.059-8.106-11.989-12.17-17.819l-14.807-42.693v26.5c0,16.931,26.613,50.181,35.168,65.832,5.464,9.995,9.994,21.821,14.545,32.327-4.416,19.618-19.065,34.283-26.709,52.336,2.754,2.504,17.87-10.572,20.522-12.968,5.759-5.203,10.844-11.2,15.974-17.006,1.394-.005,9.75,22.16,11.659,25.321,2.309,3.824,13.191,13.267,12.895,16.109-.203,1.948-13.666,18.123-16.078,21.025-3.361,4.044-16.719,20.175-20.051,21.949-6.24,3.321-27.984,1.12-36.465,1.535-4.643.227-9.509,1.856-14.454,1.046-.55,3.298,1.185,3.812,3.761,4.729,9.684,3.447,23.431,4.545,33.75,5.265,1.09.076,3.33-.555,2.476,1.487-.803,1.92-16.614,15.194-19.519,17.486-5.297,4.178-21.156,16.347-26.95,17.05-15.87,1.927-46.323-5.344-61.196-11.849-2.879-1.259-17.778-8.922-19.034-10.455-1.314-1.604-2.553-8.797.192-7.708,3.817,1.515,9.598,6.27,14.549,8.456,10.738,4.742,48.124,15.577,58.295,12.36,1.321-.418,1.938-1.449,1.672-2.82-24.888-6.03-49.388-15.054-69.895-30.611-9.937-7.538-20.249-16.815-26.615-27.375,19.414,7.731,39.461,15.513,60.287,18.703,7.286,1.116,34.308,4.051,39.511,1.062.941-.54,2.589-1.582,1.708-2.777-1.081-1.467-31.023-4.486-36.029-5.475-73.171-14.453-148.525-69.345-184.137-134.863-5.803-10.676-9.475-22.298-14.973-33.027-9.076-17.712-5.067,3.859-3.354,10.354,3.777,14.318,11.375,27.211,16.488,41.002-17.388-12.255-32.526-27.367-44.5-44.98,2.122,24.65,21.793,43.638,41.204,56.785l15.3,8.184c-17.401.056-35.109-2.702-51.76-7.725-4.132-1.247-24.896-10.27-27.231-8.259-.419,1.924.981,2.389,2.091,3.399,19.255,17.52,52.741,23.173,77.899,22.601.452,1.736-.723,1.997-1.49,3-6.644,8.678-22.333,11.055-30.84,17.16-1.379.989-3,1.796-2.665,3.835h15.5l30.495-7.995c.627.619-2.529,6.132-3.187,7.302-2.172,3.862-11.757,19.575-14.324,21.677-3.555,2.912-22.184-1.254-27.494-2.473-19.017-4.365-51.265-18.109-65.46-31.541-1.918-1.815-4.182-3.615-4.458-6.468,17.936-32.337,22.845-69.899,37.462-103.47,2.381-5.468,11.599-24.381,15.45-27.551.792-.652,1.435-1.09,2.008.042,1.762,3.481,2.197,11.742,3.731,16.255,2.309,6.792,13.256,20.221,20.779,20.221,5.967,0,26.029-1.193,30,0Z"/>
  <path class="cls-5" d="M678.995,862.005c1.255,1.256-3.505,6.839-4.481,8.009-27.841,33.375-85.317,66.012-129.026,68.966-4.918.332-12.672-.341-5.037-4.029,11.189-5.406,26.447-9.341,38.518-14.482,26.806-11.416,54.219-26.152,77.946-43.054,2.647-1.886,20.091-17.4,22.081-15.408Z"/>
  <path class="cls-5" d="M665.761,363.261c42.978-6.255,78.905,58.676,39.553,84.554-40.529,26.652-92.902-32.715-61.826-70.826,4.878-5.982,14.569-12.606,22.273-13.728Z"/>
  <path class="cls-5" d="M775.01,398l25.979-82.994c2.523,28.756-4.152,62.728-25.979,82.994Z"/>
  <path class="cls-5" d="M908.996,498.995c.342.329.144,8.06-.007,9.494-2.112,20.063-34.963,44.367-51.943,53.056-8.403,4.3-19.853,9.083-29.045,10.445,5.053-7.212,14.46-9.462,21.671-13.819,17.748-10.723,38.995-25.189,49.749-43.251,2.444-4.104,5.003-13.297,6.492-15.324.632-.861,2.809-.866,3.083-.601Z"/>
  <path class="cls-5" d="M771.994,630.009l-12.103,10.382c-4.065,3.04-28.534,19.003-31.893,15.604-.392-.397-.095-2.218.662-3.046,1.196-1.308,9.379-5.776,11.669-7.12,10.095-5.924,20.965-11.076,31.665-15.82Z"/>
  <path class="cls-5" d="M663.002,629.01c.942,3.043-3.581,2.17-5.492,1.979-11.621-1.162-23.088-9.26-35.513-5.995-1.78-7.072,8.684-4.477,13.232-3.724,9.487,1.571,18.4,5.779,27.773,7.739Z"/>
  <path class="cls-5" d="M667,644.99c-9.16-1.801-16.686-5.511-26.493-3.984-1.802-3.654.958-3.816,3.943-4.058,7.039-.569,18.554,1.703,22.55,8.041Z"/>
  <path class="cls-5" d="M149.759,749.248c1.326,1.544.98,7.459,1.253,7.74,1.696,1.749,14.813-2.913,17.983-1.983-3.105,17.366-35.692,20.103-30.999-.999-7.947,2.607-14.998,5.697-7.546,14.042,7.473,8.369,20.732,10.553,30.54,4.952-6.635,20.156-47.288-.294-38.043-16.553,3.266-5.743,22.808-11.865,26.812-7.2Z"/>
  <path class="cls-5" d="M222.952,595.033c3.104,6.206-2.128,9.694-3.95,14.96,6.778,1.71,18.386.056,23.66,5.345,3.673,3.684,7.934,24.108,4.247,26.566-6.178,4.117-6.223-11.545-7.436-14.876-4.608-12.651-17.516-8.145-27.956-9.044-9.131-.786-25.677-2.847-24.511-14.979,8.234,2.585,14.607,9.271,23.356,2.857,4.163-3.052,6.034-11.374,12.591-10.829Z"/>
  <path class="cls-5" d="M142,676c-14.82-12.509-3.097-41.682,8.506-52.994,8.55-8.336,18.569-11.172,10.678,4.678-3.693,7.418-19.184,23.521-19.184,30.816v17.5Z"/>
  <path class="cls-5" d="M271.734,643.223c2.554-.521,7.196-.756,6.124,3.112-.296,1.067-11.467,11.451-13.688,14.335-3.838,4.983-7.323,11.278-10.027,16.973-1.329,2.798-4.027,15.056-7.627,14.353-2.194-1.428-1.05-2.122-.874-3.805,1.113-10.672,14.635-42.63,26.093-44.966Z"/>
  <path class="cls-5" d="M164.005,674.995c-2.377-2.513,11.812-17.352,13.815-20.675,1.332-2.209,3.814-9.907,4.27-10.221,1.67-1.149,4.468.032,4.926,2.413,1.518,7.903-13.185,29.148-23.011,28.483Z"/>
  <path class="cls-5" d="M286.995,656.005c1.99,2.006-6.939,12.712-8.598,14.891-3.218,4.224-7.304,10.676-12.391,12.099-1.948-2.156,9.729-19.894,12.016-22.474,2.494-2.812,4.864-5.058,8.973-4.517Z"/>
  <path class="cls-5" d="M212.981,645.007c1.103.938,3.56,7.692,6.494,10.018,2.551,2.023,5.669,2.277,8.52,3.47-9.558,7.538-19.3-2.555-17-12.992-.118-.867,1.864-.599,1.986-.495Z"/>
  <path class="cls-5" d="M234.995,635.005c.959.991-3.052,15.41-4.191,17.299-.88,1.461-2.888,2.641-3.799,1.692-1.62-1.687.563-20.972,7.99-18.991Z"/>
  <path class="cls-5" d="M453.759,255.259c17.193-2.325,40.032,8.633,42.164,27.334,1.604,14.07-13.685,27.852-27.436,26.442-15.679-1.607-15.117-22.353-22.643-31.378-3.154-3.781-11.899-5.811-9.108-12.373,2.304-5.415,11.524-9.282,17.023-10.026Z"/>
  <path class="cls-5" d="M559.005,178.995l5.791-15.694c3.557-6.138,8.204-9.453,15.649-8.241,9.686,1.578,12.745,20.145,9.054,19.92-.851-.052-8.455-12.073-11.219-12.837-3.973-1.098-9.134,4.985-6.779,8.856.706,1.16,4.857,2.836,6.492,4.508,9.127,9.334,1.935,30.473-10.438,28.498-8.824-1.408-.006-11.343.42-13.523,1.446-7.41-.911-12.24-8.97-11.488Z"/>
  <path class="cls-5" d="M497.995,307.005c-1.639,16.35-36.891,24.78-39.943,7.434-1.141-6.488,3.924.988,4.258,1.243,5.868,4.478,16.506,1.743,22.668-1.204,4.923-2.354,7.686-7.253,13.017-7.473Z"/>
  <path class="cls-5" d="M453.657,222.342c2.598,2.491,8.669,15.154,3.832,16.652-4.507,1.396-5.632-9.539-7.767-11.716-1.568-1.599-13.819-2.945-9.134-6.343,2.881-2.09,10.323-1.227,13.069,1.407Z"/>
  <path class="cls-5" d="M514.99,292.995l-14.989-30.985c1.882-.407,2.43.932,3.421,2.069,5.985,6.867,11.656,19.784,11.568,28.916Z"/>
  <path class="cls-5" d="M470.997,204.015c3.083,3.318-10.326,3.095-11.511,2.986-2.79-.259-7.607-2.451-3.007-3.006,2.099-.253,13.663-.899,14.518.02Z"/>
  <path class="cls-5" d="M406.99,528.995l-19.501-42.974c14.113,9.221,20.57,26.554,19.501,42.974Z"/>
  <path class="cls-5" d="M418.995,516.995c-1.971,1.738-10.15-6.967-8.99-7.989,2.518-1.381,10.074,7.034,8.99,7.989Z"/>
  <path class="cls-5" d="M70.004,696.003c-1.288-1.234,1.026-31.292,1.976-35.539.221-.99-.628-3.316,1.505-2.454,6.131,2.478,4.967,31.391,1.436,36.411-.989,1.406-4.086,2.378-4.916,1.583Z"/>
  <path class="cls-5" d="M582.995,308.995c-2.126.406-2.329-.994-3.055-2.435-4.134-8.199-6.225-21.444-7.929-30.556,1.582.799,3.088,4.012,3.869,5.617,3.987,8.198,6.263,18.282,7.116,27.373Z"/>
  <path class="cls-4" d="M672.779,370.276c41.565-.882,60.621,72.284,15.711,76.715-52.204,5.151-64.646-75.676-15.711-76.715Z"/>
  <path class="cls-4" d="M467.999,264.989c-8.096,1.006-15.847,6.484-23.994,5.005,2.747-8.232,17.761-10.412,23.994-5.005Z"/>
  <path class="cls-4" d="M484.994,294.005c2.528,2.457-13.943,11.298-16.994,8.985,1.082-2.79,16.125-9.83,16.994-8.985Z"/>
  <path class="cls-6" d="M678.5,439c-.181-.008-.822,1.008-1.52.574-3.423-5.552-4.181-12.365-6.028-18.547-1.132-.813-14.116,4.954-18.016.538-1.676-1.898-5.415-17.42-3.292-18.613,3.377-1.898,11.201-.161,15.271-2.031,1.591-1.87-4.483-17.563-4.911-20.915,4.86,1.5,16.485-3.884,20.037-1.54,2.645,1.745,2.652,16.487,4.099,17.391,2.983,1.863,15.634-3.949,18.678.825,1.453,2.278,6.314,16.327,4.196,17.825-2.281,1.613-15.044,2.302-15.941,3.578l4.927,20.916c-5.805-.194-11.691.267-17.5,0Z"/>
</svg>