<?xml version="1.0" encoding="UTF-8"?>
<svg id="Layer_1" data-name="Layer 1" xmlns="http://www.w3.org/2000/svg" viewBox="0 0 1025 1025">
  <defs>
    <style>
      .cls-1 {
        fill: #1471a1;
      }

      .cls-2 {
        fill: #fefefe;
      }

      .cls-3 {
        fill: #083045;
      }

      .cls-4 {
        fill: #924f22;
      }

      .cls-5 {
        fill: #0c0806;
      }

      .cls-6 {
        fill: #d72827;
      }

      .cls-7 {
        fill: #1b130a;
      }

      .cls-8 {
        fill: #eeb274;
      }
    </style>
  </defs>
  <path class="cls-2" d="M389,1025H0V0h1025v1025h-1c-.777-.093-1.928-.322-2-.888-.669-5.235-.72-22.511,0-27.674l2-1.437c-1.961-4.639-1.972-9.364,0-14-.512-1.987-.983-3.98-1.31-5.997-.324-2.004-.614-4.002-.633-6-.152-15.968-.092-32.035.119-48.002.054-4.059.931-8.056,1.824-12l-1.981-1.529c.134-1.744.496-10.267-.636-10.727-29.307-8.628-57.512-19.377-84.613-32.246-32.572-5.41-64.906-13.303-96.776-23.677-45.121-11.562-91.171-18.675-136.636-25.63-15.912-6.526-31.93-13.712-48.053-21.559-2.862-1.256-2.382-2.6-1.254-4.953.558-1.165,20.135-10.896,22.812-11.838,2.169,1.295,2.787,4.272,1.856,8.93,6.183,24.629,47.138,19.151,66.092,13.305,6.429-1.983,28.296-11.158,11.276-14.798l-2.482-1.901c12.546-26.6,6.622-56.024-5.256-81.196,8.124-20.497-1.855-48.992-20.952-60.232-20.434-12.027-36.18,2.395-50.495,16.484-3.147.39-4.803.377-3.907-2.963,8.28-18.312,14.449-37.135,16.697-57.157,4.025-35.841-8.738-67.478-22.647-99.593-.074-1.332.257-2.569.955-3.72l.953-2h353.807l1.241,2c-3.096-.477-2.958-8.258,0-9-.791,3.301-12.621,3.04-14,0l-.994-2.19c10.481-10.761,10.264-16.93,7.128-31.694-5.126-24.133-14.101-52.036-22.507-75.371-10.976-30.472-20.655-50.18-51.902-64.053l-39.463-15.903c-2.777-.986-3.853-3.364-1.926-5.427,12.119-4.486,14.723-8.18,14.992-20.952l7.435-33.124c5.984-22.479,5.82-43.119-.556-64.786,4.205-11.637,4.598-23.151,1.181-34.544.048-2.095,1.497-2.575,3.53-2.542,29.265,11.365,67.408-13.657,15.884-25.585-9.147-1.73-18.103-3.98-26.867-6.748l-9.232-20.494c-18.989-46.012-91.597-42.167-126.425-18.806-27.138,18.203-38.038,59.285-31.525,90.085,3.835,8.34,6.537,14.585,3.178,23.697,1.381,4.802,1.114,8.962-.799,12.481-9.254,6.633-11.976,13.942-8.163,21.925l11.232,18.412c3.548,7.542,2.527,15.896-3.063,25.061l-.182,4.555c4.221,19.038-4.107,23.569-19.911,29.154-30.016,7.56-59.437,20.469-84.754,37.778l-2.292-.928-2-.955V2.243l2-1.243c-.477,3.096-8.258,2.958-9,0l2,.699v239.069l-2,1.233-5.028-.103c-34.199-14.97-72.286-15.659-108.792-11.031-6.863-6.731-14.261-12.746-22.194-18.045l-.04-2.84c6.05-9.505,9.006-20.095,8.869-31.77,13.57-13.623,10.458-41.663,7.06-59.411-7.954-41.541-58.14-61.311-96.737-56.273-26.071,3.403-36.444,15.798-50.454,35.119-9.286,1.556-18.994,1.935-29.123,1.137-11.146.197-32.215,1.54-30.396,17.17,2.267,19.483,29.006,24.889,44.928,27.046.86.908,3.113,22.633,2.824,24.746-1.624,11.891-6.022,11.596-13.472,3.555-5.419.932-10.762.069-16.029-2.589-4.344,4.546-9.186,8.104-14.526,10.674-19.363,34.449-26.634,77.289-25.915,117.291-.699,7.957-4.823,14.96-10.016,20.816l-42.6,42.76c-9.376,10.077-17.197,21.63-22.012,34.607-4.722,12.726-14.234,43.713-6.268,56.173,21.988,34.394,68.708,11.172,95.034-4.562,8.246-4.137,17.559-7.198,26.862-5.617l49.372-29.877c3.24-1.162,4.582.905,6.281,3.911l17.28,28.401c9.937,11.356,18.428,23.443,25.473,36.262,1.954,9.361,3.329,19.158,4.3,28.458l-2.986.655c-29.57-5.974-59.319-10.315-89.248-13.024-83.063-1.885-69.922,65.686-53.045,123.003,11.155,31.544,21.329,63.277,30.523,95.196,2.787,8.646,1.176,13.256-4.834,13.828-10.198-.386-19.876,2.117-29.034,7.509-3.708,1.109-9.89,2.52-9.861-2.982l3.381-15.707c1.665-11.794.135-16.079-8.537-24.316-16.73-15.891-39.183-31.411-59.531-41.887-12.587-.605-22.602-5.23-30.046-13.874-15.358-6.214-31.924-9.48-49.698-9.798-25.737-42.095-63.753,5.661-77.037,32.714-7.122,14.505-7.902,27.346-8.857,43.381-10.786,27.985,2.03,57.217,14.567,82.454l-2.172,2.18c-24.571,9.21,3.76,22.885,16.594,25.056l38.281,7.559c15.607,7.286,28.817,8.408,45.859,5.911,10.805.715,44.054,11.384,44.589,23.737-12.96,19.275-13.57,37.88-8.537,60.553-5.308,24.579,22.58,38.77,41.203,48.113,38.398,18.571,76.596,37.69,114.594,57.357,4.634,1.629,8.298.225,10.994-4.212,4.72-1.854,28.65,7.607,31.925,11.092l.231,2.492Z"/>
  <path class="cls-5" d="M389,1025c-5.009-3.293-27.436-14.299-32.001-11.499-1.268.778-1.44,3.614-3.682,4.309-2.215.687-6.003.388-8.266-.364-35.44-20.709-73.954-35.538-110.073-54.924-13.2-7.085-44.11-22.556-46.741-38.259-.806-4.809.28-10.002-.254-14.746-1.763-15.657-5.652-26.391-.492-42.524,1.34-4.191,9.139-16.496,9.152-17.483.036-2.655-5.056-7.831-7.312-9.342-3.813-2.553-25.606-11.156-30.065-11.927-8.323-1.44-20.911,1.839-30.656.649-6.22-.76-13.055-4.878-19.406-6.594-16.834-4.549-55.338-6.691-65.745-21.252-6.243-8.735,3.014-13.645,10.541-16.059-11.277-17.475-21.553-47.534-18.918-68.401.539-4.268,3.113-9.525,3.813-14.186,1.607-10.692.468-20.159,3.822-31.178,9.144-30.035,56.688-94.139,84.986-46.201,13.523.839,31.226,2.332,44.074,6.703,8.872,3.018,10.146,9.138,15.945,12.055,5.595,2.813,15.013,2.789,21.644,5.356,11.212,4.341,55.835,37.362,63.156,46.844,9.737,12.61,1.812,24.634.471,38.028,8.924,1.4,16.493-6.483,24.745-7.763,5.203-.807,10.882.227,16.202-1.292.274-2.065.093-4.139-.201-6.196-8.022-56.196-100.245-216.611,9.771-224.74,35.87-2.65,70.335,8.64,105.487,12.977-4.506-8.499-2.585-19.88-6.099-28.39-4.102-9.936-18.511-25.109-25.121-34.879-6.938-10.254-12.448-21.388-19.376-31.645l-51.147,30.679c-18.67-2.617-32.645,10.269-48.582,17.418-21.226,9.521-45.867,17.807-66.152,1.805-17.709-13.97-13.215-27.18-9.032-46.989,8.839-41.861,26.955-54.402,54.984-83.016,9.962-10.17,24.142-20.123,25.51-35.49,1-11.221.109-23.851,1.026-34.974,1.448-17.567,6.37-34.608,11.724-51.276,2.393-7.447,8.671-29.714,14.898-33.099,7.052-3.834,3.738.207,9.358-6.637,6.618-8.059,9.888-1.062,14.58-.48,2.527.313,4.389-1.524,7.456-.615,2.486.737,6.888,6.58,7.473,6.579,7.894-9.54-.258-21.034,1.445-31.93-16.612.084-45.759-9.246-45.853-29.67-.11-23.836,44.715-16.031,59.2-17.587,3.011-.878,11.14-14.409,14.195-17.805,33.095-36.777,117.659-17.148,134.533,28.491,5.212,14.097,8.427,52.288,1.015,65.058-1.548,2.668-4.143,3.604-5.143,5.857-1.981,4.467-.354,12.093-1.952,18.048-1.529,5.696-6.123,9.873-7.516,15.582,9.578,3.337,13.822,11.391,21.132,16.997,37.964-5.291,78.447-3.744,113.443,12.98V1h9v324l24.328-15.172c12.778-6.141,25.76-12.119,39.153-16.847,9.253-3.267,32.293-7.861,38.037-13.963,8.402-8.927,2.281-14.778,3.575-24.435.69-5.153,6.055-12.406,5.851-16.998-.4-9.014-16.087-23.109-16.032-34.094.047-9.295,11.697-13.188,12.053-19.04.131-2.154-1.129-4.969-1.03-7.957.112-3.382,2.111-6.88,1.85-9.766-.339-3.754-4.552-10.483-5.53-15.484-5.071-25.944,3.619-62.089,22.221-81.269,24-24.746,71.782-30.903,103.745-21.697,26.111,7.521,35.879,29.162,45.03,52.47,10.944,3.888,49.537,7.733,52.541,20.964,3.584,15.784-22.956,18.287-33.335,17.329-4.316-.398-7.398-2.176-11.453-3.037,1.815,6.969,3.741,12.991,2.885,20.388-.553,4.782-3.692,10.373-3.685,15.108.01,6.148,4.154,14.525,4.786,21.007,2.381,24.398-6.895,53.237-11.701,77.282-1.399,6.998.494,13.24-6.334,17.666-1.079.699-11.023,4.126-9.954,5.531,14.145,6.787,29.429,11.324,43.674,17.836,38.043,17.392,45.861,48.423,57.59,85.41,5.651,17.819,17.36,51.661,17.798,69.253.25,10.06-5.576,11.902-10.064,19.513h14v9h-356c3.067,10.914,8.827,21.015,12.747,31.753,12.535,34.333,15.689,60.852,6.175,96.669-3.179,11.966-7.94,23.288-12.912,34.578,7.306-4.701,12.277-12.235,19.688-16.802,33.698-20.767,63.656,20.483,59.214,52.215-.389,2.777-2.718,5.935-2.658,7.913.088,2.925,5.216,11.709,6.47,15.451,4.558,13.605,7.333,32.496,5.154,46.601-1.077,6.972-3.394,13.529-6.877,19.609,15.27,3.116,10.541,9.943-.33,15.184-18.77,9.049-44.272,12.482-63.931,4.59-11.388-4.572-16.099-11.003-13.228-23.739l-23.504,12.965c7.827,3.047,15.856,6.373,23.35,10.155,18.476,9.324,19.009,11.737,41.267,14.733,41.058,5.527,78.583,11.852,118.797,22.203,20.594,5.301,40.978,12.649,61.565,17.435,12.404,2.884,28.277,3.718,39.552,7.448,8.557,2.831,18.209,9.156,27.215,12.785,18.493,7.453,38.146,11.909,56.661,19.339,2.721,1.973,1.51,10.237,1.586,13.914l-5.135.521c-27.928-6.27-53.238-15.522-77.546-29.92-10.667-6.129-21.589-6.066-33.426-5.826l-8.369-1.457c-73.291-26.669-151.104-40.892-228.087-53.662-8.084-1.341-25.791-4.032-33.213-1.821-2.66.793-13.376,6.508-10.458,8.981l42.631,18.653,12.963,10.746c-6.098-6.764-26.522-31.893-3.069-20.973,12.304,8.647,23.277,22.979,23.406,38.501,2.856-7.199,5.121-14.675,6.795-22.429,8.74-22.263,16.112-5.796,9.36,9.255-2.707,5.996-4.79,12.071-6.25,18.224,12.401,3.808,24.988,7.151,37.761,10.028,4.625-.938,7.757-.089,9.394,2.547l81.351,22.657c.934-2.768,3.696-1.475,5.562.9,5.728,2.013,13.709,3.722,18.827,1.085,21.058,8.597,41.599,18.359,61.623,29.287l11.911,4.742c-.807-8.475-3.172-17.599-7.093-27.372-6.275-21.478,6.678-16.711,12.099-2.422,4.793,11.902,9.14,23.866,13.043,35.892l64.864,23.357,1.056,2.506c-.013,4.656.009,9.344,0,14l-3.329.203c-19.647-6.043-39.588-12.178-59.014-19.167-25.37-9.128-50.646-18.346-72.589-33.795-19.038-8.101-39.142-13.328-60.312-15.683-32.289-8.542-64.279-18.312-95.97-29.309-28.878-8.368-64.63-18.623-92.571-4.183l-28.426,17.098c-13.93,4.967-7.275-6.349-1.878-12.409,18.507-20.781,46.369-27.158,73.223-25.886-4.406-12.054-56.133-39.28-65.801-36.956-5.05,1.214-27.141,27.766-30.298,32.964-12.52,20.614-22.237,42.91-28.887,66.117-1.476,5.15,21.195,14.778,25.686,16.347-1.365-5.582-3.41-30.751,4.204-31.835,2.626-.374,3.782,1.954,4.144,4.269l3.455,24.089c2.768,12.905,3.72,13.625,16.009,18.843,66.626,28.284,139.041,39.054,210.52,48.335,3.123.636,27.197,6.069,25.654,9.234-.4.821-.897,1.438-1.82,1.723h-28c-40.694-4.756-81.022-12.538-121.158-20.515,9.541,5.406,19.389,10.229,29.543,14.47,3.544.861,10.042,3.213,4.615,6.045h-19l-7.678-2.168c-17.663-9.874-37.143-17.859-57.735-17.051-34.024,4.279-66.67,2.288-99.267-9.58l-58.154-19.966c-22.766-8.604-46.385-12.383-69.67-14.913-8.048-4.46,3.154-8.185,8.07-7.689-4.917-4.427-10.879-7.99-17.885-10.689-11.844-14.095-20.821-5.635-30.301,6.011-7.59,9.324-29.21,41.149-13.068,49.38,18.323,7.765,36.646,15.876,54.971,24.333l1.718,2.333h-34Z"/>
  <path class="cls-3" d="M846,1025c.149-2.88-1.543-2.466-3.352-3.152-26.162-9.919-66.255-11.414-94.834-16.163-36.236-6.021-71.044-14.164-105.368-26.632-10.725-3.896-32.836-11.014-41.694-16.306-10.007-5.978-8.207-42.807-12.254-42.727-7.657,9.804-2.501,22.697-2.51,33.98-6.026-3.407-27.782-11.486-29.591-17.981-.296-1.063-.451-1.974,0-3.029,8.653-26.612,18.179-53.196,35.622-75.469,2.895-3.697,21.702-24.086,24.533-24.537,6.517-1.038,32.021,10.5,38.745,14.219,11.155,6.169,26.835,15.764,31.697,27.793-23.298-3.678-49.272,1.854-67.911,16.589-8.607,6.804-25.142,27.562-1.773,13.227,17.992-11.036,30.473-22.064,54.14-20.757,6.306.348,12.762.138,19.758,1.239,42.515,6.691,87.305,26.844,129.576,37.424,23.287,5.828,48.043,6.338,69.234,17.766,5.175,2.791,10.173,6.907,15.311,9.689,36.901,19.983,79.418,30.354,118.671,44.829v30h-139l-2.236-.639-8.364-31.84c-.833,10.163-1.157,20.195,2.181,30.124l-1.582,2.355h-29Z"/>
  <path class="cls-8" d="M423,1025c-15.976-8.02-33.246-13.438-49.359-21.141-6.937-3.316-15.557-5.303-15.367-14.086.361-16.763,19.122-47.169,34.026-54.974,9.844-5.156,11.906,2.705,19.377,7.024,2.657,1.536,6.088,2.35,9.014,3.986,3.697,2.066,6.589,6.32,11.308,6.201-.547,1.506-2.484,3.082-3.942,3.547-1,.318-11.719.539-9.053,3.428,1.145,1.24,21.481,2.668,25.221,3.29,54.7,9.091,117.384,45.845,170.316,43.766,13.704-.538,27.116-3.011,41-2.082,19.533,1.306,39.982,11.049,56.459,21.041h-25c-6.005-3.543-12.909-5.892-20.714-7.045,4.833,1.946,7.071,4.295,6.714,7.045h-250Z"/>
  <path class="cls-3" d="M731,1025c.472-4.008-.175-2.367-2.353-3.107-20.418-6.943-38.02-21.349-59.612-25.428-28.056-5.3-56.747,3.394-85.03-3.97-6.016-1.566-11.996-4.714-17.947-6.053-5.552-1.249-8.564,1.702-11.561-4.439-6.456-13.228-1.352-23.333-1.487-37.003,7.322,8.532,33.586,11.579,37.489,21,1.978,4.773,1.448,13.489,8.202,15.799,8.245,2.82-2.64-10.302,3.798-10.834,28.94,10.966,57.88,22.391,88.079,29.956,24.471,6.131,50.687,9.879,74.788,14.192,17.556,3.142,35.254,5.92,52.634,9.886h-87Z"/>
  <path class="cls-5" d="M885,1025h-10c-.814-4.877-2.635-9.47-3.036-14.464-.211-2.621-.284-25.515,2.536-25.516l10.5,39.98Z"/>
  <path class="cls-7" d="M673,1025c-2.834-3.506-18.308-9.429-6.46-9.042,6.185.202,12.794,2.867,18.005,6.049,1.322.807,2.918.871,2.455,2.994h-14Z"/>
  <path class="cls-3" d="M1024,909c.494,23.934.067,48.054,0,72l-68.01-24.49c-2.723-8.537-12.82-44.418-20.645-47.356-.658-.247-2.283-.601-2.349.349.308,14.227,9.119,27.301,10.002,41.494-2.37,2.37-23.254-8.574-27.019-10.476-16.436-8.303-25.276-14.668-43.547-20.446-2.378-.752-4.262-4.022-7.943-2.845-.645.206-.428,1.724-1.109,1.817-1.283.174-16.248-2.817-17.354-3.618-1.881-1.362.314-4.065-3.767-.588-27.573-6.659-54.998-15.352-82.487-22.855-2.158-4.263-4.452-1.505-9.011-2.232-6.726-1.072-15.576-3.802-22.328-5.678-3.373-.937-4.031-1.249-7.804-2.111-2.077-.474-9.072-2.158-9.561-3.592,2.699-12.78,11.511-23.322,8.927-37.368-3.208.064-4.974,3.814-6.184,6.306-3.398,6.998-4.916,21.947-8.76,26.972-.875,1.144-2.598,1.854-4.045,1.712,4.624-14.252-14.553-39.243-27.698-42.809-1.506-.408-2.686-.742-2.324,1.325.775,4.42,13.224,17.542,16.225,22.78,1.038,1.812,3.029,5.589,2.296,7.704-5.479-7.512-12.993-13.051-20.16-18.839l-43.746-19.103c.044-1.105-1.415-3.373-1.406-3.564.036-.75,10.904-7.688,12.519-8.276,8.549-3.116,35.186,1.513,45.497,3.078,58.421,8.869,122.471,22.542,179.006,38.994,13.584,3.953,31.439,12.387,44.734,14.266,6.354.898,12.462-.144,18.541.459,15.052,1.493,35.948,16.923,51.262,22.738,15.623,5.932,32.337,9.212,48.247,14.253Z"/>
  <path class="cls-7" d="M950.997,266.003c-1.228-9.319,9.009-14.163,13.979-20.527,15.723-20.131,11.429-51.868-7.964-67.988-5.193-4.317-19.233-8.797-13.344-16.536,10.969-2.662,30.415,21.069,34.509,30.37,9.408,21.375,5.364,46.078-9.666,63.69-4.147,4.86-10.691,12.206-17.515,10.992Z"/>
  <path class="cls-7" d="M943.714,188.14c5.768-1.623,14.249,14.862,15.048,19.598,1.428,8.466-.12,20.355-4.929,27.595-1.599,2.408-10.719,11.902-12.691,6.017-1.678-5.009,5.592-10.646,7.727-15.981,2.675-6.684,2.999-12.293.33-19.069-1.519-3.858-13.387-15.937-5.486-18.161Z"/>
  <path class="cls-1" d="M563.995,795.995c-2.411.064-4.864-.276-7.263.238-24.749,5.304-60.094,23.456-82.394,35.605-6.454,3.516-13.554,5.957-19.333,10.667,13.551,2.436,25.036-7.994,36.639-13.361,23.923-11.066,59.157-27.099,84.986-30.014,2.466-.278,13.246-1.311,14.861-1.145,1.735.179,7.629,5.226,11.508,4.026-12.959,10.756-27.523,20.061-39.025,32.463-20.642,22.256-34.812,56.032-41.485,85.515-3.538,15.632-5.864,30.966-3.494,47.006-16.209-5.107-36.052-5.429-51.777-10.713-10.189-3.424-21.062-10.328-31.21-14.295l17.629-3.926c6.43,3.339,9.95-1.284,16.404-3.521,7.619-2.64,19.954-4.915,25.877-10.123,1.14-1.002,2.472-1.531,2.077-3.413-1.478-1.273-32.87,7.542-37.986,8.504-12.981,2.44-42.619,7.707-52.571-2.447-1.936-1.975-1.037-4.027-1.978-6.022-1.746-3.703-16.393-11.131-20.789-13.211-8.899-4.209-38.419-13.757-43.115-19.885-3.087-4.029-5.743-10.266-9.165-14.835-9.357-12.493-23.566-23.205-39.386-25.104-.369,1.611.555,2.042,1.465,3.025,4.389,4.743,13.185,8.909,18.542,13.458,5.804,4.928,10.467,11.287,15.988,16.502-5.361-1.026-8.396-7.627-12.721-9.768-23.364-11.565-49.313-18.461-75.653-15.097-6.533.834-15.965,1.902-20.625,6.866,4.347-.148,8.092,1.165,12.529,1.062,4.035-.094,8.933-1.787,12.984-2.04,17.927-1.12,41.538,4.681,57.843,12.131l9.639,5.846-30.5-4.075c-1.049-.329-3.492.845-3.475,1.586.046,2.028,16.21,4.854,19.211,5.769,7.475,2.278,16.475,5.383,23.753,8.247,11.628,4.576,24.968,10.709,35.011,17.989-16.667,6.649-28.765,22.07-38.016,36.974-1.984,3.196-6.906,10.124-7.954,13.046-2.397,6.688-1.483,17.266-3.035,24.475-25.772-13.62-53.532-23.72-77.217-40.988-15.973-11.646-30.029-25.794-35.332-45.953-4.049-15.392,5.13-40.481,17.547-50.57,3.454-2.807,14.347-10.798,17.754-12.246,7.475-3.178,19.756-5.189,27.937-6.155,3.153-.372,7.357.964,10.632-.28,4.129-1.569,6.041-19.006,7.409-23.586,2.238-7.491,7.443-13.493,6.28-21.741-.583-4.13-6.862,2.637-7.997,4.023-8.628,10.536-5.912,19.558-9.253,30.748-2.231,7.474-7.89,3.435-14.234,3.767-9.345.49-21.709,4.788-30.189,8.809-2.268,1.075-9.225,5.965-10.001,6.034-1.802.161-2.946-2.457-4.398-3.296-2.23-1.29-6.923-1.112-5.204-5.273,1.227-2.969,19.507-17.787,23.363-20.706,23.555-17.835,46.371-30.747,77.119-25.292,13.891,2.464,32.137,10.456,45.302,11.693,7.91.743,8.888.377,14.007-4.973,15.466-16.165-3.503-17.04-16.142-18.887-2.673-.391-20.626-2.891-21.377-2.123-2.263,2.316,3.397,4.382,4.771,4.727,4.071,1.02,29.198,4.144,30.195,5.309,1.755,2.051-3.211,9.563-6.42,9.513l-38.875-9.719c-5.604-2.85-3.688-4.267-5.778-8.219-6.935-13.118-13.604-19.777-25.869-28.116-.017-1.752,21.763-7.356,24.588-7.389,8.673-.101,17.587,5.737,26.392,4.899-5.256,8.177-11.097,3.149-17.413,4.027-11.529,1.603-7.125,28.288-.599,23.959.675-.448,2.4-12.924,2.019-14.992,8.16,3.711,29.181-3.289,25.815-14.303-1.263-4.134-15.277-5.105-19.433-6.59-4.942-1.766,1.733-2.191,3.324-2.89,12.857-5.642,20.537-15.059,35.751-16.256,24.902-1.96,50.714,3.675,74.298,10.774,4.045,1.218,35.206,11.866,35.219,13.762-2.605,2.228-4.404,6.197-8.378,5.5-10.155-3.776-20.144-7.999-30.273-11.83-14.284-5.402-36.232-14.021-51.88-12.219-1.004.116-3.439.47-3.43,1.549.027,2.979,26.136,7.931,30.521,9.459,49.487,17.245,97.448,46.756,146.902,64.098,3.249,1.139,8.613-.098,8.551,3.938Z"/>
  <path class="cls-3" d="M528,616c3.306.061,3.457.843,4.486-1.968,3.06-8.361.429-19.166,2.519-28.029,20.655,1.634,42.745,1.398,63.372-1.126,2.96-.362,18.656-1.908,17.623-6.359-.732-3.152-10.867-2.638-13.542-2.558-17.106.508-36.026,2.949-52.085,4.911-1.856.227-13.827,1.598-14.368,1.122.995-3.383,6.393-18.954,8.686-19.804l53.277-9.719c7.098-3.727-7.855-13.093.981-16.015,8.685-2.872,6.679,4.298,8.917,10.165.498,1.306-.399,1.303,1.618,1.455,4.127.31,33.577-12.122,35.034-15.071,3.121-6.316-8.57-13.246-4.594-18.572,6.92-9.271,11.874,12.173,13.732,12.625,5.739,1.395,8.721-7.443,14.34-8.053,1.665,9.98,6.292,18.966,8.515,28.985,17.796,80.219-35.803,142.147-66.342,210.683-.977,2.641.648,2.971,3.131,2.126,2.846-.969,5.835-7.099,9.692-7.799l-3.996,23.002c-22.103-6.114-43.827-15.206-67.272-14.224-5.138-3.472-36.367-14.692-38.235-17.766-2.868-4.719,4.126-29.729,5.797-36.228,6.824-26.531,16.897-52.168,24.704-78.398-2.374-10.571-8.4,1.099-11.996-.835-1.643-.884-3.868-6.405-5.59-8.455-6.682-7.957-7.034-5.884-10.67-17.33-4.132-13.009-8.046-26.174.078-38.456,5.231-7.907,12.952-2.075,21.193-2.304-.179,6.284-4.825,11.705-6.495,17.001-.651,2.064-2.509,10.788-2.509,12.491v24.5Z"/>
  <path class="cls-6" d="M382.995,294.005l-3.888,29.596c-1.21,21.033,25.76-.026,31.446,4.307,1.621,1.235,1.745,3.846,4.724,5.316,4.334,2.14,11.854,3.005,16.727,3.783-7.223,16.001-3.965,35.608,1.711,51.78,3.242,9.238,4.746,13.671,15.818,13.259,12.528-.467,17.69-3.207,16.359-16.442-.107-1.059-3.736-10.972-.405-9.594,7.709,7.302,16.269,13.741,24.04,20.965,45.113,41.937,89.175,106.772,159.971,97.037l2.495,2.471c-38.44,35.845-96.933,48.732-148.203,40.228-26.391-4.378-64.382-18.194-68.302-48.688,11.549,5.947,23.655,15.794,35.791,20.197.856.311,6.034,1.979,4.713-.707-37.712-27.213-71.254-65.716-90.852-108.153-10.601-22.954-15.702-47.04-22.154-71.351-1.806.517-1.926,4.936-2.027,6.454-.524,7.852.426,15.746,1.029,23.534l-9.162-15.323c-3.737-4.998-7.842-8.91-6.745.736.529,4.656,13.76,30.594,17.029,33.999,1.46,1.521,3.167,1.347,3.956,2.273.601.705,3.283,7.976,2.927,8.314-8.072.431-16.693-9.662-23.479-10.029-1.482-.08-1.828-.104-1.533,1.546,1.246,6.992,22.057,14.258,27.398,18.411.876.681.925,1.674.658,2.545-.702,2.29-36.048,21.859-40.55,25.511,1.048-9.003-2.479-18.198-7.069-25.899-2.382-3.997-11.067-13.247-11.414-16.668-.557-5.478,10.653-31.054,13.823-37.083,1.366-2.598,9.088-15.91,10.451-17.039,2.292-1.9,9.882-1.171,13.957-2.553,11.614-3.941,19.608-21.932,27.551-30.449.991-1.063,1.033-2.791,3.207-2.283Z"/>
  <path class="cls-6" d="M960,485c1.372-14.015,5.177-27.652,6.872-41.628,3.371-27.79,3.177-56.043-2.188-83.556-.267-1.37-2.847-17.045-5.666-11.114-2.14,4.501,1.67,18.148,2.021,23.759,1.708,27.3-.538,60.88-6.528,87.549-1.874,8.345-4.06,17.379-8.011,24.989h-165.5c5.715-24.738,12.435-49.428,19.731-73.769,4.265-14.229,12.329-47.192,21.866-57.132,7.179-7.482,5.984,1.623,10.474,4.328,4.042,2.435,10.759,1.445,14.918,4.572,2.601-6.938-11.839-9.48-12.831-11.154-1.735-2.929,2.212-9.529-8.155-7.852l2.003-10.989c1.581-.459,1.691.516,2.484,1.005,3.617,2.227,23.02,19.463,23.183,22.502-5.925,9.77-13.289,17.011-14.551,29.112-.998,9.575-.709,25.112-.164,34.919.159,2.869,1.187,14.139,2.203,15.797.741,1.209.848,1.398,2.325,1.675,2.563.48,23.777.412,25.822-.204,1.103-.332,1.529-.984,2.14-1.86,4.436-6.358-.544-49.006.513-60.487,1.186-12.895,10.049-7.919,15.602-14.398,2.853-3.33,1.786-10.319,4.058-10.99,7.665-2.264,32.405,18.947,25.871-8.065-2.686-11.106-7.389-23.959-11.011-35.003-.404-1.233-1.004-1.406,1.025-1.017,10.605,2.034,38.687,15.735,47.413,22.592,36.1,28.364,40.082,96.86,54.147,137.964.275,1.608-.238,2.674-1.016,4.012-1.111,1.91-15.107,14.443-16.55,14.443h-32.5Z"/>
  <path class="cls-8" d="M188,652c5.622,1.513,10.022,1.289,15.682,3.818,10.289,4.598,54.995,37.725,60.561,46.439,4.011,6.279,2.86,8.848,1.016,15.501-4.89,17.647-34.532,55.012-51.023,62.978-2.145,1.036-11.86,2.785-11.23,5.749.678,3.191,9.455-.092,11.273-.707,23.423-7.922,38.497-26.908,54.222-44.759,8.815,11.224,25.41,15.079,29.5,29.971-25.273.193-51.721,9.686-72.331,24.179-4.196,2.951-21.251,18.267-24.307,18.591-12.03-3.448-22.837-9.869-35.359-11.771,2.007-4.884,5.188-8.111,4.003-13.984,6.91,2.288,14.168,3.899,21.545,3.048,2.282-.263,5.068-2.06,3.45-4.042-1.027-1.259-27.715-6.015-31.488-8.024-.869,2.308.619,4.82.573,7.508-.447,26.235-55.668,22.652-57.025-2.135-.917-16.756,26.284-12.376,28.722-23.072,2.553-11.2-10.213-10.624-15.213-16.358-7.854-9.007-2.683-20.084-19.79-26.21-2.776-.994-12.749-2.38-13.587-2.913-3.265-2.075-5.704-20.92-5.105-25.22,1.608-11.54,22.656-41.384,31.898-49.099,13.33-11.128,29.547-7.919,45.013-3.477-1.627,2.533-5.713,13.12-2.983,14.981,5.182,3.532,7.302-16.664,18.358-10.859,4.231,2.221,5.047,6.098,11.625,8.868,1.919,2.235-3.618,7.962-5.695,9.818-5.379,4.807-11.115,4.969-17.938,4.504,4.518,1.837,9.369,3.279,14.265,2.625,8.157-2.424,24.097-4.17,27.925,5.591-3.069,29.07,12.65-1.605-1.768-7.5-6.102-1.8-12.389-2.791-18.862-2.972-.448-3.572.91-7.26,4.072-11.066Z"/>
  <path class="cls-8" d="M765.005,255.995c12.817-3.675,23.295-31.04,35.559-32.931,4.951-.763,18.684-.328,23.169,1.702,2.426,1.098,4.645,4.424,6.765,6.235,4.243,3.624,8.69,4.029,8.491,11.998-7.87-3.684-15.806-9.483-25.052-7.553-4.491.938-13.609,6.535-17.86,9.131-2.943,1.797-18.998,12.63-19.058,14.922-.12,4.61,12.945-2.925,14.285-3.695,7.219-4.142,18.092-15.067,26.193-14.886,6.426.144,24.732,9.803,27.698,15.384,6.375,11.993-5.708,27.003-11.192,8.702,18.512,3.667-.793-6.278-7.456-8.047-10.844-2.878-11.638,4.158-19.648,8.443-3.306,1.769-13.596,3.923-14.892,7.113-.787,1.936,1.162,1.574,2.394,1.399,9.907-1.404,14.779-6.006,25.817-2.634,16.05,4.903,15.653,15.017,10.555,28.995-.927,2.541-4.816,11.996-7.222,5.72-.598-1.56-2.548-8.358-2.485-9.56.231-4.38,8.724-3.457,6.451-8.429-2.013-4.404-11.855-5.204-13.327-.317-2.46,8.165,5.045,26.355,5.792,35.826,1.409,17.86-6.51,25.882-14.745,40.222l-37.127,118.666-104.108,2.591c5.498-18.369,23.783-30.219,36.51-43.981,10.472-11.324,20.462-23.895,29.882-36.118,9.298-12.065,39.128-51.357,40.607-64.393,3.268-28.81-17.085-60.927-11.538-89.538,1.55-7.997,5.38-17.697,8.99-25.01,2.554-5.174,10.059-19.244,15.551-20.537,1.385-.326,12.226.337,14.545.524,1.969.159,6.979.785,8.946,1.059,3.413.475,21.533,3.277,13.577,9.572-5.536,4.38-19.386-3.431-29.006,2.995-3.198,2.136-24.204,26.578-25.929,30.07-1.084,2.193-1.413,3.917-1.133,6.357Z"/>
  <path class="cls-8" d="M320.757,184.251c4.805,4.87-3.109,28.652-4.462,35.544-.613,3.121-1.818,18.328-2.426,19.073-.298.366-7.293,1.696-9.137,2.401-1.028.393-3.554.485-2.723,2.216,1.498,3.117,6.253.573,8.501.521,10.966-.256,21.854-.529,32.797-1.198,3.7-1.112,4.389-11.105,5.408-14.593.337-1.153.825-4.226,2.274-4.21l4.052,34.328c-.358,1.475-24.235,11.798-23.037,18.662,2.666,2.518,19.099-14.961,23.99-13.989-.637,7.861,2.099,17.087,8.509,21.991,2.189,1.675,9.597,3.992,9.389,6.334-.243,2.74-18.765,22.7-22.147,24.917-6.059,3.972-13.582,5.117-20.746,4.764l2.996,2.485c-32.877,34.855-26.094,95.165-70.988,120.517-.239,1.801,2.173.907,3.235.737,23.602-3.775,38.148-31.13,44.77-51.748,6.112,6.439,16.683,27.045,9.68,34.692-1.129,1.233-8.018,5.311-10.02,6.477-20.654,12.03-68.94,36.216-91.007,22.664-14.072-8.643-12.229-17.596-9.174-31.845,12.278-57.266,42.304-64.62,72.909-104.091,14.678-18.93,8.419-33.283,9.56-55.44,1.175-22.83,7.082-33.81,13.76-54.24,1.79-5.476,4.847-25.494,9.294-27.774,1.361-.698,3.719-.233,4.744.806Z"/>
  <path class="cls-6" d="M635.005,373.005c-6.091-.439-11.646.264-17.447,2.053-4.836,1.492-13.64,7.256-17.936,6.914-2.269-.181-19.713-6.247-21.556-7.538-2.564-1.796-2.933-4.538-3.618-7.382-2.339-9.708-3.205-28.162-3.489-38.511-.628-22.897,2.157-43.576,15.232-62.851,5.465-8.057,13.808-14.26,18.321-22.668-39.705,16.914-44.74,66.093-40.522,103.978-9.892-13.08-13.508-29.981-16.002-45.997-4.228,2.58-3.31,10.939-2.972,15.481,1.383,18.626,10.233,36.668,20.984,51.507-15.204-6.064-30.272-13.022-44.672-20.818-11.481-6.216-30.374-14.189-32.321-28.169,5.405.714,12.15,1.78,17.503,1.986,10.451.403,11.808,1.167,14.786-9.193,6.485-22.557,7.327-51.321.705-73.786,4.999.168,9.977-.065,14.935-.533,10.787-1.017,21.386-2.061,32.613-1.524,21.683,1.036,46.121,4.857,63.522,18.478l1.935,118.575Z"/>
  <path class="cls-8" d="M635,485c-36.818-6.742-67.256-27.557-95.014-51.486-21.464-18.503-40.854-40.375-62.515-58.485-7.039-5.884-18.624-8.947-16.465-20.025.612-.662,8.318,2.892,6.983-.489-10.442-15.587-20.19-36.841-17.987-56.015.519-4.517,4.141-7.6,4.018-9.904-.113-2.123-5.851-13.133-7.036-17.081-3.025-10.074-3.847-15.458-.702-25.735.869-2.841,3.158-11.33,7.593-8.639,2.11,1.281,5.486,24.676,7.088,29.395,3.097,9.126,9.432,18.26,12.319,27.681,4.824,15.741,1.884,32.047,15.248,43.752,32.848,28.77,85.128,42.278,124.439,59.561,7.61,3.346,15.797,6.296,22.032,11.968v75.5Z"/>
  <path class="cls-8" d="M375,133c-4.199,2.037-4.156,6.65-5.025,10.492-.218.963.603,2.09-1.436,1.477-2.793-.84-5.975-3.361-9.54-2.978-.584-.649,6.328-15.452,7.02-15.984,1.894-1.457,1.757,1.551,3.209,2.295,7.357,3.772,25.54,9.117,33.948,11.022,17.317,3.924,33.324,3.164,50.773.733,1.076,1.041,1.451,24.882,2.174,29.32.907,5.562,1.191,9.193,7.609,10.382,14.089,2.61,12.482-11.221,21.83-12.706,4.757-.756,10.588,1.532,13.842,5.043,11.795,12.725-8.341,46.292-23.145,47.701-3.31.315-9.122-3.885-11.295-2.378-2.995,2.077-1.672,13.96-1.974,17.58-13.461-13.509-24.58,3.253-25.978,16.512-.805,7.634,2.269,10.432-4.533,16.467-13.255,11.76-60.17,27.996-68.215,4.258-.872-20.512-8.904-45.621-7.247-65.72,1.006-12.197,2.939-10.066,13.978-8.522l-1.995-4.985c3.536-2.39,11.838,6.543,13.89.335,2.303-6.968-15.227-6.049-15.896-5.354-.43.447.734,3.541-.489,4.004-7.493-5.567-11.012-5.5-6.681-15.67,2.094-4.916,15.176-21.521,15.176-24.825v-18.5Z"/>
  <path class="cls-8" d="M915.939,129.041c.974,3.155,5.175,16.928,3.645,19.018-15.96,3.849-26.801,3.75-23.134,23.989,1.392,7.681,15.991,34.107,15.36,37.325-1.257,6.408-17.008,2.501-21.309,2.533-2.326.017-8.075.936-4.225,3.345,6.901,4.318,16.447,7.365,24.098,3.622,19.298-9.443-7.085-35.722-9.426-48.313l5.046-1.557c-2.159,12.757,11.098,5.679,8.591-2.034-2.451-7.54-11.83,1.195-16.577-.462,4.486-6.638,14.608-6.784,21.989-6.501-4.704,10.425-.726,19.69.735,29.763,3.267,22.518-4.839,46.016-9.419,68.043-1.03,4.952-1.973,18.388-3.541,21.459-2.458,4.817-16.364,7.677-21.326,7.763-5.759.1-32.53-5.222-34.974-10.023-2.14-4.204,5.456-14.215-1.04-23.944-1.516-2.271-6.79-5.91-7.29-7.793-.876-3.298,2.496-7.656-.369-13.547s-13.069-9.716-14.346-11.721c-.69-1.083,1.659-7.202.051-10.989-2.476-5.833-11.066-5.52-14.174-8.325-1.523-1.375-10.283-16.502-10.85-18.672-1.468-5.614,3.477-10.5,5.065-16.003.988-3.424,3.519-23.283,4.495-24.019,11.856,4.306,23.449,9.594,36.478,8.983,23.966-1.124,43.864-16.438,66.447-21.941Z"/>
  <path class="cls-6" d="M744.999,292.997c-.894,18.501,9.005,34.453,14.832,51.264-6.474,12.344-16.025,22.71-24.052,34.018-1.317,1.855-4.435,8.373-4.794,8.718-1.76,1.691-1.679-.652-2.073-1.418-12.144-23.585-18.912-50.453-48.362-59.627-4.13-1.286-8.421-1.7-4.615,3.615,1.779,2.484,12.981,8.159,16.586,11.413,10.277,9.276,28.884,39.027,29.204,52.795.356,15.31-9.784.792-14.397-2.602-8.258-6.077-21.127-10.663-31.323-11.167-.441,2.695,1.174,3.976,3.062,5.428,9.829,7.557,28.564,10.276,32.83,24.865-6.96,6.06-15.368,24.346-24.488,25.611-13.432,1.864-21.069,1.778-34.094,7.906-1.524.717-8.751,5.817-9.309,5.181-.211-36.388,1.06-72.572,1.513-108.977,25.971-26.8,63.569-39.955,99.481-47.022Z"/>
  <path class="cls-6" d="M906.997,98.995c-23.469-3.395-45.037,1.85-66.355,11.148-29.488,12.861-55.689,32.792-85.633,44.857-5.097-39.627,6.137-80.231,46.472-95.018,19.834-7.271,50.76-8.853,70.763-1.727,18.164,6.471,30.616,22.133,34.752,40.739Z"/>
  <path class="cls-2" d="M521,658.01l-21.329,79.838c-12.816-2.49-21.233-11.543-32.713-16.305-8.369-3.471-43.322-11.907-46.992-16.008-2.489-2.781-7.761-26.197-8.649-31.351-2.697-15.65-2.617-31.695-6.31-47.18,36.953,15.52,75.778,27.521,115.994,31.005Z"/>
  <path class="cls-4" d="M87.002,643.012c2.361,4.212,9.737-.109,13.628-.897,4.559-.924-4.14,6.844-4.603,7.412-11.156,13.685-18.623,27.649-24.777,44.223-.941,2.534-5.577,13.705-4.244,15.245,4.9-.554,5.674-6.591,8.983-8.993.247,6.357,13.674,41.928,17.127,43.872,1.48.833,3.861-.183,3.739-2.169-.219-3.573-9.1-18.512-7.849-19.7,6.21-1.199,15.816,5.56,19.007,10.482,2.26,3.485,2.706,8.721,4.49,12.51,3.301,7.008,10.354,11.575,17.495,14.015-4.617,6.121-14.203,5.3-20.993,8.492-12.201,5.736-9.362,17.872-6.01,28.49-12.099.171-24.128-6.897-30.186-17.304-1.456-2.501-5.071-13.126-6.312-13.688-3.515-1.591-2.59,2.915-2.235,5.236.303,1.979,5.201,14.802.719,11.281-10.743-8.439-20.675-50.772-18.895-63.935.596-4.411,3.256-9.151,3.791-14.209,1.085-10.242.203-18.268,3.184-28.816,4.727-16.727,30.547-57.941,50.324-56.521,4.682.336,15.328,6.643,13.513,12.291-1.197,3.724-15.924,5.438-19.9,7.167-3.485,1.516-6.011,4.939-9.995,5.514Z"/>
  <path class="cls-6" d="M462.01,124.995l4.75-8.735c4.905-12.34,3.725-25.25,1.409-37.948-.263-1.443-.293-1.646,1.273-1.264,3.803.929,12.837,7.207,16.081,9.928,21.1,17.704,27.716,46.543,23.467,73.023-39.665-24.92-81.779-55.689-129.464-62.041-1.26-.168-3.134.845-2.504-1.43,2.457-8.863,20.565-22.133,29.198-24.808,10.808-3.349,45.586-4.732,54.3,2.26,10.974,8.805,2.024,38.983,1.49,51.015Z"/>
  <path class="cls-3" d="M678.012,762.989c-.108.104.034,2.006-.549,2.928-1.153,1.823-11.319,7.109-12.458,6.078.626-2.836,2.88-4.442,4.184-7.306,4.512-9.904,5.279-21.772,7.635-32.357.807-3.628,3.429-3.576.418-8.046-.482-.715-.707-2.839-2.232-1.287-.41.418-2.41,9.115-3.262,11.249-1.991,4.989-10.975,26.728-13.688,29.315-1.648,1.572-3.916,1.299-4.073,1.448-.182.173,1.319,2.276.598,4.996-.667,2.515-7.922,13.094-10.304,13.803-2.775.826-16.654-3.141-16.986-5.26,5.529-13.887,6.287-26.965,5.949-41.806,9.765-15.063,16.272-32.135,25.583-47.417,5.346-8.774,5.719-12.295,16.499-6.154,24.853,14.159,25.594,55.74,10.216,76.867-4.043,5.554-7.206,2.637-7.53,2.949Z"/>
  <path class="cls-3" d="M522.995,645.995c-1.359,1.195-24.339-3.601-28.182-4.308-19.868-3.653-40.45-8.374-60.33-15.67-10.003-3.671-29.982-11.449-37.02-18.98-2.078-2.224-13.405-21.884-12.453-23.037,10.033,3.41,20.448,5.772,30.563,8.926,19.74,6.155,40.327,14.257,60.661,20.339,10.762,3.219,21.761,5.227,32.494,8.506l4.07,4.93,10.197,19.292Z"/>
  <path class="cls-1" d="M391.998,925.988c-14.006,4.155-24.379,18.675-31.806,30.704-8.499,13.766-15.431,28.691-15.197,45.303-6.439-2.979-27.22-9.881-28.779-16.703-1.45-6.346,3.729-23.724,6.598-29.979,2.223-4.846,7.426-13.045,10.77-17.23,5.694-7.125,24.79-23.916,33.919-23.903,3.547.005,25.505,10.474,24.494,11.807Z"/>
  <path class="cls-6" d="M867,431l-18.951.947c-1.365-1.33-1.258-25.563-1.097-29.495.2-4.901.573-12.14,1.159-16.841,2.513-20.145,30.932-33.758,32.872-55.128.641-7.059-1.587-30.399,4.613-34.382,3.493-2.244,6.88-1.659,9.247,1.555,5.305,7.205,15.99,38.036,16.19,46.828.047,2.05.326,1.484-1.046,1.044-5.796-1.857-18.354-5.916-23.564-1.605-3.102,2.566.086,9.966-2.679,12.828-2.009,2.08-15.671,7.343-20.075,10.419-4.308,3.008-11.929,9.089-11.175,14.825l14.505-9.995v59Z"/>
  <path class="cls-6" d="M963,122.99c-11.527-4.507-21.624-8.146-34.378-6.869-33.16,3.32-77.39,42.39-110.33,19.088-5.226-3.697-.807-4.665,2.692-6.728,37.033-21.834,65.583-26.877,108.026-17.99,10.802,2.262,25.89,5.345,33.99,12.5Z"/>
  <path class="cls-6" d="M500,220c20.682,9.3,20.257,40.003,18.99,59.49-.344,5.29-3.193,27.033-5.179,30.821-2.363,4.507-15.711-1.54-20.415-2.205-3.071-.434-6.207.232-9.263-.236-.874-.567-5.03-18.811-4.855-20.258.172-1.42,6.998-10.269,8.577-13.256,2.105-3.983,12.145-27.949,12.145-30.855v-23.5Z"/>
  <path class="cls-6" d="M322,107l14.513-2.987c31.768-2.05,58.067,1.168,87.161,13.814,3.463,1.505,24.618,11.705,25.847,13.153.587.691,1.045,1.784-.035,2.016-18.166,3.929-33.917,1.989-51.257-3.724-11.216-3.695-47.931-22.271-55.729-22.271h-20.5Z"/>
  <path class="cls-8" d="M872,332.5c-.234,1.15-3.599,6.034-4.587,7.413l-8.903,10.081c-3.784-4.46-7.145-9.564-11.5-13.505-4.522-4.091-21.575-13.02-21.082-18.964.17-2.055,5.921-4.544,8.098-7,5.238-5.906,5.62-14.976,5.984-22.526,5.472,2.776,10.272,8.146,15.46,11.03,4.987,2.773,10.861,3.377,15.503,6.562.88,2.903-15.674,20.056-12.967,26.403,2.509,2.909,11.825-16.612,13.995-16.995-.714,5.161.976,12.704,0,17.5Z"/>
  <path class="cls-8" d="M476.987,278.992l-10.477-22.003c-5.989-10.815,3.396-19.699,1.485-30.994,3.744-.231,7.741.379,11.451-.045,3.464-.396,4.618-4.091,8.014.098,10.162,12.537-3.832,40.677-10.472,52.945Z"/>
  <path class="cls-6" d="M442,345.99c2.851,1.293,7.785-3.294,9.401-2.915,5.378,1.262,3.077,20.718,3.684,25.34.481,3.666,2.932,7.106,3.67,10.33.465,2.032,1.875,14.667,1.249,15.257-6.188-.651-14.739,4.519-18.05-2.456-5.8-12.216-8.257-37.753-3.131-50.225.855-2.08,5.404-11.637,8.208-9.854,6.296,4.005-2.226,11.323-5.029,14.522Z"/>
  <path class="cls-6" d="M433.99,335c-1.879-1.109-2.223-2.823-4.268-4.221-2.488-1.702-12.233-4.337-12.588-4.912-.673-1.09.305-4.328-.292-6.208-2.325-7.327-24.131,4.761-28.832,6.341l2.091-33.903c7.341-.684,19.199-6.47,22.077,3.225,4.153,13.991.548,13.163,11.308,25.692,3.664,4.267,10.776,8.089,10.504,13.986Z"/>
  <path class="cls-8" d="M421.01,302c5.592,1.928,7.942,9.14,13.984,9.995,2.844-3.075-12.28-18.074-14.977-20.496,2.752-1.288,20.949-14.822,22.002-14.051,1.353.991,2.84,5.179,3.004,7.028-1.251,5.906.294,34.549-1.529,37.512-.278.451-3.636,2.701-3.996,2.702-3.237.005-20.641-19.926-18.489-22.69Z"/>
  <path class="cls-8" d="M681,445.01c-4.564,7.428-11.837,12.472-16.417,20.073-1.984,3.293-7.827,19.179-8.743,19.753-1.585.993-9.292-.37-11.836.159,1.632-6.843-2.612-20.145,1.979-25.511,5.576-6.518,26.162-14.532,35.017-14.473Z"/>
  <path class="cls-8" d="M332.744,176.265c7.09,6.656-2.141,39.594-3.621,49.359-.308,2.033-.328,11.498-1.173,12.323-.537.525-7.277-.251-8.955.056-.033-16.652,10.156-37.173,7.95-53.449-.354-2.61-2.894-4.745-1.835-7.908.877-2.618,6.043-1.875,7.634-.382Z"/>
  <path class="cls-7" d="M188,652c2.575,3.808-3.189,6.301-2.995,9.995,10.274-.77,24.188-.172,25.906,12.592,1.768,13.134-9.084,18.571-9.004,6.921.027-3.96,2.662-6.135-.889-10.032-2.381-2.613-9.975-3.75-13.541-3.559-5.52.296-8.722,2.76-15.968,2.072-1.774-.168-16.313-3.307-12.505-6.984,8.297-.045,13.014,2.428,19.898-3.604l7.099-8.401c.663.279,1.805.948,2,1Z"/>
  <path class="cls-8" d="M331.996,239c2.244-20.36,12.832-39.551,8.998-60.493,4.065-2.384,5.522,4.951,5.895,8.104,1.297,10.962-.74,36.157-3.997,46.783-1.904,6.214-4.748,5.79-10.897,5.607Z"/>
  <path class="cls-3" d="M503.99,572.002c-.113.11-2.176.401-2.073-.642l-22.91-28.351c7.589,2.657,15.839,4.086,23.256,7.229,13.969,5.92,8.176,7.263,2.838,17.374-.746,1.413-.948,4.233-1.11,4.39Z"/>
  <path class="cls-8" d="M635,380v17l-22.98-11.5c3.225-3.866,8.168-1.961,12.396-2.584,3.756-.554,6.627-3.345,10.584-2.916Z"/>
  <path class="cls-8" d="M515.844,546.164c.563.342.564,3.781,3.394,5.101,3.213,1.5,18.97,2.608,22.104,1.576,2.633-.867,2.103-7.148,6.644-5.837.909,2.427,1.852,7.486-.652,9.075-4.23,2.685-37.25,1.721-35.328-10.074,1.169.143,2.929-.394,3.839.159Z"/>
  <path class="cls-8" d="M756.005,177.995c1.087-8.634,9.744-21.172,18.976-13.495.001.926-12.691,9.97-14.687,11.294-1.387.919-2.47,2.456-4.289,2.201Z"/>
  <path class="cls-8" d="M789.713,177.3c1.577,1.355,9.892,16.077,11.445,19.042.78,1.489,2.01,2.863,1.837,4.653-1.848.145-2.945.241-4.482-1.009-4.14-3.368-9.025-18.097-13.503-22.502-1.043-2.629,3.435-1.273,4.702-.184Z"/>
  <path class="cls-3" d="M554.006,861.004c3.595.205,20.841,7.407,19.99,11.48-.312,1.492-1.803,1.305-3.034,1.084-4.972-.891-19.466-5.745-16.956-12.564Z"/>
  <path class="cls-6" d="M757.99,312.995l-6.77-20.804.791-8.186c1.585-.127,1.564,2.489,1.857,3.624,2.081,8.058,3.072,17.09,4.123,25.366Z"/>
  <path class="cls-2" d="M756.527,200.013c4.83-1.035.878,8.106-2.027,8.967-3.536-1.973-.437-8.44,2.027-8.967Z"/>
  <path class="cls-3" d="M507.994,615.996l-127.26-40.23c-4.691-2.537-9.506-15.234-13.756-20.244-3.456-4.074-9.551-6.167-8.983-11.529-3.504-.915-1.96,5.157-1.506,7.019,2.342,9.611,13.134,21.347,17.729,30.274.448.87,1.77,2.873-.206,2.705l-19.485-20.018c-5.719-1.662-11.266-12.728-13.742-14.756-.673-.551-2.624-.105-3.715-.751-2.773-1.643-4.092-6.126-8.065-5.462-.715,7.324,4.983,14.643,9.483,20.007,11.555,13.774,28.465,24.131,41.492,36.498-12.761-1.983-27.977-7.815-38.309-15.681-2.304-1.754-7.342-7.799-8.71-8.38-1.983-.842-3.428.651-4.407.423-1.286-.299-1.412-3.031-2.04-2.881-5.991,1.435-.343,3.589-.077,4.029,10.879,17.927,33.626,29.218,54.304,34.739,3.687.984,6.141-1.227,8.472,3.528,3.003,6.127,4.936,19.523,6.31,26.69,3.8,19.814,4.878,40.101,10.489,59.511-27.878-1.924-59.793-6.484-82.002,14.512,1.315-7.633-3.688-13.625-4.005-20.995,3.479.059,2.365,3.939,6.484,5.012,2.189.57,1.25-4.469,1.071-4.992-1.852-5.399-8.47-13.496-11.417-19.669-13.496-28.277-38.037-103.992-35.135-133.848,5.369-55.23,92.94-35.158,128.005-27.022,8.915,2.068,20.078,4.375,28.52,7.48,19.034,7,52.746,44.328,60.952,63.048,1.548,3.532,10.596,29.775,9.508,30.981Z"/>
  <path class="cls-8" d="M479.738,743.196c10.171-2.08,42.377,16.405,53.589,20.978,26.611,10.855,56.415,12.917,84.192,22.808,9.995,3.559,33.119,11.24,41.181,15.819,1.724.979,2.993,2.243,4.281,3.709-14.432-3.823-32.221-4.276-46.205-8.785-7.168-2.312-13.556-7.381-21.534-8.466-5.657-.77-11.897.579-17.273-.727-6.024-1.463-16.905-7.691-23.719-10.281-20.967-7.97-43.704-14.619-63.926-24.074-2.102-.983-13.264-6.259-13.855-7.147-1.406-2.111,1.797-3.533,3.269-3.834Z"/>
  <path class="cls-5" d="M678.995,890.005c-.773,4.415-5.827,6.463-9.325,8.165-5.141,2.503-11.273,4.131-16.656,6.344-1.703.7-10.007,6.73-11.01,1.97-1.334-6.333,30.801-18.115,36.991-16.479Z"/>
  <path class="cls-5" d="M513.995,852.005c2.943,2.888-14.676,16.453-17.099,18.391-20.47,16.377-55.135,39.628-81.53,41.548-4.283.312-6.102-1.499-2.065-4.143,7.771-5.089,18.635-7.58,27.375-11.625,25.545-11.822,45.544-28.991,69.285-42.715,1.306-.755,1.967-2.016,4.034-1.456Z"/>
  <path class="cls-5" d="M645.998,603.007c3.392,3.678-11.121,3.048-12.488,2.984-21.638-1.025-41.484-4.566-63.049,2.97-5.413,1.892-16.158,9.104-20.977,9.116-1.591.004-2.553-.253-3.491-1.601,7.267-11.677,25.132-19.083,38.628-20.355,13.22-1.245,33.498-.791,46.601,2.156,5.078,1.142,9.513,4.226,14.776,4.729Z"/>
  <path class="cls-5" d="M657.981,595.992c-.127.106-2.102.37-1.987-.494-.922-8.023-.297-16.986-2.287-24.705-2.561-9.93-11.459-18.314-10.702-28.789,2.96-3.051,11.827,13.442,12.851,15.639,4.485,9.617,6.385,19.142,5.144,29.858-.183,1.578-2.233,7.83-3.02,8.491Z"/>
  <path class="cls-5" d="M578.001,511.01c.293.361.042,2.376-.446,3.045-1.718,2.351-21.889.39-25.92-.19-32.133-4.627-74.222-28.015-95.608-52.392-1.169-1.333-10.985-13.605-10.022-14.468,6.576,1.005,10.716,8.07,15.525,11.965,24.297,19.677,59.526,37.897,89.687,46.313,3.969,1.108,25.923,4.662,26.785,5.726Z"/>
  <path class="cls-5" d="M376.995,694.995c-1.735.227-3.124-.112-4.715-.776-9.714-4.057-39.588-34.585-43.499-44.499-.632-1.602-1.027-2.964-.776-4.715,12.062,4.998,19.077,16.863,27.48,26.009,6.08,6.618,13.927,13.666,19.516,20.484.925,1.129,2.429,1.612,1.994,3.496Z"/>
  <path class="cls-7" d="M119.266,784.257c-2.971,3.111-.766,7.554,2.718,9.258,7.48,3.659,15.306.069,22.503.458,1.135.061,3.332-.503,2.503,1.513-3.005,7.307-30.61,5.98-32.046-4.941-1.108-8.423,5.889-19.987,15.327-15.311,2.52,1.248,5.789,6.3,7.371,6.611,2.24.44,3.948-2.668,5.385-3.325,8.331-3.81,5.653,11.397-4.784,12.294-6.738.579-12.326-13.523-18.978-6.557Z"/>
  <path class="cls-7" d="M125.996,715.994c-9.325-3.321-7.156-15.202-5.295-22.793,1.637-6.678,9.13-22.654,15.552-25.441,16.8-7.291-4.836,20.482-6.421,23.572-4.131,8.054-6.617,15.57-3.835,24.662Z"/>
  <path class="cls-7" d="M227.99,684c.985,13.272-8.913,23.337-14.695,34.795-2.508,4.97-4.06,4.058-4.368-1.271-.705-12.18,11.387-25.078,19.063-33.523Z"/>
  <path class="cls-7" d="M142.005,713.995c-1.798-1.797,8.833-14.561,9.559-17.982.615-2.896-2.288-5.848-1.559-9.008,18.606.118-3.302,31.687-8,26.99Z"/>
  <path class="cls-7" d="M238.995,698.005c1.481,1.492-7.062,18.56-11.99,16.989-1.294-1.294,8.928-20.074,11.99-16.989Z"/>
  <path class="cls-7" d="M196.995,684.005c1.904,2.198-3.743,16.592-8.989,14.99-1.673-1.673,4.727-15.529,8.989-14.99Z"/>
  <path class="cls-7" d="M315.005,316.995c.093-5.074,4.786-8.271,6.471-13.019,5.384-15.17-4.921-28.257-6.466-42.976,4.759,3.256,8.434,9.699,10.478,15.012,1.667,4.335,5.545,18.323,5.516,22.504-.042,6.094-7.933,20.804-15.998,18.478Z"/>
  <path class="cls-7" d="M593.995,317.005c1.525,1.709-8.934,29.428-12.985,31.995-.299-6.616,2.01-13.875,4.507-19.983.492-1.203,6.333-14.415,8.478-12.012Z"/>
  <path class="cls-5" d="M373.739,208.241c12.622-1.982,21.576,5.771,27.087,16.433,9.043,17.495,3.914,29.318-16.279,30.364-18.084.937-11.944-9.242-14.999-22.086-2.622-11.023-14.976-21.702,4.191-24.711Z"/>
  <path class="cls-7" d="M433.995,156.995c-6.279.433-11.08-3.86-17.49-4.06-11.818-.369-37.384,9.579-39.5-7.93,3.146.659,4.836,2.977,8.481,2.995,12.081.061,20.649-8.158,34.768-3.755,2.436.76,16.432,10.157,13.74,12.749Z"/>
  <path class="cls-7" d="M496.987,190.993l-4.971-9.225c-2.952-3.115-4.856-3.153-6.78.964-3.575,7.65,1.945,6.698,3.365,11.248,2.095,6.711-14.68,14.975-15.597,14.016-.066-2.522-.323-5.096,1.103-7.385,1.204-1.933,5.869-3.488,5.972-4.202.567-3.954-8.172-7.56-1.91-17.737,7.382-11.999,26.907-.954,18.818,12.323Z"/>
  <path class="cls-7" d="M417.993,165.997l-6.276-1.042c-8.92,11.611-10.939.624-14.713-7.432,7.568-4.212,19.714-1.205,20.99,8.473Z"/>
  <path class="cls-7" d="M385.005,195.995c-.487-2.849,2.744-4.332,1.877-7.29-.937-3.197-8.956-4.412-8.877-8.699,11.961-2.265,23.905,13.792,7,15.99Z"/>
  <path class="cls-7" d="M392,262.01c-3.46,4.781-15.479,7.016-19.942,3.432-2.458-1.974-4.944-6.713.167-6.247,6.018.548,12.799,4.553,19.775,2.815Z"/>
  <path class="cls-7" d="M403.441,196.492c5.532,5.949,8.697,14.294,8.549,22.503l-9.029-20.457-.974-3.025c.995-1.587.95.437,1.455.979Z"/>
  <path class="cls-7" d="M830.005,168.995c-3.182-2.818,14.901-13.484,17.2-14.29,12.598-4.415,21.438,1.992,32.241.234,4.112-.67,5.798-4.716,9.544-5.938-1.5,19.959-19.967,13.688-33.385,15.105-4.103.433-23.677,6.592-25.6,4.89Z"/>
  <path class="cls-7" d="M865.005,244.995c-3.516-3.13,14.148-7.717,15.603-7.887,4.622-.54,19.7-.879,23.865-.081,3.37.645,4.993,3.22,1.244,5.191-6.905,3.631-13.811.716-20.215.785-3.437.037-18.641,3.644-20.497,1.992Z"/>
  <path class="cls-7" d="M870.908,168.096c1.608,2.331-5.044,13.112-7.618,13.754-5.367,1.338-4.521-6.442-8.816-6.865-1.353-.133-21.046,7.092-9.407-1.418,3.689-2.697,23.248-9.229,25.841-5.471Z"/>
  <path class="cls-7" d="M902,253.01c-3.374,5.825-10.816,8.207-17.241,6.723-2.134-.493-12.428-4.268-6.754-6.199,8.468-2.882,15.468-.425,23.995-.524Z"/>
  <path class="cls-7" d="M883.996,219.995c-1.957,1.956-8.475-2.281-9.011-5.546-.733-4.467,2.453-10.404,6.521-12.442,1.547,3.34-2.853,5.94-2.348,9.266.405,2.668,7.359,6.202,4.838,8.722Z"/>
  <path class="cls-7" d="M803.995,61.005c1.002,5.766-2.305,11.215-2.887,16.599-1.674,15.478,6.137,32.182,7.887,47.391-3.386.017-4.67-4.211-5.754-6.735-7.396-17.219-10.215-37.961-1.686-55.251.704-1.427-.227-2.512,2.44-2.003Z"/>
  <path class="cls-5" d="M855.244,393.755c-2.543-2.642-1.738-10.304,2.47-11.547,12.807-3.781,3.892,18.155-2.47,11.547Z"/>
  <path class="cls-5" d="M441.639,353.134c5.835-1.968,10.805,4.174,7.425,9.426-6.545,4.238-12.692-7.65-7.425-9.426Z"/>
  <path class="cls-2" d="M386.995,216.995l-18.99,1c-3.588-3.057,19.122-9.208,18.99-1Z"/>
  <path class="cls-6" d="M396.995,243.005c1.818,1.469-3.927,3.779-4.477,4.008-18.61,7.759-9.263-7.56,4.477-4.008Z"/>
</svg>