<?xml version="1.0" encoding="UTF-8"?>
<svg id="Layer_1" data-name="Layer 1" xmlns="http://www.w3.org/2000/svg" viewBox="0 0 1152 1152">
  <defs>
    <style>
      .cls-1 {
        fill: #013347;
      }

      .cls-2 {
        fill: #a12625;
      }

      .cls-3 {
        fill: #f7f4ef;
      }
    </style>
  </defs>
  <path class="cls-3" d="M1152,0v1152H0V0h1152ZM784.675,151.342c-171.198-94.713-397.979-58.057-529.189,86.644-142.258,156.884-138.756,414.588,15.967,562.061,1.398,1.333,5.976,5.322,7.539,4.516l31.001-30.544c-8.23-5.513-15.774-14.424-22.506-22.005-134.878-151.876-118.793-387.366,35.041-516.987,91.801-77.352,213.975-105.434,332.657-82.711,250.936,48.045,381.993,332.891,244.442,552.81-16.129,25.788-36.936,48.739-57.627,70.855,6.846,1.697,27.886,29.694,32.358,28.913,1.543-.269,18.999-19.775,21.587-22.689,75.572-85.071,108.718-184.651,102.097-298.747-8.08-139.235-93.33-265.708-213.366-332.117ZM662.819,254.714c0-44.411-36.003-80.414-80.414-80.414s-80.414,36.003-80.414,80.414,36.003,80.414,80.414,80.414,80.414-36.003,80.414-80.414ZM494,258c-18.121,1.889-36.723.864-53.982,7.518-58.945,22.727-38.007,91.953-22.044,137.007,21.946,61.94,55.4,120.625,87.29,177.798-11.06,32.855,22.114,42.054,48.114,39.555,4.504-.433,11.851-3.512,15.294-3.633,1.774-.062,6.626,2.412,9.839,2.742,24.325,2.503,48.709-11.833,33.902-37.982,16.502-44.764,40.463-86.76,57.355-131.737,12.211-32.514,32.242-89.899,29.215-123.753-1.62-18.115-17.975-35.553-30.498-47.507-2.208-.312-1.185.305-1.465,1.496-14.307,60.898-83.39,86.294-135.767,52.741-15.946-10.215-37.254-40.476-37.254-59.746v-14.5ZM360.996,575.005l119.985-13.504c-34.354-60.292-65.824-123.135-83.992-190.495l-5.17,9.313c-17.013,40.604-37.976,78.661-35.861,124.223.217,4.669,1.761,10.319,2.032,14.968,1.076,18.494,1.912,37.012,3.006,55.495ZM859.347,574.653c-14.77-16.465-32.683-27.944-55.802-28.698-6.922-.226-15.747,3.285-20.819,2.822-3.005-.274-6.76-3.198-9.908-4.095-19.311-5.498-47.472,1.512-60.788,16.847-13.823,15.918-20.515,43.02-11.029,62.461-3.727-.597-12.381,2.528-15.302,1.854-1.528-.353-7.175-7.143-9.227-8.814-15.008-12.224-33.132-20.649-52.463-23.026,3.316,26.014-25.348,41.759-48.048,35.537-2.467-.676-5.836-3.252-6.633-3.378-.731-.116-10.952,4.029-14.082,4.581-25.709,4.538-65.779-4.76-65.324-37.237.046-3.285,3.119-11.673,2.886-12.871-.276-1.423-6.043-5.734-6.465-8.709l-236.333,26.082.038,81.444c6.135,13.079,15.566,23.85,22.941,36.059l35.009,3.481c-4.434-14.232-2.307-26.324,6.174-38.322,2.931-4.147,9.289-10.107,13.076-11.966,5.975-2.933,12.595-4.211,19.206-4.753l243.027.068c5.44,1.042,6.382,10.753.078,11.037l-241.103-.102c-41.203,2.013-43.74,63.48-4.995,72.086,104.223-.912,208.711,1.64,312.781-1.3,27.126-5.485,48.409-40.544,49.756-66.746,4.053,1.156,18.71.092,21.016,1.493.682.414,6.377,11.083,8.475,13.525,7.345,8.55,23.438,17.578,34.294,20.706,84.803,24.433,147.204-75.814,89.565-140.065ZM478,881c-3.888-29.345-23.166-56.55-51.017-67.483-19.934-7.825-56.773-7.432-76.668,1.298-57.132,25.071-67.664,98.707-49.035,152.409,29.058,83.769,158.414,82.166,177.294-8.191.319-1.528-.677-2.829-.584-3.45.137-.906,1.889-.467,2.002-.599.302-.355-1.301-1.984-1.492-1.984h-48c-10.405,31.458-50.79,40.207-72.471,14.471-22.25-26.413-18.392-108.893,23.556-114.386,25.262-3.308,37.44,7.098,48.915,27.915h47.5ZM504,812v211l48-1v-70c42.578-.248,97.64,4.274,109.539-47.961,7.688-33.75-2.195-75.567-38.544-86.535s-81.16-2.974-118.996-5.504ZM689,812v210h48v-75.5c0-1.12,3.262-1.835,4.461-1.563l20.244,1.33,42.46,73.067,3.334,3.666h52c.111,0,1.997-1.453,1.01-1.98l-46.493-81.599c-.047-.736-.316-1.774.074-2.336.407-.584,10.419-3.58,13.229-5.266,14.334-8.599,24.476-30.106,25.667-46.333,3.372-45.933-25.821-70.834-69.445-73.529-30.793-1.903-63.549,1.507-94.542.042Z"/>
  <path class="cls-1" d="M859.347,574.653c57.639,64.251-4.762,164.498-89.565,140.065-10.856-3.128-26.95-12.156-34.294-20.706-2.098-2.442-7.793-13.111-8.475-13.525-2.306-1.4-16.963-.337-21.016-1.493-1.347,26.202-22.63,61.26-49.756,66.746-104.07,2.94-208.557.388-312.781,1.3-38.745-8.605-36.208-70.073,4.995-72.086l241.103.102c6.304-.284,5.362-9.995-.078-11.037l-243.027-.068c-6.611.542-13.23,1.82-19.206,4.753-3.787,1.859-10.145,7.819-13.076,11.966-8.481,11.998-10.608,24.09-6.174,38.322l-35.009-3.481c-7.375-12.209-16.806-22.98-22.941-36.059l-.038-81.444,236.333-26.082c.422,2.975,6.188,7.286,6.465,8.709.233,1.198-2.84,9.585-2.886,12.871-.456,32.477,39.615,41.775,65.324,37.237,3.129-.552,13.35-4.697,14.082-4.581.797.126,4.166,2.702,6.633,3.378,22.701,6.221,51.364-9.523,48.048-35.537,19.332,2.377,37.455,10.802,52.463,23.026,2.052,1.671,7.699,8.462,9.227,8.814,2.922.675,11.575-2.451,15.302-1.854-9.485-19.441-2.793-46.542,11.029-62.461,13.316-15.335,41.477-22.345,60.788-16.847,3.148.896,6.903,3.82,9.908,4.095,5.072.463,13.897-3.048,20.819-2.822,23.119.755,41.032,12.234,55.802,28.698Z"/>
  <path class="cls-2" d="M784.675,151.342c120.036,66.409,205.286,192.881,213.366,332.117,6.621,114.096-26.525,213.676-102.097,298.747-2.588,2.914-20.044,22.42-21.587,22.689-4.473.781-25.512-27.216-32.358-28.913,20.691-22.116,41.497-45.067,57.627-70.855,137.55-219.918,6.493-504.765-244.442-552.81-118.681-22.723-240.855,5.359-332.657,82.711-153.834,129.621-169.919,365.111-35.041,516.987,6.732,7.581,14.276,16.492,22.506,22.005l-31.001,30.544c-1.563.806-6.14-3.183-7.539-4.516-154.723-147.473-158.225-405.177-15.967-562.061,131.21-144.7,357.991-181.357,529.189-86.644Z"/>
  <path class="cls-1" d="M494,258v14.5c0,19.27,21.308,49.531,37.254,59.746,52.377,33.552,121.46,8.157,135.767-52.741.28-1.191-.742-1.808,1.465-1.496,12.522,11.954,28.878,29.393,30.498,47.507,3.027,33.854-17.004,91.239-29.215,123.753-16.892,44.978-40.853,86.973-57.355,131.737,14.807,26.148-9.577,40.485-33.902,37.982-3.213-.331-8.065-2.805-9.839-2.742-3.444.121-10.791,3.2-15.294,3.633-26.001,2.499-59.175-6.7-48.114-39.555-31.889-57.174-65.344-115.858-87.29-177.798-15.963-45.055-36.902-114.281,22.044-137.007,17.259-6.654,35.861-5.629,53.982-7.518ZM488.982,367.995l-8.977,1.5c4.526,7.869,6.383,17.897,9.319,26.681,16.222,48.528,37.616,101.872,62.505,146.495,8.346,14.963,11.846,24.074,27.502,32.498,1.431.77,8.926,4.511,9.659,3.834,5.066-13.089-2.026-10.536-10.329-16.16-6.981-4.728-11.477-12.385-14.441-20.182,20.968-50.207,44.896-99.889,58.774-152.658-2.548.824-6.31.407-7.917,2.572-13.673,32.389-26.584,65.168-40.591,97.409-5.152,11.859-10.579,25.197-16.395,36.595-.533,1.044.522,1.887-2.075,1.417l-16.501-34.011-50.532-125.991Z"/>
  <path class="cls-2" d="M689,812c30.992,1.465,63.749-1.945,94.542-.042,43.624,2.696,72.818,27.596,69.445,73.529-1.191,16.227-11.333,37.734-25.667,46.333-2.81,1.686-12.823,4.681-13.229,5.266-.39.561-.121,1.599-.074,2.336l46.493,81.599c.987.527-.899,1.98-1.01,1.98h-52l-3.334-3.666-42.46-73.067-20.244-1.33c-1.198-.272-4.461.443-4.461,1.563v75.5h-48v-210ZM737,905h36.5c3.625,0,14.04-2.766,17.537-4.463,18.133-8.8,16.089-43.038-5.648-45.426l-48.389-1.111v51Z"/>
  <path class="cls-2" d="M478,881h-47.5c-11.475-20.817-23.654-31.223-48.915-27.915-41.947,5.493-45.806,87.973-23.556,114.386,21.68,25.736,62.065,16.987,72.471-14.471h48c.191,0,1.794,1.629,1.492,1.984-.112.132-1.865-.307-2.002.599-.094.62.903,1.921.584,3.45-18.88,90.357-148.236,91.96-177.294,8.191-18.628-53.702-8.097-127.338,49.035-152.409,19.894-8.73,56.734-9.123,76.668-1.298,27.851,10.933,47.129,38.138,51.017,67.483Z"/>
  <path class="cls-2" d="M504,812c37.836,2.53,82.585-5.482,118.996,5.504s46.232,52.785,38.544,86.535c-11.899,52.235-66.961,47.712-109.539,47.961v70l-48,1v-211ZM552,911h38.5c2.535,0,10.04-2.092,12.551-3.449,15.999-8.647,16.918-42.71-.504-50.598-2.423-1.097-10.682-2.953-13.047-2.953h-37.5v57Z"/>
  <circle class="cls-1" cx="582.406" cy="254.714" r="80.414"/>
  <path class="cls-1" d="M360.996,575.005c-1.094-18.482-1.929-37-3.006-55.495-.271-4.65-1.815-10.299-2.032-14.968-2.116-45.562,18.848-83.619,35.861-124.223l5.17-9.313c18.168,67.359,49.637,130.203,83.992,190.495l-119.985,13.504Z"/>
  <path class="cls-3" d="M488.982,367.995l50.532,125.991,16.501,34.011c2.597.471,1.542-.372,2.075-1.417,5.816-11.398,11.243-24.736,16.395-36.595,14.007-32.241,26.917-65.02,40.591-97.409,1.608-2.166,5.369-1.748,7.917-2.572-13.877,52.768-37.806,102.451-58.774,152.658,2.964,7.796,7.461,15.453,14.441,20.182,8.303,5.624,15.396,3.071,10.329,16.16-.733.676-8.228-3.065-9.659-3.834-15.657-8.423-19.157-17.535-27.502-32.498-24.889-44.623-46.283-97.967-62.505-146.495-2.936-8.784-4.793-18.812-9.319-26.681l8.977-1.5Z"/>
  <path class="cls-3" d="M737,905v-51l48.389,1.111c21.737,2.388,23.781,36.626,5.648,45.426-3.497,1.697-13.912,4.463-17.537,4.463h-36.5Z"/>
  <path class="cls-3" d="M552,911v-57h37.5c2.366,0,10.624,1.856,13.047,2.953,17.421,7.888,16.502,41.951.504,50.598-2.511,1.357-10.016,3.449-12.551,3.449h-38.5Z"/>
</svg>