<?xml version="1.0" encoding="UTF-8"?>
<svg id="Layer_1" data-name="Layer 1" xmlns="http://www.w3.org/2000/svg" viewBox="0 0 846.885 929.497">
  <defs>
    <style>
      .cls-1 {
        fill: #08364d;
      }

      .cls-2 {
        fill: #cc2929;
      }
    </style>
  </defs>
  <path class="cls-1" d="M707.366,475.672c57.639,64.251-4.762,164.498-89.565,140.065-10.856-3.128-26.95-12.156-34.294-20.706-2.098-2.442-7.793-13.111-8.475-13.525-2.306-1.4-16.963-.337-21.016-1.493-1.347,26.202-22.63,61.26-49.756,66.746-104.07,2.94-208.557.388-312.781,1.3-38.745-8.605-36.208-70.073,4.995-72.086l241.103.102c6.304-.284,5.362-9.995-.078-11.037l-243.027-.068c-6.611.542-13.23,1.82-19.206,4.753-3.787,1.859-10.145,7.819-13.076,11.966-8.481,11.998-10.608,24.09-6.174,38.322l-35.009-3.481c-7.375-12.209-16.806-22.98-22.941-36.059l-.038-81.444,236.333-26.082c.422,2.975,6.188,7.286,6.465,8.709.233,1.198-2.84,9.585-2.886,12.871-.456,32.477,39.615,41.775,65.324,37.237,3.129-.552,13.35-4.697,14.082-4.581.797.126,4.166,2.702,6.633,3.378,22.701,6.221,51.364-9.523,48.048-35.537,19.332,2.377,37.455,10.802,52.463,23.026,2.052,1.671,7.699,8.462,9.227,8.814,2.922.675,11.575-2.451,15.302-1.854-9.485-19.441-2.793-46.542,11.029-62.461,13.316-15.335,41.477-22.345,60.788-16.847,3.148.896,6.903,3.82,9.908,4.095,5.072.463,13.897-3.048,20.819-2.822,23.119.755,41.032,12.234,55.802,28.698h0Z"/>
  <path class="cls-2" d="M632.694,52.361c120.036,66.409,205.286,192.881,213.366,332.117,6.621,114.096-26.525,213.676-102.097,298.747-2.588,2.914-20.044,22.42-21.587,22.689-4.473.781-25.512-27.216-32.358-28.913,20.691-22.116,41.497-45.067,57.627-70.855,137.55-219.918,6.493-504.765-244.442-552.81-118.681-22.723-240.855,5.359-332.657,82.711C16.712,265.668.627,501.158,135.505,653.034c6.732,7.581,14.276,16.492,22.506,22.005l-31.001,30.544c-1.563.806-6.14-3.183-7.539-4.516C-35.252,553.594-38.754,295.89,103.504,139.006,234.714-5.694,461.495-42.351,632.693,52.362h0Z"/>
  <path class="cls-1" d="M342.019,159.019v14.5c0,19.27,21.308,49.531,37.254,59.746,52.377,33.552,121.46,8.157,135.767-52.741.28-1.191-.742-1.808,1.465-1.496,12.522,11.954,28.878,29.393,30.498,47.507,3.027,33.854-17.004,91.239-29.215,123.753-16.892,44.978-40.853,86.973-57.355,131.737,14.807,26.148-9.577,40.485-33.902,37.982-3.213-.331-8.065-2.805-9.839-2.742-3.444.121-10.791,3.2-15.294,3.633-26.001,2.499-59.175-6.7-48.114-39.555-31.889-57.174-65.344-115.858-87.29-177.798-15.963-45.055-36.902-114.281,22.044-137.007,17.259-6.654,35.861-5.629,53.982-7.518h-.001,0ZM337.001,269.014l-8.977,1.5c4.526,7.869,6.383,17.897,9.319,26.681,16.222,48.528,37.616,101.872,62.505,146.495,8.346,14.963,11.846,24.074,27.502,32.498,1.431.77,8.926,4.511,9.659,3.834,5.066-13.089-2.026-10.536-10.329-16.16-6.981-4.728-11.477-12.385-14.441-20.182,20.968-50.207,44.896-99.889,58.774-152.658-2.548.824-6.31.407-7.917,2.572-13.673,32.389-26.584,65.168-40.591,97.409-5.152,11.859-10.579,25.197-16.395,36.595-.533,1.044.522,1.887-2.075,1.417l-16.501-34.011-50.532-125.991h-.001,0Z"/>
  <path class="cls-2" d="M537.019,713.019c30.992,1.465,63.749-1.945,94.542-.042,43.624,2.696,72.818,27.596,69.445,73.529-1.191,16.227-11.333,37.734-25.667,46.333-2.81,1.686-12.823,4.681-13.229,5.266-.39.561-.121,1.599-.074,2.336l46.493,81.599c.987.527-.899,1.98-1.01,1.98h-52l-3.334-3.666-42.46-73.067-20.244-1.33c-1.198-.272-4.461.443-4.461,1.563v75.5h-48v-210h0ZM585.019,806.019h36.5c3.625,0,14.04-2.766,17.537-4.463,18.133-8.8,16.089-43.038-5.648-45.426l-48.389-1.111v51h0Z"/>
  <path class="cls-2" d="M326.019,782.019h-47.5c-11.475-20.817-23.654-31.223-48.915-27.915-41.947,5.493-45.806,87.973-23.556,114.386,21.68,25.736,62.065,16.987,72.471-14.471h48c.191,0,1.794,1.629,1.492,1.984-.112.132-1.865-.307-2.002.599-.094.62.903,1.921.584,3.45-18.88,90.357-148.236,91.96-177.294,8.191-18.628-53.702-8.097-127.338,49.035-152.409,19.894-8.73,56.734-9.123,76.668-1.298,27.851,10.933,47.129,38.138,51.017,67.483h0Z"/>
  <path class="cls-2" d="M352.019,713.019c37.836,2.53,82.585-5.482,118.996,5.504s46.232,52.785,38.544,86.535c-11.899,52.235-66.961,47.712-109.539,47.961v70l-48,1v-211h-.001ZM400.019,812.019h38.5c2.535,0,10.04-2.092,12.551-3.449,15.999-8.647,16.918-42.71-.504-50.598-2.423-1.097-10.682-2.953-13.047-2.953h-37.5v57Z"/>
  <circle class="cls-1" cx="430.425" cy="155.733" r="80.414"/>
  <path class="cls-1" d="M209.015,476.024c-1.094-18.482-1.929-37-3.006-55.495-.271-4.65-1.815-10.299-2.032-14.968-2.116-45.562,18.848-83.619,35.861-124.223l5.17-9.313c18.168,67.359,49.637,130.203,83.992,190.495l-119.985,13.504h0Z"/>
</svg>