<?xml version="1.0" encoding="UTF-8"?>
<svg id="Layer_1" data-name="Layer 1" xmlns="http://www.w3.org/2000/svg" viewBox="0 0 1024 1024">
  <defs>
    <style>
      .cls-1 {
        fill: #0e1213;
      }

      .cls-2 {
        fill: #f1b67b;
      }

      .cls-3 {
        fill: #cd3627;
      }

      .cls-4 {
        fill: #06263f;
      }

      .cls-5 {
        fill: #fdfcfa;
      }

      .cls-6 {
        fill: #126fa2;
      }
    </style>
  </defs>
  <path class="cls-5" d="M325,1024H0V0h1024v765l-7.781-21.673c3.708-9.422.851-21.777-1.513-31.533-5.645-23.298-19.956-49.189-47.703-46.8,5.087-23.638,9.643-46.123,6.981-70.478-3.193-29.218-11.513-55.778-23.802-82.278,7.263-24.825,8.568-36.259-3.661-59.259-2.526-4.75-14.873-21.977-15.372-24.718-.977-5.365,7.19-11.602,5.448-17.292-31.131-67.038-65.565-169.608-137.24-202.826-37.169-17.226-90.2-22.222-130.899-21.184-5.853.149-16.699,2.497-21.922,2.025-1.887-.17-11.138-7.168-14.328-8.693-3.149-1.506-13.892-4.416-15.218-5.782-3.224-3.322-4.547-32.135-8.817-38.263,1.698-22.01-11.81-56.643-25.343-74.578-31.825-42.178-127.042-35.523-164.302-3.639-17.877,15.298-20.469,35.627-28.555,56.445-11.238,4.664-22.978,8.144-34.225,12.775-11.106,4.573-36.078,14.309-38.514,27.479-6.105,32.999,48.518,28.889,67.76,24.268-.362,4.053.099,6.969,1.977,10.529,2.248,4.261,12.99,13.372,13.822,16.178,1.256,4.24-.199,13.398.327,18.673,1.434,14.378,15.14,39.346,22.357,52.643,3.168,5.837,13.643,19.43,14.369,24.734.391,2.858-10.414,15.31-12.674,18.919-16.255,25.962-21.678,60.054-32.155,88.845-2.967,8.153-16.107,33.413-16.861,38.23-.351,2.24.986,3.815.431,6.248-.27,1.182-7.5,12.652-8.761,14.33-5.53,7.358-13.67,11.587-20.354,17.646-34.77,31.514-46.373,84.595-81.973,116.011-6.452-6.521-14.566-11.252-23.466-13.518-3.542-.902-7.801-.837-11.255-1.745-10.333-2.716-16.39-13.273-24.48-19.52l-42.261-4.241c-.323-9.993-10.25-20.143-19.243-23.256-4.371-1.512-8.725-.927-12.096-1.904-2.441-.708-9.261-7.869-14.428-9.572-10.057-3.315-17.366-.572-25.965,4.578-20.423,12.231-48.324,48.726-55.59,71.41-2.62,8.178-3.064,16.729-5.21,24.79-4.475,16.811-12.645,25.765-8.054,45.041,1.08,4.535,4.968,9.953,5.495,13.522.722,4.898-1.337,12.753-.935,18.917,1.199,18.348,10.275,33.39,24.983,44.018-39.395,17.218-18.044,33.754,11.007,41.993,13.554,3.844,30.291,3.568,41.289,6.711,2.082.595,9.849,6.596,13.728,8.272,18.632,8.054,40.098,11.432,60.262,9.745,4.174,3.12,33.283,12.998,34.533,14.961.552.866.116,3.356.626,4.854,2.222,6.52,5.965,10.602,11.481,14.559-10.125,18.644-12.38,35.977-11.961,56.942.06,3.025,1.372,5.651,1.093,8.955-.425,5.03-5.025,9.879-5.129,17.008-.354,24.184,36.256,43.887,54.405,54.667,20.03,11.898,41.164,22.037,60.672,34.828Z"/>
  <path class="cls-1" d="M325,1024c-19.509-12.791-40.642-22.93-60.672-34.828-18.149-10.78-54.759-30.483-54.405-54.667.104-7.13,4.704-11.978,5.129-17.008.279-3.304-1.032-5.93-1.093-8.955-.419-20.964,1.837-38.297,11.961-56.942-5.516-3.957-9.259-8.039-11.481-14.559-.51-1.497-.075-3.988-.626-4.854-1.25-1.963-30.358-11.841-34.533-14.961-20.164,1.687-41.629-1.691-60.262-9.745-3.879-1.677-11.645-7.677-13.728-8.272-10.998-3.143-27.735-2.867-41.289-6.711-29.051-8.239-50.402-24.774-11.007-41.993-14.708-10.628-23.784-25.67-24.983-44.018-.403-6.164,1.657-14.019.935-18.917-.526-3.57-4.415-8.988-5.495-13.522-4.591-19.277,3.579-28.231,8.054-45.041,2.146-8.062,2.59-16.613,5.21-24.79,7.267-22.684,35.168-59.179,55.59-71.41,8.599-5.15,15.908-7.893,25.965-4.578,5.167,1.703,11.987,8.865,14.428,9.572,3.371.977,7.725.392,12.096,1.904,8.993,3.112,18.919,13.262,19.243,23.256l42.261,4.241c8.09,6.248,14.147,16.805,24.48,19.52,3.454.908,7.714.843,11.255,1.745,8.9,2.266,17.014,6.997,23.466,13.518,35.601-31.416,47.203-84.496,81.973-116.011,6.685-6.059,14.825-10.288,20.354-17.646,1.261-1.678,8.491-13.149,8.761-14.33.555-2.433-.782-4.008-.431-6.248.754-4.818,13.894-30.077,16.861-38.23,10.477-28.791,15.9-62.883,32.155-88.845,2.26-3.609,13.066-16.061,12.674-18.919-.727-5.304-11.201-18.896-14.369-24.734-7.217-13.297-20.923-38.265-22.357-52.643-.526-5.275.929-14.434-.327-18.673-.831-2.806-11.574-11.917-13.822-16.178-1.879-3.56-2.339-6.477-1.977-10.529-19.242,4.62-73.865,8.731-67.76-24.268,2.437-13.171,27.409-22.907,38.514-27.479,11.247-4.631,22.987-8.111,34.225-12.775,8.086-20.818,10.678-41.147,28.555-56.445,37.26-31.884,132.477-38.539,164.302,3.639,13.533,17.935,27.041,52.568,25.343,74.578,4.27,6.128,5.593,34.941,8.817,38.263,1.326,1.366,12.069,4.277,15.218,5.782,3.19,1.525,12.441,8.523,14.328,8.693,5.222.472,16.069-1.876,21.922-2.025,40.699-1.038,93.73,3.958,130.899,21.184,71.676,33.218,106.109,135.788,137.24,202.826,1.742,5.69-6.425,11.928-5.448,17.292.499,2.74,12.846,19.967,15.372,24.718,12.23,23,10.924,34.434,3.661,59.259,12.288,26.5,20.608,53.059,23.802,82.278,2.662,24.355-1.894,46.839-6.981,70.478,27.747-2.389,42.057,23.503,47.703,46.8,2.364,9.757,5.221,22.112,1.513,31.533l7.781,21.673v47c-4.058-.088-8.235-.61-12.231-1.268-47.133-7.77-96.221-18.769-143.397-24.603-6.246-.772-21.459-2.908-26.811-2.059-2.772.439-21.733,12.607-24.886,15.104-.976.773-2.415,1.492-2.674,2.817,34.999,6.53,74.276,14.531,105.672,31.838,2.481,1.367,19.358,11.536,20.125,12.436.503.59.203,1.918.208,2.733,1.281.206,2.596.275,1.954-1.447-2.138-5.731-9.185-16.943-12.981-22.029-1.949-2.611-7.131-6.062-7.963-9.042-.973-3.485,8.31.002,9.181.561.847.543,9.583,10.009,10.775,11.489,10.911,13.548,16.278,28.957,21.042,45.463,1.65-.192,2.016-3.794,2.331-5.15,2.672-11.513,3.844-23.776,3.959-35.591.013-1.332-1.306-2.631,1.183-2.242,9.177,17.35,4.068,37.446,3.951,56.059l50.564,12.932v12c-30.007-7.474-60.167-16.782-91.542-15.042-24.171,1.341-47.875,8.299-71.451,13.038-.344-2.152,3.843-4.362,5.309-5.185,6.923-3.888,22.581-9.331,30.475-11.52,10.806-2.997,23.037-4.894,34.203-5.297.485-2.303-.247-1.604-1.274-2.248-18.596-11.672-57.96-4.193-77.404,4.07l-40.312,20.178c-.27-2.304.574-3.78,2.078-5.412,7.015-7.616,24.425-18.414,33.889-23.111,32.716-16.236,58.829-17.926,92.707-3.65,1.957.825,8.748,6.117,8.319,2.697-.356-2.839-3.919-10.82-5.463-13.552-18.088-31.989-78.718-47.221-112.499-54.501-8.643-1.862-17.537-3.196-26.309-4.325-19.631,18.173-36.614,40.69-50.535,63.549-20.085,32.98-39.286,86.792-35.065,125.685,1.652,15.218,11.882,18.706,22.875,26.625h-76c-.639-1.702-2.238-2.098-3.644-2.853-35.659-19.152-76.912-36.391-117.815-38.188-4.443-.195-28.697,1.251-29.538.03-.552-.801.45-3.989,1.497-3.989h26.5c-10.374-7.167-21.361-13.944-32.328-20.172-4.461-2.534-24.791-14.596-27.983-14.553-1.03.014-5.174,1.132-6.311,1.574-23.67,9.186-46.216,30.184-57.899,53.131-3.896,7.653-7.129,16.807-9.479,25.021h-12c8.694-37.229,37.257-72.791,73.999-85.011-.085-1.23-1.423-1.633-2.303-2.185-3.472-2.176-27.211-12.558-30.007-12.528-3.678.04-15.134,4.183-19.207,5.706-27.233,10.182-42.868,28.72-53.951,55.049-5.056,12.011-9.552,25.904-9.531,38.969h-31ZM512,46c13.278,13.871,18.033,33.736,18.991,52.51.148,2.904.083,20.644-4.08,11.079-1.903-4.372-1.274-14.528-2.061-19.947-.959-6.606-2.194-13.116-4.669-19.322-3.236-8.115-12.272-23.506-21.634-24.367-19.725-1.813-62.437,8.99-76.594,23.501-9.783,10.026-13.452,27.617-17.948,40.542,35.221-11.987,71.278-1.268,106.504,2.997,5.852.708,13.142.298,18.986,1.014,22.51,2.757,45.462,4.615,66.992,12.008-5.708-30.096-19.285-65.397-50.716-76.284-3.486-1.207-12.005-3.729-15.271-3.729h-18.5ZM517.995,121.005c-35.42-3.17-68.386-14.859-104.211-5.721-19.828,5.058-39.373,14.997-59.035,20.965l-14.745,6.74c9.376-.879,18.247-4.994,27.624-5.861,29.751-2.751,56.992,13.57,86.861,11.861,20.554-1.176,45.682-12.614,61.838-25.162,1.112-.864,2.075-1,1.667-2.822ZM536.298,179.699c-3.659-2.68-3.504-9.648-4.82-12.677-.974-2.244-6.2-5.265-7.875-9.125-1.183-2.725-1.102-7.248-2.116-8.884-.937-1.512-11.561-6.364-13.13-9.912-11.984,7.006-24.185,14.396-38.352,15.91l13.921,7.564,2.071,5.421c-6.177,1.256-13.697-1.898-19.443-.933-4.405.74-6.168,5.986-9.548,8.443,5.281-.148,18.708,2.531,20.986,8.009.893,2.148-1.056,1.278-2.097,1.1-1.79-.305-11.213-3.259-11.889-2.609,1.132,4.818,3.685,8.241.474,12.995-.161.238-3.866,3.925-4.146,3.993-3.148.763-4.527-3.069-7.124-2.234-2.016-1.242-5.84-10.266-6.367-10.596-2.628-1.646-20.862,2.327-22.773-3.741-1.078-3.423,7.085-5.042,9.867-6.986,3.584-2.505,10.581-8.757,14.079-11.921.597-.54,4.361-4.144,3.985-4.504-4.58-2.108-6.451.825-10.459,1.09s-14.455-.734-19.03-1.111c-9.185-.755-18.4-2.669-27.504-3.985,1.719,8.342.7,17.316-3.005,24.985,8.664-2.551,15.253,2.161,22.999,5-3.544-3.934-5.379-8.066-5.069-13.509.689-12.096,6.144,5.76,7.53,8.558.943,1.904,6.193,8.754,6.195,9.444,0,.365-1.878,3.61-2.221,5.458-1.773,9.569-7.479,31.279-6.339,39.472.737,5.298,8.625,11.532,13.366,11.616.329.006,1.985-4.148,3.496-5.575,4.674-4.416,19.485-7.669,16.615,1.583-2.044,6.587-8.177-2.612-12.667,3.414-2.006,2.693,2.324,9.35-1.528,10.483-.984.289-6.196-1.472-7.588-2.023-.307-.121-5.135-5.083-5.77-1.436,9.314,22.194,23.121,41.964,33.151,63.855,3.055,6.668,4.337,17.006,10.336,21.664,10.407,8.081,31.241,2.942,41.814-3.175,16.564-9.582,53.454-55.977,58.625-74.375,4.496-16,1.664-28.741-4.94-43.438,7.831,2.893,10.595,5.21,18.019-.483,15.941-12.223,26.403-51.045,8.889-64.936-9.055-7.181-17.389-5.401-24.911,2.913-.876.968-8.196,10.86-8.487,11.513-1.035,2.319-.192,4.886-.722,7.278-1.207,5.448-11.662,9.946-16.494,6.407ZM549,170.01l-10.993.483c2.586,6.08,8.926,5.085,10.993-.483ZM608,449h-19.5c-.475,0-3.271-1.521-3.995-2.005-7.027-4.704-24.399-38.281-26.785-47.215-2.244-8.402-1.753-16.126-1.767-24.736-9.247.494-23.682-8.7-31.551-9.008-6.651-.26-15.988,13.233-21.847,6.906-4.391-4.742-.369-12.864-1.555-18.941h-25.5c-2.003,0-10.275-2.498-12.497-3.503-6.751-3.056-11.224-9.455-13.777-16.223-1.78-4.719-2.397-12.986-4.228-16.657-.559-1.121-.93-.679-1.98-.609-7.787,10.928-14.127,22.084-18.767,34.745-10.429,28.457-16.634,56.568-29.076,84.924-1.417,3.231-6.99,11.272-5.263,13.844,6.325,9.421,34.097,23.484,45.101,27.965,8.413,3.426,45.105,15.187,51.778,11.296.789-.46,9.39-12.912,10.624-14.866,3.221-5.102,5.948-10.495,8.584-15.906-11.858,4.891-25.594,8.204-38.461,9.029-.838.054-9.721.868-8.532-1.527,8.271-6.29,19.809-8.858,28.319-14.687,1.483-1.015,8.5-6.016,6.671-7.82-28.87.728-57.4-6.101-79.989-24.517-.439-2.462,1.837-1.499,3.254-1.253,6.887,1.198,16.393,6.107,23.742,8.261,17.163,5.031,35.059,7.977,52.992,7.493l-17.3-9.184c-13.891-8.52-27.915-23.139-35.24-37.76-2.529-5.049-6.044-12.47-4.96-18.04,12.004,18.871,27.45,33.069,45.495,45.995-5.973-13.931-13.257-27.5-17.252-42.238-.514-1.895-4.872-16.857-1.238-16.742,1.914.061,13.9,30.139,16.327,34.652,43.575,81.018,127.186,135.638,218.709,144.292,5.053.478,6.766,2.413,1.129,4.215-4.696,1.501-28.514-.587-34.89-1.454-22.309-3.034-45.008-11.434-65.775-19.715,17.932,22.414,40.676,39.706,67.749,49.741,3.647,3.009,30.923,8.16,31.245,9.765.311,1.546-1.167,2.242-2.5,2.479-11.565,2.055-49.297-8.841-60.707-14.282-4.182-1.995-8.706-4.742-12.293-7.707-.877,2.401-1.101,6.535.515,8.485,1.764,2.13,17.804,10.215,21.309,11.691,13.994,5.893,46.612,13.476,61.135,10.772,3.201-.596,19.807-12.733,23.443-15.557,3.073-2.387,20.249-16.887,21.095-18.91.854-2.042-1.386-1.411-2.476-1.487-12.066-.842-27.928-1.334-37.513-8.988,6.942-1.966,14.372-.668,21.539-.971,7.806-.33,18.772-.167,25.981-1.019,5.679-.671,11.649-9.129,15.452-13.548,8.799-10.223,16.21-21.716,24.983-31.974-11.398-9.328-16.957-21.867-23.132-34.822-1.063-2.23-1.485-7.583-3.91-5.039-1.298,1.361-2.78,4.579-4.403,6.372-8.149,8.997-18.965,18.993-30.506,22.984,4.165-9.984,11.388-18.388,16.516-27.974,4.16-7.776,7.949-15.961,10.471-24.443-5.757-10.861-9.684-23.731-15.824-34.248-12.538-21.474-34.169-45.239-34.169-72.831v-18.5l5.983,20.517c5.299,15.284,10.63,31.532,22.007,43.482-11.478-35.464-17.573-73.316-5.006-109.516,8.38-24.14,30.589-51.43,59.009-42.472l-16.22,3.26c-21.516,7.228-35.297,34.53-39.477,55.523-11.474,57.619,18.679,111.937,45.717,160.203,33.645-31.69,74.98-55.15,120.99-63.006.173-1.079-.146-2.018-.456-3.033-3.265-10.71-14.238-30.329-19.688-41.318-16.043-32.349-38.505-77.603-67.528-99.472-33.886-25.532-83.597-31.977-124.791-33.216-13.813-.415-27.724.399-41.535.051,2.318,5.638,5.9,10.721,8.016,16.474,3.011,8.186,4.092,16.89,6.206,25.295,6.434,1.029,68.805,8.178,68.753,12.727l-3.254,2.257c-21.26-4.883-42.99-7.132-64.73-8.76,1.828,24.273,4.641,50.201,3.052,74.551-.372,5.697-1.106,19.434-8.417,19.375-7.432-.06-17.347-3.126-25.143-3.909-6.365-.639-13.105-.054-19.491-1.018-.695.685,1.005,10.606-.48,13.02-1.823,2.962-25.426,12.736-26.358,16.577,2.138,8.325,4.257,16.722,6.823,24.928,3.285,10.503,10.665,24.725,12.78,34.222.564,2.532,1.042,5.323-2.262,4.281-3.697-1.167-21.905-51.343-19.503-59.018-7.174,3.053-11.646,10.467-15.844,16.685-.613.907-2.494,6.748-3.149,1.832-2.411-18.1,14.791-30.538,28.079-38.941,8.24-5.211,11.994-2.413,10.902-14.069-.981-10.474-6.209-13.752,9.533-14.495,13.189-.623,28.522,5.027,40.97,9,.607-.003,1.468-6.304,1.555-7.478,1.315-17.654.373-41.255-1.048-59.03-2.443-30.56-7.013-69.379-41.982-78.508,1.84,4.166,4.849,7.666,6.479,12.011,11.246,29.981-6.276,90.024-20.968,118.009-9.257,17.633-38.768,50.433-39.567,67.456-.396,8.444,5.095,22.615,8.58,30.49,1.964,4.438,14.539,28.45,17.196,29.804,5.35,2.728,19.453-.766,19.271,6.229ZM409,208.5c.667,4.701-.485,10.634,0,15.5,1.988-.398,1.716-2.044,1.992-3.508.412-2.181,2.142-10.745,2.013-11.985-.28-2.696-6.907-7.536-3.007-12.499l-3.992.988,1.988-4.991-8.995.005c4.082,4.493,9.105,10.178,10,16.49ZM615.788,210.203l-17.779-9.206c-3.589,12.342-12.689,25.322-26.008,28.015,9.473,18.596.581,39.958-6.806,57.683-5.003,12.004-11.884,23.825-17.095,35.822.133,2.025,22.885,7.214,19.899,15.478l-17.998-1.987c3.756,7.407,9.559,13.324,15.499,18.974,32.854-41.049,53.04-91.421,50.288-144.779ZM562.002,362.021l-36.686-28.893c-1.81-.28-12.627,12.408-16.397,12.448,1.317,5.41,1.172,10.889,1.091,16.424l15.47-8.08c4.883.569,33.039,15.386,34.512,14.083-.682-1.661,2.195-5.725,2.01-5.981ZM909.947,381.05c-29.746,5.216-58.582,18.391-83.862,34.534-5.292,3.38-37.317,25.512-36.927,29.73.457,4.951,11.618,16.696,12.86,22.679,1.449.39,1.663-.387,2.506-.97,9.892-6.84,19.664-17.394,30.161-24.839,26.047-18.473,54.469-30.618,86.313-35.198l-11.052-25.937ZM923.659,541.656c7.198-6.623,5.814-16.853,5.331-26.147-.879-16.905-5.447-38.913-9.483-55.517-3.129-12.872-7.681-25.358-11.519-38.002-20.66,4.464-39.722,12.704-57.509,23.988-4.119,2.613-29.946,21.038-30.376,23.666-.279,1.702,5.644,7.478,4.909,10.357,12.139-5.686,23.453-11.671,37.484-10.007,1.186.07.005,1.151-.496,1.504-3.347,2.359-12.138,4.265-16.674,6.327-38.248,17.385-65.758,66.941-97.312,95.688-19.271,17.556-42.13,31.014-64.009,44.991,9.84,3.487,20.847,8.074,24.995,18.485-.823.797-10.65-7.215-12.306-8.184-9.161-5.362-15.565-6.965-26.237-6.845-3.379.038-5.852,1.325-9.842.943-14.071-1.346-37.722-12.326-50.022-10.832-3.979.483-10.983,4.826-4.593-3.061-1.162-1.145-14.973-1.378-17.259-.771-3.455.917-11.762,8.879-15.608,11.392-21.457,14.02-32.838,21.148-44.306,45.689-4.315,9.234-1.688,7.133,4.675,13.66,10.215-14.596,17.053-32.712,32.828-42.152,5.952-3.562,12.873-6.333,18.976-10.024,2.567-1.552,10.775-9.406,10.3-3.264-.532,6.886-26.314,17.356-32.025,22.539-3.314,3.008-8.336,10.972-10.995,15.005-1.895,2.874-12.609,20.333-11.519,21.84.842,1.163,9.461,2.444,6.929,9.071-3.382.643-1.15-2.497-2.976-4.509-4.876-5.372-8.299-.076-10.556,4.472-4.111,8.283-.413,14.349,8.501,10.498l35.983-47.009c6.878-4.9,14.972-7.615,22.368-11.632,2.104-1.143,11.453-7.844,12.177-7.852,3.164-.035,2.883,3.688,1.194,5.741-5.49,6.668-19.993,10.502-27.376,15.101-11.105,6.918-17.412,23.163-26.297,32.714l-.011,1.467c5.282.315,9.947,7.751,5.01,11.011-.443-4.295-2.699-7.118-6.529-8.933-2.37,4.855-12.54,12.089-5.393,16.345,4.317,2.571,12.842-.43,16.44-3.379,2.856-2.341,2.764-5.615,4.643-8.357,5.772-8.426,25.517-30.136,34.202-34.278,3.466-1.653,7.913-1.755,10.655-2.865,3.418-1.385,14.211-7.38,16.557-7.529,1.231-.078,3.15.342,3.41,1.515.626,2.83-14.012,7.916-16.753,9.198-1.443.675-6.188,4.058-7.508,4.623-1.525.653-3.221-.22-5.06.749-7.21,3.797-15.565,18.258-22.665,23.429-1.139,2.742,4.886.161,6.496,3.481.999,2.059.38,4.776.49,7-3.384.748-1.383-2.33-2.16-4.348-.547-1.422-3.149-1.523-2.849-3.638h-.972c-.851,4.661-3.911-1.556-7.845,4.669-4.456,7.052-3.051,13.374,6.187,12.963,10.839-.483,28.059-21.256,38.964-26.821,4.464-2.278,19.052-6.564,24.295-7.72,2.802-.618.606,2.961,1.429,3.861.737.806,19.081,3.825,21.473,4.024,16.494,1.371,36.468-4.022,42.496-20.982l2.481,4.99c27.035-14.93,55.064-28.083,82.206-42.794,26.186-14.194,53.524-29.088,77.198-47.802,8.968-7.089,16.238-15.239,24.634-22.366,6.178-5.244,15.719-10.396,21.129-15.374ZM938.987,500.993c4.642-10.875,9.058-21.677,2.386-32.866l-14.364-24.126,11.978,56.992ZM456.997,497.007c-15.431-3.157-30.872-11.095-44.304-19.199-9.147-5.519-17.434-12.746-26.672-17.801-3.654,6.337-7.275,15.029-12.045,20.468-4.265,4.864-12.202,8.893-17.5,13.5-29.792,25.904-43.934,71.972-70.96,103.04-2.382,2.739-9.908,8.73-11.074,10.994-.397.77-.667,1.23,0,1.983l40.059,36.967c35.12-33.432,81.596-54.478,109.315-95.644,11.802-17.631,23.763-35.241,33.182-54.308ZM623.998,582.988c.613-.8-13.783-10.301-14.789-13.691-1.747-5.883,3.106-17.438,2.331-19.268-.829-1.957-12.448-12.12-15.053-15.015-5.84-6.489-12.171-16.47-17.949-22.051-7.058-6.818-21.749-14.947-30.434-21.566-8.455-6.444-16.422-13.619-24.567-20.447-2.59-2.247-3.784-.185-5.513,1.579-5.701,5.814-19.055,29.695-24.043,31.953-5.498,2.489-22.384-2.178-24.521-.592-19.08,38.299-42.695,71.028-75.987,98.084-22.429,18.228-47.357,33.7-70.466,51.046.768,3.127,3.539,4.718,5.183,8.292,4.193,9.115,3.523,19.3-.946,28.207l14.119,11.41c8.126-7.54,21.325-20.966,33.14-21.003,4.166-.013,11.11,3.002,14.782,1.895,1.732-.522,11.496-9.581,14.4-11.636,28.515-20.177,51.548-26.524,86.856-25.226l38.776,4.114c5.371-8.228,10.547-16.697,18.355-22.901,4.004-3.182,37.529-25.749,39.89-26.11,3.447-.527,6.582.626,10.181-.819,2.621-1.052,7.956-6.208,10.947-8.053,4.798-2.958,10.078-6.107,15.308-8.201ZM88,675v20c-2.555.557-2.114-.938-2.667-2.788-1.679-5.624-1.559-11.846-2.609-17.436-1.984-10.566-4.017-21.078-8.737-30.774l-5.978,3.508c4.062-7.588,8.65-14.959,12.164-22.836,1.816-4.071,9.523-27.395,10.794-28.21,2.672-1.713,4.151,2.582,3.992,4.889-.552,7.98-5.74,20.155-8.959,27.637,2.369.067,4.219-3.354,5.413-5.077,6.112-8.819,14.386-27.766,14.652-38.408.089-3.557-2.171-10.065-.593-12.538,3.784-5.932,6.471,12.675,6.541,14.576.108,2.927-.652,4.616-.896,7.084-.11,1.11-.909,3.598.87,3.365,1.015-4.417,4.308-7.993,4.925-12.581.604-4.499.837-11.058,1.18-15.915.246-3.483-2.406-6.703,1.408-9.477.928-.019,3.5,6.607,3.5,7.48v15.5l5.172-9.328c13.21-22.612-7.567-43.397-30.209-32.209-15.377,7.598-41.453,42.869-48.143,58.857-4.288,10.247-4.809,19.349-7.523,29.477-3.686,13.754-11.413,19.715-9.066,36.388.913,6.488,4.943,12.437,5.659,18.426.614,5.134-.3,10.708.127,15.873,1.113,13.48,7.599,30.636,17.974,39.515.348-3.675-.447-7.942.008-11.518.691-5.424,2.378,1.381,2.79,2.196,5.476,10.843,9.713,20.918,21.17,26.864.588.305,6.807,3.803,6.034.971-3.452-3.713-8.519-11.025-9.014-16.003-.101-1.022-.466-3.305,1.507-2.501,1.336.544,7.416,11.052,9.545,13.461,5.93,6.711,12.436,10.036,20.96,12.53-4.625-14.686-.631-22.749,13.489-28.021,4.807-1.795,23.705-3.603,23.496-8.485-.04-.937-14.903-4.917-17.651-6.319-19.63-10.018-11.053-25.355-21.897-37.103-2.267-2.456-17.393-13.07-19.428-11.072ZM891.5,600c5.808-.687,13.868,0,20,0,4.642,0,23.725,6.983,28.542,9.458,3.901,2.004,9.086,4.611,8.953,9.536-17.818-6.471-36.187-12.428-55.483-10.982-16.98,1.273-29.626,11.91-42.512,21.978,22.082-2.451,47.012-1.051,67.68,7.83,1.787.768,14.335,6.21,11.315,9.175-39.854-10.776-78.759-15.469-113.467,11.033-23.048,17.599-38.818,41.95-53.547,66.454-.108,1.983,8.073.355,9.534.441,49.372,2.893,95.054,22.01,138.009,44.946,16.282-28.57,29.852-61.027,39.196-92.65,12.499-42.303,21.19-98.52-4.479-137.931-2.723-4.181-3.502,4.918-4.845,7.607-.65,1.302-1.556,2.422-2.424,3.576-8.331,11.076-23.192,20.453-31.971,31.519,13.209-.804,25.621,2.958,37.682,7.828l7.311,4.169c-13.926,2.238-26.963-4.827-40.619-5.855-4.633-.349-7.904-.884-11.875,1.867-1.482,1.027-10.465,9.961-9.493,10.997,1.203.424,2.113-.951,2.494-.996ZM153.994,561.995c-.846-7.825-8.545-13.669-15.99-14.989.496,4.326,3.307,8.795.996,12.985l14.994,2.005ZM154.682,569.356c-3.252-.912-11.807-3.244-14.254-1.425-4.137,3.074-14.28,23.222-19.455,29.543-5.232,6.389-9.969,8.151-14.44,12.56-2.557,2.522-7.523,14.505-11.562,19.438-4.424,5.404-10.74,9.831-14.982,14.982-.075,3.234,10.66,22.793,13.472,25.587,7.226,7.181,14.657,5.565,21.766,16.234,4.864,7.299,7.737,21.574,11.749,26.251,4.12,4.803,25.647,10.424,26.073,12.15.738,2.987-1.878,11.598-4.505,13.368-8.564,5.769-34.048,1.014-33.626,19.458.749,32.734,64.032,38.605,69.638,11.558.496-2.391,1.106-4.504-.486-6.636-.61-.817-6.264-3.282-4.065-5.417,1.546-1.502,34.542,10.41,41.511,10.979,30.868,2.52,66.115-38.573,82.299-61.669,4.343-6.198,15.157-21.119,16.098-27.902,1.575-11.355-.917-15.074-8.386-22.439-10.374-10.229-23.585-19.561-34.541-29.459-8.058-7.28-18.881-21.249-27.632-26.368-6.665-3.899-18.079-3.224-26.032-6.968-4.564-2.148-18.515-16.213-19.822-16.212-5.483.003-12.922,21.525-20.015,20.983-5.345-8.649,3.254-15.967,8.503-21.927-1.657.434-1.91-1.821-2.706-1.988-8.923-1.869-21.237-1.873-30.348-2.498-3.569-.245-4.006-2.111-4.252-2.18ZM664.997,608.014l-30.673-15.876c-5.054,3.536-11.171,5.646-15.319,10.378l1.708,2.272c11.955,1.111,24.993,5.449,36.803,6.195,1.341.085,9.836.196,7.481-2.969ZM351,1019v-14.5c0-9.567,12.997-33.856,18.584-42.416,12.969-19.867,27.802-31.287,50.407-38.593,4.649-1.502,7.566-.856,12.223-3.546,1.074-.62,1.487-1.185.783-1.93-21.776-12.463-43.284-21.724-67.23-29.281-12.542-3.958-26.795-6.475-38.982-11.018-1.006-.375-7.664-2.702-4.801-4.232,2.322-1.241,16.687.209,20.391.641,16.498,1.926,32.572,6.976,48.625,10.865-16.243-16.459-40.254-28.394-62.875-33.375-31.187-6.867-67.412-1.565-92.115,19.385-.292-3.396,3.627-6.384,5.978-8.512,21.859-19.793,60.225-24.452,88.024-17.999,28.39,6.589,55.947,24.054,77.979,42.511.764-.832-3.233-5.22-4.046-6.205-13.755-16.659-32.882-31.092-50.936-42.814-.016-1.573-.606-2.242,1.319-1.826,5.667,1.225,14.756,6.092,19.971,9.047,17.016,9.644,33.136,23.835,45.699,38.301,5.347,6.157,10.328,12.647,15.993,18.496-4.534-21.67-14.245-41.383-24.975-60.52-.41-1.248.249-1.997,1.471-1.471,1.827.786,8.244,8.932,9.91,11.095,6.387,8.294,11.881,18.337,16.071,27.929,3.758,8.606,6.787,23.231,10.793,30.208,1.943,3.385,4.164,5.519,7.199,1.712,5.591-7.014,10.624-21.327,16.125-29.868,2.345-3.64,4.633-7.752,8.406-10.084-1.562,16.713-9.919,31.981-17.927,46.402l22.274,12.368c48.036-27.498,92.063-61.24,137.942-91.992,31.669-21.227,64.867-43.934,101.716-54.774.56,2.676-.706,1.718-1.973,2.478-12.788,7.674-26.508,13.972-39.33,21.709-65.165,39.32-121.401,92.203-189.687,126.313,10.026,5.14,19.888,10.699,29.668,16.323,11.207,6.445,13.798,11.229,27.837,12.163,17.39,1.157,41.366-1.062,58.525-4.456,14.004-2.77,27.735-9.41,41.965-9.524-3.604,4.686-11.474,8.187-17.014,10.475-10.582,4.371-22.026,6.838-32.98,10.01,15.458,5.788,31.984,12.977,47.982,17.018,7.481,1.89,14.425,2.425,22.007,3.482-4.788-29.269,2.625-60.71,11.968-88.532,18.673-55.603,56.544-107.576,112.035-130.475-21.95-18.484-51.168-13.436-77.456-11.947-10.009.567-22.302-.361-32.108.88-1.911.242-.963,1.925-2.872,2.163-3.779.471-7.346-1.173-11.061-1.178-13.848-.017-30.222,5.119-43.07,4.203-.498-.036.048,1.744-1.858,1.978-3.965.486-8.884-.503-13.059-.076-9.515.973-18.912,3.597-28.513,3.977.674-2.137,2.48-2.562,4.326-3.164,14.932-4.863,39.341-8.448,55.295-10.705,30.939-4.378,62.318-5.875,93.374-8.616-22.589-12.105-45.782-23.504-69.322-33.678-8.677-3.75-19.437-9.014-28.139-11.861-4.18-1.367-11.424-3.731-15.475-2.414-7.262,2.36-19.697,15.041-28.021,18.985-5.714,2.707-10.885,3.939-17.032,1.948-2.638-.855-6.785-4.334-8.567-4.502-2.87-.271-8.874,3.53-14.93,3.03-6.33-.523-11.044-6.322-12.964-6.596-1.844-.263-5.033,1.201-7.851.561-.545-.124-8.655-5.472-9.208-5.964-2.325-2.065-3.372-6.389-4.752-7.747-1.026-1.009-3.989-1.565-5.671-2.835-10.819-8.167-1.172-18.995-2.115-20.349-.809-1.161-13.159-5.377-15.522-6.01-7.665-2.052-15.641-2.715-23.425-4.085.407-1.942,2.006-1.755,3.493-1.995,8.226-1.328,18.5-1.015,26.751.261,4.313.667,8.892,2.586,13.152,3.624l5.601-9.868c-24.352-3.746-52.536-5.675-76.515.973-16.736,4.639-31.414,13.782-44.483,25.006,20.696-.833,35.966-1.616,13.012,17.522-7.59,6.329-16.206,10.72-26.01,12.5.811,3.52,15.31,20.394,13.988,21.988-13.365-6.242-24.194-20.538-29.178-34.312-.669-1.847-3.909-11.253.568-10.595,3.058.449,10.65,10.728,17.947,10.593,5.226-.097,13.459-4.992,17.402-8.393.507-.437,2.758-.711,1.268-2.281-2.382-2.509-3.373.95-3.651,1.016-2.215.525-4.655-1.021-6.844-1.034-1.699-.01-3.413,1.109-5.005,1.013-8.101-.485-18.764-5.079-25.936-3.938-3.757.598-10.508,5.834-13.572,8.42-1.582,1.335-10.883,10.222-9.982,11.493,8.317,5.382,15.465,12.942,23.676,18.836,16.74,12.017,21.235,9.624,40.135,13.865,19.223,4.313,38.162,9.961,56.861,16.089,2.332-.524,18.041-14.827,17.32-15.76l-75.993-17.002c27.657-.752,57.109,4.672,81.976,16.488.024,1.537-18.244,20.595-22.567,20.49-21.558-3.144-42.565-10.692-64.064-13.929-4.638-.698-12.931-1.673-17.862-2.048-40.768-3.102-123.741,32.298-148.317,65.661-7.533,10.226-1.289,14.582,7.196,21.26,20.819-18.599,49.426-24.77,76.437-28.117,3.668-6.224,9.191-45.322,13.182-47.35,4.867-2.474,6.873,4.747,9.47,5.134,6.395.954,23.548-8.039,31.539-5.104l-34.972,17.028c-5.071,7.893-6.217,30.185-14.105,34.895-5.938,3.546-21.594,4.67-29.347,6.653-21.825,5.584-42.161,15.862-55.991,34.009-35.448,46.514-9.855,94.92,32.51,124.327,24.115,16.739,52.41,27.848,75.909,45.591ZM532.926,680.104c-3.507-.901-5.071-5.125-8.913-5.104-2.098,8.03-6.649,13.692,3.97,17.001l4.943-11.897ZM966.005,788.995c2.296,2.225,11.906-8.106,13.408-10.082,18.064-23.772,5.414-67.753-18.891-82.92-.962.211-6.694,16.953-6.535,18.483.239,2.294,3.533,4.049,4.845,6.192,9.417,15.373,5.341,34.007,1.178,50.332,7.206-5.394,10.484-14.355,14.564-21.971.71-1.326-.318-2.568,2.421-2.023,1.03,15.015-5.823,28.426-10.99,41.99ZM364.433,735.616c-.659-.852-1.246-1.744-1.925-2.585l-40.008-33.012c-11.985,26.168-33.844,46.35-58.495,60.486l19.28-3.55,1.405-1.932,9.305.966c-13.041,3.432-26.234,6.611-39.21,10.295-19.658,5.58-27.816,10.706-50.093,5.691-.703-.158-.579-1.633-1.451-1.898-1.906-.58-4.297-.355-6.234-1.074.724,5.486-2.112,10.123-4.005,14.981,7.131,1.58,38.576,17.146,43.276,15.868,1.027-.279,12.979-12.097,15.809-14.267,24.072-18.456,58.126-33.514,87.494-41.506,4.049-1.102,24.148-4.543,25.207-5.275,2.751-1.898-.027-2.766-.356-3.19ZM910.999,783.99c-1.469-1.982-4.744-3.304-6.983-4.507-29.875-16.049-67.563-31.363-100.81-38.19-14.92-3.064-31.206-3.538-45.632-7.368-23.586-6.263-46.736-20.379-71.569-23.916l75.307,35.178c34.238,4.714,58.27,25.568,92.181,29.819,19.269,2.416,38.646,4.321,57.506,8.984ZM948.984,730.004c-2.382-.564-1.613.446-2.213,1.301-3.442,4.906-5.172,12.488-7.912,18.054-4.622,9.386-11.004,17.998-13.89,28.07,2.893,1.581,16.802,8.23,18.902,6.423,7.895-17.319,13.164-35.387,5.113-53.848ZM824.998,782.988c-.144-1.472-1.461-1.568-2.536-1.949-2.583-.915-13.499-3.214-15.951-3.102-2.961.136-13.273,4.726-15.509,7.053,5.771-.177,15.572,5.192,20.531,5.075,4.236-.1,8.86-6.729,13.466-7.076ZM801.995,797.005c-7.331.734-20.818-7.143-27.258-5.838-4.089.829-28.898,22.439-28.705,25.343,8.035,4.448,17.346,8.41,26.271,10.33l29.692-29.835ZM765.005,833.006c-6.092,1.728-19.311-9.904-23.297-8.874-5.266,1.36-25.723,34.482-29.087,40.989-11.277,21.814-19.443,48.432-22.463,72.74l22.83,8.144c6.505-26.85,15.329-53.328,29.206-77.309,6.227-10.76,16.086-21.138,21.658-31.341.786-1.44,1.412-2.623,1.152-4.348Z"/>
  <path class="cls-4" d="M742,1024c-10.993-7.919-21.223-11.407-22.875-26.625-4.222-38.893,14.98-92.705,35.065-125.685,13.922-22.859,30.904-45.376,50.535-63.549,8.772,1.129,17.666,2.462,26.309,4.325,33.782,7.279,94.411,22.512,112.499,54.501,1.545,2.732,5.107,10.713,5.463,13.552.429,3.42-6.362-1.872-8.319-2.697-33.877-14.276-59.991-12.586-92.707,3.65-9.464,4.697-26.874,15.495-33.889,23.111-1.503,1.632-2.347,3.108-2.078,5.412l40.312-20.178c19.443-8.263,58.808-15.743,77.404-4.07,1.027.645,1.759-.055,1.274,2.248-11.167.403-23.398,2.3-34.203,5.297-7.895,2.19-23.552,7.632-30.475,11.52-1.466.823-5.654,3.033-5.309,5.185,23.577-4.74,47.28-11.698,71.451-13.038,31.375-1.74,61.535,7.568,91.542,15.042v112h-176c.151-2.461-1.523-2.543-2.982-3.52-17.181-11.496-37.071-19.966-54.078-31.92-1.137-3.8-2.385-8.157-2.936-12.064-1.574-11.154-.699-24.016-2.065-34.934-.13-1.042-1.928-5.589-2.439-5.572-3.6,15.708-3.162,32.206-.505,48.005l-45.602-25.915c-1.312-.259-2.648,1.225-2.387,2.402,1.154,5.205,41.438,28.817,48.461,32.551,4.054,10.403,7.285,21.076,12.533,30.967h-54Z"/>
  <path class="cls-2" d="M409,1024c2.35-8.214,5.583-17.368,9.479-25.021,11.683-22.947,34.229-43.944,57.899-53.131,1.137-.441,5.281-1.56,6.311-1.574,3.192-.044,23.521,12.019,27.983,14.553,10.967,6.229,21.954,13.005,32.328,20.172h-26.5c-1.047,0-2.048,3.188-1.497,3.989.841,1.221,25.095-.225,29.538-.03,40.903,1.797,82.156,19.036,117.815,38.188,1.406.755,3.005,1.151,3.644,2.853h-257Z"/>
  <path class="cls-4" d="M1024,812v88l-50.564-12.932c.117-18.613,5.227-38.709-3.951-56.059-2.489-.389-1.17.91-1.183,2.242-.115,11.815-1.287,24.078-3.959,35.591-.315,1.356-.681,4.958-2.331,5.15-4.764-16.506-10.131-31.915-21.042-45.463-1.192-1.48-9.927-10.946-10.775-11.489-.871-.559-10.154-4.046-9.181-.561.832,2.979,6.015,6.431,7.963,9.042,3.796,5.086,10.843,16.297,12.981,22.029.642,1.722-.673,1.653-1.954,1.447-.005-.815.295-2.143-.208-2.733-.767-.9-17.645-11.069-20.125-12.436-31.396-17.307-70.673-25.308-105.672-31.838.259-1.324,1.698-2.043,2.674-2.817,3.153-2.497,22.114-14.665,24.886-15.104,5.353-.848,20.565,1.287,26.811,2.059,47.176,5.834,96.264,16.833,143.397,24.603,3.996.659,8.174,1.18,12.231,1.268Z"/>
  <path class="cls-6" d="M356,1024c-.021-13.064,4.476-26.958,9.531-38.969,11.083-26.329,26.718-44.867,53.951-55.049,4.073-1.523,15.529-5.665,19.207-5.706,2.795-.031,26.535,10.351,30.007,12.528.88.552,2.218.955,2.303,2.185-36.742,12.219-65.305,47.781-73.999,85.011h-41Z"/>
  <path class="cls-1" d="M848,1024h-11l-42.491-24.009c-2.878.013,6.525,21.789,6.491,24.009h-5c-5.247-9.891-8.478-20.564-12.533-30.967-7.022-3.734-47.306-27.346-48.461-32.551-.261-1.177,1.074-2.661,2.387-2.402l45.602,25.915c-2.657-15.799-3.095-32.297.505-48.005.511-.017,2.309,4.53,2.439,5.572,1.365,10.918.491,23.781,2.065,34.934.551,3.907,1.8,8.264,2.936,12.064,17.008,11.955,36.898,20.425,54.078,31.92,1.459.976,3.132,1.058,2.982,3.52Z"/>
  <path class="cls-4" d="M837,1024h-36c.034-2.22-9.369-23.997-6.491-24.009l42.491,24.009Z"/>
  <path class="cls-6" d="M351,1019c-23.498-17.744-51.794-28.853-75.909-45.591-42.366-29.407-67.958-77.814-32.51-124.327,13.83-18.147,34.166-28.426,55.991-34.009,7.753-1.983,23.409-3.107,29.347-6.653,7.887-4.71,9.034-27.002,14.105-34.895l34.972-17.028c-7.991-2.935-25.145,6.058-31.539,5.104-2.597-.387-4.603-7.609-9.47-5.134-3.99,2.029-9.513,41.127-13.182,47.35-27.011,3.347-55.619,9.518-76.437,28.117-8.485-6.678-14.728-11.034-7.196-21.26,24.576-33.363,107.549-68.763,148.317-65.661,4.931.375,13.224,1.35,17.862,2.048,21.499,3.237,42.506,10.784,64.064,13.929,4.323.105,22.591-18.953,22.567-20.49-24.867-11.816-54.319-17.239-81.976-16.488l75.993,17.002c.722.933-14.988,15.236-17.32,15.76-18.699-6.128-37.637-11.776-56.861-16.089-18.9-4.241-23.395-1.848-40.135-13.865-8.211-5.895-15.359-13.454-23.676-18.836-.901-1.271,8.401-10.159,9.982-11.493,3.064-2.586,9.816-7.822,13.572-8.42,7.172-1.141,17.835,3.452,25.936,3.938,1.592.095,3.306-1.023,5.005-1.013,2.19.013,4.629,1.559,6.844,1.034.278-.066,1.269-3.526,3.651-1.016,1.49,1.57-.761,1.844-1.268,2.281-3.942,3.402-12.175,8.296-17.402,8.393-7.298.135-14.889-10.143-17.947-10.593-4.477-.658-1.237,8.748-.568,10.595,4.985,13.774,15.813,28.07,29.178,34.312,1.322-1.594-13.177-18.468-13.988-21.988,9.803-1.779,18.419-6.171,26.01-12.5,22.954-19.139,7.684-18.356-13.012-17.522,13.069-11.224,27.748-20.367,44.483-25.006,23.98-6.648,52.164-4.719,76.515-.973l-5.601,9.868c-4.26-1.038-8.839-2.957-13.152-3.624-8.251-1.276-18.525-1.589-26.751-.261-1.487.24-3.085.054-3.493,1.995,7.784,1.37,15.76,2.033,23.425,4.085,2.364.633,14.713,4.848,15.522,6.01.943,1.353-8.704,12.181,2.115,20.349,1.681,1.269,4.645,1.826,5.671,2.835,1.381,1.357,2.428,5.682,4.752,7.747.554.492,8.664,5.84,9.208,5.964,2.818.64,6.007-.824,7.851-.561,1.919.274,6.633,6.073,12.964,6.596,6.056.501,12.061-3.301,14.93-3.03,1.782.168,5.929,3.647,8.567,4.502,6.147,1.991,11.318.76,17.032-1.948,8.324-3.944,20.76-16.625,28.021-18.985,4.051-1.317,11.295,1.047,15.475,2.414,8.703,2.846,19.462,8.11,28.139,11.861,23.54,10.174,46.733,21.573,69.322,33.678-31.056,2.742-62.435,4.239-93.374,8.616-15.953,2.257-40.362,5.842-55.295,10.705-1.846.601-3.652,1.027-4.326,3.164,9.6-.38,18.997-3.004,28.513-3.977,4.175-.427,9.094.562,13.059.076,1.906-.234,1.36-2.014,1.858-1.978,12.848.916,29.221-4.22,43.07-4.203,3.715.005,7.282,1.648,11.061,1.178,1.909-.238.962-1.921,2.872-2.163,9.806-1.242,22.099-.313,32.108-.88,26.288-1.49,55.506-6.537,77.456,11.947-55.49,22.9-93.361,74.872-112.035,130.475-9.344,27.822-16.757,59.262-11.968,88.532-7.583-1.057-14.527-1.593-22.007-3.482-15.998-4.041-32.525-11.229-47.982-17.018,10.955-3.172,22.398-5.639,32.98-10.01,5.541-2.289,13.41-5.789,17.014-10.475-14.23.114-27.961,6.754-41.965,9.524-17.159,3.394-41.135,5.613-58.525,4.456-14.039-.934-16.63-5.718-27.837-12.163-9.78-5.624-19.642-11.183-29.668-16.323,68.287-34.11,124.523-86.993,189.687-126.313,12.821-7.736,26.542-14.035,39.33-21.709,1.267-.76,2.533.198,1.973-2.478-36.849,10.839-70.047,33.546-101.716,54.774-45.88,30.752-89.906,64.494-137.942,91.992l-22.274-12.368c8.008-14.42,16.365-29.689,17.927-46.402-3.773,2.332-6.061,6.444-8.406,10.084-5.501,8.541-10.535,22.854-16.125,29.868-3.035,3.807-5.256,1.673-7.199-1.712-4.005-6.977-7.034-21.602-10.793-30.208-4.189-9.592-9.683-19.635-16.071-27.929-1.666-2.163-8.083-10.309-9.91-11.095-1.222-.525-1.882.223-1.471,1.471,10.73,19.137,20.441,38.85,24.975,60.52-5.666-5.85-10.646-12.339-15.993-18.496-12.563-14.466-28.683-28.658-45.699-38.301-5.215-2.955-14.304-7.823-19.971-9.047-1.925-.416-1.335.253-1.319,1.826,18.054,11.723,37.181,26.155,50.936,42.814.813.985,4.809,5.373,4.046,6.205-22.031-18.457-49.589-35.922-77.979-42.511-27.799-6.452-66.165-1.794-88.024,17.999-2.35,2.128-6.269,5.116-5.978,8.512,24.703-20.95,60.928-26.252,92.115-19.385,22.62,4.981,46.632,16.916,62.875,33.375-16.053-3.889-32.127-8.939-48.625-10.865-3.705-.432-18.069-1.883-20.391-.641-2.863,1.53,3.795,3.857,4.801,4.232,12.187,4.543,26.44,7.06,38.982,11.018,23.946,7.557,45.454,16.818,67.23,29.281.705.745.292,1.31-.783,1.93-4.657,2.69-7.574,2.044-12.223,3.546-22.605,7.306-37.439,18.726-50.407,38.593-5.588,8.56-18.584,32.849-18.584,42.416v14.5ZM678.995,862.005c-2.061-.552-2.722.691-4.033,1.457-6.146,3.59-13.356,10.904-19.648,15.352-28.229,19.955-60.951,36.156-93.064,48.936-4.707,1.873-21.189,6.357-23.655,8.162-.862.631-.86,2.816-.599,3.083,2.453,2.504,42.642-8.69,48.77-10.728,31.687-10.543,62.334-30.445,84.748-55.252,1.216-1.345,8.608-9.933,7.481-11.009Z"/>
  <path class="cls-3" d="M608,449c.181-6.995-13.921-3.501-19.271-6.229-2.656-1.354-15.232-25.367-17.196-29.804-3.485-7.875-8.976-22.047-8.58-30.49.799-17.023,30.31-49.823,39.567-67.456,14.692-27.985,32.214-88.028,20.968-118.009-1.63-4.345-4.639-7.845-6.479-12.011,34.97,9.128,39.539,47.947,41.982,78.508,1.421,17.776,2.363,41.377,1.048,59.03-.087,1.174-.948,7.475-1.555,7.478-12.448-3.973-27.781-9.623-40.97-9-15.742.743-10.514,4.021-9.533,14.495,1.092,11.656-2.662,8.859-10.902,14.069-13.288,8.403-30.49,20.841-28.079,38.941.655,4.916,2.536-.925,3.149-1.832,4.198-6.217,8.67-13.632,15.844-16.685-2.402,7.675,15.806,57.851,19.503,59.018,3.304,1.043,2.826-1.748,2.262-4.281-2.115-9.498-9.494-23.719-12.78-34.222-2.567-8.205-4.686-16.603-6.823-24.928.933-3.841,24.536-13.615,26.358-16.577,1.485-2.414-.215-12.335.48-13.02,6.386.964,13.126.379,19.491,1.018,7.796.783,17.712,3.849,25.143,3.909,7.312.059,8.045-13.677,8.417-19.375,1.59-24.349-1.224-50.277-3.052-74.551,21.74,1.628,43.471,3.876,64.73,8.76l3.254-2.257c.052-4.548-62.319-11.697-68.753-12.727-2.114-8.405-3.195-17.108-6.206-25.295-2.116-5.753-5.698-10.836-8.016-16.474,13.811.347,27.722-.467,41.535-.051,41.194,1.238,90.905,7.684,124.791,33.216,29.024,21.868,51.485,67.122,67.528,99.472,5.45,10.989,16.423,30.607,19.688,41.318.31,1.015.629,1.954.456,3.033-46.01,7.855-87.345,31.316-120.99,63.006-27.039-48.265-57.191-102.584-45.717-160.203,4.18-20.993,17.962-48.295,39.477-55.523l16.22-3.26c-28.42-8.958-50.628,18.332-59.009,42.472-12.567,36.2-6.473,74.052,5.006,109.516-11.377-11.95-16.708-28.199-22.007-43.482l-5.983-20.517v18.5c0,27.592,21.631,51.357,34.169,72.831,6.14,10.516,10.067,23.387,15.824,34.248-2.523,8.482-6.311,16.666-10.471,24.443-5.128,9.586-12.351,17.99-16.516,27.974,11.541-3.991,22.357-13.986,30.506-22.984,1.624-1.793,3.106-5.011,4.403-6.372,2.425-2.544,2.847,2.81,3.91,5.039,6.175,12.955,11.734,25.493,23.132,34.822-8.773,10.258-16.184,21.751-24.983,31.974-3.803,4.418-9.773,12.877-15.452,13.548-7.209.852-18.175.689-25.981,1.019-7.167.303-14.597-.995-21.539.971,9.585,7.654,25.446,8.145,37.513,8.988,1.09.076,3.33-.555,2.476,1.487-.846,2.023-18.021,16.524-21.095,18.91-3.636,2.824-20.242,14.961-23.443,15.557-14.523,2.704-47.141-4.879-61.135-10.772-3.505-1.476-19.545-9.561-21.309-11.691-1.615-1.95-1.391-6.084-.515-8.485,3.586,2.965,8.11,5.713,12.293,7.707,11.41,5.441,49.142,16.337,60.707,14.282,1.334-.237,2.811-.934,2.5-2.479-.323-1.605-27.599-6.756-31.245-9.765-27.073-10.035-49.818-27.326-67.749-49.741,20.767,8.281,43.465,16.681,65.775,19.715,6.377.867,30.194,2.955,34.89,1.454,5.636-1.802,3.924-3.737-1.129-4.215-91.523-8.654-175.134-63.273-218.709-144.292-2.427-4.513-14.413-34.592-16.327-34.652-3.634-.115.724,14.847,1.238,16.742,3.995,14.738,11.279,28.306,17.252,42.238-18.045-12.925-33.491-27.123-45.495-45.995-1.084,5.57,2.431,12.991,4.96,18.04,7.324,14.621,21.348,29.24,35.24,37.76l17.3,9.184c-17.933.483-35.829-2.463-52.992-7.493-7.35-2.154-16.856-7.063-23.742-8.261-1.417-.247-3.693-1.209-3.254,1.253,22.589,18.416,51.12,25.245,79.989,24.517,1.83,1.804-5.188,6.805-6.671,7.82-8.51,5.828-20.047,8.397-28.319,14.687-1.189,2.395,7.695,1.58,8.532,1.527,12.867-.825,26.603-4.138,38.461-9.029-2.636,5.41-5.363,10.804-8.584,15.906-1.234,1.954-9.835,14.406-10.624,14.866-6.673,3.891-43.365-7.869-51.778-11.296-11.003-4.481-38.776-18.544-45.101-27.965-1.727-2.572,3.846-10.614,5.263-13.844,12.442-28.357,18.647-56.467,29.076-84.924,4.64-12.66,10.979-23.816,18.767-34.745,1.05-.07,1.421-.512,1.98.609,1.831,3.671,2.448,11.938,4.228,16.657,2.553,6.769,7.026,13.167,13.777,16.223,2.222,1.006,10.493,3.503,12.497,3.503h25.5c1.186,6.077-2.836,14.2,1.555,18.941,5.859,6.327,15.196-7.166,21.847-6.906,7.869.308,22.304,9.503,31.551,9.008.013,8.61-.478,16.335,1.767,24.736,2.387,8.934,19.758,42.511,26.785,47.215.723.484,3.52,2.005,3.995,2.005h19.5ZM800.995,314.005c-2.784-.486-1.679.589-2.25,2.192-3.453,9.689-4.858,22.487-8.039,33.009-4.921,16.279-13.594,32.012-15.696,48.794,21.412-20.822,28.028-55.023,25.985-83.995ZM646.354,374.354c-37.741,37.745,20.549,103.281,61.123,71.623,43.795-34.172-20.454-112.296-61.123-71.623Z"/>
  <path class="cls-2" d="M923.659,541.656c-5.41,4.978-14.951,10.129-21.129,15.374-8.396,7.127-15.666,15.277-24.634,22.366-23.674,18.714-51.011,33.608-77.198,47.802-27.141,14.712-55.171,27.865-82.206,42.794l-2.481-4.99c-6.027,16.96-26.001,22.353-42.496,20.982-2.392-.199-20.736-3.218-21.473-4.024-.823-.9,1.374-4.478-1.429-3.861-5.243,1.156-19.831,5.441-24.295,7.72-10.904,5.565-28.125,26.338-38.964,26.821-9.238.412-10.643-5.911-6.187-12.963,3.934-6.225,6.994-.008,7.845-4.669h.972c-.3,2.115,2.302,2.216,2.849,3.638.777,2.018-1.224,5.096,2.16,4.348-.11-2.224.509-4.941-.49-7-1.61-3.32-7.636-.739-6.496-3.481,7.1-5.171,15.455-19.632,22.665-23.429,1.839-.968,3.535-.095,5.06-.749,1.319-.565,6.064-3.948,7.508-4.623,2.741-1.282,17.379-6.368,16.753-9.198-.26-1.173-2.179-1.593-3.41-1.515-2.346.149-13.139,6.144-16.557,7.529-2.742,1.111-7.189,1.212-10.655,2.865-8.685,4.142-28.43,25.852-34.202,34.278-1.879,2.743-1.787,6.016-4.643,8.357-3.598,2.95-12.123,5.95-16.44,3.379-7.147-4.256,3.023-11.49,5.393-16.345,3.83,1.815,6.086,4.639,6.529,8.933,4.938-3.261.272-10.696-5.01-11.011l.011-1.467c8.885-9.55,15.192-25.796,26.297-32.714,7.383-4.599,21.886-8.433,27.376-15.101,1.69-2.053,1.971-5.776-1.194-5.741-.724.008-10.073,6.709-12.177,7.852-7.397,4.017-15.491,6.731-22.368,11.632l-35.983,47.009c-8.915,3.851-12.612-2.215-8.501-10.498,2.257-4.548,5.68-9.844,10.556-4.472,1.826,2.012-.406,5.152,2.976,4.509,2.533-6.627-6.087-7.908-6.929-9.071-1.09-1.506,9.623-18.966,11.519-21.84,2.659-4.032,7.682-11.997,10.995-15.005,5.711-5.184,31.493-15.654,32.025-22.539.474-6.141-7.734,1.713-10.3,3.264-6.104,3.69-13.025,6.462-18.976,10.024-15.775,9.44-22.613,27.556-32.828,42.152-6.363-6.527-8.99-4.426-4.675-13.66,11.468-24.541,22.849-31.669,44.306-45.689,3.846-2.513,12.153-10.475,15.608-11.392,2.286-.607,16.097-.374,17.259.771-6.39,7.888.614,3.545,4.593,3.061,12.301-1.493,35.951,9.486,50.022,10.832,3.99.382,6.463-.905,9.842-.943,10.673-.12,17.076,1.483,26.237,6.845,1.656.969,11.483,8.981,12.306,8.184-4.148-10.411-15.155-14.999-24.995-18.485,21.879-13.976,44.739-27.435,64.009-44.991,31.555-28.747,59.064-78.303,97.312-95.688,4.536-2.062,13.327-3.968,16.674-6.327.501-.353,1.682-1.435.496-1.504-14.031-1.665-25.345,4.32-37.484,10.007.735-2.879-5.188-8.655-4.909-10.357.431-2.628,26.257-21.053,30.376-23.666,17.787-11.283,36.849-19.524,57.509-23.988,3.838,12.644,8.391,25.129,11.519,38.002,4.036,16.604,8.604,38.612,9.483,55.517.483,9.294,1.867,19.523-5.331,26.147ZM829.006,571.995c27.463-7.848,68.006-30.881,78.731-58.759,1.446-3.759,2.877-11.937-.724-14.234-7.847,25.347-30.468,42.879-52.097,56.413-6.915,4.327-17.913,8.857-23.64,13.36-1.203.945-2.721,1.152-2.27,3.22ZM662.992,630.013c-11.196-3.076-25.897-10.402-37.543-9.056-1.496.173-2.521.103-3.444,1.558.539,3.989,5.084,1.18,8.455,1.467,10.237.873,18.162,5.292,27.3,6.757,1.139.183,5.237,1.237,5.232-.726ZM771.512,630.022l-43.492,24.478c1.285,1.845,2.268,1.658,4.264,1.302,5.979-1.067,30.946-17.755,36.633-22.385.82-.668,3.166-2.161,2.594-3.395ZM667,644.99c-1.942-5.587-26.881-11.433-26.979-5.49-.037,2.264,11.856,1.4,14.241,1.739,3.884.552,8.689,3.226,12.739,3.751Z"/>
  <path class="cls-2" d="M154.682,569.356c.246.069.683,1.935,4.252,2.18,9.111.625,21.425.629,30.348,2.498.796.167,1.049,2.421,2.706,1.988-5.249,5.96-13.848,13.278-8.503,21.927,7.094.542,14.533-20.98,20.015-20.983,1.307,0,15.258,14.064,19.822,16.212,7.953,3.744,19.367,3.069,26.032,6.968,8.751,5.119,19.574,19.088,27.632,26.368,10.955,9.898,24.167,19.231,34.541,29.459,7.469,7.365,9.962,11.084,8.386,22.439-.941,6.782-11.755,21.704-16.098,27.902-16.184,23.096-51.431,64.189-82.299,61.669-6.968-.569-39.965-12.48-41.511-10.979-2.199,2.136,3.455,4.6,4.065,5.417,1.592,2.131.981,4.245.486,6.636-5.607,27.047-68.889,21.176-69.638-11.558-.422-18.443,25.062-13.688,33.626-19.458,2.628-1.77,5.244-10.381,4.505-13.368-.427-1.726-21.953-7.348-26.073-12.15-4.012-4.677-6.885-18.952-11.749-26.251-7.109-10.669-14.54-9.053-21.766-16.234-2.812-2.794-13.547-22.353-13.472-25.587,4.242-5.151,10.558-9.578,14.982-14.982,4.039-4.933,9.005-16.916,11.562-19.438,4.471-4.409,9.209-6.171,14.44-12.56,5.175-6.32,15.318-26.469,19.455-29.543,2.447-1.818,11.002.513,14.254,1.425ZM222.892,596.114c-2.748-4.579-9.876,8.108-12.387,9.891-5.165,3.667-10.417,3.769-16.053,1.044-2.719-1.314-3.645-3.763-6.447-4.044-1.147,3.776,1.042,9.198,4.619,10.741.891.384,17.757,3.852,19.005,3.936,2.766.185,6.504-1.249,9.945-.759,1.922.273,1.337,2.057,2.051,2.13,3.31.34,6.117-2.313,11.302.522,6.031,3.298,6.379,20.121,8.157,21.336,1.652,1.129,4.466-.024,4.916-2.408,1.453-7.698-2.127-23.642-10.745-26.257-3.392-1.029-19.225-.816-19.235-2.744,2.801-2.465,6.91-9.993,4.873-13.387ZM142,675v-14.5c0-10.655,12.856-22.594,17.803-31.197,12.113-21.065-4.436-12.277-12.632-1.632-8.696,11.295-15.611,29.252-9.352,43.01.824,1.812,1.676,4.674,4.181,4.319ZM234.995,636.005c-.368-.348-3.126.041-4.006.484-2.843,1.432-5.996,15.773-2.474,17.501,1.746.856,1.866-1.768,2.162-2.792.604-2.092,4.892-14.65,4.318-15.193ZM246.005,690.994c3.528,3.325,6.647-10.963,7.512-12.978,5.283-12.3,14.051-23.265,24.476-31.543-6.477-11.97-20.08,10.6-23.412,16.607-1.989,3.587-10.469,26.13-8.576,27.913ZM183.054,644.041c-.518.336-3.944,8.819-5.425,11.088-1.948,2.985-13.409,16.403-13.509,17.522-.389,4.355,6.174.179,7.906-1.124,5.638-4.241,15.768-17.79,15.004-25.039-.216-2.046-2.484-3.416-3.976-2.447ZM228,658.01c-5.093.853-9.062-2.769-11.995-6.514-1.674-2.137-2.012-5.163-3.992-6.488-5.087,9.639,8.376,21.575,15.987,13.002ZM266.005,681.995c.991.922,3.043-.597,4.009-1.481,2.904-2.657,7.18-10.284,10.016-13.984.992-1.294,10.654-9.553,5.449-10.534-5.774-1.087-20.693,24.865-19.474,25.998ZM151.168,756.823c-1.066-.735.452-6.58-3.167-8.326-5.995-2.893-21.74,3.206-25.052,8.946-8.638,14.97,31.892,35.072,38.04,15.557-10.063,6.013-19.632,4.329-28.464-3.027-11.05-9.204-4.033-13.327,6.473-16.964-6.96,13.794,11.979,19.435,21.508,12.999,1.359-.918,8.525-8.465,8.468-9.515-4.505-4.394-12.476,4.004-17.807.329Z"/>
  <path class="cls-5" d="M623.998,582.988c-5.231,2.094-10.511,5.243-15.308,8.201-2.991,1.845-8.326,7.001-10.947,8.053-3.599,1.444-6.734.292-10.181.819-2.361.361-35.886,22.929-39.89,26.11-7.807,6.204-12.984,14.673-18.355,22.901l-38.776-4.114c-35.308-1.298-58.341,5.05-86.856,25.226-2.904,2.055-12.668,11.113-14.4,11.636-3.672,1.107-10.616-1.908-14.782-1.895-11.815.036-25.014,13.462-33.14,21.003l-14.119-11.41c4.469-8.906,5.138-19.091.946-28.207-1.644-3.574-4.416-5.165-5.183-8.292,23.109-17.347,48.037-32.818,70.466-51.046,33.292-27.056,56.907-59.785,75.987-98.084,2.138-1.586,19.023,3.081,24.521.592,4.987-2.258,18.342-26.139,24.043-31.953,1.729-1.763,2.923-3.826,5.513-1.579,8.145,6.828,16.112,14.003,24.567,20.447,8.685,6.619,23.376,14.748,30.434,21.566,5.778,5.581,12.109,15.563,17.949,22.051,2.606,2.895,14.224,13.058,15.053,15.015.775,1.831-4.079,13.385-2.331,19.268,1.007,3.389,15.402,12.891,14.789,13.691Z"/>
  <path class="cls-4" d="M891.5,600c-.381.045-1.291,1.42-2.494.996-.972-1.036,8.011-9.97,9.493-10.997,3.97-2.751,7.241-2.216,11.875-1.867,13.656,1.028,26.693,8.093,40.619,5.855l-7.311-4.169c-12.061-4.87-24.472-8.632-37.682-7.828,8.779-11.066,23.64-20.442,31.971-31.519.868-1.154,1.774-2.274,2.424-3.576,1.343-2.689,2.121-11.788,4.845-7.607,25.67,39.411,16.978,95.628,4.479,137.931-9.343,31.623-22.913,64.08-39.196,92.65-42.955-22.937-88.636-42.053-138.009-44.946-1.46-.086-9.642,1.542-9.534-.441,14.729-24.504,30.499-48.855,53.547-66.454,34.708-26.503,73.613-21.809,113.467-11.033,3.021-2.965-9.528-8.407-11.315-9.175-20.668-8.881-45.598-10.281-67.68-7.83,12.887-10.068,25.532-20.705,42.512-21.978,19.296-1.446,37.665,4.511,55.483,10.982.133-4.925-5.052-7.532-8.953-9.536-4.817-2.475-23.901-9.458-28.542-9.458-6.132,0-14.192-.687-20,0Z"/>
  <path class="cls-2" d="M536.298,179.699c4.832,3.539,15.287-.959,16.494-6.407.53-2.392-.313-4.959.722-7.278.292-.653,7.611-10.544,8.487-11.513,7.522-8.314,15.857-10.095,24.911-2.913,17.514,13.891,7.052,52.713-8.889,64.936-7.424,5.693-10.189,3.376-18.019.483,6.604,14.698,9.437,27.439,4.94,43.438-5.171,18.398-42.06,64.793-58.625,74.375-10.573,6.116-31.407,11.256-41.814,3.175-5.999-4.658-7.281-14.995-10.336-21.664-10.03-21.891-23.836-41.661-33.151-63.855.635-3.647,5.463,1.314,5.77,1.436,1.392.551,6.604,2.312,7.588,2.023,3.851-1.133-.479-7.79,1.528-10.483,4.49-6.027,10.624,3.173,12.667-3.414,2.87-9.252-11.941-5.999-16.615-1.583-1.511,1.427-3.167,5.581-3.496,5.575-4.741-.084-12.629-6.319-13.366-11.616-1.14-8.193,4.567-29.903,6.339-39.472.342-1.848,2.222-5.093,2.221-5.458-.002-.69-5.252-7.54-6.195-9.444-1.386-2.798-6.841-20.655-7.53-8.558-.31,5.443,1.525,9.575,5.069,13.509-7.746-2.839-14.336-7.551-22.999-5,3.706-7.669,4.725-16.643,3.005-24.985,9.104,1.316,18.32,3.23,27.504,3.985,4.574.376,15.026,1.375,19.03,1.111s5.879-3.198,10.459-1.09c.377.359-3.388,3.963-3.985,4.504-3.498,3.164-10.495,9.417-14.079,11.921-2.782,1.944-10.944,3.563-9.867,6.986,1.911,6.069,20.145,2.095,22.773,3.741.527.33,4.351,9.354,6.367,10.596,2.598-.835,3.976,2.997,7.124,2.234.28-.068,3.985-3.754,4.146-3.993,3.211-4.753.658-8.177-.474-12.995.676-.65,10.1,2.303,11.889,2.609,1.041.178,2.991,1.048,2.097-1.1-2.278-5.478-15.705-8.157-20.986-8.009,3.38-2.457,5.143-7.703,9.548-8.443,5.746-.965,13.266,2.189,19.443.933l-2.071-5.421-13.921-7.564c14.168-1.514,26.368-8.903,38.352-15.91,1.569,3.548,12.193,8.4,13.13,9.912,1.014,1.636.933,6.159,2.116,8.884,1.675,3.86,6.9,6.882,7.875,9.125,1.316,3.03,1.161,9.997,4.82,12.677ZM589.995,174.995c1.314-9.499-2.166-20.643-13.456-20.034-12.061.65-12.388,15.917-17.534,23.544,5.75.955,8.343-.119,9.54,6.443,1.539,8.439-6.364,10.868-4.053,16.02,3.14,7,11.464.578,14.338-3.638,4.804-7.045,4.29-16.722-1.925-22.736-3.64-3.522-10.382-3.789-3.939-11.122,6.248-7.111,11.919,5.046,14.545,9.555.761,1.306-.17,2.513,2.483,1.967ZM470,204h-15c1.425,2.626,6.837,3.108,9.503,3.089,1.878-.013,6.332-.28,5.497-3.089ZM456.982,238.993c.171-.12,1.773-3.563,1.814-3.768.85-4.161-4.626-13.515-8.741-14.777-5.509-1.69-12.719,1.919-9.454,3.549,2.434,1.215,6.056.473,8.931,2.97,2.532,2.199,4.594,14.032,7.449,12.026ZM455.818,255.265c-8.054.464-26.542,8.825-16.341,17.758,1.824,1.598,4.123,1.761,5.987,4.013,7.111,8.594,8.4,28.751,21.478,31.517,13.272,2.807,30.807-11.687,28.618-25.6-2.97-18.875-21.957-28.711-39.742-27.688ZM514.99,293c-.886-12.6-8.071-24.542-15.98-33.999,3.618,8.465,7.254,17.004,11.129,25.361,1.272,2.745,2.609,6.726,4.852,8.638ZM458.005,312.005c.774,7.645,2.911,10.207,10.51,10.981,12.738,1.298,26.899-2.375,28.475-16.986-7.349,7.716-21.145,14.881-32.041,11.552-3.887-1.188-3.565-5.292-6.943-5.547Z"/>
  <path class="cls-2" d="M456.997,497.007c-9.419,19.067-21.38,36.677-33.182,54.308-27.719,41.166-74.195,62.212-109.315,95.644l-40.059-36.967c-.667-.754-.397-1.213,0-1.983,1.166-2.264,8.691-8.256,11.074-10.994,27.026-31.068,41.168-77.136,70.96-103.04,5.298-4.607,13.235-8.636,17.5-13.5,4.77-5.439,8.392-14.131,12.045-20.468,9.238,5.055,17.525,12.283,26.672,17.801,13.433,8.104,28.874,16.042,44.304,19.199ZM385.995,484.005c-1.161-1.136-3.218.428-.49,1.99.871.126.563-1.918.49-1.99ZM406.995,528.995c.966-13.672-5.762-32.214-16.493-40.996-1.129-.924-1.61-2.431-3.496-1.994-.989,1.076,8.551,14.892,9.851,17.639,3.696,7.805,4.74,15.973,7.692,23.356.643,1.608-.097,2.443,2.446,1.996ZM410,507.99l-1.99-1.99c-.286,2.089-.1,2.276,1.99,1.99ZM418.995,516.995c1.083-.955-6.472-9.37-8.99-7.989-1.16,1.023,7.019,9.728,8.99,7.989Z"/>
  <path class="cls-3" d="M88,675c2.035-1.998,17.161,8.616,19.428,11.072,10.844,11.748,2.267,27.085,21.897,37.103,2.748,1.402,17.611,5.382,17.651,6.319.208,4.882-18.69,6.69-23.496,8.485-14.119,5.272-18.114,13.335-13.489,28.021-8.524-2.494-15.03-5.818-20.96-12.53-2.128-2.409-8.208-12.916-9.545-13.461-1.973-.804-1.609,1.479-1.507,2.501.494,4.978,5.562,12.29,9.014,16.003.772,2.833-5.447-.666-6.034-.971-11.457-5.947-15.694-16.021-21.17-26.864-.412-.815-2.099-7.62-2.79-2.196-.455,3.575.34,7.843-.008,11.518-10.375-8.879-16.862-26.036-17.974-39.515-.426-5.165.487-10.739-.127-15.873-.716-5.99-4.746-11.938-5.659-18.426-2.346-16.673,5.381-22.635,9.066-36.388,2.714-10.128,3.236-19.23,7.523-29.477,6.69-15.988,32.766-51.259,48.143-58.857,22.643-11.188,43.419,9.597,30.209,32.209l-5.172,9.328v-15.5c0-.873-2.572-7.499-3.5-7.48-3.814,2.774-1.162,5.994-1.408,9.477-.343,4.857-.576,11.416-1.18,15.915-.616,4.588-3.909,8.164-4.925,12.581-1.779.233-.98-2.254-.87-3.365.244-2.468,1.004-4.157.896-7.084-.07-1.901-2.757-20.507-6.541-14.576-1.578,2.473.682,8.981.593,12.538-.266,10.642-8.54,29.588-14.652,38.408-1.194,1.723-3.044,5.144-5.413,5.077,3.22-7.482,8.407-19.657,8.959-27.637.16-2.308-1.32-6.602-3.992-4.889-1.271.815-8.979,24.139-10.794,28.21-3.514,7.877-8.102,15.248-12.164,22.836l5.978-3.508c4.72,9.696,6.753,20.208,8.737,30.774,1.05,5.59.929,11.812,2.609,17.436.552,1.85.112,3.345,2.667,2.788v-20ZM71.011,695.996c4.448,3.152,7.003-15.601,7.026-17.548.04-3.291-1.935-19.087-4.552-20.438-1.927-.995-1.428,1.486-1.49,2.471-.337,5.362-3.685,33.601-.985,35.515ZM100.996,702.996c-1.253-1.644-1.823.108-1.998,1.487-.697,5.482.949,26.817,4.139,30.881,1.291,1.646,1.585,1.957,3.859,1.632.439-11.628-5.215-22.462-5.999-34Z"/>
  <path class="cls-3" d="M512,46h18.5c3.266,0,11.785,2.522,15.271,3.729,31.431,10.888,45.008,46.188,50.716,76.284-21.531-7.393-44.482-9.251-66.992-12.008-5.844-.716-13.134-.306-18.986-1.014-35.225-4.264-71.282-14.983-106.504-2.997,4.496-12.925,8.165-30.515,17.948-40.542,14.157-14.51,56.869-25.314,76.594-23.501,9.361.86,18.397,16.251,21.634,24.367,2.475,6.206,3.71,12.717,4.669,19.322.787,5.419.157,15.574,2.061,19.947,4.163,9.565,4.228-8.175,4.08-11.079-.958-18.774-5.713-38.638-18.991-52.51Z"/>
  <path class="cls-2" d="M615.788,210.203c2.752,53.358-17.433,103.729-50.288,144.779-5.94-5.65-11.743-11.567-15.499-18.974l17.998,1.987c2.986-8.264-19.766-13.453-19.899-15.478,5.211-11.997,12.092-23.818,17.095-35.822,7.387-17.725,16.279-39.087,6.806-57.683,13.319-2.694,22.419-15.674,26.008-28.015l17.779,9.206ZM582.997,308.993c1.347-1.607-6.738-26.328-8.498-29.992-.561-1.167-.999-2.748-2.489-3.001,1.746,9.138,4.597,19.907,7.727,28.776.262.742,1.52,6.292,3.259,4.216Z"/>
  <path class="cls-2" d="M364.433,735.616c.328.424,3.106,1.292.356,3.19-1.06.731-21.158,4.173-25.207,5.275-29.368,7.992-63.422,23.049-87.494,41.506-2.83,2.17-14.781,13.987-15.809,14.267-4.7,1.278-36.144-14.288-43.276-15.868,1.893-4.859,4.729-9.495,4.005-14.981,1.937.719,4.328.494,6.234,1.074.871.265.748,1.74,1.451,1.898,22.277,5.014,30.434-.111,50.093-5.691,12.976-3.683,26.17-6.863,39.21-10.295l-9.305-.966-1.405,1.932-19.28,3.55c24.652-14.136,46.51-34.318,58.495-60.486l40.008,33.012c.679.841,1.266,1.733,1.925,2.585Z"/>
  <path class="cls-3" d="M909.947,381.05l11.052,25.937c-31.845,4.579-60.266,16.725-86.313,35.198-10.498,7.445-20.269,17.998-30.161,24.839-.843.583-1.057,1.36-2.506.97-1.243-5.983-12.403-17.728-12.86-22.679-.39-4.219,31.634-26.351,36.927-29.73,25.28-16.143,54.117-29.319,83.862-34.534Z"/>
  <path class="cls-3" d="M517.995,121.005c.408,1.822-.555,1.959-1.667,2.822-16.157,12.548-41.284,23.986-61.838,25.162-29.869,1.709-57.11-14.612-86.861-11.861-9.377.867-18.247,4.982-27.624,5.861l14.745-6.74c19.662-5.969,39.207-15.908,59.035-20.965,35.824-9.138,68.79,2.551,104.211,5.721Z"/>
  <path class="cls-4" d="M765.005,833.006c.259,1.725-.366,2.908-1.152,4.348-5.572,10.203-15.432,20.581-21.658,31.341-13.877,23.981-22.701,50.46-29.206,77.309l-22.83-8.144c3.02-24.307,11.185-50.926,22.463-72.74,3.364-6.508,23.822-39.629,29.087-40.989,3.986-1.03,17.205,10.602,23.297,8.874Z"/>
  <path class="cls-2" d="M910.999,783.99c-18.86-4.664-38.237-6.568-57.506-8.984-33.911-4.251-57.943-25.105-92.181-29.819l-75.307-35.178c24.832,3.537,47.983,17.653,71.569,23.916,14.425,3.831,30.711,4.305,45.632,7.368,33.247,6.827,70.935,22.141,100.81,38.19,2.239,1.203,5.514,2.525,6.983,4.507Z"/>
  <path class="cls-4" d="M966.005,788.995c5.167-13.564,12.02-26.974,10.99-41.99-2.739-.544-1.711.697-2.421,2.023-4.079,7.617-7.358,16.578-14.564,21.971,4.163-16.326,8.239-34.959-1.178-50.332-1.313-2.143-4.606-3.898-4.845-6.192-.159-1.53,5.573-18.272,6.535-18.483,24.305,15.167,36.955,59.148,18.891,82.92-1.502,1.976-11.112,12.307-13.408,10.082Z"/>
  <path class="cls-4" d="M801.995,797.005l-29.692,29.835c-8.925-1.92-18.236-5.882-26.271-10.33-.193-2.904,24.616-24.514,28.705-25.343,6.44-1.305,19.927,6.572,27.258,5.838Z"/>
  <path class="cls-4" d="M948.984,730.004c8.051,18.461,2.781,36.529-5.113,53.848-2.1,1.808-16.009-4.841-18.902-6.423,2.886-10.072,9.268-18.685,13.89-28.07,2.741-5.565,4.47-13.148,7.912-18.054.6-.855-.17-1.866,2.213-1.301Z"/>
  <path class="cls-3" d="M562.002,362.021c.185.256-2.692,4.32-2.01,5.981-1.473,1.303-29.628-13.514-34.512-14.083l-15.47,8.08c.081-5.535.226-11.014-1.091-16.424,3.769-.039,14.587-12.728,16.397-12.448l36.686,28.893Z"/>
  <path class="cls-4" d="M664.997,608.014c2.355,3.164-6.14,3.053-7.481,2.969-11.81-.746-24.848-5.085-36.803-6.195l-1.708-2.272c4.148-4.731,10.266-6.842,15.319-10.378l30.673,15.876Z"/>
  <path class="cls-3" d="M938.987,500.993l-11.978-56.992,14.364,24.126c6.672,11.189,2.255,21.992-2.386,32.866Z"/>
  <path class="cls-4" d="M824.998,782.988c-4.605.347-9.23,6.976-13.466,7.076-4.959.117-14.76-5.251-20.531-5.075,2.236-2.327,12.548-6.917,15.509-7.053,2.452-.112,13.369,2.187,15.951,3.102,1.076.381,2.392.477,2.536,1.949Z"/>
  <path class="cls-3" d="M153.994,561.995l-14.994-2.005c2.311-4.19-.5-8.659-.996-12.985,7.446,1.32,15.144,7.164,15.99,14.989Z"/>
  <path class="cls-2" d="M532.926,680.104l-4.943,11.897c-10.618-3.309-6.067-8.971-3.97-17.001,3.842-.021,5.406,4.203,8.913,5.104Z"/>
  <path class="cls-2" d="M409,208.5c-.895-6.312-5.918-11.997-10-16.49l8.995-.005-1.988,4.991,3.992-.988c-3.901,4.962,2.727,9.802,3.007,12.499.129,1.24-1.601,9.804-2.013,11.985-.276,1.464-.004,3.11-1.992,3.508-.485-4.866.667-10.799,0-15.5Z"/>
  <path class="cls-3" d="M549,170.01c-2.067,5.569-8.407,6.563-10.993.483l10.993-.483Z"/>
  <path class="cls-1" d="M678.995,862.005c1.127,1.076-6.266,9.663-7.481,11.009-22.413,24.807-53.06,44.71-84.748,55.252-6.128,2.039-46.316,13.233-48.77,10.728-.262-.267-.263-2.452.599-3.083,2.466-1.805,18.948-6.289,23.655-8.162,32.113-12.779,64.836-28.981,93.064-48.936,6.292-4.448,13.502-11.762,19.648-15.352,1.311-.766,1.971-2.01,4.033-1.457Z"/>
  <path class="cls-1" d="M646.354,374.354c40.668-40.674,104.918,37.451,61.123,71.623-40.574,31.658-98.863-33.877-61.123-71.623ZM671.818,370.266c-50.011,2.964-33.426,84.651,18.441,76.495,44.229-6.955,22.518-78.922-18.441-76.495Z"/>
  <path class="cls-1" d="M800.995,314.005c2.043,28.971-4.572,63.173-25.985,83.995,2.102-16.782,10.775-32.515,15.696-48.794,3.181-10.522,4.586-23.32,8.039-33.009.571-1.603-.534-2.678,2.25-2.192Z"/>
  <path class="cls-1" d="M829.006,571.995c-.451-2.069,1.067-2.275,2.27-3.22,5.727-4.503,16.726-9.033,23.64-13.36,21.629-13.534,44.25-31.066,52.097-56.413,3.601,2.297,2.17,10.475.724,14.234-10.725,27.878-51.268,50.911-78.731,58.759Z"/>
  <path class="cls-1" d="M771.512,630.022c.572,1.234-1.774,2.728-2.594,3.395-5.686,4.629-30.653,21.317-36.633,22.385-1.996.356-2.98.543-4.264-1.302l43.492-24.478Z"/>
  <path class="cls-1" d="M662.992,630.013c.005,1.963-4.093.909-5.232.726-9.138-1.465-17.063-5.884-27.3-6.757-3.371-.287-7.915,2.522-8.455-1.467.923-1.455,1.948-1.385,3.444-1.558,11.645-1.346,26.346,5.98,37.543,9.056Z"/>
  <path class="cls-1" d="M667,644.99c-4.05-.525-8.855-3.199-12.739-3.751-2.385-.339-14.278.525-14.241-1.739.098-5.942,25.037-.097,26.979,5.49Z"/>
  <path class="cls-1" d="M151.168,756.823c5.331,3.675,13.302-4.723,17.807-.329.058,1.05-7.109,8.597-8.468,9.515-9.529,6.436-28.468.796-21.508-12.999-10.507,3.637-17.523,7.76-6.473,16.964,8.831,7.356,18.401,9.04,28.464,3.027-6.149,19.515-46.679-.588-38.04-15.557,3.312-5.74,19.057-11.839,25.052-8.946,3.618,1.746,2.1,7.591,3.167,8.326Z"/>
  <path class="cls-1" d="M222.892,596.114c2.037,3.394-2.071,10.922-4.873,13.387.01,1.928,15.843,1.715,19.235,2.744,8.618,2.615,12.198,18.559,10.745,26.257-.45,2.384-3.264,3.536-4.916,2.408-1.779-1.215-2.126-18.038-8.157-21.336-5.185-2.835-7.992-.182-11.302-.522-.714-.073-.129-1.857-2.051-2.13-3.441-.489-7.179.944-9.945.759-1.248-.083-18.114-3.551-19.005-3.936-3.577-1.543-5.766-6.965-4.619-10.741,2.802.281,3.728,2.73,6.447,4.044,5.636,2.725,10.888,2.624,16.053-1.044,2.511-1.783,9.639-14.47,12.387-9.891Z"/>
  <path class="cls-1" d="M142,675c-2.504.354-3.356-2.508-4.181-4.319-6.259-13.758.655-31.715,9.352-43.01,8.196-10.645,24.745-19.434,12.632,1.632-4.947,8.603-17.803,20.542-17.803,31.197v14.5Z"/>
  <path class="cls-1" d="M246.005,690.994c-1.892-1.783,6.587-24.326,8.576-27.913,3.332-6.007,16.935-28.578,23.412-16.607-10.425,8.278-19.193,19.243-24.476,31.543-.865,2.014-3.984,16.302-7.512,12.978Z"/>
  <path class="cls-1" d="M183.054,644.041c1.492-.969,3.761.401,3.976,2.447.764,7.249-9.366,20.798-15.004,25.039-1.733,1.303-8.295,5.479-7.906,1.124.1-1.119,11.56-14.537,13.509-17.522,1.481-2.269,4.908-10.752,5.425-11.088Z"/>
  <path class="cls-1" d="M266.005,681.995c-1.219-1.134,13.7-27.086,19.474-25.998,5.206.98-4.456,9.239-5.449,10.534-2.836,3.699-7.113,11.327-10.016,13.984-.966.884-3.017,2.403-4.009,1.481Z"/>
  <path class="cls-1" d="M228,658.01c-7.611,8.572-21.075-3.364-15.987-13.002,1.98,1.324,2.319,4.351,3.992,6.488,2.933,3.745,6.902,7.368,11.995,6.514Z"/>
  <path class="cls-1" d="M234.995,636.005c.574.543-3.715,13.101-4.318,15.193-.295,1.023-.416,3.648-2.162,2.792-3.522-1.727-.369-16.068,2.474-17.501.88-.443,3.639-.832,4.006-.484Z"/>
  <path class="cls-1" d="M455.818,255.265c17.785-1.024,36.773,8.812,39.742,27.688,2.189,13.913-15.346,28.407-28.618,25.6-13.078-2.766-14.368-22.923-21.478-31.517-1.864-2.252-4.163-2.416-5.987-4.013-10.201-8.933,8.287-17.294,16.341-17.758ZM469.992,264.013c-4.687-.98-9.416-2.342-14.223-1.761-2.605.314-14.231,4.104-11.766,7.734,1.582,2.329,19.775-3.199,23.209-4.284,1.043-.329,3.022-.259,2.78-1.689ZM468,302.99c6.215.168,14.922-2.593,16.99-8.99-5.637,2.437-13.156,3.838-16.99,8.99Z"/>
  <path class="cls-1" d="M589.995,174.995c-2.653.546-1.723-.661-2.483-1.967-2.626-4.509-8.298-16.666-14.545-9.555-6.443,7.333.299,7.6,3.939,11.122,6.216,6.015,6.73,15.691,1.925,22.736-2.874,4.215-11.199,10.637-14.338,3.638-2.311-5.153,5.592-7.581,4.053-16.02-1.197-6.562-3.79-5.488-9.54-6.443,5.146-7.628,5.473-22.894,17.534-23.544,11.29-.609,14.769,10.535,13.456,20.034Z"/>
  <path class="cls-1" d="M458.005,312.005c3.379.255,3.056,4.359,6.943,5.547,10.896,3.329,24.692-3.836,32.041-11.552-1.576,14.611-15.737,18.284-28.475,16.986-7.599-.774-9.736-3.336-10.51-10.981Z"/>
  <path class="cls-1" d="M456.982,238.993c-2.855,2.006-4.917-9.827-7.449-12.026-2.875-2.496-6.497-1.755-8.931-2.97-3.266-1.63,3.945-5.239,9.454-3.549,4.114,1.262,9.59,10.616,8.741,14.777-.042.205-1.643,3.648-1.814,3.768Z"/>
  <path class="cls-1" d="M514.99,293c-2.243-1.912-3.579-5.893-4.852-8.638-3.874-8.357-7.51-16.896-11.129-25.361,7.91,9.457,15.094,21.399,15.98,33.999Z"/>
  <path class="cls-1" d="M470,204c.834,2.809-3.619,3.076-5.497,3.089-2.666.019-8.078-.463-9.503-3.089h15Z"/>
  <path class="cls-1" d="M406.995,528.995c-2.544.447-1.804-.387-2.446-1.996-2.951-7.383-3.996-15.551-7.692-23.356-1.3-2.746-10.841-16.562-9.851-17.639,1.886-.437,2.367,1.07,3.496,1.994,10.731,8.782,17.459,27.324,16.493,40.996Z"/>
  <path class="cls-1" d="M418.995,516.995c-1.971,1.738-10.15-6.967-8.99-7.989,2.518-1.381,10.074,7.034,8.99,7.989Z"/>
  <path class="cls-1" d="M385.995,484.005c.073.072.381,2.116-.49,1.99-2.728-1.562-.671-3.125.49-1.99Z"/>
  <path class="cls-1" d="M410,507.99c-2.089.286-2.276.1-1.99-1.99l1.99,1.99Z"/>
  <path class="cls-1" d="M71.011,695.996c-2.7-1.913.648-30.153.985-35.515.062-.986-.437-3.466,1.49-2.471,2.616,1.351,4.592,17.147,4.552,20.438-.024,1.947-2.579,20.7-7.026,17.548Z"/>
  <path class="cls-1" d="M100.996,702.996c.784,11.538,6.438,22.372,5.999,34-2.274.325-2.567.013-3.859-1.632-3.19-4.065-4.835-25.4-4.139-30.881.175-1.378.746-3.13,1.998-1.487Z"/>
  <path class="cls-1" d="M582.997,308.993c-1.739,2.076-2.997-3.474-3.259-4.216-3.131-8.869-5.982-19.638-7.727-28.776,1.49.253,1.928,1.834,2.489,3.001,1.76,3.664,9.845,28.384,8.498,29.992Z"/>
  <path class="cls-5" d="M671.818,370.266c40.959-2.428,62.671,69.539,18.441,76.495-51.867,8.156-68.452-73.53-18.441-76.495ZM678.5,439c5.809.267,11.695-.194,17.5,0l-4.926-20.916,16.932-4.097-6.142-18.853-17.818.814c-.604-2.84-2.596-16.526-3.984-17.508-2.917-2.062-15.59,3.224-20.057,1.564,1.78,6.927,4.914,13.72,5.002,20.995l-16.003,2.004c-1.157,1.133,2.691,17.216,4.469,19.023,2.804,2.849,13.707-.5,17.52-1.034.925,3.277,3.934,17.297,5.987,18.58.707.426,1.306-.583,1.52-.573Z"/>
  <path class="cls-5" d="M469.992,264.013c.241,1.43-1.737,1.359-2.78,1.689-3.433,1.085-21.627,6.613-23.209,4.284-2.465-3.63,9.161-7.42,11.766-7.734,4.807-.58,9.536.782,14.223,1.761Z"/>
  <path class="cls-5" d="M468,302.99c3.834-5.152,11.353-6.552,16.99-8.99-2.068,6.397-10.775,9.158-16.99,8.99Z"/>
  <path class="cls-3" d="M678.5,439c-.215-.01-.814.999-1.52.573-2.053-1.283-5.062-15.303-5.987-18.58-3.813.534-14.717,3.884-17.52,1.034-1.778-1.807-5.626-17.89-4.469-19.023l16.003-2.004c-.087-7.275-3.222-14.068-5.002-20.995,4.467,1.659,17.14-3.627,20.057-1.564,1.388.982,3.38,14.668,3.984,17.508l17.818-.814,6.142,18.853-16.932,4.097,4.926,20.916c-5.805-.194-11.691.267-17.5,0Z"/>
</svg>