<?xml version="1.0" encoding="UTF-8"?>
<svg id="Layer_1" data-name="Layer 1" xmlns="http://www.w3.org/2000/svg" viewBox="0 0 1024 1024">
  <defs>
    <style>
      .cls-1 {
        fill: #b05426;
      }

      .cls-2 {
        fill: #1c82ba;
      }

      .cls-3 {
        fill: #0e1213;
      }

      .cls-4 {
        fill: #cd3627;
      }

      .cls-5 {
        fill: #df3e26;
      }

      .cls-6 {
        fill: #f3b67a;
      }

      .cls-7 {
        fill: #06263f;
      }

      .cls-8 {
        fill: #f1d492;
      }

      .cls-9 {
        fill: #fdfcfa;
      }

      .cls-10 {
        fill: #126fa2;
      }
    </style>
  </defs>
  <path class="cls-9" d="M325,1024H0V0h1024v765l-2.337-1.227-7.136-18.535c3.858-20.702-3.217-50.47-18.016-66.386-9.09-9.775-18.146-11.402-30.776-13.242,11.553-48.829,8.404-99.53-14.702-143.684-1.948-4.818-3.784-9.84-2.315-15.028,12.915-28.09-.886-50.475-16.889-73.072-3.53-5.809-2.519-12.424,3.033-19.845-22.539-57.093-49.83-124.224-91.771-170.536-48.297-53.329-129.983-57.885-196.839-52.51-9.363-6.008-19.315-10.811-29.858-14.407l-1.615-1.752c-2.421-12.852-5.256-25.551-8.506-38.097-1.004-36.613-19.057-83.375-56.416-95.981-40.808-13.77-118.366-6.673-142.464,33.578-5.961,13.527-11.292,27.343-15.993,41.446-18.362,6.769-36.512,14.175-54.45,22.218-44.479,26.478.056,48.353,31.825,41.582,5.962-1.201,11.699-1.673,17.211-1.416.277,5.66,1.328,10.046,5.741,14.197,10.748,8.623,13.198,16.045,11.276,29.647,3.969,18.938,11.379,36.973,22.228,54.104,6.474,8.435,11.302,17.347,14.482,26.737-12.771,18.329-21.726,34.521-29.26,56.864-7.59,30.532-18.617,59.262-31.879,86.969-1.522,17.962-13.109,28.977-27.452,38.807-20.423,21.26-37.123,45.67-50.099,73.231-2.215,5.28-29.258,44.996-35.506,45.146-11.253-8.366-20.579-14.113-35.43-15.236-9.215-4.272-17.44-10.754-24.673-19.444-14.337-1.078-28.533-2.747-42.589-5.006-3.214-16.289-15.827-23.966-31.55-24.797-33.222-32.727-72.956,26.981-87.242,53.674-5.676,19.211-11.614,38.347-17.815,57.41-4.846,13.234-.727,24.896,4.693,36.828-3.255,23.992,1.89,46.048,22.451,61.463,1.912,2.04.454,3.306-1.886,4.686-51.658,24.793,24.263,42.493,45.74,42.163l8.706,1.778c19.514,13.095,45.662,20.865,69.164,17.617,6.206.189,37.856,12.445,40.614,16.706.946,8.449,4.759,13.063,11.302,18.184l.756,2.176c-11.344,21.376-11.614,41.924-10.72,65.704-13.975,25.174,5.934,43.055,25.941,56.085,24.154,14.777,48.689,28.928,73.605,42.451,3.516,1.907,6.748,3.992,8.415,7.75Z"/>
  <path class="cls-3" d="M325,1024c-27.883-18.668-60.625-32.083-87.72-51.78-15.714-11.423-31.354-24.572-25.765-46.206.748-2.897,3.223-4.87,3.538-8.525,1.552-18.016-3.118-27.39,3.242-47.695,1-3.192,7.844-17.233,7.617-18.193-.155-.654-7.417-6.016-9.346-9.669-1.742-3.299-2.212-8.858-2.766-9.734-1.006-1.59-32.225-14.513-34.525-14.968-5.539-1.095-9.765,1.081-14.781.839-13.694-.66-32.922-5.05-45.473-10.593-3.726-1.645-11.819-7.73-13.739-8.261-11.399-3.156-27.53-2.794-41.279-6.721-28.962-8.272-50.487-24.683-11.01-41.99-14.792-10.408-24.22-26.715-25.031-44.968-.258-5.81,1.646-13.241.981-17.959-.498-3.535-4.421-9.009-5.488-13.535-4.522-19.179,3.457-28.245,8.045-45.043,6.941-25.41,6.64-34.479,22.687-57.313,12.197-17.356,40.387-51.034,64.086-43.462,5.568,1.779,10.54,7.979,13.746,9.254,3.039,1.209,8.504.782,12.773,2.227,8.941,3.026,18.935,13.307,19.25,23.247l42.249,4.254c6.481,4.494,12.421,14.154,19.376,17.624,7.17,3.578,17.062,3.002,25.33,6.67,3.956,1.755,13.607,10.48,14.502,10.48,2.229,0,19.284-21.81,21.72-25.263,20.78-29.452,33.32-65.772,60.254-90.746,6.746-6.255,14.433-10.048,20.354-17.646,7.112-9.127,6.468-11.693,8.589-21.327,1.571-7.137,13.059-27.787,16.6-37.483,10.638-29.125,15.834-62.329,32.162-88.838,2.319-3.765,12.97-15.871,12.662-18.917-.488-4.819-11.395-19.239-14.36-24.741-7.258-13.468-20.848-38.004-22.353-52.647-.547-5.327.928-14.336-.34-18.66-1.815-6.187-19.868-15.817-15.792-26.715-19.199,4.619-73.881,8.734-67.757-24.267,3.639-19.612,56.51-32.79,72.733-40.259,6.911-16.398,9.345-34.908,21.063-48.937,29.838-35.722,115.776-43.284,154-20.069,25.587,15.54,44.267,62.07,43.145,90.778,4.321,6.252,5.503,34.767,8.817,38.26,1.345,1.417,12.016,4.202,15.207,5.793,3.119,1.556,12.463,8.487,14.334,8.675,5.099.514,16.155-1.901,21.924-2.01,47.702-.898,111.202,5.102,151.267,32.809,42.834,29.623,76.268,98.628,97.444,145.556,3.102,6.875,20.282,44.847,19.653,48.916s-6.463,9.288-5.673,14.011c.432,2.581,12.909,20.048,15.367,24.726,6.142,11.688,10.626,20.592,9.353,34.392-.645,6.991-6.258,19.321-5.686,24.864.835,8.082,13.289,30.635,16.307,41.77,10.12,37.336,10.704,73.576.51,110.986,37.043-2.827,51.272,43.911,50.942,73.447-.019,1.73-1.797,3.098-1.715,4.886.188,4.086,6.961,16.499,7.769,21.674v47l-1.018,1.858c-53.291-9.191-106.607-17.85-159.95-25.976-18.264-5.449-30.455,1.147-44.065,12.848,40.961,7.686,83.165,17.859,117.821,40.891-4.489-7.802-9.786-15.048-15.89-21.737-6.25-10.481,6.058-7.001,11.772-2.626,14.799,11.33,24.229,32.391,29.279,49.939,3.799-10.252,4.304-23.744,4.156-35.472,4.548-9.963,11.138,12.39,10.539,17.611-.042,12.261-.238,24.374-.587,36.339l47.287,12.093.657,2.232v12c-1.568.666-3.196.948-4.888.824-40.146-11.392-80.87-19.773-122.187-8.671l-33.223,7.336c-10.1-2.131.022-7.774,4.862-10.104,18.048-8.69,38.476-13.522,57.963-14.894-39.239-13.956-77.993,5.829-112.139,24.632-9.399-1.156-1.173-8.961,2.942-12.541,33.55-29.186,88.919-44.404,129.206-19.687-11.437-34.137-52.961-47.47-84.784-56.889-4.814-1.425-52.343-13.34-56.443-11.997-2.757.903-22.491,23.741-24.179,25.969-32.397,42.772-60.103,95.414-60.701,150.174-.216,19.773,5.098,25.794,21.3,35.21l.27,2.638h-76c-14.088-7.486-28.474-14.711-43-21-.333.865-.667.865-1,0-17.562-7.872-36.027-13.712-55-17-.333.864-.666.864-1,0-5.596-1.043-11.263-1.71-17-2-.185.89-.525.854-1,0l-24-1c.191,3.176-7.949,3.112-9.325,1.873-3.158-2.841-2.148-7.74,1.825-5.873.207-.779.534-1.941,1.139-2,7.607-.747,18.239-.469,25.361,2l-6.831-2.204c-17.066-11.482-34.497-21.541-52.292-30.176-35.601,8.086-61.52,40.414-72.128,74.939l-2.749,2.441h-12c.426-12.553,8.23-25.894,15-37-.284-1.245-.454-2.585.054-3.799,2.622-6.266,14.277-17.941,19.69-22.844,10.008-9.065,21.441-16.579,34.004-21.583,1.42-.867-25.774-15.517-29.753-11.463l-1.994-1.31c-3.97,1.653-7.97,2.653-12,3l-2.611,3.083c-19.905,7.267-35.868,21.51-45.068,40.625l-3.321,2.291c-5.677,11.175-10.01,22.842-13,35,1.642,1.778,1.63,4.596-.033,8.455.23,2.666-.425,4.515-1.967,5.545h-31Z"/>
  <path class="cls-7" d="M742,1024c-11.098-7.983-21.113-11.327-22.868-26.632-6.565-57.239,33.379-134.296,71.357-175.38,1.819-1.968,13.077-13.548,14.243-13.84,2.438-.611,22.187,3.442,26.299,4.321,33.926,7.247,94.226,22.488,112.504,54.496,1.254,2.195,5.422,11.576,5.459,13.558.061,3.318-6.09-1.762-8.317-2.7-30.605-12.904-53.791-13.056-84.471-.118-10.372,4.374-36.066,18.85-42.64,27.36-1.147,1.485-1.8,3.013-1.56,4.929,13.792-5.824,26.351-14.661,40.313-20.176,21.67-8.558,46.503-13.39,69.459-7.095.904.248,12.029,3.659,9.217,5.271-.926.531-17.618,1.565-21.215,2.285-11.671,2.337-33.296,8.716-43.456,14.539-1.505.862-5.659,2.985-5.315,5.178,23.57-4.687,47.289-11.769,71.453-13.035,31.403-1.645,61.521,7.495,91.539,15.039v112h-176c-19.581-10.557-39.098-21.968-58.549-34.236-3.592-14.573-5.504-29.578-5.737-45.013-.693,12.761-1.26,25.877,1.008,38.477-.576,1.565-1.876,2.129-3.517,2.049l-41.767-23.504,9.932,8.202c12.208,6.775,24.078,14.032,35.61,21.771,4.066,10.059,8.065,20.146,11.995,30.263l-.975,1.991h-54Z"/>
  <path class="cls-6" d="M409,1024c6.482-24.96,23.76-51.647,45.09-66.41,4.908-3.397,25.38-14.175,30.589-12.852,5.634,1.43,19.98,10.702,25.989,14.094,11.006,6.214,21.925,13.001,32.332,20.168h-26.5c-.106,0-1.387,1.235-1.49,1.511-1.824,4.889,6.578,2.489,8.99,2.489l24,1c.333.005.667-.006,1,0,5.734.289,11.401.956,17,2,.331.031.671-.035,1,0,18.979,3.296,37.43,9.124,55,17,.291.111.71-.112,1,0,13.978,5.852,27.645,12.852,41,21h-255Z"/>
  <path class="cls-7" d="M1024,812v88l-50.565-12.932c.119-18.61,5.23-38.712-3.951-56.058-2.488-.389-1.163.897-1.178,2.23-.13,12.049-1.291,24.685-4.169,36.398-.295,1.201-.571,4.365-2.123,4.354-3.553-10.889-6.362-21.525-11.845-31.661-4.224-7.808-17.686-26.802-26.662-27.354-1.078-.066-3.091-.646-2.492,1.502.429,1.539,10.474,12.629,12.79,16.215,2.195,3.399,6.853,11.342,8.148,14.863.637,1.732-.661,1.64-1.948,1.438.004-.748.27-2.303-.226-2.712-3.673-3.037-15.458-9.902-20.112-12.452-31.524-17.269-70.56-25.343-105.668-31.843,8.571-6.319,21.779-18.05,32.529-18.036,6.712.009,14.901,2.344,21.833,2.186l155.639,25.861Z"/>
  <path class="cls-10" d="M434,926c2.22-.833,3.043-1.994,6.017-1.522,7.728,1.225,23.992,10.07,30.981,14.51-23.698,7.908-45.885,26.776-58.999,48.012-7.449,11.08-12.814,23.715-15.941,36.649l-1.059.351h-39c-1.056-4.972,1.051-9.419,2-14,2.876-11.837,7.21-23.504,13-35,10.739-23.257,26.781-37.561,51-46,4.022-.356,8.022-1.356,12-3Z"/>
  <path class="cls-3" d="M848,1024h-11l-8.288-1.888-31.99-19.103c1.357,6.296,3.367,12.791,6.031,19.484l-1.753,1.506h-5c-5.381-6.177-8.468-26.246-12.537-30.963-3.279-3.802-30.433-17.56-37.793-23.207-1.161-.891-16.486-12.926-8.286-11.744l45.61,25.908c-2.74-5.706-2.315-47.401.506-48.005s4.02,37.623,4.605,41.407c.553,3.579,1.809,7.656,2.837,11.163,16.992,11.967,36.915,20.42,54.083,31.917,1.463.98,3.103,1.086,2.975,3.524Z"/>
  <path class="cls-7" d="M837,1024h-36c-.03-2.71-9.294-23.333-6.49-24.01,2.372-.573,36.522,22.417,42.49,24.01Z"/>
  <path class="cls-2" d="M412,987c-6.539,10.589-12.523,24.838-15,37h-2c.12-1.624,2.644-8.42,2.009-8.996-.507-.46-3.326.965-3.001-.99,6.981.621,7.41-10.952,10.602-15.904l7.39-11.11Z"/>
  <path class="cls-8" d="M666,1024h-2c-11.121-6.142-22.466-12.38-34.105-17.512-2.345-1.034-3.851,1.564-6.895-3.488,14.826,5.709,29.568,12.431,43,21Z"/>
  <path class="cls-10" d="M472,655c9.784.794,20.051.446,30,0,.995.052,2.008-.067,3,0,5.535,1.644,11.231,2.715,17.087,3.214,3.817-.283-1.83,8.443-2.966,8.751-.82.222-14.571-2.92-16.657-3.403-.188-.044-.332-.276-.464-.562-8.656-.903-16.989-.569-25,1-.153.191-2.114.93-.993,1.993,1.466,1.391,35.7,4.382,38.937,10.098.756,1.335-6.333,9.451-.946,17.411,2.572,3.8,6.733,3.868,8.727,5.775,3.029,2.898,7.164,12.187,13.988,13.692,2.841.626,6.454-.911,8.328-.386.925.259,5.392,4.498,6.959,5.417,6.137,2.25,13.007,1.829,20.61-1.262,13.209,10.447,26.569,4.343,37.39-5.738,5.956-3.834,13.456-12.601,21-12,8.204,3.391,16.537,6.391,25,9,25.724,10.315,53.778,23.576,78,37,2.09,1.121,2.5,2.101.009,2.411-13.193.608-26.196,1.805-39.009,3.589-.332.024-.668-.024-1,0-4.96-.44-10.866-.038-15.813.677-.091.013,1.471-.244,1.813.323-4.195,1.332-9.521,1.524-14,2-5.259-.219-10.515.338-15.727,1.07l-11.486,1.69-.788,1.241c-9.826,1.433-19.27,3.265-29,5-1.276-.661-2.746-.85-4,0-.323.057-.677-.058-1,0-5.476.826-10.81,2.16-16,4-.526.383-1.097,2.041-1.994,2.505,7.115.744,14.74-1.699,21.994-2.505,4.998.868,10.085.058,15-1,6.264-.745,12.188-2.244,19-3,8.949-.24,17.892-.923,26.829-2.05,3.615,1.678-1.256,1.045.171-.95,7.981-.601,15.394-.501,23-1l2.515.564c20.067-.743,40.895-1.931,62.485-3.564,1.344.029,3.246-.487,4,1l-.436.684c7.626.621,15.052,2.327,22.436,4.316,1.423.571,13.785,6.658,12.997,7.986-54.012,22.388-92.164,72.842-110.997,127.014-3.765,8.271-7.423,19.502-8,29-3.408,14.184-4.765,22.346-6,37-1.602,4.488-2.096,9.385-1.482,14.692l.482-.692c1.848,1.607.862,4.825,1,7l-.296,3.721c-4.908-.155-9.809-.395-14.704-.721-3.052-.583-6.147-2.242-9-3-5.522-2.6-11.189-4.267-17-5-2.392-.792-4.887-2.26-7-3-2.658-1.829-6.57-3.083-10-3-3.538-1.321-8.497-2.163-11-4.989,6.779-.93,13.499-3.01,20-5.011,4.413-.331,13.624-3.144,13-4,5.221-4.247,12.616-5.187,16.994-10.506-4.859-1.863-9.428.469-13.994,1.506-13.614,3.082-27.385,6.047-41.314,8.895-3.661-.677-1.603-1.418-.685-.246.219.279.15.783,0,1.352-3.85.512-8.952.685-13,1l-2.026-.916c-11.689.88-23.347,1.186-34.974.916-10.946-1.744-15.61-7.704-25-13-6.35-4.365-13.017-8.031-20-11-1.525-.86-6.8-2.688-6.997-3.014-.76-1.255,23.143-12.377,25.665-13.819,42.021-24.025,82.053-57.58,122.332-85.168,6.781-3.94,13.447-8.274,20-13,20.236-14.368,41.612-23.466,61.022-36.513,1.133-.762,2.579.229,1.972-2.482-60.118,19.594-110.442,62.268-162.273,97.215-24.988,16.848-50.301,33.347-76.034,49.06-4.042,1.211-11.347-4.827-14.687-7.281-3.805-1.095-6.358-2.886-7.659-5.375,6.681-11.198,11.568-22.74,14.659-34.625.978-3.616,2.248-7.152,1.989-11-8.8,3.643-21.419,39.317-25.988,41.555-4.829,2.365-6.774-6.455-8-9.555-1.149-6.567-3.149-12.9-6-19-.727-1.071-1.298-1.739-2-3-.456-3.543-1.583-8.13-4-10-5.616-9.179-12.664-22.701-20.994-29.506-.801-.654-2.005-2.653-3.016-.984,9.632,19.867,21.247,39.188,24.516,61.484l-18.953-24.047c-19.313-16.409-38.458-34.731-63.545-41.944l32.993,26.996,9.197,10.23-1.093,1.183c-4.292-2.884-8.66-5.355-13.104-7.413-9.843-6.071-24.282-14.116-35-18-14.108-6.928-30.348-8.212-45.949-8.219-2.584-.001-4.052.05-5.051,1.219-16.267,1.311-37.154,7.833-50,18-1.356.888-2.189,1.417-1.75-.059-2.591,3.308-4.283,4.531-7.369,1.93,2.36-4.755,5.066-9.378,8.119-13.87,13.14-16.448,27.877-24.918,48-31,11.479-1.568,23.922-3.996,35.371-7.366,3.492-1.177,5.816-5.047,5.629-8.634,3.359-7.807,4.071-16.368,8-24,1.903-3.168,4.903-5.501,9-7,6.586-4.17,14.143-6.343,21-10,2.835,3.16,3.927,3.13,3.276-.091,3.064-2.025,3.972-3.328,2.724-3.909l-2.369-1.176-28.367,5.794c-5.565-2.812-13.375-7.844-2.205-8.381l1.941-1.237c14.046-3.526,29.292-8.221,44-5,1.925.633,4.258.967,7,1,14.442,1.2,26.827,3.823,41,7,9.847,4.275,22.064,7.129,33,7,2.934-1.218,21.081-18.721,20.979-20.503-.039-.687-9.425-4.929-10.979-5.497-4.747-2.331-9.759-3.455-15-4-8.35-2.201-16.432-3.783-25-5-9.439-3.409-20.897-3.302-31-2,4.926,3.375,12.168,3.769,18,5,4.604,2.681,11.908,3.818,17,3,5.3,1.101,10.754,2.877,16,4,6.606,2.153,13.606,3.486,21,4,.901.296,4.131.789,3.995,1.495-.172.885-11.368,11.251-12.995,12.505-4.859,2.09-10.422,1.539-16.689-1.654-4.188-1.944-8.291-3.059-12.311-3.346-3.993-1.078-7.999-1.985-12-3-8.512-3.42-17.509-5.869-26.989-7.344.727-1.568.723-2.787-.011-3.656-4.981-6.65-9.506-13.983-13.997-20.987,12.235-1.957,29.091-12.2,35.993-22.518,5.401-8.075-3.258-7.126-8.996-7.495-2.889-1.116-6.249-1.607-10.081-1.472l.081-1.528c6.383-4.908,12.852-10.223,20-14,10.064-4.062,20.341-7.32,30.829-9.775,3.933-.115,7.324-.857,10.171-2.225.989-.077,2.007.057,3,0Z"/>
  <path class="cls-10" d="M502,663c.873.284.86.618,0,1-1.295-.162-2.688.091-4,0,.336-.899,1.67-1.233,4-1Z"/>
  <path class="cls-4" d="M785,216c.332-1.599,3.484-.172,4.696.796.46.368-5.376,1.868-4.696-.796Z"/>
  <path class="cls-4" d="M648,211c7.849,21.242,10.217,44.476,10.821,67.244l1.179,8.756c.031.998-.022,2.001,0,3-.858,1.009-.529,1.96,0,3,.018,1.333-.003,2.667,0,4-1.203,8.931-1.611,19.063-1.223,30.398-1.523,1.118-3.782,1.319-6.777.602-9.962-2.988-35.334-11.024-44.427-4.933-3.885,2.602,2.902,15.583.207,20.72-.665,1.268-19.996,11.579-24.245,15.247-9.424,8.132-16.095,17.827-14.528,30.96l11.607-14.881,7.381-5.108c.89,14.529,5.868,29.666,11.542,42.959.94,2.201,7.32,19.174,10.458,16.033,1.53-1.531-6.787-20.502-7.994-23.997-4.042-12.933-7.67-26.058-10.884-39.375l1.884-1.625c4.384-4.266,22.807-13.781,23.509-14.991,1.472-2.538-.197-12.342.486-13.014.695-.684,17.184.806,19.483,1.027,6.623.635,26.225,5.999,30.522,1.978,2.885-8.558,3.954-18.075,4-27,.014-.333-.01-.667,0-1,.464-.395.464-.729,0-1,.007-.333-.005-.667,0-1-.472-5.56-.472-11.06,0-16.5-.809-6.248-1.146-13.697-.971-20.351.006-.225.429-.438.971-.649-.556-.102-.993-.219-1.014-.387-.879-7.154-1.612-16.163-1.906-23.369-.01-.235.396-.487.92-.744.831-.133,2.091-.047,3,0l1.702.75c18.277,1.921,37.176,4.654,56.699,8.2,6.419.787,6.818-5.213.071-5.634-20.873-4.095-42.103-7.436-63.69-10.025-.676-6.288-2.27-12.052-4.782-17.291-2.198-7.321-3.695-11.132-7-18-.626-2.239-.834-3.943-.622-5.111,3.988.577,7.529.281,10.622-.889.666-.013,1.334.009,2,0,.395.465.729.465,1,0,.667-.007,1.333.006,2,0,24.893.703,50.235,2.087,75,5,6.9,1.158,14.237,2.281,21,4,6.539,2.396,12.872,5.062,19,8l-.312.981c-7.18.255-13.409,2.261-18.688,6.019-.114.077-.396.572-1,1-.4-.466-.733-.466-1,0-18.229,13.563-28.928,33.71-33,56-4.281,14.866-3.466,37.585,0,55,.028.331-.027.669,0,1l2,9c.055.324-.059.678,0,1l4.727,17.672c-.117,2.659-6.169-3.99-5.727-5.672-.142-.254.14-.743,0-1,.474-.394.474-.727,0-1-.078-.139-.928.139-1,0l-1-1c-.338-.676-.668-1.303-1-2-5.682-14.458-10.828-29.375-14.438-44.531-.509-2.614-2.262-2.001-2.769-.641-2.268,6.073,3.643,32.502,5.033,38.373-.56.366-1.743-1.037.174-.2,3.467,8.882,6.878,17.627,11.48,26.02,5.508,10.043,13.191,17.963,18.687,27.313,2.028,3.451,15.725,32.364,15.819,34.248.176,3.557-8.252,20.285-10.465,24.439-1.644,3.087-17.685,26.848-16.514,27.974,3.299,3.174,27.451-19.704,30.502-22.987,1.247-1.342,5.025-8.378,6.477-7.005,1.054.996,9.414,22.017,12.198,26.314,2.154,3.325,12.77,13.229,12.768,14.183-.004,2.22-24.488,31.034-27.951,34.5-2.849,3.982-6.279,7.254-10.29,9.816l-45.141,1.67c-1.815-.124-3.09.633-4.569,1.514-.021.313-.077.813,0,1,5.124,4.383,12.368,6.079,19,6,6.181,1.101,12.245,1.56,18.515,2.002,1.089.077,3.33-.562,2.476,1.483s-18.013,16.509-21.099,18.907c-3.202,2.487-20.512,15.08-22.892,15.608-7.67-.625-15.337-.958-23-1-12.67-1.44-26.919-4.894-38.68-9.82-3.047-1.276-20.932-10.504-21.806-12.194-.978-1.891-.852-5.958-.02-7.98,5.058,3.699,10.803,7.458,16.506,9.994l2,1c.285.117.71-.112,1,0,3.563,1.566,7.23,2.899,11,4,.318.07.683-.071,1,0,8.723,3.035,17.739,5.089,26.82,6.715,3.608.646,7.341,1.256,11.018,1.298,1.8.021,3.52-.262,5.163-1.013.465-.634,1.032-2.244,1-3l-1.439-1.385-17.561-3.615c-31.097-9.701-51.645-22.742-73-47-3.369-3.812,1.084-3.424,4.3-1.964,19.178,8.595,40.469,13.314,61.505,16.078,6.445.847,17.027,2.069,21.195-.114,2.205,0,5.85,1.846,8.973-.528,5.374-4.086-14.569-4.349-16.319-4.626-86.796-13.769-163.951-65.274-205.824-143.176-5.541-10.309-10.107-26.364-16.831-34.669-2.766,2.875-.804,11.045.409,15.541,4.566,12.226,8.454,22.708,11.663,31.446l.928.013,5.505,11.995c-17.563-13.407-33.142-27.048-45.011-45.989,2.151,24.554,23.44,45.401,43.506,57.994,8.921,4.845,9.129,6.844.623,5.996-22.42-2.54-44.087-7.767-65.002-15.682l-1.621.686c.142,1.282.245,1.444,1.021,2.431,2.816,3.584,23.932,14.685,28.979,16.569l2,1c.299.1.696-.095,1,0,14.688,4.655,29.981,6.99,45.881,7.008.296,1.179-.331,2.176-1.881,2.992-3.175,3.344-4.654,4.519-8.684,6.815-3.306,1.884-24.523,9.599-23.316,13.185,14.749.474,29.426-1.554,44.033-6.084-1.898,4.903-4.242,9.597-7.033,14.084-1.23,2.145-8.028,13.154-9.219,13.77-7.288,3.776-43.049-7.744-51.764-11.287-16.022-6.514-34.922-16.285-45.851-29.797,5.878-12.332,12.13-24.863,16.834-37.686l19-61c3.613-9.45,10.535-24.693,17.704-31.724.326-.32.87-2.978,2.286-1.277.569.684,3.085,14.265,4.239,17.273,4.936,12.864,11.567,16.834,24.772,18.728,8.042,1.762,16.684,2.269,25.926,1.521-.83,7.019-.139,13.179,2.074,18.479,8.384,5.738,14.829-7.169,22.4-6.957,7.678.215,22.418,9.537,31.547,9.007-2.713,23.775,11.274,50.292,25.054,68.95,1.793,2.877,3.495,4.229,6.782,5.053,6.023,1.51,14.075.738,20.218-.053,2.294-6.165-15.946-3.987-19.926-6.574-2.727-1.773-8.343-14.791-10.074-18.426-3.864-5.872-6.755-12.345-9-19-.251-.579-.661-1.207-1-2-3.595-10.845-5.493-20.585-2-32,4.734-12.26,17.395-25.362,24.806-36.694,16.6-25.382,28.697-54.085,33.194-84.306,3.302-14.672,5.954-32.605,1-47-.388-2.043-.455-4.1-1.516-5.98l-5.992-12.011c14.296,4.343,23.781,12.783,30.508,25.992Z"/>
  <path class="cls-6" d="M876,433c9.942-4.619,20.577-7.678,31.316-9.945,6,18.755,11.228,37.737,15.684,56.945,2.855,12.919,5.437,24.57,6,38-.495.859-.495,1.526,0,2,.017.665-.001,1.334,0,2-.842,3.633-.634,7.361,0,11-1.355,8.357-19.307,17.883-26,23-4.022,3.329-7.689,6.996-11,11-30.341,28.166-66.226,45.758-102,65l-27,14c-5.654,3.01-41.981,24.047-44.508,23.992-1.072-.023.128-4.022-1.997-4.988-.463-.21-.873,1.401-1.495,1.996-7.726,10.936-18.109,17.753-31.568,18.321-5.593.236-27.153-1.025-30.622-5.258-.213-.26-.368-1.902-.318-2.465.008-.095,1.103,1.387-.492.401-.315-.051-.674.008-1,0-8.906,1.6-17.699,4.395-26,8-.34.226-.616.727-1,1l-2,1c-9.312,6.908-17.556,17.039-28,22-13.441,5.939-20.328-3.229-9-13,.717-.265,2.333.324,3.342.019.964-.291.386-2.794,1.642-2.009,1.065.665,4.202,6.212,3.021,7.993,3.236.689,1.682-2.073,1.995-4.003,1.821-4.18-1.079-5.195-4.829-6.013l-.222-1.323c6.493-7.418,13.177-14.639,20.051-21.664,4.158-2.57,9.219-4.314,13.25-6.284,3.978-1.944,13.862-5.058,16.75-7.716.403-2.235.07-3.235-1-3-.545-.105-1.389-.029-2,0-6.437,1.91-12.771,4.577-19,8-6.989,2.933-10.059,3.069-17,8-5.054,4.267-9.537,9.126-14,14-3.858,4.556-7.856,9.286-11.408,14.092-2.338,3.165-2.094,6.759-5.632,9.368-3.92,2.892-17.521,7.223-18.781-.109-.27-1.57,7.524-13.184,8.302-13.281,4.225-.526,6.051,8.607,6.532,8.926,1.765,1.172,2.084-4.835,1.987-5.997-1.121-2.753-3.052-4.926-5.793-6.52l3.793-5.48c11.592-23.081,17.288-23.309,37.666-34.834,3.182-1.8,13.391-7.362,12.261-11.535-1.195-4.411-11.775,4.665-14.617,6.179-6.176,3.289-16.923,7.02-21.828,11.172-8.212,6.951-15.898,21.827-24.481,30.019-3.51,5.949-5.822,6.665-6.935,2.148l-3.065-3.148c-2.511-1.371-5.158.488-3.56-4.037,1.987-5.627,17.695-29.807,22.147-33.876,5.434-4.967,32.614-16.089,31.904-23.126-.144-1.428-.234-2.11-1.841-1.832-.776.134-10.971,6.498-13.65,7.871l-15,8c-14.447,10.221-21.637,27.768-31.5,41.979-5.983-6.459-8.83-3.879-4.975-12.962,4.028-9.49,15.582-25.718,23.475-32.016,4.308-4.274,9.605-7.323,15-10,12.984-9.029,18.868-19.222,36-15l1.008.851c-2.978,4.886.101,5.795,9.238,2.729,13.658,2.197,27.197,5.435,40.616,9.716l7.375.814c10.228-1.36,19.816-.397,28.763,2.889,4.295,1.479,18.183,11.729,19,10.989,2.116-1.919-11.442-12.824-13-13.989l-9.196-4.191c-.762-.908-.03-1.844,2.196-2.809,20.081-13.329,40.489-26.544,59-42l16-16c18.206-20.74,45.936-60.431,69-73,10.416-4.731,20.638-9.589,30.666-14.575l-1.02.612c.254-2.758-6.598-2.255-6.645-1.038-.333.006-.668-.017-1,0-9.665-.165-19.227,2.814-28.685,8.936-1.495-2.074-2.933-4.386-4.315-6.936-.089-.207-1.751-.642-1.902-1.626-.283-1.843,16.677-15.114,19.573-17.204,11.256-8.125,23.373-15.213,36.329-20.171Z"/>
  <path class="cls-9" d="M623.997,582.986c-8.829,1.527-19.492,13.693-26.256,16.255-4.512,1.709-8.305-.035-13.786,2.214-5.615,2.304-39.636,27.178-43.921,32.079-4.12,4.713-7.041,10.52-10.731,15.535-31.868-4.196-65.968-8.084-96.564,4.17-10.015,4.011-20.164,10.828-29.051,16.949-2.992,2.061-12.633,11.11-14.414,11.629-3.796,1.106-10.55-1.93-14.772-1.886-15.06.158-29.363,20.33-33.144,20.99-.87.152-13.566-10.079-13.919-10.889-.262-.601,3.195-9.769,3.428-12.658.803-9.962-2.345-16.487-7.859-24.354,33.388-25.297,72.31-47.705,100.504-79.009,18.779-20.851,32.72-45.527,45.944-70.122,2.363-1.569,18.557,2.954,24.52.586,5.669-2.252,22.158-33.311,26.736-34.364,2.249-.517,23.524,18.352,27.398,21.28,8.731,6.597,23.281,14.737,30.426,21.574,5.653,5.409,12.29,15.624,17.954,22.046,2.425,2.749,14.431,13.382,15.046,15.021.827,2.205-4.133,13.165-2.318,19.259,1.021,3.427,15.296,12.83,14.781,13.696Z"/>
  <path class="cls-6" d="M82,648c-.677-1.423-3.064-2.287-1.537-4.987.77-1.362,11.913-10.35,14.503-13.547,4.244-5.24,8.644-16.376,11.576-19.424,3.954-4.109,9.342-6.43,14.426-12.574,4.77-5.763,16.054-27.228,19.464-29.537,2.624-1.777,10.321.41,13.777,1.167,6.222,1.363,9.899,1.933,16.791,2.902,5.029,2.173,10.606,2.429,16,2,10.621,2.152-1.711,6.436-4.049,13.451-.644,1.932-2.27,10.048.533,10.492,6.626,1.049,13.891-19.6,19.228-20.83,2.938-.677,9.193,7.618,11.287,9.887l8.324,6.423c-.463,1.017-1.905,1.876-4.324,2.577,2.296,2.986-4.247,10.229-7.012,12.115-2.933,2.001-9.312,5.08-10.988.885-4.427-2.91-8.427-4.91-12-6,1.405,1.583,2.313,3.684,2.726,6.305,2.62,1.414,3.712,2.979,3.274,4.695,4.446,1.919,9.219,2.574,14,3,2.761-3.443,13.577-3.188,17.166.056,3.884-1.255,12.064-1.373,10.834,3.944,2.821,5.904,4.821,12.237,6,19,9.391-.424,1.97-22.312-4.003-25.629l.003-2.371c-4.824-1.265-10.105-2.366-15-1-7.843,4.656-7.297-3.447-2.516-8.138.013-3.468.851-5.755,2.516-6.862.351-.72.682-1.273.944-1.242,9.244,1.092,20.27,3.212,28.056,8.242.764.674,1.306,1.337,2,2l20,19c12.008,10.569,25.794,20.702,37,32,6.934,6.579,9.619,13.376,9,23-.927,5.932-12.602,22.166-16.613,27.887-16.112,22.98-50.742,63.2-81.387,61.113-.254-.482-.535-.884-.907-1.007-9.838-3.226-23.353-6.877-33.473-9.164-8.91-2.014-11.906-2.368-3.81,5.883,1.535,14.349-12.256,21.679-25.094,21.191l-14.717.096c-6.692-1.058-9.679-1.764-15-6-15.641-11.901-20.6-32.086,3.426-36.56l15.574-3.44c2.603-2.141,6.477-11.982,4.823-14.832-.632-1.088-18.093-6.898-22.823-10.168-4.926-6.888-8.727-14.697-11.402-23.425l-6.598-9.575c-9.404-7.171-15.271-4.973-22-17-3.337-4.962-5.907-10.41-8-16Z"/>
  <path class="cls-4" d="M797,220c11.049.904,34.718,23.807,41.97,32.53,28.965,34.839,46.415,81.461,67.03,121.47l-1.883,1.459c-14.211,3.594-28.3,7.619-42.117,12.541-28.382,12.543-54.434,29.762-76.986,50.997-15.403-28.463-32.187-56.542-41.014-87.997-5.3-23.192-7.959-46.056-5-70,4.952-28.1,23.703-60.86,56-61,.208-.591.875-.591,2,0Z"/>
  <path class="cls-7" d="M891.5,600c-.332.018-1.338,1.412-2.493.996,12.896-26.569,40.427-3.05,61.985-7.01-13.347-8.076-29.208-12.548-44.992-11.997,8.171-11.241,28.243-23.326,34.388-35.101,1.384-2.653,2.114-11.821,4.86-7.6,33.694,51.802,9.464,131.252-11.787,183.674-2.295,5.663-20.344,46.571-22.936,46.896-43.115-23.36-88.481-41.468-138.016-44.935-1.683-.118-9.381,1.606-9.529-.442-.18-2.483,24.068-37.428,27.512-41.489,31.07-36.633,61.527-49.682,109.863-42.846,4.488.635,28.555,7.915,29.64,6.849,3.027-2.977-9.533-8.391-11.316-9.173-20.435-8.961-45.745-10.21-67.678-7.833,12.931-10.095,25.539-20.712,42.52-21.968,19.347-1.431,37.658,4.495,55.474,10.973.292-.294-.779-3.975-1.322-4.67-3.305-4.228-30.761-14.324-36.172-14.324-6.594,0-13.442-.356-20,0Z"/>
  <path class="cls-6" d="M514,145c6.416,2.284,7.812,6.481,9.119,12.566l2.881,4.434c1.465,1.439,4.628,3.125,5.47,5.03,1.312,2.967,1.192,10.071,4.836,12.66,4.193,2.978,12.459.138,15.176-3.706,2.468-3.491.744-6.683,2.037-9.963,1.158-2.937,10.278-13.434,13.48-15.02,12.871-9.001,25.156,2.499,27.555,15.97,3.198,17.955-8.953,62.358-34.343,48.973,1.473.293,1.269.79-.613,1.492,4.593,10.429,7.06,21.284,7.402,32.565-.024.331.034.671,0,1-1.884,8.102-5.087,15.976-9,23-9.257,18.734-38.088,54.745-57,63-13.165,4.2-37.769,10.142-41.429-9.041-.144-.754,1.506,1.125-.571.041-3.079-4.348-3.993-10.09-6-15l-10-20c-4.039-7.177-8.465-13.394-12-21-1.217-1.798-2.278-3.687-3.232-5.637-1.475-3.012-4.782-10.315-5.018-13.298-.025-.32.53-.686,1.25-1.065,2.874,1.023,5.511,3.143,9,4,1.319.024,2.89-.117,3.432-1.531-1.015-10.559.383-11.297,10.568-9.469,8.424-7.498-6.555-13.938-16.468-2.954-1.084,1.201-1.37,3.837-1.547,3.954-1.146.758-6.756-3.126-7.985-4-4.168-3.135-5.567-6.903-6-12,.096-3.901,1.313-9.899,2-14,2.753-8.064,5.189-16.858,7.307-26.38-4.52-7.65-8.605-15.392-12.255-23.226l-1.052.606c-1.755,2.333-1.064,10.306,0,13,1.584,1.777,1.589,2.626.014,2.547-5.459-2.899-11.055-4.142-16.787-3.728,1.981-7.406,2.57-15.002,1.766-22.79,8.075,1.326,16.077,2.316,24.007,2.971,5.877.256,16.494,1.449,21.538,1.108,3.97-.268,5.919-3.205,10.46-1.096-5.204,4.977-12.338,12.385-18.067,16.42-1.991,1.402-9.56,4.028-9.913,5.101-2.124,6.458,16.659,5.762,19.981,5.467,2.66,1.34,4.852,4.076,6.578,8.207l2.422,1.793c.92.734,2.727,1.065,3.721,1.389,1.104.36-1.175,2.337,4.279.611,7.103-2.295,5.937-8.889,4.045-14.573,4.295.379,8.613.904,12.955,1.573.34-1.249-2.094-4.026-3-5-4.288-3.454-9.603-4.742-15.001-5.202-1.943-1.648,4.697-7.02,7.369-6.55l16.371.382c1.23.041,2.084-.239,2.26-1.63-2.265-7.706-9.93-8.323-15.994-11.988,7.344-.92,15.276-3.478,21.975-6.531,2.88-1.312,14.584-9.215,15.712-9.34,2.151-.239,4.893,4.558,6.307,5.859Z"/>
  <path class="cls-10" d="M228,880c-.284.873-.618.86-1,0,.108-.404.632-.771,1-1v1Z"/>
  <path class="cls-10" d="M292,849c6.64.624,13.363.701,20,0,2.636.127,3.199.649,5,1-.67.176.663.509,4,1,.332.02.67-.028,1,0,9.165,2.482,18.165,4.815,27,7,2.622,1.154,4.754,2.849,7,4,4.894.927,30.819,17.259,30.657,20.262-.075,1.386-4.546.486-5.13-1.136-16.634-4.768-42.233-9.256-59.434-8.968-.14.002-.161.434-.093.842-.665,5.326,9.647,5.596,14,7l4.886,3.261c14.858,4.095,29.562,8.008,44.114,11.739,3.119,1.146,5.987,2.72,9,4,3.838,2.092,7.755,3.899,12,5,1.292.671,2.125,1.513,3,2,4.724,2.754,9.391,5.087,14,7,2.684,1.541,6.201,3.009,8.698,4.766.862.607,1.865-.152,1.296,2.224-6.906,2.672-14.271,3.626-21.255,6.248-19.949,7.488-36.319,24.556-46.738,42.762-7.746,10.883-13.522,26.889-15.069,41.113-.154,1.419.136,2.019,1.069,2.887-.056,1.463.876,5.765-.983,5.989.146-.75-.118-1.541-.807-1.908-36.931-19.696-103.554-54.573-118.21-95.081-.313-4.45-1.313-8.784-3-13-.07-.365-.859-1.105-1-2-.905-9.223-.572-18.223,1-27,.461-3.241,6.344-19.605,9.342-18.62.466.153,2.426,1.305,2.464,1.442-1.403,1.702-7.55,10.249-2.776,8.369,14.051-12.843,34.903-18.429,51.97-21.191.313-.031,1.404-.883,3-1Z"/>
  <path class="cls-6" d="M412,478c13.711,8.766,28.33,15.349,43.858,19.748l-8.858,16.252c-30.972,59.856-71.924,87.013-125,125-4.077,5.388-7.41,7.055-10,5-6.936-4.611-15.754-12.504-22.011-18.489-3.266-3.124-13.375-12.301-14.989-15.511,2.852-4.623,6.518-8.956,11-13,24.782-31.312,42.191-78.146,70.475-103.025,5.131-4.514,12.601-8.285,17.031-12.969,3.403-3.599,11.46-20.384,12.517-20.997,1.367-.793,22.875,15.969,25.977,17.992Z"/>
  <path class="cls-1" d="M128,547c4.423,5.934,4.413,13.247,2,20-1.075,5.74-3.485,11.321-7,16v-15.5c0-.886-2.579-7.498-3.5-7.478-3.64,6.355-1.411,17.664-2.593,25.385-.704,4.597-3.832,8.165-4.921,12.584-2.145-2.327.245-6.923.023-10.437-.115-1.832-2.713-20.56-6.536-14.587-1.608,2.512.73,9.028.593,12.53-.429,10.955-8.388,29.364-14.656,38.41-9.482,13.684-1.718-2.814-.146-8.146.484-1.64,7.253-24.158-.296-19.301l-22.957,51.048c2.203,1.488,4.539-4.358,5.976-3.509.376.222,3.108,6.918,3.501,8.011,4.684,13.028,4.059,27.868,7.853,40.195.548,1.779.029,3.335,2.66,2.792v-20c5.905.855,15.373,6.538,19.424,11.076,10.856,12.162,2.361,27.063,21.906,37.094,2.881,1.479,17.503,5.397,17.643,6.323.701,4.642-19.013,6.835-23.494,8.485-7.169,2.641-14.552,7.164-15.414,15.641-.905,8.9,8.172,16.566-7.296,9.112-10.117-4.875-19.493-21.99-21.284-22.722-2.002-.818-1.558,1.486-1.503,2.496.319,5.877,6.851,12.179,9.008,17.493-8.625-2.646-15.498-8.633-20.407-16.082-6.3-9.559-9.962-29.836-10.077-3.923-10.206-10.035-16.232-25.78-17.505-39.994.651-5.965.963-12.049,0-18-9.756-32.131-5.19-22.988,3.295-52.205,5.423-18.673,4.789-26.359,15.684-44.316,11.142-18.363,46.978-67.275,70.02-38.48Z"/>
  <path class="cls-4" d="M503,47c3.097,1.034,7.308,7.318,9,10,4.533,6.096,7.64,13.089,9.601,20.405,1.073,4.005,5.923,33.879,5.273,35.555-19.118-2.16-38.195-4.611-57.229-7.354-22.181-3.612-42.77-2.223-63.659,2.754.179-2.424.516-4.877,1.013-7.359.32-1.018.669-1.996,1-3l8-20c8.023-13.732,22.157-20.416,37-25,4.998-.217,9.998-1.217,15-3,10.894-3.299,23.464-4.005,35-3Z"/>
  <path class="cls-4" d="M468,50h-1c.231-.374.589-.878,1-1,.873.284.86.618,0,1Z"/>
  <path class="cls-6" d="M616,211c-.489,6.648-.744,13.358,0,20-.059.992.082,2.012,0,3l-1.155,1.245c-2.237,25.191-9.044,49.898-19.845,72.755-6.995,15.895-16.926,30.683-28,44-.987,2.546-2.232,1.52-3.868-.009-2.549-1.674-12.299-13.037-10.595-14.506,4.203.538,8.357.709,12.463.515,2.272-.648,5.279.973,2.051-4.552-2.09-3.577-9.496-6.16-13.051-8.448-2.158-.38-3.793-1.311-4.906-2.793,2.428-4.726,4.397-9.462,5.906-14.207,3.77-8.409,7.574-16.392,11-25,1.148-2.229,2.487-4.329,4.016-6.301,2.538,6.501,4.866,13.268,6.984,20.301,2.799-.198,4.642,6.398,3,8-.865,2.065.907,5.723,3.127,4.703,3.005-1.38-6.462-26.959-8.127-30.703-1.268.606-2.268-.394-3-3l-1.344-.717c4.985-14.801,9.688-30.333,2.386-45.478,5.463-1.726,9.782-4.327,12.958-7.805.296-.357.772-.655,1-1l2-2c2.606-4.551,5.439-8.977,7.88-13.629.753-1.434.958-4.228,1.131-4.373.788-.662,17.558,8.625,17.989,10.002Z"/>
  <path class="cls-4" d="M909.94,381.057l11.058,25.929c-31.874,4.576-60.237,16.735-86.31,35.202-4.124,2.921-30.881,26.87-32.668,25.804-1.12-.668-12.789-21.378-12.854-22.68-.216-4.318,31.177-26.058,36.305-29.342,25.481-16.319,54.483-29.675,84.469-34.914Z"/>
  <path class="cls-4" d="M555,54c24.122,10.8,36.702,48.166,41.995,71.994-17.418-6.27-35.786-7.714-53.995-9.994-4.018-1.124-8.314-2.099-12.889-2.925,2.054-2.353,2.746-6.093,1.889-9.075.064-.654-.031-1.339,0-2-1.66-19.222-4.174-40.028-17.884-54.539-.076-1.692,11.404-.952,13.948-.678,9.587,1.03,18.144,2.826,26.937,7.217Z"/>
  <path class="cls-6" d="M306,727c6.465-8.435,11.499-17.619,16.5-26.979,4.211,5.536,43.497,33.621,43.506,36.459,0,.153-1.106,2.239-1.766,2.506-3.053,1.239-11.94,1.907-16.24,3.014-23.636,3.82-47.386,14.736-69,26-10.767,6.344-21.813,13.698-32,21-3.736,3.934-7.817,7.378-12.243,10.331-2.157.317-39.878-13.454-40.744-15.454-.287-.664,3.513-13.399,4.07-13.861.778-.644,5.379.599,5.917,1.984,4.658.345,9.343.71,14,1,3.7,1.448,8.012,1.759,12.936.932,21.112-5.648,42.134-11.625,63.064-17.932-.063-2.484-9.809-.449-12,0l-8.662,1.831c-1.707.393-1.487-.55.662-2.831,4.629-4.961,11.772-8.696,17-13,5.286-4.73,10.369-9.62,15-15Z"/>
  <path class="cls-7" d="M765.005,833.007c.663.675-.653,3.36-1.154,4.346-4.902,9.651-15.628,20.98-21.655,31.344-8.812,15.155-16.506,33.4-21.912,50.088-1.227,3.788-6.301,26.223-7.298,27.219-.857.857-22.101-7.177-22.817-8.155-4.315-5.889,17.761-63.627,22.457-72.722,3.297-6.386,23.872-39.747,29.087-40.988,3.133-.746,10.39,5.061,13.273,6.374,2.436,1.11,9.656,2.125,10.018,2.494Z"/>
  <path class="cls-4" d="M485,116c9.162,2.696,18.67,4.716,28.521,6.059,1.83.589,1.323,1.903-1.521,3.941-20.233,14.137-38.559,22.996-64,23-13.777-1.544-27.443-3.878-41-7-11.57-2.305-18.456-5.06-31-5l-2.084-.941c-7.15,1.521-15.547.735-4.632-4.475,9.771-3.222,18.343-6.417,25.715-9.584,7.876-2.645,15.675-6.715,24-8,11.578-1.779,23.245-2.445,35-2,9.369.198,21.491,2.559,31,4Z"/>
  <path class="cls-10" d="M336,756c-2.381,2.406-2.227,5.2-3,8-3.916,8.461-5.659,19.315-7,29-.619,2.205-1.304,6.303-2,8-.825,1.31-1.871,2.308-3.432,2.641-6.685.484-12.541,1.604-17.568,3.359-16.843,3.66-30.982,7.627-45.923,16.577-8.989,5.385-9.724,13.161-18.05,1.895-5.607-7.587-4.095-9.459,1.464-16.481,12.849-16.232,38.032-30.959,56.509-39.991,8.749-2.131,19.167-7.397,27-12,.304-.023.705-.051,1,0l2.816-.06c2.354-1.205,7.32-3.744,8.184-.94Z"/>
  <path class="cls-6" d="M745,730c4.679,1.394,9.219,2.914,14,4,4.947,2.739,12.159,3.329,18,3,2.285.439,4.769.564,7,1,24.43,5.661,49.206,11.956,73,20,8.677,3.447,15.716,6.756,24,11l20.283,9.803c1.865,1.572-2.719,2.364-4.283,2.197-9.684-1.669-19.244-2.832-29-4l-.946-.993c-8.428-.467-16.78-1.469-25.054-3.007-.324-.056-.677.058-1,0-8.282-2.977-16.615-5.977-25-9-12.98-4.869-25.335-12.508-39-16-4.183-1.358-9.314-2.269-14-2-2.627-.821-4.841-2.893-7-4-15.991-8-32.221-15.483-48.69-22.449-1.471-2.612-.379-3.574,2.302-2.496,11.865,3.965,23.662,8.28,35.389,12.946Z"/>
  <path class="cls-7" d="M966.006,788.994c-.846-.82,7.648-18.641,8.516-21.973,1.69-6.484,2.811-13.306,2.472-20.016-2.778-.588-1.704.829-2.422,2.024-4.319,7.192-7.176,16.874-14.561,21.97,3.734-15.239,7.358-29.697,1.46-44.971-1.438-3.725-7.34-10.345-7.477-11.554-.166-1.471,5.575-18.26,6.529-18.481,4.173-.966,15.629,15.695,17.644,19.339,10.52,19.02,15.038,44.915,1.243,63.579-1.472,1.991-11.126,12.291-13.405,10.083Z"/>
  <path class="cls-1" d="M549.764,163.763c-4.52,4.378-15.542-.76-19.16-4.868-10.513-11.935,3.308-3.833,8.186-3.098,1.466.221,11.206.232,9.722-1.799-1.139-1.56-15.653-1.031-17.511-5.987,7.125-4.292,13.435-1.388,19.481-1.974,5.16-.5-3.429-4.468-5.208-4.807-11.272-2.143-22.405,10.75-30.27-5.216,6.062-4.07,9.32.414,14.623.942,2.804.279,9.448-1.049,4.97-3.06-1.918-.861-10.202-2.526-10.595-2.91-1.351-1.321,5.905-5.015,8.491-5.073,10.237-.229,44.762,7.379,54.767,11.326,14.03,5.534,16.283,16.418,18.442,30.558.466,3.053,3.355,18.027-.769,17.818-6.861-.348-2.652-7.565-2.856-11.115-.577-10.059-3.577-23.751-12.143-29.935-12.896-9.309-26.263-3.832-34.762,8.106-1.903,2.673-4.825,10.527-5.408,11.091Z"/>
  <path class="cls-7" d="M801.995,797.006l-29.694,29.823c-2.322.535-26.103-8.911-26.266-10.318-.305-2.629,24.066-24.039,27.943-25.075,6.962-1.862,20.155,6.173,28.018,5.571Z"/>
  <path class="cls-10" d="M365,692c2.83-2.285,12.204-5.383,8.679-.218-1.346,2.091.682,11.233,1.321,9.218,7.523,14.136,14.515,28.099,30,35,.267.427.822,2.232.758,2.337-.756,1.223-21.312-2.709-23.758-5.337-13.115-5.385-22.178-17.655-33.993-25.02,3.47-6.7,10.445-12.138,16.993-15.98Z"/>
  <path class="cls-7" d="M948.983,730.005c4.275,10.53,5.125,22.09,2.777,33.255-.456,2.168-7.009,19.931-7.899,20.581-2.413,1.76-15.808-4.794-18.889-6.412l24.011-47.423Z"/>
  <path class="cls-4" d="M510,346c.758-1.118,14.318-12.974,15.311-12.863,6.493.727,28.046,26.291,36.69,28.887-1.549,1.266-1.063,6.02-3.466,5.967-5.945-.13-25.142-13.434-32.147-13.997-3.697-.297-7.203,3.329-10.388,5.006-1.865.666-3.719,1.216-5.563,1.648l-.437-14.648Z"/>
  <path class="cls-7" d="M664.997,608.015c2.194,3.309-6.234,3.017-7.471,2.961-4.713-.214-33.498-4.732-36.806-6.196-6.451-2.855,11.325-10.669,13.605-12.636,3.121,4.306,29.707,14.417,30.672,15.872Z"/>
  <path class="cls-5" d="M512,57c4.768,5.397,8.62,13.042,10.501,19.999,1.761,6.508,2.969,30.684,4.693,33.307,3.779,5.75,4.447-2.652,4.806-6.306,2.682,2.042-.707,8.122-.003,8.994.651.807,10.606,1.226,12.5,1l-1.497,2.006c-35.038-4.386-82.316-13.71-116.479-10.979-4.304.344-21.695,5.784-22.515,4.973-.544-.538,2.512-7.463,2.994-8.994,1.428,1.004-.834,5.114.006,5.995.823.862,19.772-3.703,23.512-3.976,32.239-2.351,63.551,8.113,95.481,8.971-2.896-19.564-3.12-37.74-13.999-54.989Z"/>
  <path class="cls-4" d="M938,462l1,2c.127.274-.124.722,0,1l1,1c.114.285-.107.702,0,1,.344,1.341,1.011,2.341,2,3,.073.315-.061.678,0,1,2.055,4.805,2.388,10.124,1.424,15.217-2.033,10.743-4.323,12.907-7.424,1.783-2.464-14.804-4.541-29.592-8.989-43.999,4.034,5.337,8.012,12.024,10.989,17.999Z"/>
  <path class="cls-7" d="M824.997,782.986c-.392.652-12.704,7.048-13.464,7.072-4.873.156-14.819-5.266-20.532-5.071,2.287-2.347,12.473-6.889,15.508-7.046,1.834-.095,19.592,3.21,18.488,5.045Z"/>
  <path class="cls-10" d="M378,692c-4.875-3.401,2.658-3.124,5.934-2.043,5.214,1.283,10.506,2.268,15.876,2.957l.19-.913c2.652-2.484,6.205.53,9.327.018.237-.039,1.627-3.602,3.669-1.006,1.34,1.703-.808,1.859-1.261,2.293-1.946,1.864-6.218,4.556-8.735,5.695-7.872,2.215-12.012,2.125-19-2-2.065-1.267-4.317-4.19-6-5Z"/>
  <path class="cls-6" d="M546,691c.768.651,1.652.732,2,1,2.189-.874,2.08.154,1,2-1.094,1.357-.607,1.846-3,4-19.748,19.819-12.415-24.487,0-7Z"/>
  <path class="cls-2" d="M356,862c12.866,4.301,25.568,13.206,35,22.989-22.556-6.021-45.424-12.046-69-11.989.007-.056-1.953-.717-.496-1.006,12.76-1.154,25.061,1.854,37.529,3.565,1.417.194,3.408-.865,4.314-.615,1.182.325.205,2.157,1.153,2.07,1.093-.1-.061-2.304.995-2.011.958.266,4.108,2.847,8.14,3.897,1.39.362,6.615.434,8.711,1.082.581.18.989,3.793,2.654,2.006.306-.328-2.24-3.063-2.973-3.431-.844-.425-2.617.715-2.941.415-.248-.23-.131-2.498-1.029-3.496-2.575-2.859-17.589-11.187-22.056-13.476Z"/>
  <path class="cls-1" d="M153.994,561.995c-.525.545-14.39-1.548-14.993-2.005-.146-.11,1.113-2.256,1.018-3.45-.539-6.744-5.748-12.292,3.641-7.699,2.877,1.407,12.939,10.451,10.334,13.154Z"/>
  <path class="cls-5" d="M662,223c6.255,1.049,2.621,1.496,3.106,4.354.711,4.194,1.892,8.342,1.903,12.635,12.697,1.127,25.643,2.16,38.211,4.29,7.372,1.249,21.533,3.473,28.036,5.958,2.968,1.134,3.48,4.681.743,6.271-2.785,1.617-24.452-3.672-29.637-4.37-9.581-1.29-19.273-1.962-28.863-3.185-1.869-.238-4.061,1.267-3.498-1.953,8.945.466,20.294,1.986,29.361,3.139,4.817.612,30.499,6.197,32.157,4.953,1.002-.751,1.753-1.727,1.476-3.085l-68.284-10.98c-2.199-5.836-2.908-12.023-4.711-18.026Z"/>
  <path class="cls-5" d="M414,418c-.052-.472-.075-1.935.006-1.993,1.207-.872,24.18,8.113,28.229,9.258,14.203,4.017,28.848,7.395,43.759,6.724-1.262-2.085-4.658-3.909-7.009-4.039l1.015-.95,13.994,6.989c-27.98,1.612-53.832-8.189-79.994-15.989Z"/>
  <path class="cls-5" d="M660,287c-3.734-9.196-1.916-21.451-3.02-31.48-.774-7.03-2.983-14.488-3.282-21.719l-5.699-22.801c10,19.635,11.32,53.834,12,76Z"/>
  <path class="cls-8" d="M409,208.5c-.93-6.342-5.888-11.974-10-16.489,15.58-1.476,5.498,3.395,7.007,4.985,6.567-2.116,2.394-.59,3.176,4.233.548,3.38,3.578,5.277,3.81,7.278.23,1.981-2.111,13.788-3.994,15.493-.498-4.847.685-10.829,0-15.5Z"/>
  <path class="cls-8" d="M923,480c-1.438-6.505-13.634-54.362-16.07-55.959-1.499-.983-27.262,7.556-30.93,8.959,9.66-5.999,21.212-7.989,31.987-11.009l15.013,58.009Z"/>
  <path class="cls-8" d="M586,222c-.265.32.058,1.45-1.599,2.865-2.615,2.234-10.073,4.668-10.399,5.148-.139.206,1.624,3.048,1.898,4.587,1.339,7.519,1.915,15.028.822,22.623-.955,6.641-4.986,12.979-4.723,18.776.695,1.034,1.333,2.143,1.727,3.332,1.43,4.313,3.825,11.81,4.613,16.062.109.59-.69,1.178-1.34,1.606l-7.014-18.992-3.986,4.992c5.777-14.516,11.865-25.857,9.888-42.387-.377-3.154-4.227-11.091-3.886-11.599.44-.655,12.567-3.685,13.998-7.014Z"/>
  <path class="cls-5" d="M395,122c2.402.595-1.055,1.916-1.436,2.039-2.388.77-17.927,5.236-18.569,5.999-.483.573,1.36,2.262.516,2.94-1.989-4.739-11.23,1.472-9.505,3.016,1.155,1.034,10.336-3.28,9.995,1.006-13.283.063-20.825,3.889-32.761,5.748-1.063.166-3.472,1.064-3.232-.736,18.209-6.997,36.489-13.797,54.993-20.013Z"/>
  <path class="cls-5" d="M745,204l-75-5c25.505-.219,49.861.782,75,5Z"/>
  <path class="cls-5" d="M744,351c-6.649-23.693-9.312-45.53-5-70,1.86,1.063.882,3.575.716,5.189-1.586,15.42-1.898,27.672.56,43.035,1.108,6.929,4.868,14.862,3.724,21.776Z"/>
  <path class="cls-5" d="M625,203l3.94,7.562c.974,3.022-1.019,6.854-.511,9.527.403,2.118,2.806,1.823,2.568,2.405-.336.824-2.402,1.668-2.841,3.238-.683,2.441.276,11.612-.848,15.094l-3.308,9.173c2.118-14.23,3.677-32.926,1-47Z"/>
  <path class="cls-2" d="M743,756c.861.498,1.527.498,2,0,3.954-.149,8.041-.085,12,0l-63.029,5.474-1.971-2.474c2.532-.166,6.973-1,8.5-1h21c6.288,0,14.977-1.752,21.5-2Z"/>
  <path class="cls-5" d="M669,247l2,24.5v21c0,5.292.09,11.032,0,16.5-1.81-20.61-1.333-41.472-3.996-62.006.645-.094,1.371.106,1.996.006Z"/>
  <path class="cls-6" d="M525,675c10.048,5.426,8.91,6.282,3,15-.392,1.521-1.975.95-3.302.278-5.021-2.544-1.511-11.327.302-15.278Z"/>
  <path class="cls-5" d="M693,539c.562,3.02-1.532,1.934-3.451,2.001-22.847.8-50.492-6.626-72.089-13.961-2.187-.743-11.377-7.097-11.46-2.04-1.778-2.019-5.28-4.047-6.994-6.505,5.73,1.067,12.18,4.638,18.224,6.776,26.046,9.213,48.012,13.725,75.771,13.729Z"/>
  <path class="cls-8" d="M420,159c-.132-.006-.127,1.148-2.436,1.036-3.055-.149-19.826-3.774-20.559-3.037-.405.407.181,9.407-.02,11.487-.177,1.831-2.479,9.045-1.981,9.509.266.248,5.47-.217,7.27.233,1.393.349,9.368,5.859,8.726,1.773.525,1.331,3.909,3.255,3.49,5.01-7.382-3.336-14.116-7.372-22.49-5.021,2.19-4.395,3.722-10.701,4.009-15.543.124-2.099-1.33-9.096-1.003-9.44.872-.917,21.672,3.989,24.994,3.995Z"/>
  <path class="cls-5" d="M770,531c-2.451,4.3-6.428,8.215-10.712,10.791l-49.288,2.209c.196-2.905,3.553-2.697,6.523-2.98,14.127-1.346,30.277.776,44.732-1.028,2.637-3.266,5.786-6.032,8.744-8.992Z"/>
  <path class="cls-2" d="M295,842c-.638-3.279,1.936-1.402,3.783-2.257.449-.208.144-1.645.234-1.731.998-.948.417,1.825,2.41,2.079,12.16,1.551,23.583-.591,35.542,4.44l9.03,4.469c-16.435-5.955-33.67-8.397-51-7Z"/>
  <path class="cls-8" d="M745,730c-11.274-3.36-22.874-8.909-33.953-11.555-1.003-.239-3.272-1.312-3.039.541,16.759,6.048,32.291,14.965,47.992,23.014l-69.992-31.014c-.238-1.856,2.009-.734,3.039-.543,18.512,3.441,38.482,12.538,55.952,19.557Z"/>
  <path class="cls-2" d="M382,733c7.423,3.048,14.045,2.883,21.522,4.994l1.478-1.994v-1c.128.17,1.747-.281,1.991.042.416.55-1.216,2.721-1,2.951.703.747,17.149,3.759,20.009,4.505,1.63.425,6.619.897,6,3.502-7.265-1.844-14.467-4.084-21.817-5.683-9.151-1.991-21.269-1.333-28.183-7.317Z"/>
  <path class="cls-2" d="M546,961c-.401-3.236.84-1.544,2.67-1.484,9.404.308,20.805.889,30.068.218,2.15-.156,4.797-4.658,4.261,1.266-12.298.958-24.777,1.948-37,0Z"/>
  <path class="cls-8" d="M715,667c-7.589,15.961-25.881,20.324-42.373,18.874-3.184-.28-16.681-2.758-19.179-3.804-2.646-1.108-1.254-1.723-1.449-4.07.075.012.272-1.236.981-1.011-.644,5.115,12.464,6.364,16.664,6.867,24.801,2.967,29.237-1.44,45.355-16.856Z"/>
  <path class="cls-2" d="M227,907c-1.223-7.768-2.046-19.383,0-27h1l-1,27Z"/>
  <path class="cls-2" d="M244,848l-3.284,7.75c-4.647.659,2.456,1.489.273,4.25-.424.536-2.511-2.517-2.977-1.999-1.802,2.003-.301,4.295,2.403,3.914,1.178-.166,1.778-5.524,4.585-1.915-2.854,2.259-9.644,7.155-8.505,10.995,14.11-13.095,33.482-19.082,52.505-20.995l.488.973c-18.034,1.457-34.118,8.41-49.248,17.661-1.088.666-3.987,5.591-6.234,3.361-2.752-2.732,5.03-6.22,4.505-8.972-7.788,2.92-6.711,10.74-10.511,16.978.051-.326-.058-.678,0-1,2.193-12.169,8.468-21.572,16-31Z"/>
  <path class="cls-2" d="M610,711c1.682.461-1.276,2.457-1.432,2.552-9.118,5.563-14.556,11.451-25.841,9.213-2.935-.582-8.68-5.208-10.23-5.354-6.477-.611-9.783,6.873-20.497.59,6.46,4.082,16.428-2.367,20.434-2.008,1.82.163,5.902,3.64,8.58,4.486,11.487,3.629,19.956-3.664,28.986-9.478Z"/>
  <path class="cls-5" d="M717,346l-.978,1.012c-1.109-6.247-3.04-12.327-3.889-18.644-.444-3.302-.338-20.648-1.124-21.374-.396-.366-3.368.385-4.016.001-.087-.052-.378-1.908.486-1.975.939-.072,4.148,1.784,6.51-.027l15.011,48.007c-6.849-14.395-12.433-29.118-15.011-45.001-2.735-.513-1.366-.491-1.627,1.076-.282,1.693.409,13.079.662,15.4.792,7.259,3.166,14.28,3.976,21.524Z"/>
  <path class="cls-5" d="M459,468c16.053-.116,32.258-2.628,47-8.989l-10,16.989c.847-1.476,6.547-12.44,5.994-12.994-.783-.785-18.176,4.37-21.632,4.856-3.048.429-20.588,2.437-21.362.138Z"/>
  <path class="cls-5" d="M731,280c-.463,2.535-2,11.673-2,13.5v24c0,4.238,1.565,12.38,2,17.5-4.56-15.685-4.036-34.148-1.852-50.351.033-.248.643-7.295,1.852-4.649Z"/>
  <path class="cls-2" d="M469,655l1.495,2.002c-4.139.294-18.778,1.239-21.349,3.128-.29.213-.999,5.646-2.16,6.862-5.298-5.605,2.198-2.298.499-6.008-2.724,1.66-9.217,1.019-6.479,4.007l-13.005,2.009c11.53-6.092,28.017-10.986,41-12Z"/>
  <path class="cls-8" d="M603,609c.797.196,2.725-.242,2.999.011.407.377-5.078,4.581-1.479,4.989,1.085.123,6.17-2.075,9.932-2.004,13.243.249,31.276,9.639,45.306,10.747,9.876.781,21.132-3.714,30.243,3.256-12.944-4.457-22.901-1.241-36.201-3.299-11.6-1.796-29.231-9.255-39.441-9.643-4.739-.18-14.902,6.553-11.359-4.058Z"/>
  <path class="cls-2" d="M734,745c1.398.775,4.4.482,5,2.989-3.296.221-6.717-.264-10,.011l-5,1c-9.643.726-19.355,1.294-29,2,2.976-7.027,2.432-1.987,4.456-1.883,1.774.091,8.225-.624,7.563-3.104,1.614-.452.485,1.773,1.629,2.012,2.889.603,20.111-.669,23.873-1.02,2.803-.262.215-.967,1.479-2.005Z"/>
  <path class="cls-5" d="M474,353c5.158.74,26.045.037,27.005.995,1.28,1.277-2.236,15.859.995,19.005-6.43-4.401-.721-15.599-3.009-17.994-.536-.561-12.653,1.02-15.477.971-2-.034-5.665-.72-7.997-1.011-2.257-.282-3.424.977-1.516-1.967Z"/>
  <path class="cls-8" d="M567,151c6.061-6.427,12.803-4.313,19.224.045,18.574,12.607,7.616,54.868-8.732,65.947-9.623,6.521-16.154-1.322-17.486.014-.737.739,6.182,15.845,6.735,19.754.547,3.862.542,9.324.259,13.24-2.345-4.955-.925-11.567-2.259-17.241-.766-3.26-7.97-15.708-4.727-17.759.594-.376,7.238,3.989,13.429,2.927,4.437-.761,12.522-11.914,14.377-15.607,6.948-13.835,11.628-41.432-3.48-51.16-6.114-3.937-11.037-3.28-17.339-.16Z"/>
  <path class="cls-2" d="M505,655c1.818.122,20.012,2.475,19.99,3.489-.012.546-4.775,9.173-5.593,9.381-.864.219-13.768-3.417-17.397-3.87v-1c3.515.375,16.51,3.223,17.381,3.083.371-.06,3.619-6.216,3.611-6.591-.037-1.714-16.579-.688-17.991-4.491Z"/>
  <path class="cls-2" d="M502,663l-4,1c-7.251-.501-13.57-1.086-21,0,3.545-4.408,19.848-1.55,25-1Z"/>
  <path class="cls-8" d="M857,758l-73-20c26.402,5.153,47.845,10.008,73,20Z"/>
  <path class="cls-5" d="M697,580c-2.724,3.717-10.969,1.382-15.224.724-8.646-1.336-19.996-4.02-27.776-7.724,14.13,3.168,28.411,7.503,43,7Z"/>
  <path class="cls-5" d="M602,405c-1.998-5.784-12.482-35.875-12.03-39.424.138-1.081,2.296-.861,3.03-1.576-1.265,1.677-.93,3.132-.596,5.014,1.702,9.6,6.734,21.851,9.629,31.467.397,1.317,1.867,3.622-.034,4.519Z"/>
  <path class="cls-5" d="M447,438c6.826,2.146,16.488,3.95,23.638,4.862,4.176.533,22.527.321,23.357,1.144,2.338,2.318-2.801,3.79-2.995,3.994,1.911-2.961.739-1.609-1.451-2.031-13.751-2.65-29.593-.566-42.549-7.969Z"/>
  <path class="cls-2" d="M346,751l-2.017,3.994c-1.691.456-.421-2.035-1.575-2.072-8.28-.265,6.002,11.82,6.61,4.084,1.575,2.979,7.348.706,11.228-.099,4.693-.974,6.092-1.383,11.208-1.924,1.823-.193,3.834-1.983,4.059-1.965,1.076.09,1.175,2.604,1.488,2.982.173.21,2.004-.425,2.006.485.004,1.598-2.72,2.509-2.782,2.692-.238.704.847,2.093.797,3.309-.046,1.127-1.055-.496-1.671.022-.099.083.685,1.396.615,1.43-5.844,2.789-4.524.156-4.965-3.937,2.02-1.077,4.985-1.746,6-4-7.784-2.007-25.707,6.548-31.541,5.588-2.232-.367-2.683-4.625-9.459-5.588-6.854-.974-7.995,3.062-8.485,3.001-.665-.082-2.077-1.925-2.515-2.001,6.662-3.279,13.908-4.22,21-6Z"/>
  <path class="cls-5" d="M660,297c.011,4.525.524,31.438-1.008,33.003-.254.26-5.818-1.651-6.992-2.003l6.007-.994c.098-8.235.285-16.355.145-24.419-.01-.594-.445-6.735,1.847-5.586Z"/>
  <path class="cls-5" d="M942,471c6.163,8.708,1.301,22.041-3.989,29.995.042-4.429-1.295-8.692-2.011-12.995l3.986,6.997c3.419-8.274,3.677-15.227,2.014-23.997Z"/>
  <path class="cls-2" d="M386,863c2.095,1.705,23.605,22.248,21.989,24-9.079-7.334-17.075-13.885-26.989-20,3.905-3.962,2.316-.56,5.05,1.435,1.278.933,6.88,5.476,7.95,4.554l-8-9.989Z"/>
  <path class="cls-5" d="M407,142l41,7c-1.657,0-3.349.088-5,0-.395-.463-.729-.463-1,0-11.184-.811-23.888-4.786-35-7Z"/>
  <path class="cls-2" d="M385,895c-.98,2.116-3.083.273-4.353-.139-13.307-4.315-28.87-6.402-40.481-10.093-.302-.096-4.527-3.685-4.166-4.768,16.212,5.228,33.02,9.127,49,15Z"/>
  <path class="cls-8" d="M348,742c-24.051,6.186-46.89,14.776-69,26,20.035-11.805,41.376-20.563,64.219-26.299,1.458-.366,3.766-1.633,4.781.299Z"/>
  <path class="cls-5" d="M555,54c-5.371-2.405-14.824-4.738-20.754-5.746-2.472-.42-18.462-1.905-19.24-1.249-1.331,1.123,5.593,7.089,6.282,8.261,7.119,12.12,11.362,32.804,10.712,46.733-3.654-20.263-4.384-40.794-20-56h18.5c7.148,0,18.068,4.736,24.5,8Z"/>
  <path class="cls-8" d="M616,234c-2.039,24.447-9.736,52.268-21,74,10.434-23.711,17.367-49.563,18.994-75.497l2.006,1.497Z"/>
  <path class="cls-5" d="M485,116c8.496,1.288,17.068,3.573,25.636,4.863,1.678.253,7.081-.099,7.359.143,1.976,1.722-5.387,4.569-5.994,4.994-2.266-1.34,2.147-.415.989-2.483-1.173-2.096-22.356-4.363-26.66-5.363-2.226-.517-3.163.681-1.329-2.153Z"/>
  <path class="cls-8" d="M881,769l28.986,13.515c2.16,2.144.538,1.514-1.132,1.135-3.948-.896-7.854-1.96-11.854-2.649l3.992-1.986c-7.179-2.189-13.436-6.656-19.992-10.014Z"/>
  <path class="cls-2" d="M333,801c2.26.932-1.418,6.642-1.968,7.318-3.091,3.795-25.62,6.628-32.065,8.142-2.744.645-4.684,3.921-6.967.541,8.506-2.571,31.762-5.4,37-9l1-1c1.463-1.578,2.158-4.044,3-6Z"/>
  <path class="cls-2" d="M444,749l1.977-2.996c-.191,2.936,18.425,8.199,19.497,7.997,2.668-.502-.747-5.356,2.01-3.99,2.245,1.112,1.184,4.048-.478,4.978l5.994-.989c-1.315,1.014-2.385,2.779-4.322,2.771-3.283-.012-19.691-6.425-24.678-7.771Z"/>
  <path class="cls-2" d="M400,692c1.225.125,4.169-.825,3.995.989l-4.495,4.023c.924-5.889-7.622-5.349-10.489-2.017,1.745-2.74-5.262-4.449-7.618-4.95-1.796-.382-3.721-.657-3.393,1.957-6.323-3.043-3.143,5.473-3,9l-.965,1.012c-.617-4.319-3.596-8.426-.035-12-3.732-.299-6.256-.426-6.012,3.982l-2.988-1.994c1.09-.64,1.848-2.468,4.266-3.233,6.668-2.109,22.434,2.384,30.734,3.233Z"/>
  <path class="cls-8" d="M459,328l.988-.999c2.85,19.858,27.217,12.566,41.012,9.999-13.486,5.887-38.043,10.682-42-9Z"/>
  <path class="cls-8" d="M144,785c10.504-2.714,26.489,1.935,34.645-7.353,1.375-1.565,5.071-9.522,5.1-11.319.052-3.257-7.086-7.925-4.748-10.323,1.676-1.719,35.117,9.077,41.478,10.036,2.188.33,3.47-1.044,1.525,1.959-7.224-.492-40.431-12.513-41.994-10.994-2.231,2.168,3.954,4.855,4.505,5.987,2.324,4.777-3.033,14.112-6.981,17.029-9.18,6.782-22.718,6.688-33.53,4.978Z"/>
  <path class="cls-5" d="M797,220c-.653-.053-1.341-.003-2,0-10.13-4.317-19.505-1.2-29,3,.101-.068-.429-1.434.61-2.082,3.641-2.268,14.015-4.614,18.39-4.918.157-.011,1.784,1.551,2.994.989,1.961-.912-2.769-.901-2.994-.989-6.007-2.361-11.697-3.784-17.789-5.728-2.092-.667-3.049.521-1.211-2.272,10.318,2.623,21.912,6.373,31,12Z"/>
  <path class="cls-2" d="M471,761c-5.861,2.432-24.789-2.934-31.648-4.869-2.06-.581-3.284.84-1.352-2.131,10.928,2.45,21.705,6.264,33,7Z"/>
  <path class="cls-2" d="M333,764c-2.647,9.592-4.314,19.44-7,29-1.712-4.127,1.163-10.2,1.949-14.666.261-1.482-.134-6.142.246-7.207.108-.304,1.714-.011,1.784-.137,1.383-2.492-1.506-1.707-1.975-1.999-.313-.195,3.676-4.999,4.996-4.99Z"/>
  <path class="cls-8" d="M411,167c.753-1.001.454-1.751,2.028-.529,2.338,1.816,4.832,11.296,6.417,14.584,1.224,2.538,5.423,6.166,5.582,8.528.081,1.195-4.927,20.148-5.741,23.256-.451,1.722.595,3.761-2.286,3.161,1.361-8.127,4.365-18.453,6.637-26.519-5.346-6.16-7.075-12.519-9.899-19.771-.608-1.561-.288-3.214-2.739-2.709Z"/>
  <path class="cls-5" d="M467,50c.325-.052.675.05,1,0-4.105,1.694-10.534,5.067-15,3,2.177-.672,4.122-.576,6-1l1-1c2.391-.471,4.648-.622,7-1Z"/>
  <path class="cls-5" d="M503,47c-3.779-1.262-29.156,2.096-35,3v-1c9.87-2.929,24.858-3.888,35-2Z"/>
  <path class="cls-2" d="M410,724l10.515-2.046c6.3.965,12.666.894,18.971,2.078,2.115.397,3.489-1.08,1.515,1.969-8.477-1.204-14.237-2.016-23-2-.395-.464-.729-.464-1,0h-7Z"/>
  <path class="cls-2" d="M638,950c-14.106,3.201-27.466,8.066-42,10-5.579-4.411-.088-1.789,2.319-2.057,11.147-1.24,21.749-4.668,32.474-7.641,1.773-.492,5.783-1.937,7.207-.302Z"/>
  <path class="cls-5" d="M733,346l7.989,26c-3.401-2.97-6.63-7.863-8.896-11.751-1.181-2.026-.038-2.15-.093-2.249l4.975,5.514c-1.247-5.827-2.902-11.667-3.975-17.514Z"/>
  <path class="cls-5" d="M463,356c-2.121,15.905,8.276,32.065,13,47l-.976,1.015c-3.474-12.793-17.424-35.341-13.798-48.296,1.323-4.727,1.635.108,1.775.281Z"/>
  <path class="cls-2" d="M685,897c-3.204,9.216-5.713,19.48-8,29-1.864-.964-.671-3.375-.352-4.83,1.678-7.645,4.13-15.013,6.624-22.409.224-.663.762-4.269,1.728-1.761Z"/>
  <path class="cls-8" d="M622,1003c-18.026-6.857-36.226-12.5-55-17,19.086,2.026,38.031,8.153,55,17Z"/>
  <path class="cls-8" d="M148,739c-5.359,4.409-27.274,3.988-30.471,12.029-3.793,9.54,4.252,22.224,11.471,27.971-28.383-21.724-10.283-39.094,19-40Z"/>
  <path class="cls-8" d="M294,756c.072,2.843-48.939,12.952-54.164,17.336-6.629,1.796-13.498,1.993-20.352,1.664-2.45-.117-3.269.721-1.484-2.001,19.246,1.2,20.15-2.08,36.789-6.711,13.005-3.62,26.167-6.84,39.211-10.289Z"/>
  <path class="cls-5" d="M454,112c-10.048-.213-25.574.545-35,2,11.469-2.786,23.274-1.917,35-2Z"/>
  <path class="cls-8" d="M842,773c7.142,1.239,16.788,1.071,24.484,2.033,2.256.282,3.425-.977,1.516,1.967-8.399-1.006-18.539-1.191-26-4Z"/>
  <path class="cls-2" d="M666,754c-9.486,1.007-18.618,2.632-28,4-1.774-2.745-1.002-1.707,1.33-2.153,7.974-1.524,18.925-3.494,26.67-1.847Z"/>
  <path class="cls-2" d="M669,760l1.497,2.006c-9.312-.957-19.602,3.564-28.497.994,8.914-.99,18.085-2.329,27-3Z"/>
  <path class="cls-8" d="M486,167c.034.114,1.631,1.233.996,1.99-2.836,3.379-24.487-5.252-25.995,4.998,6.074.898,9.755,1.451,13.999,6.012-5.752-3.012-11.52-4.283-17.994-4.495,8.578-13.451,16.649-5.554,28.994-8.505Z"/>
  <path class="cls-5" d="M425,350l-19,61c7.296-19.889,11.428-41.198,19-61Z"/>
  <path class="cls-1" d="M549,170.011c.844.625-4.158,6.74-8.365,3.901-8.283-5.591,7.749-4.356,8.365-3.901Z"/>
  <path class="cls-5" d="M568,403c-5.167-12.102-6.866-19.398-2-32,.068,5.968-1.529,11.155-.975,17.476.459,5.242,3.501,9.669,2.975,14.524Z"/>
  <path class="cls-2" d="M365,969c-7.345,12.834-12.598,26.124-14,41-.461.396-.461.729,0,1-.047.66.026,1.337,0,2-3.176.479-1.866-1.277-1.706-3.187,1.256-14.966,5.959-23.758,12.544-37.473.143-.299,2.292-5.415,3.162-3.339Z"/>
  <path class="cls-8" d="M274,755c-.114.122,1.973-.035-.994,1.989l8.994-.989c-5.916,1.212-11.851,4.394-18,4.989l10-5.989Z"/>
  <path class="cls-8" d="M412,478c14.755,6.79,28.535,16.406,44.996,19.008l-9.996,16.992c2.721-5.258,5.381-10.674,8.001-15.99-15.637-3.319-29.785-11.392-43.001-20.01Z"/>
  <path class="cls-2" d="M349,858c-.895,1.897-3.203.436-4.519.034-7.493-2.29-15.212-4.244-22.481-7.034,8.356.713,19.306,3.614,27,7Z"/>
  <path class="cls-5" d="M906,374l-.009,1.973-43.991,12.027c14.652-6.475,28.42-10.389,44-14Z"/>
  <path class="cls-2" d="M303,807c-.59-2.947,1.437-1.839,3.293-2.15,3.502-.587,9.057.185,7.718-3.844,3.044,4.022,6.453,2.014,9.989-.006-.441,1.074-.6,2.433-1.787,3.002-2.098,1.006-15.224,2.131-19.213,2.998Z"/>
  <path class="cls-2" d="M441,884c.637.938,2.348,4.021,2.616,4.09,1.52.391,4.218-1.252,4.373-1.089,1.547,1.618-2.162,3.266-3.965,2.486.807,3.937,4.757,9.662,2.976,13.513-2.296-5.805-4.279-12.928-6-19Z"/>
  <path class="cls-8" d="M447,245c-2.47,2.199-6.207-1.586-9.067.437-3.411,2.412,3.006,12.514-4.933,10.563,6.578-1.16.002-7.479,3.443-11.036,3.391-3.506,6.736-.78,10.557.036Z"/>
  <path class="cls-2" d="M371,975c-5.175,11.207-9.413,23.5-11.944,35.571l-1.056-.571c2.487-12.003,5.965-24.78,13-35Z"/>
  <path class="cls-5" d="M665,199c.505,4.244-8.768.937-9.997,2.008-.435.38,1.877,3.446-.003,3.992-.58-1.205-3.637-5.424-2.994-5.994.486-.431,10.905.035,12.994-.006Z"/>
  <path class="cls-5" d="M667,339l4-27c-.005.121.903.682.856,1.451-.35,5.65-.919,21.865-4.856,25.549Z"/>
  <path class="cls-8" d="M247,789c-1.937,1.616-9.82,10.848-11.389,10.961-2.081.15-22.194-7.733-25.857-9.215-2.363-.956-16.268-6-16.751-6.763-.257-.406,3.003-7.155,3.541-8.938.525-1.74.275-5.804.464-6.041.237-.297,7.978.571,6.992,2.996-.956-.071-3.792-1.879-4.959-.962-.533.419-4.468,12.421-4.044,12.95,1.326,1.653,35.125,11.701,39.698,14.817,4.9-2.813,7.472-6.341,12.305-9.805Z"/>
  <path class="cls-8" d="M478,185c-.711,2.61-10.299-2.177-11.999-.989-.709.496,5.619,10.628-5.001,13.989,9.177-2.812,2.355-15.365,3.005-15.994.592-.572,11.906,2.619,13.995,2.994Z"/>
  <path class="cls-2" d="M502,655c-8.798,2.025-18.387.711-27.425,1.085-1.728.072-2.919,2.45-2.575-1.085,9.109-.527,20.87-.48,30,0Z"/>
  <path class="cls-2" d="M482,740c-5.57,1.523-12.972-1.485-19.004-2.507-.956-.162-4.136-.161-1.996-1.493,6.949,1.488,14.091,1.73,21,4Z"/>
  <path class="cls-5" d="M581,444c6.147,8.047,17.992,4.094,27,5-1.079,2.9-13.892-.29-14.983,2.988.3-3.269-4.118-1.455-7.6-2.905-2.866-1.193-3.037-3.216-4.416-5.084Z"/>
  <path class="cls-5" d="M679,572c2.114-1.025,18.235,2.42,18.985,3.033.175.143-.01,1.38.015,1.967-6.391-1.462-12.74-3.047-19-5Z"/>
  <path class="cls-2" d="M761,757c6.609-.15,15.881,2.544,22,5l-24.995-4.011c-.271-1.659,1.905-.964,2.995-.989Z"/>
  <path class="cls-2" d="M445,732c-.737,2.41-1.916,1.413-3.591,1.205-3.436-.426-12.499-.269-13.409-4.205,5.62,1.186,11.402,1.837,17,3Z"/>
  <path class="cls-8" d="M526,162c-6.439-6.323-2.963-7.683-5.913-12.337-.205-.324-4.456-3.162-6.087-4.663,10.53,2.142,6.816,10.172,12,17Z"/>
  <path class="cls-8" d="M214,587c3.537,1.527,6.299,4.914,9.999,6.501,10.209,4.377,19.257,1.784,28.001,9.499-2.907-.96-4.89-2.618-7.984-3.516-6.432-1.867-14.862-3.435-21.016-3.484-.876,2.729-3.657,2.008-5,0,.662-1.035,3.039-2.305,2.996-2.495-.108-.465-5.547-4.936-6.996-6.505Z"/>
  <path class="cls-2" d="M630,979c1.951-2.395,5.929.886,7.574.943.886.031-.286-2.404,1.409-1.937l1.078,2.412,6.938,3.582c-5.73-1.522-11.379-3.139-17-5Z"/>
  <path class="cls-2" d="M408,681c3.189,2.555,10.748-1.169,10,3-4.687-.302-9.29.101-14-.011.389-1.943,2.847-2.103,4-2.989Z"/>
  <path class="cls-5" d="M706,589c-5.23,1.161-17.176-.338-23-1,6.755-2.06,15.971.057,23,1Z"/>
  <path class="cls-8" d="M816,764c6.763,2.537,11.8,2.927,18.507,4.988,1.572.483,7.006,1.577,6.493,4.012-3.935-.712-15.709-4.162-19.981-5.514-1.878-.594-4.07-1.633-5.019-3.486Z"/>
  <path class="cls-8" d="M790,632l-27,14c8.876-4.726,18.377-9.362,27-14Z"/>
  <path class="cls-8" d="M320,679l-2.505-13.993-6.495-9.007c7.685,7.748,10.969,10.403,9,23Z"/>
  <path class="cls-8" d="M565,338c-1.028.293-1.439,1.094-3.423,1.111-1.135.01-9.855-2.713-8.568.374.497,1.193,6.314,8.066,7.811,9.428,1.254,1.141,4.312,4.71,6.18,3.087-.234.281-.418,2.955-1.5,2.978-1.403.03-14.389-15.561-15.493-18.485l14.993,1.507Z"/>
  <path class="cls-2" d="M466,731l8.005.499,6.995,3.501c-4.12-1.506-10.498-2.813-15-4Z"/>
  <path class="cls-8" d="M777,737c-4.762,2.447-11.408-.036-16.49-1.027-2.099-.409-3.49,1.082-1.51-1.973,6.087,1.383,11.987,1.845,18,3Z"/>
  <path class="cls-2" d="M671,984c.062.984,1.198,4.78.994,4.994-.556.583-13.839-1.583-15.994-1.994,4.593-3.35,13.074,4.164,15-3Z"/>
  <path class="cls-8" d="M548,984c-7.814-.115-16.432.928-24-1,7.776,0,16.458-.843,24,1Z"/>
  <path class="cls-8" d="M187,574c-4.032,2-12.669,1.401-16-2,5.109.718,11.162,1.02,16,2Z"/>
  <path class="cls-8" d="M856,470c-.437-3.154,1.098-1.859,3.013-1.518,2.797.499,7.948.276,3.939,3.971-2.381,2.194-24.276,9.453-29.953,12.547.745-3.901,32.063-13.536,30-14.989-.32-.225-5.657-.034-7-.011Z"/>
  <path class="cls-2" d="M635,959l.997.986c-4.391.335-9.537,5.258-13.997,3.014,4.326-1.332,8.453-3.415,13-4Z"/>
  <path class="cls-2" d="M694,751c-4.841.344-9.009,1.169-14,1-1.168-.04-4.197.762-3.994-.989,5.945,1.165,12.549-2.9,17.994-.011Z"/>
  <path class="cls-2" d="M324,757c.486,2.301-1.133,2.161-2.605,2.843-6.639,3.077-13.421,5.892-20.087,8.967-1.278.589-3.268,2.302-4.308.189,4.148-2.028,24.217-11.788,27-12Z"/>
  <path class="cls-2" d="M671,963c-.056.659.051,1.34,0,2l-1,2c-.251,3.29.162,6.696,0,10-.054,1.107.691,3.259-.989,2.994l-.017-18.491,2.005,1.497Z"/>
  <path class="cls-8" d="M566,986c-5.409-.501-11.811-.099-17-2,5.585.101,12.054-.994,17,2Z"/>
  <path class="cls-8" d="M424,252c.425,6.964,4.085,13.728,7,20-4.861-5.165-6.58-13.302-9.975-19.532-.663-2.398,2.087-.784,2.975-.468Z"/>
  <path class="cls-2" d="M656,708c-.646,1.721-3.182.206-4.251-.238-4.889-2.032-8.611-3.63-13.759-5.28-.877-.281-7.554-.554-6.99-3.482,6.783.541,18.298,6.312,25,9Z"/>
  <path class="cls-2" d="M231,922c-1.385-3.828-2.219-8.929-3-13l3.554,7.966-.554,5.034Z"/>
  <path class="cls-8" d="M112,681c2.899,2.211,3.805,3.754,6.009,7.491,5.074,8.605,6.103,17.883,11.991,25.509-7.566-5.231-6.988-12.924-10.624-20.876-1.941-4.245-5.361-7.961-7.376-12.124Z"/>
  <path class="cls-2" d="M623,766c-4.208,1.497-10.9,3.334-15,1,5.044-.561,10.351-.447,15-1Z"/>
  <path class="cls-8" d="M616,231c-1.674-5.726-1.681-14.191,0-20,.667,2.132.203,16.612,0,20Z"/>
  <path class="cls-8" d="M651,678l-26,8c5.839-3.89,19.556-8.154,26-8Z"/>
  <path class="cls-8" d="M763,746c4.382-2.748,10.25,1.422,15.013,1.021l-1.013.979c-4.258-.498-10.015-.755-14-2Z"/>
  <path class="cls-2" d="M312,849c-5.726,1.674-14.191,1.681-20,0,5.993-.44,13.935-.292,20,0Z"/>
  <path class="cls-5" d="M510,346c2.171,2.382.235,13.166,1.006,13.994,1.131,1.214,4.158-3.103,4.994-.994-.899.474-5.79,3.269-5.989,3-.485-.656-.48-15.308-.011-16Z"/>
  <path class="cls-2" d="M403,699c-9.137,4.136-10.997,2.91-19-2,2.564-1.056,4.535,2.521,7.579,2.968,4.705.69,7.592-2.693,11.421-.968Z"/>
  <path class="cls-8" d="M610,670l-18.981,21.505c1.062,1.458,3.709,1.999,4.532,3.503,1.342,2.451-.407,3.109-.551,3.992-.121-1.656.925-3.383-1.203-4.326-2-.886-6.074.424-5.787-2.159,7.556-5.721,14.237-17.722,21.99-22.515Z"/>
  <path class="cls-8" d="M545,684c6.999,3.821,3.185,7.504,10,1-1.139,3.482-3.766,6.227-6,9,.111-1.028-.239-1.414-1-2,.686-3.576-.817-5.499-3-8Z"/>
  <path class="cls-2" d="M479,882c1.983,1.057.7,3.243.215,4.702-1.763,5.305-14.419,29.042-14.25,30.73.042.417,5.527,3.46,7.036,4.568-14.847-3.964-6.427-7.671-2.143-16.643,3.374-7.066,7.107-15.83,9.143-23.357Z"/>
  <path class="cls-8" d="M567,251c-.734,7.206-4.015,17.486-9,23,.126-.255-2.212-1.5,1.313-3.235l7.687-19.765Z"/>
  <path class="cls-5" d="M408,98c2.365-7.18,4.116-13.352,8-20l-4.522,13.974-3.478,6.026Z"/>
  <path class="cls-5" d="M569,405c2.701,6.216,6.341,13.418,9,19-4.514-4.997-7.481-12.522-9-19Z"/>
  <path class="cls-5" d="M39,700c-.516-5.763.372-12.152,0-18,1.536,5.059,1.793,12.788,0,18Z"/>
  <path class="cls-8" d="M585,697c-9.917,11.474-5.379,16.777,9,13-7.681,3.648-17.206,4.867-14.504-7.037.276-1.214,3.825-6.208,4.543-6.483.884-.338.91.538.961.519Z"/>
  <path class="cls-8" d="M415,230l2.81,7.701,3.19,4.299c-5.673-4.034-6.193-4.178-6-12Z"/>
  <path class="cls-8" d="M453,313l-10-20c4.283,7.61,6.616,11.721,10,20Z"/>
  <path class="cls-8" d="M525,675c-.652,5.888-6.129,15.009,3,15-.306.452.57,2.087-.489,1.99-8.835-.809-6.662-12.156-2.511-16.99Z"/>
  <path class="cls-2" d="M613,973c3.005-2.307,7.592,1.971,10.997,2.014l-.997.986c-3.111-1.089-6.557-1.714-10-3Z"/>
  <path class="cls-2" d="M434,926c-3.026,1.136-8.407,5.429-12,3,3.82-1.331,7.891-2.785,12-3Z"/>
  <path class="cls-2" d="M390,746c2.939.089,5.062.839,7,1l-13.994-.011c.511-1.819,5.419-1.037,6.994-.989Z"/>
  <path class="cls-8" d="M822,472c2.027.355,3.823,6.018,4.57,6.062,1.659.097,9.674-5.263,12.644-6.348,3.627-1.325,9.065-2.412,12.945-3.063,1.883-.316,3.242-1.893,2.841,1.35-3.503.175-7.628.601-10.991,1.509-3.527.952-18.182,9.148-18.997,8.492-.333-.268-2.473-6.753-3.012-8Z"/>
  <path class="cls-2" d="M604,763l-16,4c3.765-2.739,11.479-3.194,16-4Z"/>
  <path class="cls-8" d="M689,616c-3.034,3.397,3.559,4.425,7,7l-11.997-4.014c.501-2.505,3.881-2.246,4.997-2.986Z"/>
  <path class="cls-8" d="M555,308c2.004.623-.008,2.987-.486,4.014-.842,1.81-4.65,9.329-4.546,10.444.022.237,3.175,1.99,4.033,2.542-1.51.217-5.715-1.107-5.877-2.481-.094-.798,5.865-12.262,6.877-14.519Z"/>
  <path class="cls-2" d="M435,871c.057.093,1.462-.276,1.759.198.736,1.175,4.073,8.779,2.241,9.802-1.42-2.551-2.808-7.129-4-10Z"/>
  <path class="cls-8" d="M254,605c7.169,5.101,13.764,12.601,20,19-7.336-6.457-13.014-12.318-20-19Z"/>
  <path class="cls-8" d="M546,691c-1.898-1.609-3.539-5.241-6.985-3.552-6.506,3.189-8.369,24.373,6.985,10.552-3.968,9.923-16.82,6.649-12.166-4.672,2.957-7.192,8.413-12.438,12.166-2.328Z"/>
  <path class="cls-2" d="M406,904l-5.511-.995-6.489-4.005c4.038,1.716,8.054,2.951,12,5Z"/>
  <path class="cls-8" d="M929,533c-1.682-2.485-1.706-8.406,0-11,.006,3.268.479,8.047,0,11Z"/>
  <path class="cls-5" d="M130,567c1.29-6.885,2.03-13.81-2-20,4.922,6.15,5.568,12.672,2,20Z"/>
  <path class="cls-8" d="M566,684c-.575,1.145-3.313,5.441-2.993,5.98.452.76,4.498.108,4.993,6.02-3.866-7.561-11.845-2.469-2-12Z"/>
  <path class="cls-8" d="M286,597c-3.6,4.549-7.303,8.603-11,13-.213-.423-1.436-.081-.561-1.958,1.214-2.604,9.378-8.003,11.561-11.042Z"/>
  <path class="cls-5" d="M729,551c-4.383,2.032-17.426-2.161-19-6,6.11,3.836,12.114,4.773,19,6Z"/>
  <path class="cls-8" d="M637,653c-6.316,2.691-12.669,5.343-19,8l16.805-8.852c1.454-.326,2.078.858,2.195.852Z"/>
  <path class="cls-2" d="M662,822c-4.346,3.085-8.567,6.715-12.845,9.888l-7.155,3.112c6.521-4.466,12.75-9.663,20-13Z"/>
  <path class="cls-2" d="M501,937l5.191,1.092,14.809,9.908c-6.612-3.729-13.381-7.266-20-11Z"/>
  <path class="cls-2" d="M350,770l-9,7c.316-.614-.373-2.023.984-3.479,1.223-1.312,6.034-2.916,8.016-3.521Z"/>
  <path class="cls-2" d="M317,850c1.221.238,3.207-.6,4,1-4.71-.277-12.849-.146-4-1Z"/>
  <path class="cls-8" d="M764,558c-5.342,6.086-9.374,10.467-16,16l16-16Z"/>
  <path class="cls-8" d="M903,556c-3.382,3.919-7.211,7.482-11,11,2.096-4.744,7.14-8.049,11-11Z"/>
  <path class="cls-2" d="M423,913c-.59,2.145-2.833-.235-3.73-.771-3.373-2.018-6.874-4.339-10.27-6.229,5.08,1.411,9.503,4.418,14,7Z"/>
  <path class="cls-8" d="M90,664c-3.735-4.562-6.452-10.38-8-16,2.343,4.922,5.388,11.332,8,16Z"/>
  <path class="cls-8" d="M306,727c-5.057,6.598-8.541,9.682-15,15l15-15Z"/>
  <path class="cls-8" d="M322,639c-1.263.963-6.953,7.963-7.5,7.979-.731.022-1.983-2.635-2.5-2.979,3.523,2.156,6.67-2.616,10-5Z"/>
  <path class="cls-5" d="M660,290c.022.999-.013,2.001,0,3-2.499-1.061-3.225-3.514,0-3Z"/>
  <path class="cls-10" d="M729,748c-.74.062-2.892.841-5,1l5-1Z"/>
  <path class="cls-8" d="M580,629l-15,8c5.137-3.634,9.6-5.234,15-8Z"/>
  <path class="cls-5" d="M733,345c-2.065-2.549-1.757-5.994-2-9,1.834,2.457,1.517,6.152,2,9Z"/>
  <path class="cls-5" d="M942,470c-2.671.47-2.047-.637-2-3,.061.17,1.381.345,2,3Z"/>
  <path class="cls-8" d="M444,186c4.103-.718,5.036,7.271,9,10-.237-.189-1.39.014-2.423-1.028-1.903-1.919-4.252-7.703-4.637-7.955-.501-.327-9.715,2.151-11.934.971l9.994-1.989Z"/>
  <path class="cls-8" d="M601,669l-14,14c4.617-5.453,8.497-10.09,14-14Z"/>
  <path class="cls-8" d="M567,624c-4.884,3.396-10.38,6.314-15,10,3.462-4.543,9.521-8.267,15-10Z"/>
  <path class="cls-2" d="M609,763c-1.216.217-2.783-.216-4,0,.333-1.484,3.579-1.543,4,0Z"/>
  <path class="cls-5" d="M653,573c-3.772-.83-7.98-1.237-11-4,3.53,1.365,7.846,1.655,11,4Z"/>
  <path class="cls-8" d="M624,687c-.865.615-1.768.828-2,1l1.503-1.978.497.978Z"/>
  <path class="cls-8" d="M640,656l-1-3c.069.013.549-1.415.979-1.008.94.891.982,3.124.021,4.008Z"/>
  <path class="cls-8" d="M929,520l-.994-.511.994-1.489c.028.665-.017,1.334,0,2Z"/>
  <path class="cls-5" d="M446,438l-2-1c.842.314,1.627.875,2,1Z"/>
  <path class="cls-10" d="M745,756l-.511.994-1.489-.994c.665-.025,1.335.025,2,0Z"/>
  <path class="cls-5" d="M641,569l-2-1c.732.325,1.472.784,2,1Z"/>
  <path class="cls-10" d="M670,967l1-2c-.13,1.668-.991,1.889-1,2Z"/>
  <path class="cls-4" d="M443,149c-.332-.018-.669.024-1,0l.5-.978.5.978Z"/>
  <path class="cls-5" d="M765,224c-.222.157-.786-.159-1,0l.492-.981.508.981Z"/>
  <path class="cls-5" d="M939,464l-1.979-1.504.979-.496c.332.666.687,1.325,1,2Z"/>
  <path class="cls-5" d="M732,357c-.14-.257.142-.746,0-1l.978.5-.978.5Z"/>
  <path class="cls-5" d="M731,356c-.124-.238-.752-.505-1-1l1,1Z"/>
  <path class="cls-8" d="M587,221c.556-.84.979-1.626,2-2-.52.909-.924,1.65-2,2Z"/>
  <path class="cls-10" d="M418,724c-.333,0-.667,0-1,0l.5-.978.5.978Z"/>
  <path class="cls-5" d="M940,466l-1-1c.042.094.731.327,1,1Z"/>
  <path class="cls-5" d="M667,199c.333-.005.667.004,1,0l-.5.978-.5-.978Z"/>
  <path class="cls-10" d="M329,808c.296-.203.714-.692,1-1l-1,1Z"/>
  <path class="cls-5" d="M671,311c.01-.333-.007-.667,0-1l.978.5-.978.5Z"/>
  <path class="cls-4" d="M459,52c.186-.042.577-.917,1-1l-1,1Z"/>
  <path class="cls-10" d="M351,1011l-.978-.5.978-.5c-.031.33.024.668,0,1Z"/>
  <path class="cls-3" d="M610,906c15.724-8.148,30.814-17.005,45.312-27.188,3.03-2.129,22.086-18.292,23.683-16.806,2.552,2.376-23.355,26.243-25.983,28.505-17.412,14.988-36.797,26.654-58.011,35.489-7.366,2.917-55.706,18.012-58.353,12.784-.935-1.847,7.363-7.226,8.353-4.784l1-1c3.071-1.782,5.912-2.984,10-3,.36-.162.663-.847,1-1,9.209-4.054,18.542-7.721,28-11,2.701-1.213,5.33-2.744,8-4,5.46-3.189,11.127-5.856,17-8Z"/>
  <path class="cls-2" d="M595,926c-13.914,5.794-34.538,12.491-49.513,13.986-10.517,1.05-14.076-.671-3.699-6.644.97-.558,1.283-2.131,1.412-2.171,1.21-.378,4.628,1.498,6.792-.186l-1.985-1.976,7.994.99c-3.45,1.554-6.471,2.041-10,3l-1,1c-1.364.54-9.982,1.95-7.003,4.994,2.887,2.95,49.972-11.087,57.003-12.994Z"/>
  <path class="cls-2" d="M610,906c-5.591,2.897-11.318,5.327-17,8l12.98-7.52,4.02-.48Z"/>
  <path class="cls-2" d="M585,918c-9.03,4.054-18.34,8.63-28,11,5.199-2.371,12.527-5.192,16.18-8.736l11.82-2.264Z"/>
  <path class="cls-3" d="M714,389c6.761,10.496,10.917,23.94,7,36-.081.642.109,1.382,0,2-.547,2.832-1.547,5.165-3,7-4.311,6.357-9.624,11.677-16,16-14.136,8.107-34.981,4.785-47-6-55.901-40.695,13.187-123.25,59-55Z"/>
  <path class="cls-5" d="M702,450l1.012.942c-15.919,7.444-31.6,4.591-46.261-3.979-.149-.087-3.711-2.827-1.751-2.963,13.903,10.121,31.025,12.722,47,6Z"/>
  <path class="cls-5" d="M721,425c1.761-14.008-.307-23.578-7-36,7.488,11.155,10.015,17.512,9.061,31.558-.126,1.858.217,3.733-2.061,4.442Z"/>
  <path class="cls-5" d="M721,427c-.49,2.781-1.137,5.338-2.072,7.987l-.928-.987,3-7Z"/>
  <path class="cls-5" d="M707.994,544.011c.748.5-.917,1.694-1.989.977-.748-.5.917-1.694,1.989-.977Z"/>
  <path class="cls-5" d="M630.994,237.011c.748.5-.917,1.694-1.989.977-.748-.5.917-1.694,1.989-.977Z"/>
  <polygon class="cls-5" points="763.5 221 764 221.5 763.5 222 763.5 221"/>
  <path class="cls-3" d="M896,532l-8,8c-9.141,7.515-21.471,16.131-31.982,21.518-4.777,2.449-21.15,9.955-25.589,10.423-1.914.202-2.006-.701-.949-1.96,2.282-2.717,20.476-11.403,25.432-14.569,21.619-13.81,44.206-30.764,52.101-56.41,6.754,9.694-4.888,24.959-11.014,32.997Z"/>
  <path class="cls-3" d="M753,645c-7.619,5.911-15.619,9.577-24,11-1.064-1.037-.855-2.253.442-3.014l35.556-20.488,6.513-1.499c-6.121,4.568-12.2,9.752-18.511,14.001Z"/>
  <path class="cls-3" d="M653,626c3.122,1.024,6.768,2.981,9.991,4.015.44,1.769-1.731.676-1.991.985l-1.564.547c-10.716-2.944-21.528-5.46-32.436-7.547-.331-.022-.667.011-1,0-2.013,3.573-6.082.04-3.983-2.44,4.037-4.769,25.395,2.224,30.983,4.44Z"/>
  <path class="cls-3" d="M661,640c1.963,1.136,4.914,2.943,5.999,4.989-3.375-.398-6.709-2.408-9.999-2.989-5.392-.248-10.726-.581-16-1-.167-.594-1.064-1.762-1-2,5.693-3.692,12.693-3.359,21,1Z"/>
  <path class="cls-8" d="M661,640c-6.755-.813-14.579-6.031-21-1,1.868-6.892,16.461-1.626,21,1Z"/>
  <path class="cls-8" d="M661,631c-.066.078,1.215,1.306.53,1.976l-34.53-8.976c12.565.82,21.94,4.535,34,7Z"/>
  <path class="cls-8" d="M653,626c-6.13-2.011-23.87-6.744-29.334-4.835-1.029.36-1.841,1.128-1.661,2.318.402,2.647,3.632.504,3.994.517-.723,5.106-7.341.89-4.072-3.34,3.592-4.648,26.087,2.51,31.072,5.34Z"/>
  <path class="cls-8" d="M657,642l-16.496.005c-1.448-.271.512-.951.496-1.005,5.616-.34,10.474.025,16,1Z"/>
  <path class="cls-8" d="M753,645c-3.631,2.444-20.071,14.83-24,11,8.928-.822,15.966-7.731,24-11Z"/>
  <path class="cls-8" d="M896,532c-3.454,4.532-4.196,4.873-8,8l8-8Z"/>
  <path class="cls-3" d="M130,751l9.411-3.353c4.747-1.307,10.651-1.238,11.799,4.451-.636,5.531,3.294,6.499,11.791,2.902,11.304-1.987,1.569,8.317-2.498,11.003-9.671,6.387-28.382.86-21.503-12.992-21.108,4.646-9.589,19.28,4.447,23.041,8.251,2.211,16.956-3.748,17.543-3.052.717.85-4.21,6.376-4.989,7-6.195,3.706-12.834,1.58-19-1-12.414-6.697-22.932-17.407-7-28Z"/>
  <path class="cls-3" d="M223,596c.035,2.365.264,4.723-.46,7.04-1.573,5.034-8.796,7.122.46,7.96,4.911-1.361,10.154-.291,15,1,5.774,3.298,9.166,11.235,9.887,17.612.474,4.198,1.115,15.86-5.887,10.388-1.163-6.708-3.163-13.041-6-19-5.853-5.117-7.726-1.482-12.361-1.959-.682-.07-.19-1.811-2.069-2.118-3.321-.543-9.238.289-13.569.077-4.755-.437-9.568-1.072-14-3-6.251-3.472-6.035-4.295-6-11,3.841,1.288,7.841,3.288,12,6,9.923.963,13.576-6.087,18-13,1.762-.995,3.488-.012,5,0Z"/>
  <path class="cls-3" d="M158,633c-7.394,8.077-12.38,17.089-14.957,27.036l-1.043.464c1.898,3.175,1.141,10.518,0,14.5-1.281,2.54-3.589-1.261-4.552-3.13-5.799-11.264-1.725-26.675,4.552-36.87,6.945-13.708,33.192-32.76,16-2Z"/>
  <path class="cls-3" d="M256,674c-6.295,18.828-9.708,22.787-10.24,11.877,1.58-10.47,6.67-20.036,12.24-28.877,1.726-2.379,9.929-12.787,12.029-13.423,2.587-.784,8.772-.684,7.963,2.894-.219.966-11.496,10.867-13.959,14.061-3.88,5.03-5.677,7.732-8.032,13.468Z"/>
  <path class="cls-3" d="M177,655l6-11c1.545-.894,3.802.42,4.024,2.487.769,7.163-9.361,20.89-14.996,25.041-1.779,1.31-8.167,5.483-7.904,1.129.066-1.092,10.84-14.598,12.876-17.657Z"/>
  <path class="cls-3" d="M266.005,681.994c-1.083-1.009,11.217-20.481,13.149-22.339,4.053-3.897,10.365-5.522,6.276,1.278-.814,1.353-14.487,18.752-15.418,19.58-.964.857-3.007,2.413-4.008,1.481Z"/>
  <path class="cls-3" d="M228,659c-3.951,5.687-12.397,1.474-16-3-.898-2.21-1.922-9.802.986-10.992,1.845,7.362,7.686,12.447,15.014,13.992Z"/>
  <path class="cls-3" d="M234.994,636.006c.574.542-3.772,13.568-4.325,15.188-.339.993-.368,3.678-2.152,2.795-4.719-2.333,1.352-22.827,6.478-17.983Z"/>
  <path class="cls-8" d="M158,633c-5.41,9.68-12.402,15.649-13.987,27.508-.344,2.575,1.116,23.766-5.897,13.869-8.508-12.007-2.37-28.468,3-40.326l.884.948c-5.051,11.274-9.426,22.764-4.483,34.984.788,1.949,1.865,5.334,4.483,5.016v-14.5c0-8.044,10.214-21.916,16-27.5Z"/>
  <path class="cls-8" d="M130,751c4.898-3.257,18.272-8.537,21.482-.986.825,1.941.306,5.774.513,5.992.733.775,9.092-.653,11.005-1.007-1.18.207-4.136,2.459-6.632,2.655-8.236.647-4.381-3.725-6.453-6.989-3.965-6.244-14.324-.59-19.915.334Z"/>
  <path class="cls-8" d="M156,780c-6.769,5.419-12.342,2.592-19-1,6.19,1.526,12.696,3.222,19,1Z"/>
  <path class="cls-8" d="M208,617c-6.503-.318-7.302.72-14-3l14,3Z"/>
  <path class="cls-8" d="M238,612c-4.945-.625-10.065-.553-15-1,2.698-3.24,11.988-.72,15,1Z"/>
  <path class="cls-8" d="M228,659c2.194,4.122-12.522,5.557-16-3,5.763,3.113,8.914,7.947,16,3Z"/>
  <path class="cls-8" d="M242,640c-2.275-1.778-3.721-15.548-6-19,4.409,3.855,5.181,13.341,6,19Z"/>
  <path class="cls-8" d="M256,674c-1.259,3.067-5.199,17.835-7.146,18.908-2.602,1.434-3.969-1.833-3.851-4.316.533-11.22,6.627-22.813,12.997-31.592-4.601,8.17-12.357,23.179-11.911,32.625.043.904.752,2.35,1.411,2.352,3.053.011,5.329-15.7,8.5-17.977Z"/>
  <path class="cls-8" d="M188,603c0-.056-1.961-.696-.495-1.005l2.79.035,9.704,6.97c-4.513-.438-8.095-4.361-12-6Z"/>
  <path class="cls-8" d="M177,655l6-11c-.549.318-4.38,8.566-6,11Z"/>
  <path class="cls-3" d="M799,314c.663.004,1.334-.012,1.993-.003,2.149,29.248-4.709,62.229-25.499,83.997-.026-12.869,7.576-25.722,11.505-37.994,3.792-14.452,7.331-28.969,10.242-43.625l1.758-2.375Z"/>
  <path class="cls-5" d="M787,360l9.04-44.951c.981.123,2.444-1.053,2.96-1.049-2.573,15.736-7.16,30.883-12,46Z"/>
  <path class="cls-3" d="M479,260c4.069,1.081,7.403,3.747,10,8,9.297,14.7,9.59,25.833-5,37-6.426,4.187-15.49,6.604-22,2-4.86-6.79-7.037-10.63-11-18-1.913-2.938-3.58-6.271-5-10-3.471-4.908-1.937-2.412-6-5-5.019-3.764-6.048-7.741-1-12,11.32-8.926,27.48-8.267,40-2Z"/>
  <path class="cls-3" d="M589,175c-.358-.037-.801.099-1,0-1.585-1.597-2.833-3.767-3.745-6.512-5.367-14.034-21.299-.153-7.255,5.512,4.068,5.371,5.744,11.232,5,18-1.395,11.291-22.606,19.799-17,3,3.268-4.707,6.462-6.87,2.306-13.724-2.162-3.566-5.836-1.49-8.306-2.276,3.381-12.62,10.63-32.651,27.039-21.275,4.299,2.98,6.546,14.041,2.961,17.275Z"/>
  <path class="cls-3" d="M470,323c-6.278,2.59-14.599-4.587-12-11,1.949-.694,2.328,1.818,4,3,4.065,2.119,8.477,2.896,13,3,7.746-.824,16.459-6.11,21.505-11.994-.166,13.92-14.49,17.927-26.505,16.994Z"/>
  <path class="cls-3" d="M451,220c5.443,3.626,11.838,13.624,6,19-4.197.615-3.966-9.031-7.468-12.032-2.832-2.427-8.76-2.347-9.532-2.978-3.725-3.048,8.963-4.352,11-3.99Z"/>
  <path class="cls-3" d="M505,274c-1.888-4.866-4.252-10.054-5.505-14.995,5.95,8.615,15.307,21.742,15.511,32.507.045,2.35-.922,1.452-2.006.488-3.13-5.775-5.797-11.775-8-18Z"/>
  <path class="cls-3" d="M470,204c4.372,2.526-14.237,4.988-15,0,5.03-.57,10.03-.57,15,0Z"/>
  <path class="cls-8" d="M457,239c4.788-7.279-1.51-13.375-6-19,6.998,1.243,12.62,18.03,6,19Z"/>
  <path class="cls-8" d="M588,175c-.31-.155-1.423.348-1.845-.121-1.507-1.675-4.887-17.557-12.211-10.43-5.922,5.761.858,6.65,3.056,9.552-6.169-1.776-8.812-5.157-4.032-10.527,6.145-6.904,13.902,6.05,15.032,11.527Z"/>
  <path class="cls-8" d="M559,179c-1.738-.554-.91-.969-.494-1.989,4.447-10.901,8.628-27.465,24.225-22.242,3.817,1.278,7.728,6.758,8.289,10.711.191,1.346.247,10.067-.027,10.515-.52.851-1.882-.984-1.993-.995,5.679-14.778-10.982-28.187-21.824-14.324-4.623,5.911-4.239,12.352-8.176,18.324Z"/>
  <path class="cls-8" d="M470,204c-1.454-.84-12.195.607-15,0l9.518-1.021,5.482,1.021Z"/>
  <path class="cls-8" d="M475,318c-6.552.697-8.056.496-13-3l13,3Z"/>
  <path class="cls-8" d="M582,192c-1.533,13.95-20.961,17.918-19.02,5.514.342-2.187,1.67-2.01,2.02-2.514-3.603,17.231,14.095,6.389,17-3Z"/>
  <path class="cls-8" d="M470,323c-5.233,6.251-18.309-8.752-12-11,.922,8.917,3.712,10.356,12,11Z"/>
  <path class="cls-8" d="M440,274c-6.157-3.923-7.535-6.847-1-12-4.297,4.575-2.747,7.735,1,12Z"/>
  <path class="cls-8" d="M513,292c-3.21-2.853-6.315-13.658-8-18l8,18Z"/>
  <path class="cls-8" d="M484,305c-7.781,5.955-13.685,6.146-23.015,2.969.117-.448,1.056-.912,1.015-.969,8.133,3.739,14.424,1.456,22-2Z"/>
  <path class="cls-8" d="M489,268c-3.067-3.33-5.88-5.938-10-8,.94-2.144,4.741,1.369,5.467,2.031,2.49,2.271,2.878,3.353,4.533,5.969Z"/>
  <path class="cls-8" d="M451,289l-.986.997-4.014-10.997c2.639,3.732,3.149,6.559,5,10Z"/>
  <path class="cls-3" d="M405,511c1.366,2.096,4.449,17.025,2.38,17.9-.402.17-.88.161-1.38.1-.332-.112-.825.142-1,0-2.97-10.744-6.97-21.078-12-31-2.071-4.51-5.061-7.394-5.994-11.995,8.069.024,16.622,24.232,17.994,24.995Z"/>
  <path class="cls-8" d="M405,529c-.576-.468-1.56-.626-1.797-1.656-2.572-10.08-5.868-19.903-10.203-29.344,7.003,8.534,9.162,20.653,12,31Z"/>
  <path class="cls-3" d="M418.995,516.994c-1.965,1.735-10.153-6.96-8.989-7.988,1.965-1.735,10.153,6.96,8.989,7.988Z"/>
  <path class="cls-8" d="M405,511c.062.034.57-.862.979-1.013-.264,4.138,5.326,17.236,2.011,20.01-.764.639-1.831-.943-1.99-.997,2.932-5.711-.28-12.264-1-18Z"/>
  <path class="cls-3" d="M410,507.989c-2.087.29-2.278.099-1.988-1.988l1.988,1.988Z"/>
  <path class="cls-3" d="M385.994,484.006c.076.069.381,2.11-.489,1.989-2.662-1.509-.783-3.134.489-1.989Z"/>
  <path class="cls-3" d="M70,680c.786-7.302,2.636-14.539,2.006-21.994,3.339-3.955,6.072,17.969,6.073,19.494.001,3.204-3.669,25.666-8.079,16.5-.739-4.618-.739-9.285,0-14Z"/>
  <path class="cls-3" d="M99,703c1.317.518,1.272-.975,2.052,1.481,1.196,3.769,7.14,31.295,5.943,32.515-4.865,4.958-6.892-14.357-6.994-15.996-1.51-.615-1.528-1.43,0-2l-1-2c-1.094-4.348-.876-9.597,0-14Z"/>
  <path class="cls-5" d="M99,703c.26,4.619-.367,9.399,0,14l1,2c.064.655-.041,1.34,0,2-3.018.562-1.937-1.531-2.001-3.451-.143-4.298-.391-9.899-.001-14.069.278-2.972.403-.716,1.002-.48Z"/>
  <path class="cls-5" d="M70,694c-2.447-5.086-.491-9.443,0-14v14Z"/>
  <path class="cls-3" d="M575,279c1.657,3.425,11.286,30.042,7.996,30.735-2.554.538-3.707-2.541-2.996-4.735-.93-2.406-2.251-5.67-3-8-1.684-5.24-4.763-15.775-5-21,1.201.77,2.176,1.857,3,3Z"/>
  <path class="cls-8" d="M575,279c2.835,3.933,11.512,28.531,8.995,30.999-2.094,2.054-6.523-2.092-3.995-4.999.665,1.721.087,4.663,2.995,3.994-.635-10.541-5.528-19.922-7.995-29.994Z"/>
  <path class="cls-10" d="M376.994,689.011c.748.5-.917,1.694-1.989.977-.748-.5.917-1.694,1.989-.977Z"/>
  <path class="cls-10" d="M545,934c.222-.379.589-.888,1-1-.281.333-.612.846-1,1Z"/>
  <path class="cls-9" d="M671.825,370.266c41.206-2.217,62.508,69.581,18.429,76.49-52.102,8.167-68.229-73.811-18.429-76.49Z"/>
  <path class="cls-9" d="M469.991,264.014l-20.984,6.593c-12.512-.517.829-7.692,6.767-8.358,4.919-.551,9.513.773,14.217,1.765Z"/>
  <path class="cls-9" d="M468,302.989c.624-2.749,16.349-9.72,16.989-8.988,2.481,2.837-13.659,11.134-16.989,8.988Z"/>
  <path class="cls-1" d="M100,719c-.935-.314-.932-1.152-1-2,.951.344.919,1.172,1,2Z"/>
  <path class="cls-4" d="M678.5,439c-.19-.009-.778.953-1.521.567-2.35-1.222-5.233-17.949-5.988-18.574-.686-.566-13.921,4.319-17.518,1.034-1.789-1.634-5.585-17.926-4.468-19.02.576-.564,15.416-1.45,16-2.005,1.455-1.383-4.345-17.982-5.001-20.994,4.704,1.905,18.455-4.785,20.803-.312,1.214,2.313,2.616,15.706,3.243,16.247,1.431,1.236,15.04-2.592,17.805-.8.832.54,6.7,18.017,6.15,18.843-.544.817-16.449,3.378-16.929,4.105-1.137,1.725,4.399,17.686,4.923,20.909-5.805-.195-11.691.268-17.5,0Z"/>
</svg>