<?xml version="1.0" encoding="UTF-8"?>
<svg id="Layer_1" data-name="Layer 1" xmlns="http://www.w3.org/2000/svg" viewBox="0 0 1024 1024">
  <defs>
    <style>
      .cls-1 {
        fill: #06303f;
      }

      .cls-2 {
        fill: #fffffd;
      }

      .cls-3 {
        fill: #c93b27;
      }

      .cls-4 {
        fill: #de8e46;
      }

      .cls-5 {
        fill: #3b7089;
      }

      .cls-6 {
        fill: #111c13;
      }
    </style>
  </defs>
  <path class="cls-2" d="M1024,993v31H0V0h1024v797l-5.873-.869c-77.887-29.358-156.598-56.869-238.223-74.057l-.016-4.868c7.216-26.647.674-52.055-14.893-73.544-3.498-5.031-3.491-8.312.021-9.844-.856-35.612-20.847-87.237-65.417-61.777-2.94.221-4.612-.024-4.118-3.243,11.77-46.451,3.253-89.705-19.823-130.08-5.433-10.434-7.727-19.771-5.585-31.163-2.097-13.441-6.117-26.551-12.061-39.33-8.292-32.499-15.889-65.199-22.79-98.098-18.451-91.426-106-119.773-190.077-122.756l-1.35-2.632c-2.724-14.104-7.733-26.482-22.234-30.985-13.815-37.918-34.111-81.377-81.485-79.715-35.44,1.243-73.225,19.629-93.107,49.42-22.451,33.639-14.209,62.254-4.237,96.366-5.322,17.136-11.913,34.171-19.775,51.104,1.08,7.636,6.685,6.853,12.178,4.033l19.78-9.073c7.208-4.956,11.754,3.558,11.308,9.917-25.541,22.804-25.943,59.933-20.717,91.527,4.372,24.762,8.635,49.42,9.067,74.31,1.507,13.567,2.598,20.418,14.734,27.478,4.277,6.337,5.224,14.292,6.105,21.746.488,30.264,4.453,59.917,15.999,88.626,11.779,28.41,22.456,57.198,32.032,86.362-4.657,10.174-10.541,19.843-17.65,29.005-4.165,6.823-8.243,15.864-3.875,23.365,3.113,3.84,9.037,11.956,2.083,14.275.775.094,1.937.321,2,.867.252,2.2.325,16.982-.667,17.987-.327.331-.808.51-1.333.646-.371.718-.943,1.786-1.543,1.711-2.991-.373-21.927-4.48-22.828-5.765-.026-6.934.211-13.909.71-20.927-.62-19.471-7.221-25.535-26.098-29.696-13.593-8.361-26.219-11.807-41.464-13.796-5.297-7.545-11.501-12.132-18.612-13.759-4.708.676-9.371,2.699-13.988,6.068-12.713-4.001-22.946-2.333-35.697.151l-2.185-1.331c-7.755-25.125-43.096-14.429-51.225,5.181-4.291,13.309-11.816,24.597-19.704,36.03-10.026,17.79-8.882,30.974-6.369,50.416l-.06,26.694c-.697,14.025,4.271,24.871,10.719,36.484l-.808,2.081c-10.623,7.226-2.901,13.429,5.33,17.77,37.417,19.731,85.759,21.322,127.67,21.729,4.817-3.827,36.022,8.475,37.081,10.917,6.288,36.888,17.171,61.983,53.156,76.241,37.198,11.526,75.172,23.132,113.672,27.812,3.343-2.583,6.732-3.92,10.165-4.01,32.92,11.518,66.441,20.288,100.565,26.308,44.778,2.376,89.502,5.318,134.174,8.827,15.474,4.345,30.831,9.129,46.072,14.352,23.323,1.705,46.561,4.054,69.714,7.046,13.577,5.268,27.105,7.356,40.583,6.264,7.18-7.31,9.988-7.403,19.769-4.772,6.93.172,9.531-3.853,12.401-9.478,5.731-1.638,9.193-4.518,10.385-8.638-1.88-5.615-.88-8.907,2.999-9.876l164.431,18.835.986,2.127Z"/>
  <path class="cls-6" d="M1024,993l-165.474-19.048-2.289,1.503c2.044,6.03,2.38,10.191-3.528,13.753-1.732,1.045-4.416,1.39-5.651,2.349-2.742,2.127-1.678,6.19-7.167,8.833-8.608,4.145-14.153-.971-18.268-.166-1.977.387-4.576,5.716-8.333,6.564-14.345,3.241-27.891-3.263-41.279-6.3-23.3-5.284-45.362-3.041-68.218-6.782-16.735-2.738-30.583-12.287-47.412-14.588-44.719-6.115-92.871-3.856-137.76-9.24-31.939-3.83-65.417-17.226-96.406-25.663-4.181-1.877-6.566,2.876-8.921,3.57-8.539,2.515-71.62-14.523-84.508-18.072-33.242-9.154-60.42-15.987-75.643-50.357-5.247-11.846-7.164-23.884-9.825-36.424-2.417-1.987-25.7-10.478-29.107-10.734-2.527-.19-4.379.858-6.672.848-34.601-.163-65.78-1.183-99.303-10.783-8.331-2.386-37.203-11.918-39.784-20.209-2.95-9.475,5.231-10.795,5.375-12.541.06-.728-6.061-10.269-7.02-12.821-5.904-15.71-3.194-32.794-3.765-49.235-.455-13.096-3.566-21.43-.592-35.509,3.252-15.398,13.917-25.155,20.719-38.281,3.427-6.613,5.085-14.593,9.416-20.584,10.717-14.824,38.396-22.756,49.442-4.616.943,1.549,1.761,5.357,1.994,5.536.781.597,15.793-2.957,19.431-3.053,5.503-.146,14.495,3.248,16.834,2.882,2.653-.416,5.657-4.813,9.441-5.6,5.189-1.08,9.561-.32,13.768,2.773,2.713,1.995,8.785,10.168,10.223,10.777,4.263,1.805,13.105,1.441,18.836,3.164,7.399,2.225,15.272,7.446,22.464,10.536,4.392,1.887,9.473,2.364,13.66,4.34,17.593,8.304,13.693,31.39,12.317,47.173l23.005,5.005v-19.5c0-1.152,1.568-2.971,1-5.962-.49-2.577-5.486-6.348-6.556-11.48-3.558-17.054,17.782-33.879,23.076-49.159-13.734-47.93-41.641-94.282-46.507-144.412-1.442-14.856.35-36.233-6.259-49.741-1.513-3.093-7.929-5.5-10.746-9.254-7.03-9.369-5.63-36.314-7.132-48.868-5.417-45.292-24.262-96.051,10.132-136.117,1.115-1.299,4.039-2.752,3.974-2.992-.308-1.129-3.655-8.232-4.582-8.442-1.955-.442-25.716,12.382-30.996,12.918-5.182.526-8.233-3.484-8.37-8.433,4.193-11.241,9.662-22.018,13.714-33.312,1.449-4.038,5.71-14.546,6.046-17.987.232-2.373-8.497-28.093-9.503-35.051-7.689-53.157,31.847-94.497,80.714-107.705,58.051-15.69,83.331,10.998,105.168,59.822,1.183,2.646,5.438,15.825,6.054,16.448.394.398,6.959,2.461,9.269,4.229,7.759,5.941,12.014,19.664,13.546,28.952,36.662,1.559,77.096,7.53,110.635,22.867,84.961,38.853,79.89,114.207,100.811,191.189,4.037,14.853,13.531,31.224,14.548,46.451.289,4.331-1.216,10.792-.832,13.81,1.181,9.278,13.967,33.35,18.341,42.681,16.831,35.905,15.276,69.911,7.46,108.04,11.75-5.093,20.719-10.224,34.014-6.514,17.563,4.901,26.672,23.58,31.243,39.757,1.471,5.206,6.602,27.186,4.241,30.808-.586.898-2.686.663-2.498,1.44,1.453,6.036,11.043,18.571,14.169,25.84,8.229,19.13,8.147,38.686,2.821,58.668,83.618,16.305,164.009,44.984,243.005,76.005v11l-1.216,2.025c-87.782-32.308-176.805-64.95-268.978-82.484-7.558-1.629-14.863-3.938-21.916-6.929-4.351,6.285-9.412,12.404-15.184,18.357-2.041,6.067-5.266,8.256-10.269,2.996-2.413-.845-30.896-6.06-32.534-5.838-6.841.927-58.318,90.809-55.452,104.663,4.831-15.649,10.601-31.371,18.391-45.945,2.202-3.314,25.722,6.276,28.999,8.69,5.627,4.145,6.163,4.829,3.004,11.661-13.178,25.533-21.98,54.862-24.558,84.466,38.752,16.467,77.595,18.129,119.132,13.498,31.47.768,61.943,15.14,85.334,34.418l6.643-.549c51.977,9.857,104.173,17.618,156.744,24.681,4.082.548,8.001,1.896,11.859,3.29v18Z"/>
  <path class="cls-1" d="M1024,808v41c-3.24-.346-6.474-.731-9.685-1.253s-6.398-1.056-9.517-1.869c-37.147-9.682-74.218-19.513-111.054-29.556-30.578-8.012-61.43-14.291-92.612-18.138l-.823-2.874c7.472-9.295,8.112-26.208,4.939-37.633-2.74,9.997-5.172,20.124-7.296,30.381l-2.511,1.584c-27.22-18.494-56.761-30.282-89.807-30.444-9.091,2.702-16.009,1.984-7.094-7.246.19-.329,1.72-4.289,1.507-4.379-9.004-3.812-30.936-7.411-34.437,5.866l-19.612,31.985c9.687,2.407,19.031,5.653,28.032,9.737,2.344-6.274,13.215-31.743,17.836-33.655,4.194-1.735,23.736,1.651,29.696,2.776,18.682,3.526,42.925,11.443,58.47,22.443,4.809,3.403,7.442,6.164,1.017,8.235-43.472-4.375-77.243,13.389-96.301,51.981l14.257-16.013c32.768-41.489,84.925-32.958,130.701-22.553,60.743,13.807,121.723,30.097,182.19,46.558,4.233,1.152,8.193,3.116,12.104,5.065v115c-22.13-2.351-44.351-4.871-66.365-8.135-33.862-5.021-67.45-12.896-101.253-17.744-3.041-.436-5.974.665-7.911.42-3.325-.42-14.417-10.993-18.133-13.378-13.267-8.513-45.367-20.539-60.839-20.959-22.182-.603-44.701,4.06-66.982,1.78-19.521-1.997-40.184-9.341-58.855-15.144l-1.528-1.476c2.028-21.859,7.579-45.61,15.584-66.145,1.668-4.279,11.615-22.931,11.095-25.592-.769-3.935-28.42-13.946-30.688-12.505-14.299,29.654-24.927,61.627-26.12,94.884l-5.018-.517c2.114-8.208.768-17.559,3.059-25.771.234-.839,1.779-.66,1.94-1.399.505-2.313-1.421-5.805,2.004-5.332l.008-.976c-5.414-.601-.422-2.013-.011-2.742.858-1.522.183-4.016.963-5.846.766-1.797,3.102-2.758,3.115-3.007.102-1.906-1.606-2.895-1.598-4.49.06-11.096,17.302-46.641,23.36-57.597,3.634-6.572,29.368-48.253,33.796-49.101l33.668,5.982c6.911,6.051,4.977,1.422,8.276-3.146,4.478-6.201,11.818-11.535,15.998-18.126,27.08,9.248,55.813,13.466,83.644,20.355,70.349,17.414,135.743,42.413,203.261,67.748,1.809.679,3.581,1.125,5.531.96Z"/>
  <path class="cls-6" d="M1024,860c-58.824-14.34-116.829-32.376-175.997-45.491-32.746-7.259-77.26-18.62-109.806-8.811-24.766,7.464-40.362,30.435-57.187,48.302-.685-3.884,1.284-6.459,2.821-9.669,7.437-15.525,27.714-37.722,43.639-44.361,17.15-7.151,36.742-7.177,55.027-6.965l.496-1.986c-26.52-17.735-58.51-26.896-90.334-27.864-7.262,10.549-13.369,22.776-17.67,34.845-9.742-5.976-21.393-7.618-32-11.509,8.242-12.555,15.83-28.209,25.184-39.817,5.695-7.067,10.568-4.595,19.198-3.545,5.234.637,10.405,2.199,15.629,2.881l-2.491,6c.279,1.658-5.595,6.011-4.503,6.988.36.322,7.56-1.723,9.496-1.792,15.297-.546,42.245,5.451,56.48,11.312,12.009,4.945,22.493,12.804,33.499,19.501,2.328.104,4.923-31.238,10.018-33.998,3.532,4.857,3.879,12.652,3.485,18.473-.257,3.797-1.9,15.515-3.05,18.748-.225.633-4.058,3.53-3.934,5.75,22.368,1.279,45.268,6.459,67.211,11.298,23.796,5.248,47.093,12.252,70.574,18.426,28.092,7.387,56.212,14.619,84.215,22.285v11Z"/>
  <path class="cls-6" d="M731,244c6.433,11.964,14.495,23.03,22.5,33.981,8.331-10.69,16.243-21.975,22.5-33.981h38l-41.674,62.51,47.674,71.49h-41.5l-25.513-41.997c-10.095,12.959-18.784,27.247-25.987,41.997h-41l48.677-70.495-43.677-63.505h40Z"/>
  <path class="cls-6" d="M867,307.5c.885-6.541,6.536-17.081,10.584-22.417,10.742-14.164,44.653-33.514,26.392-54.559-15.745-18.145-43.304-1.091-43.022,20.425l-35.959-2.944c-3.139-48.905,44.933-70.358,87.221-57.721,37.871,11.318,50.002,56.25,24.755,86.186-13.332,15.808-38.853,23.96-35.965,49.535l-34.005-1.005c.527-5.511-.722-12.158,0-17.5Z"/>
  <path class="cls-6" d="M868.347,345.349c6.001-5.553,16.996-5.997,24.452-3.648,23.473,7.393,17.281,44.598-14.038,40.04-17.345-2.525-22.782-24.946-10.414-36.391Z"/>
  <path class="cls-5" d="M455.736,668.317c.269.126.246,1.539.943,1.699,2.34.536,4.37-1.115,5.755-1.045.602.03.486,1.926,1.21,2.077,1.998.416,4.622-1.48,6.695-1.084.707.135.57,1.845,1.335,2.023,5.217,1.214,11.523-.209,15.757-.014.6.028.474,1.893,1.231,2.06,6.714,1.48,21.691,3.264,28.925,3.976,2.212.218,4.299-1.249,5.796-1.065.661.082.549,1.963,1.26,2.103,1.943.381,4.208-1.337,5.746-1.111.673.099.569,2.065,1.175,2.101,1.345.08,3.481-1.627,5.77-1.061.753.186.563,1.947,1.272,1.999,11.056.813,31.03,1.986,41.693,5.06.864.249.695,1.972,1.273,1.992,1.215.042,2.857-1.366,4.754-1.058.562.091.395,1.541,2.146,2.129,3.121,1.048,5.159-.378,6.887-.134.744.105.577,1.954,1.279,2.087,1.844.351,3.676-1.167,4.803-1.099.606.036.514,2.08,1.118,2.104.962.038,2.422-1.224,3.808-1.111.547.045.33,1.602,2.075,2.145,4.611,1.435,10.467,1.198,14.831,2.338,12.044,3.147,23.349,7.092,36.726,10.11,4.085.922,4.605,1.209,8.385,2.652,2.446.934,14.217,1.467,15.616,2.821-4.826,5.15-9.558,10.462-14.349,15.639-3.623,3.914-7.664,9.897-10.657,12.84-1.489,1.464-4.819,1.342-5.003,1.528-.104.105.996,1.47.511,2.91-1.349,4-9.789,13.196-12.53,17.543-14.873,23.587-26.216,48.841-33.484,76.516-4.325,16.467-6.295,33.43-9.989,50.026l-2.717.81c-33.391-9.797-68.728-11.065-101.772-21.835l23.198-11.069c6.007-5.008,13.734-8.568,18.794-14.908-6.011-.692-11.361,3.575-16.818,5.668-9.014,3.457-18.131,7.177-27.669,10.251-5.236,1.688-6.226,4.593-13.806,2.859-2.009-.459-15.456-7.308-18.909-8.886-44.132-20.163-91.283-54.319-141.295-54.897-4.347-.05-5.115,2.442-5.721,2.671-1.831.692-5.825-1.628-5.778,4.317,3.847-.333,9.686-.782,13.341.009.776.168.615,1.902,1.086,1.882,1.619-.069,3.462-1.232,6.123-.983,1.928.181,1.053,2.192,2.908,2.218,1.892.027,3.828-1.185,4.958-1.134.569.026.442,1.699,1.318,1.952,4.242,1.224,8.802,2.124,12.639,3.206,24.586,6.934,43.411,19.46,65.883,31.134,3.259,1.693,25.598,11.726,25.714,13.213-.638,2.792-2.712,2.183-3.847,3.132-22.367,18.695-34.203,42.903-32.129,72.876.357,5.165,5.197,9.279-4.877,6.871-16.455-3.933-32.786-9.457-49.12-13.873-21.223-5.738-44.557-8.757-63.692-20.303-25.526-15.403-37.413-51.924-30.013-80.392,1.363-5.244,2.945-4.882,4.604-8.352.805-1.683.823-4.554,1.297-5.238.638-.92,3.62-.964,3.803-1.22.577-.808-1.099-3.165-.827-3.842.042-.104,1.349-.125,1.834-.867,4.742-7.243,9.354-11.249,16.736-15.979,8.181-5.242,18.424-9.123,25.613-14.974.677-.551,2.054.025,2.665-.992.26-.432,1.85-9.066,1.861-9.909.006-.479-1.784-.283-1.927-1.077-.554-3.091.112-9.184-.206-12.023-.229-2.04-2.922-4.426-1.66-7.244,7.301-1.766,14.963-1.018,22.455-1.13,7.531-.113,15.666.14,21.927.812,2.603.28,7.383.849,9.716.671,2.407-.184,7.494-5.189,9.761-5.853,1.365-.4,3.3.689,5.272.232,7.301-1.69,10.965-3.543,15.213-9.878,1.799-2.683,2.538-7.329,5.014-8.986.412-.275,8.72-3.569,9.209-3.645,1.171-.183,2.543.734,3.74.595,3.917-.457,11.284-6.34,13.06-9.954.704-1.434.199-3.111.6-4.208.34-.93,1.905-.746,1.984-1.375.202-1.601-1.417-3.684-1.072-5.68.114-.663,1.545-.676,1.948-1.458,3.425-6.635,2.523-3.375,6.615-7.2,1.65-1.542,7.959-7.694,8.984-9.059,1.81-2.409-.041-6.213,3.978-6.967,1.564-.293,5.877-.321,7.238.315Z"/>
  <path class="cls-3" d="M475,354c-5.732,30.148-11.196,58.065-9.211,89.289l-21.78,34.236-39.85-36.169c11.177-28.019,26.672-56.876,23.833-87.848-.907-9.889-8.754-38.163-5.475-45.492.792-1.77,3.585-3.086,5.413-3.587,10.592-2.905,38.998-1.262,45.521-11.479,1.372-2.149,1.882-6.907,2.39-9.61,6.171-32.882-.805-74.9-16.018-104.663-1.496-2.927-13.302-20.229-11.819-21.672,20.118-.445,40.952,2.656,60.473,7.275,35.355,8.366,69.449,21.807,92.92,51.823,32,40.924,33.308,96.938,46.678,145.322,5.539,20.044,18.421,40.438,13.435,61.584-7.322,31.05-44.839,57.094-74.509,63.981,9.695-7.088,22.436-14.658,25.995-26.985l-4.311.179-10.925,9.451c-3.893.69-7.092,5.278-10.85,7.773-11.608,7.707-27.269,13.464-40.909,15.581,6.448-20.28,13.795-40.678,24.683-58.807,10.002-2.306,15.665-3.994,20.501-13.499,10.386-20.415,30.191-81.002,31.803-103.197.251-3.454,1.418-13.355-3.075-9.891l-33.92,103.405-28.321-19.172c-23.782-12.517-52.15-19.212-78.67-12.838,2.408-9.179,4.716-18.51,6.688-27.802,6.013-28.34,8.364-46.959,21.453-73.547,10.296-20.914,21.766-37.386,38.963-53.037,3.758-3.421,8.668-5.612,11.895-9.595-13.021-.191-25.821,12.535-33.941,21.788-13.073,14.898-25.003,35.098-30.07,54.196-1.549.199-1.406-3.474-1.422-4.495-.216-13.156,2.782-29.344,6.416-42.016,2.037-7.102,5.432-13.903,7.027-20.974.114-.873-1.861-.609-1.991-.501-.32.268-3.643,5.871-4.435,7.076-20.261,30.868-16.471,79.704-22.585,115.916-3.325,2.209-3.865-4.659-2.5-7-1.286,3.244-12.928,3.103-14.5,0l-2.098-.598-1.625-12.127-9.537.104c.398,5.067.602,10.229.611,15.485-3.613,1.346-7.575,2.146-11.886,2.4l2.16,12.394c4.109-.91,8.148-1.259,12.118-1.048,1.826,4.229,2.816,8.938,2.97,14.126.322.451,10.615-.404,10.82-1.052l-2.241-11.938c-.599-4.888,11.705-5.964,13.709-2.746Z"/>
  <path class="cls-1" d="M666.005,469.995c4.897,1.018,7.447-7.1,9.96-8.529,3.712-2.11,2.741.881,3.825,3.21,22.263,47.798,10.587,96.769-.039,146.576-4.18,19.595-17.637,59.28-15.66,77.16.107.97.434,3.76,1.898,3.584-1.147-5.141,2.937-8.087,4.512-11.993,4.216-10.455,8.057-23.814,11.213-34.787.911-3.167,5.471-25.123,6.779-25.192,19.798,11.599,35.289,35.647,29.212,59.182-2.483,9.616-9.353,17.417-11.72,26.79-57.318-15.356-114.872-30.87-173.993-37.999,2.828-8.285-1.322-23.849,2.377-30.801.088-.165,3.947-.782-.208-1.289,1.465-8.116-.637-16.219-.15-24.398.347-5.825,3.397-28.937,5.96-33.037,3.292-5.266,29.036-18.571,35.765-21.235,11.281-4.466,27.713-8.805,39.762-8.238,1.205.057,4.207,1.252,4.493.997,2.188-1.947-2.565-1.674-1.986-2.989,3.331.794,7.977,1.711,11.303.966.436-.098,1.598-3.482,4.69-1.984,1.337-1.055-7.276-3.731-8.585-3.906-24.1-3.225-60.849,7.224-80.732,21.099-8.103,5.654-11.789,9.753-16.188,18.813-.969-4.304-1.586.203-3.814-.122-5.996-.876-11.965-16.716-10.149-21.812l9.457-16.056c.558,9.232,2.105,16.104,4.78,24.726.295.95-.283,7.649,2.217,5.265,3.865-3.687-2.203-35.706,1.095-41.346.963-1.646,1.74-2.001,3.439-2.631,13.399-4.974,33.651-2.061,47.346-10.156.86-6.356-.777-12.634-2.557-18.665-.702-2.38-3.695-4.133-.291-5.684,8.871-4.042,9.998,14.851,11.014,19.983.241,1.216-.708,1.841,1.468,1.516,2.821-.421,12.031-4.422,15.175-5.839,9.349-4.212,19.235-10.476,27.64-16.36,3.471-2.43,22.204-16.549,23.166-18.833,2.664-6.331-1.867-17.758-5.492-23.272-.559-.85-2.043-.505-2.018-1.221.029-.836,4.069-7.378,4.551-7.492,4.593-1.087,13.2,21.519,10.485,25.999Z"/>
  <path class="cls-4" d="M461.658,863.37c6.873,2.969,15.139,7.669,22.141,10.545,12.399,5.093,19.239,6.142,31.525,9.096,24.153,5.807,53.218,9.88,79.465,16.896,26.695,7.136,55.334,11.973,81.431,22.918,9.599,4.026,50.267,4.58,64.275,4.161,10.871-.325,20.988-3.259,32.471-2.665,3.474.18,6.558,2.273,8.414,2.836,11.768,3.575,23.354,6.578,33.325,10.889,10.145,4.387,19.832,13.889,28.745,20.963,2.51,1.992,5.774,2.353,7.546,6.497l-3.091,1.023c-16.204-9.327-29.396-21.121-47.107-27.826-4.214-1.596-18.625-6.677-22.135-5.564-5.755,1.825,5.373,8.041,7.611,9.091,6.144,2.882,12.942,4.028,18.444,6.74,12.877,6.347,24.611,15.189,36.025,23.053,3.543,2.441,9.959,2.494,8.053,8.254-1.82,5.502-9.382.103-12.714-1.858-19.578-11.525-36.758-27.445-60.686-30.313-2.782-.333-5.616-.034-8.398-.103-1.071,6.646,3.867,4.27,7.636,5.83,21.061,8.717,40.302,19.065,59.291,31.74,5.743,3.833,5.342,9.276-2.16,8.223-9.573-1.344-26.663-13.214-36.382-17.679-13.23-6.078-27.555-11.356-42.378-11.114-.14,1.604-.246,2.31.999,3.493,2.338,2.221,27.097,8.773,33.2,11.587s15.908,7.676,21.712,11.502c5.217,3.439,7.053,8.953-.352,8.38-11.878-.919-27.582-8.488-39.925-11.104-21.741-4.608-43.297-.988-64.672-5.328-14.511-2.946-28.264-11.929-42.917-14.112-41.971-6.251-88.135-4.503-130.624-9.331-1.892-.215-1.351-2.015-1.855-1.981-1.337.09-2.832,1.259-5.066.982-36.627-4.532-70.996-18.095-106.815-26.282-4.654-4.317-3.21-9.006-2.788-14.356,1.571-19.937,10.257-37.653,27.088-51.968,1.14-.969,8.434-6.743,8.963-6.946,1.218-.466,9.848,3.025,11.707,3.827Z"/>
  <path class="cls-4" d="M537.659,393.362c4.068,1.708,17.967,8.385,21.745,10.776,1.891,1.196,7.029,6.642,8.608,8.313-3.225,7.362-6.962,14.501-10.209,21.851-17.225,38.997-24.195,75.14-47.123,111.927-21.464,34.439-46.708,65.447-67.689,100.261-8.226,13.649-7.888,21.87-23.957,30.043-6.657,3.386-20.129,7.222-27.4,5.332-3.28-.852,1.237-3.572.362-5.861-2.017-.159-3.847-.063-5.742.749-1.709.733-17.751,13.043-19.268,14.734-5.635,6.282-5.849,17.192-13.691,22.56-7.14,4.888-9.906-.619-6.115-7.399.813-1.454,2.473-1.493,2.678-1.779.221-.308-.991-2.216-.904-3.368.175-2.308,8.859-18.498,10.706-21.237,3.61-5.352,11.067-11.98,14.105-17.997,1.234-2.444,2.325-5.848-1.247-6.264-3.2,3.57-7.223,6.01-10.535,9.474-5.981,6.256-14.782,19.709-18.171,27.83-2.102,5.037-5.822,23.083-8.321,25.675-3.563,3.696-12.377.348-12.068-3.047,4.754-10.895,6.847-23.471,11.867-34.15,5.256-11.183,15.451-21.697,22.713-31.565,1.507-2.048,6.035-9.152-.316-7.202-.796.244-.79,1.611-1.416,1.947-16.888,9.056-28.425,33.574-34.77,51.03-1.128,3.104-2.402,11.868-4.009,13.999-2.893,3.837-7.31-4.702-7.214-7.288.182-4.904,5.084-22.422,6.814-27.953,3.606-11.525,14.047-19.278,19.803-29.592.879-1.575,4.993-11.324,4.103-12.16-.97-.911-7.317,3.6-8.08,4.419-3.468,3.719-8.899,11.217-11.903,15.048-6.136,7.823-11.701,13.897-12.022,24.527-7.52-8.439-.992-12.361,2.996-18.514,6.6-10.182,12.171-17.078,19.452-26.548,1.498-1.948,1.857-4.613,3.548-6.452,11.352-1.91,22.933-1.852,34.299-2.732,15.343-1.188,22.346-4.617,38.463,1.965,1.148.469,1.067,1.861,2.629,2.441,3.576,1.327,8.663,1.175,4.606-2.642-.668-.629-7.117-5.052-8.272-5.728-2.306-1.351-5.103-2.24-7.709-2.801,5.086-10.996,10.502-22.506,15.711-33.732,7.489-16.139,13.694-31.86,19.939-48.988,12.153-33.328,22.795-59.406,42.87-88.24,2.418-3.474,12.852-9.804,14.466-13.545.902-2.092-3.831-2.595-5.25-2.337-2.441.444-11.312,8.425-11.728,7.854l3.125-47.865c17.657-6.081,42.42-2.955,59.523,4.227Z"/>
  <path class="cls-4" d="M167,636.01c-2.369,3.457-4.816,6.768-3.964,11.252.036.189,2.513,2.692,2.702,2.727,5.116.923,22.478-8.871,27.494-12.056,1.257-.798.252-2.321,1.752-1.922.248,2.782,3.791,2.368,6.554,4.953,4.949,4.63,5.076,9.861,8.003,13.992,1.187,1.674,7.934,7.152,9.223,3.588l-1.769-7.537c2.712-2.454,13.74,2.911,17.05,4.448,4.528,2.103,10.573,6.639,14.747,8.463,5.471,2.391,12.124,4.379,18.004,5.373,3.723,4.962,7.143,11.888,7.198,18.214.146,16.828-16.167,41.017-26.151,54.836-6.653,9.208-14.458,16.583-24.826,21.174-3.423,1.516-14.277,3.737-15.997,5.003-1.416,1.041-1.071,1.945-1.015,3.476,6.509.443,11.723-.014,17.988-1.503,21.997-5.226,29.547-23.184,41.572-39.427,1.444-1.95,9.667-13.207,10.434-13.587,2.435-1.209,5.668.301,8.49.583,4.623.463,2.47.474,4.237.88,2.821.647,6.355.887,9.281,1.063.829,3.885-4.583,4.84-7.232,7.038-22.038,18.29-46.583,42.226-55.896,69.836l-42.876-6.885c-.67-2.091,3.639-6.092,3.763-6.512.592-2.02-1.111-15.526-5.763-11.905.279,2.947-.702,5.478-1.845,8.095-5.965,13.66-30.742,18.268-43.448,13.12-15.172-6.146-13.865-21.568-.615-29.195,3.776-2.173,3.57-1.218,7.664-4.612,1.03-.854,3.639-1.602,4.004-2.213,2.184-3.662-2.591-14.159-5.525-16.788-2.096-1.877-6.093-3.185-8.59-5.129-1.605-1.249-2.166-3.234-3.682-4.318-10.388-7.431-26.948-11.883-31.664-24.336-1.871-4.941-.62-9.855-1.517-13.712-.17-.73-1.994-.074-1.833-1.905.163-1.859,4.316-7.179,5.702-9.472,5.686-9.415,7.747-18.029,12.332-26.623,2.62-4.91,8.508-10.72,13.79-12.214,3.581-1.013,8.392-.55,11.523-1.305.748-.18.645-1.716,1.449-1.899,6.285-1.429,12.861-2.228,19.253-3.057Z"/>
  <path class="cls-4" d="M380.006,612.005c-1.103,1.066-19.569.504-22.577.91-1.92.259-1.351,2.088-2.001,2.108-1.17.035-3.058-1.189-4.967-1.144-1.752.04-1.244,1.777-2.177,2.069-2.483.777-6.638.22-9.307.533-2.047.24-8.396,3.303-10.09.924s-7.46-21.824-9.174-26.618c-12.616-35.274-30.745-71.416-34.702-109.297-1.117-10.696.026-22.644-1.117-32.883-1.347-12.073-8.446-25.376-8.559-38.173.285-1.768,13.243-6.32,15.681-6.94,16.844-4.285,40.128-3.516,57,1.991,14.108,4.604,9.24,22.654,9.941,34.059,1.032,16.791,6.108,33.719,8.772,50.228,6.529,40.453,9.487,81.405,13.275,122.236Z"/>
  <path class="cls-3" d="M365.66,48.397c2.108,1.075,2.88,2.044,4.938,3.478,2.163,1.508,5.001,1.225,5.211,1.394,14.729,11.94,24.017,29.223,31.365,47.057,1.613,3.915,5.925,11.744,3.883,15.221-.876,1.491-8.761,7.835-10.725,9.282-21.466,15.821-53.285,28.704-79.96,31.04-20.56,1.801-37.433-.424-57.892,7.108-2.623.966-13.04,6.98-14.435,5.989-6.376-19.363-11.856-40.481-5.083-60.506,7.595-22.454,29.574-43.404,50.682-53.318,18.21-8.553,53.544-16.165,72.016-6.746Z"/>
  <path class="cls-4" d="M426.358,192.372c-.562.49-4.586,4.398-4.357,4.617,4.358,1.544,6.889.165,10.993-.985.502,13.44-.293,26.695-2.004,39.991l-2.456-12.029c-.268-1.276-2.265-3.931-3.524-2.961-1.006.776-3.62,21.318-4.5,25.004-2.9,12.146-8.137,23.484-13.706,34.294-3.225,6.261-6.826,12.33-9.815,18.694-1.203.908-8.241-12.08-9.158-13.328-3.583-4.877-13.353-16.176-18.606-18.393-3.724-1.572-7.626-.736-11.571-2.43-7.542-3.24-8.196-13.078-14.173-14.832-3.484-1.022.116,4.804.293,5.711.344,1.758.296,3.51.232,5.278-2.026.169-4.449-.449-6.372.165-1.234.394-1.439,2.174-2.388,2.847-2.67,1.894-5.641,3.435-8.501,5.025-.653.363-.66,1.784-1.444,1.955-9.358,2.045-12.881-7.3-13.892-14.65-1.155-8.394-.879-20.474-.525-28.912.014-.325-3.502-1.32-1.888-5.436,5.553,1.674,17.619-4.025,22.324-3.07,1.037.211,1.283,3.047,2.696,3.538,5.507,1.103,6.193,4.64,12.213,3.249,7.125-1.646,12.135-6.346,13.283-13.692-1.017,1.155-20.327,4.658-17.51.99,6.664-.891,11.744-7.96,17.285-10.225,3.027-1.237,11.716-1.895,12.703-6.31,1.013-4.53-7.691-1.13-7.984-1.481-1.311-1.574,4.41-6.328,5.958-8.531,2.154-3.065,13.781-22.424,15.03-22.993,1.934-.882,3.286,4.184,4.46,5.572,3.039,3.594,7.828,9.278,12.834,7.757,8.171-2.484,3.25-18.486,3.632-25.284.429-7.635,4.178-26.898,13.596-27.573,15.935-1.142,20.496,33.145,19.466,44.539-1,11.063-4.802,17.066-12.626,23.888Z"/>
  <path class="cls-3" d="M267.99,243.998c.131.136.228,2.498.799,3.682,14.428,29.918,37.752,52.457,64.11,71.959,2.233,2.587-.563,4.428-.846,6.912-1.011,8.877,2.622,11.158,3.959,17.942.222,1.125.15,2.134-1.017,1.017-4.175-3.996-8.857-12.223-13.48-16.525-8.972-9.66-31.761-31.517-43.791-35.209-13.218-4.057-5.952,2.849-1.197,7.197,17.464,15.967,31.765,25.314,47.449,44.551,12.241,15.014,25.886,32.697,31.019,51.47-30.595-10.991-65.78-7.829-91.984,12.004-1.578-13.725-1.428-27.642-3.138-41.371-5.453-43.775-20.932-76.901,3.967-119.294.51-.869,2.686-5.852,4.15-4.335Z"/>
  <path class="cls-3" d="M133.997,633.013c-3.19,3.007-7.826,3.05-11.497,5.987-9.471,7.578-12.494,20.844-17.978,31.022-3.664,6.799-8.512,13.101-12.042,19.958-1.789,3.475-4.88,8.348-3.985,12.015l7.495-7.995c-.218,5.981-.084,11.375,1.303,17.206,4.004,16.824,9.756,23.774,5.429,43.016-.744,3.307-6.807,15.292-5.695,16.744,1.693,2.209,6.141-2.002,7.582-3.379,9.953-9.518,8.031-21.415,8.384-34.089.04-1.442,1.11-3.126,1.063-3.943-.064-1.094-2.511.155-2.051-1.545,2.906-1.058,2.801,1.566,3.755,1.91,16.567,5.971,15.466,9.375,27.22,20.642,1.268,1.216,4.826,1.63,2.405,3.504-1.857,1.438-6.748,2.668-9.322,4.497-16.925,12.023-11.598,36.277,6.964,42.911,17.141,6.125,29.562-1.746,46.516-.516,6.831.496,13.527,3.07,20.462,3.046-1.377,9.047-16.986,11.665-24.625,12.875-42.493,6.732-60.684-2.799-89.026-32.232-1.609-1.671-7.606-12.543-7.286-4.27.278,7.184,7.933,12.859,9.921,18.14,1.5,3.984-5.635-.911-6.459-1.546-7.037-5.423-13.669-16.152-16.62-24.474-.649-1.831-.068-3.995-.225-4.291-.11-.209-1.628-.188-1.738-.826-.292-1.685.86-2.893.949-3.949.042-.5-1.75.051-1.984-1.859-1.187-9.681.501-22.84.13-33.114-.654-18.092-4.635-26.523,2.778-45.139,4.413-11.083,14.079-20.325,18.612-30.383,1.185-2.629,1.366-7.416,2.325-9.592,6.686-15.176,23.744-19.53,37.242-10.332Z"/>
  <path class="cls-4" d="M350.802,269.281c.208.113,2.868,3.116,3.148,3.536,7.254,10.922,12.169,26.257,19.686,38.047,4.866,7.631,11.96,15.377,16.966,23.113,1.72,6.106-9.442,16.243.391,19.023-1.02-2.245,1.772-3.151,1.804-3.496.048-.53-.941-1.728-.586-2.732.678-1.92,4.401-8.972,4.395-10.27-.002-.38-2.044-6.445-2.385-7.222-4.085-9.282-13.264-19.409-18.116-28.108-3.538-6.343-7.927-16.061-10.915-22.86-.628-1.429-1.601-2.477-1.184-4.307l6.525,3.962c11.571,15.057,24.302,32.154,32.875,49.128,1.971,3.902,1.738,9.852,6.1,12.9,2.312-5.447-6.179-21.653-5.356-25.392.857-3.895,4.945,1.826,7.662,1.6,1.758,16.82,7.899,34.352,7.233,51.349-.751,19.167-21.767,66.653-32.627,83.365-3.826,5.888-9.61,10.635-12.43,17.075-2.239-.586-1.217-5.028-1.712-6.775-.631-2.224-2.104-4.319-2.576-6.415-2.815-12.502-1.636-24.153-.694-36.803,3.763.431,7.393,1.347,10.99-.495-13.637-14.55-15.092-35.706-22.512-53.488-3.802-9.111-10.445-17.959-14.189-26.811-2.984-7.054-3.682-16.102,4.751-7.744,8.192,8.119,16.8,24.256,24.983,34.011,5.795,6.908,14.622,13.76,19.637,19.866,3.407,4.148,5.533,11.518,8.33,16.172.544.761,2.923-2.053,2.963-2.234,2.832-13.022-12.303-25.988-19.905-34.838-9.925-11.553-19.024-25.841-28.485-36.481-2.93-3.295-10.022-7.331-11.347-9.677-1.637-2.897-4.825-19.517-4.258-22.723.053-.301,5.688-1.658,5.939-1.483.168.117,1.077,2.731,1.776,3.691,7.537,10.359,13.332,26.13,21.34,37.717,1.266,1.832,10.182,13.605,10.955,14.049,2.871,1.651,3.737-.343,3.968-3.147.454-5.503-5.454-10.669-8.356-15.469-6.841-11.313-13.76-26.511-21.197-36.803-4.776-6.608-16.097-13.104-12.279-23.005,1.338.142,8.312-.035,8.694.172Z"/>
  <path class="cls-3" d="M379,147.01c-7.502,23.182-31.315,56.935-56.597,61.892-9.864,1.934-19.969.414-29.892,1.108-20.075,1.404-40.584,4.466-58.5,13.989,5.398-14.917,12.176-29.368,16.211-44.775,7.693-4.51,16.115-7.499,24.772-9.732,33.021-8.516,69.598-7.027,101.268-20.544,1.177-.502.123-2.756,2.739-1.939Z"/>
  <path class="cls-3" d="M465.761,287.756c-10.314,4.874-22.006,4.323-32.967,6.539-11.685,2.363-20.924,4.16-19.805,18.705-9.883-4.025-3.79-9.803-.163-16.673,13.252-25.104,27.94-44.819,30.16-74.84.758-10.244-1.094-22.02.007-31.993.514-4.654,3.615-8.671,3.015-13.494,2.384,1.775,3.941,5.499,5.341,8.149,16.496,31.231,20.094,69.054,14.411,103.607Z"/>
  <path class="cls-1" d="M507.99,571.998c.131.136.231,2.498.798,3.683,3.481,7.262,6.721,12.84,15.207,14.814-8.11,12.503-14.2,26.467-21.449,39.551-2.597,4.687-15.34,28.437-17.975,30.022-5.179,3.115-27.294-2.989-34.575-2.072-.221-1.744.123-3.117.785-4.715,2.333-5.627,10.752-16.697,14.586-22.413,13.052-19.46,27.865-37.743,40.342-57.607-.161-1.486,1.863-1.694,2.28-1.262Z"/>
  <path class="cls-2" d="M385.987,563.993c-1.739.238-.943-2.27-.992-3.478-1.066-26.22-5.115-52.099-8.998-77.971l23.489-31.536c.986.39,14.572,14.034,15.001,15.004.954,2.16,2.697,18.475,2.406,21.382-1.84,18.355-9.231,24.591-16.752,40.246-5.604,11.664-10.196,24.054-14.154,36.351Z"/>
  <path class="cls-5" d="M301.783,765.801c-.731.467-2.472.023-3.743.747-9.342,5.322-25.51,17.829-33.066,25.926-6.962,7.46-10.659,16.087-14.475,25.506-3.046-4.541-7.571-4.499-9.065-10.908-1.391-5.964,1.003-9.444,3.721-14.461,11.06-20.413,27.123-35.951,43.379-52.55,4.219-4.308,7.991-10.171,12.971-14.057.047,7.469-.958,15.003-.54,22.531.173,3.116,3.614,15.479.818,17.266Z"/>
  <path class="cls-4" d="M304,257.5c1.296,17.185,12.1,28.247,29.472,19.5,6.006,8.201-1.966,8.258-8.462,6-1.381,1.656,6.108,6.569,6.776,8.713.434,1.392,1.602,12.737,1.204,13.286-3.956-1.764-6.638-5.315-9.627-7.862-3.364-2.866-7.512-5.852-10.889-9.112-17.838-17.217-35.269-37.675-40.487-62.513,3.253-.005,7.526-1.755,10.554-1.628,1.888.08,1.352,2.095,2.079,2.172,1.429.151,4.428-1.688,5.325-1.028l1.058,3.965c-19.94,1.212-7.187,10.093,5.267,7.773,2.942-.548,5.139-2.543,7.731-3.767.44,8.002-.598,16.568,0,24.5Z"/>
  <path class="cls-1" d="M420.804,511.264c2.27,1.292,7.567,9.595,6.761,12.767-8.706,24.946-18.369,50.35-30.055,74.027-.663,1.343.122,2.165-1.843,1.799-3.434-.64-4.429-9.018-4.649-12.372-.895-13.623,19.463-58.465,26.197-72.807.974-2.075.24-5.32,3.589-3.414Z"/>
  <path class="cls-2" d="M475,354l-12,1.01,3.001,15.986-15.004,1.009-2.002-15.008-12.986,2.01-2.756-15.554c.359-1.947,10.369-2.051,12.752-2.456l-2.064-16.528,14.048-.462,2.009,14.992h14.5c2.13,0,.733,5.993,2.5,7-.496,2.938-1.516,5.456-2,8Z"/>
  <polygon class="cls-2" points="522.004 666.004 495.005 662.505 523.99 613.005 522.004 666.004"/>
  <path class="cls-4" d="M385.627,720.634c-6.918,9.992-13.254,4.522-9.361-5.805,3.388-4.794,5.048-20.627,10.667-22.396,1.907-.6,3.759-.15,5.502-.491,2.73-.535,5.713-4.471,6.167,2.06-5.067,7.283-8.23,19.779-12.975,26.633Z"/>
  <path class="cls-4" d="M353.228,729.797c-2.041-3.513,1.445-3.863,2.777-5.246,2.2-2.284,5.783-5.199,7.43-7.616,4.068-5.973,4.953-15.709,11.555-19.935-1.123,5.152-4.558,10.771-5.721,15.768-1.622,6.967.562,19.746-9.868,20.25-1.307.063-5.828-2.629-6.173-3.222Z"/>
  <path class="cls-4" d="M418.004,687.996c-.198,2.734.36,5.776-.061,8.449-1.232,7.812-12.883,10.85-13.469,4.094-.889-10.233,3.593-13.812,13.531-12.543Z"/>
  <path class="cls-5" d="M320.677,725.341c1.461.895,3.64,5.104,7.321,4.671.245.325-.573,1.306-.981,1.504-.708.343-14.805,2.342-15.578,2.196-2.728-.515-1.256-5.19-1.503-6.066-.207-.732-1.725-.532-1.936-1.344-.132-.509.385-4.555.906-4.839,2.712-1.476,9.144,2.27,11.771,3.877Z"/>
  <path class="cls-1" d="M436.996,496.006c-.46,2.238-4.165,13.492-6.467,12.979-3.609-.804-5.588-10.571-5.527-13.978l11.993.999Z"/>
  <path class="cls-4" d="M346.995,726.009c-.578,4.332-6.154,6.294-9.995,4.983-.944-.857,3.849-5.167,4.265-5.353,2.207-.985,3.656-.104,5.73.371Z"/>
  <path class="cls-6" d="M653.634,516.392c.163.066,2.43,1.986,2.361,2.598-6.006-.946-12.197.28-18.203,1.303-19.526,3.325-40.4,10.491-58.469,18.531-12.288,5.467-23.834,13.917-37.316,16.169l6.073-5.412c21.378-17.156,79.481-43.738,105.554-33.188Z"/>
  <path class="cls-6" d="M529.5,575c.649.333.649.667,0,1v-1Z"/>
  <path class="cls-6" d="M543.663,453.77c-.081.19-1.306.347-1.615.961-2.973,5.892-6.382,12.064-9.329,17.528-.826,1.531-4.308,9.414-4.737,9.744-.121.093-2.723-1.055-2.807-1.182-.813-1.224-.07-6.091.276-7.874,2.091-10.78,11.531-21.371,18.054-29.942,1.179,2.007.934,8.957.158,10.765Z"/>
  <path class="cls-6" d="M160.988,765.998c-.348,5.27,1.963,11.047,8.264,9.809,3.14-.617,5.24-4.123,8.743-3.802,1.474,9.23-11.452,12.007-17.926,8.43-2.211-1.221-2.577-4.032-4.301-4.767-7.769-3.309-14.236,5.111-8.72,8.79,1.906,1.271,6.023.349,6.945,2.529-13.254,7.265-22.112-13.028-7.024-17.516,2.734-.813,8.087-.292,9.585-.86,1.6-.607.993-3.717,4.434-2.614Z"/>
  <path class="cls-6" d="M154.865,661.135c2.338,3.679-2.906,6.718-4.3,8.929-8.764,13.899-6.458,17.209-9.525,31.465-.217,1.009.58,3.322-1.524,2.46-4.423-1.812-3.98-16.289-3.521-20.496.504-4.625,4.741-13.625,7.579-17.418,1.834-2.451,8.744-8.95,11.292-4.94Z"/>
  <path class="cls-6" d="M222.979,693.988c-2.275,1.577-5.14-2.502-5.445-4.831-.978-7.474,7.856-32.201,16.889-30.093,5.729,1.337-4.185,11.741-5.197,13.662-1.913,3.632-5.334,20.63-6.247,21.262Z"/>
  <path class="cls-6" d="M168.835,673.163c.629.767.839,10.328.522,11.856-.333,1.607-8.284,16.373-10.352,13.976-.513-9.352,5.059-17.6,5.002-26.998.173-.178,4.67.974,4.827,1.166Z"/>
  <path class="cls-6" d="M244.875,669.12c3.056,3.459-4.1,20.192-8.914,17.446-3.416-1.948,3.056-17.782,4.1-18.547.199-.146,4.651.916,4.814,1.101Z"/>
  <path class="cls-6" d="M202.997,667.993c-6.596.825-8.138-7.585-7.505-12.507.044-.345,2.238-6.281,2.523-6.48,1.351-.946,4.264.963,4.785,2.704,1.377,4.605-2.656,11.108.197,16.284Z"/>
  <path class="cls-6" d="M200.996,672.015c2.516,2.628-5.452,2.11-6.435,1.923-1.755-.335-3.952-1.01-4.561-2.928,2.17.006,9.73-.317,10.996,1.005Z"/>
  <path class="cls-6" d="M342.995,452.995c-4.525,1.305-5.356-2.302-7.089-3.357-4.008-2.439-8.979-4.638-12.82-7.225-3.059-2.06-8.724-7.391-1.576-5.51,7.803,2.053,20.657,6.892,21.484,16.091Z"/>
  <path class="cls-6" d="M364.414,78.593c4.773,7.447,8.73,15.047,11.857,23.636,3.706,10.179,6.615,20.846,6.719,31.771-1.834-.567-2.409-2.788-3.167-4.323-5.909-11.977-8.625-26.725-14.647-39.353-8.203-17.205-22.145-36.762-41.169-42.336.214-1.955,5.053-.985,6.254-.748,13.59,2.68,26.918,20.064,34.153,31.353Z"/>
  <path class="cls-6" d="M430.987,144.992c-1.8.321-.553-1.748-1.226-2.715-.488-.702-2.087-.811-2.783-1.717-1.153-1.498-1.017-4.593-3.468-4.571-1.012.009-6.191,13.447-4.502,16.014,5.442-1.321,8.563-.389,10.484,5.004,2.799,7.855,3.985,22.261-7.487,22.987.309-5.064,4.39-8.366,3.784-14.274-.344-3.358-5.429-7.816-7.787-5.714-.325.29,2.446,7.116-2.991,6.99-3.695-9.859-5.044-28.198,3.924-35.576,6.366-5.237,16.383,6.571,12.051,13.571Z"/>
</svg>