<?xml version="1.0" encoding="UTF-8"?>
<svg id="Layer_1" data-name="Layer 1" xmlns="http://www.w3.org/2000/svg" viewBox="0 0 1024 1024">
  <defs>
    <style>
      .cls-1 {
        fill: #fffdf9;
      }

      .cls-2 {
        fill: #8c461f;
      }

      .cls-3 {
        fill: #f2b685;
      }

      .cls-4 {
        fill: #183450;
      }

      .cls-5 {
        fill: #155d96;
      }

      .cls-6 {
        fill: #f3d49c;
      }

      .cls-7 {
        fill: #0f0c0a;
      }

      .cls-8 {
        fill: #d53027;
      }
    </style>
  </defs>
  <path class="cls-1" d="M0,437V0h1024v1024H0v-63l56.459,4.041c36.716-.208,73.502-1.705,110.073-3.982,26.457-1.647,48.421-13.267,74.977-16.05,11.436-1.199,27.771-2.905,38.955-3.069,6.658-.098,11.111,2.495,17.044,3.051,16.021,1.5,47.249-9.683,64.478-13.505,54.98-12.195,112.26-15.438,158.91-50.09,16.932-12.577,24.001-23.529,45.888-29.112,27.68-7.061,57.494-2.076,85.674-1.243,67.044,1.982,137.079,4.033,204.033-2.049,18.148-1.648,52.205-4.822,68.295-11.705,12.863-5.502,3.261-10.735-5.004-13.571-13.55-4.648-29.585-5.973-43.783-7.727,3.908-6.982,10.92-11.477,15.97-17.52,21.321-25.512,30.048-67.367,29.071-100.012-.239-7.994-3.237-20.648-2.72-27.827.409-5.674,4.111-14.259,4.662-21.147,2.329-29.125-11.92-78.593-42.309-89.659-26.213-9.546-26.219,11.746-32.167,30.167l-46.822-25.179c-4.43-1.723-8.747-3.619-13.459-4.541-4.22-.825-14.711-.657-17.208-1.792-2.914-1.325-19.19-20.518-22.533-24.467-9.925-11.723-13.236-25.955-32.174-19.203-6.831,2.435-12.854,8.029-17.812,13.172-1.378-3.323-14.109-9.906-14.455-11.597-.27-1.32,2.42-3.089,3.169-4.665,3.062-6.443.252-14.241-3.802-19.634-1.838-2.445-8.977-7.69-9.282-8.794-1.207-4.359,4.004-8.741-.668-16.257-4.555-7.327-13.9-8.836-17.209-12.285-1.293-1.348-3.265-9.837-5.42-13.085-4.29-6.468-12.918-11.893-20.828-11.673l.158-31.332c7.856-6.764,15.583-12.731,21.446-21.441,4.788.701,11.992,1.616,16.681.568,3.147-.703,9.454-7.613,10.692-6.784,5.551,11.107,24.478,32.42,37.523,32.083,17.414-.451,6.763-34.227,3.993-44.086-3.624-12.894-9.331-25.222-12.227-38.354,19.759-30.45,43.102-69.836,33.012-107.431-20.802-77.508-138.606-136.209-207.201-84.636-13.485,10.138-24.428,23.879-35.703,36.237-10.83-4.249-22.089-6.883-33.862-5.802-4.789.44-10.589,3.357-14.898,2.94-7.915-.766-26.772-8.45-36.196-10.878-109.986-28.334-192.953-31.615-273.936,56.908-43.531,47.584-64.437,97.846-96.314,151.686-10.472,17.686-26.473,32.323-28.948,53.052l-14.224,24.276ZM897,177c19.115-20.105,54.21-45.528,47.759-77.261-6.736-33.134-58.949-37.641-78.782-14.262-6.361,7.498-9.136,17.039-10.976,26.517l26.996,4.01c1.277-14.295,6.708-23.704,22.51-22.003,11.884,1.279,17.548,13.183,13.983,23.991-6.589,19.973-45.288,44.984-58.489,62.509v18.5h86v-22h-49ZM790,111h-25l27.921,41.354-30.921,45.646h25c5.232-9.388,10.854-18.725,16.769-27.698.469-.711-.294-1.726,1.72-1.308l18.011,29.006h24.5l-30.832-46.337,27.832-40.663h-24l-15.5,24.981-15.5-24.981Z"/>
  <path class="cls-5" d="M0,610c42.857-6.392,85.626-14.381,128.628-19.872,79.376-10.137,178.153-17.364,255.365,5.384,3.939,1.161,28.675,9.043,30.003,10.504,1.378,1.516-.501,1.737-1.245,2.284-3.661,2.69-14.845,1.989-20.146,2.805-3.099.477-15.944,2.939-17.597,4.403-2.11,1.868-.085,3.179,1.498,4.489,9.197,7.609,59.884,23.97,71.892,23.9,1.686-.01,3.688-1.25,5.598-.901.37-2.424-2.514-3.425-4.301-4.189-16.185-6.913-41.255-7.803-57.941-17.059l-9.748-4.737c18.195-.777,38.353-2.207,56.544-1.058,48.268,3.047,113.548,66.339,137.867,106.133,8.788,14.38,24.193,47.209,19.901,63.731-1.766,6.798-15.337,13.711-21.674,16.348-1.052.437-.959,1.415-2.17-.135-4.25-57.653-55.516-94.392-103.47-117.042,4.621-10.81,25.439-27.224,16.998-39.486-2.54-3.69-24.757-18.867-29.286-20.718-1.913-.782-4.849-1.399-4.593,1.566.143,1.654,10.096,12.039,12.111,14.92,2.056,2.94,9.635,15.583,9.732,18.335.268,7.592-18.85,20.997-15.461,28.379,1.001,2.18,26.38,14.064,31.169,16.846,28.949,16.815,59.545,41.679,68.823,75.177,2.011,7.261,6.446,28.157,3.367,34.357-26.801,32.525-40.8,61.813-82.344,77.656-43.499,16.588-90.73,20.078-135.513,31.984,3.595-42.838-9.311-84.534-38.031-116.475-6.523-7.254-14.52-15.114-23.35-19.46-1.021.12-.743-1.914-.62-2.051.529-.586,12.4-4.782,14.672-5.839,15.277-7.105,30.012-15.73,46.112-20.888,20.485-6.562,42.039-9.302,63.213-12.786l.996-2.495c-19.393-3.146-39.027,1.157-57.998,4.983-3.024-2.319,22.304-14.717,24.033-15.457,23.794-10.185,54.613-14.227,80.152-10.217,29.959,4.704,69.206,24.749,80.577,54.423,6.889,17.98,4.482,34.613,6.249,53.261,3.09-1.572,3.542-7.369,3.861-10.629,4.389-44.935-20.904-78.471-60.52-96.221-46.388-20.784-104.231-11.324-144.665,18.035l-17.685,13.805c9.935-21.17,25.54-37,45.08-49.41,2.916-1.852,6.147-2.944,9.037-4.991,1.182-.838,2.453-.027,1.877-2.584-26.748,5.029-51.759,28.722-64.516,51.974-1.805,3.289-3.859,11.064-6.09,12.91-2.923,2.42-18.727,8.568-23.422,10.578-17.319,7.414-36.614,12.339-52.322,22.678-8.819,5.804-14.775,7.268-24.322,11.678-15.096,6.973-29.205,14.778-45.328,19.672-23.555,7.15-48.975,5.308-73.49,7.51-22.671,2.036-52.734,5.222-73.225,10.947-3.92,1.095-10.061.694-14.281,2.048v-239ZM444.995,631.995c1.284-1.36-3.912-7.449-5.052-8.438-1.584-1.375-9.86-6.948-10.942-3.04-1.423,4.713,15.289,12.223,15.994,11.477ZM151.995,782.995c.362-1.807-.89-2.486-2.058-3.432-5.156-4.176-14.229-8.534-20.254-12.746-22.6-15.8-46.459-35.588-65.198-55.802-8.792-9.484-16.646-21.769-25.287-30.713-6.966-7.21.645,6.751,2.28,9.72,9.555,17.351,30.225,42.385,45.021,54.979,18.608,15.839,40.755,34.134,65.495,37.994ZM272.803,770.172l-72.793-71.172c2.621,8.354,10.075,16.779,15.594,23.896,9.701,12.51,38.594,46.849,52.687,51.324,3.743,1.189,6.466-.606,4.513-4.048Z"/>
  <path class="cls-7" d="M0,437l14.224-24.276c2.475-20.729,18.476-35.366,28.948-53.052,31.877-53.84,52.783-104.102,96.314-151.686,80.983-88.523,163.95-85.242,273.936-56.908,9.424,2.428,28.281,10.112,36.196,10.878,4.31.417,10.11-2.5,14.898-2.94,11.773-1.081,23.032,1.553,33.862,5.802,11.275-12.357,22.218-26.098,35.703-36.237,68.596-51.573,186.399,7.129,207.201,84.636,10.09,37.595-13.252,76.981-33.012,107.431,2.896,13.131,8.603,25.459,12.227,38.354,2.771,9.859,13.421,43.636-3.993,44.086-13.045.338-31.972-20.976-37.523-32.083-1.239-.829-7.546,6.081-10.692,6.784-4.689,1.048-11.893.133-16.681-.568-5.863,8.71-13.59,14.677-21.446,21.441l-.158,31.332c7.91-.22,16.538,5.205,20.828,11.673,2.155,3.248,4.126,11.737,5.42,13.085,3.309,3.449,12.654,4.958,17.209,12.285,4.672,7.516-.539,11.898.668,16.257.306,1.104,7.444,6.349,9.282,8.794,4.054,5.393,6.864,13.191,3.802,19.634-.749,1.575-3.439,3.345-3.169,4.665.346,1.69,13.077,8.274,14.455,11.597,4.958-5.143,10.981-10.736,17.812-13.172,18.937-6.752,22.249,7.48,32.174,19.203,3.343,3.949,19.619,23.142,22.533,24.467,2.497,1.135,12.988.967,17.208,1.792,4.712.921,9.029,2.818,13.459,4.541l46.822,25.179c5.948-18.421,5.953-39.713,32.167-30.167,30.389,11.066,44.639,60.534,42.309,89.659-.551,6.888-4.253,15.473-4.662,21.147-.518,7.179,2.48,19.833,2.72,27.827.977,32.644-7.75,74.5-29.071,100.012-5.05,6.043-12.063,10.538-15.97,17.52,14.198,1.753,30.233,3.078,43.783,7.727,8.265,2.835,17.868,8.069,5.004,13.571-16.09,6.882-50.147,10.056-68.295,11.705-66.955,6.082-136.989,4.031-204.033,2.049-28.18-.833-57.995-5.818-85.674,1.243-21.887,5.583-28.956,16.535-45.888,29.112-46.65,34.652-103.93,37.895-158.91,50.09-17.229,3.822-48.458,15.005-64.478,13.505-5.933-.556-10.386-3.149-17.044-3.051-11.184.164-27.519,1.87-38.955,3.069-26.556,2.783-48.52,14.403-74.977,16.05-36.571,2.277-73.357,3.773-110.073,3.982l-56.459-4.041v-11c.667-.005,1.333.007,2,0,30.983-.346,64.829,7.096,96.541,4.041l16.459-2.041c8.704-.242,17.318-.638,26-1,9.803-.409,20.204-.303,30-1,5.096-.362,8.31-1.557,13-3l50-15c5.837-.718,12.714-.118,19-1,15.186-2.131,30.187-6.612,45.314-9.186.861-.159,1.281-.636,1.555-1.445.707-2.086.349-14.767.118-17.856-1.531-20.494-10.536-44.279-22.987-60.513-3.385-5.697-4.568-7.224-9-12-4.454-6.603-10.685-13.524-18-17-5.925-5.148-4.804-5.492-12.994-3.486-18.426,4.514-36.546,15.191-54.006,22.486l-18.995,6.99,29.995,7.01c.299.425,1.175,1.877,1,1.99-8.975,1.399-17.107-.079-26-.99-9.406-.963-18.934-2.694-28.459-3.041-47.467-1.731-94.091,7.248-140.541,15.041v-10c4.22-1.354,10.36-.953,14.281-2.048,20.491-5.725,50.553-8.911,73.225-10.947,24.515-2.202,49.935-.36,73.49-7.51,16.123-4.894,30.232-12.699,45.328-19.672,9.547-4.41,15.504-5.874,24.322-11.678,15.709-10.338,35.003-15.263,52.322-22.678,4.695-2.01,20.499-8.158,23.422-10.578,2.23-1.847,4.285-9.621,6.09-12.91,12.756-23.252,37.767-46.945,64.516-51.974.576,2.557-.695,1.746-1.877,2.584-2.89,2.047-6.122,3.14-9.037,4.991-19.54,12.41-35.145,28.24-45.08,49.41l17.685-13.805c40.434-29.36,98.277-38.819,144.665-18.035,39.616,17.75,64.91,51.286,60.52,96.221-.318,3.261-.771,9.057-3.861,10.629-1.767-18.648.64-35.281-6.249-53.261-11.371-29.675-50.617-49.719-80.577-54.423-25.539-4.01-56.357.032-80.152,10.217-1.728.74-27.056,13.138-24.033,15.457,18.97-3.826,38.605-8.129,57.998-4.983l-.996,2.495c-21.175,3.484-42.728,6.224-63.213,12.786-16.1,5.157-30.835,13.783-46.112,20.888-2.272,1.057-14.143,5.253-14.672,5.839-.123.136-.402,2.17.62,2.051,8.83,4.345,16.827,12.206,23.35,19.46,28.72,31.941,41.626,73.638,38.031,116.475,44.783-11.906,92.014-15.395,135.513-31.984,41.545-15.843,55.543-45.132,82.344-77.656,3.079-6.199-1.356-27.096-3.367-34.357-9.278-33.498-39.874-58.362-68.823-75.177-4.789-2.782-30.168-14.665-31.169-16.846-3.39-7.382,15.728-20.788,15.461-28.379-.097-2.752-7.676-15.395-9.732-18.335-2.015-2.881-11.968-13.266-12.111-14.92-.256-2.965,2.68-2.348,4.593-1.566,4.529,1.851,26.747,17.028,29.286,20.718,8.441,12.263-12.377,28.677-16.998,39.486,47.954,22.651,99.219,59.389,103.47,117.042,1.211,1.55,1.119.572,2.17.135,6.338-2.636,19.908-9.55,21.674-16.348,4.292-16.522-11.113-49.351-19.901-63.731-24.32-39.794-89.599-103.085-137.867-106.133-18.191-1.148-38.348.282-56.544,1.058l9.748,4.737c16.685,9.256,41.756,10.147,57.941,17.059,1.787.763,4.671,1.764,4.301,4.189-1.911-.349-3.913.891-5.598.901-12.008.07-62.695-16.291-71.892-23.9-1.583-1.31-3.607-2.621-1.498-4.489,1.653-1.463,14.498-3.925,17.597-4.403,5.301-.816,16.486-.115,20.146-2.805.744-.547,2.624-.767,1.245-2.284-1.328-1.461-26.064-9.343-30.003-10.504-77.212-22.748-175.989-15.521-255.365-5.384-43.001,5.492-85.771,13.481-128.628,19.872v-10l121.007-19.004c.447-5.248-3.946-8.954-5.271-13.727-23.375-11.498-48.239-16.179-74.286-16.315-3.139-.016-5.842,1.148-8.943,1.133-3.084-.014-9.543-1.177-5.477-4.558,4.539-3.774,35.537-4.081,42.455-3.514,15.557,1.275,29.861,8.483,44.51,12.979l-3.153-29.842c-16.496-7.777-32.716-16.912-46.355-29.145l-1.473-.006c-5.775,11.478-15.396,23.81-25,32.512-3.879,3.515-15.924,13.005-20.292,14.707-3.812,1.485-7.712,1.823-4.767-2.766,2.517-3.922,15.98-14.393,20.559-19.441,1.861-2.052,10.443-11.704,10.496-13.504l-28.298-2.722c-4.101-.911-6.166-5.788-3.212-5.788h34.5c.352-1.62-.554-2.042-1.469-3.031-3.035-3.279-8.639-6.722-12.057-9.943-11.269-10.619-22.947-23.4-28.486-38.019l-4.987,4.993v-18ZM682,149.99c-16.626-16.074-40.974-26.237-63.754-29.736-9.175-1.409-26.853-2.505-35.814-1.334-1.815.237-1.237,1.748-2.152,2.027-3.059.935-7.661.037-10.322.509-18.872,3.349-40.561,21.971-52.984,36.017-1.842,2.082-7.828,8.696-7.723,10.851.295,6.047,20.197,35.586,24.934,41.99,2.661,3.597,5.803,7.967,8.788,11.212,1.274,1.385,7.746,8.4,9.013,7.471,17.851-36.087,52.808-76.938,95.643-80.869,11.577-1.063,22.931.703,34.371,1.861ZM61,404.5c-.604-4.795.439-10.575,0-15.5,4.495,5.194,5.676,13.408,8.533,19.967,9.414,21.612,24.409,39.101,45.457,50.033l7.748-37.713c-1.075-3.335-3.821-5.291-4.506-9.019-2.051-11.168,4.68-37.155,7.257-49.278,1.59-7.479,6.796-21.224,7.187-27.619.388-6.336-5.142-21.28-5.717-29.829-.896-13.3.375-38.081,7.515-49.567.907-1.459,1.214-3.385,3.521-2.968-3.743,16.958-3.894,33.909-.985,50.995.216.312,1.192-.511,1.501-.989,2.883-4.445,5.993-24.363,7.981-31.019,3.348-11.209,10.244-33.159,16.674-42.326,1.105-1.576,2.578-3.87,4.828-3.661l-15.508,57.982-21.322,103.835c32.562,21.419,71.823,35.535,110.502,41.012,10.359,1.467,20.889,3.13,31.376,1.708,1.509-1.008,9.908-31.869,9.858-34.934-.117-7.153-6.078-28.806-8.402-36.606-2.432-8.163-6.305-15.763-8.49-23.995,1.079.812,3.064,2.674,3.813,3.632,10.828,13.839,11.473,24.758,17.077,39.969.507,1.376-.358,1.706,2.089,1.391,3.325-8.879,8.382-16.862,11.76-25.752,20.113-52.932,18.849-128.983-40.067-155.428-2.397-1.076-12.868-3.993-13.676-4.836-2.498-2.605,5.409-2.086,6.533-2.02,18.622,1.083,36.654,15.155,47.278,29.721,24.618,33.752,23.359,81.256,14.194,120.31l10.171-18.314c12.977-31.605,14.925-77.937,2.583-109.943-2.04-5.291-6.041-10.097-6.753-15.737,11.902,10.885,18.093,29.092,20.699,44.79,5.816,35.031.218,73.42-18.688,103.731-6.683,10.715-19.391,22.064-24.195,31.805-11.144,22.596-12.072,57.188-21.352,80.648-3.254,8.227-9.042,5.277-10.968,8.032-.586.837-2.998,9.095-2.428,9.913,21.734,4.901,43.903,10.159,66.411,9.071,17.536-.848,40.393-3.537,57.882-6.118,7.041-1.039,10.514-1.277,16.15-5.85,14.903-12.092,22.225-30.34,31.673-46.327,1.923-3.254,12.549-17.745,12.823-19.182.398-2.087-.341-1.3-1.52-1.49-2.413-.389-8.728-1.335-10.473-.522l-51.774,41.262c-5.037.801-32.93-5.781-34.177-9.396-.394-1.144.008-2.327.355-3.417,1.342-4.22,18.8-16.571,23.1-20.92,11.863-12.001,19.651-31.082,24.392-46.927-4.25-1.097-8.326-3.831-12.379-5.143-9.238-2.989-18.923-2.87-27.56-5.44-5.499-1.636-4.328-4.654-3.961-10.007,1.084-15.815,8.974-42.531,13.714-58.279,13.624-45.262,30.378-83.371,64.246-116.796.87-.858,4.574-1.774,3.018-3.423-.924-.979-22.439-6.822-25.782-7.729-110.137-29.902-191.412-28.451-269.188,62.242-39.762,46.365-60.225,92.521-89.856,144.144-4.761,8.295-22.148,31.155-23.083,37.915-2.112,15.28,11.636,36.294,20.939,47.886,16.573,20.653,38.188,37.931,61.962,49.527-.469-11.86,1.389-23.606,2.914-35.326-19.679-10.853-38.78-24.923-47.762-46.316-1.551-3.695-4.684-12.22-5.142-15.858ZM701.995,171.995c-1.446,1.598-6.892-8.449-7.997-9.493-4.552-4.297-16.387-6.485-22.64-7.36-55.908-7.826-88.985,33.696-116.311,75.357,42.713,36.618,104.025,44.03,145.453,82.483,2.563.032,22.49-38.149,24.674-43.309,11.493-27.153,12.856-46.831-.653-73.694-6.158-12.246-16.202-25.012-26.511-33.979-.077,2.146,5.535,8.282,3.985,9.995ZM492.999,172.011c-54.369-19.356-84.298,35.466-101.467,77.021-12.871,31.152-22.804,64.77-26.606,98.372.888,3.384,46.808-.863,52.571,11.615,2.816,6.098-5.429,4.998-8.362,8.617-2.093,2.582-8.774,19.435-10.335,23.665-.46,1.247-1.083,2.266-.79,3.7l30.819-18.588c-11.803-46.525-10.63-99.379,6.687-144.396,5.188-13.487,19.543-41.644,31.531-49.469,8.411-5.49,15.101.679,18.917-1.006,2.296-1.013,5.172-7.417,7.035-9.531ZM511.994,192.996l-8.489-18.991c-7.144,8.228-13.442,17.416-18.505,26.985,8.738-4.032,16.599-11.51,26.993-7.994ZM486,213c-7.015,6.999-11.634,19.439-14,29-.652,2.634-.603,4.648-1,7-1.515,8.966-3.211,12.747,0,22,2.217,6.39,4.567,9.216,10.98,11.5-2.896,4.5-7.408,3.982-11.98,2.5-3.403-3.239-5.21-5.11-6.73-9.774-6.965-21.375,3.323-51.762,17.725-68.216-5.37.82-16.701-.203-21.301,1.183-2.123.64-3.429,3.686-3.694,5.807-7.224,9.312-13.62,27.512-17,39-6.825,23.199-11.779,60.239-8,84,1.573,9.891,3.14,10.374,12.999,12.99-4.187-17.795,1.268-38.464,10.483-54.008,12.26-20.682,5.045,2.88,3.834,9.834-.971,5.579-1.988,11.547-2.316,17.184-.966,16.595,1.553,33.635,4,50,.688,4.604,1.195,9.439,2,14,.93,5.269,2.606,10.565,3.042,15.962.737.639,9.108-1.547,10.958-1.962,4.316-.97,8.669-2.009,13-3,5.941-1.359,12.579-2.142,18-5,.327-.043.672.041,1,0,11.205-1.385,23.12-2.609,34,1,1.698,1.185,3.079,3.088,4.992,3.998-2.565-10.923,9.693-21.663,20.008-21.988-2.636,3.297-6.713,4.767-9.421,8.068-10.903,13.292,1.227,14.514,8.968,21.875,5.001,4.755,7.766,11.994,14.454,15.046,6.433,2.936,9.592,3.362,15-1,.343-.277.723-.657,1-1,5.589-6.908,5.202-15.617,7.699-23.802.976-3.199,3.325-5.74,3.301-9.198,3.651-6.108,16.847-16.763,17-18,3.393-.277,5.927-1.766,9.458-2.042,10.519-.822,24.297,2.812,33.529-.488.962-.344,2.302-.103,2.006-1.458-24.367-11.369-53.144-12.385-74.498-30.007-1.636,1.012.344,2.208,1,3.001,2.281,2.761,4.593,5.846,7.506,7.994,2.126,4.218,3.973,5.637,7,9l1.995,5.995c-3.121.146-5.684.227-8.729-.761-3.32-1.077-15.985-10.89-18.931-13.571-2.159-1.965-4.694-5.797-7.335-7.663-5.645-9.299-6.642-16.989-20-19.012-.344-.479.499-2.426,1-2.988,5.27-1.039,7.833-1.141,13,0,3.45.762,5.857,2.423,8.994,2.506-10.37-14.307-17.032-30.818-23.227-47.271-1.472-1.504-11.661-1.484-14.181-1.15-11.517,1.524-15.24,12.416-24.817-.353-9.869-13.157-1.36-16.959,2.232-29.732,2.651-9.428,4.389-27.626-3-35-11.937-11.914-24.373-3.72-32,8ZM553.995,261.995c-4.909-12.267-7.93-26.516-16.969-36.521-.931-1.03-5.956-6.522-7.022-5.467,1.91,8.297-.478,18.375-2.971,26.527-1.497,4.897-9.215,16.71-2.008,19.955,3.238,1.458,13.778-3.467,18.755-4.209,3.406-.508,6.805-.237,10.215-.285ZM718.99,389.999c-6.162-20.732-10.45-42.376-17.727-62.763-3.327-9.321-4.111-10.1-11.933-16.067-35.042-26.733-84.784-36.758-120.646-63.354l-16.68-12.81c18.924,38.075,23.774,82.606,67.027,101.462,27.361,11.928,60.574,12.773,84.488,34.512,6.57,5.972,7.987,14.172,15.469,19.02ZM629,379c2.272,1.405,6.774,1.472,9.521.982,2.131-.38,1.797-1.416,2.479-1.982s2.019-.84,1.999-1.989l-14.543-1.77c-2.583,1.671-1.765,3.331.544,4.759ZM616,388c-2.035,4.116-5.677,11.005-6.026,15.485-.298,3.815,4.423-2.024,5.026-2.485,5.098-3.898,10.427-7.81,14.996-12.505-3.415-.09-6.614-8.076-8.516-8.489-2.426-.527-4.761,6.202-5.48,7.994ZM454.995,400.995c-2.884-10.608,1.752-19.101-13.259-16.75-13.553,2.122-30.705,10.02-41.626,18.365l-43.104,34.381c8.367-1.264,20.966,6.058,28.34,2.848l43.647-31.857-.495-1.986-21.492,1c-.383-1.67.543-2.022,1.513-2.977,8.865-8.729,34.817-4.289,46.477-3.023ZM271.004,438.001c-40.938-.638-82.459-11.387-119.025-29.479l-22.973-14.516c-.911,12.68-3.703,14.746,6.523,22.97,25.205,20.27,76.974,34.505,108.987,38.009,17.079,1.869,25.815,4.148,26.488-16.984ZM554,413c-7.623-7.334-18.472-14.17-29.448-14.037-12.454.151-52.101,9.236-64.554,13.542-6.911,2.389-4.472,2.533-7.998,7.494-14.986,21.086-24.121,40.905-41,62-9.404,3.493-8.77,17.504-8,26,.35,3.864,2.839,9.617,3.015,12.512.056.918.097,1.46-1.015,1.488-5.576-9.804-9.96-21.565-7.004-32.993-.654.016-1.343-.073-1.996-.007-11.434,1.158-22.96,3.482-34,5-17.43-.044-34.41,4.343-52,3-2.958-.226-7.793-1.533-11-2-32.015-4.662-63.217-15.975-96-7-.326.048-.674-.05-1,0-9.932,1.523-21.197,7.304-31,10-1.268.089-6.704,2.714-3.021-1.521,4.132-4.751,28.591-15.935,35.189-17.806,3.059-.867,5.328-.257,7.831-.673,12.077-2.007,23.223-2.537,35.54-2.042,1.842.074,6.494,1.597,7.373.964.421-.303,3.461-9.562,3.082-9.917-8.312-.548-16.71-1.192-24.996-2.005-.33-.032-.67.031-1,0-34.489-8.285-70.077-16.251-99.49-37.01-3.074,12.126-5.787,24.601-7.51,37.01-.787,5.668-1.524,12.307-2,18-1.388,16.612-1.529,33.387,0,50,1.275,13.852,2.847,28.505,11,40,1.821,2.567,3.166,6.247,7.522,6.047,43.804-5.369,88.762-10.43,133.019-9.089,13.385.406,27.135,2.768,40.459,3.041,2.992.061,6.008-.043,9,0,29.36-8.289,59.049-15.882,88.005-25.495,8.969-2.978,9.971-1.866,18.995-2.505.991-.07,2.009.072,3,0,6.644-.485,15.89-1.366,21-6,10.002-3.907,20.781-13.785,27-22l3-4c.319-.318.671-.77,1-1,3.441-1.502,6.369-1,9.5-1h18c6.954,0,23.545,7.177,32.319,8.682,5.12.878,10.122,2.294,15.181.318,10.527-4.11-6.993-8.524-10.693-10.807-7.375-4.55-11.855-8.188-20.307-12.193-11.621-12.606-31.124-7.051-45-15-.277-.921-1.194-1.831-.997-2.993,3.2-.687,6.126.661,8.997.993,10.013,1.158,20.031,2.537,30,4,9.498,5.015,18.621,10.789,28,16,4.933,2.741,16.383,10.787,21.421,9.987,4.303-.683,10.223-9.129,7.657-12.54-4.999-6.642-13.363-2.824-9.078,5.553.768,1.934,3.201,2.096,4,4-2.95.601-5.309-1.546-8-2-5.102-8.24,2.956-10.659-.093-15.357-9.753-7.154-19.162-15.044-29.011-22.039-8.703-6.181-13.335-8.673-24.446-9.641-2.564-.223-5.834.331-9.45.037-4.702-2.313-10.816-1.994-15.623-3.841-1.666-.64-1.303-2.579-3.377-2.159-.091-.301-.092-1.797,0-2,15.277,1.996,31.251-.092,46,5,13.255,7.41,25.402,19.356,39,26,1.794,2.6,9.803,7.791,12.564,7.968,6.402.411,14.096-6.789,10.256-13.321-1.102-1.875-2.548-1.384-2.82-1.647-12.099-11.707-23.837-18.679-37.315-28.185-4.844-3.416-16.7-14.521-21.324-15.536-.851-.187-2.038.747-2.753.694-.382-.028-1.251-1.736-6.608-1.973-12.659-.56-26.154.403-38-5,.838-3.623.936-1.395,4-2l48,1c11.516,6.965,21.69,18.602,34,26,8.047,7.506,11.813,15.169,22,5,.777-.776,2.867-2.248,2.868-2.436.012-1.417-1.736-6.868-2.636-8.296-2.479-3.937-7.431-5.067-10.232-7.268-9.25-7.269-17.44-16.277-27-23ZM622,430.5c1.539-4.81-1.142-17.694,0-23.5-5.915,4.477-11.487,9.526-16.527,14.973-1.727,1.866-2.209,4.414-3.948,6.052-2.501,2.356-6.27,2.672-9.132,3.878-3.853,1.624-.233,1.833.59,2.829,2.988,3.615,5.796,7.378,8.501,11.214,2.479-2.137,20.125-14.224,20.516-15.446ZM51.995,491.996c-.854-3.905,4.056-8.552,2.54-11.956-15.393-15.913-27.61-34.496-36.035-55.019-1.794,4.649-8.966,12.961-10.098,16.956-.75,2.647,6.789,13.506,8.783,16.339,6.632,9.424,16.395,20.434,25.346,27.654,1.132.913,8.709,6.877,9.465,6.026ZM620,442c-2.121,1.592-3.551,2.663-5,5-3.108,5.013-1.88,8.268-1.995,13.995l5.002-8.538,2.993-2.456c2.19,2.295-1.159,10.553-1.707,13.793-.967,5.723-1.627,11.449-2.293,17.207-.718,6.209-2.551,10.284-.53,17.032,1.663,5.551,8.814,11.549,13.525,5.463-8.772-.165-14.153-8.28-10.995-16.495.323-.84,3.731-5.377,4.938-5.609,1.486-.285,4.615.956,6.062,1.609,1.165,2.576,6.878,7.487,2,7-.932-1.68,1.051-4.244-5.55-4.049-10.417.307,1.18,12.475,3.569,16.03,2.518,1.715,2.686-3.631,2.981-4.98,2.554-4.217,4.622-9.426,6.468-14.032,2.132-5.32,7.945-18.148,8.532-22.968.92-7.561-1.75-14.64-8-19-7.22-5.038-13.241-4.072-20,1ZM633,523c1.414,11.408,13.737,13.25,17,0,3.427-6.087,6.716-13.132,8-20,.146-.317.832-.62,1-1,2.668-6.037,9.55-23.576,8.942-29.424-.507-4.872-9.069-10.22-13.928-10.58-3.272,9.195-5.954,18.9-9.554,27.963-3.981,10.024-12.734,22.759-11.46,33.04ZM612,504c-1.636-4.914-3.927-10.211-4.066-15.494-.241-9.17,6.097-16.189-3.424-22.508-4.971-3.299-6.775-.806-11.509,1.017l4.999,5.985c.982,3.221,2.337,4.082,1.6,8.03-1.02,5.463-5.335,8.92-8.6,12.97-5.28.658-3.83,6.765-4.949,10.551-.986,3.336-2.982,5.792-5.051,8.449-1.805,1.229-9.547,4.686-9.835,5.161-.205.339-.786,6.07-1.165,7.839-.843,3.934-2.014,7.922-2,12-.097.289-.88.635-1,1-5.516,16.833-8.626,35.27-19,50-6.54,3.517-15.21,4.978-22.042,8.458-8.403,4.279-16.694,11.951-25.038,16.962-1.528.918-15.757,7.457-14.917,8.568,10.106,4.482,20.069,11.85,28.894,18.615,36.467,27.953,66.773,63.168,85.604,105.377,3.165-4.194,6.056-8.425,9.974-12.006,1.64-1.499,10.415-7.324,10.525-7.975,8.054-3.547,16.225-6.673,25-8.013l-2-6.987c.17-3.609.091-7.384,0-11,.44-12.707,7.665-17.739,19-21,3.045-.098,9.162-1.211,8.995,2.995-4.941-.552-8.136,1.595-11.995,4.005-.509.318-1.615.214-2.502.959-10.089,8.48-7.169,26.819.502,36.041,6.224,13.561,19.933,25.013,34,30,12.455,4.416,23.925,4.966,35-3,4.853-3.49,5.534-4.996,8-10,5.259-10.673,4.215-15.555-2-25-4.446-6.757-10.045-12.948-14-20-2.182-5.222-5.996-26.314,1.613-27.788,1.843-.357,16.252,4.79,20.181,5.494,23.368,4.183,30.234-4.765,50.195-9.215,21.287-4.746,38.876,3.187,54.998,16.508,7.008-22.903,24.14-36.544,14.786-62.272-5.24-14.412-21.528-23.469-34.102-30.898-12.502-7.387-32.322-19.445-46.672-19.828-2.367-.063-4.856,1.196-6.348,1.034-.446-.049-5.632-3.077-7.652-4.034l-25-26c-2.085-2.987-8.142-15.032-10.688-15.81-6.137-1.875-14.21.847-19.244,4.372-3.905,2.734-8.753,10.316-12.537,10.503-5.086.252-6.4-5.571-9.492-8.603-1.654-1.621-8.316-6.439-10.386-6.249-3.255.299-20.592,20.08-28.623,22.337-6.891,1.937-4.19-3.604-5.063-4.515-.409-.427-4.719.283-6.273-.053-.451-.097-6.719-4.757-7.345-5.333-7.315-6.725-3.623-12.862-5.665-19.384-.452-1.444-5.742-3.117-7.2-4.252-3.232-2.514-4.499-4.909-6.483-8.013ZM667,519c-.422.913-.087,2.269-1.5,2.98l-4.488-3.978-6.502,15.007c6.467-2.82,10.699-9.193,15.49-14.01,1.092-1.098,3.315-1.779,4.495-3.006.918-.954,6.399-7.49,6.505-7.994.751-3.578-2.61-8.467-5-11-3.094-5.439-3.798-7.513-7.177-.677-1.049,2.122-6.618,16.049-6.49,17.202.112,1.01,3.879,4.085,4.667,5.475ZM545.808,529.203c-.929-1.294-27.292-8.556-30.585-8.926-6.768-.761-13.712.07-20.497-1.117-15.697,14.135-33.224,32.897-55.35,35.717-6.407.816-14.081.114-20.642,1.358-17.791,3.373-47.501,13.535-65.502,19.499-1.224.405-4.217.743-4.227,2.257,19.497,1.173,37.177,10.713,55.985,14.52,5.632,1.14,15.387,2.875,20.882,2.916,13.269.099,26.213-12.124,43.39-9.189,10.044,1.716,25.527,18.725,28.066,18.576,4.548-.268,17.887-12.726,23.347-15.639,6.28-3.351,18.462-5.742,23.288-9.712,5.526-4.544,9.095-23.909,11.995-31.009-2.043-3.765-5.385-6.705-7.343-10.568-1.101-2.173-2.464-8.205-2.807-8.682ZM558.989,537.999l1.001-7.999-4.978,2.546c-.358,1.564,3.447,5.991,3.978,5.452ZM890.01,718.995c-.158-26.594,23.052-50.503,24.028-76.456.748-19.897-10.623-53.879-26.025-67.051-4.532-3.875-16.597-12.049-22.065-7.038-2.423,2.221-9.385,24.615-8.948,27.976.419,3.218,5.95,7.576,7.169,10.906l6.819,13.661c4.439-14.365.405-28.534.023-42.992,1.193-1.641,6.771,10.222,7.176,11.313,13.617,36.708-14.264,65.391-25.203,98.17-3.846,11.523-6.535,23.44-7.989,35.521-2.614.292-1.58-.043-2.021-1.467-2.941-9.504.226-22.623-.477-32.534-14.314-9.511-28.796-19.035-46.888-16.896-9.651,1.141-19.797,7.68-29.557,9.444-14.184,2.564-29.906.201-43.046-5.546-2.27,20.162,20.972,31.46,23.001,49.489,1.609,14.29-3.623,26.538-15.695,34.318-27.61,17.794-59.169-1.316-77.29-23.334-1.705-2.072-4.624-8.406-6.518-8.586-16.658,1.449-29.111,10.318-38.319,23.792-1.215,1.778-4.231,5.621-4.748,7.282-.632,2.034,3.629,21.761,4.547,22.55.884.76,5.963,1.907,8.041,2.959,15.091,7.634,26.897,22.727,41.665,32.335,17.541,11.413,39.208,20.549,60.32,20.69-7.845-3.879-15.844-7.839-22.901-13.109-1.702-1.271-12.359-8.955-10.104-11.386,1.307-1.409,29.407,17.546,34.458,17.031,28.119,9.718,69.826,10.291,97.21-1.862,6.675-2.962,12.465-7.623,19.321-10.169-3.371,8.849-12.307,12.765-18.99,18.5,8.487-.26,19.07-5.067,26.666-9.333,52.879-29.701,71.859-83.279,67.521-141.682-.069-.936,1.676-7.069-1.436-2.2-6.147,9.616-10.236,20.687-15.547,30.42-.792,1.452-2.789,4.374-4.199,5.286ZM433.004,603.011c-.304,1.928.784,2.657,2.499,2.978,6,1.123,16.122-2.814,21.863-.855,1.984.677,1.73,4.467,3.676,6.324,4.348,4.148,18.955,5.07,23.954,1.027-3.784-5.477-11.722-16.346-18.556-17.416-10.688-1.674-22.931,6.371-33.436,7.942ZM335.768,926.775c2.908-2.426,2.596-26.414,2.273-31.316-2.06-31.236-22.301-70.61-45.027-91.973-3.09-2.905-15.593-13.241-18.908-14.004-4.231-.974-20.473,8.585-26.105,8.529,8.57,6.908,16.989,12.791,24.513,20.975,27.781,30.219,42.575,72.887,37.491,114.01,4.901-1.869,22.684-3.652,25.763-6.221ZM636,812.99c-9.344-7.814-17.347-18.677-29.523-22.088-1.6.028-4.955,6.159-6.985,8.09-6.241,5.936-15.214,8.158-21.492,13.998h58ZM815.995,837.01c-1.404-.719-2.668.633-1.99.98,1.404.719,2.668-.633,1.99-.98ZM720.995,838.01c-1.404-.719-2.668.633-1.99.98,1.404.719,2.668-.633,1.99-.98Z"/>
  <path class="cls-3" d="M250,813c6.135,5.33,12.449,11.018,18,17,4.432,4.776,5.615,6.303,9,12,14.143,23.806,23.13,49.131,22.046,77.343-.535,2.243-39.55,8.671-44.587,9.632-2.188.418-3.376-.944-1.459,2.025-6.286.882-13.163.282-19,1-15.806,1.945-34.587,10.259-50,15-4.69,1.443-7.904,2.638-13,3-1.04-1.658-3.794-.996-5.486-1.017-6.978-.086-14.09-.216-21.06.017-1.926.064-4.013-1.019-3.455,2-8.682.362-17.296.758-26,1-34.96.97-70.011-.431-105.453-3.037-2.131-.157-5.952-.608-7.547,1.037-.667.007-1.333-.005-2,0v-90c29.607-3.479,58.733-10.746,88.508-12.992,22.303-1.683,44.726-1.227,66.951.032,4.438.251,9.139-.012,13.541-.041,8.893.911,17.025,2.389,26,.99.175-.113-.701-1.565-1-1.99-1.195-1.701-1.286-1.577-3.176-2.309-6.401-2.48-14.954-3.961-21.824-4.7,2.731-2.82,8.213-3.752,12.214-5.286.704-.27,4.304-.696,1.786-1.704,17.459-7.295,35.579-17.972,54.006-22.486,8.191-2.006,7.069-1.662,12.994,3.486ZM189,908c-6.779,1.09-11.99,2.44-18,6-1.026.607-8.69,5.484-6.995,6.995,3.961.5,7.228-.276,10.995-.995.87,1.776,3.462.783,4.866.38,4.266-1.225,16.144-6.2,19.217-8.955,1.103-.989-.104-1.357-.083-1.425.288-.928,1.188-1.831.997-2.993-4.014-.676-7.394.414-10.997.993Z"/>
  <path class="cls-4" d="M0,455l4.987-4.993c5.539,14.619,17.217,27.4,28.486,38.019,3.418,3.221,9.022,6.664,12.057,9.943.916.989,1.822,1.411,1.469,3.031H12.5c-2.954,0-.889,4.877,3.212,5.788l28.298,2.722c-.053,1.8-8.635,11.452-10.496,13.504-4.579,5.048-18.042,15.519-20.559,19.441-2.946,4.589.955,4.251,4.767,2.766,4.369-1.701,16.414-11.192,20.292-14.707,9.603-8.702,19.225-21.034,25-32.512l1.473.006c13.639,12.233,29.859,21.369,46.355,29.145l3.153,29.842c-14.649-4.497-28.954-11.704-44.51-12.979-6.917-.567-37.916-.26-42.455,3.514-4.066,3.381,2.393,4.544,5.477,4.558,3.101.014,5.804-1.15,8.943-1.133,26.047.135,50.911,4.817,74.286,16.315,1.325,4.773,5.717,8.479,5.271,13.727L0,600v-145Z"/>
  <path class="cls-6" d="M169,847c-4.402.029-9.103.292-13.541.041-22.225-1.259-44.648-1.715-66.951-.032-29.775,2.246-58.902,9.513-88.508,12.992v-1c46.45-7.794,93.075-16.772,140.541-15.041,9.525.347,19.053,2.078,28.459,3.041Z"/>
  <path class="cls-7" d="M897,177h49v22h-86v-18.5c13.2-17.526,51.899-42.536,58.489-62.509,3.566-10.808-2.099-22.712-13.983-23.991-15.803-1.7-21.233,7.708-22.51,22.003l-26.996-4.01c1.841-9.478,4.616-19.02,10.976-26.517,19.833-23.378,72.046-18.871,78.782,14.262,6.452,31.733-28.644,57.156-47.759,77.261Z"/>
  <path class="cls-7" d="M790,111l15.5,24.981,15.5-24.981h24l-27.832,40.663,30.832,46.337h-24.5l-18.011-29.006c-2.015-.418-1.251.597-1.72,1.308-5.916,8.973-11.537,18.31-16.769,27.698h-25l30.921-45.646-27.921-41.354h25Z"/>
  <path class="cls-7" d="M151.995,782.995c-24.741-3.86-46.887-22.155-65.495-37.994-14.796-12.594-35.467-37.628-45.021-54.979-1.635-2.969-9.246-16.931-2.28-9.72,8.641,8.944,16.495,21.229,25.287,30.713,18.739,20.214,42.598,40.002,65.198,55.802,6.025,4.212,15.098,8.57,20.254,12.746,1.168.946,2.419,1.626,2.058,3.432Z"/>
  <path class="cls-7" d="M272.803,770.172c1.953,3.443-.77,5.237-4.513,4.048-14.093-4.476-42.987-38.815-52.687-51.324-5.519-7.117-12.973-15.543-15.594-23.896l72.793,71.172Z"/>
  <path class="cls-7" d="M444.995,631.995c-.705.746-17.417-6.765-15.994-11.477,1.081-3.908,9.357,1.665,10.942,3.04,1.14.989,6.336,7.078,5.052,8.438Z"/>
  <path class="cls-8" d="M61,404.5c.458,3.638,3.591,12.163,5.142,15.858,8.982,21.393,28.083,35.463,47.762,46.316-1.525,11.72-3.383,23.466-2.914,35.326-23.774-11.596-45.39-28.875-61.962-49.527-9.303-11.593-23.051-32.606-20.939-47.886.934-6.76,18.321-29.619,23.083-37.915,29.631-51.623,50.094-97.779,89.856-144.144,77.776-90.694,159.051-92.144,269.188-62.242,3.343.908,24.858,6.751,25.782,7.729,1.556,1.649-2.148,2.565-3.018,3.423-33.868,33.425-50.623,71.534-64.246,116.796-4.74,15.748-12.629,42.464-13.714,58.279-.367,5.352-1.538,8.37,3.961,10.007,8.637,2.57,18.322,2.45,27.56,5.44,4.054,1.312,8.129,4.046,12.379,5.143-4.741,15.844-12.529,34.926-24.392,46.927-4.299,4.349-21.757,16.7-23.1,20.92-.347,1.09-.749,2.273-.355,3.417,1.247,3.615,29.14,10.197,34.177,9.396l51.774-41.262c1.745-.814,8.06.133,10.473.522,1.179.19,1.917-.597,1.52,1.49-.274,1.438-10.9,15.928-12.823,19.182-9.448,15.987-16.769,34.235-31.673,46.327-5.636,4.573-9.109,4.811-16.15,5.85-17.489,2.581-40.346,5.27-57.882,6.118-22.509,1.088-44.677-4.17-66.411-9.071-.571-.818,1.842-9.075,2.428-9.913,1.926-2.755,7.714.195,10.968-8.032,9.279-23.46,10.208-58.052,21.352-80.648,4.804-9.741,17.512-21.09,24.195-31.805,18.906-30.311,24.504-68.7,18.688-103.731-2.606-15.699-8.798-33.906-20.699-44.79.712,5.64,4.713,10.446,6.753,15.737,12.342,32.007,10.394,78.338-2.583,109.943l-10.171,18.314c9.165-39.054,10.424-86.558-14.194-120.31-10.624-14.566-28.656-28.637-47.278-29.721-1.124-.065-9.031-.585-6.533,2.02.808.843,11.279,3.759,13.676,4.836,58.916,26.445,60.18,102.495,40.067,155.428-3.378,8.89-8.435,16.874-11.76,25.752-2.446.315-1.582-.015-2.089-1.391-5.604-15.211-6.249-26.13-17.077-39.969-.75-.958-2.735-2.821-3.813-3.632,2.185,8.232,6.058,15.832,8.49,23.995,2.324,7.799,8.285,29.453,8.402,36.606.05,3.066-8.349,33.927-9.858,34.934-10.486,1.422-21.016-.241-31.376-1.708-38.679-5.478-77.94-19.594-110.502-41.012l21.322-103.835,15.508-57.982c-2.251-.209-3.723,2.086-4.828,3.661-6.43,9.167-13.325,31.117-16.674,42.326-1.988,6.656-5.098,26.574-7.981,31.019-.31.478-1.285,1.301-1.501.989-2.909-17.086-2.758-34.037.985-50.995-2.307-.416-2.614,1.509-3.521,2.968-7.14,11.486-8.41,36.267-7.515,49.567.576,8.549,6.106,23.492,5.717,29.829-.392,6.395-5.597,20.141-7.187,27.619-2.577,12.123-9.309,38.11-7.257,49.278.685,3.728,3.431,5.684,4.506,9.019l-7.748,37.713c-21.048-10.932-36.043-28.421-45.457-50.033-2.857-6.559-4.037-14.773-8.533-19.967.439,4.925-.604,10.705,0,15.5Z"/>
  <path class="cls-3" d="M612,504c1.984,3.104,3.251,5.499,6.483,8.013,1.458,1.134,6.748,2.808,7.2,4.252,2.042,6.522-1.65,12.659,5.665,19.384.626.576,6.894,5.235,7.345,5.333,1.555.336,5.864-.374,6.273.053.873.911-1.829,6.452,5.063,4.515,8.031-2.257,25.369-22.038,28.623-22.337,2.07-.19,8.733,4.628,10.386,6.249,3.092,3.031,4.406,8.854,9.492,8.603,3.784-.187,8.632-7.769,12.537-10.503,5.035-3.525,13.108-6.246,19.244-4.372,2.546.778,8.603,12.823,10.688,15.81,4.807,6.884,18.021,22.694,25,26,2.02.957,7.206,3.985,7.652,4.034,1.492.163,3.981-1.097,6.348-1.034l15.693,4.807c17.962,10.635,54.669,24.205,62.786,44.213,9.057,22.325.362,31.266-8.671,50.288-1.505,3.168-3.221,7.231-3.819,10.693-1.394,1.201-9.54-5.591-11.684-6.807-42.418-24.052-52.552,5.25-89.677,1.677-5.568-.536-21.469-6.337-24.106-5.924-4.389.689-4.571,7.434-5.593,10.324-.297.839-1.46.608-1.67,1.244-1.009,3.054,1.625,3.911,1.689,4.187,1.484,6.423.437,6.853,4.051,13.297,3.955,7.052,9.554,13.243,14,20,4.786,8.371,5.204,15.897,2,25-2.466,5.004-3.147,6.51-8,10-2.705-3.248-3.32,1.334-5.233,2.253-2.668,1.282-7.275,1.792-10.27,2.766l-19.497-2.019c-14.067-4.987-27.776-16.439-34-30-3.856-8.402-7.14-17.995-4.588-26.995,1.29-4.548,3.009-7.021,6.588-10.005,3.859-2.41,7.054-4.557,11.995-4.005.167-4.206-5.95-3.093-8.995-2.995-10.247.328-20.384,8.607-20.007,19.481.056,1.625,1.005,1.427,1.007,1.519.091,3.616.17,7.391,0,11-.05,1.061-1.808,3.27.007,5.99-8.46,1.259-16.169,4.9-23.973,8.114.12.419.98.812.966.896-.11.651-8.885,6.476-10.525,7.975-3.918,3.58-6.809,7.811-9.974,12.006-18.83-42.209-49.137-77.424-85.604-105.377-8.825-6.765-18.788-14.133-28.894-18.615-.839-1.111,13.389-7.65,14.917-8.568,8.343-5.011,16.635-12.683,25.038-16.962,6.832-3.479,15.502-4.941,22.042-8.458,1.297-.697,3.114-1.643,3.948-2.828,5.815-8.254,12.713-31.978,15.345-42.391.369-1.459,1.667-3.768-.293-4.781.12-.365.903-.711,1-1,1.101-3.275,4.74-8.629,2-12,.379-1.769.96-7.5,1.165-7.839.288-.475,8.029-3.932,9.835-5.161,3.414-2.323,6.186-4.905,6.939-9.556,1.092-6.745-1.364-3.953,3.061-9.444,3.264-4.051,7.58-7.507,8.6-12.97.737-3.948-.618-4.809-1.6-8.03-.023-.075.958-.726.79-1.345-.477-1.758-3.27-2.313-2.786-4.645,3.306-1.043,5.113-1.6,8.371.124,7.146,3.78,2.882,9.479,2.589,15.33-.495,9.905-.114,13.478,5.035,21.535ZM699,553c-.135.17-1.926.024-2.525.94-1.652,2.528.562,7.158,2.525,9.06,4.639,4.495,14.989,1.839,20-1,.123-.07,1.077-1.298,2-2,.112-.085,2.249,1.621,1.995-1.995-5.125-.596-20.845,4.037-22.799-1.703-1.567-4.604.919-2.246,3.989-3.524,1.744-.726,3.834-2.094,4.815-3.778,3.414-3.123,4.831-9.556,5-14,.005-.134,1.143-.76.968-1.393-1.044-3.785-5.547-.189-6.973,1.888-3.07,4.473-5.405,12.99-8.995,17.505ZM581,546c.01-.089.972-.438,1.022-1.467-4.116-1.117-4.195,4.394-4.005,7.964,1.332,25.05,7.72,56.018,16.53,79.457,2.388,6.352,5.218,13.782,9.453,19.047,6.09,9.956,26.461,27.812,38.501,27.999,2.318.036,7.873-.86,4.21-3.24-4.769-3.099-11.33-4.726-16.378-7.593-12.519-7.113-20.442-17.944-25.334-31.166-10.36-27.999-14.935-56.954-21.704-85.847-.412-1.76.536-3.743-2.296-3.153-.06-.605-.066-1.398,0-2ZM781,596c-3.438,11.61-3.022,16.213-11.953,25.547-2.131,2.228-13.285,8.86-9.037,12.456.757.64,16.585-5.781,18.525-6.975,1.746-1.075,2.339-2.137,3.465-3.027,8.03-6.352,11.483-11.067,14-21,2.775,1.791,1.694.973,2.14-1.344,1.448-7.511,1.742-20.654-7.14-23.656-.864-.292-2.722-1.011-3.387-.84-2.605.674-5.619,15.482-6.613,18.84ZM750,581c-4.65,5.683-8.122,8.085-8.986,16.514-.15,1.465-1.029,18.612,2.975,15.482.84-.657,3.352-15.4,7.011-19.996l6.512-3.078c2.399.664,5.56-.017,7.728.34,1.834.302,4.419,3.179,5.76,1.738.202-2.068-.804-3.493-2-5-4.433-5.586-13.069-3.305-13.926-4.128-.514-.493,1.08-2.402-1.998-3.433-4.521-1.514-2.616.999-3.076,1.561ZM679,710c-2.581,4.086-.857,15.179,1.067,19.993.411-.143.845-1.007.933-.993,1.496.228,2.228,4.036,3.274,4.726,1.366.901,5.375.859,7.213,1.291.493.194.561.505.512.982-.015.151-.892.514-1.014.98,5.81.027,8.837.974,14.014-1.98,4.088-2.333,9.289-7.151,12-11,3.973-.352,4.37,10.468,4.002,12.459-.614,3.324-4.195,4.809-6.787,6.286-1.483.845-3.336-.839-1.214,2.255-5.246,1.521-10.719.836-15.999.006.828,1.15-.177,4.779,0,4.952.313.304,7.435,1.947,8.491,2.049,23.778,2.304,33.52-28.616,10.2-39.199-11.594-5.261-25.738-2.811-27.268-19.864-9.968-1.165-10.257,2.814-9.375,11.506.454,4.476,2.533,1.461-.049,5.55ZM669,722c.27.367,4.165,1.672,4.504,3.996.841.051.6-1.357.496-1.996-.211-1.295-4.859-12.283-5.689-13.739-2.482-4.353-4.83-1.188-4.154,2.984.34,2.098,3.406,6.829,4.842,8.754Z"/>
  <path class="cls-3" d="M554,413c9.56,6.723,17.75,15.731,27,23,.333,1.797-.184,3.026-2.003,1.314-.267-.252.674-1.693-.985-1.306-.989,3.775-6.532,7.02-5.867,11.273.258,1.65,2.274,2.777,1.844,4.719l-4.99-3c-12.31-7.398-22.484-19.035-34-26-2.417-1.462-1.958-1.752-5.456-2.048-10.488-.887-32.714-.892-42.544,1.048-3.064.605-3.162-1.623-4,2-.156.675-1.857.47.698,1.79,5.831,3.011,17.056,3.913,23.754,4.258,4.004.206,9.888.596,13.547-1.048,5.356.237,6.226,1.945,6.608,1.973.715.053,1.902-.88,2.753-.694,4.624,1.015,16.481,12.119,21.324,15.536,13.478,9.506,25.216,16.478,37.315,28.185,2.622,3.23,2.865,9.353-1.072,11.575-1.153.651-1.829-.591-1.928-.575-9.222-4.606-8.546-7.93-6.005-16.995-1.546-1.796-8.661,7.924-4.995,13.995-.013,1.345.443,2.312-.983,1.989.332-2.972-3.199-2.101-5.017-2.989-13.598-6.644-25.745-18.59-39-26-4.285-2.396-10.257-5-15.5-5h-21c-1.694,0-8.183-2.912-9.5,0-.092.203-.091,1.699,0,2,1.669,5.5,14.415,5.627,19,6,3.615.294,6.886-.26,9.45-.037,11.111.968,15.743,3.459,24.446,9.641,9.849,6.995,19.258,14.885,29.011,22.039,3.049,4.699-5.01,7.118.093,15.357,1.005,1.623,1.832,1.481,3.01,2.5-.156,3.29-14.137-6.27-15.127-6.882-.67-.414-3.582-2.294-3.883-.617-9.379-5.211-18.502-10.985-28-16l1.013-.978c-8.471-1.577-17.054-3.058-25.645-3.911-1.644-.163-4.332-.828-5.368.889-2.871-.332-5.797-1.68-8.997-.993-.197,1.161.72,2.072.997,2.993.02.067-1.116.336-.062,1.398,4.202,4.234,25.215,5.559,32.503,7.661,4.575,1.32,8.337,3.94,12.559,5.941,8.451,4.005,12.931,7.644,20.307,12.193,3.701,2.283,21.221,6.696,10.693,10.807-6.075-1.572-12.71-1.077-18.981-2.429-9.03-1.947-18.113-6.317-27.527-7.562-4.625-.612-17.705-1.546-22.013-1.029-3.318.398-4.048,1.322-6.478,3.021-.329.23-.681.682-1,1-2.122,2.114-1.832,2.457-3,4-6.219,8.215-16.998,18.093-27,22-3.377,1.319-11.01,3.623-14.513,3.987-10.195,1.061-19.998-1.183-29.199,2.462-25.647,10.159-54.368,16.406-81.371,24.189-1.964.566-4.941,1.371-5.918,3.362-2.992-.043-6.008.061-9,0-.727-2.386-2.645-1.864-4.458-2.046-56.312-5.65-114.062-.256-169.928,6.764l-6.614-4.719c-8.153-11.495-9.725-26.148-11-40,3.543.34,1.146-.836,1.076-2.568-.173-4.301-1.076-10.483-1.076-13.932v-17c0-.402.988-2.226,1.074-3.927.187-3.729.538-9.569-1.074-12.573.476-5.693,1.213-12.332,2-18,3.043,1.971,1.578.611,1.968-1.517,2.042-11.156,3.628-22.405,6.043-33.482,18.158,11.68,38.272,20.308,58.976,26.512,13.405,4.017,26.857,7.24,40.013,8.487.33.031.67-.032,1,0,6.781,2.96,15.604,2.712,23.002,3.005.848,11.073-10.79,5.96-17.45,5.952-7.393-.009-15.871.825-23.119,2.025-1.877.311-4.004-1.131-3.433,2.018-2.503.416-4.772-.194-7.831.673-6.598,1.871-31.057,13.055-35.189,17.806-3.683,4.235,1.752,1.609,3.021,1.521,7.866-.55,19.334-5.033,28.018-7.533,1.658-.477,3.551.188,2.982-2.467.326-.05.674.048,1,0,33.838-5.005,58.162,2.698,90.988,7.531,1.527.225,4.019,1.392,5.012-.531,3.207.467,8.042,1.774,11,2l-.518,1.002c17.827,1.309,35.261-1.63,52.518-4.002,11.04-1.518,22.566-3.842,34-5-2.321,5.037,3.393,33.142,9,33,1.112-.028,1.071-.569,1.015-1.488-.176-2.895-2.665-8.648-3.015-12.512,2.015-5.987.354-12.624,2.677-18.823,1.107-2.953,3.423-4.802,5.323-7.177,16.879-21.095,26.014-40.914,41-62,1.448,1.68,2.643-3.397,4.073-4.429,2.916-2.104,21.71-6.13,26.7-7.298,12.423-2.908,39.452-9.39,51.043-6.589,4.697,1.135,15.848,8.267,20.184,11.316ZM468.995,424.005c-8.909-.551-15.968,6.069-20.408,13.081-1.351,2.133-6.401,10.996-.334,7.853l20.742-20.934ZM471.992,455.013c-2.892-.788-6.044-1.836-8.977-.49-1.491.685-12.324,12.206-11.01,13.472,4.487-.332,6.791-4.981,10.081-7.408l9.906-5.574Z"/>
  <path class="cls-2" d="M890.01,718.995c1.41-.912,3.407-3.834,4.199-5.286,5.311-9.733,9.4-20.804,15.547-30.42,3.113-4.869,1.367,1.265,1.436,2.2,4.338,58.404-14.642,111.982-67.521,141.682-7.597,4.267-18.18,9.073-26.666,9.333,6.683-5.735,15.618-9.651,18.99-18.5-6.856,2.545-12.647,7.206-19.321,10.169-27.383,12.154-69.091,11.581-97.21,1.862-5.051.514-33.152-18.44-34.458-17.031-2.255,2.432,8.402,10.116,10.104,11.386,7.057,5.27,15.056,9.23,22.901,13.109-21.113-.141-42.78-9.277-60.32-20.69-14.768-9.609-26.573-24.701-41.665-32.335-2.078-1.051-7.157-2.198-8.041-2.959-.918-.789-5.179-20.516-4.547-22.55.516-1.66,3.533-5.504,4.748-7.282,9.208-13.474,21.661-22.343,38.319-23.792,1.894.18,4.813,6.514,6.518,8.586,18.121,22.018,49.68,41.127,77.29,23.334,12.072-7.78,17.303-20.027,15.695-34.318-2.029-18.029-25.271-29.328-23.001-49.489,13.14,5.748,28.861,8.11,43.046,5.546,9.76-1.764,19.906-8.302,29.557-9.444,18.091-2.14,32.574,7.384,46.888,16.896.703,9.912-2.464,23.03.477,32.534.441,1.424-.593,1.758,2.021,1.467,1.455-12.08,4.144-23.997,7.989-35.521,10.939-32.779,38.82-61.462,25.203-98.17-.405-1.092-5.983-12.954-7.176-11.313.383,14.458,4.416,28.627-.023,42.992l-6.819-13.661c-1.219-3.33-6.75-7.688-7.169-10.906-.437-3.361,6.525-25.755,8.948-27.976,5.468-5.011,17.533,3.163,22.065,7.038,15.402,13.172,26.774,47.154,26.025,67.051-.976,25.954-24.186,49.862-24.028,76.456ZM835.005,791.995c7.025-2.782,12.964-10.177,17.216-16.274,17.361-24.891,17.518-56.037,15.769-85.212-.208-3.462-.765-9.521-2.495-12.505-2.689,12.901-1.273,27.092-2.504,40.486-1.908,20.745-6.664,38.684-17.575,56.425-1.637,2.662-12.006,15.318-10.41,17.079Z"/>
  <path class="cls-3" d="M518,205l3.984,14.516-.984,20.484c-3.592,12.774-12.101,16.575-2.232,29.732,9.577,12.768,13.3,1.877,24.817.353,2.521-.334,12.71-.354,14.181,1.15,6.195,16.454,12.857,32.965,23.227,47.271-3.137-.083-5.543-1.745-8.994-2.506.88-2.912-2.826-2.155-5.534-2.042-2.456.102-5.693.055-7.466,2.042-.502.562-1.345,2.509-1,2.988,13.359,2.023,14.355,9.713,20,19.012,1.115,1.836,7.534,9.282,6.995,9.991-1.698,2.233-9.65-.937-11.995-1.991-7.114-3.196-10.467-7.08-12.015-15.005-.762.588-2.62.741-2.985,1.005-4.444,3.219-1.574,10.311,1,14,1.475,2.114,5.118,6.251,7,8,9.578,8.903,15.952,1.605,26.512,3.978l-.512-1.978v-1c.179.047,1.562-1.215,3.683-.286,9.295,4.073,6.179,6.625,19.317,7.286.09.005.568.924,1.5.998,5.922.47,10.539-5.991,15.5-7.998,4.118-1.667,15.472,1.805,20.218,3.282,2.899.902,6.649,2.339,9.458,3.54,1.459.624,4.797,1.707,5.318,3.168-14.696.416-28.802-3.314-43.009,2.032.125.44,1.024.897,1.014.978-.153,1.237-13.349,11.892-17,18-6.462,10.812-6.568,21.537-11,33-.277.343-.657.723-1,1l-5.475,2.073-9.525-1.073c-6.688-3.052-9.453-10.291-14.454-15.046-7.741-7.361-19.871-8.584-8.968-21.875,2.708-3.302,6.785-4.772,9.421-8.068-10.315.325-22.573,11.065-20.008,21.988-1.913-.911-3.294-2.813-4.992-3.998-.578-.404-.639-1.295-2.387-2.074-7.782-3.466-23.828-2.769-31.613,1.074-.328.041-.673-.043-1,0-4.964.657-9.796,1.74-14.67,2.881-1.803.422-3.925-.98-3.33,2.119-4.331.991-8.684,2.03-13,3-1.877-2.987-8.821,2.245-9.996,1.005-.205-4.553-1.086-9.092-1.977-13.549-.433-2.168.954-3.382-2.027-1.456-.805-4.561-1.312-9.396-2-14,2.214-7.118-1.664-16.022-1.991-23.509l-2.009-26.491c.328-5.637,1.345-11.605,2.316-17.184,1.211-6.954,8.426-30.516-3.834-9.834-9.214,15.544-14.67,36.213-10.483,54.008-9.86-2.616-11.426-3.099-12.999-12.99,1.658-1.04.996-3.794,1.017-5.486.349-28.169.788-46.173,7.335-73.677.346-1.453,1.509-3.901-.352-4.838,3.38-11.488,9.776-29.688,17-39,.863-1.113,2.166-3.927,2.663-4.049,4.4-1.083,13.313.14,18.315-1.463-10.672,17.551-18.915,36.902-16.962,57.996.618,6.674,3.057,16.271,9.984,18.516,4.572,1.482,9.084,2,11.98-2.5-6.413-2.284-8.763-5.11-10.98-11.5v-22c.397-2.352.348-4.366,1-7,2.912.599,1.807-1.446,2.283-3.166,2.446-8.841,6.724-18.161,11.717-25.834,7.627-11.72,20.063-19.914,32-8ZM498,208c-4.68,2.254-14.278,12.819-9.753,17.75,2.85,3.105,4.182-1.764,5.858-3.147,1.291-1.066,8.756-6.649,9.887-5.604l1.002,12.998c-4.614-1.359-9.44-1.573-13.991.06.152.403,1.012.854.998.944-.067.437-5.193,4.443-6.43,6.07-1.478,1.944-4.959,10.974-5.57,10.93-.123-.009-1-1.701-1.004-.498l.002,13.016,1.002-.518c.345,2.1,5.45,11.596,7.995,8.995-1.608-7.723,2.107-11.715,4.701-17.795,1.122-2.631.46-8.151,4.133-6.006,2.926,1.709,2.829,12.959,11.171,5.806,5.173-4.435,5.495-22.763,5.041-29.541-.339-5.06-.894-14.546-7.041-15.459-2.117-.314-6.061,1.066-8,2ZM589.995,390.995c.008-4.042-2.636-7.465-5.495-9.975-4.11,2.143,4.071,11.516,5.495,9.975Z"/>
  <path class="cls-8" d="M701.995,171.995c1.55-1.713-4.061-7.849-3.985-9.995,10.309,8.967,20.353,21.733,26.511,33.979,13.509,26.864,12.146,46.542.653,73.694-2.184,5.16-22.112,43.341-24.674,43.309-41.427-38.453-102.74-45.865-145.453-82.483,27.326-41.661,60.403-83.183,116.311-75.357,6.253.875,18.088,3.064,22.64,7.36,1.106,1.044,6.551,11.09,7.997,9.493Z"/>
  <path class="cls-1" d="M545.808,529.203c.343.477,1.706,6.509,2.807,8.682,1.958,3.864,5.3,6.803,7.343,10.568-2.9,7.1-6.469,26.465-11.995,31.009-4.827,3.969-17.008,6.361-23.288,9.712-5.459,2.913-18.798,15.372-23.347,15.639-2.539.15-18.022-16.859-28.066-18.576-17.177-2.935-30.121,9.288-43.39,9.189-5.495-.041-15.25-1.776-20.882-2.916-18.808-3.807-36.488-13.347-55.985-14.52.01-1.514,3.003-1.852,4.227-2.257,18.001-5.963,47.712-16.126,65.502-19.499,6.562-1.244,14.235-.541,20.642-1.358,22.126-2.819,39.653-21.582,55.35-35.717,6.785,1.187,13.729.357,20.497,1.117,3.292.37,29.656,7.632,30.585,8.926Z"/>
  <path class="cls-8" d="M492.999,172.011c-1.863,2.113-4.738,8.517-7.035,9.531-3.816,1.684-10.506-4.484-18.917,1.006-11.988,7.825-26.343,35.982-31.531,49.469-17.317,45.017-18.491,97.871-6.687,144.396l-30.819,18.588c-.293-1.434.33-2.453.79-3.7,1.56-4.23,8.241-21.083,10.335-23.665,2.933-3.618,11.179-2.519,8.362-8.617-5.763-12.477-51.683-8.231-52.571-11.615,3.802-33.602,13.734-67.22,26.606-98.372,17.17-41.555,47.099-96.377,101.467-77.021Z"/>
  <path class="cls-8" d="M682,149.99c-11.44-1.158-22.794-2.924-34.371-1.861-42.835,3.931-77.792,44.782-95.643,80.869-1.267.929-7.739-6.086-9.013-7.471-2.985-3.245-6.127-7.615-8.788-11.212-4.737-6.404-24.639-35.943-24.934-41.99-.105-2.155,5.881-8.769,7.723-10.851,12.423-14.046,34.112-32.668,52.984-36.017,2.661-.472,7.263.426,10.322-.509.915-.28.337-1.79,2.152-2.027,8.961-1.172,26.64-.075,35.814,1.334,22.78,3.498,47.128,13.662,63.754,29.736Z"/>
  <path class="cls-8" d="M718.99,389.999c-7.482-4.849-8.899-13.048-15.469-19.02-23.915-21.739-57.127-22.584-84.488-34.512-43.253-18.856-48.104-63.387-67.027-101.462l16.68,12.81c35.862,26.595,85.604,36.62,120.646,63.354,7.822,5.967,8.606,6.746,11.933,16.067,7.276,20.387,11.564,42.031,17.727,62.763Z"/>
  <path class="cls-5" d="M335.768,926.775c-3.078,2.568-20.861,4.352-25.763,6.221,5.084-41.123-9.71-83.791-37.491-114.01-7.524-8.184-15.943-14.067-24.513-20.975,5.632.056,21.874-9.503,26.105-8.529,3.316.764,15.818,11.099,18.908,14.004,22.726,21.363,42.967,60.737,45.027,91.973.323,4.902.635,28.89-2.273,31.316Z"/>
  <path class="cls-8" d="M271.004,438.001c-.673,21.132-9.41,18.853-26.488,16.984-32.013-3.504-83.782-17.739-108.987-38.009-10.226-8.224-7.434-10.29-6.523-22.97l22.973,14.516c36.566,18.092,78.087,28.841,119.025,29.479Z"/>
  <path class="cls-8" d="M454.995,400.995c-11.659-1.266-37.611-5.706-46.477,3.023-.97.955-1.896,1.306-1.513,2.977l21.492-1,.495,1.986-43.647,31.857c-7.374,3.21-19.972-4.112-28.34-2.848l43.104-34.381c10.922-8.345,28.073-16.243,41.626-18.365,15.011-2.35,10.375,6.143,13.259,16.75ZM395.99,419c-.967-1.278-22.646,11.338-11.494,12.089,5.374.362,12.252-6.537,11.494-12.089Z"/>
  <path class="cls-3" d="M640,441c6.25,4.36,8.92,11.439,8,19-2.966-1.925-1.555-.724-2.129,1.355-2.633,9.528-6.988,18.242-9.883,27.643-2.283-.524-3.09-4.957-4.234-5.781-.658-.474-1.453-.08-1.754-.216-1.446-.653-4.576-1.894-6.062-1.609-1.207.232-4.615,4.769-4.938,5.609l-1.99,1c-.945-1.332,2.281-5.967-.01-7,.666-5.758,1.326-11.484,2.293-17.207.548-3.24,3.897-11.498,1.707-13.793-2.994-3.137-5.205,5.182-6.99,5.995l.99-8.995c1.449-2.337,2.879-3.408,5-5l9.536-3.044,10.464,2.044Z"/>
  <path class="cls-4" d="M51.995,491.996c-.755.851-8.333-5.113-9.465-6.026-8.951-7.221-18.714-18.231-25.346-27.654-1.994-2.833-9.533-13.692-8.783-16.339,1.132-3.995,8.305-12.307,10.098-16.956,8.424,20.523,20.642,39.106,36.035,55.019,1.516,3.405-3.394,8.052-2.54,11.956Z"/>
  <path class="cls-2" d="M553.995,261.995c-3.411.048-6.809-.223-10.215.285-4.977.742-15.517,5.666-18.755,4.209-7.207-3.245.511-15.058,2.008-19.955,2.493-8.152,4.88-18.23,2.971-26.527,1.066-1.054,6.091,4.437,7.022,5.467,9.039,10.005,12.06,24.253,16.969,36.521Z"/>
  <path class="cls-3" d="M648,515c1.853.391,1.174.063,2,0,.351-.027.755.085,1,0,.35,2.863-.335,5.3-1,8-3.263,13.25-15.586,11.408-17,0,4.05-1.038,4.797,6.5,9,3,.127-.105-.081-.649,0-1,.497-2.143-2.727-7.691-.54-11.038,1.723-2.635,4.84.68,6.54,1.038Z"/>
  <path class="cls-3" d="M651,515c-.745-6.097-6.761-7.815-11.985-8.484l15.964-41.049c3.363-4.1,11.544,3.45,11.737,9.247.137,4.133-5.82,18.135-7.591,22.913-.476,1.284-2.21,3.427-.125,4.373-.168.38-.854.683-1,1-.931,2.016-4.729,11.386-5.186,11.843-.515.514-1.418.02-1.814.157Z"/>
  <path class="cls-1" d="M636,812.99h-58c6.277-5.84,15.251-8.063,21.492-13.999,2.03-1.931,5.385-8.062,6.985-8.09,12.176,3.411,20.179,14.275,29.523,22.088Z"/>
  <path class="cls-8" d="M622,430.5c-.391,1.223-18.037,13.309-20.516,15.446-2.705-3.836-5.513-7.599-8.501-11.214-.823-.996-4.443-1.205-.59-2.829,2.862-1.206,6.631-1.522,9.132-3.878,1.739-1.638,2.221-4.186,3.948-6.052,5.04-5.447,10.612-10.496,16.527-14.973-1.142,5.806,1.539,18.69,0,23.5Z"/>
  <path class="cls-5" d="M433.004,603.011c10.505-1.571,22.747-9.616,33.436-7.942,6.834,1.07,14.771,11.939,18.556,17.416-4.999,4.043-19.605,3.122-23.954-1.027-1.946-1.857-1.692-5.647-3.676-6.324-5.741-1.96-15.862,1.978-21.863.855-1.715-.321-2.802-1.05-2.499-2.978Z"/>
  <path class="cls-3" d="M676,497c1.981,3.482,2.966,7.553,5,11-.106.504-5.587,7.04-6.505,7.994-1.18,1.227-3.402,1.907-4.495,3.006l-2.52-.971c-.373.031-.347.683-.48.971-.787-1.39-4.554-4.465-4.667-5.475-.128-1.153,5.441-15.08,6.49-17.202,3.379-6.836,4.083-4.762,7.177.677Z"/>
  <path class="cls-2" d="M511.994,192.996c-10.395-3.516-18.256,3.962-26.993,7.994,5.063-9.569,11.36-18.758,18.505-26.985l8.489,18.991Z"/>
  <path class="cls-6" d="M314,573c-13.324-.274-27.073-2.635-40.459-3.041-44.257-1.342-89.215,3.72-133.019,9.089-4.356.199-5.701-3.48-7.522-6.047l6.614,4.719c55.866-7.02,113.616-12.414,169.928-6.764,1.813.182,3.731-.341,4.458,2.046Z"/>
  <path class="cls-3" d="M604,345c-.548-1.087-.468-2.648-1.995-3.505-.154-.767.922-.613,1.471-.476,7.103,1.768,17.122,10.697,25.518,10.992l-13.555,6.997c-1.317.146-2.705-3.081-4.439-5.008-3.027-3.363-4.874-4.782-7-9Z"/>
  <path class="cls-3" d="M616,388c.719-1.792,3.054-8.521,5.48-7.994,1.902.413,5.1,8.399,8.516,8.489-4.568,4.695-9.898,8.607-14.996,12.505-1.207-.361-3.22,2.441-2.977-.462.203-2.427,2.914-9.891,3.977-12.538Z"/>
  <path class="cls-6" d="M115,952l-16.459,2.041c-31.712,3.054-65.559-4.387-96.541-4.041,1.595-1.644,5.416-1.194,7.547-1.037,35.442,2.606,70.493,4.007,105.453,3.037Z"/>
  <path class="cls-6" d="M454,539c-5.11,4.634-14.356,5.515-21,6-.14-1.504-2.86-1.504-3,0-9.024.639-10.026-.473-18.995,2.505-28.956,9.613-58.645,17.207-88.005,25.495.977-1.992,3.954-2.796,5.918-3.362,27.002-7.782,55.724-14.029,81.371-24.189,9.201-3.645,19.003-1.401,29.199-2.462,3.503-.364,11.136-2.668,14.513-3.987Z"/>
  <path class="cls-6" d="M780,568c14.35.383,34.17,12.44,46.672,19.828,12.574,7.43,28.862,16.486,34.102,30.898,9.354,25.727-7.778,39.369-14.786,62.272-16.122-13.32-33.71-21.254-54.998-16.508-19.962,4.451-26.827,13.398-50.195,9.215-3.929-.703-18.338-5.851-20.181-5.494-7.609,1.474-3.795,22.566-1.613,27.788-3.614-6.444-2.567-6.874-4.051-13.297-.064-.277-2.698-1.134-1.689-4.187.21-.636,1.373-.405,1.67-1.244,1.021-2.89,1.204-9.635,5.593-10.324,2.638-.414,18.538,5.388,24.106,5.924,37.125,3.573,47.259-25.729,89.677-1.677,2.144,1.216,10.291,8.008,11.684,6.807.598-3.462,2.314-7.525,3.819-10.693,9.033-19.022,17.728-27.964,8.671-50.288-8.117-20.008-44.825-33.579-62.786-44.213l-15.693-4.807Z"/>
  <path class="cls-6" d="M431,337c-3.779-23.761,1.175-60.801,8-84,1.861.937.698,3.385.352,4.838-6.547,27.504-6.986,45.508-7.335,73.677-.021,1.691.641,4.446-1.017,5.486Z"/>
  <path class="cls-6" d="M299,495c-.994,1.923-3.485.756-5.012.531-32.826-4.833-57.15-12.535-90.988-7.531,32.783-8.975,63.985,2.338,96,7Z"/>
  <path class="cls-6" d="M253,931c-1.916-2.969-.729-1.607,1.459-2.025,5.036-.962,44.052-7.389,44.587-9.632,1.084-28.212-7.903-53.537-22.046-77.343,12.451,16.234,21.456,40.019,22.987,60.513.231,3.089.589,15.77-.118,17.856-.274.809-.694,1.285-1.555,1.445-15.127,2.574-30.128,7.056-45.314,9.186Z"/>
  <path class="cls-3" d="M633,497c-.295,1.35-.464,6.695-2.981,4.98-2.388-3.555-13.986-15.723-3.569-16.03,6.601-.194,4.618,2.37,5.55,4.049.277.499,1.919.906,2.02,1.71.108.854-.736,3.992-1.02,5.29Z"/>
  <path class="cls-6" d="M560,520c-5.059,1.975-10.061.56-15.181-.318-8.774-1.505-25.365-8.682-32.319-8.682h-18c-3.131,0-6.059-.502-9.5,1,2.43-1.699,3.16-2.623,6.478-3.021,4.308-.517,17.389.418,22.013,1.029,9.414,1.245,18.497,5.615,27.527,7.562,6.271,1.352,12.906.857,18.981,2.429Z"/>
  <path class="cls-6" d="M554,413c-4.336-3.049-15.487-10.181-20.184-11.316-11.591-2.801-38.62,3.681-51.043,6.589-4.99,1.168-23.784,5.194-26.7,7.298-1.43,1.031-2.625,6.109-4.073,4.429,3.526-4.961,1.088-5.105,7.998-7.494,12.454-4.306,52.1-13.392,64.554-13.542,10.976-.133,21.824,6.703,29.448,14.037Z"/>
  <path class="cls-6" d="M604,345c-2.913-2.148-5.224-5.233-7.506-7.994-.655-.793-2.636-1.989-1-3.001,21.354,17.622,50.131,18.638,74.498,30.007.296,1.355-1.044,1.114-2.006,1.458-9.232,3.3-23.009-.334-33.529.488-3.531.276-6.065,1.765-9.458,2.042.01-.081-.889-.538-1.014-.978,14.208-5.346,28.313-1.616,43.009-2.032-.522-1.461-3.86-2.544-5.318-3.168-2.809-1.201-6.56-2.639-9.458-3.54-4.746-1.476-16.1-4.948-20.218-3.282.296-3.337-.634-1.5-2.451-.956-4.344,1.299-7.939,3.016-11.918,5.139-1.4.747-3.162.396-2.631,2.818-13.138-.661-10.022-3.214-19.317-7.286-2.121-.929-3.504.333-3.683.286-.398-.105-4.617-4.631-6.302-5.287-2.766-1.076-9.968,1.264-12.698-3.713,2.344,1.053,10.296,4.224,11.995,1.991.539-.709-5.88-8.155-6.995-9.991,2.642,1.866,5.177,5.698,7.335,7.663,2.946,2.682,15.611,12.494,18.931,13.571,3.045.988,5.608.906,8.729.761l-1.995-5.995c1.735,1.927,3.123,5.154,4.439,5.008l13.555-6.997c-8.396-.295-18.416-9.224-25.518-10.992-.549-.137-1.625-.291-1.471.476,1.527.857,1.448,2.418,1.995,3.505Z"/>
  <path class="cls-6" d="M617,481c2.292,1.033-.934,5.668.01,7l1.99-1c-3.158,8.215,2.223,16.33,10.995,16.495-4.711,6.086-11.862.088-13.525-5.463-2.022-6.748-.188-10.823.53-17.032Z"/>
  <path class="cls-6" d="M569,449l4.99,3c.43-1.942-1.586-3.069-1.844-4.719-.666-4.253,4.878-7.498,5.867-11.273,1.658-.387.717,1.055.985,1.306,1.819,1.712,2.336.483,2.003-1.314,2.801,2.201,7.753,3.331,10.232,7.268.899,1.428,2.648,6.879,2.636,8.296-.002.188-2.091,1.66-2.868,2.436,2.028-2.213-.023-11.539-3.501-12.982-1.998,4.518-2.49,1.782-3.923,2.087-1.601.341-.666,1.886-1.012,2.655-.121.268-1.461.146-1.448.69.004.183.778,3.4.884,3.549-1.18-.945-4.079-.681-2.859-5.283.973-3.67,9.608-2.159,6.86-4.706-1.697-1.573-9.542-.762-11.074,1.658-4.73,7.47,4.696,15.24,12.068,13.326l-4.995-4.995c.565.796,7.628.814,6.009,5.006.722-.637,2.884-.89,2.991-1.006-10.187,10.169-13.953,2.506-22-5Z"/>
  <path class="cls-6" d="M667,519c.133-.288.107-.94.48-.971l2.52.971c-4.791,4.817-9.023,11.189-15.49,14.01l6.502-15.007,4.488,3.978c1.413-.711,1.078-2.067,1.5-2.98Z"/>
  <path class="cls-6" d="M232,465c8.286.813,16.683,1.457,24.996,2.005.379.355-2.661,9.614-3.082,9.917-.879.633-5.531-.89-7.373-.964-12.318-.495-23.463.036-35.54,2.042-.572-3.149,1.555-1.707,3.433-2.018,7.248-1.2,15.726-2.034,23.119-2.025,6.66.008,18.297,5.122,17.45-5.952-7.397-.292-16.22-.044-23.002-3.005Z"/>
  <path class="cls-6" d="M569,481c1.817.888,5.349.017,5.017,2.989,1.427.323.971-.644.983-1.989,2.454,4.064,7.254,3.577,11,3,.099-.015.775,1.226,1.928.575,3.937-2.222,3.694-8.345,1.072-11.575.271.263,1.717-.228,2.82,1.647,3.84,6.532-3.854,13.732-10.256,13.321-2.761-.177-10.769-5.368-12.564-7.968Z"/>
  <path class="cls-6" d="M122,483c1.612,3.004,1.261,8.843,1.074,12.573-.085,1.701-1.074,3.526-1.074,3.927v17c0,3.449.903,9.632,1.076,13.932.07,1.732,2.467,2.908-1.076,2.568-1.529-16.613-1.388-33.388,0-50Z"/>
  <path class="cls-3" d="M574,507c-.799-1.904-3.232-2.066-4-4-.122-.308-.099-5.91.934-6.566,8.94-3.784,8.275,9.505,3.066,10.566Z"/>
  <path class="cls-6" d="M460,373c-2.447-16.365-4.966-33.405-4-50l2.009,26.491c.327,7.487,4.206,16.391,1.991,23.509Z"/>
  <path class="cls-6" d="M362,494c-17.256,2.372-34.691,5.312-52.518,4.002l.518-1.002c17.59,1.343,34.57-3.044,52-3Z"/>
  <path class="cls-6" d="M456,214c.265-2.121,1.571-5.167,3.694-5.807,4.599-1.386,15.93-.363,21.301-1.183-14.402,16.454-24.69,46.842-17.725,68.216,1.52,4.664,3.327,6.534,6.73,9.774-6.927-2.245-9.366-11.842-9.984-18.516-1.953-21.094,6.29-40.445,16.962-57.996-5.002,1.603-13.915.38-18.315,1.463-.497.122-1.8,2.936-2.663,4.049Z"/>
  <path class="cls-6" d="M567,539c1.96,1.013.662,3.322.293,4.781-2.631,10.413-9.53,34.137-15.345,42.391-.834,1.184-2.651,2.13-3.948,2.828,10.374-14.73,13.484-33.167,19-50Z"/>
  <path class="cls-6" d="M231,465c-13.156-1.247-26.608-4.47-40.013-8.487-20.704-6.204-40.819-14.832-58.976-26.512-2.415,11.077-4.001,22.326-6.043,33.482-.389,2.128,1.076,3.487-1.968,1.517,1.723-12.409,4.436-24.884,7.51-37.01,29.413,20.759,65.001,28.725,99.49,37.01Z"/>
  <path class="cls-6" d="M530,455c-14.749-5.092-30.723-3.004-46-5,1.317-2.912,7.806,0,9.5,0h21c5.243,0,11.215,2.604,15.5,5Z"/>
  <path class="cls-6" d="M542,394c-10.88-3.609-22.795-2.385-34-1,7.785-3.843,23.831-4.539,31.613-1.074,1.748.778,1.808,1.67,2.387,2.074Z"/>
  <path class="cls-6" d="M529,497c-4.222-2.001-7.984-4.621-12.559-5.941-7.288-2.102-28.302-3.427-32.503-7.661-1.054-1.062.082-1.331.062-1.398,13.876,7.949,33.379,2.394,45,15Z"/>
  <path class="cls-6" d="M535,423l-48-1c9.831-1.94,32.056-1.935,42.544-1.048,3.498.296,3.039.586,5.456,2.048Z"/>
  <path class="cls-6" d="M633,523c-1.275-10.281,7.478-23.017,11.46-33.04,3.6-9.063,6.283-18.768,9.554-27.963,4.86.36,13.422,5.707,13.928,10.58.608,5.848-6.275,23.387-8.942,29.424-2.085-.945-.351-3.089.125-4.373,1.771-4.779,7.729-18.78,7.591-22.913-.193-5.796-8.374-13.347-11.737-9.247l-15.964,41.049c5.223.669,11.24,2.387,11.985,8.484-.245.085-.649-.027-1,0-1.132-4.362-5.77-7.743-10.259-6.82-7.19,1.479-6.53,18.034,2.259,17.82-4.203,3.5-4.95-4.038-9-3Z"/>
  <path class="cls-6" d="M650,523c.665-2.7,1.35-5.137,1-8,.396-.137,1.299.358,1.814-.157.457-.457,4.255-9.827,5.186-11.843-1.284,6.868-4.573,13.913-8,20Z"/>
  <path class="cls-6" d="M521,240l.984-20.484-3.984-14.516c7.389,7.374,5.651,25.572,3,35Z"/>
  <path class="cls-3" d="M641,378c-.682.566-.348,1.602-2.479,1.982-2.747.49-7.249.423-9.521-.982-.771-1.332-2.513-2.796.478-2.998,3.678-.249,8.591-.528,11.522,1.998Z"/>
  <path class="cls-6" d="M183,832c2.518,1.008-1.082,1.434-1.786,1.704-4.001,1.534-9.482,2.466-12.214,5.286,6.871.74,15.424,2.221,21.824,4.7,1.89.732,1.981.609,3.176,2.309l-29.995-7.01,18.995-6.99Z"/>
  <path class="cls-6" d="M492,480c1.035-1.717,3.724-1.053,5.368-.889,8.591.853,17.174,2.334,25.645,3.911l-1.013.978c-9.969-1.463-19.987-2.842-30-4Z"/>
  <path class="cls-6" d="M612,504c-5.15-8.057-5.53-11.63-5.035-21.535.292-5.851,4.556-11.55-2.589-15.33-3.258-1.723-5.064-1.167-8.371-.124-.485,2.332,2.309,2.886,2.786,4.645.168.619-.813,1.27-.79,1.345l-4.999-5.985c4.733-1.823,6.537-4.317,11.509-1.017,9.521,6.319,3.183,13.338,3.424,22.508.139,5.284,2.43,10.581,4.066,15.494Z"/>
  <path class="cls-6" d="M727,751c-11.075,7.966-22.545,7.416-35,3l19.497,2.019c2.995-.974,7.602-1.484,10.27-2.766,1.914-.919,2.528-5.501,5.233-2.253Z"/>
  <path class="cls-6" d="M660,687c-3.579,2.984-5.298,5.457-6.588,10.005-2.552,8.999.732,18.593,4.588,26.995-7.671-9.221-10.59-27.561-.502-36.041.886-.745,1.993-.641,2.502-.959Z"/>
  <path class="cls-6" d="M234,932l-50,15c15.413-4.741,34.194-13.055,50-15Z"/>
  <path class="cls-6" d="M471,271c-3.211-9.253-1.515-13.034,0-22v22Z"/>
  <path class="cls-6" d="M396,489c.653-.066,1.341.024,1.996.007-2.955,11.427,1.428,23.189,7.004,32.993-5.607.142-11.321-27.963-9-33Z"/>
  <path class="cls-6" d="M171,950c-9.796.697-20.197.591-30,1-.558-3.019,1.528-1.936,3.455-2,6.97-.233,14.082-.104,21.06-.017,1.692.021,4.446-.641,5.486,1.017Z"/>
  <path class="cls-6" d="M550,500c.301-1.677,3.213.203,3.883.617.99.612,14.971,10.172,15.127,6.882-1.179-1.019-2.005-.876-3.01-2.5,2.691.454,5.05,2.601,8,2,5.209-1.061,5.875-14.35-3.066-10.566-1.033.656-1.057,6.258-.934,6.566-4.285-8.376,4.079-12.195,9.078-5.553,2.566,3.41-3.353,11.857-7.657,12.54-5.038.8-16.488-7.246-21.421-9.987Z"/>
  <path class="cls-6" d="M411,482c-1.9,2.374-4.216,4.223-5.323,7.177-2.323,6.199-.662,12.836-2.677,18.823-.77-8.496-1.404-22.507,8-26Z"/>
  <path class="cls-6" d="M615,447l-.99,8.995c1.785-.814,3.996-9.133,6.99-5.995l-2.993,2.456-5.002,8.538c.115-5.727-1.114-8.982,1.995-13.995Z"/>
  <path class="cls-6" d="M644,712l2,6.987c-8.775,1.34-16.946,4.466-25,8.013.014-.084-.845-.477-.966-.896,7.804-3.215,15.513-6.855,23.973-8.114-1.815-2.72-.057-4.929-.007-5.99Z"/>
  <path class="cls-6" d="M462,387c2.982-1.925,1.594-.711,2.027,1.456.891,4.456,1.772,8.996,1.977,13.549,1.175,1.24,8.119-3.992,9.996-1.005-1.85.416-10.221,2.602-10.958,1.962-.436-5.397-2.111-10.693-3.042-15.962Z"/>
  <path class="cls-8" d="M558.989,537.999c-.531.538-4.336-3.889-3.978-5.452l4.978-2.546-1.001,7.999Z"/>
  <path class="cls-6" d="M202,488c.569,2.656-1.324,1.99-2.982,2.467-8.684,2.5-20.151,6.983-28.018,7.533,9.803-2.696,21.068-8.477,31-10Z"/>
  <path class="cls-6" d="M597,419c4.432-11.463,4.538-22.188,11-33,.024,3.458-2.326,5.999-3.301,9.198-2.496,8.185-2.11,16.894-7.699,23.802Z"/>
  <path class="cls-6" d="M484,452c2.074-.42,1.711,1.519,3.377,2.159,4.807,1.847,10.921,1.528,15.623,3.841-4.585-.373-17.331-.5-19-6Z"/>
  <path class="cls-6" d="M521,429c-3.659,1.644-9.544,1.254-13.547,1.048-6.698-.345-17.923-1.248-23.754-4.258-2.555-1.319-.855-1.114-.698-1.79,11.846,5.403,25.341,4.44,38,5Z"/>
  <path class="cls-6" d="M629,379c-2.308-1.428-3.127-3.088-.544-4.759l14.543,1.77c.02,1.149-1.318,1.425-1.999,1.989-2.93-2.526-7.844-2.247-11.522-1.998-2.991.202-1.249,1.667-.478,2.998Z"/>
  <path class="cls-6" d="M507,393c-5.421,2.858-12.059,3.641-18,5-.594-3.099,1.528-1.697,3.33-2.119,4.873-1.141,9.706-2.224,14.67-2.881Z"/>
  <path class="cls-6" d="M640,441l-10.464-2.044-9.536,3.044c6.759-5.072,12.78-6.038,20-1Z"/>
  <path class="cls-6" d="M591,494c-4.425,5.491-1.968,2.699-3.061,9.444-.753,4.651-3.525,7.233-6.939,9.556,2.069-2.657,4.065-5.113,5.051-8.449,1.119-3.786-.331-9.893,4.949-10.551Z"/>
  <path class="cls-6" d="M648,460c-.587,4.82-6.4,17.648-8.532,22.968-1.846,4.606-3.914,9.815-6.468,14.032.284-1.298,1.128-4.436,1.02-5.29-.101-.804-1.744-1.211-2.02-1.71,4.878.487-.835-4.424-2-7,.301.136,1.096-.258,1.754.216,1.143.824,1.951,5.257,4.234,5.781,2.895-9.401,7.25-18.115,9.883-27.643.574-2.078-.837-3.28,2.129-1.355Z"/>
  <path class="cls-6" d="M735,741c3.204-9.103,2.786-16.629-2-25,6.215,9.445,7.259,14.327,2,25Z"/>
  <path class="cls-6" d="M568,538c-.014-4.078,1.157-8.066,2-12,2.74,3.371-.899,8.725-2,12Z"/>
  <path class="cls-6" d="M486,213c-4.993,7.673-9.271,16.993-11.717,25.834-.476,1.72.629,3.765-2.283,3.166,2.366-9.561,6.985-22.001,14-29Z"/>
  <path class="cls-6" d="M559,316c1.773-1.987,5.01-1.94,7.466-2.042,2.707-.113,6.414-.87,5.534,2.042-5.167-1.141-7.73-1.039-13,0Z"/>
  <path class="cls-6" d="M663,680c-11.335,3.261-18.56,8.293-19,21-.002-.091-.951.107-1.007-1.519-.377-10.874,9.76-19.153,20.007-19.481Z"/>
  <path class="cls-6" d="M741,539l25,26c-6.979-3.306-20.193-19.116-25-26Z"/>
  <path class="cls-6" d="M616,388c-1.063,2.647-3.773,10.111-3.977,12.538-.243,2.903,1.77.101,2.977.462-.603.461-5.324,6.3-5.026,2.485.35-4.48,3.991-11.37,6.026-15.485Z"/>
  <path class="cls-6" d="M268,830c-5.551-5.982-11.865-11.67-18-17,7.315,3.476,13.546,10.397,18,17Z"/>
  <path class="cls-6" d="M596,420c-5.408,4.362-8.567,3.936-15,1l9.525,1.073,5.475-2.073Z"/>
  <path class="cls-6" d="M681,508c-2.034-3.447-3.019-7.518-5-11,2.39,2.533,5.751,7.422,5,11Z"/>
  <path class="cls-6" d="M481,517c1.168-1.543.878-1.886,3-4l-3,4Z"/>
  <path class="cls-3" d="M433,545c-.991.072-2.009-.07-3,0,.14-1.504,2.86-1.504,3,0Z"/>
  <path class="cls-2" d="M815.995,837.01c.678.347-.585,1.698-1.99.98-.678-.347.585-1.698,1.99-.98Z"/>
  <path class="cls-2" d="M720.995,838.01c.678.347-.585,1.698-1.99.98-.678-.347.585-1.698,1.99-.98Z"/>
  <path class="cls-7" d="M189,908c3.603-.579,6.982-1.669,10.997-.993.192,1.162-.708,2.065-.997,2.993-7.291,4.568-15.462,8.372-24,10-3.767.718-7.034,1.495-10.995.995-1.695-1.511,5.969-6.387,6.995-6.995l18-6Z"/>
  <path class="cls-6" d="M175,920c8.538-1.628,16.709-5.432,24-10-.021.068,1.186.436.083,1.425-3.073,2.754-14.951,7.729-19.217,8.955-1.404.403-3.996,1.397-4.866-.38Z"/>
  <path class="cls-6" d="M189,908l-18,6c6.01-3.56,11.221-4.91,18-6Z"/>
  <path class="cls-7" d="M679,710c2.583-4.089.504-1.074.049-5.55-.882-8.691-.593-12.67,9.375-11.506,1.53,17.053,15.674,14.602,27.268,19.864,23.321,10.583,13.579,41.503-10.2,39.199-1.056-.102-8.178-1.745-8.491-2.049-.178-.173.828-3.801,0-4.952,5.279.83,10.752,1.514,15.999-.006,10.714-3.105,13.926-16.69,4.493-22.995-1.037-.221-.211,1.595-.493,1.995-2.711,3.849-7.912,8.667-12,11l-13,1c.048-.478-.019-.788-.512-.982-1.838-.432-5.847-.39-7.213-1.291-1.046-.69-1.779-4.498-3.274-4.726-2.803-5.985-1.904-12.601-2-19ZM686,724c1.169,2.027.22,2.181,3,4,4.838,3.165,10.661,2.499,15.746.201,1.415-.639,1.736-1.851,2.254-2.201,1.494-1.006,4.214-1.122,5-4,.158-.579.352-2.122-.572-2.015-6.49.161-12.975.269-19.227-1.686-4.211-1.317-6.415-3.747-10.197-5.293.551,4.279,1.931,7.412,3.996,10.994Z"/>
  <path class="cls-7" d="M581,548c1.635,16.446,8.862,43.559,13.487,60.013,2.752,9.79,5.715,20.02,10.513,28.987,4.892,13.222,12.815,24.053,25.334,31.166,5.047,2.868,11.608,4.495,16.378,7.593,3.663,2.38-1.893,3.276-4.21,3.24-12.04-.187-32.411-18.043-38.501-27.999-12.465-20.377-22.317-68.466-23.991-92.51-.253-3.633-.687-9.216.991-12.49-.066.602-.06,1.395,0,2Z"/>
  <path class="cls-7" d="M791,578c8.138,7.323,7.486,15.19,5,25-2.517,9.933-5.97,14.648-14,21-7.144,3.055-13.888,7.625-22,7.99,9.253-10.756,23.134-19.803,21-35.99.994-3.358,4.008-18.166,6.613-18.84.664-.172,2.522.547,3.387.84Z"/>
  <path class="cls-7" d="M750,581c3.992-1.53,4.094,2.29,5.645,2.822,3.542,1.214,9.457.749,13.355,3.178,1.196,1.507,2.202,2.932,2,5-6.29-4.872-14.755-5.588-20,1-3.659,4.596-6.171,19.34-7.011,19.996-4.004,3.13-3.125-14.017-2.975-15.482.864-8.429,4.336-10.832,8.986-16.514Z"/>
  <path class="cls-6" d="M604,651c-4.235-5.265-7.065-12.695-9.453-19.047-8.81-23.439-15.197-54.407-16.53-79.457-.19-3.57-.111-9.081,4.005-7.964-.051,1.029-1.013,1.378-1.022,1.467-1.678,3.275-1.244,8.857-.991,12.49,1.674,24.044,11.526,72.133,23.991,92.51Z"/>
  <path class="cls-7" d="M714,535c-.169,4.444-1.586,10.877-5,14-.543.497-9.425,5.144-7.989,1.516,4.372-3.874,6.049-12.704,9.519-16.486,1.843-2.008,2.618-.834,3.47.97Z"/>
  <path class="cls-7" d="M699,553c-.996,6.082,4.218,8.1,9.447,8.03,3.837-.051,9.054-3.528,12.553-1.03-.923.702-1.877,1.93-2,2-6.692,1.334-13.161,3.426-20,1-1.962-1.902-4.176-6.531-2.525-9.06.599-.917,2.39-.771,2.525-.94Z"/>
  <path class="cls-6" d="M581,548c2.831-.59,1.883,1.393,2.296,3.153,6.769,28.893,11.344,57.848,21.704,85.847-4.798-8.967-7.761-19.196-10.513-28.987-4.625-16.454-11.852-43.567-13.487-60.013Z"/>
  <path class="cls-7" d="M674,724c.104.638.345,2.047-.496,1.996-.339-2.324-4.235-3.629-4.504-3.996-.521-.709-3.531-8.464-3.805-9.703-.331-1.494-.823-2.68,1.291-2.288,2.546,1.355,3.628,12.315,7.515,13.991Z"/>
  <path class="cls-6" d="M791,578c8.882,3.003,8.588,16.145,7.14,23.656-.447,2.317.635,3.134-2.14,1.344,2.486-9.81,3.138-17.677-5-25Z"/>
  <path class="cls-6" d="M717,724c.281-.399-.544-2.216.493-1.995,9.433,6.304,6.222,19.889-4.493,22.995-2.122-3.094-.269-1.41,1.214-2.255,2.592-1.477,6.173-2.962,6.787-6.286.368-1.991-.029-12.811-4.002-12.459Z"/>
  <path class="cls-6" d="M781,596c2.134,16.186-11.746,25.234-21,35.99,8.112-.365,14.856-4.935,22-7.99-1.126.891-1.719,1.952-3.465,3.027-1.94,1.194-17.768,7.615-18.525,6.975-4.248-3.595,6.906-10.228,9.037-12.456,8.931-9.334,8.515-13.937,11.953-25.547Z"/>
  <path class="cls-6" d="M771,592c-1.34,1.441-3.926-1.437-5.76-1.738-2.169-.357-5.329.324-7.728-.34l-6.512,3.078c5.245-6.588,13.71-5.872,20-1Z"/>
  <path class="cls-6" d="M719,562c-5.011,2.839-15.361,5.495-20,1,6.839,2.426,13.308.334,20-1Z"/>
  <path class="cls-6" d="M714,535c-.852-1.804-1.627-2.978-3.47-.97-3.47,3.782-5.147,12.611-9.519,16.486-1.436,3.627,7.446-1.02,7.989-1.516-.981,1.684-3.071,3.051-4.815,3.778-3.07,1.278-5.556-1.08-3.989,3.524,1.954,5.74,17.674,1.107,22.799,1.703.254,3.616-1.883,1.909-1.995,1.995-3.499-2.498-8.716.978-12.553,1.03-5.229.07-10.444-1.947-9.447-8.03,3.591-4.515,5.925-13.032,8.995-17.505,1.426-2.077,5.929-5.674,6.973-1.888.175.633-.963,1.259-.968,1.393Z"/>
  <path class="cls-6" d="M681,729c-.089-.014-.522.851-.933.993-1.923-4.814-3.647-15.907-1.067-19.993.096,6.399-.803,13.015,2,19Z"/>
  <path class="cls-6" d="M750,581c.46-.562-1.445-3.074,3.076-1.561,3.078,1.031,1.484,2.939,1.998,3.433.857.823,9.493-1.459,13.926,4.128-3.898-2.429-9.813-1.964-13.355-3.178-1.551-.532-1.653-4.351-5.645-2.822Z"/>
  <path class="cls-6" d="M705,735c-5.177,2.954-8.204,2.007-14.014,1.98.122-.466.998-.829,1.014-.98l13-1Z"/>
  <path class="cls-6" d="M669,722c-1.436-1.925-4.503-6.656-4.842-8.754-.676-4.173,1.671-7.338,4.154-2.984.83,1.456,5.478,12.444,5.689,13.739-3.887-1.676-4.968-12.636-7.515-13.991-2.114-.392-1.622.794-1.291,2.288.274,1.239,3.285,8.993,3.805,9.703Z"/>
  <path class="cls-7" d="M468.995,424.005l-20.742,20.934c-6.068,3.143-1.017-5.72.334-7.853,4.44-7.012,11.499-13.633,20.408-13.081Z"/>
  <path class="cls-7" d="M575,482c-3.666-6.071,3.449-15.791,4.995-13.995-2.54,9.065-3.216,12.389,6.005,16.995-3.746.577-8.546,1.064-11-3Z"/>
  <path class="cls-7" d="M471.992,455.013l-9.906,5.574c-3.29,2.427-5.595,7.076-10.081,7.408-1.314-1.266,9.519-12.787,11.01-13.472,2.933-1.346,6.085-.299,8.977.49Z"/>
  <path class="cls-7" d="M835.005,791.995c-1.596-1.761,8.773-14.418,10.41-17.079,10.911-17.741,15.667-35.68,17.575-56.425,1.232-13.394-.184-27.584,2.504-40.486,1.73,2.983,2.288,9.043,2.495,12.505,1.749,29.174,1.592,60.321-15.769,85.212-4.252,6.097-10.191,13.492-17.216,16.274Z"/>
  <path class="cls-7" d="M506,206c10.231,11.937,5.363,30.983,2,45-8.342,7.153-8.245-4.098-11.171-5.806-3.674-2.145-3.011,3.375-4.133,6.006-2.593,6.081-6.309,10.072-4.701,17.795-2.545,2.6-7.649-6.895-7.995-8.995-.582-3.54.41-8.271,0-12,.612.044,4.092-8.986,5.57-10.93,1.237-1.627,6.363-5.633,6.43-6.07,5.788-1.93,9.507-.51,14.995.996l-2.004-16.997c-.737-.657-4.884,1.975-5.905,2.587-3.874,2.322-6.038,5.982-10.08,7.409-1.101-7.453,4.254-12.242,8.995-16.995,1.939-.934,5.883-2.314,8-2Z"/>
  <path class="cls-7" d="M573,346c2.731,4.978,9.932,2.637,12.698,3.713,1.685.655,5.904,5.182,6.302,5.287v1c-9.328.13-17.303,3.063-26-2-1.882-1.749-5.525-5.886-7-8-1.821-4.987-2.614-8.764-1-14,.364-.264,2.223-.417,2.985-1.005,1.549,7.925,4.902,11.809,12.015,15.005Z"/>
  <path class="cls-6" d="M508,251c3.363-14.017,8.231-33.063-2-45,6.147.913,6.703,10.399,7.041,15.459.454,6.778.132,25.106-5.041,29.541Z"/>
  <path class="cls-7" d="M632,355c-4.961,2.008-9.577,8.468-15.5,7.998-.932-.074-1.41-.994-1.5-.998-.531-2.422,1.231-2.071,2.631-2.818,3.979-2.123,7.574-3.839,11.918-5.139,1.817-.544,2.747-2.38,2.451.956Z"/>
  <path class="cls-6" d="M498,208c-4.741,4.753-10.096,9.542-8.995,16.995,4.042-1.427,6.206-5.088,10.08-7.409,1.021-.612,5.168-3.244,5.905-2.587l2.004,16.997c-5.488-1.506-9.207-2.926-14.995-.996.014-.09-.846-.541-.998-.944,4.551-1.633,9.376-1.418,13.991-.06l-1.002-12.998c-1.131-1.045-8.595,4.538-9.887,5.604-1.676,1.383-3.008,6.253-5.858,3.147-4.525-4.931,5.074-15.496,9.753-17.75Z"/>
  <path class="cls-6" d="M592,356l.512,1.978c-10.56-2.373-16.934,4.925-26.512-3.978,8.697,5.063,16.672,2.13,26,2Z"/>
  <path class="cls-7" d="M589.995,390.995c-1.423,1.541-9.604-7.832-5.495-9.975,2.858,2.51,5.503,5.933,5.495,9.975Z"/>
  <path class="cls-6" d="M480,248c.41,3.729-.582,8.46,0,12l-1.002.518-.002-13.016c.004-1.203.881.49,1.004.498Z"/>
  <path class="cls-6" d="M559,346c-2.574-3.689-5.444-10.781-1-14-1.614,5.236-.821,9.013,1,14Z"/>
  <path class="cls-7" d="M395.99,419c.759,5.552-6.12,12.451-11.494,12.089-11.153-.751,10.527-13.367,11.494-12.089Z"/>
  <path class="cls-7" d="M650,515c-.826.063-.147.391-2,0-7.913-9.09-11.809,3.512-6,10-.081.351.127.895,0,1-8.789.214-9.448-16.341-2.259-17.82,4.489-.923,9.126,2.458,10.259,6.82Z"/>
  <path class="cls-6" d="M648,515c-1.699-.358-4.817-3.674-6.54-1.038-2.188,3.347,1.036,8.895.54,11.038-5.809-6.488-1.913-19.09,6-10Z"/>
  <path class="cls-7" d="M582,450l4.995,4.995c-7.372,1.914-16.797-5.857-12.068-13.326,1.532-2.419,9.377-3.231,11.074-1.658,2.747,2.547-5.887,1.036-6.86,4.706-1.22,4.602,1.679,4.338,2.859,5.283Z"/>
  <path class="cls-3" d="M591,454c-.107.116-2.269.369-2.991,1.006,1.618-4.192-5.445-4.21-6.009-5.006-.106-.149-.88-3.366-.884-3.549-.012-.544,1.328-.422,1.448-.69.346-.77-.589-2.314,1.012-2.655,1.433-.306,1.925,2.43,3.923-2.087,3.479,1.443,5.53,10.769,3.501,12.982Z"/>
  <path class="cls-3" d="M712,722c-.786,2.878-3.506,2.994-5,4l-9.534,3.041-8.466-1.041c-2.78-1.819-1.831-1.973-3-4l-.994-6.995c8.882,4.65,17.609,3.258,26.994,4.995Z"/>
  <path class="cls-6" d="M686,724c-2.065-3.582-3.445-6.715-3.996-10.994,3.781,1.546,5.986,3.976,10.197,5.293,6.252,1.955,12.737,1.848,19.227,1.686.924-.107.73,1.436.572,2.015-9.385-1.738-18.112-.345-26.994-4.995l.994,6.995Z"/>
  <path class="cls-6" d="M707,726c-.518.349-.84,1.562-2.254,2.201-5.085,2.298-10.907,2.964-15.746-.201l8.466,1.041,9.534-3.041Z"/>
</svg>