<?xml version="1.0" encoding="UTF-8"?>
<svg id="Layer_1" data-name="Layer 1" xmlns="http://www.w3.org/2000/svg" viewBox="0 0 1024 1024">
  <defs>
    <style>
      .cls-1 {
        fill: #fffdf9;
      }

      .cls-2 {
        fill: #8c461f;
      }

      .cls-3 {
        fill: #f2b685;
      }

      .cls-4 {
        fill: #183450;
      }

      .cls-5 {
        fill: #155d96;
      }

      .cls-6 {
        fill: #f3d49c;
      }

      .cls-7 {
        fill: #0f0c0a;
      }

      .cls-8 {
        fill: #d53027;
      }
    </style>
  </defs>
  <path class="cls-1" d="M0,437V0h1024v1024H0v-63c37.402,4.017,74.947,4.629,112.538,3.038,19.866-.841,47.742-1.488,66.839-4.161,21.108-2.955,39.27-12.357,62.139-14.861,21.169-2.317,35.37-1.864,55.996-.03,16.521,1.468,46.836-9.702,64.477-13.496,55.24-11.881,112.022-15.708,158.902-50.098,8.741-6.412,20.587-19.024,29.409-23.591,33.107-17.138,126.279-5.269,167.161-4.762,57.098.708,124.791.481,180.741-9.335,10.618-1.863,52.656-8.927,21.578-19.984-13.36-4.753-29.731-5.896-43.781-7.73,3.92-7.036,10.977-11.473,15.966-17.523,21.497-26.069,29.913-66.801,29.072-100.004-.202-7.994-3.246-20.658-2.702-27.834.438-5.78,4.1-14.206,4.641-21.152,2.244-28.835-11.917-78.965-42.303-89.649-26.384-9.277-26.117,11.535-32.164,30.165-15.31-7.253-31.597-18.51-46.824-25.176-3.9-1.707-8.47-3.51-12.635-4.365-4.818-.988-14.78-.688-18.025-1.975-2.489-.987-19.363-20.773-22.536-24.464-4.824-5.613-11.278-17.861-17.937-20.059-11.918-3.935-24.399,5.742-32.051,14.03-1.34-3.26-14.171-9.985-14.451-11.6-.195-1.122,5.989-5.927,3.65-15.579s-12.924-15.208-13.564-17.513c-1.22-4.396,3.964-8.58-.676-16.252-4.371-7.228-14.169-9.019-17.2-12.293-3.717-4.014-2.739-13.136-11.764-19.741-4.747-3.474-13.927-4.474-14.489-5.011-1.131-1.083-.351-29.843.163-31.322.349-1.004,13.449-11.572,15.859-14.141,1.752-1.866,3.73-6.924,5.577-7.295,3.093-.622,11.531,1.69,16.678.55,3.027-.67,9.421-7.536,10.696-6.778.877.522,9.188,13.598,11.993,16.519,6.312,6.574,24.891,23.026,32.877,11.825,6.034-8.462-.668-30.554-3.355-40.347-1.782-6.495-12.797-34.664-12.212-38.354.275-1.733,7.908-11.494,9.521-14.344,26.255-46.384,39.41-81.705,5.581-129.193-31.936-44.831-87.182-72.979-142.864-67.09-32.166,3.402-51.44,21.291-72.549,43.451-1.751,1.838-8.295,11.065-9.596,11.335-1.158.24-17.438-5.506-22.844-5.844-9.55-.596-19.467,3.494-25.909,2.988-7.382-.58-27.086-8.583-36.204-10.874-128.821-32.371-210.5-27.597-294.832,82.01-35.389,45.995-55.517,96.195-86.186,143.814-3.778,5.866-10.195,11.647-13.226,17.774-3.114,6.294-2.898,12.229-4.954,18.046-2.654,7.507-10.035,17.223-14.222,24.278ZM897,177c17.131-18.113,48.927-41.806,48.6-69.333-.522-43.94-69.802-49.864-86.078-11.646-.856,2.01-5.15,15.429-4.522,15.971,1.033.892,23.503,2.56,26.995,4.011-1.806-32.052,45.712-27.451,36.486,1.98-5.202,16.594-58.48,58.219-58.48,62.516v18.5h86v-22h-49ZM790,111c-2.248-1.258-20.785.944-25,0l27.912,41.347-30.912,45.653h25c1.679-3.091,16.849-29.528,18.488-29.007,1.627.517,16.305,29.007,18.012,29.007h24.5c-2.429-6.903-31.048-42.937-30.824-46.339.292-4.443,25.334-33.5,27.824-40.661h-24c-1.47,0-13.364,24.975-15.5,24.978-1.807.003-14.217-24.261-15.5-24.978Z"/>
  <path class="cls-5" d="M0,610c117.236-17.616,240.868-43.253,359.198-20.698,7.713,1.47,17.198,3.987,24.791,6.216,3.956,1.161,28.654,9.02,30.006,10.5,1.498,1.64-3.527,3.759-4.549,3.926-6.494,1.057-30.23,1.567-34.44,5.564-2.087,1.981-.104,3.098,1.5,4.488,8.443,7.314,60.642,24.178,71.889,23.886,3.554-.092,7.845-.605,3.943-3.719-3.805-3.037-26.325-6.834-33.102-8.898-3.706-1.128-37.308-11.778-37.248-13.763.087-2.882,53.305-1.864,57.549-1.538,47.699,3.668,112.873,66.629,136.875,106.125,8.793,14.469,24.206,47.143,19.907,63.732-1.576,6.082-16.02,14.676-21.679,16.345-.722.213-1.277,1.57-2.17-.134s-1.926-12.773-2.77-16.231c-12.075-49.459-57.242-80.016-100.698-100.814,4.668-10.477,21.598-24.073,18.781-36.271-1.252-5.422-31.058-25.504-34.227-24.699-.878.223-1.467,1.333-1.432,2.327.054,1.523,10.168,12.13,12.109,14.923,2.004,2.883,9.656,15.607,9.725,18.34.193,7.699-18.735,20.837-15.455,28.371.923,2.118,26.443,14.121,31.163,16.856,40.143,23.254,77.603,59.035,72.193,109.528-21.443,23.965-36.737,55.414-66.189,70.812-44.604,23.32-103.626,24.857-151.666,38.829,4.316-47.355-13.503-96.637-49.537-127.969-3.753-3.264-8.613-5.414-11.842-7.959-.852-.672-.989-1.651-.621-2.055.557-.612,12.975-5.043,15.352-6.159,24.401-11.461,41.418-20.573,68.459-26.541,6.71-1.481,37.388-5.191,40.177-6.823,3.654-2.138-1.354-3.073-3.618-3.367-16.973-2.203-36.707,2.916-53.376,5.862-1.917-1.463,10.898-8.897,11.98-9.509,48.321-27.372,121.527-23.79,160.558,18.483,19.369,20.977,17.05,46.465,18.473,73.037,3.11-1.598,3.519-7.353,3.851-10.638,4.529-44.75-21.039-78.619-60.516-96.209-46.87-20.883-103.72-11.288-144.658,18.034-1.898,1.36-16.87,14.569-17.688,13.801-1.592-1.495,17.487-26.886,19.974-29.514,11.247-11.886,22.441-15.929,34.147-24.877,1.093-.835,2.482-.017,1.872-2.592-32.441,6.761-58.104,35.292-70.607,64.881-24.653,12.608-51.774,19.511-75.737,33.263-15.48,8.884-38.365,19.718-55.667,26.333-31.882,12.189-54.649,9.513-87.471,12.529-24.362,2.238-50.198,6.758-73.256,10.923-4.676.845-9.61.931-14.256,2.065v-239ZM444.994,631.995c2.826-2.818-14.287-17.638-15.993-11.474-1.332,4.81,15.266,12.199,15.993,11.474ZM151.995,782.994c1.039-.917-1.352-2.81-2.062-3.427-9.848-8.56-28.101-18.001-39.824-27.175-30.397-23.788-45.545-45.748-70.907-72.092-.515-.535-1.943-3.606-3.195-2.293-1.055,1.106,9.636,18.964,11.182,21.307,19.129,28.993,45.806,55.751,76.146,72.854,3.984,2.246,25.47,13.642,28.661,10.827ZM272.794,770.182l-72.783-71.182c2.632,8.413,10.086,16.75,15.597,23.891,9.641,12.492,38.659,46.892,52.683,51.333,3.674,1.163,6.397-.4,4.502-4.042Z"/>
  <path class="cls-7" d="M0,437c4.187-7.055,11.568-16.771,14.222-24.278,2.056-5.816,1.84-11.752,4.954-18.046,3.031-6.126,9.448-11.907,13.226-17.774,30.669-47.618,50.797-97.818,86.186-143.814,84.332-109.607,166.011-114.381,294.832-82.01,9.118,2.291,28.822,10.294,36.204,10.874,6.442.506,16.359-3.584,25.909-2.988,5.406.338,21.686,6.084,22.844,5.844,1.3-.27,7.845-9.497,9.596-11.335,21.109-22.16,40.382-40.049,72.549-43.451,55.683-5.889,110.928,22.259,142.864,67.09,33.828,47.488,20.674,82.808-5.581,129.193-1.613,2.85-9.247,12.612-9.521,14.344-.585,3.69,10.429,31.859,12.212,38.354,2.687,9.793,9.389,31.884,3.355,40.347-7.986,11.201-26.565-5.25-32.877-11.825-2.805-2.922-11.116-15.998-11.993-16.519-1.275-.758-7.669,6.107-10.696,6.778-5.147,1.14-13.585-1.172-16.678-.55-1.847.371-3.825,5.429-5.577,7.295-2.41,2.568-15.51,13.137-15.859,14.141-.514,1.479-1.295,30.239-.163,31.322.562.538,9.742,1.537,14.489,5.011,9.025,6.605,8.047,15.726,11.764,19.741,3.031,3.274,12.829,5.065,17.2,12.293,4.64,7.673-.544,11.856.676,16.252.64,2.305,11.215,7.823,13.564,17.513s-3.845,14.457-3.65,15.579c.28,1.615,13.111,8.34,14.451,11.6,7.651-8.288,20.132-17.965,32.051-14.03,6.66,2.199,13.114,14.447,17.937,20.059,3.172,3.692,20.047,23.477,22.536,24.464,3.245,1.287,13.208.987,18.025,1.975,4.166.855,8.736,2.657,12.635,4.365,15.227,6.666,31.514,17.923,46.824,25.176,6.047-18.63,5.78-39.442,32.164-30.165,30.386,10.684,44.547,60.814,42.303,89.649-.541,6.946-4.203,15.371-4.641,21.152-.544,7.176,2.5,19.84,2.702,27.834.841,33.203-7.575,73.935-29.072,100.004-4.989,6.05-12.045,10.487-15.966,17.523,14.05,1.834,30.421,2.977,43.781,7.73,31.078,11.057-10.96,18.121-21.578,19.984-55.95,9.816-123.643,10.043-180.741,9.335-40.882-.507-134.054-12.375-167.161,4.762-8.822,4.567-20.668,17.179-29.409,23.591-46.88,34.39-103.662,38.217-158.902,50.098-17.641,3.794-47.956,14.965-64.477,13.496-20.626-1.833-34.827-2.287-55.996.03-22.869,2.504-41.032,11.906-62.139,14.861-19.097,2.673-46.973,3.32-66.839,4.161-37.591,1.591-75.136.979-112.538-3.038v-11c.667-.005,1.333.007,2,0,17.356-.194,37.587,3.528,55.462,4.038,19.114.545,38.655.534,57.538-2.038,8.716-.207,17.31-.618,26-1,9.869-.433,20.236-.247,30-1,5.165-.398,8.278-1.64,13-3l50-15c5.585-.827,12.831.02,19-1,15.192-2.512,30.179-6.325,45.31-9.19,2.667-1.234,1.93-15.719,1.669-19.289-1.5-20.482-10.541-44.299-22.979-60.521-3.436-5.649-4.602-7.19-9-12-4.48-6.636-10.696-13.529-18-17-1.967-1.64-3.347-4.367-6.722-4.789-4.037-.504-21.372,6.412-26.242,8.325-11.543,4.533-22.67,10.52-34.036,15.464l-18.994,6.988,29.994,7.012c.299.425,1.175,1.877,1,1.989-3.064,1.964-21.387-.579-26-.989-3.018-.268-7.222-1.74-10.52-1.979-53.55-3.879-106.102,4.389-158.48,13.979v-10c4.646-1.134,9.58-1.221,14.256-2.065,23.058-4.164,48.894-8.684,73.256-10.923,32.822-3.016,55.589-.34,87.471-12.529,17.302-6.615,40.187-17.449,55.667-26.333,23.964-13.752,51.084-20.655,75.737-33.263,12.504-29.589,38.167-58.12,70.607-64.881.609,2.574-.78,1.756-1.872,2.592-11.706,8.948-22.9,12.991-34.147,24.877-2.487,2.628-21.566,28.019-19.974,29.514.818.768,15.789-12.441,17.688-13.801,40.938-29.322,97.789-38.918,144.658-18.034,39.477,17.589,65.044,51.459,60.516,96.209-.332,3.285-.741,9.04-3.851,10.638-1.424-26.573.895-52.061-18.473-73.037-39.031-42.272-112.237-45.855-160.558-18.483-1.081.612-13.897,8.046-11.98,9.509,16.669-2.946,36.403-8.065,53.376-5.862,2.264.294,7.272,1.228,3.618,3.367-2.788,1.632-33.467,5.342-40.177,6.823-27.041,5.968-44.058,15.08-68.459,26.541-2.377,1.116-14.796,5.548-15.352,6.159-.368.405-.232,1.384.621,2.055,3.229,2.546,8.089,4.696,11.842,7.959,36.034,31.332,53.854,80.614,49.537,127.969,48.04-13.972,107.063-15.51,151.666-38.829,29.452-15.398,44.746-46.847,66.189-70.812,5.41-50.493-32.05-86.275-72.193-109.528-4.721-2.735-30.241-14.738-31.163-16.856-3.281-7.533,15.648-20.672,15.455-28.371-.069-2.733-7.721-15.456-9.725-18.34-1.941-2.793-12.055-13.4-12.109-14.923-.035-.994.554-2.104,1.432-2.327,3.17-.805,32.975,19.277,34.227,24.699,2.818,12.198-14.113,25.794-18.781,36.271,43.455,20.799,88.623,51.356,100.698,100.814.844,3.458,1.875,14.523,2.77,16.231s1.448.348,2.17.134c5.659-1.669,20.103-10.264,21.679-16.345,4.299-16.588-11.115-49.263-19.907-63.732-24.002-39.496-89.175-102.458-136.875-106.125-4.244-.326-57.462-1.344-57.549,1.538-.06,1.985,33.543,12.634,37.248,13.763,6.777,2.064,29.297,5.861,33.102,8.898,3.902,3.114-.389,3.627-3.943,3.719-11.247.293-63.446-16.572-71.889-23.886-1.604-1.39-3.587-2.507-1.5-4.488,4.21-3.996,27.946-4.507,34.44-5.564,1.022-.166,6.046-2.286,4.549-3.926-1.352-1.48-26.05-9.339-30.006-10.5-7.593-2.228-17.078-4.746-24.791-6.216-118.331-22.555-241.962,3.083-359.198,20.698v-10l121.007-19.004c1.005-.993-4.264-12.763-5.286-13.711-1.578-1.464-20.569-8.536-23.957-9.549-22.008-6.577-37.185-5.49-59.252-5.65-13.117-.095-5.21-5.126,3.288-6.787,27.213-5.319,53.19,1.667,78.195,11.695-2.079-5.643-1.166-26.314-3.162-29.832-.702-1.238-21.376-11.015-25.138-13.357-7.855-4.891-14.831-10.947-22.679-15.803-5.855,11.567-15.405,23.844-25.004,32.508-6.601,5.958-17.276,14.668-26.006,15.483l32.005-36.483c-5.173-1.862-32.155-1.008-33.007-6.026-.168-.991,1.104-2.485,1.496-2.485h34.5c-2.236-5.261-9.28-8.973-13.526-12.974-11.27-10.62-22.945-23.398-28.488-38.018l-4.986,4.992v-18ZM682,149.989c-1.74-2.862-5.019-4.844-7.688-6.801-35.54-26.056-93.828-34.522-131.032-9.408-6.05,4.084-34.093,28.785-34.022,34.546.086,6.936,27.628,46.566,33.716,53.201,1.139,1.241,7.684,8.368,9.011,7.471.749-.507,6.913-13.311,8.603-15.91,27.98-43.048,66.394-74.945,121.412-63.099ZM61,404.5c-.618-4.774.449-10.588,0-15.5,5.527,9.019,7.893,19.565,13.145,29.355,9.33,17.394,23.248,31.457,40.844,40.644-.606-10.154,8.233-29.023,7.74-37.71-.129-2.263-3.807-5.372-4.495-9.024-4.097-21.766,13.331-56.366,14.431-76.894.35-6.542-5.09-21.177-5.702-29.834-.805-11.385,0-25.288,2.713-36.362.302-1.234,5.519-19.287,8.319-16.169.659.734-2.79,16.266-2.977,19.511-.25,4.318.353,29.143,1.994,31.483,1.786,2.546,8.854-29.92,9.482-32.007,1.926-6.407,4.413-13.99,6.763-20.237.625-1.66,11.371-29.566,14.738-25.75l-36.824,161.805c32.455,21.331,71.889,35.669,110.508,41.011,5.49.759,27.902,3.943,31.358,1.714,1.525-.983,9.871-31.759,9.853-34.927-.038-6.832-5.98-28.222-8.175-35.823-2.441-8.453-6.412-16.295-8.705-24.778,7.629,7.035,12.328,16.822,16.006,26.477,2.065,5.421,2.881,12.388,4.878,17.125.53,1.257-.407,1.759,2.092,1.389,30.581-55.659,40.314-149.85-28.307-181.177-3.603-1.645-24.505-7.69-7.145-6.854,18.452.889,36.839,15.366,47.278,29.72,24.616,33.847,23.374,81.164,14.198,120.306,23.279-35.152,27.188-88.999,12.751-128.255-1.949-5.299-6.061-10.001-6.75-15.738,29.179,31.464,27.365,89.317,12.735,127.246-11.524,29.878-32.042,41.033-41.248,72.752-2.823,9.726-13.514,61.999-17.54,65.46-2.203,1.893-7.167,1.845-8.442,3.558-.59.793-3.001,9.038-2.434,9.897,1.465,2.221,46.624,8.93,52.369,9.135,11.524.412,23.543-1.069,35.029-2.069,10.584-.921,39.26-3.013,47.713-6.287,14.515-5.622,29.264-36.901,37.003-49.997,1.93-3.266,12.542-17.731,12.822-19.184.403-2.092-.355-1.298-1.523-1.488-2.357-.384-8.557-1.334-10.461-.522l-51.794,41.254c-4.172,1.021-32.826-5.735-34.164-9.398-2.091-5.728,19.621-20.33,23.959-24.822,5.22-5.405,26.744-41.836,23.877-46.425-.376-.602-11.475-4.872-13.13-5.395-5.136-1.621-29.678-4.724-30.639-7.358-2.712-7.432,10.464-55.727,13.591-66.123,9.975-33.153,26.674-75.354,49.296-101.704,5.143-5.99,12.39-11.038,17.33-16.438.703-.769,1.004-.599.635-2.079-76.982-22.975-160.752-42.791-234.302,1.179-73.94,44.203-109.488,126.372-150.527,197.473-16.461,28.52-33.413,33.329-14.336,68,15.477,28.127,45.683,53.217,74.157,67.332-2.566-7.042,4.342-30.83,2.91-35.32-.354-1.11-16.839-10.066-19.808-12.27-14.665-10.885-30.684-31.335-33.09-49.91ZM701.994,171.994c-4.876-2.212-5.464-8.117-10.276-11.213-4.669-3.005-14.769-4.855-20.373-5.627-56.047-7.723-88.88,33.586-116.292,75.345,42.689,36.613,104.023,44.032,145.445,82.481,17.88-27.176,39.863-62.198,32.046-96.027-4.667-20.198-19.252-41.355-34.535-54.954l3.983,9.994ZM492.999,172.012c-54.451-19.347-84.232,35.46-101.463,77.024-12.902,31.122-22.784,64.781-26.615,98.358.869,3.338,47.251-.732,52.574,11.632,2.56,5.947-4.094,5.057-6.88,7.089-1.858,1.354-13.596,27.653-12.603,28.885,1.129,1.401,27.265-17.976,30.806-18.586-11.784-46.538-10.619-99.391,6.701-144.394,4.798-12.467,22.471-47.996,35.662-51.337,10.214-2.587,15.094,6.899,21.818-8.67ZM511.993,192.996c.724-.746-7.465-19.18-8.487-18.99-1.609.298-19.745,25.916-18.505,26.983.894.77,14.429-8.547,21.57-9.027,1.561-.105,5.144,1.32,5.423,1.034ZM486,213c-7.031,7.009-11.616,19.428-14,29-.658,2.642-.611,4.613-1,7-1.48,9.086-3.203,12.583,0,22,.828,2.433,2.951,7.062,4.915,8.585,1.527,1.184,6.067,1.87,6.063,2.915-.018,4.177-9.108,3.445-11.978,2.5-.552-2.05-3.109-2.391-4.029-3.75-12.484-18.449.335-59.023,15.023-74.239-7.302,1.625-23.782-2.836-24.994,6.989-6.935,8.36-13.862,28.275-17,39-6.718,22.961-11.894,60.492-8,84,1.638,9.886,3.062,10.367,12.999,12.989-4.103-17.406,1.081-38.126,10.148-53.342,12.742-21.382,5.473,1.364,4.174,9.174-.943,5.668-1.997,11.437-2.322,17.178-.94,16.6,1.528,33.633,4,50,.693,4.591,1.166,9.465,2,14,.433,2.356,2.404,15.461,3.047,15.958.828.64,9.06-1.533,10.953-1.958,4.316-.97,8.669-2.009,13-3,5.943-1.36,12.577-2.141,18-5,.327-.043.671.038,1,0,11.221-1.31,23.104-2.667,34,1,1.713,1.132,3.063,3.13,4.991,3.998-2.558-10.924,9.686-21.661,20.009-21.987-2.617,3.308-6.741,4.75-9.421,8.068-10.822,13.398,1.122,14.436,8.968,21.874,4.977,4.718,7.797,12.054,14.453,15.047,6.505,2.925,9.59,3.369,15-1,.344-.278.721-.656,1-1,6.678-8.241,6.096-23.088,11-33,4.207-7.147,10.128-13.356,17-18,11.835-4.538,24.737-.449,36.483-1.014,2.037-.098,7.32-1.009,8.509-2.972-24.334-11.362-53.163-12.395-74.497-30.008.469,3.764,5.646,8.415,8.506,10.994,2.019,4.22,3.98,5.79,7,9,4.134,7.456.415,7.431-6.736,5.236-7.843-2.408-19.644-15.651-26.264-21.236-3.513-5.849-3.987-11.073-10.309-15.192-3.525-2.296-12.097-2.992-8.691-6.808,5.261-1.055,7.853-1.12,13,0,3.463.754,5.849,2.431,8.993,2.507-5.941-8.135-10.522-17.072-14.848-26.151-1.631-3.424-7.224-19.942-8.391-21.107-1.552-1.551-11.614-1.488-14.163-1.157-11.507,1.493-15.243,12.422-24.825-.356-9.957-13.278-1.233-16.941,2.235-29.735,2.598-9.585,4.448-27.458-3-35-11.37-11.513-25.224-3.897-32,8ZM553.995,261.994c.603-4.112-18.881-47.374-23.99-41.987-.307.324,1.157,3.968,1.09,5.479-.129,2.89-.858,7.794-1.355,10.753-1.15,6.839-13.974,30.66-2.262,30.843,5.545.087,18.611-8.257,26.517-5.088ZM718.989,389.999c-6.36-20.616-10.181-42.532-17.727-62.761-5.606-15.029-18.692-21.196-32.242-28.758-32.738-18.271-69.117-28.857-100.333-50.667-1.696-1.185-15.968-13.578-16.682-12.807,13.13,25.187,19.877,58.351,38.029,80.46,27.734,33.781,81.551,26.104,113.486,55.514,6.579,6.059,8.024,14.169,15.469,19.02ZM629,379c3.757,2.329,8.964,1.519,12-1,.685-.568,2.015-.845,1.999-1.988-3.366-.18-16.066-3.461-16.038.506.011,1.552,1.005,1.841,2.039,2.482ZM616,388c-2.052,4.151-5.666,10.982-6.028,15.486-.306,3.813,4.429-2.028,5.028-2.486,5.19-3.969,10.415-7.803,14.995-12.505-8.826-5.361-7.885-15.151-13.995-.495ZM454.994,400.994c-2.919-10.718,1.816-18.993-13.254-16.745-14.416,2.15-29.776,10.219-41.627,18.364-15.107,10.383-28.876,22.915-43.107,34.376,8.604-1.21,20.654,5.991,28.34,2.852l43.645-31.861c-.029-.738.475-1.703-.494-1.985-3.847-1.118-19.757,2.542-21.491.999-.909-.808.928-2.358,1.515-2.974,8.238-8.649,35.279-4.324,46.474-3.026ZM271.004,438.001c-39.213-1.144-83.544-10.6-118.359-29.146-8.289-4.415-15.6-10.098-23.639-14.849-1.003,12.965-3.619,14.467,6.529,22.964,23.555,19.723,77.656,34.639,108.097,37.898,17.109,1.832,26.796,4.831,27.372-16.867ZM554,413c-18.025-19.441-36.529-13.21-59.189-8.689-6.359,1.269-36.166,7.489-39.509,10-1.524,1.145-2.469,4.548-3.302,5.689-14.795,20.259-24.93,40.921-41,62-9.501,3.587-8.716,17.599-8,26,.219,2.569,3.862,13.668,2,14-4.689-7.995-7.55-16.138-8.083-25.487-.24-4.207,2.721-7.617-.917-7.513-10.969.313-23.079,3.542-34,5-17.491-.009-34.386,4.299-52,3-2.938-.217-7.801-1.559-11-2-32.011-4.409-63.152-16.166-96-7-.326.05-.676-.054-1,0-10.057,1.669-21.108,7.196-31,10-1.291.057-6.571,2.849-3.02-1.52,6.412-7.892,33.004-16.773,43.02-18.48,14.266-2.43,28.442-2.894,42.906-1.082.038-1.862,4.051-9.018,3.089-9.912-.918-.854-21.556-1.631-24.995-2.006-.329-.036-.671.039-1,0-34.468-8.282-70.069-16.242-99.489-37.011-3.066,12.126-5.802,24.602-7.511,37.011-.798,5.792-1.525,12.185-2,18-1.356,16.609-1.526,33.359,0,50,1.261,13.746,2.859,28.7,11,40,2.176,3.021,2.906,5.939,7.52,6.041,14.191.313,35.743-4.801,50.992-6.029,43.882-3.532,79.645-.486,122.488-.012,2.834.031,6.289.293,9,0,19.415-2.098,56.244-15.75,76.764-21.736,14.168-4.133,14.916-4.838,30.236-6.264.985-.092,2.014.088,3,0,6.746-.599,15.801-1.273,21-6,10.928-4.37,19.864-13.452,27-22l3-4c.314-.317.663-.765,1-1,3.415-1.475,6.165-1,9.5-1h18c12.225,0,34.394,14.121,47.5,9,10.429-4.075-6.871-8.57-10.693-10.807-7.188-4.209-11.928-8.262-20.307-12.193-11.621-12.606-31.124-7.051-45-15-1.757-5.869,3.007-2.58,8-2,10.012,1.162,20.031,2.534,30,4,.982,1.279,24.313,13.973,28,16,7.247,3.984,19.449,14.642,26.417,6.917,11.083-12.287-12.036-19.44-6.417-3.917.781,1.895,3.182,2.141,4,4-2.895.62-5.344-1.552-8-2-4.885-8.616,2.845-10.496-.091-15.354-1.09-1.804-29.947-23.224-33.599-25.457-10.972-6.706-17.593-5.041-29.31-6.19-6.351-2.634-13.274-1.953-19-6-.091-.308-.092-1.8,0-2,15.276,1.996,31.251-.092,46,5,13.29,7.041,25.312,19.309,39,26,5.043,7.768,21.515,11.722,23.616.034,1.037-5.772-1.737-5.136-3.616-7.034-16.597-16.774-38.582-27.734-56.694-42.882-4.617-.819-6.554-1.818-11.306-2.118-12.606-.794-26.176.575-38-5,.834-3.566.897-1.445,4-2l48,1c10.624,5.553,22.129,19.174,34,26,8.068,7.538,11.824,15.151,22,5,.761-.759,2.85-2.254,2.859-2.442.459-9.969-7.666-11.308-12.859-15.558-9.098-7.446-17.362-16.229-27-23ZM622,430.5c1.543-4.65-1.145-17.801,0-23.5-7.699,6.039-15.499,12.499-20.477,21.023-1.353,2.461-10.937,3.137-10.53,5.466.14.802,9.981,9.495,10.49,12.453,2.489-2.123,20.113-14.223,20.517-15.442ZM51.994,491.995c.411-.452,2.939-10.957,2.538-11.951-.695-1.722-11.602-12.934-13.943-16.133-8.92-12.197-16.327-24.865-22.089-38.889-1.621,4.355-9.222,13.384-10.095,16.954-1.153,4.716,18.356,29.056,22.638,33.525,1.781,1.859,19.602,17.978,20.95,16.493ZM620,442c-2.058,1.459-3.698,2.764-5,5-2.982,5.122-1.977,8.167-1.994,13.994l4.996-8.543,2.998-2.451c1.33,1.428.95,1.416.79,3.171-.782,8.561-3.802,18.409-4.79,27.829-.632,6.028-2.649,10.433-.525,17.028,1.841,5.713,8.694,11.49,13.519,5.466-8.974-.246-13.898-8.143-10.994-16.494,2.001-5.757,5.909-6.591,11-4,1.163,2.574,6.882,7.483,2,7-.222-.387.472-2.099-.159-2.803-1.431-1.595-9.657-2.243-9.802,2.275-.058,1.817,6.907,11.852,7.982,12.506,2.595,1.578,2.654-3.518,2.979-4.977l15-37c.662-7.669-1.563-14.645-8-19-7.555-5.112-12.926-4.016-20,1ZM633,523c1.498,11.369,13.635,13.324,17,0l8-20c.153-.329.835-.631,1-1,2.678-5.978,9.53-23.602,8.942-29.422-.444-4.391-11.552-12.15-13.927-10.582-1.265.835-8.294,24.734-9.842,28.677-3.91,9.955-12.528,22.045-11.173,32.327ZM612,504c-1.642-4.92-3.923-10.208-4.066-15.502-.241-8.937,6.071-16.475-3.429-22.497-3.118-1.976-10.32-1.418-11.503,1.015-.529,1.088,5.328,3.558,4.998,5.984,3.351,12.663-.179,11.931-7,21-6.741,2.339-2.953,14.191-10,19-1.801,1.285-9.541,4.693-9.824,5.171-.255.431-.758,5.98-1.176,7.829-.885,3.912-1.979,7.94-2,12-.101.301-.885.649-1,1-5.515,16.833-8.626,35.27-19,50-23.452,6.094-41.073,22.761-61.997,33.986,49.552,27.99,90.929,71.911,114.498,123.992,5.255-8.341,12.469-14.484,20.5-19.978,3.178-3.51,24.282-6.912,25-8.015.198-.304-2.629-5.306-2-6.985.225-3.617-.032-7.366,0-11,.451-12.773,7.71-17.736,19-21,1-.029,12.564-.027,8.995,2.994-.491.416-7.528,1.186-11.995,4.006-13.45,8.49-10.221,25.705-2,37,6.316,13.5,19.838,25.096,34,30,12.551,4.346,23.829,5.037,35-3,4.781-3.44,5.611-4.985,8-10,5.281-11.089,4.188-15.202-2-25-4.321-6.841-10.127-12.895-14-20-2.164-5.275-6.03-26.215,1.613-27.778,1.821-.372,16.249,4.794,20.188,5.476,23.871,4.137,30.011-4.923,50.191-9.206,21.59-4.582,38.702,3.061,54.994,16.504,7.866-24.233,27.375-41.817,11.811-68.295-9.437-16.055-59.342-42.95-77.798-44.702-6.06-.575-7.188.956-14-3l-25-26c-7.14-9.847-6.911-20.223-23.007-15.295-7.365,2.255-15.571,14.077-19.462,14.355-5.429.388-12.446-15.486-19.88-14.839-3.376.294-20.667,20.325-28.626,22.33-7.021,1.768-4.123-3.562-5.062-4.511-.45-.454-4.664.303-6.251-.069-.469-.11-7.152-5.192-7.712-5.763-6.886-7.021-3.399-11.953-5.326-18.931-.419-1.517-5.802-3.068-7.191-4.262-3.217-2.767-4.297-4.569-6.482-8.015ZM667,519c-.278.405-.377,2.959-1.5,2.978-.553.009-3.717-4.439-4.486-3.975-.7.422-5.508,13.008-6.503,15.008,6.496-2.887,10.676-9.118,15.489-14.011,2.078-2.113,10.347-7.935,11-11,.758-3.562-2.617-8.477-5-11-3.309-5.548-3.563-7.466-7.175-.675-1.007,1.893-6.61,16.194-6.48,17.198.142,1.102,3.848,4.044,4.655,5.477ZM545.797,529.214c-.969-1.264-27.157-8.481-30.576-8.935-2.266-.301-19.496-1.388-20.485-1.115-1.473.406-15.31,14.413-18.271,16.802-10.812,8.72-23.005,16.893-37.095,18.905-30.397,4.339-56.774,11.139-86.136,20.865-1.226.406-4.218.734-4.229,2.253,19.491,1.267,37.182,10.594,55.988,14.518,5.452,1.138,15.579,2.924,20.869,2.917,13.436-.016,26.252-12.134,43.397-9.183,10.184,1.753,25.347,18.666,28.069,18.561,4.35-.168,18.02-12.778,23.35-15.625,6.442-3.441,21.293-6.447,25.176-11.824,1.718-2.378,10.245-26.642,10.095-28.902-.075-1.122-6.036-8.243-7.328-10.572-1.232-2.22-2.463-8.195-2.823-8.665ZM558.988,537.999c-.071-1.747,1.815-6.915,1.001-7.999-.789-1.05-9.363,3.903-1.001,7.999ZM890.011,718.994c-.22-26.528,23.14-50.605,24.025-76.462.602-17.595-8.603-46.608-19.622-60.446-4.612-5.792-21.33-20.172-28.468-13.638-2.421,2.216-9.375,24.583-8.937,27.971l13.978,24.572c4.437-14.229.406-28.628.025-42.991,28.903,36.168-6.409,74.559-18.026,109.484-3.835,11.528-6.546,23.434-7.992,35.519-2.654.338-1.557-.15-2.027-1.463-2.686-7.498.956-29.998-.475-32.529-2.521-4.459-29.152-16.248-35.102-16.902-25.239-2.772-39.277,16.028-72.228,8.229-8.456-2.001-13.939-9.408-11.719,2.72,4.243,23.185,32.94,32.099,20.052,61.935-14.424,33.394-58.789,22.521-80.517,2.529-3.054-2.81-15.209-19.473-16.481-19.634-13.706-1.739-44.176,21.423-43.465,34.485.077,1.421,4.234,18.464,4.958,19.137.845.786,5.954,1.806,8.038,2.962,15.657,8.684,26.498,22.489,41.669,32.331,17.602,11.419,39.178,20.569,60.315,20.696-7.815-3.9-15.887-7.807-22.899-13.113-1.693-1.281-12.374-8.939-10.107-11.382,36.995,24.057,90.416,33.117,131.664,15.165,2.531-1.101,18.535-10.919,19.324-10.164,2.562,2.449-16.958,17.316-18.989,18.5,16.219-1.536,32.227-11.984,44.886-22.114,26.414-21.139,41.852-48.749,47.809-82.191,3.031-17.015,2.187-33.057,2.296-50.192l-21.985,36.986ZM433.004,603.012c-3.589,5.061,22.24,1.34,24.356,2.127,2.004.745,1.744,4.422,3.683,6.317,3.888,3.801,22.963,5.12,23.951,1.028.613-2.541-14.088-16.699-18.562-17.409-4.009-.637-32.427,6.525-33.429,7.937ZM335.759,926.766c2.922-2.641,2.601-25.359,2.29-30.316-1.991-31.762-21.815-71.281-45.038-92.962-2.921-2.727-15.888-13.442-18.902-13.999-4.802-.888-20.083,8.514-26.108,8.523,36.221,24.776,61.425,68.129,63.037,112.45.14,3.855-1.798,21.705-1.032,22.533.899.973,24.77-5.34,25.753-6.228ZM636,812.989c-6.322-5.036-21.457-22.212-29.521-22.089-1.654.025-5.035,6.352-6.99,8.089-6.508,5.782-15.013,8.279-21.489,14h57.999ZM815.994,837.011c-1.071-.716-2.737.477-1.989.977,1.071.716,2.737-.477,1.989-.977ZM720.994,838.011c-1.071-.716-2.737.477-1.989.977,1.071.716,2.737-.477,1.989-.977Z"/>
  <path class="cls-3" d="M250,813c5.965,4.974,12.756,11.265,18,17,4.398,4.81,5.564,6.351,9,12,14.145,23.259,23.13,49.704,22.044,77.333-.696,2.316-39.279,8.62-44.596,9.633-2.199.419-3.353-.917-1.448,2.035-6.169,1.02-13.415.173-19,1-17.161,2.542-33.479,10.24-50,15-4.722,1.36-7.835,2.602-13,3-8.305-1.628-18.061-1.283-26.549-1.001-1.922.064-4.013-1.017-3.451,2.001-8.69.382-17.284.793-26,1-22.872.544-47.273,1.012-70.538.038-13.887-.581-28.858-3.776-42.462-2.038-.667.007-1.333-.005-2,0v-90c29.608-3.474,58.736-10.756,88.515-12.985,26.763-2.004,53.74-.835,80.485-.015,4.613.41,22.935,2.953,26,.989.175-.112-.701-1.564-1-1.989-2.672-3.8-19.8-6.529-25-7.011l14-6.989c11.366-4.944,22.493-10.931,34.036-15.464,4.871-1.913,22.205-8.829,26.242-8.325,3.374.422,4.755,3.149,6.722,4.789ZM189,908c-6.675,1.074-12.104,2.451-18,6-12.151,7.313-7.211,8.138,4,6,4.756,1.94,20.967-5.479,24.081-8.581,1.031-1.027-.102-1.351-.081-1.419.195-.628,1.451-2.622.996-2.992-1.33-1.083-8.853.647-10.996.992Z"/>
  <path class="cls-4" d="M0,455l4.986-4.992c5.543,14.619,17.218,27.398,28.488,38.018,4.246,4.001,11.29,7.713,13.526,12.974H12.5c-.392,0-1.664,1.494-1.496,2.485.852,5.018,27.834,4.164,33.007,6.026l-32.005,36.483c8.73-.815,19.405-9.525,26.006-15.483,9.599-8.665,19.149-20.942,25.004-32.508,7.848,4.856,14.824,10.912,22.679,15.803,3.762,2.342,24.436,12.119,25.138,13.357,1.996,3.518,1.083,24.189,3.162,29.832-25.005-10.029-50.982-17.014-78.195-11.695-8.499,1.661-16.406,6.693-3.288,6.787,22.067.159,37.244-.927,59.252,5.65,3.388,1.013,22.379,8.085,23.957,9.549,1.022.947,6.291,12.717,5.286,13.711L0,600v-145Z"/>
  <path class="cls-6" d="M169,847c-26.746-.82-53.722-1.989-80.485.015-29.778,2.229-58.907,9.512-88.515,12.985v-1c52.378-9.59,104.93-17.859,158.48-13.979,3.298.239,7.503,1.711,10.52,1.979Z"/>
  <path class="cls-7" d="M897,177h49v22h-86v-18.5c0-4.297,53.279-45.922,58.48-62.516,9.226-29.431-38.292-34.032-36.486-1.98-3.493-1.451-25.962-3.119-26.995-4.011-.628-.542,3.666-13.962,4.522-15.971,16.276-38.219,85.557-32.294,86.078,11.646.327,27.526-31.469,51.22-48.6,69.333Z"/>
  <path class="cls-7" d="M790,111c1.283.718,13.693,24.981,15.5,24.978,2.136-.004,14.03-24.978,15.5-24.978h24c-2.49,7.161-27.532,36.218-27.824,40.661-.224,3.402,28.395,39.437,30.824,46.339h-24.5c-1.707,0-16.385-28.49-18.012-29.007-1.639-.521-16.808,25.916-18.488,29.007h-25l30.912-45.653-27.912-41.347c4.215.944,22.752-1.258,25,0Z"/>
  <path class="cls-7" d="M151.995,782.994c-3.191,2.815-24.677-8.581-28.661-10.827-30.341-17.103-57.017-43.86-76.146-72.854-1.546-2.343-12.237-20.201-11.182-21.307,1.252-1.313,2.681,1.759,3.195,2.293,25.362,26.345,40.51,48.305,70.907,72.092,11.723,9.174,29.977,18.615,39.824,27.175.71.617,3.101,2.51,2.062,3.427Z"/>
  <path class="cls-7" d="M272.794,770.182c1.895,3.643-.828,5.206-4.502,4.042-14.024-4.441-43.042-38.841-52.683-51.333-5.511-7.141-12.966-15.478-15.597-23.891l72.783,71.182Z"/>
  <path class="cls-7" d="M444.994,631.995c-.727.725-17.325-6.664-15.993-11.474,1.706-6.163,18.819,8.656,15.993,11.474Z"/>
  <path class="cls-8" d="M61,404.5c2.406,18.574,18.425,39.025,33.09,49.91,2.969,2.204,19.454,11.16,19.808,12.27,1.432,4.49-5.476,28.278-2.91,35.32-28.474-14.114-58.68-39.205-74.157-67.332-19.077-34.671-2.126-39.48,14.336-68,41.039-71.102,76.586-153.27,150.527-197.473,73.55-43.97,157.321-24.154,234.302-1.179.369,1.48.068,1.31-.635,2.079-4.939,5.399-12.187,10.448-17.33,16.438-22.623,26.35-39.321,68.55-49.296,101.704-3.128,10.396-16.303,58.69-13.591,66.123.961,2.635,25.504,5.737,30.639,7.358,1.655.522,12.754,4.793,13.13,5.395,2.866,4.589-18.658,41.02-23.877,46.425-4.338,4.492-26.05,19.094-23.959,24.822,1.337,3.664,29.991,10.419,34.164,9.398l51.794-41.254c1.905-.812,8.104.138,10.461.522,1.168.19,1.926-.603,1.523,1.488-.28,1.453-10.892,15.918-12.822,19.184-7.739,13.096-22.488,44.375-37.003,49.997-8.453,3.274-37.129,5.366-47.713,6.287-11.487,1-23.505,2.481-35.029,2.069-5.745-.206-50.904-6.915-52.369-9.135-.566-.859,1.844-9.104,2.434-9.897,1.275-1.713,6.239-1.665,8.442-3.558,4.026-3.46,14.718-55.734,17.54-65.46,9.205-31.719,29.724-42.875,41.248-72.752,14.629-37.929,16.444-95.782-12.735-127.246.689,5.738,4.801,10.439,6.75,15.738,14.438,39.256,10.529,93.103-12.751,128.255,9.175-39.142,10.418-86.459-14.198-120.306-10.44-14.354-28.826-28.831-47.278-29.72-17.36-.836,3.541,5.209,7.145,6.854,68.622,31.327,58.889,125.518,28.307,181.177-2.498.37-1.562-.132-2.092-1.389-1.997-4.737-2.813-11.704-4.878-17.125-3.678-9.655-8.377-19.442-16.006-26.477,2.293,8.483,6.264,16.325,8.705,24.778,2.195,7.601,8.137,28.991,8.175,35.823.018,3.168-8.328,33.944-9.853,34.927-3.456,2.228-25.869-.955-31.358-1.714-38.619-5.342-78.053-19.681-110.508-41.011l36.824-161.805c-3.367-3.815-14.113,24.09-14.738,25.75-2.351,6.247-4.837,13.83-6.763,20.237-.627,2.087-7.696,34.554-9.482,32.007-1.641-2.34-2.244-27.165-1.994-31.483.188-3.245,3.637-18.777,2.977-19.511-2.8-3.118-8.017,14.936-8.319,16.169-2.713,11.074-3.518,24.977-2.713,36.362.612,8.657,6.052,23.292,5.702,29.834-1.1,20.528-18.528,55.129-14.431,76.894.687,3.652,4.366,6.761,4.495,9.024.493,8.686-8.346,27.555-7.74,37.71-17.596-9.187-31.514-23.25-40.844-40.644-5.251-9.791-7.618-20.336-13.145-29.355.449,4.912-.618,10.726,0,15.5Z"/>
  <path class="cls-3" d="M612,504c2.185,3.446,3.265,5.247,6.482,8.015,1.388,1.194,6.772,2.745,7.191,4.262,1.927,6.979-1.56,11.911,5.326,18.931.561.572,7.244,5.653,7.712,5.763,1.587.372,5.801-.385,6.251.069.939.948-1.958,6.279,5.062,4.511,7.959-2.005,25.25-22.036,28.626-22.33,7.434-.647,14.451,15.227,19.88,14.839,3.891-.278,12.097-12.1,19.462-14.355,16.096-4.928,15.867,5.448,23.007,15.295,5.926,8.172,16.614,21.13,25,26,6.812,3.956,7.94,2.425,14,3,4.27,2.911,10.547,2.945,15.69,4.81,11.474,4.161,52.688,27.675,58.972,37.001,15.153,22.488,5.106,37.005-4.853,57.499-.965,1.986-3.38,10.333-3.821,10.691-1.464,1.187-9.493-5.592-11.685-6.804-43.219-23.897-52.039,5.181-89.667,1.666-5.417-.506-21.726-6.331-24.112-5.912-4.444.78-4.68,7.686-5.618,10.298-.296.824-1.482.685-1.628,1.283-.625,2.559,4.217,14.709,5.721,17.468,3.873,7.105,9.679,13.159,14,20,4.764,8.327,5.218,15.876,2,25-2.389,5.015-3.219,6.56-8,10l-15.511,5.019-19.489-2.019c-14.162-4.904-27.684-16.5-34-30-4.478-9.571-8.179-22.152-2.57-32.07,1.363-2.41,3.052-2.935,4.57-4.93,4.467-2.82,11.504-3.59,11.995-4.006,3.569-3.021-7.994-3.024-8.995-2.994-8.679.254-18.24,6.698-19.784,15.74-.531,3.113.786,4.994.784,5.26-.032,3.634.225,7.383,0,11-.008.126-.803.905-.958,2.332-.11,1.011,1.333,3.046.966,3.656-.654,1.086-21.015,4.83-23.962,8.122l.955.89c-8.03,5.494-15.245,11.637-20.5,19.978-23.569-52.081-64.946-96.002-114.498-123.992,20.924-11.226,38.546-27.893,61.997-33.986,1.384-.992,2.869-1.396,3.944-2.837,5.526-7.413,12.892-32.623,15.353-42.384.368-1.458,1.636-3.763-.297-4.779.115-.351.899-.699,1-1,1.104-3.286,4.737-8.606,2-12,.418-1.849.922-7.398,1.176-7.829.282-.478,8.022-3.886,9.824-5.171,9.032-6.441,4.914-8.306,6.988-16.283.162-.624,2.096-1.499,3.012-2.717,6.821-9.069,10.351-8.337,7-21-.02-.077.953-.784.773-1.351-.644-2.024-6.42-5.227.858-5.601,13.968-.717,6.185,18.378,7.46,27.36.625,4.404,2.791,7.25,4.909,10.591ZM699,553c-.24.362-3.001-.577-3.087,3.47-.04,1.865,1.76,5.331,3.087,6.53,4.965,4.484,14.615,1.876,20-1,.125-.067,1.301-1.392,2-2,.106-.093,2.245,1.613,1.994-1.994-3.732.04-27.849,4.279-22.983-5.008.239-.456,7.728.535,8.989-3.998,3.403-3.089,4.832-9.582,5-14,.009-.232,2.358-3.019-1.498-3.029-4.096-.011-10.842,17.011-13.502,21.029ZM581,546c-.019-.192,2.398-3.829-.978-1.974-2.15,1.181-2.061,6.288-1.997,8.462.937,31.753,10.918,70.78,25.975,98.513,6.15,9.985,26.395,27.79,38.501,27.987,2.453.04,7.691-.713,4.211-3.236-4.214-3.054-11.574-4.79-16.376-7.588-12.867-7.495-20.026-17.475-25.336-31.164-10.694-27.57-15.004-57.213-21.7-85.853-.407-1.742.52-3.74-2.3-3.147-.096-.633.065-1.35,0-2ZM781,596c-1.705,5.583-2.256,12.207-5.146,17.354-2.595,4.623-16.451,15.449-16.631,17.937-.301,4.16,6.169,1.154,9.563-.005,5.585-1.907,8.702-3.781,13.215-7.286,7.859-6.103,11.582-11.368,14-21,2.753,1.779,1.703.992,2.151-1.332,1.442-7.486,1.717-20.706-7.151-23.668-.862-.288-2.736-1.026-3.386-.828-2.695.819-5.553,15.353-6.614,18.828ZM750,581c-3.595,3.142-6.603,6.812-7.93,11.57-.642,2.303-3.019,23.929,1.917,20.425.869-.617,3.307-15.444,7.012-19.996l6.52-3.071,13.48,2.071c.164-2.009-.783-3.55-2-5-4.886-5.82-12.175-2.889-13.916-4.143-.367-.265.654-2.034-1.278-3.197-4.492-2.703-3.6,1.16-3.806,1.34ZM679,710c-2.225,6.159-1.214,13.839,1.072,19.988l.928-.988c.696,5.494,10.614,5.621,11,7,.019.068-.87.562-1.014.979,5.965.246,8.704.681,14.014-1.979,4.884-2.446,8.407-7.092,12-11,4.871.619,3.409,9.176,3.997,12.449l-7.997,8.551c-4.804,1.39-15.363-.49-15.998.007-.195.152-.172,4.77.005,4.942.314.304,7.477,1.981,8.491,2.056,24.293,1.803,33.256-28.621,10.193-39.197-7.748-3.553-20.332-3.38-24.572-11.428-2.895-5.496.012-11.089-9.417-8.174-6.395,1.977-.764,13.371-.824,15.321-.023.742-1.795,1.239-1.879,1.472ZM669,722c.185.27,4.261,1.797,4.505,3.995.85.046.578-1.333.495-1.995-.272-2.179-6.489-16.061-8.511-15.987-3.672.134,1.091,12.699,3.511,13.987Z"/>
  <path class="cls-3" d="M554,413c9.638,6.771,17.902,15.554,27,23-.282,4.596-1.76.972-2.986.009-.765,3.428-4.835,5.526-5.596,8.999-.712,3.248,2.286,6.106,1.571,6.992-.183.227-4.042-2.455-4.989-3-11.871-6.826-23.376-20.447-34-26-2.432-1.271-1.846-1.675-5.454-2.049-10.272-1.065-32.683-.716-42.546,1.049-3.103.555-3.166-1.566-4,2-.205.875-1.745.262.699,1.785,7.278,4.535,28.661,4.853,37.301,3.215,4.752.299,6.689,1.298,11.306,2.118,18.112,15.148,40.097,26.109,56.694,42.882,2.463,3.398,2.977,8.318-.5,11.131-1.689,1.366-2.365-.153-2.5-.131-9.278-4.626-8.513-7.994-6.006-16.995-5.3,1.529-7.478,9.654-4.994,13.995-.15,4.583-.879.453-1.748.031-1.248-.606-3.097-.466-4.252-1.031-13.688-6.691-25.71-18.959-39-26-4.405-2.334-10.091-5-15.5-5h-21c-1.449,0-8.166-2.908-9.5,0-.092.2-.091,1.692,0,2,1.642,5.572,14.599,5.568,19,6,11.717,1.149,18.338-.517,29.31,6.19,3.652,2.232,32.508,23.653,33.599,25.457,2.936,4.857-4.794,6.738.091,15.354.893,1.575,3.117,2.032,3.011,2.5-.694,3.063-13.918-6.119-15.139-6.874-.689-.426-3.55-2.318-3.873-.626-3.687-2.027-27.018-14.721-28-16-.043-.056.863-.568,1.013-.977-9.896-1.365-21.194-4.904-31.013-3.023-4.993-.58-9.757-3.869-8,2,.718,2.398,1.507,3.016,4.556,3.946,15.504,4.727,23.847,3.269,40.444,11.054,8.38,3.931,13.119,7.984,20.307,12.193,3.821,2.237,21.122,6.732,10.693,10.807-6.182-1.509-12.713-1.163-18.976-2.441-16.206-3.307-31.739-10.776-49.543-8.576-3.355.415-4.019,1.299-6.482,3.017-.337.235-.686.683-1,1-2.007,2.025-2.035,2.844-3,4-7.136,8.548-16.072,17.63-27,22-9.454,3.781-20.3,4.46-30.448,5.029-2.311.13-4.875-1.575-8.004-1.04-1.827.312-5.262,3.523-6.338,3.886-26.075,8.794-53.848,15.135-80.299,22.774-1.991.575-4.899,1.344-5.911,3.352-2.711.293-6.166.031-9,0-.735-2.373-2.645-1.861-4.458-2.045-56.546-5.744-113.855-.185-169.933,6.751l-6.609-4.707c-8.141-11.3-9.739-26.254-11-40,3.534.344,1.157-.847,1.086-2.576-.175-4.255-1.086-10.349-1.086-13.924v-17c0-4.226,2.921-11.833,0-16.5.475-5.815,1.202-12.208,2-18,3.032,1.963,1.584.626,1.973-1.51.795-4.372,4.831-32.291,6.04-33.488.739-.732,15.573,9.347,17.944,10.543,23.82,12.008,55.582,21.465,81.044,24.456.329.039.671-.036,1,0,2.741,3.302,22.18,2.176,23.001,3.005.519.525-.319,5.192-1.672,6.077-1.564,1.023-28.144.326-33.814.93-1.545.165-9.148.258-8.515,2.987-10.016,1.706-36.609,10.588-43.02,18.48-3.55,4.37,1.73,1.578,3.02,1.52,7.432-.33,19.646-5.119,28.023-7.528,1.645-.473,3.544.171,2.977-2.472.324-.054.674.05,1,0,32.887-5.09,58.86,2.824,90.987,7.539,1.528.224,4.022,1.354,5.013-.539,3.199.441,8.062,1.783,11,2l-.519,1.003c17.8,1.354,35.05-1.67,52.519-4.003,10.921-1.458,23.031-4.687,34-5-2.576,4.694,3.847,33.918,9,33,1.862-.332-1.781-11.431-2-14,1.479-12.442.395-16.024,8-26,16.07-21.079,26.205-41.741,41-62,1.461,1.65,2.62-3.352,4.082-4.421,3.819-2.794,55.993-14.017,63.443-14.555,14.743-1.064,22.919,3.858,34.475,11.976ZM468.994,424.006c-8.857-.537-16.031,6.047-20.403,13.085-1.225,1.971-6.479,10.998-.355,7.839l20.758-20.925ZM471.991,455.014c-9.066-4.471-16.512,5.888-19.986,12.98l19.986-12.98Z"/>
  <path class="cls-2" d="M890.011,718.994l21.985-36.986c-.109,17.135.734,33.178-2.296,50.192-5.957,33.442-21.395,61.052-47.809,82.191-12.659,10.131-28.667,20.578-44.886,22.114,2.03-1.184,21.55-16.051,18.989-18.5-.789-.754-16.793,9.063-19.324,10.164-41.248,17.952-94.669,8.892-131.664-15.165-2.268,2.443,8.413,10.101,10.107,11.382,7.011,5.305,15.084,9.212,22.899,13.113-21.138-.127-42.714-9.277-60.315-20.696-15.171-9.842-26.012-23.647-41.669-32.331-2.084-1.156-7.193-2.176-8.038-2.962-.724-.673-4.88-17.716-4.958-19.137-.711-13.062,29.759-36.224,43.465-34.485,1.272.161,13.427,16.824,16.481,19.634,21.729,19.992,66.093,30.865,80.517-2.529,12.887-29.836-15.809-38.75-20.052-61.935-2.22-12.128,3.263-4.722,11.719-2.72,32.951,7.799,46.989-11.001,72.228-8.229,5.949.653,32.581,12.443,35.102,16.902,1.431,2.531-2.211,25.031.475,32.529.47,1.312-.627,1.801,2.027,1.463,1.446-12.084,4.157-23.991,7.992-35.519,11.617-34.925,46.929-73.317,18.026-109.484.381,14.363,4.412,28.763-.025,42.991l-13.978-24.572c-.437-3.387,6.517-25.755,8.937-27.971,7.139-6.534,23.856,7.846,28.468,13.638,11.02,13.839,20.224,42.851,19.622,60.446-.884,25.857-24.244,49.934-24.025,76.462ZM835.006,791.995c2.201,2.44,15.857-14.317,17.214-16.274,17.205-24.81,17.625-56.1,15.763-85.203-.225-3.514-.737-9.489-2.489-12.511-2.683,12.906-1.275,27.083-2.511,40.478-1.943,21.051-6.702,38.359-17.571,56.429-1.624,2.7-12.015,15.299-10.407,17.082Z"/>
  <path class="cls-3" d="M518,205l3.977,14.522-.977,20.478c-3.468,12.794-12.193,16.457-2.235,29.735,9.582,12.778,13.318,1.849,24.825.356,2.549-.331,12.611-.393,14.163,1.157,1.167,1.166,6.76,17.683,8.391,21.107,4.326,9.08,8.907,18.016,14.848,26.151-3.144-.076-5.53-1.753-8.993-2.507,1.07-3.733-10.947-2.301-13,0-3.405,3.816,5.166,4.512,8.691,6.808,6.322,4.118,6.795,9.342,10.309,15.192,1.163,1.936,7.52,9.21,6.994,9.99-1.533,2.272-9.786-1.004-11.994-1.99-3.242-1.448-5.73-2.561-7.996-5.503-2.814-3.654-3.091-11.617-7.004-8.497-4.472,3.566-1.563,10.166,1,14,1.213,1.814,5.395,6.602,7,8,10.109,8.802,15.492,1.708,26.514,3.975l-.514-1.975v-1c.165.083,1.667-1.299,3.68-.287,9.238,4.646,6.708,6.78,19.32,7.287.107.004.619.941,1.509.984,6.428.309,10.185-5.994,15.491-7.984,4.321-1.62,14.581,1.598,19.437,3.063,5.043,1.52,11.347,3.741,15.557,6.926-14.694.42-28.802-3.316-43.009,2.035l1.014.976c-6.872,4.644-12.793,10.853-17,18-6.408,10.887-6.608,21.481-11,33-.279.344-.656.722-1,1-1.988.423-3.341,1.895-5.48,2.072-3.767.312-6.348-1.575-9.52-1.072-6.656-2.993-9.476-10.329-14.453-15.047-7.846-7.438-19.79-8.476-8.968-21.874,2.68-3.318,6.804-4.76,9.421-8.068-10.323.326-22.568,11.063-20.009,21.987-1.928-.868-3.278-2.866-4.991-3.998-9.029-5.968-24.019-5.342-34-1-.329.038-.673-.043-1,0-4.963.656-9.803,1.738-14.678,2.875-1.792.418-3.922-.962-3.322,2.125-4.331.991-8.684,2.03-13,3-2.053-2.963-8.79,2.258-9.995,1.005-.475-.494-1.497-11.205-1.968-13.559-.435-2.177.929-3.361-2.037-1.446-.834-4.535-1.307-9.409-2-14l-4-50c.325-5.741,1.38-11.51,2.322-17.178,1.299-7.811,8.567-30.556-4.174-9.174-9.067,15.216-14.251,35.935-10.148,53.342-9.937-2.622-11.362-3.103-12.999-12.989,2.343-12.167.307-25.093,1.017-37.483.807-14.079,4.108-28.039,7.344-41.678.344-1.448,1.469-3.9-.361-4.839,3.138-10.725,10.065-30.64,17-39,.982-1.183,2.053-3.871,2.674-4.047,3.965-1.121,13.578.166,18.301-1.467-10.593,17.468-19,36.997-16.953,57.99.639,6.548,2.923,16.2,9.977,18.523,2.869.945,11.96,1.677,11.978-2.5.004-1.045-4.535-1.731-6.063-2.915-1.964-1.523-4.087-6.151-4.915-8.585v-22c.389-2.387.342-4.358,1-7l14-29c6.776-11.897,20.63-19.513,32-8ZM498,208c-4.768,2.303-12.055,10.555-10.605,16.065,2.154,8.19,12.96-10.126,16.595-7.066.499.42,1.416,12.494,1.002,12.997-.45.547-11.096-2.781-13.986.064l.994.94c-6.288,4.269-9.068,10.262-12,17l-1.004-.498.002,13.017,1.003-.519c.249,1.452,3.236,7.159,4.443,8.056,5.386,4,2.965-3.572,3.798-7.315.866-3.893,2.893-6.226,4.448-9.547.712-1.521,1.084-5.989,1.326-6.193,4.277-3.62,4.714,13.824,13.985,6,6.085-5.135,6.267-33.598,3.256-40.754-.698-1.659-3.555-4.005-5.256-4.246-2.128-.301-6.056,1.061-8,2ZM589.994,390.994c1.257-1.441-4.097-9.958-5.494-9.972-4.368-.043,3.611,12.131,5.494,9.972Z"/>
  <path class="cls-8" d="M701.994,171.994l-3.983-9.994c15.283,13.599,29.868,34.756,34.535,54.954,7.817,33.829-14.167,68.85-32.046,96.027-41.423-38.449-102.756-45.868-145.445-82.481,27.412-41.76,60.245-83.069,116.292-75.345,5.603.772,15.703,2.623,20.373,5.627,4.811,3.096,5.4,9.001,10.276,11.213Z"/>
  <path class="cls-1" d="M545.797,529.214c.361.47,1.591,6.445,2.823,8.665,1.293,2.329,7.254,9.451,7.328,10.572.15,2.26-8.377,26.523-10.095,28.902-3.883,5.376-18.734,8.383-25.176,11.824-5.329,2.846-18.999,15.457-23.35,15.625-2.723.105-17.885-16.808-28.069-18.561-17.145-2.951-29.961,9.167-43.397,9.183-5.29.006-15.417-1.78-20.869-2.917-18.805-3.924-36.497-13.251-55.988-14.518.011-1.519,3.003-1.847,4.229-2.253,29.362-9.726,55.739-16.526,86.136-20.865,14.091-2.011,26.283-10.185,37.095-18.905,2.962-2.388,16.798-16.395,18.271-16.802.989-.273,18.219.814,20.485,1.115,3.419.454,29.606,7.672,30.576,8.935Z"/>
  <path class="cls-8" d="M492.999,172.012c-6.723,15.569-11.603,6.083-21.818,8.67-13.191,3.341-30.863,38.87-35.662,51.337-17.321,45.004-18.485,97.856-6.701,144.394-3.542.611-29.678,19.987-30.806,18.586-.993-1.232,10.746-27.531,12.603-28.885,2.787-2.031,9.44-1.142,6.88-7.089-5.322-12.364-51.704-8.294-52.574-11.632,3.831-33.576,13.713-67.236,26.615-98.358,17.231-41.564,47.011-96.372,101.463-77.024Z"/>
  <path class="cls-8" d="M682,149.989c-55.019-11.846-93.433,20.051-121.412,63.099-1.689,2.599-7.854,15.403-8.603,15.91-1.327.897-7.872-6.229-9.011-7.471-6.088-6.634-33.63-46.264-33.716-53.201-.071-5.761,27.972-30.462,34.022-34.546,37.204-25.114,95.492-16.648,131.032,9.408,2.669,1.956,5.948,3.939,7.688,6.801Z"/>
  <path class="cls-8" d="M718.989,389.999c-7.445-4.851-8.89-12.961-15.469-19.02-31.935-29.41-85.752-21.733-113.486-55.514-18.151-22.109-24.898-55.273-38.029-80.46.714-.772,14.986,11.622,16.682,12.807,31.216,21.811,67.595,32.397,100.333,50.667,13.55,7.562,26.636,13.729,32.242,28.758,7.546,20.23,11.367,42.145,17.727,62.761Z"/>
  <path class="cls-5" d="M335.759,926.766c-.983.888-24.854,7.201-25.753,6.228-.766-.828,1.172-18.678,1.032-22.533-1.612-44.321-26.816-87.673-63.037-112.45,6.025-.009,21.306-9.411,26.108-8.523,3.015.557,15.981,11.272,18.902,13.999,23.224,21.68,43.047,61.199,45.038,92.962.311,4.957.631,27.675-2.29,30.316Z"/>
  <path class="cls-8" d="M271.004,438.001c-.575,21.699-10.263,18.699-27.372,16.867-30.441-3.259-84.542-18.175-108.097-37.898-10.148-8.497-7.532-9.999-6.529-22.964,8.039,4.751,15.351,10.434,23.639,14.849,34.815,18.546,79.146,28.002,118.359,29.146Z"/>
  <path class="cls-8" d="M454.994,400.994c-11.195-1.298-38.236-5.623-46.474,3.026-.587.616-2.424,2.166-1.515,2.974,1.734,1.542,17.644-2.117,21.491-.999.969.282.465,1.246.494,1.985l-43.645,31.861c-7.687,3.139-19.737-4.062-28.34-2.852,14.232-11.461,28-23.993,43.107-34.376,11.851-8.145,27.211-16.214,41.627-18.364,15.071-2.248,10.336,6.027,13.254,16.745ZM395.989,419c-.97-1.275-22.645,11.338-11.491,12.089,5.206.35,14.047-8.729,11.491-12.089Z"/>
  <path class="cls-3" d="M640,441c6.437,4.355,8.662,11.331,8,19-2.952-1.919-1.561-.736-2.136,1.346-2.633,9.532-6.97,18.25-9.877,27.651-3.29-2.62-2.291-4.117-5.987-5.997-5.091-2.591-8.999-1.757-11,4-4.601,3.07.419-4.127-2-6,.988-9.42,4.008-19.267,4.79-27.829.16-1.755.54-1.743-.79-3.171-2.954-3.172-5.224,5.202-6.988,5.995l.988-8.995c1.302-2.236,2.942-3.541,5-5l9.541-3.041,10.459,2.041Z"/>
  <path class="cls-4" d="M51.994,491.995c-1.348,1.485-19.169-14.634-20.95-16.493-4.282-4.469-23.791-28.809-22.638-33.525.873-3.57,8.474-12.599,10.095-16.954,5.763,14.024,13.169,26.692,22.089,38.889,2.34,3.2,13.247,14.411,13.943,16.133.401.993-2.127,11.498-2.538,11.951Z"/>
  <path class="cls-2" d="M553.995,261.994c-7.906-3.169-20.972,5.175-26.517,5.088-11.713-.183,1.112-24.004,2.262-30.843.498-2.959,1.226-7.862,1.355-10.753.068-1.511-1.397-5.155-1.09-5.479,5.11-5.388,24.594,37.874,23.99,41.987Z"/>
  <path class="cls-3" d="M648,515c1.523.226.916.114,2,0,.356-.037.781.096,1,0,.362,2.791-.331,5.35-1,8-3.365,13.324-15.502,11.369-17,0,4.082-1.105,4.4,6.296,9,3,.134-.096-.095-.66,0-1,.547-1.957-2.749-7.663-.539-11.039,1.754-2.678,4.988.809,6.539,1.039Z"/>
  <path class="cls-3" d="M651,515c-1.11-8.548-11.889-7.704-11.983-8.482,5.933-8.839,9.857-34.405,15.967-41.051,1.979-2.153,6.341-.114,8.263,1.513,7.371,6.242-1.361,23.159-4.131,30.643-.475,1.285-2.165,3.43-.115,4.377-.165.369-.847.671-1,1-.941,2.022-4.751,11.364-5.198,11.831-.508.531-1.472.025-1.802.169Z"/>
  <path class="cls-1" d="M636,812.989h-57.999c6.476-5.721,14.981-8.218,21.489-14,1.955-1.737,5.336-8.063,6.99-8.089,8.063-.123,23.199,17.053,29.521,22.089Z"/>
  <path class="cls-8" d="M622,430.5c-.404,1.219-18.028,13.318-20.517,15.442-.509-2.958-10.35-11.651-10.49-12.453-.407-2.329,9.178-3.005,10.53-5.466,4.978-8.524,12.778-14.984,20.477-21.023-1.145,5.699,1.543,18.85,0,23.5Z"/>
  <path class="cls-5" d="M433.004,603.012c1.002-1.413,29.42-8.574,33.429-7.937,4.473.711,19.175,14.868,18.562,17.409-.988,4.093-20.063,2.773-23.951-1.028-1.94-1.896-1.679-5.572-3.683-6.317-2.117-.787-27.945,2.934-24.356-2.127Z"/>
  <path class="cls-3" d="M676,497c2.044,3.428,2.918,7.594,5,11-.653,3.065-8.922,8.887-11,11-2.069-.264-1.988-1.472-3,0-.807-1.433-4.513-4.376-4.655-5.477-.13-1.004,5.473-15.305,6.48-17.198,3.612-6.791,3.866-4.873,7.175.675Z"/>
  <path class="cls-2" d="M511.993,192.996c-.278.287-3.862-1.138-5.423-1.034-7.141.48-20.676,9.797-21.57,9.027-1.24-1.067,16.897-26.685,18.505-26.983,1.023-.19,9.212,18.244,8.487,18.99Z"/>
  <path class="cls-6" d="M314,573c-42.843-.474-78.606-3.52-122.488.012-15.249,1.227-36.801,6.341-50.992,6.029-4.614-.102-5.344-3.02-7.52-6.041l6.609,4.707c56.078-6.936,113.387-12.496,169.933-6.751,1.813.184,3.723-.328,4.458,2.045Z"/>
  <path class="cls-3" d="M604,345c-.551-1.151-.515-2.627-1.995-3.506,8.739,1.527,17.464,9.214,26.988,10.518-1.874,1.755-13.521,7.841-14.916,6.924-.243-.16-1.174-2.914-3.077-4.937-3.02-3.21-4.981-4.78-7-9Z"/>
  <path class="cls-3" d="M616,388c6.11-14.656,5.169-4.866,13.995.495-4.581,4.702-9.806,8.536-14.995,12.505-1.211-.348-3.206,2.435-2.971-.455.186-2.291,2.941-10.074,3.971-12.545Z"/>
  <path class="cls-6" d="M115,952c-18.883,2.572-38.424,2.583-57.538,2.038-17.875-.51-38.106-4.232-55.462-4.038,13.604-1.738,28.575,1.457,42.462,2.038,23.266.974,47.666.506,70.538-.038Z"/>
  <path class="cls-6" d="M454,539c-5.199,4.727-14.254,5.401-21,6-.145-1.493-2.855-1.493-3,0-15.319,1.426-16.067,2.132-30.236,6.264-20.521,5.985-57.349,19.637-76.764,21.736,1.013-2.008,3.92-2.777,5.911-3.352,26.45-7.639,54.224-13.979,80.299-22.774,1.075-.363,4.51-3.574,6.338-3.886,3.129-.535,5.693,1.17,8.004,1.04,10.148-.569,20.995-1.248,30.448-5.029Z"/>
  <path class="cls-6" d="M780,568c18.456,1.752,68.36,28.648,77.798,44.702,15.564,26.477-3.945,44.062-11.811,68.295-16.292-13.444-33.403-21.087-54.994-16.504-20.18,4.283-26.32,13.343-50.191,9.206-3.939-.683-18.368-5.849-20.188-5.476-7.643,1.563-3.777,22.503-1.613,27.778-1.504-2.759-6.346-14.909-5.721-17.468.146-.599,1.331-.459,1.628-1.283.939-2.611,1.174-9.518,5.618-10.298,2.386-.419,18.695,5.406,24.112,5.912,37.627,3.515,46.448-25.563,89.667-1.666,2.192,1.212,10.221,7.991,11.685,6.804.441-.357,2.856-8.704,3.821-10.691,9.959-20.494,20.005-35.011,4.853-57.499-6.284-9.326-47.498-32.84-58.972-37.001-5.143-1.865-11.421-1.899-15.69-4.81Z"/>
  <path class="cls-6" d="M431,337c-3.894-23.508,1.282-61.039,8-84,1.83.939.705,3.391.361,4.839-3.236,13.639-6.537,27.599-7.344,41.678-.71,12.39,1.326,25.316-1.017,37.483Z"/>
  <path class="cls-6" d="M299,495c-.991,1.893-3.485.763-5.013.539-32.127-4.715-58.1-12.629-90.987-7.539,32.848-9.166,63.989,2.591,96,7Z"/>
  <path class="cls-6" d="M253,931c-1.905-2.952-.751-1.615,1.448-2.035,5.316-1.013,43.9-7.317,44.596-9.633,1.086-27.629-7.899-54.074-22.044-77.333,12.438,16.222,21.479,40.039,22.979,60.521.261,3.57.998,18.055-1.669,19.289-15.131,2.865-30.118,6.678-45.31,9.19Z"/>
  <path class="cls-3" d="M633,497c-.325,1.46-.384,6.555-2.979,4.977-1.075-.654-8.04-10.689-7.982-12.506.145-4.518,8.371-3.87,9.802-2.275.631.704-.063,2.416.159,2.803.27.471,1.873.86,2.006,1.723.124.805-.726,4.019-1.006,5.277Z"/>
  <path class="cls-6" d="M560,520c-13.106,5.121-35.275-9-47.5-9h-18c-3.335,0-6.085-.475-9.5,1,2.463-1.717,3.127-2.602,6.482-3.017,17.804-2.2,33.337,5.269,49.543,8.576,6.263,1.278,12.794.932,18.976,2.441Z"/>
  <path class="cls-6" d="M554,413c-11.556-8.118-19.732-13.039-34.475-11.976-7.45.538-59.624,11.761-63.443,14.555-1.461,1.069-2.62,6.071-4.082,4.421.833-1.141,1.778-4.544,3.302-5.689,3.342-2.512,33.149-8.731,39.509-10,22.66-4.521,41.164-10.752,59.189,8.689Z"/>
  <path class="cls-6" d="M604,345c-2.86-2.579-8.037-7.23-8.506-10.994,21.334,17.613,50.163,18.647,74.497,30.008-1.188,1.963-6.471,2.874-8.509,2.972-11.746.565-24.648-3.524-36.483,1.014l-1.014-.976c14.207-5.351,28.314-1.614,43.009-2.035-4.21-3.185-10.514-5.406-15.557-6.926-4.857-1.464-15.116-4.683-19.437-3.063.297-3.335-.639-1.504-2.453-.959-4.042,1.212-12.7,3.977-14.547,7.959-12.613-.507-10.082-2.641-19.32-7.287-2.012-1.012-3.515.37-3.68.287-1.275-.64-4.33-4.589-6.301-5.288-3.015-1.069-9.839,1.266-12.699-3.712,2.208.986,10.461,4.261,11.994,1.99.526-.78-5.831-8.054-6.994-9.99,6.621,5.584,18.422,18.828,26.264,21.236,7.15,2.196,10.87,2.221,6.736-5.236,1.903,2.023,2.834,4.777,3.077,4.937,1.395.917,13.041-5.169,14.916-6.924-9.523-1.305-18.248-8.991-26.988-10.518,1.48.879,1.444,2.355,1.995,3.506Z"/>
  <path class="cls-6" d="M617,481c2.419,1.873-2.601,9.07,2,6-2.904,8.352,2.021,16.248,10.994,16.494-4.825,6.024-11.678.247-13.519-5.466-2.125-6.595-.108-11,.525-17.028Z"/>
  <path class="cls-6" d="M569,449c.947.545,4.806,3.226,4.989,3,.715-.886-2.283-3.744-1.571-6.992.761-3.473,4.832-5.571,5.596-8.999,1.226.963,2.703,4.588,2.986-.009,5.193,4.249,13.318,5.589,12.859,15.558-.009.188-2.098,1.683-2.859,2.442,2.188-2.558-.88-13.201-3.502-12.98-.789.067-1.165,2.533-1.643,2.786-.603.318-1.496-1.451-3.292.206-.647.597-1.309,5.024-.563,5.988-1.048-.892-4.099-.602-2.854-5.277,1.214-4.56,7.281-.633,6.854-4.711-17.73-4.738-14.96,17.188.994,14.982.076-2.21-3.085-3.368-4.994-4.994,1.323.396,4.557,1.161,5.372,1.92.878.818.707,5.496,3.628,2.08-10.176,10.151-13.932,2.538-22-5Z"/>
  <path class="cls-6" d="M667,519c1.012-1.472.931-.264,3,0-4.813,4.892-8.993,11.123-15.489,14.011.995-2,5.802-14.586,6.503-15.008.769-.463,3.933,3.985,4.486,3.975,1.123-.019,1.222-2.573,1.5-2.978Z"/>
  <path class="cls-6" d="M232,465c3.439.375,24.077,1.152,24.995,2.006.962.894-3.051,8.05-3.089,9.912-14.464-1.812-28.64-1.348-42.906,1.082-.633-2.729,6.97-2.822,8.515-2.987,5.67-.605,32.25.093,33.814-.93,1.354-.885,2.192-5.553,1.672-6.077-.821-.829-20.26.297-23.001-3.005Z"/>
  <path class="cls-6" d="M569,481c1.154.564,3.004.424,4.252,1.031.869.422,1.598,4.552,1.748-.031,2.277,3.979,7.344,3.616,11,3,.135-.023.811,1.497,2.5.131,3.477-2.812,2.964-7.733.5-11.131,1.878,1.898,4.653,1.262,3.616,7.034-2.1,11.688-18.573,7.734-23.616-.034Z"/>
  <path class="cls-6" d="M122,483c2.921,4.667,0,12.274,0,16.5v17c0,3.575.911,9.669,1.086,13.924.071,1.729,2.449,2.92-1.086,2.576-1.526-16.641-1.356-33.391,0-50Z"/>
  <path class="cls-3" d="M574,507c-.818-1.859-3.219-2.105-4-4-1.289-3.128.027-7.685,4.441-7.012,6.014.917,3.061,10.263-.441,11.012Z"/>
  <path class="cls-6" d="M460,373c-2.472-16.367-4.94-33.4-4-50l4,50Z"/>
  <path class="cls-6" d="M362,494c-17.469,2.332-34.719,5.357-52.519,4.003l.519-1.003c17.614,1.299,34.509-3.009,52-3Z"/>
  <path class="cls-6" d="M456,214c1.212-9.825,17.692-5.363,24.994-6.989-14.688,15.216-27.507,55.79-15.023,74.239.92,1.359,3.477,1.7,4.029,3.75-7.055-2.322-9.339-11.975-9.977-18.523-2.048-20.993,6.36-40.523,16.953-57.99-4.724,1.632-14.336.346-18.301,1.467-.621.175-1.692,2.863-2.674,4.047Z"/>
  <path class="cls-6" d="M567,539c1.933,1.016.665,3.321.297,4.779-2.462,9.761-9.827,34.971-15.353,42.384-1.075,1.442-2.56,1.845-3.944,2.837,10.374-14.73,13.485-33.167,19-50Z"/>
  <path class="cls-6" d="M231,465c-25.462-2.991-57.224-12.449-81.044-24.456-2.371-1.195-17.205-11.275-17.944-10.543-1.209,1.197-5.244,29.116-6.04,33.488-.389,2.137,1.06,3.473-1.973,1.51,1.709-12.41,4.445-24.886,7.511-37.011,29.42,20.769,65.021,28.729,99.489,37.011Z"/>
  <path class="cls-6" d="M530,455c-14.749-5.092-30.724-3.004-46-5,1.334-2.908,8.051,0,9.5,0h21c5.409,0,11.095,2.666,15.5,5Z"/>
  <path class="cls-6" d="M542,394c-10.896-3.667-22.779-2.31-34-1,9.981-4.342,24.971-4.968,34,1Z"/>
  <path class="cls-6" d="M529,497c-16.598-7.785-24.94-6.327-40.444-11.054-3.049-.93-3.838-1.548-4.556-3.946,13.876,7.949,33.379,2.394,45,15Z"/>
  <path class="cls-6" d="M535,423l-48-1c9.863-1.764,32.273-2.114,42.546-1.049,3.609.374,3.022.778,5.454,2.049Z"/>
  <path class="cls-6" d="M633,523c-1.355-10.282,7.263-22.372,11.173-32.327,1.549-3.943,8.577-27.841,9.842-28.677,2.375-1.568,13.483,6.191,13.927,10.582.588,5.82-6.264,23.444-8.942,29.422-2.05-.948-.36-3.093.115-4.377,2.77-7.484,11.502-24.401,4.131-30.643-1.921-1.627-6.283-3.666-8.263-1.513-6.11,6.646-10.034,32.212-15.967,41.051.094.779,10.874-.066,11.983,8.482-.219.096-.644-.037-1,0-10.054-19.256-24.294,5.934-8,11-4.6,3.296-4.918-4.105-9-3Z"/>
  <path class="cls-6" d="M650,523c.669-2.65,1.362-5.209,1-8,.33-.145,1.294.362,1.802-.169.447-.467,4.257-9.809,5.198-11.831l-8,20Z"/>
  <path class="cls-6" d="M521,240l.977-20.478-3.977-14.522c7.448,7.542,5.598,25.415,3,35Z"/>
  <path class="cls-3" d="M641,378c-3.036,2.519-8.243,3.329-12,1-4.338-5.418,10.618-3.054,12-1Z"/>
  <path class="cls-6" d="M183,832l-14,6.989c5.2.482,22.328,3.211,25,7.011l-29.994-7.012,18.994-6.988Z"/>
  <path class="cls-6" d="M492,480c9.819-1.881,21.116,1.658,31.013,3.023-.149.409-1.056.921-1.013.977-9.969-1.466-19.988-2.838-30-4Z"/>
  <path class="cls-6" d="M612,504c-2.119-3.341-4.284-6.187-4.909-10.591-1.275-8.983,6.509-28.077-7.46-27.36-7.278.374-1.502,3.576-.858,5.601.18.567-.793,1.274-.773,1.351.33-2.425-5.527-4.896-4.998-5.984,1.182-2.433,8.385-2.991,11.503-1.015,9.5,6.022,3.188,13.56,3.429,22.497.143,5.294,2.425,10.582,4.066,15.502Z"/>
  <path class="cls-6" d="M727,751c-11.171,8.037-22.449,7.346-35,3l19.489,2.019,15.511-5.019Z"/>
  <path class="cls-6" d="M660,687c-1.518,1.994-3.207,2.52-4.57,4.93-5.61,9.918-1.908,22.499,2.57,32.07-8.221-11.295-11.45-28.51,2-37Z"/>
  <path class="cls-6" d="M234,932l-50,15c16.521-4.76,32.839-12.458,50-15Z"/>
  <path class="cls-6" d="M471,271c-3.203-9.417-1.48-12.914,0-22v22Z"/>
  <path class="cls-6" d="M396,489c3.638-.104.677,3.306.917,7.513.533,9.35,3.394,17.493,8.083,25.487-5.153.918-11.576-28.306-9-33Z"/>
  <path class="cls-6" d="M171,950c-9.764.753-20.131.567-30,1-.562-3.018,1.529-1.937,3.451-2.001,8.488-.283,18.244-.627,26.549,1.001Z"/>
  <path class="cls-6" d="M550,500c.323-1.692,3.184.2,3.873.626,1.221.754,14.445,9.937,15.139,6.874.106-.467-2.119-.925-3.011-2.5,2.656.448,5.105,2.62,8,2,3.502-.75,6.454-10.096.441-11.012-4.413-.673-5.73,3.885-4.441,7.012-5.619-15.523,17.5-8.37,6.417,3.917-6.968,7.725-19.17-2.933-26.417-6.917Z"/>
  <path class="cls-6" d="M411,482c-7.605,9.976-6.521,13.558-8,26-.716-8.401-1.501-22.413,8-26Z"/>
  <path class="cls-6" d="M615,447l-.988,8.995c1.764-.793,4.035-9.167,6.988-5.995l-2.998,2.451-4.996,8.543c.018-5.827-.988-8.872,1.994-13.994Z"/>
  <path class="cls-6" d="M644,712c-.629,1.679,2.198,6.681,2,6.985-.718,1.103-21.822,4.505-25,8.015l-.955-.89c2.947-3.292,23.308-7.036,23.962-8.122.367-.61-1.075-2.645-.966-3.656.155-1.427.951-2.206.958-2.332Z"/>
  <path class="cls-6" d="M462,387c2.966-1.915,1.602-.731,2.037,1.446.471,2.355,1.493,13.066,1.968,13.559,1.205,1.252,7.942-3.968,9.995-1.005-1.894.425-10.126,2.598-10.953,1.958-.643-.497-2.613-13.602-3.047-15.958Z"/>
  <path class="cls-8" d="M558.988,537.999c-8.362-4.096.212-9.049,1.001-7.999.814,1.084-1.072,6.251-1.001,7.999Z"/>
  <path class="cls-6" d="M202,488c.567,2.642-1.332,1.998-2.977,2.472-8.377,2.409-20.591,7.198-28.023,7.528,9.892-2.804,20.943-8.331,31-10Z"/>
  <path class="cls-6" d="M597,419c4.392-11.519,4.592-22.113,11-33-4.904,9.912-4.322,24.759-11,33Z"/>
  <path class="cls-6" d="M484,452c5.726,4.047,12.649,3.366,19,6-4.401-.432-17.358-.428-19-6Z"/>
  <path class="cls-6" d="M521,429c-8.64,1.638-30.023,1.32-37.301-3.215-2.444-1.523-.904-.91-.699-1.785,11.824,5.575,25.394,4.206,38,5Z"/>
  <path class="cls-6" d="M629,379c-1.034-.641-2.028-.93-2.039-2.482-.028-3.968,12.672-.686,16.038-.506.016,1.143-1.314,1.42-1.999,1.988-1.382-2.054-16.338-4.418-12,1Z"/>
  <path class="cls-6" d="M507,393c-5.423,2.859-12.057,3.64-18,5-.6-3.087,1.53-1.707,3.322-2.125,4.874-1.136,9.714-2.218,14.678-2.875Z"/>
  <path class="cls-6" d="M640,441l-10.459-2.041-9.541,3.041c7.074-5.016,12.445-6.112,20-1Z"/>
  <path class="cls-6" d="M591,494c-.916,1.218-2.85,2.093-3.012,2.717-2.073,7.977,2.044,9.842-6.988,16.283,7.047-4.809,3.259-16.661,10-19Z"/>
  <path class="cls-6" d="M648,460l-15,37c.28-1.259,1.13-4.472,1.006-5.277-.133-.862-1.736-1.251-2.006-1.723,4.882.483-.837-4.426-2-7,3.696,1.881,2.696,3.377,5.987,5.997,2.908-9.401,7.244-18.119,9.877-27.651.575-2.082-.816-3.265,2.136-1.346Z"/>
  <path class="cls-6" d="M735,741c3.218-9.124,2.764-16.673-2-25,6.188,9.798,7.281,13.911,2,25Z"/>
  <path class="cls-6" d="M568,538c.021-4.06,1.115-8.088,2-12,2.737,3.394-.896,8.714-2,12Z"/>
  <path class="cls-6" d="M486,213l-14,29c2.384-9.572,6.969-21.991,14-29Z"/>
  <path class="cls-6" d="M559,316c2.053-2.301,14.07-3.733,13,0-5.147-1.12-7.739-1.055-13,0Z"/>
  <path class="cls-6" d="M663,680c-11.29,3.264-18.549,8.227-19,21,.002-.266-1.315-2.147-.784-5.26,1.544-9.042,11.105-15.485,19.784-15.74Z"/>
  <path class="cls-6" d="M741,539l25,26c-8.386-4.87-19.074-17.828-25-26Z"/>
  <path class="cls-6" d="M616,388c-1.03,2.471-3.786,10.254-3.971,12.545-.234,2.89,1.76.106,2.971.455-.599.458-5.334,6.299-5.028,2.486.362-4.504,3.976-11.335,6.028-15.486Z"/>
  <path class="cls-6" d="M268,830c-5.244-5.735-12.035-12.026-18-17,7.304,3.471,13.52,10.364,18,17Z"/>
  <path class="cls-6" d="M596,420c-5.41,4.369-8.495,3.925-15,1,3.172-.503,5.752,1.384,9.52,1.072,2.139-.177,3.492-1.649,5.48-2.072Z"/>
  <path class="cls-6" d="M681,508c-2.082-3.406-2.956-7.572-5-11,2.383,2.523,5.758,7.438,5,11Z"/>
  <path class="cls-6" d="M481,517c.965-1.156.993-1.975,3-4l-3,4Z"/>
  <path class="cls-3" d="M433,545c-.986.088-2.015-.092-3,0,.145-1.493,2.855-1.493,3,0Z"/>
  <path class="cls-2" d="M815.994,837.011c.748.5-.917,1.694-1.989.977-.748-.5.917-1.694,1.989-.977Z"/>
  <path class="cls-2" d="M720.994,838.011c.748.5-.917,1.694-1.989.977-.748-.5.917-1.694,1.989-.977Z"/>
  <path class="cls-7" d="M189,908c2.143-.345,9.666-2.075,10.996-.992.454.37-.801,2.364-.996,2.992-7.26,4.56-15.498,8.378-24,10-11.211,2.138-16.151,1.313-4-6l18-6Z"/>
  <path class="cls-6" d="M175,920c8.502-1.622,16.74-5.44,24-10-.021.068,1.113.392.081,1.419-3.114,3.102-19.325,10.521-24.081,8.581Z"/>
  <path class="cls-6" d="M189,908l-18,6c5.896-3.549,11.325-4.926,18-6Z"/>
  <path class="cls-7" d="M679,710c.084-.233,1.856-.73,1.879-1.472.06-1.951-5.571-13.344.824-15.321,9.428-2.915,6.521,2.679,9.417,8.174,4.24,8.047,16.824,7.875,24.572,11.428,23.062,10.576,14.099,41-10.193,39.197-1.014-.075-8.177-1.752-8.491-2.056-.177-.172-.2-4.79-.005-4.942.635-.498,11.194,1.383,15.998-.007,9.126-2.641,13.097-12.918,7.364-20.758-3.509-4.798-2.958-.684-3.364-.242-3.593,3.908-7.116,8.554-12,11l-13,1c-.386-1.379-10.304-1.506-11-7-2.801-5.985-1.906-12.602-2-19ZM686,724c1.164,1.979.207,2.204,3,4,6.912,4.445,12.218,1.889,18-2,1.551-1.043,4.231-1.146,5-4,.977-3.623-8.407-1.623-11.477-2.023-7.425-.966-12.302-2.977-18.518-6.97.574,4.227,1.845,7.338,3.995,10.993Z"/>
  <path class="cls-7" d="M581,548c4.436,29.21,13.047,61.723,24,89,5.31,13.689,12.47,23.669,25.336,31.164,4.802,2.797,12.163,4.533,16.376,7.588,3.48,2.522-1.758,3.276-4.211,3.236-12.106-.197-32.351-18.002-38.501-27.987-12.447-20.208-22.322-68.611-23.984-92.517-.253-3.643-.707-9.2.984-12.483.065.65-.096,1.367,0,2Z"/>
  <path class="cls-7" d="M791,578c8.144,7.32,7.47,15.159,5,25-2.418,9.632-6.141,14.897-14,21-7.144,3.055-13.887,7.625-22,7.989,9.221-10.753,23.103-19.701,21-35.989,1.062-3.476,3.919-18.009,6.614-18.828.65-.198,2.524.54,3.386.828Z"/>
  <path class="cls-7" d="M750,581c4.043-1.448,4.032,2.189,5.656,2.807,3.252,1.238,9.613.763,13.344,3.193,1.217,1.45,2.164,2.991,2,5-6.386-4.897-14.645-5.578-20,1-3.705,4.551-6.143,19.379-7.012,19.996-4.936,3.503-2.559-18.123-1.917-20.425,1.326-4.759,4.334-8.428,7.93-11.57Z"/>
  <path class="cls-6" d="M604,651c-15.058-27.733-25.038-66.76-25.975-98.513-.064-2.174-.153-7.28,1.997-8.462,3.376-1.855.959,1.782.978,1.974-1.69,3.283-1.237,8.839-.984,12.483,1.661,23.906,11.537,72.31,23.984,92.517Z"/>
  <path class="cls-7" d="M714,535c-.168,4.418-1.597,10.911-5,14-.556.504-9.407,5.134-7.988,1.518.447-1.138,8.836-15.824,9.521-16.485,2.022-1.952,2.548-.863,3.467.967Z"/>
  <path class="cls-7" d="M699,553c-.155,13.26,14.436,4.906,22,7-.699.608-1.875,1.933-2,2-6.663,1.334-13.197,3.422-20,1-1.328-1.199-3.127-4.665-3.087-6.53.087-4.047,2.848-3.108,3.087-3.47Z"/>
  <path class="cls-6" d="M581,548c2.82-.593,1.893,1.405,2.3,3.147,6.696,28.64,11.005,58.283,21.7,85.853-10.953-27.277-19.564-59.79-24-89Z"/>
  <path class="cls-7" d="M674,724c.083.662.355,2.041-.495,1.995-.243-2.198-4.32-3.726-4.505-3.995-.49-.714-6.263-14.004-2.516-11.99,2.563,1.378,3.561,12.167,7.516,13.99Z"/>
  <path class="cls-6" d="M791,578c8.867,2.962,8.592,16.181,7.151,23.668-.448,2.325.602,3.112-2.151,1.332,2.47-9.841,3.144-17.68-5-25Z"/>
  <path class="cls-6" d="M717,724c.406-.441-.145-4.556,3.364.242,5.733,7.84,1.762,18.117-7.364,20.758l7.997-8.551c-.589-3.273.873-11.83-3.997-12.449Z"/>
  <path class="cls-6" d="M781,596c2.104,16.288-11.779,25.236-21,35.989,8.112-.363,14.856-4.934,22-7.989-4.513,3.505-7.629,5.378-13.215,7.286-3.393,1.159-9.864,4.165-9.563.005.18-2.488,14.036-13.314,16.631-17.937,2.89-5.147,3.441-11.771,5.146-17.354Z"/>
  <path class="cls-6" d="M771,592l-13.48-2.071-6.52,3.071c5.355-6.578,13.614-5.897,20-1Z"/>
  <path class="cls-6" d="M719,562c-5.385,2.876-15.035,5.484-20,1,6.803,2.422,13.337.334,20-1Z"/>
  <path class="cls-6" d="M714,535c-.919-1.83-1.444-2.919-3.467-.967-.685.661-9.074,15.347-9.521,16.485-1.419,3.616,7.432-1.014,7.988-1.518-1.261,4.533-8.75,3.542-8.989,3.998-4.866,9.287,19.251,5.047,22.983,5.008.251,3.607-1.888,1.901-1.994,1.994-7.564-2.094-22.155,6.26-22-7,2.66-4.018,9.406-21.04,13.502-21.029,3.855.01,1.507,2.797,1.498,3.029Z"/>
  <path class="cls-6" d="M681,729l-.928.988c-2.286-6.148-3.297-13.828-1.072-19.988.094,6.398-.801,13.015,2,19Z"/>
  <path class="cls-6" d="M750,581c.206-.18-.686-4.043,3.806-1.34,1.932,1.163.911,2.932,1.278,3.197,1.741,1.254,9.03-1.676,13.916,4.143-3.731-2.43-10.092-1.955-13.344-3.193-1.624-.618-1.613-4.255-5.656-2.807Z"/>
  <path class="cls-6" d="M705,735c-5.31,2.66-8.049,2.225-14.014,1.979.144-.417,1.033-.911,1.014-.979l13-1Z"/>
  <path class="cls-6" d="M669,722c-2.42-1.288-7.183-13.853-3.511-13.987,2.021-.074,8.238,13.808,8.511,15.987-3.955-1.823-4.953-12.612-7.516-13.99-3.747-2.014,2.026,11.276,2.516,11.99Z"/>
  <path class="cls-7" d="M468.994,424.006l-20.758,20.925c-6.124,3.159-.87-5.868.355-7.839,4.372-7.038,11.546-13.622,20.403-13.085Z"/>
  <path class="cls-7" d="M575,482c-2.484-4.341-.306-12.466,4.994-13.995-2.507,9.001-3.272,12.369,6.006,16.995-3.656.616-8.723.979-11-3Z"/>
  <path class="cls-7" d="M471.991,455.014l-19.986,12.98c3.474-7.092,10.92-17.451,19.986-12.98Z"/>
  <path class="cls-7" d="M835.006,791.995c-1.609-1.783,8.782-14.381,10.407-17.082,10.869-18.07,15.628-35.378,17.571-56.429,1.236-13.395-.172-27.572,2.511-40.478,1.752,3.022,2.264,8.997,2.489,12.511,1.862,29.103,1.442,60.394-15.763,85.203-1.358,1.958-15.013,18.714-17.214,16.274Z"/>
  <path class="cls-7" d="M506,206c10.23,11.935,5.364,30.982,2,45-9.271,7.824-9.708-9.62-13.985-6-.242.205-.614,4.673-1.326,6.193-1.556,3.321-3.582,5.654-4.448,9.547-.833,3.743,1.588,11.316-3.798,7.315-1.208-.897-4.195-6.604-4.443-8.056-.6-3.505.423-8.292,0-12,2.932-6.738,5.712-12.731,12-17,3.355-3.01,14.464,1.551,14.994.996.62-.65-1.342-16.455-2.005-16.996-2.414-1.97-15.075,11.07-15.984,9.995-3.012-3.566,5.778-14.711,8.994-16.995,1.944-.939,5.872-2.301,8-2Z"/>
  <path class="cls-7" d="M573,346c2.86,4.978,9.684,2.643,12.699,3.712,1.971.699,5.027,4.648,6.301,5.288v1c-9.325.131-17.305,3.062-26-2-1.605-1.398-5.787-6.186-7-8-1.819-4.971-2.613-8.781-1-14,3.912-3.12,4.189,4.843,7.004,8.497,2.267,2.942,4.754,4.056,7.996,5.503Z"/>
  <path class="cls-6" d="M508,251c3.364-14.018,8.23-33.065-2-45,1.701.241,4.559,2.587,5.256,4.246,3.011,7.156,2.829,35.619-3.256,40.754Z"/>
  <path class="cls-7" d="M632,355c-5.306,1.989-9.063,8.293-15.491,7.984-.889-.043-1.402-.979-1.509-.984,1.847-3.983,10.505-6.747,14.547-7.959,1.814-.544,2.75-2.376,2.453.959Z"/>
  <path class="cls-6" d="M498,208c-3.216,2.283-12.006,13.428-8.994,16.995.908,1.075,13.57-11.965,15.984-9.995.663.541,2.625,16.346,2.005,16.996-.53.555-11.639-4.006-14.994-.996l-.994-.94c2.89-2.845,13.536.483,13.986-.064.414-.504-.504-12.577-1.002-12.997-3.635-3.06-14.44,15.256-16.595,7.066-1.45-5.511,5.837-13.762,10.605-16.065Z"/>
  <path class="cls-6" d="M592,356l.514,1.975c-11.022-2.267-16.404,4.827-26.514-3.975,8.695,5.062,16.675,2.131,26,2Z"/>
  <path class="cls-7" d="M589.994,390.994c-1.883,2.159-9.862-10.015-5.494-9.972,1.397.014,6.751,8.531,5.494,9.972Z"/>
  <path class="cls-6" d="M480,248c.423,3.708-.6,8.495,0,12l-1.003.519-.002-13.017,1.004.498Z"/>
  <path class="cls-6" d="M559,346c-2.563-3.834-5.472-10.434-1-14-1.613,5.219-.819,9.029,1,14Z"/>
  <path class="cls-7" d="M395.989,419c2.555,3.36-6.286,12.439-11.491,12.089-11.154-.751,10.521-13.364,11.491-12.089Z"/>
  <path class="cls-7" d="M650,515c-1.084.114-.477.226-2,0-8.027-9.131-11.744,3.676-6,10-.095.34.134.904,0,1-16.294-5.066-2.054-30.256,8-11Z"/>
  <path class="cls-6" d="M648,515c-1.55-.23-4.785-3.717-6.539-1.039-2.21,3.375,1.086,9.082.539,11.039-5.744-6.324-2.027-19.131,6-10Z"/>
  <path class="cls-7" d="M582,450c1.91,1.626,5.071,2.784,4.994,4.994-15.954,2.206-18.724-19.72-.994-14.982.426,4.078-5.64.151-6.854,4.711-1.245,4.675,1.806,4.385,2.854,5.277Z"/>
  <path class="cls-3" d="M591,454c-2.921,3.416-2.75-1.262-3.628-2.08-.815-.759-4.05-1.524-5.372-1.92-.746-.964-.085-5.391.563-5.988,1.796-1.657,2.69.112,3.292-.206.479-.253.854-2.719,1.643-2.786,2.622-.221,5.69,10.422,3.502,12.98Z"/>
  <path class="cls-3" d="M712,722c-.769,2.854-3.449,2.957-5,4-3.286.681-6.075,2.851-9.539,3.039-3.395.183-5.755-1.762-8.461-1.039-2.793-1.796-1.836-2.021-3-4-3.617-12.04,2.991-4.389,10.761-3.261,5.129.744,10.406-.74,15.239,1.261Z"/>
  <path class="cls-6" d="M686,724c-2.151-3.655-3.421-6.766-3.995-10.993,6.216,3.993,11.093,6.004,18.518,6.97,3.07.399,12.453-1.6,11.477,2.023-4.833-2.002-10.11-.517-15.239-1.261-7.77-1.128-14.379-8.779-10.761,3.261Z"/>
  <path class="cls-6" d="M707,726c-5.782,3.889-11.088,6.445-18,2,2.706-.723,5.066,1.222,8.461,1.039,3.464-.187,6.253-2.358,9.539-3.039Z"/>
</svg>