<?xml version="1.0" encoding="UTF-8"?>
<svg id="Layer_1" data-name="Layer 1" xmlns="http://www.w3.org/2000/svg" viewBox="0 0 1024 1024">
  <defs>
    <style>
      .cls-1 {
        fill: #7a3e1a;
      }

      .cls-2 {
        fill: #0e0b09;
      }

      .cls-3 {
        fill: #124e85;
      }

      .cls-4 {
        fill: #f2cc85;
      }

      .cls-5 {
        fill: #fffefa;
      }

      .cls-6 {
        fill: #f2ad72;
      }

      .cls-7 {
        fill: #d22927;
      }
    </style>
  </defs>
  <path class="cls-5" d="M0,453V0h1024v1024H0v-91c1.849-.955,3.808-1.5,5.882-1.619,47.026,6.431,93.878,7.051,141.246,3.43,28.304-2.163,52.096-7.788,79.006-14.581,50.939-3.846,100.039-10.4,149.659-21.769,50.972-11.679,101.224-24.543,140.63-59.772,9.731-6.995,21.884-11.851,33.994-12.762,27.409-2.062,55.309-1.089,82.959.462,75.079,5.659,150.456,8.714,224.718.711,10.347-1.115,57.183-6.713,61.948-14.36,2.372-3.808-48.298-12.065-50.719-11.489-6.84-1.553-6.421-2.159-2.293-7.007,39.482-33.517,51.41-84.095,47.847-133.636,4.627-16.229,6.928-29.305,5.248-46.359-2.28-23.15-11.377-63.737-35.854-72.711-20.121-7.378-26.502,4.797-33.688,20.197-1.752,1.754-3.962,1.508-5.57-.215-14.007-16.978-33.624-25.759-53.634-34.551-11.101-7.625-22.673-12.241-34.716-13.849-15.5,4.508-19.841,1.717-28.027-11.661l-17.841-33.781c-12.669-18.242-22.818-11.103-34.737,3.686-6.353,4.1-12.148,1.302-17.383-8.394-3.226-1.915-4.438-4.175-3.636-6.779,6.879-22.121,7.405-43.387-9.574-60.803-2.919-6.444-6.404-12.487-10.458-18.129-8.104-4.797-6.002-8.449-.108-14.301l19.39-8.84c4.023-3.221,7.6-6.944,10.731-11.169,11.864-.735,19.145,7.911,24.941,17.497,8.901,10.552,38.657,37.396,36.811,5.576l-18.63-65.736c8.262-16.183,16.032-32.576,23.311-49.18,39.862-90.715-55.594-168.861-142.695-160.192-39.283,3.91-65.619,32.767-84.914,64.884-1.435,2.809-4.345,2.573-6.857,1.428-14.581-9.348-29.977-8.639-46.342-3.34-45.569-12.013-91.637-19.195-138.204-21.548-89.595-.05-150.615,47.712-194.266,123.592-20.402,37.422-43.019,72.973-67.852,106.651-11.983,14.391-15.62,27.032-16.246,44.868-10.413,14.341-20.292,28.641-30.437,43.725-.322.478-.902.793-1.533,1.108-.657.329-1.373.538-2.107.713Z"/>
  <path class="cls-3" d="M0,573c.86-2.148,2.955-2.455,6.284-.921,2.77-1.877,6.449-2.581,11.037-2.111,48.483-7.867,98.071-13.976,147.921-16.699.357-1.108,1.504-2.113,2.728-2.268,79.499-10.055,163.243-1.147,239.828,20.161,2.869.686,4.848,2.638,2.81,5.334-.92.392-12.625,6.092-12.194,6.638.575.728,12.911-2.744,14.431-3.337,16.296-7.142,32.933-12.695,49.911-16.659,2.458-3.006,4.978-3.056,7.316.094,4.301-.276,15.92,6.292,15.747,10.555-.162,3.984-27.034,19.552-31.836,19.104-7.083-.66-3.942-5.545-.783-9.093-7.383,7.431-13.54,9.943-24.505,8.704-16.701-1.182-33.366-1.288-49.997-.317-8.85.572-9.12,1.895-.811,3.969,24.245-1.302,47.922.915,71.033,6.651,39.386,30.534,79.705,63.99,107.886,106.338,7.197,10.814,24.261,51.162,18.308,62.26-2.166,4.039-27.297,22.263-32.025,24.151-8.835,3.527-6.739-4.551-4.564-10.281.842-55.084-45.154-91.338-93.653-107.401l-.05-2.856,13.188-23.621c5.385-12.729-.665-28.115-13.932-32.649,15.717,11.048,12.499,29.412,2.179,43.539l-10.228,15.22c-.913,3.426,1.698,5.432,4.653,6.749,40.431,11.405,87.015,42.838,90.449,88.834,4.519,60.517-57.667,93.336-108.379,105.13l-91.155,19.491c-2.389-.603-3.792-1.125-3.207-3.969,8.466-52.233-11.254-105.682-52.184-139.365-1.011-1.079-1.747-2.024-1.516-2.499,1.418-2.921,24.981-11.803,30.054-13.435,15.322-4.931,30.905-8.823,46.854-11.139,4.935,2.112,37.243-5.676,16.692-6.192-22.528-.566-44.911,4.817-66.664,11.237l-1.669-2.687c9.734-15.714,19.14-31.487,28.218-47.318-2.854-3.325-35.282,46.51-35.938,50.533-4.445,6-10.817,10.152-19.116,12.456l-41.746,16.398c-6.366,2.637-9.632,6.748-12.98,12.339-17.951,11.073-39.754,20.961-60.416,24.855-24.702-.612-49.546-.243-74.534,1.107-27.131,4.069-54.155,8.242-81.073,12.52l-2.369-1.547v-238Z"/>
  <path class="cls-2" d="M0,453c4.379-6.245,7.884-12.986,12.185-19.315,4.345-6.393,17.961-21.481,20.035-26.965,1.863-4.929.486-13.635,2.055-19.945,3.296-13.255,32.029-48.444,41.14-62.86,35.236-55.75,60.244-115.155,115.267-155.733,80.28-59.203,170.251-36.146,259.971-16.251,12.327-3.446,23.188-6.052,35.899-1.983,3.795,1.215,11.648,6.793,14.813,6.132,19.122-32.089,45.791-62.559,85.264-66.951,60.571-6.74,126.126,26.833,149.662,84.081,19.155,46.592-6.26,86.601-26.264,127.353l18.716,65.193c1.69,34.321-28.144,9.747-39.256-2.742-3.352-3.767-7.462-11.434-10.977-14.023-3.428-2.525-8.203-2.956-11.944-5.055-2.682,3.583-7.001,9.033-10.63,11.499-5.081,3.452-14.691,5.937-19.865,9.135-1.24.766-5.033,6.493-5.02,6.941.01.353,4.385,3.245,5.481,4.457,5.306,5.865,6.748,12.067,10.632,18.368,2.635,4.275,6.49,7.444,9.213,12.787,9.33,18.31,4.44,33.002.06,51.869,6.361,2.263,7.789,12.93,15.08,12.613,3.514-.153,8.134-8.109,11.006-10.583,13.2-11.373,22.858-5.984,30.898,7.057,5.551,9.004,18.202,39.69,26.207,43.794,6.057,3.105,11.951-.398,17.885-.852,10.302-.789,26.198,10.05,36.129,14.838,15.299,7.376,28.4,11.78,41.832,23.168,2.034,1.725,11.221,11.776,12.049,11.963,1.407.318,1.701-.758,2.266-1.703,5.294-8.86,6.642-19.386,19.799-21.2,43.471-5.994,56.898,71.441,52.278,102.278-.969,6.467-4.241,13.412-4.87,19.13-1.126,10.227.628,22.492.047,33.047-2.239,40.702-19.968,80.439-52.036,105.964,12.3,2.193,24.961,3.173,37.201,5.789,8.517,1.82,32.065,6.617,11.771,14.183-32.723,12.199-107.984,14.654-144.435,15.565-69.078,1.725-138.216-9.08-206.055-7.046-41.116,1.233-44.636,15.004-74.571,34.42-41.179,26.71-125.285,42.125-174.708,51.292-31.495,5.842-62.651,5.198-93.587,10.413-12.72,2.144-24.715,7.73-38.264,9.736-40.39,5.979-90.166,7.585-130.847,5.132-17.177-1.035-34.316-4.086-51.51-4.99v-12c69.313,7.469,142.072,10.107,211-7,.396-3.346,10.079-5.792,12-3,17.607-5.136,35.826-8.626,54-11l.738-2.097c2.206.378,3.362-.019,5.262-.903v-22c-1.744.042-1.744-.625,0-2l-1.063-1.435c-1.548-15.697-4.889-31.365-11.937-45.565l-2.267-.213c-6.767-13.298-15.145-27.609-26.05-37.983-7.492-7.127-12.578-5.445-21.617-2.2-7.262,4.23-14.617,6.695-22.066,7.395-3.465,2.084-7.416,3.81-11.853,5.177-5.736,1.613-4.181,3.552,4.664,5.818,4.776,1.301,7.172,3.303,7.189,6.005,1.436,1.402.81,2.003-1,1l-6.793.272c-53.358-6.4-110.168-2.582-165.207,4.728.123.748.219,1.657-.296,2.145-2.494,2.366-18.134,3.425-22.402,3.446l-2.302-1.591v-9c3.922-.941,8.407-1.192,12.248-2.071,13.527-3.094,30.854-3.578,45.06-6.956,25.647-6.097,60.407-5.498,88.232-5.015,18.954.329,18.34-.084,35.645-7.066,7.575-3.057,31.849-12.524,36.368-17.838,1.947-2.29,1.899-4.598,4.95-7.05,9.671-7.771,22.061-10.083,33.209-14.791,7.512-3.173,26.243-10.047,31.811-14.189,2.366-1.76,15.954-27.242,20.063-32.937,4.158-5.764,13.05-17.638,18.367-21.631,7.008-5.264,4.114,2.648,2.217,6.215-7.01,13.175-17.704,26.082-25.191,39.809-.66,1.21-1.352,1.944-.97,3.52,9.295-3.875,20.012-6.674,29.978-8.512,8.437-1.556,38.185-5.94,44.436-1.592,1.225.852.691,3.089.085,4.116-.788,1.336-17.125,4.256-20.259,4.745-1.477.23-2.965-.712-4.465-.473-16.769,2.671-33.245,6.34-49.035,11.967-9.065,3.231-17.665,7.609-26.748,10.762,43.14,33.729,63.503,89.976,53.999,143.989l89.423-19.077c50.92-11.307,115.384-43.698,109.567-105.415-3.723-39.502-41.049-67.362-75.012-80.988-5.86-2.351-22.792-3.852-19.774-13.803,7.583-12.691,24.15-30.007,17.309-45.733-.416-.956-3.286-5.919-3.851-6.647-1.796-2.317-7.034-3.254-5.659-8.334,16.134,3.678,24.487,21.765,17.483,36.983l-13.486,24.005c35.216,10.306,72.294,34.757,86.856,69.65,4.595,11.01,8.337,26.956,7.645,38.865-.103,1.77-2.934,6.175-1.498,9.488.864.95,13.549-7.949,15.309-9.18,3.329-2.328,18.405-13.221,19.248-15.75,3.662-10.978-8.544-41.48-14.041-52.087-17.889-34.518-61.655-73.373-92.046-97.954-5.284-4.274-14.227-12.28-19.524-15.476-6.169-3.722-38.292-5.932-47.455-6.535-6.817-.449-16.672.891-23.067.067-.992-.128-1.718-1.452-5.937-2.042-5.782-.809-2.329-4.037,1.215-4.832,20.313-4.557,48.57.94,69.774-1.226l12.033-9.972c2.36-.501,1.665,2.008,1.243,3.247-1.18,3.463-9.248,9.167.307,7.314,4.295-.833,26.463-13.919,27.932-17.079.711-1.53-6.008-4.68-7.081-5.904-2.311-2.547-5.913-1.84-8.185-2.645-1.105-.392-.443-2.771-3.234-1.964-.39.113-.38,1.947-1.096,2.008-16.928,1.425-33.276,11.061-49.628,16.287-1.722.55-19.899,6.737-19.751,2.229.052-1.581,12.43-8.26,14.972-8.513-.21-1.599-3.632-2.074-4.993-2.488-13.131-3.997-29.333-7.593-42.601-10.399-59.955-12.679-131.927-16.721-193.967-9.18-1.91.232-1.001,2.008-2.882,2.18-31.802,2.903-65.28,4.83-97.908,9.042-16.229,2.095-44.694,8.994-59.215,7.957-.474-.034-.328,1.809-1.054,1.955-2.04.411-5.032-1.532-7.373-1.054v-120Z"/>
  <path class="cls-2" d="M574,435c3.36-2.862,7.563,2.571,6,6-1.409.606-3.392.24-5.949-1.099-2.566,2.395-4.583,2.762-6.051,1.099-4.407-3.442,2.91-10.464,6-6Z"/>
  <path class="cls-6" d="M270,826c5.09,10.25,8.271,21.302,10.192,32.55l1.573,13.658,1.235.791c.061.657-.052,1.341,0,2v22c-.876,4.549-2.878,2.401-6,3-17.514,2.012-37.03,5.907-54,11-4.971,1.056-7.231,1.693-12,3-67.887,16.147-140.81,16.092-211,6v-100c6.444-1.443,14.271-1.053,20.458-2.047,1.551-.249,2.713-1.665,4.542-1.953,53.553-6.469,111.438-11.661,165.23-4.727l6.77-.273c.166-.085.844-.778,1-1,.113-2.691-2.394-4.735-7.519-6.134-9.653-2.192-10.418-4.362-2.297-6.509,4.032-1.071,7.303-2.524,9.816-4.357.365-2.145,6.64-2.689,8.178-3.322,8.372-3.447,20.741-11.215,29.778-8.135,10.967,3.738,29.558,33.586,34.044,44.457Z"/>
  <path class="cls-4" d="M211,914c-56.234,15.414-129.371,16.17-187.492,9.992-7.811-.83-15.615-2.712-23.508-2.992v-1c36.387,3.508,72.857,7.368,109.541,6.041,30.08-1.088,68.395-3.49,96.937-12.072,1.321-.397,3.638-1.894,4.522.031Z"/>
  <path class="cls-2" d="M803.5,125c1.817.531,12.31,18.801,13.512,21.998l14.488-21.998h30.5l-27.801,45.343,30.801,47.657h-32.5l-15.487-23.997-14.013,23.997h-33l30.812-47.324-27.812-45.676h30.5Z"/>
  <path class="cls-2" d="M917,178h-26v-15.5c0-10.912,18.408-21.01,23.833-29.167,15.024-22.587-21.791-34.61-26.426-8.261l-24.37-5.107c.89-30.684,37.155-42.286,62.482-32.985,23.081,8.477,28.93,35.165,15.916,54.954-8.394,12.763-27.605,18.334-25.435,36.065Z"/>
  <path class="cls-2" d="M901.744,185.231c22.299-3.566,26.192,29.218,6.52,32.524-23.434,3.939-27.766-29.127-6.52-32.524Z"/>
  <path class="cls-2" d="M42.788,629.226c27.465,35.142,52.967,68.373,87.736,96.75,12.375,10.1,30.073,20.075,40.951,30.048,3.994,3.662,3.019,5.526-2.26,4.274-22.939-5.438-59.454-35.823-76.179-52.791-13.423-13.617-51.395-58.594-53.992-76.061-.483-3.245.6-2.816,3.745-2.221Z"/>
  <path class="cls-2" d="M450.995,703.995c-12.306-.785-24.268-5.984-36.661-6.917-2.777-.209-5.142,1.148-6.706.972-.721-.081-.137-1.866-2.056-2.131-4.881-.673-9.56.987-14.026,1.118-19.732.576-33.184,2.501-51.278,11.685-1.892.96-4.385,4.868-8.261,4.274-4.063-4.595,13.69-15.705,16.977-17.513,24.198-13.307,70.78-12.327,94.683,1.351,1.041.596,9.139,5.568,7.329,7.161Z"/>
  <path class="cls-2" d="M248.335,742.65c-17.627-12.086-37.438-35.168-49.152-53.333-1.862-2.888-4.721-5.593-4.178-9.312,2.365-2.335,10.497,5.113,12.522,6.968,12.596,11.538,23.414,26.289,34.959,39.041,2.881,3.182,14.85,13.231,14.587,16.464-.375,4.59-6.299,1.844-8.738.172Z"/>
  <path class="cls-2" d="M420.171,624.24c-.217.088.189,2.8-3.527,1.752-.673-.19-.514-1.732-1.351-1.951-1.547-.407-3.51.145-5.346-.486-4.736-1.628-15.732-5.775-11.027-12.893,4.337-6.562,36.114-.533,31.618,9.309-.461,1.009-5.238,4.638-6.302,4.874-1.824.404-3.475-.843-4.065-.604Z"/>
  <path class="cls-7" d="M439.003,160.006c.56,2.309-.443,1.642-1.266,2.283-41.628,32.425-72.573,98.268-78.614,150.335-1.047,9.021-3.093,23.952,7.643,27.11,13.336,3.923,29.409,3.2,42.229,10.761-18.421,22.475-35.26,46.507-58.015,64.985-8.258,9.314,11.657,14.363,18.5,16.54,8.278,2.633,11.836,5.631,19.528-.511,6.877-5.491,18.485-17.679,24.505-24.495,2.565-2.904,13.148-15.307,12.351-18.302-.202-.76-1.67-2.439-2.347-2.501-2.882-.266-34.839,37.398-41.561,40.297l-22.955-6.519c24.393-20.198,43.1-46.328,62.026-71.539.254-1.602.101-2.717-1.02-3.966-1.3-1.447-13.063-6.217-15.76-7.232-6.234-2.347-12.736-4.277-19.237-5.763-13.265-3.031-17.445,2.168-15.889-14.868,3.604-39.444,26.163-91.336,50.92-122.08,15.094-18.744,45.518-49.878,69.951-29.022.992,4.519-9.613,1.544-11.385,1.582-24.183.523-42.21,43.573-48.893,63.113-15.734,46.004-13.72,77.284-5.481,124.052,2.412,13.688,18.504-.793,25.761-2.261-.348,4.592.754,9.082,2.026,13.451.014,1.138-19.572,3.635-22.257,4.801-3.797,1.649-3.455,5.566.677,5.815,5.031.304,19.391-3.573,21.983-2.952,1.721.412,1.963,3.864,1.63,5.239-.198.818-12.625,4.929-15.389,6.805-18.344,12.45-28.119,58.324-45.33,70.67-7.65,5.488-27.039,6.739-36.794,7.206-29.974,1.436-59.778-1.52-89.537-4.046-.665-6.891,5.697-9.696,8.202-14.289,11.853-21.733,16.96-53.095,26.094-75.906,3.127-7.809,11.588-17.863,15.873-26.127,23.681-45.678,30.09-120.174-11.646-157.698-3.042-2.735-15.799-11.508-19.209-11.81-1.687-.149-3.844,2.054-2.883,3.854.535,1.001,9.742,6.147,12.036,8.012,40.72,33.098,37.389,107.624,14.248,150.189l-5.718,7.772c.699-1.504,1.033-2.724,1.061-4.43.506-31.421-1.443-62.504-16.201-90.921-1.801-3.468-6.773-14.199-10.819-9.042,3.525,9.991,8.15,19.453,11.226,29.636,14.693,48.642,7.032,91.076-9.981,137.553-1.247,3.407-3.747,6.127-3.326,10.171-24.637,1.332-49.222-2.613-72.726-9.691-19.017-5.727-39.518-14.533-55.129-26.871-4.462-3.526-7.572-8.451-12.582-10.399-7.426,1.502,8.551,15.898,10.466,17.515,17.782,15.01,46.671,25.481,69.193,30.807,18.736,4.43,38.663,7.633,57.812,4.685-4.17,9.577-2.96,19.275-15.578,20.911-34.064,4.416-94.754-12.013-120.885-34.945-12.467-10.941-10.066-12.465-7.039-27.979,6.956-35.656,18.234-75.949,27.588-111.412,2.363-8.96,8.179-22.651,9.272-30.768.54-4.01-1.507-5.374-4.926-2.883-2.43,1.77-8.323,18.328-9.709,22.287-12.524,35.765-26.971,89.345-33.398,126.602-.634,3.678-2.606,12.559-2.316,15.598.351,3.666,4.936,6.259,5.043,10.034.071,2.527-1.599,6.338-1.908,9.188-.963,8.876-2.633,19.208-3.126,27.875-.81,14.252.587,29.171-.02,43.489-22.341-14.184-41.488-33.11-56.805-54.685-9.62-13.55-16.977-24.234-15.174-41.803,1.344-13.087,30.646-48.841,39.404-62.597,38.923-61.134,67.112-129.892,133.913-167.087,70.44-39.22,147.416-18.216,221.674-3.823Z"/>
  <path class="cls-6" d="M562,501c1.387-5.778,4.238-24.35,6.555-27.945,1.155-1.792,7.318-5.323,9.293-7.707,4.025-4.861,2.135-9.151,4.081-11.919,2.837-4.034,7.232-2.666,10.421-3.423.828-.197.566-2.101,1.131-2.013,3.534.555,5.839,11.394,13.526,14.502,10.368,4.191,14.226-2.347,19.256-1.35,1.067.211,8.284,5.562,8.474,6.093.419,1.169-.84,10.167-1.394,11.533-.321.792-11.333,8.109-5.813,9.23,2.25.457,24.337-13.728,30.172-13.81,1.789-.025,10.355,7.842,17.435,6.289,8.639-1.894,15.256-28.653,29.864-9.979,11.023,14.092,14.346,39.933,31,50.5,7.524,1.359,15.406,1.487,23.647.385,2.667.183,5.182,1.058,7.353,2.615,17.742,8.359,43.425,18.155,58.012,30.488,3.313,2.802,18.232,17.557,19.45,20.552,1.366,3.36-1.011,9.583-1.462,13.96-1.086,2.562-1.637,5.272-1.655,8.132l-1.345.368c.741.08,1.319.171,1.327.297.361,5.673.304,13.63-1.327,18.703-4.431,6.088-8.431,12.588-12,19.5-.628.98-2.971,4.968-3.497,4.984-22.009-19.531-45.442-13.333-71.503-9.984-16.861,2.084-32.974,1.525-48.557-5.284-4.421-1.085-7.556-1.786-9.443,3.284-6.61,24.498,16.505,29.592,23.188,48.312,2.081,5.829,1.784,11.707.365,17.74-5.878,24.978-36.911,21.187-55.225,13.12-20.341-8.96-44.51-37.541-37.657-61,.928-3.176,8.833-9.356,3.683-11.052-8.346-2.749-14.281,16.089-14.242,22.272.093,14.712,8.915,23.886,14.632,35.362,2.938,5.897-1.306,4.387-6.065,7.424-14.696,9.381-21.822,15.36-33.678,27.821-2.366,4.732-4.464,10.91-6.293,18.531l-1.693,1.062c-3.848-15.128-8.476-29.984-17.014-43.594-26.114-40.22-62.973-69.54-100-99-5.775-4.207-6.006-6.377-.692-6.509,6.364-3.009,12.262-6.839,17.692-11.491,9.317-7.939,15.597-15.534,27-21,9.644-2.29,18.644-5.624,27-10,.54-.345,2.665-1.745,3-2,15.481-13.179,20.827-34.789,23-54Z"/>
  <path class="cls-6" d="M525,381c19.476,6.326,38.4,18.028,54,30.982-2.841.517-5.439,3.182-6.032,6.002-19.438-10.738-35.671-25.942-58.968-26.984l-50.319,5.101c-17.305,1.445-15.091,8.47.666,8.367,14.292-.732,28.509-1.888,42.653-3.467,3.877-.46,9.168-1.979,12.551-2.029,10.163-.151,39.289,20.374,48.449,27.029l9.025,6.954c1.66,1.815.652,2.497-3.025,2.046-3.395-.129-6.292,2.375-6,6-12.062-7.262-24.558-15.187-37-22-13.344-8.075-30.864-5.46-43-2-1.986.12-4.011-.097-6,0-7.766.354-15.432,1.021-23,2-.201.68.041,2.081,0,3-.004,2.122,2.926,3.054,6.075,3.492,13.754.114,27.479-.864,41.175-2.934,11.043-1.873,19.874,3.499,28.75,9.443,5.34,2.911,8.049,4.63,13,8,1.554.919,15.764,9.475,15.165,10.175-5.499,1.032-6.83,5.721-6.924,10.706l-1.241.12c-2.979-1.522-5.576-1.951-8-3-8.621-5.57-19.611-9.909-30-12-8.317-.108-15.761.307-24,1l-17.872,2.331c-6.975,1.506-12.048,2.679-4.128,8.669,3.127.603,14.793-.456,18.568-.918,1.257-.154,1.007-1.401,4.432-2.082,20.983-4.004,40.369,4.881,57.822,15.526-1.605,8.339-12.127,6.084-18.298,4.638-19.042-7.989-40.904-4.222-59.128,3.89l-5.396,5.947c-11.616,15.826-28.79,39.786-50.512,41.988-8.242.835-17.541-1.567-24.868-.887-3.592.334-8.815,2.701-12.62,3.899-13.953,5.965-28.218,11.81-42.992,15.511-10.353-.542-20.689-1.379-31.008-2.511-.33-.033-.67.032-1,0-.615-.134-1.178-.353-1.572-.79-1.962-2.174-43.942-2.951-52.73-3.012-25.084-.174-52.818,1.441-75.994,3.074l-1.704.727c-1.657.094-3.343-.094-5,0-1.502.816-3.455.724-5,0-10.698,1.339-21.443,2.273-32.233,2.799-5.346-2.772-6.121-63.33-5.236-69.401l-.531-2.399c.028-1.332-.036-2.668,0-4l.994-.949c-.034-17.925,1.434-35.374,4.405-52.347l1.601,1.296c4.233,3.325,8.702,6.765,13,10,34.05,21.628,71.303,25.068,110.274,26.081.945.025.8,1.079-.274,1.919-8.329.918-20.002,1.379-28.833.998-.236-.01-.454-.444-.667-.998l.066,1.034c-3.608.155-5.796.81-6.566,1.966-12.124,1.476-20.294,2.756-31.68,7.82-4.815,2.141-9.727,4.74-13.313,8.698.853,4.518,4.68,1.758,6.993,1.482,11.347-4.226,23.014-6.892,35-8,5.583-.137,6.162-1.967,7.451-2.098,10.383-1.053,45.844.62,55.883,3.103.768.19.633,1.983,1.24,2.015,1.512.081,4.172-1.431,6.98-1.127,1.898.206,1.376,2.024,1.878,1.992,1.727-.109,3.364-1.19,6.085-.956,4.515.388,10.152.967,14.483,2.071,13.502.511,27.193.667,41.075.467l-1.075-.467c3.991-2.632,8.939.711,13.565.088,1.913-.258,1.34-2.049,2.066-2.135,2.097-.247,5.422,1.881,8.693,1.035,1.673-.433,1.601-.651,5.042-1.294,19.511-3.644,24.363-12.019,33.804-28.023,7.356-12.468,19.729-43.764,30.829-50.671,11.669-4.167,23.669-7.167,36-9,3.627-.477,7.357-.662,11-1,10.243-2.823,22.148-3.947,33-2Z"/>
  <path class="cls-6" d="M165,544c-.333.008-.667-.013-1,0-.873-.284-.86-.618,0-1,.667.111,1.096.22,1,1Z"/>
  <path class="cls-6" d="M580,441c1.009-.865,1.034-.283,1,1-2.543,5.694-6.903,3.754-10.984,1.435-1.12-.636-1.69-2.239-2.016-2.435,2.922.015,3.125-3.14,6.501-3.109,2.269.021,3.858,1.771,5.499,3.109Z"/>
  <path class="cls-7" d="M589.799,100.299c56.494-4.852,116.212,24.873,137.382,79.021,15.158,38.771-7.477,79.278-25.705,112.686-36.185-28.503-80.041-43.871-120.834-64.146-12.46-6.193-30.893-14.786-39.619-25.381-5.687-6.905-10.864-16.346-16.207-23.793-2.664-3.713-12.269-14.108-13.349-16.732-.57-1.386-.156-1.491.282-2.633,1.552-4.05,11.991-17.92,15.283-21.791,17.169-20.193,35.353-34.877,62.769-37.231Z"/>
  <path class="cls-6" d="M505,189c12.015,5.688,10.502,28.241,5.279,38.742-.626,1.259-1.935,1.354-2.256,1.995-3.95,7.88-7.399,12.515.501,19.239,1.497,1.274,10.993,8.955,11.741,9.277,3.704,1.596,4.668.139,7.735-1.252,7.083-4.632,14.003-7.466,20.762-8.501l1.238-.499c1.177-.097,5.448-.252,5.888.12,4.503,13.592,11.896,26.924,19.311,39.181,10.749,17.769,18.65,29.688,38.115,38.885,13.054,6.168,28.303,7.603,40.675,14.834-7.696,12.593-11.581,6.979-21.774,4.265-6.843-1.822-13.376-2.859-20.518-2.267-1.972,2.952-4.818,3.03-7.137,6.042-2.448,3.178-6.05,11.925-7.56,15.94-2.672,11.047-4.701,22.199-6.085,33.456-2.85,5.11-6.818,5.614-10.915,1.544-8.93-3.969-18.953-12.822-27.524-17.999-.965-1.952.039-7.058.827-9.198,1.662-4.516,6.696-6.175,6.692-10.797-.744-.738-6.675,1.385-7.995,1.995-4.91,2.985-6.981,7.696-8.755,12.763-13.413-7.691-31.506-10.162-44.245-5.763-11.446.929-22.711,2.605-34.042,4.596-1.571-1.222-5.541-25.72-5.958-29.596-.357-18.326.571-36.288,5-54,1.757-5.4,4.076-10.699,6.828-15.672,1.326-2.397,6.67-8.789,7.023-10.053.868-3.114-3.194-5.84-4.851-9.275-10.841-22.521-2.509-75.819,32-68Z"/>
  <path class="cls-7" d="M718.99,369.999c-5.759-5.575-9.431-12.6-15.464-18.026-21.507-19.34-57.627-23.125-83.2-34.8-37.836-17.274-45.557-63.063-66.326-95.164,1.504-1.208,26.861,13.01,30.641,14.849,31.56,15.355,64.663,28.385,93.886,48.114,12.801,8.642,19.112,12.382,24.509,27.491,6.54,18.312,10.498,38.806,15.954,57.536Z"/>
  <path class="cls-5" d="M356.006,550.989l37.726-14.748c30.725,4.644,49.028-3.737,68.78-26.229,5.675-6.462,18.811-29.796,29.488-24.534,1.981.976,13.408,25.009,15.827,29.195,7.245,12.532,13.268,22.23,26.155,29.828-11.695,12.075-31.285,7.419-42.483,21.466-20.749-23.506-44.131-4.371-67.955,1.069l-67.538-16.046Z"/>
  <path class="cls-3" d="M280.65,766.35c26.616,24.063,42.885,64.457,44.339,100.161.212,5.21-.639,28.199-3.487,31.492-1.295,1.498-25.465,6.736-29.001,7.015-2.016.159-1.482.318-1.028-1.029,8.501-25.201-2.723-68.629-15.302-91.659-9.677-17.717-21.444-32.751-39.167-42.833,7.683-4.851,17.068-6.133,25.116-9.91,1.845-.866,1.726-2.623,3.355-2.691,4.478-.186,11.757,6.364,15.174,9.455Z"/>
  <path class="cls-6" d="M430,271c2.416-2.556,1.1.172.979.051-.123-.123.096-1.246.195-1.7,2.778-12.626,6.299-24.899,10.074-37.252,1.115-3.649,12.033-27.683,14.049-28.578.347-.154,7.546-.473,7.582-.096l-5.574,21.199c-3.146,13.36-2.872,26.522,4.695,38.375,1.04,1.349,4.8,2.699,4.586,5.067-.228,2.511-6.476,9.697-8.128,12.891-7.759,14.997-10.084,36.31-10.463,53.039-2.073,2.155-17.317-11.914-18.513-14.978-3.467-8.882-1.334-37.813.518-48.018Z"/>
  <path class="cls-6" d="M522,519c-6.094-11.601-12.022-23.357-17.784-35.267l3.687-1.355c12.096.733,24.208,2.626,36.337,5.678l.76-1.055c.667-.001,1.333,0,2,0,2.28.415,4.698.276,7.256-.417-1.927,13.517-5.543,34.211-12.225,46.457-.216.396-3.231.115-4.031-.04-5.339-1.797-12.917-9.324-16-14Z"/>
  <path class="cls-1" d="M550.995,238.995c-3.805.235-8.128.7-11.792,1.709-4.094,1.128-14.9,6.959-16.888,7.138-.434.039-6.91-4.649-7.132-5.024-1.461-2.477,4.991-12.49,6.096-16.038,3.61-11.599,2.548-21.117.211-32.759,9.896,14.941,23.519,27.707,29.505,44.975Z"/>
  <path class="cls-6" d="M625,389c.716,11.641.05,23.308-2,35-.795,4.961-1.711,9.964-2.01,14.995-1.402.214-1.099-1.41-2.062-2.403-.577-.595-1.714-.405-1.928-.592-2.735-3.05-8.091.014-10.56,5.454l-1.44-.454c-.634-9.829-.634-19.829,0-30,.579-4.78,2.926-9.447,2.206-14.802,3.645-.328,12.762-10.81,14.359-11.16,1.84-.404,2.863,2.716,3.436,3.962Z"/>
  <path class="cls-6" d="M604,442c-.039-.328.028-.669,0-1,.284-.873.618-.86,1,0,.281.943-.053,1.276-1,1Z"/>
  <path class="cls-5" d="M621,787.99l-55.995,3,14.023-10.461c1.454-2.16,4.143-4.583,5.048-6.947.765-1.999.625-5.686,1.087-6.409,1.02-1.596,12.079-1.826,14.209-.045l21.627,20.863Z"/>
  <path class="cls-6" d="M636,449c-.389,2.349,1.242,4.509-2.646,4.681-2.535.112-6.052-1.482-6.383-4.236.297-7.752,2.895-15.622,3.924-23.062.299-2.161-.153-4.415.105-6.383l1.241-.789,2.021-15.05c.263-15.986,4.746-2.569,4.54,5.299-.65,13.338-1.585,26.518-2.803,39.54Z"/>
  <path class="cls-4" d="M197,811c-5.3,2.732-17.063-.623-23.51-.99-39.199-2.234-78.817-1.467-117.866,3.115-8.235.966-17.111,3.161-25.152,3.873-1.628.144-4.461.613-5.472-.997,38.778-6.114,78.207-9.398,117.541-9.041l54.459,4.041Z"/>
  <path class="cls-6" d="M605,368c1.509-3.064,2.997-4.545,4.464-4.441l11.929,4.42c-1.174,1.348-1.972,2.688-2.393,4.02-3.793,4.696-4.743,6.738-10,10-1.944,1.75-4.112,3.147-6.503,4.189.738-4.424,1.239-8.821,1.503-13.189.341-1.565.593-3.65,1-5Z"/>
  <path class="cls-4" d="M174,543c-.557-3.033,1.525-1.916,3.45-2.005,42.295-1.958,82.701-5.349,125.049.051,1.873.239,4.06-1.269,3.501,1.954-46.998-4.551-85.258-2.653-132,0Z"/>
  <path class="cls-6" d="M650,415c1.238,1.966,1.486,2.757,2,5,.308,6.012-1.768,36.757-6.618,38.534-1.816.665-3.179.429-2.382-1.534.455-3.63.637-7.362,1-11,2.088-11.203,3.433-22.581,4.037-34.135l1.963,3.135Z"/>
  <path class="cls-4" d="M126,474c1.656,1.039,1,3.795,1.017,5.486.157,14.975-.25,31.147.993,46.004.313,3.74,2.038,16.334,3.878,18.915,1.522,2.134,19.063-1.197,22.617-1.395,3.159-.177,6.352.161,9.494-.01v1c-10.976.443-21.913,2.332-32.879,2.878-6.851-22.809-5.624-49.021-5.121-72.878Z"/>
  <path class="cls-4" d="M169,543c-.694,1.501-2.683.967-4,1l-1-1c1.862-.101,3.412.09,5,0Z"/>
  <path class="cls-4" d="M636,449c-1.6-1.005-1.153-3.858-1.004-5.479,1.207-13.071,4.416-26.763,2.92-39.936-.168-1.483-1.232-5.991-2.906-6.58.327,7.215-.792,14.385-2.045,21.476-.379,2.142,1.071,3.484-1.965,1.519,1.385-10.561,4.948-21.229,2.01-31.994,1.639.481,2.425,3.943,3.011,5.475,6.256,16.337,2.827,38.314-.021,55.52Z"/>
  <path class="cls-4" d="M469,485c.118-.161-.21-1.017.285-1.705.902-1.251,5.643-5.857,7.001-6.509,4.63-2.222,31.912-7.751,36.95-7.526,7.259.324,32.926,11.893,37.31,3.767.615-1.14.726-1.917.002-3.055-.958-1.504-28.942-13.354-32.571-14.44-8.698-2.605-15.812,1.849-23.977-.532,4.167-.828,12.33-1.94,16.48-2.063,5.021-.149,35.235,11.97,39.85,15.227.988.697,2.096,1.218,2.53,2.471-4.922,13.696-26.189,1.931-36.616.624-6.464-.81-35.145,3.999-40.197,7.29-2.495,1.625-4.228,5.039-7.048,6.452Z"/>
  <path class="cls-6" d="M617,453l-6,1c-.377-.082-.686-.823-1-1-1.392-2.387-.413-3.006,2-2,.222-1.457-5.417-9.062.716-10.835,9.238-2.672,8.506,10.095,4.284,12.835Z"/>
  <path class="cls-4" d="M545,487c2.204,3.156-.536,2.098-2.364,1.869-4.396-.551-37.116-10.008-37.595-4.382,5.018,10.805,10.117,21.514,16.398,31.613.614.987.351,2.581.562,2.9l-19-35.475c13.293-6.069,27.492,3.506,42,3.475Z"/>
  <path class="cls-4" d="M514,391l-17.627,2.873c-12.487,2.215-27.68,1.451-39.777,4.223-1.47.337-3.923,1.011-4.587,2.418-.908,1.925,1.961,1.616,3.023,1.941,10.748,3.291,34.793-.733,46.978-1.964,1.489-.15,3.961-1.501,4.991.51-13.907,1.651-32.822,5.218-46.534,4.035-10.83-.934-13.946-6.986-1.856-8.925,14.248-2.285,41.595-5.727,55.39-5.11Z"/>
  <path class="cls-6" d="M632.993,356.013c-.05,1.376-3.968,2.377-4.938,2.534-5.558.904-9.649.084-14.636-2.456-.789-.402-3.07-.312-1.414-2.076,3.938-4.198,15.933,1.245,20.989,1.997Z"/>
  <path class="cls-4" d="M753,631c-16.718,2.149-23.413,2.803-40.216-1.284-6.223-1.513-13.654-7.575-17.784-.716.874-3.24,1.1-5.23,5.407-4.945,5.762.382,16.535,5.72,24.214,6.824,9.885,1.422,18.502-.007,28.379.121Z"/>
  <path class="cls-4" d="M146,428c16.236,8.811,32.916,15.388,50.989,19.511,19.298,4.402,41.444,8.077,61.005,5.493-.547,8.433-13.725,3.85-20.539,3.959-5.16.083-12.182,1.395-17.455,2.037.083-.562-.165-1.891-.009-1.998.272-.186,6.18-1.002,6.509-1.002h29.5c.224-1.761-2.261-.949-3.49-1-12.067-.5-22.733-.452-34.868-2.143-22.707-3.163-53.474-11.185-71.642-24.858Z"/>
  <path class="cls-4" d="M133,418c-3.147-.571-1.709,1.554-2.018,3.433-2.59,15.779-2.217,31.25-2.982,47.082-.118,2.453.723,3.271-2,1.485.018-.666-.02-1.334,0-2,.763-1.262.754-2.731,0-4,.607-16.313,2.602-32.745,4.01-49,1.569.116,2.195,2.375,2.99,3Z"/>
  <path class="cls-4" d="M459,346c-1.836-17.063-.334-37.609,5-54,1.843.848.436,3.262.114,4.601-1.645,6.844-3.604,14.939-4.102,21.912-.64,8.964,1.282,18.828-1.013,27.487Z"/>
  <path class="cls-4" d="M462,263c-13.354-17.329-5.025-40.25-.004-58.994-1.944.199-4.592-.476-6.363.128-1.304.444-11.216,21.592-12.401,24.598-5.16,13.089-7.521,27.229-11.227,40.789-.515,1.885,1.134,3.537-2.004,1.48,1.979-10.902,6.77-28.482,10.541-38.959,1.241-3.448,12.548-28.72,14.123-29.085,2.656-.616,6.516,1.026,9.326-.956-4.047,15.131-10.979,34.414-6.508,50.017,1.196,4.175,3.927,6.874,4.518,10.982Z"/>
  <path class="cls-4" d="M505,189c-23.275-1.523-29.298,9.683-33.51,29.99-2.665,12.853-4.433,25.694,1.51,38.01-9.608-11.795-4.512-38.47.82-51.68,4.698-11.641,18.704-22.226,31.18-16.32Z"/>
  <path class="cls-4" d="M565,705c4.195,6.46,8.172,13.226,11.015,20.485,1.554,3.966,5.218,20.713,5.994,21.517,1.491,1.543,1.729-.34,2.104-1.385,1.753-4.89,1.235-10.842,4.113-15.992,1.195-2.138,1.687-.534,1.773-.624-3.964,6.436-1.705,17.859-8.989,20.999-1.556-16.329-9.526-30.395-16.011-44.999Z"/>
  <path class="cls-6" d="M574.006,419.982c1.244-5.143,5.927-7.19,8.985-1.983l-.982-3.998c2.811,1.504,3.351,3.699,1.874,6.332-3.68,6.558-4.812.875-9.878-.351Z"/>
  <path class="cls-6" d="M566,462c-9.079,5.327-7.662-13.256,1-6,1.994-1.126,4.568-3.547,4.013,1.489-.296,2.687-3.019,3.42-5.013,4.511Z"/>
  <path class="cls-4" d="M650,415c-.511-.811-.912-2.217-1.99-1.995-.372,9.182-.415,19.475-2.037,28.467-.315,1.748-.115,3.494-1.973,4.528,1.226-12.289,2.595-24.636,3.01-37l2.99,6Z"/>
  <path class="cls-4" d="M525,381c-11.359-1.062-21.944.976-33,2-.56-3.232,1.638-1.706,3.501-1.954,10.874-1.447,18.974-3.465,29.499-.046Z"/>
  <path class="cls-4" d="M552,364c-3.934,3.579-7.972,8.311-7.005,13.995-4.992-1.367-9.477-4.587-14.448-6.042-11.061-3.237-20.491-1.85-31.547-.953-.555-3.121,1.565-1.829,3.468-1.987,5.308-.442,10.676-1.319,16.02-.993,8.899.543,16.605,4.331,24.498,7.979,1.345-5.29,4.241-9.792,9.015-11.999Z"/>
  <path class="cls-4" d="M828,636l3.199-8.301c.519-2.222,8.801-10.487,8.801-11.199v-19c0-1.371,1.21-8.295,3-8.5-.76,7.374.164,20.768-1.243,26.257-.309,1.206-11.771,17.642-13.757,20.743Z"/>
  <path class="cls-4" d="M539,555c15.761-13.608,18.396-34.82,23-54,2.054,2.336.119,7.211-.49,10.009-3.637,16.722-8.679,33.438-22.51,43.991Z"/>
  <path class="cls-1" d="M502.162,175.831c-.227-.342-2.26-8.907.324-7.823,2.845,1.193,7.32,8.918,9.493,11.502-1.519-.7-9.527-3.242-9.817-3.679Z"/>
  <path class="cls-4" d="M311,474c13.274-.246,26.724-.186,40,0,.495.007,6.141-.684,4.497,1.005h-47.994c-1.72-1.596,2.963-.995,3.497-1.005Z"/>
  <path class="cls-4" d="M623,424c-2.124-6.487,1.651-14.72,1.985-21.511l.015-13.489c3.727,8.106-.504,25.667-2,35Z"/>
  <path class="cls-4" d="M381,530c-5.199,3.498-11.858,5.598-17.747,7.753s-21.842,8.576-26.982,9.029c-5.97.526-21.832-3.04-29.271-3.782,7.407-2.66,16.986,1.649,24.528,1.995,13.214.606,35.936-10.733,49.472-14.995Z"/>
  <path class="cls-4" d="M580,400c13.689,6.084,10.479-7.463,12.29-17.21,1.219-6.562,2.386-11.612,4.71-17.79l-5.515,33.985c-4.881,5.388-6.259,8.097-11.485,1.015Z"/>
  <path class="cls-4" d="M547,487l9.015-1.486c-3.129,13.14-5.376,27.105-10.266,39.735-1.974,5.097-1.84,9.74-7.748,7.752l3.996.01c3.865-14.47,10.078-29.612,11.979-44.551.396-3.112-5.262,1.739-6.975-1.459Z"/>
  <path class="cls-4" d="M535,432c-17.107-9.326-17.486-9.469-37.491-7.991-7.924.585-32.655,4.743-38.52.483-2.006-1.457.003-2.301.012-2.491,4.425,4.252,13.724,3.218,19.541,3.041,10.919-.331,27.733-4.638,37.611-3.502,4.728.544,14.942,7.24,18.848,10.461Z"/>
  <path class="cls-4" d="M531,419c-3.584-.278-6.574-2.806-9.776-3.724-10.598-3.039-22.432,1.073-33.224,1.724-.559-3.225,1.632-1.714,3.501-1.954,17.415-2.229,23.578-4.764,39.499,3.954Z"/>
  <path class="cls-4" d="M277,900c-17.951,3.442-36.109,7.2-54,11,.612-1.98,2.521-1.931,4.156-2.346,14.245-3.608,30.111-5.921,44.803-9.209,1.535-.344,4.063-1.299,5.041.554Z"/>
  <path class="cls-4" d="M217,469c-5.886,1.564-12.056,2.054-18.004,3.496s-11.284,3.823-16.996,4.504c10.046-4.096,21.989-7.984,32.864-8.786,1.522-.112,2.022.789,2.136.786Z"/>
  <path class="cls-4" d="M283,873c-2.864,1.859-1.751.84-1.988-1.498-1.672-16.512-4.697-30.197-11.012-45.502,8.073,13.645,11.527,31.239,13,47Z"/>
  <path class="cls-4" d="M590,434c-.814-.966-4.003-1.991-2.933-3.936,2.661.054,3.889-5.591,6.417-5.059,2.053.432,4.056,16.694-3.479,13.991-.11-1.647.131-3.352-.005-4.996q1.935-.859,0,0Z"/>
  <path class="cls-4" d="M654.992,468.013l-12.983,6.987c1.1-6.318,7.048-9.759,12.983-6.987Z"/>
  <path class="cls-4" d="M482,417c-7.429,2.083-15.345,2.099-23,2,.999-3.387,12.935-1.862,16.533-1.951,2.126-.053,5.093.018,6.467-.049Z"/>
  <path class="cls-4" d="M536,557c-.256.163-.66,1.244-1.609,1.845-7.165,4.533-17.264,5.93-25.391,8.155,8.703-4.172,18.217-5.607,27-10Z"/>
  <path class="cls-4" d="M481,384l-36,9c9.765-6.076,25.254-7.587,36-9Z"/>
  <path class="cls-4" d="M605,441c3.601-2.673,5.546-8.521,11.342-7.044,1.121.286.547,1.947.658,2.044-9.578-2.771-13.889,11.636-5,15-.096.631-1.479,1.459-2,2-4.078-2.291-5.471-6.563-6-11,.369-.278.64-.732,1-1Z"/>
  <path class="cls-4" d="M605,441h-1c-.77-8.943-.086-21.024,1-30,2.325,9.476-1.304,20.072,0,30Z"/>
  <path class="cls-4" d="M652,420c1.779,7.758-.915,29.076-3.983,36.517-1.136,2.756-2.702,2.813-5.502,3.498-1.769-.856.443-2.676.486-3.015,4.311,4.021,3.908-5.87,5.725-7.775l3.275-29.225Z"/>
  <path class="cls-4" d="M767,524c-9.697-5.473-22.504,2.391-31-3,8.809,2.539,19.068-2.616,27.751.784,1.507.59,2.411,1.821,3.249,2.216Z"/>
  <path class="cls-4" d="M283,897c-1.673-6.446-1.673-15.554,0-22,.587,7.493,1.439,14.526,0,22Z"/>
  <path class="cls-4" d="M493,447c-4.729,2.651-20.483,2.073-23.997,4.503-3.88,2.683,2.396,3.844,1.997,6.497-1.667-.321-5.065-2.61-5.059-4.511.017-5.554,22.6-6.114,27.059-6.489Z"/>
  <path class="cls-4" d="M594.99,423c-3.436-1.158-.933-4.096-1.188-6.276-.447-3.814-4.376-5.444,2.188-7.723l-1,14Z"/>
  <path class="cls-4" d="M604,373c2.481,1.811-1.618,11.382-.996,11.994,2.329.067,4.131-1.836,5.996-2.994l-6.99,6c-.252-5.105.918-10.08,1.99-15Z"/>
  <path class="cls-4" d="M548,440c6.728,2.619,12.867,7.624,18.995,11.504-1.521,1.192-3.108-.957-5.264-.381-4.164,1.112-6.441,9.259-3.716,11.873,2.907,2.789.97-4.394,1.133-5.252.769-4.046,5.985-6.741,7.852-1.745-1.763.996-2.927-1.816-5.996-1.002.154,5.639-1.95,7.988,4.996,7.002-1.759.962-.876,2.395-5.488,2.055-4.161-.307-4.011-2.288-5.512-3.055,1.636-1.718.796-4.373,1.754-6.747,1.158-2.869,3.934-3.128,5.238-5.24-5.325-1.841-9.564-5.998-13.992-9.013Z"/>
  <path class="cls-4" d="M568,426c1.692,1.229,5.001,2.669,6.511,3.984,3.301,2.875,8.585,7.323,6.489,12.016-.365-.293-.641-.708-1-1-.271-3.335-2.547-5.869-6-6,4.503-2.658,1.367-2.494-.453-3.995l-5.547-5.005Z"/>
  <path class="cls-4" d="M550,248c.576,3.189-1.591,1.666-3.434,2.017-8.455,1.611-11.357,3.713-18.566,6.983,4.332-5.4,15.258-8.446,22-9Z"/>
  <path class="cls-4" d="M198,793c-.012.069,1.595.328.998.988-1.175,1.297-14.514,3.907-15.997,7.002,3.605.678,13.776,4.167,15.542,6.978,1.213,1.93-.196,1.538-.543,2.033.411-2.22-2.827-3.413-4.334-4.159-4.643-2.3-9.853-3.549-14.676-5.341l19.01-7.5Z"/>
  <path class="cls-4" d="M605,368c.45-1.493,1.631-6.331,3.337-5.857,4.302,1.197,9.348,5.207,14.662,4.867.287.279-3.352,4.189-3.999,4.989-2.043-.614,1.95-2.693.998-3.987-.378-.514-11.485-4.078-12.053-3.595-1.24,1.057.007,4.315-2.946,3.582Z"/>
  <path class="cls-4" d="M482,588c-6.154,5.244-12.527,11.417-20.998,13.012l3.998,4.988c-1.976-1.572-4.022-2.808-6.224-4.045-1.162-.653-1.099-1.687-.773-1.95,9.367-.006,16.357-7.746,23.996-12.005Z"/>
  <path class="cls-4" d="M517,446c8.299.108,19.063,5.588,27.264,9.286,1.485.669,3.276.133,2.736,2.714-9.86-4.266-19.49-9.393-30-12Z"/>
  <path class="cls-4" d="M617,453c-1.791,1.162-3.832,1.474-6,1,1.123-1.769,4.115-.856,6-1Z"/>
  <path class="cls-6" d="M126,468c.04-1.331-.05-2.67,0-4,1.495.323,1.557,3.586,0,4Z"/>
  <path class="cls-1" d="M520.5,192c.649.333.649.667,0,1v-1Z"/>
  <path class="cls-1" d="M484.995,179.01l-7.907,4.578c-4.417,5.344-9.236,7.227-16.068,7.922,5.723-8.553,13.164-14.214,23.975-12.5Z"/>
  <path class="cls-1" d="M870.005,720.995c2.727,2.718,10.408-7.62,11.968-9.522,8.491-10.356,15.685-22.579,23.532-33.468,4.973,53.174-26.26,111.883-79.485,126.505,9.219-7.908,28.125-22.06,30.784-34.214,1.351-6.173-3.583,1.1-4.27,1.766-12.501,12.128-25.057,24.188-40.855,32.117-56.188,28.199-141.576,11.281-188.152-29.206-4.188-3.64-24.566-23.489-25.985-27.011-5.104-12.67,11.924-25.94,21.153-31.767,4.396-2.775,17.692-10.299,22.245-8.691,5.119,1.807,13.415,9.771,20.38,12.676,36.443,15.204,81.756-4.053,65.169-48.169-5.853-15.566-21.318-20.197-24.485-36.005,15.609,3.051,29.259,6.073,45.486,4.983,14.727-.989,29-6.338,43.994-4.974,11.704,1.065,21.758,7.448,31.08,13.991,1.03,1.659-7.361,21.412-2.127,26.066,1.007.895,1.269,1.17,2.58.483,1.717-.9,4.942-16.147,6.238-19.802,6.998-19.741,19.698-32.717,30.161-49.839,6.15-10.065,18.783-35.835,7.635-45.47-6.779-5.859-3.905,8.412-4.004,11.078-.304,8.22-5.743,21.844-10.193,28.83-.65,1.021-2.051,3.081-1.85.161,2.439-14.029,4.714-29.385,10.534-42.478,3.762-8.465,7.592-11.699,17.524-9.592,27.698,5.875,34.956,64.386,32.976,87.091-1.336,15.318-11.531,32.692-19.228,45.772-5.64,9.584-18.312,25.044-22.026,33.972-.444,1.066-1.331,4.161-.776,4.714Z"/>
  <path class="cls-1" d="M519.5,190c.649.333.649.667,0,1v-1Z"/>
  <path class="cls-1" d="M824.5,805c.649.333.649.667,0,1v-1Z"/>
  <path class="cls-1" d="M822.5,806c.649.333.649.667,0,1v-1Z"/>
  <path class="cls-2" d="M217,884c1.659-.051,3.338.028,4.995.005,3.137,2.725-16.782,9.713-18.33,10.157-4.848,1.388-7.706.368-11.015.807-.727.097-.554,1.822-1.326,2.019-1.432.367-13.372-.847-15.593-1.219-.968-.162-6.142-1.78-5.731-2.769,13.512-6.894,31.918-8.603,47-9Z"/>
  <path class="cls-4" d="M217,884c-10.032.311-30.233,3.85-40.222,6.278-2.457.597-4.588,1.527-6.778,2.722,2.008-3.237,6.385-3.89,9.8-4.7,9.091-2.159,22.478-4.175,31.84-5.183,1.638-.176,4.333-.829,5.361.883Z"/>
  <path class="cls-3" d="M409.788,613.291c3.819-.492,9.859-1.153,12.75,1.669,8.23,8.035-20.666,5.876-19.533.555,1.542-1.717,4.601-1.943,6.783-2.224Z"/>
  <path class="cls-2" d="M87.996,362.995c-.263,20.888,6.064,42.363,15.833,60.677,1.541,2.889,7.639,10.294,7.033,12.619-2.139,8.202-11.365-6.844-13.03-9.621-9.174-15.3-16.157-40.398-14.877-58.212.298-4.147.294-6.322,5.041-5.462Z"/>
  <path class="cls-2" d="M406.721,379.145c10.482-2.892,9.989,15.755-.217,15.782-7.852.021-6.847-13.833.217-15.782Z"/>
  <path class="cls-2" d="M675,696c-20.024-3.614-39.502-23.259-24.842-43.341,6.05-8.287,9.977,5.934,16.268,8.415,6.905,2.724,22.857-3.802,23.625,7.442.496,7.265-7.766,10.342-14.005,9.408-.27-.949.064-1.994-.046-2.925,1.844-2.242,2.769-4.085,2.777-5.528-6.78,2.085-13.869,3.623-19.777-1.472-1.07-1.01-1.971-3.081-3.5-3.98-4.258,6.117,2.335,12.815,7.5,15.98,9.941,8.002,23.417,8.922,35,4,.358-.211,1.795.601,2.07-.612.751-3.314-5.195-17.579,3.93-13.388,9.968,8.215,6.862,24.992-3,32-1.497.731-7.972,2.901-8.997,1.993-.007-1.406.69-2.66.997-3.993,2.931-4.337,1.192-5.414-5.217-3.231-4.902,1.137-9.164.88-12.783-.769Z"/>
  <path class="cls-2" d="M565,567l1.099,1.005c.966,11.953,4.667,23.753,10.901,33.995,4.074,8.388,11.146,17.797,19.063,23.437,3.052,2.174,15.863,5.68,13.513,9.563-1.808,2.988-8.488.931-11.13.052-10.713-3.563-22.38-16.759-28.446-26.052-7.808-15.276-16.196-35.432-9-52,.311-.344.304-2.722,1.509-2.999,3.89-.894,2.208,10.416,2.491,12.999Z"/>
  <path class="cls-2" d="M760.652,531.347c9.354,8.928,1.265,25.12-5.682,33.124-2.892,3.332-21.246,19.119-24.966,15.524,2.055-7.241,9.047-12.256,11.773-19.717,2.56-7.008,2.898-27.871,9.234-30.756,3.174-1.445,7.174-.53,9.641,1.825Z"/>
  <path class="cls-2" d="M703,561c-.633-1.159-1.609-1.254-1.953-3.52-.734-4.831,1.597-16.48,6.34-18.535,7.485-3.244,5.269,2.249,8.217,2.842,1.494.301,6.515-1.591,8.913-1.769,2.202-.164,12.211-1.062,11.478,2.468-.453,2.184-19.602,2.802-23.995,8.515l-1.875,1.298c-1.236,12.051-3.611,14.951-7.125,8.702Z"/>
  <path class="cls-2" d="M690.995,472.005c-3.485,9.397-7.938,23.722-19.99,23.989l16.018-21.471,3.972-2.518Z"/>
  <path class="cls-2" d="M667.986,498.002c1.614,8.007,8.986,9.47,16.007,7.001.369,6.239-7.646,6.733-12.442,5.933-8.751-1.46-7.287-15.791-3.565-12.934Z"/>
  <path class="cls-4" d="M561,557c-6.027,17.6,2.181,35.919,9,52-8.986-13.767-13.88-30.863-11.88-47.397.636-5.263,1.986-3.612,2.88-4.603Z"/>
  <path class="cls-4" d="M698,684c-10.679,6.305-26.351,5.086-35-4,11.333,6.944,22.236,7.557,35,4Z"/>
  <path class="cls-4" d="M701,702c9.356-7.978,11.27-22.552,3-32,11.399,5.236,7.497,26.875-3,32Z"/>
  <path class="cls-4" d="M659,668c8.015,5.133,14.699,2.128,22.994.004.062,3.642-4.514,4.302-5.994,6.996-.459-3.888,1.091-2.174,2.999-4.99-8.142,2.08-13.327,4.285-19.999-2.01Z"/>
  <path class="cls-4" d="M565,567c3.217-.564,1.687,1.619,1.968,3.485,1.815,12.035,4.763,20.667,10.032,31.515-7.261-9.176-10.731-23.433-12-35Z"/>
  <path class="cls-4" d="M712,551c-3.231,4.201-2.395,22.093-9,10,1.118-.074,2.74,5.527,4.52,2.02,1.38-2.717.459-10.143,2.478-13.514l2.001,1.493Z"/>
  <path class="cls-4" d="M675,696c8.485,1.532,13.794.097,21.995-1.995l-3.995,5.995c.307-1.334,1.021-2.582.996-3.994-5.569,1.516-9.671,2.19-15.545,1.99-1.923-.065-4.008,1.028-3.451-1.997Z"/>
  <path class="cls-2" d="M654.855,116.139c.351.586.364,3.344.033,3.759-.497.623-13.071,2.161-15.705,2.784-45.195,10.697-65.75,45.538-88.694,82.306-8.676,4.203-2.682-5.624-.662-9.661,14.728-29.429,44.565-66.161,76.957-76.043,4.087-1.247,26.049-6.519,28.071-3.145Z"/>
  <path class="cls-2" d="M579,305c4.728,3.918,9.061,8.251,13,13,.745.881,1.344,2.645,2.473,4.016,3.931,4.774,11.974,8.855,11.46,15.377-.432,5.47-5.301,4.084-9.482,2.656-2.906-.993-7.392-5.864-8.084-5.985-.551-.096-6.237,4.332-9.954,4.846-11.634,1.609-33.233-7.312-23.885-20.912,3.928,2.328,5.306,4.777,9.472,7.002,1.28,1.588,13.299,6.351,14.421,5.686.129-.077,1.123-1.44,1.132-1.535l-5.554-13.15c-5.796-7.966-9.853-7.131-16.471-12.029-3.038-2.248-8.898-7.471-2.037-8.056,6.774-.577,17.85,5.394,23.509,9.084Z"/>
  <path class="cls-2" d="M491.696,224.692c4.396-4.049,5.226-12.321,2.81-17.694-3.285-7.304-4.376-1.356-8.067-.987-6.934.693-1.351-9.391,6.04-9.079,10.442.44,12.864,17.205,10.239,25.286-3.251,10.005-13.687,11.648-15.225,14.777-1.361,2.768,1.744,9.845-.987,9.981-3.538.176-7.756-7.414-6.705-11.594,1.692-6.73,8.229-7.312,11.896-10.69Z"/>
  <path class="cls-4" d="M574,316c3.252,4.469,5.389,9.733,6.995,14.995-1.867,1.672-15.467-2.757-16.995-5.995,1.96,1.047,14.232,5.783,14.994,4.996l-4.994-13.996Z"/>
  <path class="cls-4" d="M592,318l-13-13c6.999,4.564,7.991,7.077,13,13Z"/>
  <path class="cls-6" d="M590,434c-.237-2.864-2.134-5.306,2.995-5.995v8.99c-2.745.629-1.667-1.419-2.995-2.995Z"/>
  <path class="cls-1" d="M755.984,536.004c.217.201,1.889,4.905,1.981,5.577.756,5.545-2.79,12.768-6.955,16.419,1.083-5.916,1.241-12.388,2.28-18.235.171-.964.754-5.562,2.694-3.761Z"/>
</svg>